<?xml version="1.0" encoding="UTF-8" standalone="no"?>
<svg
   xmlns:dc="http://purl.org/dc/elements/1.1/"
   xmlns:cc="http://creativecommons.org/ns#"
   xmlns:rdf="http://www.w3.org/1999/02/22-rdf-syntax-ns#"
   xmlns:svg="http://www.w3.org/2000/svg"
   xmlns="http://www.w3.org/2000/svg"
   viewBox="0 0 570 745"
   height="745"
   width="570"
   id="svg885"
   version="1.1">
  <metadata
     id="metadata891">
    <rdf:RDF>
      <cc:Work
         rdf:about="">
        <dc:format>image/svg+xml</dc:format>
        <dc:type
           rdf:resource="http://purl.org/dc/dcmitype/StillImage" />
        <dc:title></dc:title>
      </cc:Work>
    </rdf:RDF>
  </metadata>
  <defs
     id="defs889" />
  <g
     style="display:inline"
     id="layer8">
    <path
       id="circle4588"
       d="M -1.4843712,387.7142 C -123.38991,387.59831 -243.44641,454.88593 -305.57813,560.02671 c -55.08609,90.65475 -67.40808,206.46587 -30.5371,305.77539 33.66899,94.10406 108.42477,173.0705 201.54882,210.0273 89.920799,36.7571 194.885949,35.1713 283.06836,-6.0293 84.03474,-38.2915 152.55519,-110.37998 184.89649,-196.72261 34.66702,-89.73768 31.42325,-193.7494 -10.41211,-280.51954 C 283.42692,508.38913 209.74016,440.44043 121.77539,409.34116 82.316359,394.97672 40.404939,387.47218 -1.4843712,387.7142 Z m -0.36914,12.00586 C 72.620109,399.5046 146.72168,423.61955 206.45899,468.4603 c 72.76405,53.8306 122.5088,137.61624 135.06445,226.97265 13.32097,88.38829 -10.02837,181.56415 -63.19336,253.56836 -54.11608,74.58389 -139.51324,125.52699 -230.812501,137.80659 -54.1898703,7.8078 -110.23121,1.8916 -161.994139,-16.2304 -87.50983,-30.4253 -161.21346,-97.61654 -199.32617,-182.02931 -31.22914,-68.01686 -39.56276,-145.74912 -23.04493,-218.61328 19.29471,-88.12628 74.82727,-167.50373 151.01563,-215.73633 54.5846,-35.13182 119.291739,-53.8356 183.9785188,-54.47852 z"
       style="display:inline;opacity:0.6520004;fill:#f25400;fill-opacity:1;stroke:none;stroke-width:1.81616175;stroke-linejoin:round;stroke-miterlimit:6.4000001;stroke-dasharray:none;stroke-dashoffset:0;stroke-opacity:1;paint-order:markers stroke fill" />
    <path
       id="circle4586"
       d="M -1.25e-6,276.76889 A 468.22607,468.22607 0 0 0 -468.22656,744.9935 468.22607,468.22607 0 0 0 -1.25e-6,1213.2201 468.22607,468.22607 0 0 0 468.22656,744.9935 468.22607,468.22607 0 0 0 -1.25e-6,276.76889 Z m -2.68555005,12.28906 c 74.0861603,-0.51647 148.1918013,17.67183 213.8515713,51.95313 85.69042,44.22378 156.00571,117.11222 198.26562,203.65039 48.43264,97.69075 59.33672,212.72285 31.02539,317.76953 -27.09964,103.05194 -91.85023,195.4662 -179.26758,256.1621 -85.69576,60.4226 -192.525911,89.1279 -296.773431,80.9395 -105.669949,-7.9319 -207.760389,-54.5919 -283.447269,-128.9063 -81.41631,-78.98739 -130.67984,-189.48217 -136.30469,-302.5703 -7.02586,-123.84957 40.36288,-249.503 126.50586,-338.86133 83.88484,-88.15541 204.59488,-139.7126 326.1445287,-140.13672 z"
       style="display:inline;opacity:0.522;fill:#0000e0;fill-opacity:1;stroke:none;stroke-width:2;stroke-linejoin:round;stroke-miterlimit:6.4000001;stroke-dasharray:none;stroke-dashoffset:0;stroke-opacity:1;paint-order:markers stroke fill" />
  </g>
</svg>
