<?xml version="1.0" encoding="UTF-8" standalone="no"?>
<svg
   xmlns:dc="http://purl.org/dc/elements/1.1/"
   xmlns:cc="http://creativecommons.org/ns#"
   xmlns:rdf="http://www.w3.org/1999/02/22-rdf-syntax-ns#"
   xmlns:svg="http://www.w3.org/2000/svg"
   xmlns="http://www.w3.org/2000/svg"
   viewBox="0 0 570 745"
   height="745"
   width="570"
   id="svg885"
   version="1.1">
  <metadata
     id="metadata891">
    <rdf:RDF>
      <cc:Work
         rdf:about="">
        <dc:format>image/svg+xml</dc:format>
        <dc:type
           rdf:resource="http://purl.org/dc/dcmitype/StillImage" />
        <dc:title></dc:title>
      </cc:Work>
    </rdf:RDF>
  </metadata>
  <defs
     id="defs889" />
  <g
     style="display:inline"
     id="layer6">
    <path
       id="circle4679"
       d="M 0.86327875,283.04037 C -60.275211,283.18845 -121.31732,295.07358 -177.65625,318.68295 c -98.18736,40.59075 -181.45561,116.52402 -230.77148,210.77344 -46.66951,88.12924 -63.93942,191.56369 -47.34766,289.70117 17.13576,108.46838 75.0505,209.99794 159.64648,280.20704 72.34778,60.8616 164.18891,98.3569 258.441409,105.957 45.9973398,4.1277 92.79429,0.181 138.078131,-9.4746 87.88531,-19.553 169.38909,-65.1937 231.88867,-130.0644 C 400.35747,995.53533 445.25735,902.77353 457.80859,805.63999 465.2647,751.97421 462.37323,696.8097 450.70313,644.08725 434.35407,570.80505 399.67424,501.61857 350.83399,444.59116 291.26799,374.84864 210.4489,323.64817 122.08789,299.56381 82.614569,288.84757 41.704359,283.05919 0.86327875,283.04037 Z M -2.2050812,393.73959 c 49.0214302,-0.22871 98.0331802,10.00368 142.9531312,29.60743 88.17655,37.62518 158.05473,113.96218 190.14453,204.03515 31.88717,87.70407 25.65833,187.9081 -15.34375,271.58008 -42.43094,88.90911 -124.8223,156.92495 -219.392581,183.77535 -96.91003025,28.4472 -205.501209,11.0363 -289.564449,-44.5976 -77.19793,-50.43584 -132.35507,-132.67294 -150.67188,-222.95705 -20.51084,-96.91399 3.58912,-201.72517 63.07031,-280.7539 64.15294,-87.07832 170.8171,-140.28999 278.8046888,-140.68946 z"
       style="opacity:0.45800003;fill:#00e500;fill-opacity:1;stroke:#ff0000;stroke-width:2.43400002;stroke-linejoin:round;stroke-miterlimit:6.4000001;stroke-dasharray:none;stroke-dashoffset:0;stroke-opacity:1;paint-order:markers stroke fill" />
  </g>
</svg>
