<?xml version="1.0" encoding="UTF-8" standalone="no"?>
<svg
   xmlns:dc="http://purl.org/dc/elements/1.1/"
   xmlns:cc="http://creativecommons.org/ns#"
   xmlns:rdf="http://www.w3.org/1999/02/22-rdf-syntax-ns#"
   xmlns:svg="http://www.w3.org/2000/svg"
   xmlns="http://www.w3.org/2000/svg"
   viewBox="0 0 570 745"
   height="745"
   width="570"
   id="svg885"
   version="1.1">
  <metadata
     id="metadata891">
    <rdf:RDF>
      <cc:Work
         rdf:about="">
        <dc:format>image/svg+xml</dc:format>
        <dc:type
           rdf:resource="http://purl.org/dc/dcmitype/StillImage" />
        <dc:title></dc:title>
      </cc:Work>
    </rdf:RDF>
  </metadata>
  <defs
     id="defs889" />
  <g
     id="g957"
     style="display:inline">
    <g
       id="text947"
       style="font-style:normal;font-variant:normal;font-weight:bold;font-stretch:normal;font-size:40px;line-height:125%;font-family:Impact;-inkscape-font-specification:'Impact Bold';letter-spacing:0px;word-spacing:0px;fill:#000000;fill-opacity:1;stroke:none;stroke-width:1px;stroke-linecap:butt;stroke-linejoin:miter;stroke-opacity:1"
       aria-label="NOT EVERY MAN REALLY LIVES">
      <path
         id="path960"
         style="font-style:normal;font-variant:normal;font-weight:800;font-stretch:normal;font-size:93.33333588px;font-family:Overpass;-inkscape-font-specification:'Overpass Ultra-Bold';letter-spacing:10px;word-spacing:20px"
         d="m -415.2706,585.64388 62.2461,19.84612 -3.74241,11.73783 -41.60097,12.6473 q -0.85314,0.2178 -2.54525,0.60894 -1.69211,0.39114 -2.90094,0.49554 0.97622,0.16431 2.4718,0.54319 1.52587,0.43751 2.28171,0.6785 l 34.05751,10.85866 -4.05428,12.71599 -62.2461,-19.84612 3.58648,-11.24876 42.02367,-13.05131 q 0.86732,-0.26227 2.60389,-0.63923 1.72239,-0.33251 2.9454,-0.48137 -1.2127,-0.19072 -2.54655,-0.616 -1.30356,-0.36663 -2.23725,-0.66432 l -34.36873,-10.9579 z" />
      <path
         id="path962"
         style="font-style:normal;font-variant:normal;font-weight:800;font-stretch:normal;font-size:93.33333588px;font-family:Overpass;-inkscape-font-specification:'Overpass Ultra-Bold';letter-spacing:10px;word-spacing:20px"
         d="m -441.04106,685.6565 q 1.03737,-7.77107 4.68015,-12.84031 3.68903,-5.06306 8.99671,-7.79142 5.34775,-2.67592 11.47851,-3.45826 6.12458,-0.73609 12.13791,0.0666 6.01332,0.80272 11.73037,3.11956 5.71086,2.36309 10.1232,6.3419 4.45241,4.03124 6.63793,9.8785 2.23178,5.85344 1.19441,13.62451 -1.04972,7.86358 -4.73257,12.88038 -3.63661,5.02298 -8.98437,7.69891 -5.30767,2.72836 -11.43225,3.46444 -6.12458,0.73608 -12.13791,-0.0666 -6.01332,-0.80272 -11.73037,-3.11956 -5.71704,-2.31683 -10.16945,-6.34808 -4.41233,-3.97881 -6.65029,-9.78599 -2.1917,-5.801 -1.14198,-13.66458 z m 12.85927,1.71659 q -0.54339,4.07056 0.98263,7.09911 1.51985,3.0748 4.39056,5.2 2.91696,2.13137 6.41999,3.39936 3.50302,1.268 6.87973,1.71876 3.608,0.48163 7.36105,0.22934 3.75304,-0.25229 7.03443,-1.55624 3.27521,-1.25769 5.50213,-3.83233 2.22692,-2.57465 2.78265,-6.73772 0.55573,-4.16307 -1.01037,-7.24405 -1.51985,-3.0748 -4.39056,-5.2 -2.8707,-2.1252 -6.42616,-3.35311 -3.55545,-1.22791 -6.93217,-1.67867 -3.56173,-0.47546 -7.31478,-0.22317 -3.71297,0.30472 -6.99436,1.60867 -3.28756,1.3502 -5.51447,3.92485 -2.22692,2.57464 -2.7703,6.6452 z" />
      <path
         id="path964"
         style="font-style:normal;font-variant:normal;font-weight:800;font-stretch:normal;font-size:93.33333588px;font-family:Overpass;-inkscape-font-specification:'Overpass Ultra-Bold';letter-spacing:10px;word-spacing:20px"
         d="m -443.75685,748.88833 52.43445,-1.4076 -0.50093,-18.65994 12.87536,-0.34564 1.36377,50.8017 -12.87536,0.34564 -0.50218,-18.7066 -52.43444,1.4076 z" />
      <path
         id="path966"
         style="font-style:normal;font-variant:normal;font-weight:800;font-stretch:normal;font-size:93.33333588px;font-family:Overpass;-inkscape-font-specification:'Overpass Ultra-Bold';letter-spacing:10px;word-spacing:20px"
         d="m -430.40049,855.60346 62.49461,-19.04911 13.3888,43.92478 -12.18645,3.71458 -9.47012,-31.06875 -11.96326,3.64654 5.40179,17.72169 -12.18645,3.71457 -5.40179,-17.72168 -13.88273,4.23162 10.028,32.89895 -12.27573,3.74179 z" />
      <path
         id="path968"
         style="font-style:normal;font-variant:normal;font-weight:800;font-stretch:normal;font-size:93.33333588px;font-family:Overpass;-inkscape-font-specification:'Overpass Ultra-Bold';letter-spacing:10px;word-spacing:20px"
         d="m -400.746,936.64095 48.32437,-49.81976 6.39557,13.02819 -31.30504,31.32756 q -0.67255,0.64208 -1.3032,1.26359 -0.63066,0.6215 -1.07166,0.99395 0.46004,-0.12186 1.31691,-0.28257 0.85686,-0.1607 1.88053,-0.29932 l 43.9111,-5.64822 6.33388,12.90251 -68.93004,7.84471 z" />
      <path
         id="path970"
         style="font-style:normal;font-variant:normal;font-weight:800;font-stretch:normal;font-size:93.33333588px;font-family:Overpass;-inkscape-font-specification:'Overpass Ultra-Bold';letter-spacing:10px;word-spacing:20px"
         d="m -375.20258,983.44187 53.1886,-37.93965 26.66615,37.38399 -10.37177,7.39824 -18.86143,-26.44234 -10.18182,7.26273 10.7586,15.08277 -10.37178,7.39823 -10.7586,-15.08277 -11.81547,8.42802 19.97252,28.00001 -10.44776,7.4524 z" />
      <path
         id="path972"
         style="font-style:normal;font-variant:normal;font-weight:800;font-stretch:normal;font-size:93.33333588px;font-family:Overpass;-inkscape-font-specification:'Overpass Ultra-Bold';letter-spacing:10px;word-spacing:20px"
         d="m -333.86527,1038.4725 46.63773,-45.75329 21.76551,22.18619 q 5.75184,5.8631 7.0526,11.3205 1.36674,5.4581 -0.59319,10.2573 -1.89393,4.7998 -5.82483,8.6562 -2.6317,2.5818 -6.31045,4.2295 -3.64608,1.6811 -7.8062,1.9053 -4.12681,0.1915 -8.03606,-1.6609 l -9.56347,26.9023 -10.52327,-10.7267 8.45784,-25.1639 -8.95458,-9.1277 -16.88952,16.5693 z m 35.32936,-15.8317 12.48412,12.7254 q 2.09158,2.1321 4.1336,2.5476 2.07469,0.4489 3.89741,-0.3587 1.88871,-0.8069 3.4211,-2.3102 1.39913,-1.3726 2.24142,-3.1796 0.87497,-1.7736 0.49923,-3.8892 -0.34307,-2.0822 -2.50001,-4.2809 l -12.48412,-12.7254 z" />
      <path
         id="path974"
         style="font-style:normal;font-variant:normal;font-weight:800;font-stretch:normal;font-size:93.33333588px;font-family:Overpass;-inkscape-font-specification:'Overpass Ultra-Bold';letter-spacing:10px;word-spacing:20px"
         d="m -267.28776,1099.2686 15.10266,-20.4638 3.94284,-46.6798 12.1656,8.9785 -2.38009,30.2593 28.17565,-11.2216 12.16559,8.9784 -43.37821,17.5177 -15.13037,20.5013 z" />
      <path
         id="path976"
         style="font-style:normal;font-variant:normal;font-weight:800;font-stretch:normal;font-size:93.33333588px;font-family:Overpass;-inkscape-font-specification:'Overpass Ultra-Bold';letter-spacing:10px;word-spacing:20px"
         d="m -147.37484,1165.1249 -3.8059,-38.2432 q -0.0354,-0.4582 -0.0524,-1.108 -0.0169,-0.6498 -0.0183,-1.3435 -0.14335,0.5433 -0.37752,1.203 -0.17458,0.6313 -0.33069,1.0711 l -11.22449,31.6202 -12.66568,-4.4961 21.85576,-61.5692 12.75363,4.5273 3.23419,38.0402 q 0.14031,1.1392 0.16429,2.1877 0.0396,1.0044 -0.0116,2.1252 0.71088,-0.8866 1.39054,-1.6853 0.69528,-0.8426 1.4033,-1.5817 l 26.89076,-27.3465 11.786112,4.1838 -21.855752,61.5693 -12.6217,-4.4805 11.25572,-31.7081 q 0.18733,-0.5278 0.40589,-1.1435 0.23417,-0.6596 0.41865,-1.0398 -0.40723,0.4497 -0.87404,0.9277 -0.42284,0.4937 -0.79884,0.8554 z" />
      <path
         id="path978"
         style="font-style:normal;font-variant:normal;font-weight:800;font-stretch:normal;font-size:93.33333588px;font-family:Overpass;-inkscape-font-specification:'Overpass Ultra-Bold';letter-spacing:10px;word-spacing:20px"
         d="m -99.867104,1179.0468 35.0098,-60.7618 12.641428,1.9218 15.417499,68.4277 -14.440755,-2.1953 -2.965758,-13.7148 -24.406259,-3.7103 -6.8152,12.2279 z m 27.543706,-21.5856 15.501896,2.3566 -3.565859,-15.9774 q -0.171613,-0.7341 -0.407445,-1.6668 -0.228818,-0.9788 -0.4115,-1.9507 -0.182682,-0.9718 -0.301145,-1.7451 -0.342903,0.7032 -0.806133,1.5768 -0.463231,0.8736 -0.972598,1.7403 -0.502354,0.8204 -0.88438,1.4704 z" />
      <path
         id="path980"
         style="font-style:normal;font-variant:normal;font-weight:800;font-stretch:normal;font-size:93.33333588px;font-family:Overpass;-inkscape-font-specification:'Overpass Ultra-Bold';letter-spacing:10px;word-spacing:20px"
         d="m -17.858642,1189.3327 -1.334738,-65.3197 12.3174293,-0.2517 25.4127607,35.2815 q 0.481823,0.737 1.398813,2.2119 0.91699,1.4749 1.406441,2.5852 -0.159992,-0.977 -0.284768,-2.5147 -0.07907,-1.5854 -0.09528,-2.3786 l -0.730292,-35.7392 13.343881,-0.2727 1.334738,65.3197 -11.804203,0.2412 -25.9317073,-35.5509 q -0.5284803,-0.7361 -1.4464236,-2.2576 -0.8712864,-1.5225 -1.4073938,-2.6318 0.2114157,1.2092 0.2400172,2.609 0.074305,1.3521 0.094326,2.3319 l 0.7369657,36.0658 z" />
      <path
         id="path982"
         style="font-style:normal;font-variant:normal;font-weight:800;font-stretch:normal;font-size:93.33333588px;font-family:Overpass;-inkscape-font-specification:'Overpass Ultra-Bold';letter-spacing:10px;word-spacing:20px"
         d="m 112.25062,1175.1079 -19.947869,-62.2135 29.595879,-9.4895 q 7.82113,-2.5078 13.28168,-1.2202 5.49074,1.2289 8.89936,5.1347 3.43882,3.8471 5.12014,9.0908 1.12563,3.5106 0.94661,7.5376 -0.13458,4.0127 -1.80179,7.8307 -1.68146,3.7736 -5.09164,6.4352 l 19.74612,20.6225 -14.30912,4.588 -18.68905,-18.8541 -12.17608,3.9041 7.22398,22.5302 z m 1.7129,-38.6765 16.97542,-5.4429 q 2.84405,-0.9119 4.13205,-2.5501 1.33244,-1.6524 1.42908,-3.6436 0.12682,-2.05 -0.52861,-4.0941 -0.59844,-1.8664 -1.83495,-3.4302 -1.19207,-1.5781 -3.25119,-2.192 -2.01467,-0.6282 -4.9476,0.3122 l -16.97541,5.4429 z" />
      <path
         id="path984"
         style="font-style:normal;font-variant:normal;font-weight:800;font-stretch:normal;font-size:93.33333588px;font-family:Overpass;-inkscape-font-specification:'Overpass Ultra-Bold';letter-spacing:10px;word-spacing:20px"
         d="m 183.12751,1150.0932 -29.77939,-58.1518 40.87241,-20.9306 5.80698,11.3396 -28.90976,14.8046 5.70063,11.1319 16.49019,-8.4446 5.80698,11.3396 -16.49019,8.4446 6.61528,12.918 30.61277,-15.6767 5.84953,11.4227 z" />
      <path
         id="path986"
         style="font-style:normal;font-variant:normal;font-weight:800;font-stretch:normal;font-size:93.33333588px;font-family:Overpass;-inkscape-font-specification:'Overpass Ultra-Bold';letter-spacing:10px;word-spacing:20px"
         d="m 240.53081,1119.7176 -18.8998,-67.5313 10.2198,-7.6847 59.66714,36.8767 -11.67445,8.7785 -11.87196,-7.48 -19.73094,14.8365 3.96466,13.4258 z m 3.85818,-34.7809 12.53232,-9.4235 -13.90806,-8.6348 q -0.64448,-0.3912 -1.47575,-0.8755 -0.85932,-0.5216 -1.68133,-1.0712 -0.82202,-0.5497 -1.45725,-1.0062 0.26225,0.737 0.56208,1.6793 0.29984,0.9423 0.56238,1.9126 0.23449,0.9331 0.43139,1.6608 z" />
      <path
         id="path988"
         style="font-style:normal;font-variant:normal;font-weight:800;font-stretch:normal;font-size:93.33333588px;font-family:Overpass;-inkscape-font-specification:'Overpass Ultra-Bold';letter-spacing:10px;word-spacing:20px"
         d="m 305.01145,1068.0908 -46.89544,-45.4892 9.35777,-9.647 37.58334,36.4563 21.86729,-22.5433 9.31209,9.0328 z" />
      <path
         id="path990"
         style="font-style:normal;font-variant:normal;font-weight:800;font-stretch:normal;font-size:93.33333588px;font-family:Overpass;-inkscape-font-specification:'Overpass Ultra-Bold';letter-spacing:10px;word-spacing:20px"
         d="m 347.50852,1021.5178 -52.48651,-38.90513 8.00335,-10.79722 42.06419,31.17975 18.70226,-25.23105 10.42232,7.72545 z" />
      <path
         id="path992"
         style="font-style:normal;font-variant:normal;font-weight:800;font-stretch:normal;font-size:93.33333588px;font-family:Overpass;-inkscape-font-specification:'Overpass Ultra-Bold';letter-spacing:10px;word-spacing:20px"
         d="m 388.01788,960.58506 -22.34611,-12.14518 -46.77853,2.51361 7.22026,-13.28466 30.29908,-1.80352 -14.98946,-26.36489 7.22026,-13.28466 23.31625,40.55725 22.38712,12.16747 z" />
      <path
         id="path994"
         style="font-style:normal;font-variant:normal;font-weight:800;font-stretch:normal;font-size:93.33333588px;font-family:Overpass;-inkscape-font-specification:'Overpass Ultra-Bold';letter-spacing:10px;word-spacing:20px"
         d="m 428.74973,862.33336 -63.70307,-14.50391 2.98366,-13.10463 51.05346,11.62385 6.97224,-30.62298 12.64961,2.88006 z" />
      <path
         id="path996"
         style="font-style:normal;font-variant:normal;font-weight:800;font-stretch:normal;font-size:93.33333588px;font-family:Overpass;-inkscape-font-specification:'Overpass Ultra-Bold';letter-spacing:10px;word-spacing:20px"
         d="m 440.5825,800.42825 -64.95756,-6.99711 1.43941,-13.3627 64.95756,6.99711 z" />
      <path
         id="path998"
         style="font-style:normal;font-variant:normal;font-weight:800;font-stretch:normal;font-size:93.33333588px;font-family:Overpass;-inkscape-font-specification:'Overpass Ultra-Bold';letter-spacing:10px;word-spacing:20px"
         d="m 443.92427,746.03757 -65.10402,24.05661 -0.14018,-14.51266 41.76634,-14.73076 q 0.88392,-0.28855 1.72118,-0.57665 0.83725,-0.2881 1.39587,-0.4335 -0.46754,-0.0888 -1.30976,-0.31404 -0.84221,-0.2252 -1.82532,-0.54239 l -42.04264,-13.87457 -0.13883,-14.37266 65.55566,22.70121 z" />
      <path
         id="path1000"
         style="font-style:normal;font-variant:normal;font-weight:800;font-stretch:normal;font-size:93.33333588px;font-family:Overpass;-inkscape-font-specification:'Overpass Ultra-Bold';letter-spacing:10px;word-spacing:20px"
         d="m 441.2873,692.77606 -64.42322,10.86708 -7.63801,-45.28032 12.56253,-2.11908 5.40249,32.02755 12.33245,-2.08027 -3.0816,-18.26859 12.56253,-2.11908 3.08159,18.26859 14.31116,-2.41405 -5.72074,-33.91422 12.65456,-2.13461 z" />
      <path
         id="path1002"
         style="font-style:normal;font-variant:normal;font-weight:800;font-stretch:normal;font-size:93.33333588px;font-family:Overpass;-inkscape-font-specification:'Overpass Ultra-Bold';letter-spacing:10px;word-spacing:20px"
         d="m 422.29837,604.67425 q 1.95462,5.94 1.4314,11.51628 -0.52322,5.57629 -3.31609,10.37645 -2.80746,4.75583 -7.6618,8.36747 l -8.06323,-10.02181 q 3.67319,-3.46861 5.31353,-7.88951 1.596,-4.40632 0.18109,-8.70617 -1.45868,-4.43284 -4.10701,-6.50907 -2.64834,-2.07624 -6.0173,-0.96765 -2.30508,0.75852 -3.30171,2.80596 -0.99662,2.04744 -1.21504,5.11614 -0.26275,3.08329 -0.26293,6.96448 -0.0148,3.83687 -0.22202,7.83533 -0.25156,4.01305 -1.35769,7.66862 -1.10612,3.65558 -3.69971,6.52329 -2.6525,2.83797 -7.39563,4.39875 -4.69881,1.54619 -9.41657,0.34744 -4.77667,-1.2285 -8.68685,-5.19854 -3.92477,-4.01437 -6.15654,-10.79661 -1.83793,-5.58537 -1.27266,-10.58596 0.52095,-4.98599 2.95636,-8.9316 2.4354,-3.94561 6.26734,-6.48389 l 7.50212,10.10819 q -2.414,2.21908 -3.51785,5.28437 -1.11844,3.02096 0.29648,7.32081 1.25446,3.81224 3.35854,5.4289 2.04517,1.58692 4.70487,0.71171 1.72881,-0.56888 2.51782,-2.35149 0.73009,-1.81235 0.90304,-4.57132 0.15837,-2.8033 0.21633,-6.35961 0.0311,-4.23525 0.34268,-8.5137 0.31162,-4.27845 1.56589,-8.08103 1.23967,-3.84691 4.01057,-6.77297 2.75631,-2.97038 7.72109,-4.6041 5.98433,-1.96921 11.18743,-0.34062 5.20309,1.62859 9.17049,6.07109 3.90848,4.41275 6.02356,10.84037 z" />
    </g>
    <g
       id="text955"
       style="font-style:normal;font-variant:normal;font-weight:bold;font-stretch:normal;font-size:40px;line-height:125%;font-family:Impact;-inkscape-font-specification:'Impact Bold';letter-spacing:0px;word-spacing:0px;fill:#000000;fill-opacity:1;stroke:none;stroke-width:1px;stroke-linecap:butt;stroke-linejoin:miter;stroke-opacity:1"
       aria-label="BOSS GEE">
      <path
         id="path1005"
         style="font-style:normal;font-variant:normal;font-weight:800;font-stretch:normal;font-size:93.33333588px;font-family:Overpass;-inkscape-font-specification:'Overpass Ultra-Bold';letter-spacing:2.5px;word-spacing:19px"
         d="m -223.79622,450.10897 -35.91041,-54.57919 24.95048,-16.41618 q 6.70545,-4.41185 12.01473,-4.8327 5.34826,-0.4465 9.21721,1.8679 3.88229,2.24975 6.31906,5.95334 2.41113,3.6646 2.9694,7.65451 0.57161,3.92526 -1.92437,7.85783 3.64209,-0.83219 6.74357,-0.0239 3.14047,0.78268 5.57512,2.70008 2.47365,1.89176 4.01266,4.23087 1.92377,2.92388 2.80828,6.47569 0.9235,3.52616 0.27935,7.30168 -0.60517,3.74987 -3.24274,7.55215 -2.62423,3.73764 -7.80926,7.14913 z m 4.30214,-17.91327 15.36014,-10.10622 q 2.612,-1.71857 3.43885,-3.60327 0.86582,-1.91036 0.57849,-3.6206 -0.274,-1.77489 -1.12046,-3.0614 -1.07731,-1.63737 -2.75375,-2.6571 -1.7021,-1.05872 -4.25362,-0.77648 -2.55153,0.28223 -6.25512,2.71901 l -13.17697,8.6698 z m -14.82587,-22.53341 12.51423,-8.23374 q 3.97648,-2.61633 4.80842,-5.34232 0.87092,-2.75163 -0.79634,-5.28566 -0.87211,-1.3255 -2.16075,-2.26522 -1.24964,-0.96537 -3.15278,-0.8863 -1.92878,0.0401 -4.61876,1.80996 l -13.8787,9.13151 z" />
      <path
         id="path1007"
         style="font-style:normal;font-variant:normal;font-weight:800;font-stretch:normal;font-size:93.33333588px;font-family:Overpass;-inkscape-font-specification:'Overpass Ultra-Bold';letter-spacing:2.5px;word-spacing:19px"
         d="m -141.22957,405.14679 q -7.25424,2.97349 -13.46454,2.34167 -6.22799,-0.67499 -11.23856,-3.91684 -4.98509,-3.30272 -8.71873,-8.22798 -3.69046,-4.94296 -5.99137,-10.55635 -2.30092,-5.6134 -3.1415,-11.72452 -0.7974,-6.12881 0.45313,-11.93707 1.276,-5.86913 5.25618,-10.67799 3.96248,-4.85204 11.21672,-7.82553 7.34059,-3.0089 13.52541,-2.3162 6.16712,0.64951 11.15221,3.95224 5.01057,3.24184 8.70103,8.1848 3.69045,4.94296 5.99137,10.55636 2.30092,5.61339 3.14149,11.72451 0.84058,6.11112 -0.43542,11.98025 -1.25053,5.80825 -5.16983,10.64259 -3.937,4.79116 -11.27759,7.80006 z m -4.92042,-12.00404 q 3.79983,-1.55754 5.66496,-4.38988 1.9083,-2.85004 2.32011,-6.39798 0.3941,-3.59111 -0.25239,-7.26004 -0.64649,-3.66893 -1.93854,-6.82107 -1.38055,-3.36803 -3.46968,-6.49606 -2.08913,-3.12803 -4.85495,-5.32303 -2.72264,-2.21271 -6.06459,-2.86024 -3.34195,-0.64754 -7.22815,0.9454 -3.8862,1.59294 -5.7768,4.48616 -1.90831,2.85004 -2.32011,6.39798 -0.4118,3.54793 0.29557,7.24234 0.70737,3.69441 1.99942,6.84655 1.36285,3.32485 3.45198,6.45288 2.11461,3.06715 4.88042,5.26216 2.809,2.1773 6.15095,2.82484 3.34196,0.64753 7.1418,-0.91001 z" />
      <path
         id="path1009"
         style="font-style:normal;font-variant:normal;font-weight:800;font-stretch:normal;font-size:93.33333588px;font-family:Overpass;-inkscape-font-specification:'Overpass Ultra-Bold';letter-spacing:2.5px;word-spacing:19px"
         d="m -79.070888,385.85506 q -6.108477,1.33816 -11.602241,0.24855 -5.493765,-1.08962 -9.983811,-4.35782 -4.44447,-3.27819 -7.54179,-8.47579 l 10.79242,-6.99828 q 3.075599,4.00803 7.306003,6.091 4.220418,2.0374 8.642226,1.06872 4.558565,-0.99863 6.894251,-3.42123 2.335687,-2.42261 1.576726,-5.88712 -0.519288,-2.37045 -2.454321,-3.57084 -1.935032,-1.20039 -4.965415,-1.73087 -3.040369,-0.57606 -6.901279,-0.97237 -3.815325,-0.40629 -7.771753,-1.02054 -3.966414,-0.65984 -7.490008,-2.13328 -3.5236,-1.47344 -6.11162,-4.34617 -2.55243,-2.9283 -3.62097,-7.80596 -1.05855,-4.83208 0.61545,-9.40285 1.7096,-4.62635 6.05799,-8.11092 4.39398,-3.49456 11.368583,-5.02247 5.743792,-1.25828 10.660569,-0.18558 4.906792,1.02711 8.583234,3.85249 3.676441,2.82539 5.810368,6.89638 l -10.821088,6.43128 q -1.961109,-2.62788 -4.897731,-4.03882 -2.891037,-1.42092 -7.312845,-0.45224 -3.920365,0.85882 -5.743329,2.78692 -1.787364,1.87252 -1.188185,4.60766 0.389467,1.77784 2.082239,2.74466 1.728371,0.91125 4.455281,1.36489 2.772495,0.44365 6.30432,0.86428 4.209969,0.46316 8.43427,1.20982 4.224301,0.74666 7.879013,2.38247 3.700298,1.62583 6.32827,4.6809 2.673557,3.04508 3.792025,8.15067 1.348153,6.15407 -0.802971,11.16377 -2.151124,5.00971 -6.975343,8.50298 -4.788619,3.43769 -11.398538,4.88571 z" />
      <path
         id="path1011"
         style="font-style:normal;font-variant:normal;font-weight:800;font-stretch:normal;font-size:93.33333588px;font-family:Overpass;-inkscape-font-specification:'Overpass Ultra-Bold';letter-spacing:2.5px;word-spacing:19px"
         d="m -19.67937,377.75489 q -6.242831,0.36227 -11.497313,-1.57658 -5.254482,-1.93884 -9.175573,-5.87162 -3.874502,-3.93548 -6.117158,-9.555 l 11.757535,-5.21658 q 2.408009,4.44129 6.258807,7.16278 3.848095,2.67489 8.367159,2.41265 4.658829,-0.27036 7.345984,-2.2961 2.687156,-2.02575 2.481686,-5.56646 -0.140584,-2.42259 -1.863095,-3.91197 -1.72251,-1.48937 -4.631985,-2.48917 -2.912177,-1.04637 -6.662945,-2.04409 -3.704178,-1.00042 -7.515051,-2.22837 -3.813577,-1.27454 -7.062059,-3.28306 -3.248482,-2.00851 -5.353257,-5.25202 -2.060891,-3.2928 -2.35017,-8.27775 -0.286576,-4.93836 2.084456,-9.18953 2.414917,-4.30046 7.256576,-7.05891 4.888248,-2.76117 12.016256,-3.17481 5.870125,-0.34065 10.557437,1.49088 4.6846079,1.78494 7.8717279,5.15262 3.18712,3.36768 4.6552524,7.72328 l -11.6968013,4.65211 q -1.524087,-2.90325 -4.202695,-4.75785 -2.63202,-1.8573 -7.151084,-1.59506 -4.006593,0.2325 -6.10973,1.8504 -2.059251,1.5686 -1.897038,4.36389 0.105438,1.81695 1.625374,3.03761 1.563821,1.17137 4.185655,2.04762 2.668423,0.87354 6.090368,1.84359 4.084996,1.11856 8.139624,2.51935 4.0546292,1.40079 7.407102,3.59024 3.3990611,2.18676 5.51465044,5.61662 2.16217766,3.42716 2.46497476,8.64505 0.3649786,6.28942 -2.54618825,10.89915 -2.91116685,4.60973 -8.22411595,7.30205 -5.269064,2.64302 -12.024366,3.03504 z" />
      <path
         id="path1014"
         style="font-style:normal;font-variant:normal;font-weight:800;font-stretch:normal;font-size:93.33333588px;font-family:Overpass;-inkscape-font-specification:'Overpass Ultra-Bold';letter-spacing:2.5px;word-spacing:19px"
         d="m 88.88775,387.48359 q -7.353463,-1.75504 -12.014281,-5.74608 -4.604593,-4.02559 -6.847721,-9.50263 -2.232295,-5.52243 -2.468862,-11.76797 -0.225735,-6.29094 1.258469,-12.50961 1.397536,-5.85554 4.407506,-11.23028 3.066197,-5.4093 7.61894,-9.4083 4.598135,-3.98818 10.556929,-5.63655 5.958794,-1.64837 13.17608,0.0742 6.12789,1.46254 9.95259,4.53436 3.83554,3.02643 6.06221,6.96426 2.22667,3.93783 3.6404,8.06546 l -12.98793,3.76095 q -1.308,-3.76655 -3.50271,-6.83316 -2.18388,-3.11201 -6.13297,-4.05453 -4.130646,-0.98586 -7.354554,0.25974 -3.223908,1.24561 -5.583862,3.89685 -2.359955,2.65123 -3.942078,6.06384 -1.582123,3.41261 -2.383809,6.7716 -0.920857,3.8583 -0.981328,7.73004 -0.04964,3.82634 0.936507,7.13226 1.031536,3.31675 3.343364,5.69165 2.368053,2.34035 6.226352,3.2612 2.768897,0.66085 5.376383,-0.0122 2.663712,-0.70762 4.569205,-2.4598 1.91632,-1.79757 2.51217,-4.29412 l 0.17334,-0.72627 -10.530889,-2.51339 2.968408,-12.43734 23.921451,5.70931 -2.30756,9.66844 q -1.93921,8.12512 -6.41461,13.00618 -4.4754,4.88106 -10.52498,6.50777 -6.049573,1.6267 -12.72216,0.0342 z" />
      <path
         id="path1016"
         style="font-style:normal;font-variant:normal;font-weight:800;font-stretch:normal;font-size:93.33333588px;font-family:Overpass;-inkscape-font-specification:'Overpass Ultra-Bold';letter-spacing:2.5px;word-spacing:19px"
         d="m 127.27237,397.29341 26.38234,-59.7697 42.00956,18.54301 -5.14456,11.6551 -29.71408,-13.11579 -5.05033,11.44163 16.94898,7.48127 -5.14456,11.65509 -16.94898,-7.48127 -5.86064,13.27741 31.46448,13.88841 -5.18225,11.74048 z" />
      <path
         id="path1019"
         style="font-style:normal;font-variant:normal;font-weight:800;font-stretch:normal;font-size:93.33333588px;font-family:Overpass;-inkscape-font-specification:'Overpass Ultra-Bold';letter-spacing:2.5px;word-spacing:19px"
         d="m 182.82132,423.32116 35.68677,-54.72567 38.46433,25.0827 -6.95893,10.67151 -27.20647,-17.74143 -6.83147,10.47606 15.51864,10.11975 -6.95892,10.67151 -15.51864,-10.11975 -7.92756,12.15691 28.80916,18.78654 -7.0099,10.74968 z" />
    </g>
  </g>
</svg>
