<?xml version="1.0" encoding="UTF-8" standalone="no"?>
<svg
   xmlns:dc="http://purl.org/dc/elements/1.1/"
   xmlns:cc="http://creativecommons.org/ns#"
   xmlns:rdf="http://www.w3.org/1999/02/22-rdf-syntax-ns#"
   xmlns:svg="http://www.w3.org/2000/svg"
   xmlns="http://www.w3.org/2000/svg"
   viewBox="0 0 570 745"
   height="745"
   width="570"
   id="svg885"
   version="1.1">
  <metadata
     id="metadata891">
    <rdf:RDF>
      <cc:Work
         rdf:about="">
        <dc:format>image/svg+xml</dc:format>
        <dc:type
           rdf:resource="http://purl.org/dc/dcmitype/StillImage" />
        <dc:title></dc:title>
      </cc:Work>
    </rdf:RDF>
  </metadata>
  <defs
     id="defs889" />
  <g
     style="display:inline"
     id="layer6">
    <path
       id="circle4679"
       d="m 300.38281,-95.626953 c -61.13849,0.148078 -122.1806,12.033207 -178.51953,35.642578 -98.187356,40.590744 -181.455604,116.524016 -230.77148,210.773435 -46.66951,88.12924 -63.93942,191.56369 -47.34766,289.70117 17.13576,108.46838 75.0505,209.99793 159.646485,280.20704 72.347776,60.86162 164.188905,98.35695 258.441405,105.95703 45.99734,4.12769 92.79429,0.18099 138.07813,-9.47461 C 487.79547,797.62667 569.29925,751.98594 631.79883,687.11523 699.877,616.868 744.77688,524.1062 757.32812,426.97266 764.78423,373.30688 761.89276,318.14237 750.22266,265.41992 733.8736,192.13772 699.19377,122.95124 650.35352,65.923828 590.78752,-3.8186848 509.96843,-55.019159 421.60742,-79.103516 382.1341,-89.81976 341.22389,-95.608142 300.38281,-95.626953 Z m -3.06836,110.699219 c 49.02143,-0.228718 98.03318,10.003681 142.95313,29.607422 88.17655,37.625185 158.05473,113.962182 190.14453,204.035152 31.88717,87.70407 25.65833,187.9081 -15.34375,271.58008 C 572.63742,609.20403 490.24606,677.21991 395.67578,704.07031 298.76575,732.51747 190.17457,715.1066 106.11133,659.47266 28.913406,609.03683 -26.243742,526.79973 -44.560547,436.51562 -65.071388,339.60163 -40.971425,234.79045 18.509766,155.76172 82.662706,68.683398 189.32686,15.471729 297.31445,15.072266 Z"
       style="opacity:0.45800003;fill:#00e500;fill-opacity:1;stroke:#ff0000;stroke-width:2.43400002;stroke-linejoin:round;stroke-miterlimit:6.4000001;stroke-dasharray:none;stroke-dashoffset:0;stroke-opacity:1;paint-order:markers stroke fill" />
  </g>
</svg>
