<?xml version="1.0" encoding="UTF-8" standalone="no"?>
<svg
   xmlns:dc="http://purl.org/dc/elements/1.1/"
   xmlns:cc="http://creativecommons.org/ns#"
   xmlns:rdf="http://www.w3.org/1999/02/22-rdf-syntax-ns#"
   xmlns:svg="http://www.w3.org/2000/svg"
   xmlns="http://www.w3.org/2000/svg"
   viewBox="0 0 570 745"
   height="745"
   width="570"
   id="svg885"
   version="1.1">
  <metadata
     id="metadata891">
    <rdf:RDF>
      <cc:Work
         rdf:about="">
        <dc:format>image/svg+xml</dc:format>
        <dc:type
           rdf:resource="http://purl.org/dc/dcmitype/StillImage" />
        <dc:title></dc:title>
      </cc:Work>
    </rdf:RDF>
  </metadata>
  <defs
     id="defs889" />
  <g
     id="g4262"
     style="display:inline">
    <g
       id="text4252"
       style="font-style:normal;font-variant:normal;font-weight:bold;font-stretch:normal;font-size:40px;line-height:125%;font-family:Impact;-inkscape-font-specification:'Impact Bold';letter-spacing:0px;word-spacing:0px;fill:#000000;fill-opacity:1;stroke:none;stroke-width:1px;stroke-linecap:butt;stroke-linejoin:miter;stroke-opacity:1"
       aria-label="NOT EVERY MAN REALLY LIVES">
      <path
         id="path4279"
         style="font-style:normal;font-variant:normal;font-weight:bold;font-stretch:normal;font-size:93.33333588px;font-family:Futura;-inkscape-font-specification:'Futura Bold';letter-spacing:10px;word-spacing:20px"
         d="m -100.72024,170.83997 -6.7155,17.01612 40.109412,15.82939 -0.06853,0.17363 -52.409736,15.33788 -6.7155,17.01612 65.459952,25.83411 6.715497,-17.01612 -40.022596,-15.79512 0.06853,-0.17364 52.322921,-15.37214 6.715497,-17.01612 z" />
      <path
         id="path4281"
         style="font-style:normal;font-variant:normal;font-weight:bold;font-stretch:normal;font-size:93.33333588px;font-family:Futura;-inkscape-font-specification:'Futura Bold';letter-spacing:10px;word-spacing:20px"
         d="m -66.382442,304.37657 q 1.234424,-7.45854 -0.277691,-14.89863 -1.435275,-7.33277 -5.416404,-13.57324 -3.889049,-6.22523 -10.000708,-10.45324 -6.034818,-4.12069 -13.677518,-5.3856 -8.287267,-1.37158 -15.849917,0.30946 -7.47057,1.69627 -13.48052,5.99936 -6.00995,4.3031 -10.03791,10.92088 -3.93589,6.63302 -5.29223,14.8282 -1.35635,8.19519 0.23261,15.7426 1.68104,7.56265 5.89205,13.55736 4.30309,6.00995 10.92087,10.03792 6.61778,4.02796 14.90505,5.39955 7.6427,1.2649 14.698581,-0.78382 7.132726,-1.9414 12.820072,-6.58169 5.779428,-4.62505 9.515913,-11.19647 3.813327,-6.4641 5.047752,-13.92264 z m -17.495338,-2.89556 q -0.655312,3.95947 -2.722956,7.30678 -2.067644,3.34731 -5.087859,5.59094 -3.035454,2.3357 -6.686278,3.24512 -3.573987,1.01674 -7.073047,0.43763 -4.41988,-0.73151 -7.93611,-2.92172 -3.53147,-2.09812 -5.92878,-5.33298 -2.41255,-3.14277 -3.38357,-6.993 -0.87894,-3.83498 -0.22363,-7.79445 0.65531,-3.95947 2.72296,-7.30679 2.15972,-3.33207 5.47142,-5.62205 3.29646,-2.19791 7.33084,-3.13845 4.01915,-0.84846 8.439025,-0.11695 3.499068,0.57911 6.570137,2.60104 3.055829,2.114 5.176895,5.30314 2.213147,3.20438 3.107326,6.94728 0.878939,3.83498 0.223627,7.79446 z" />
      <path
         id="path4283"
         style="font-style:normal;font-variant:normal;font-weight:bold;font-stretch:normal;font-size:93.33333588px;font-family:Futura;-inkscape-font-specification:'Futura Bold';letter-spacing:10px;word-spacing:20px"
         d="m -89.245049,377.34386 0.06711,15.11985 15.493181,-0.0688 -0.215413,-48.53285 -15.493182,0.0688 0.06711,15.11985 -54.879457,0.24359 0.0812,18.29315 z" />
      <path
         id="path4285"
         style="font-style:normal;font-variant:normal;font-weight:bold;font-stretch:normal;font-size:93.33333588px;font-family:Futura;-inkscape-font-specification:'Futura Bold';letter-spacing:10px;word-spacing:20px"
         d="m -68.786072,494.01869 14.901669,-4.24071 -10.959431,-38.51094 -67.685896,19.26203 10.95943,38.51094 14.90167,-4.24072 -5.95232,-20.91619 11.66998,-3.32104 5.645765,19.83897 14.901669,-4.24072 -5.645767,-19.83897 11.310906,-3.21885 z" />
      <path
         id="path4287"
         style="font-style:normal;font-variant:normal;font-weight:bold;font-stretch:normal;font-size:93.33333588px;font-family:Futura;-inkscape-font-specification:'Futura Bold';letter-spacing:10px;word-spacing:20px"
         d="m -45.887549,510.39 -8.544337,-17.95017 -50.825714,56.96072 6.097372,12.80952 76.45872,-3.11021 -8.544337,-17.95017 -45.937996,2.95035 z" />
      <path
         id="path4289"
         style="font-style:normal;font-variant:normal;font-weight:bold;font-stretch:normal;font-size:93.33333588px;font-family:Futura;-inkscape-font-specification:'Futura Bold';letter-spacing:10px;word-spacing:20px"
         d="m -9.722331,603.20747 12.7645713,-8.78118 -22.6935293,-32.98796 -57.978836,39.8856 22.693529,32.98796 12.764572,-8.78118 -12.325391,-17.91654 9.996351,-6.87683 11.690607,16.9938 12.764571,-8.78118 -11.690606,-16.99379 9.688771,-6.66524 z" />
      <path
         id="path4291"
         style="font-style:normal;font-variant:normal;font-weight:bold;font-stretch:normal;font-size:93.33333588px;font-family:Futura;-inkscape-font-specification:'Futura Bold';letter-spacing:10px;word-spacing:20px"
         d="m 4.1517867,657.98945 q 5.9305043,4.41983 12.6930563,3.5843 6.826359,-0.76741 12.343824,-5.9357 7.901554,-7.40149 7.258299,-16.00666 -0.643255,-8.60516 -8.172363,-16.64295 l -18.6951598,-19.95823 -51.3601052,48.10972 12.505977,13.35091 19.7538866,-18.50374 0.127612,0.13623 -7.9497756,31.10536 15.5686651,16.62051 z m 7.7161063,-32.03744 1.212314,1.29422 q 1.722762,1.83916 2.917833,3.66107 1.326993,1.82622 1.858139,3.7585 0.594951,2.0004 0.0026,3.962 -0.528548,2.02971 -2.503937,3.88009 -1.975388,1.85037 -4.03528,2.24528 -1.9960867,0.46303 -3.9533753,-0.26125 -1.8934826,-0.65616 -3.6972941,-2.03574 -1.6718887,-1.37527 -3.3946508,-3.21442 l -1.21231409,-1.29422 z" />
      <path
         id="path4293"
         style="font-style:normal;font-variant:normal;font-weight:bold;font-stretch:normal;font-size:93.33333588px;font-family:Futura;-inkscape-font-specification:'Futura Bold';letter-spacing:10px;word-spacing:20px"
         d="M 41.953927,685.46454 21.344171,712.23723 35.83988,723.39611 56.449637,696.62342 99.327626,683.45938 81.947566,670.08012 59.848259,677.21389 61.091494,654.025 43.711434,640.64574 Z" />
      <path
         id="path4295"
         style="font-style:normal;font-variant:normal;font-weight:bold;font-stretch:normal;font-size:93.33333588px;font-family:Futura;-inkscape-font-specification:'Futura Bold';letter-spacing:10px;word-spacing:20px"
         d="m 119.50454,774.81938 17.30078,5.65005 18.16448,-36.67991 0.17744,0.058 2.7739,43.51793 6.92031,2.26002 28.63367,-33.26091 0.17744,0.058 -7.69529,40.09893 17.3895,5.67903 11.73258,-70.19945 -17.30078,-5.65006 -26.04973,31.06105 -1.89768,-40.18806 -17.12333,-5.59211 z" />
      <path
         id="path4297"
         style="font-style:normal;font-variant:normal;font-weight:bold;font-stretch:normal;font-size:93.33333588px;font-family:Futura;-inkscape-font-specification:'Futura Bold';letter-spacing:10px;word-spacing:20px"
         d="m 265.44625,796.81039 3.25088,12.64273 19.39666,2.06872 -18.89394,-72.78755 -19.8607,-2.11822 -34.37726,67.10599 19.30385,2.05883 6.12263,-11.64301 z m -3.43404,-14.44565 -15.12754,-1.6134 9.89294,-21.47193 0.18561,0.0198 z" />
      <path
         id="path4299"
         style="font-style:normal;font-variant:normal;font-weight:bold;font-stretch:normal;font-size:93.33333588px;font-family:Futura;-inkscape-font-specification:'Futura Bold';letter-spacing:10px;word-spacing:20px"
         d="m 303.9904,811.49454 18.22037,-1.63225 -3.84746,-42.94801 0.18592,-0.0167 37.22048,39.95832 18.22037,-1.63226 -6.27919,-70.09264 -18.22037,1.63226 3.83913,42.85505 -0.18592,0.0167 -37.21215,-39.86535 -18.22037,1.63226 z" />
      <path
         id="path4301"
         style="font-style:normal;font-variant:normal;font-weight:bold;font-stretch:normal;font-size:93.33333588px;font-family:Futura;-inkscape-font-specification:'Futura Bold';letter-spacing:10px;word-spacing:20px"
         d="m 476.87975,741.93873 q 6.1416,-4.12147 7.60434,-10.77659 1.54821,-6.69262 -1.4892,-13.61561 -4.34986,-9.9144 -12.67855,-12.17169 -8.3287,-2.25729 -18.41405,2.16756 l -25.04242,10.98715 28.27409,64.44364 16.75192,-7.34977 -10.87464,-24.78601 0.17093,-0.075 26.68642,17.84874 20.85444,-9.1497 z m -27.64313,-17.93859 1.62391,-0.71248 q 2.30766,-1.01247 4.42344,-1.53306 2.16376,-0.64357 4.16266,-0.50135 2.08436,0.10471 3.737,1.31614 1.73811,1.17392 2.82557,3.65252 1.08746,2.4786 0.77431,4.5525 -0.22768,2.0364 -1.56207,3.64107 -1.24892,1.56716 -3.15019,2.80901 -1.85329,1.11888 -4.16095,2.13135 l -1.62391,0.71247 z" />
      <path
         id="path4303"
         style="font-style:normal;font-variant:normal;font-weight:bold;font-stretch:normal;font-size:93.33333588px;font-family:Futura;-inkscape-font-specification:'Futura Bold';letter-spacing:10px;word-spacing:20px"
         d="m 525.52381,683.66789 -8.37626,-13.03387 -33.6839,21.64708 38.04638,59.20202 33.68391,-21.64708 -8.37626,-13.03386 -18.29453,11.75704 -6.55972,-10.20725 17.35232,-11.15152 -8.37626,-13.03387 -17.35232,11.15152 -6.35788,-9.89317 z" />
      <path
         id="path4305"
         style="font-style:normal;font-variant:normal;font-weight:bold;font-stretch:normal;font-size:93.33333588px;font-family:Futura;-inkscape-font-specification:'Futura Bold';letter-spacing:10px;word-spacing:20px"
         d="m 596.67078,679.66477 11.5633,6.05779 14.53205,-13.01267 -66.69211,-34.74437 -14.87972,13.32398 26.78111,70.4825 14.46253,-12.95041 -4.54063,-12.34621 z m -13.0244,-7.12985 -11.33361,10.14863 -9.31073,-21.73071 0.13906,-0.12452 z" />
      <path
         id="path4307"
         style="font-style:normal;font-variant:normal;font-weight:bold;font-stretch:normal;font-size:93.33333588px;font-family:Futura;-inkscape-font-specification:'Futura Bold';letter-spacing:10px;word-spacing:20px"
         d="m 589.59271,601.55303 -11.56651,14.17257 54.52101,44.49568 25.43453,-31.16519 -12.0033,-9.79613 -13.86802,16.99262 z" />
      <path
         id="path4309"
         style="font-style:normal;font-variant:normal;font-weight:bold;font-stretch:normal;font-size:93.33333588px;font-family:Futura;-inkscape-font-specification:'Futura Bold';letter-spacing:10px;word-spacing:20px"
         d="m 617.2727,562.68387 -9.78522,15.45624 59.45922,37.64315 21.51751,-33.98796 -13.0905,-8.28749 -11.73228,18.53172 z" />
      <path
         id="path4311"
         style="font-style:normal;font-variant:normal;font-weight:bold;font-stretch:normal;font-size:93.33333588px;font-family:Futura;-inkscape-font-specification:'Futura Bold';letter-spacing:10px;word-spacing:20px"
         d="m 669.00986,544.85955 30.78132,13.93015 7.54229,-16.66613 -30.78132,-13.93015 -22.63452,-38.72327 -9.04305,19.98235 12.00558,19.87803 -22.85725,4.10079 -9.04305,19.98235 z" />
      <path
         id="path4313"
         style="font-style:normal;font-variant:normal;font-weight:bold;font-stretch:normal;font-size:93.33333588px;font-family:Futura;-inkscape-font-specification:'Futura Bold';letter-spacing:10px;word-spacing:20px"
         d="m 669.62576,416.8029 -2.49335,18.12261 69.7166,9.59178 5.48283,-39.85127 -15.34875,-2.11172 -2.98948,21.72865 z" />
      <path
         id="path4315"
         style="font-style:normal;font-variant:normal;font-weight:bold;font-stretch:normal;font-size:93.33333588px;font-family:Futura;-inkscape-font-specification:'Futura Bold';letter-spacing:10px;word-spacing:20px"
         d="m 673.11139,368.36727 -0.52294,18.28586 70.34457,2.01172 0.52294,-18.28586 z" />
      <path
         id="path4317"
         style="font-style:normal;font-variant:normal;font-weight:bold;font-stretch:normal;font-size:93.33333588px;font-family:Futura;-inkscape-font-specification:'Futura Bold';letter-spacing:10px;word-spacing:20px"
         d="m 672.65566,343.42095 2.11952,19.76669 66.81783,-36.92093 -1.51252,-14.10581 -73.17639,-22.37914 2.11952,19.76669 44.32402,12.42519 z" />
      <path
         id="path4319"
         style="font-style:normal;font-variant:normal;font-weight:bold;font-stretch:normal;font-size:93.33333588px;font-family:Futura;-inkscape-font-specification:'Futura Bold';letter-spacing:10px;word-spacing:20px"
         d="m 669.38022,243.83963 -14.95233,4.05848 10.4885,38.64186 67.91599,-18.43433 -10.4885,-38.64186 -14.95233,4.05849 5.69655,20.9873 -11.70965,3.17833 -5.40317,-19.90641 -14.95232,4.05849 5.40316,19.90641 -11.34935,3.08054 z" />
      <path
         id="path4321"
         style="font-style:normal;font-variant:normal;font-weight:bold;font-stretch:normal;font-size:93.33333588px;font-family:Futura;-inkscape-font-specification:'Futura Bold';letter-spacing:10px;word-spacing:20px"
         d="m 636.19775,193.69014 q -0.53231,5.32202 0.39844,11.43201 0.93076,6.10999 3.09254,11.07294 2.08723,4.79181 5.41652,8.22819 3.32928,3.43637 7.54312,5.164 4.12827,1.76491 8.85814,1.63892 4.64431,-0.0887 9.52169,-2.21323 4.53511,-1.97542 7.09375,-4.51517 2.47308,-2.50247 3.47207,-5.5845 0.87616,-3.13033 0.80686,-6.56145 -0.0693,-3.43113 -0.75017,-8.73373 0.011,-0.2084 -0.0525,-0.58795 -0.34385,-2.1917 -0.46407,-3.86999 -0.15749,-1.76386 0.0646,-3.59124 0.22206,-1.82738 1.04729,-3.20487 0.70239,-1.42578 2.32819,-2.13395 3.16602,-1.37907 5.921,0.2714 2.66941,1.68774 4.12302,5.0249 1.75179,4.0217 1.55755,8.48384 -0.19423,4.46214 -1.74653,9.31223 l 16.65062,1.29874 q 1.34652,-6.49111 0.78008,-13.167 -0.68927,-6.72418 -3.29831,-12.71395 -2.23633,-5.13409 -5.86379,-9.25501 -3.54189,-4.15819 -8.18777,-6.41026 -4.64588,-2.25206 -9.76632,-1.85414 -5.20601,0.43519 -10.51123,2.74606 -3.765,1.63997 -6.15251,4.10517 -2.42478,2.37964 -3.50934,5.49894 -1.12183,3.03373 -1.34651,6.4911 -0.22468,3.45738 0.31392,7.4985 l 0.58008,4.83749 v 0 q 0.34123,3.82169 -0.0478,6.43441 -0.389,2.61272 -2.87047,3.69361 -2.48148,1.08089 -4.90521,-0.51026 -2.461,-1.67672 -3.61644,-4.32933 -1.30452,-2.99488 -1.33654,-6.34044 -0.15487,-3.39385 0.76958,-6.64702 z" />
    </g>
    <g
       id="text4260"
       style="font-style:normal;font-variant:normal;font-weight:bold;font-stretch:normal;font-size:40px;line-height:125%;font-family:Impact;-inkscape-font-specification:'Impact Bold';letter-spacing:0px;word-spacing:0px;fill:#000000;fill-opacity:1;stroke:none;stroke-width:1px;stroke-linecap:butt;stroke-linejoin:miter;stroke-opacity:1"
       aria-label="BOSS GEE">
      <path
         id="path4264"
         style="font-style:normal;font-variant:normal;font-weight:bold;font-stretch:normal;font-size:93.33333588px;font-family:Futura;-inkscape-font-specification:'Futura Bold';letter-spacing:3px;word-spacing:10px"
         d="m 69.558832,40.836066 1.542336,-1.051495 q 3.084674,-2.102991 5.401669,-3.343734 2.264421,-1.317859 4.304473,-1.804995 2.040051,-0.487135 3.782107,0.245529 1.766599,0.602972 3.238692,2.762243 1.472093,2.159271 1.286229,4.206304 -0.161323,1.917341 -1.514412,3.743496 -1.328547,1.696462 -3.151318,3.165065 -1.745655,1.416028 -4.444744,3.256145 l -1.927921,1.314369 z m 24.57771,18.487527 q 4.241426,-2.891612 7.364708,-6.263486 3.20041,-3.424449 4.81648,-7.35021 1.61607,-3.925762 1.20965,-8.16708 -0.38188,-4.37101 -3.37864,-8.766669 -4.311134,-6.323581 -9.870311,-8.181581 -5.559178,-1.858001 -12.100039,1.471662 l -0.105149,-0.154233 q 2.236496,-4.00986 1.6513,-8.016337 Q 83.216461,9.836607 80.377424,5.672298 74.962224,-2.2707357 67.993891,-2.716199 61.050101,-3.2913538 52.7986,2.3341459 L 31.205887,17.05508 70.847259,75.201171 Z M 54.207001,18.317951 55.286636,17.581904 q 1.927921,-1.314369 3.421174,-2.106481 1.570369,-0.844687 3.172262,-1.146065 1.679009,-0.353953 3.161682,0.329626 1.55979,0.631005 2.874159,2.558926 1.20922,1.773687 1.30379,3.403612 0.119112,1.500234 -0.69416,2.958365 -0.736154,1.405556 -1.966533,2.583252 -1.282953,1.10058 -2.979524,2.257225 l -1.69657,1.156644 z" />
      <path
         id="path4266"
         style="font-style:normal;font-variant:normal;font-weight:bold;font-stretch:normal;font-size:93.33333588px;font-family:Futura;-inkscape-font-specification:'Futura Bold';letter-spacing:3px;word-spacing:10px"
         d="m 131.49888,-42.297033 q -7.00367,2.846461 -12.5559,8.024698 -5.50091,5.056631 -8.73984,11.712621 -3.27407,6.569526 -3.68369,13.9898127 -0.3583,7.2986805 2.55844,14.4752711 3.16274,7.7818452 8.54905,13.3502592 5.35116,5.48195 12.16112,8.356063 6.80996,2.874113 14.55715,2.848631 7.71205,-0.111946 15.40743,-3.239539 7.69538,-3.127594 13.29893,-8.427437 5.56842,-5.386309 8.47767,-12.1098043 2.87412,-6.80996073 2.84863,-14.5571479 -0.0255,-7.7471868 -3.18821,-15.5290328 -2.91675,-7.17659 -8.3516,-12.12079 -5.38353,-5.065807 -12.31232,-7.488636 -6.96393,-2.509294 -14.51923,-2.259559 -7.50397,0.128129 -14.50763,2.97459 z m 6.67688,16.42834 q 3.71799,-1.511085 7.65239,-1.498164 3.9344,0.01292 7.42584,1.414836 3.57791,1.366774 6.26159,4.003713 2.73499,2.515333 4.07037,5.801 1.68679,4.150318 1.65769,8.2927861 0.0574,4.1073267 -1.4472,7.8419849 -1.4181,3.6995167 -4.19282,6.5399391 -2.80987,2.7539575 -6.52787,4.2650419 -3.71799,1.511084 -7.65239,1.498163 -3.96953,-0.09938 -7.65287,-1.725554 -3.59687,-1.6613098 -6.50757,-4.6089671 -2.82424,-2.9827989 -4.51104,-7.1331163 -1.33537,-3.2856679 -1.21703,-6.9606699 0.20481,-3.7101437 1.8148,-7.1854067 1.57484,-3.561728 4.29825,-6.280544 2.80987,-2.753958 6.52786,-4.265042 z" />
      <path
         id="path4268"
         style="font-style:normal;font-variant:normal;font-weight:bold;font-stretch:normal;font-size:93.33333588px;font-family:Futura;-inkscape-font-specification:'Futura Bold';letter-spacing:3px;word-spacing:10px"
         d="m 239.01572,-65.336149 q -5.07869,-1.677562 -11.24481,-2.098571 -6.16611,-0.42101 -11.48053,0.609094 -5.13117,0.994583 -9.20962,3.496385 -4.07846,2.501802 -6.68158,6.238767 -2.62089,3.645336 -3.52708,8.289297 -0.92395,4.552333 0.0884,9.775125 0.94131,4.856281 2.86347,7.906241 1.90441,2.958333 4.69522,4.604005 2.86469,1.536284 6.22868,2.215221 3.364,0.678937 8.6877,1.168162 0.20102,0.05611 0.58529,0.07669 2.214,0.141278 3.87824,0.389119 1.75587,0.23008 3.49115,0.844433 1.73527,0.614352 2.9002,1.719539 1.23879,0.995799 1.57624,2.73673 0.65713,3.390234 -1.55324,5.720084 -2.22813,2.2382222 -5.80162,2.9308779 -4.30652,0.8347391 -8.61949,-0.3257503 -4.31297,-1.1604896 -8.70909,-3.7309186 l -4.8906,15.9690887 q 6.0426,2.7266421 12.68179,3.6263772 6.71305,0.7903468 13.12701,-0.4528816 5.49768,-1.0656243 10.30915,-3.7095099 4.82924,-2.55225765 8.03824,-6.5968005 3.209,-4.0445429 3.93476,-9.1288829 0.708,-5.175968 -0.39314,-10.856901 -0.78146,-4.031629 -2.66811,-6.898334 -1.79501,-2.884464 -4.60359,-4.621764 -2.71695,-1.755061 -6.0426,-2.726642 -3.32565,-0.971582 -7.38714,-1.32518 l -4.84781,-0.486399 v 0 q -3.80437,-0.498508 -6.26985,-1.446677 -2.46548,-0.948169 -2.98053,-3.60538 -0.51505,-2.65721 1.56535,-4.676656 2.17203,-2.037205 5.01249,-2.587778 3.20698,-0.621614 6.47935,0.07508 3.34624,0.587309 6.32031,2.19746 z" />
      <path
         id="path4270"
         style="font-style:normal;font-variant:normal;font-weight:bold;font-stretch:normal;font-size:93.33333588px;font-family:Futura;-inkscape-font-specification:'Futura Bold';letter-spacing:3px;word-spacing:10px"
         d="m 309.93717,-69.640962 q -4.75003,-2.458545 -10.77229,-3.848033 -6.02225,-1.389488 -11.43266,-1.211571 -5.22385,0.171781 -9.64621,1.998115 -4.42236,1.826334 -7.58297,5.105316 -3.16367,3.1857 -4.79188,7.62828 -1.63126,4.349297 -1.45642,9.666423 0.16258,4.943994 1.57898,8.259234 1.41332,3.221956 3.90923,5.287707 2.58612,1.969401 5.80069,3.171066 3.21456,1.201665 8.3942,2.525478 0.18964,0.08715 0.56583,0.16816 2.16392,0.489145 3.76813,0.996694 1.6975,0.504482 3.31398,1.385163 1.61649,0.880682 2.59226,2.155967 1.06599,1.178935 1.12428,2.951311 0.11349,3.451467 -2.43708,5.403016 -2.55364,1.858266 -6.19167,1.9779 -4.3843,0.144174 -8.45988,-1.682864 -4.07558,-1.827037 -8.01061,-5.059454 l -7.3511,14.9963729 q 5.53618,3.6466829 11.94997,5.5835981 6.50401,1.84056472 13.03381,1.62583786 5.59698,-0.18405159 10.7656,-2.03492556 5.1717,-1.757591 8.97915,-5.2446119 3.80745,-3.4870214 5.32703,-8.3929484 1.51652,-4.999209 1.32633,-10.78275 -0.13497,-4.104448 -1.54523,-7.233122 -1.31697,-3.131741 -3.81595,-5.290775 -2.40569,-2.162102 -5.53618,-3.646683 -3.13048,-1.484581 -7.08517,-2.47514 l -4.71016,-1.245868 v 0 q -3.67791,-1.093044 -5.96272,-2.418667 -2.2848,-1.325623 -2.37376,-4.030828 -0.089,-2.705204 2.28425,-4.370769 2.46649,-1.668633 5.35826,-1.763726 3.26491,-0.107364 6.38619,1.097369 3.21149,1.108382 5.89397,3.167998 z" />
      <path
         id="path4272"
         style="font-style:normal;font-variant:normal;font-weight:bold;font-stretch:normal;font-size:93.33333588px;font-family:Futura;-inkscape-font-specification:'Futura Bold';letter-spacing:3px;word-spacing:10px"
         d="m 415.24843,-25.825059 -4.03439,13.795524 14.33301,4.1915681 q -2.18791,5.4864394 -6.93062,7.40572032 -4.7427,1.91928088 -10.65507,0.190259 -4.21032,-1.23127322 -7.11666,-3.92881572 -2.79057,-2.7609266 -4.22897,-6.4878217 -1.34883,-3.700697 -1.4131,-7.803677 -0.0381,-4.192562 1.11461,-8.13414 1.15268,-3.941578 3.41752,-7.363429 2.29105,-3.511432 5.42129,-5.902264 3.15644,-2.480414 6.99489,-3.30274 3.83846,-0.822326 7.9592,0.38275 5.19571,1.519443 8.11981,5.486332 2.92411,3.966889 3.33827,9.533586 l 18.70551,-2.114645 q -1.54919,-10.663509 -7.9543,-17.690484 -6.40512,-7.026975 -16.97572,-10.118257 -8.06232,-2.357757 -15.63022,-1.750894 -7.45212,0.54348 -13.79375,3.940019 -6.25204,3.422737 -10.90428,9.355417 -4.56266,5.958878 -6.94661,14.110778 -2.30537,7.883156 -1.64611,15.271896 0.68546,7.2991577 4.13439,13.4616219 3.44894,6.1624643 9.31823,10.6989229 5.8955,4.4468772 13.77865,6.7522402 8.68939,2.541138 16.799,1.411995 8.1358,-1.218725 14.93799,-6.5226699 5.79737,-4.5281286 8.83293,-10.2528962 3.12513,-5.6985702 5.87163,-14.4251449 z" />
      <path
         id="path4274"
         style="font-style:normal;font-variant:normal;font-weight:bold;font-stretch:normal;font-size:93.33333588px;font-family:Futura;-inkscape-font-specification:'Futura Bold';letter-spacing:3px;word-spacing:10px"
         d="m 509.75631,-2.5667656 7.05701,-13.7928254 -35.64531,-18.237688 -32.05412,62.64934 35.64531,18.237688 7.05701,-13.792825 -19.35981,-9.905318 5.52657,-10.80161 18.36274,9.395172 7.05701,-13.7928255 -18.36274,-9.3951725 5.35652,-10.469253 z" />
      <path
         id="path4276"
         style="font-style:normal;font-variant:normal;font-weight:bold;font-stretch:normal;font-size:93.33333588px;font-family:Futura;-inkscape-font-specification:'Futura Bold';letter-spacing:3px;word-spacing:10px"
         d="m 561.51287,32.192014 8.98725,-12.620332 -32.6152,-23.2260763 -40.82159,57.3236793 32.6152,23.226076 8.98725,-12.620332 -17.71409,-12.614629 7.03821,-9.883393 16.80177,11.964948 8.98724,-12.620332 -16.80176,-11.964949 6.82164,-9.579288 z" />
    </g>
  </g>
</svg>
