<?xml version="1.0" encoding="UTF-8" standalone="no"?>
<svg
   xmlns:dc="http://purl.org/dc/elements/1.1/"
   xmlns:cc="http://creativecommons.org/ns#"
   xmlns:rdf="http://www.w3.org/1999/02/22-rdf-syntax-ns#"
   xmlns:svg="http://www.w3.org/2000/svg"
   xmlns="http://www.w3.org/2000/svg"
   viewBox="0 0 570 745"
   height="745"
   width="570"
   id="svg885"
   version="1.1">
  <metadata
     id="metadata891">
    <rdf:RDF>
      <cc:Work
         rdf:about="">
        <dc:format>image/svg+xml</dc:format>
        <dc:type
           rdf:resource="http://purl.org/dc/dcmitype/StillImage" />
        <dc:title></dc:title>
      </cc:Work>
    </rdf:RDF>
  </metadata>
  <defs
     id="defs889" />
  <g
     id="g1855"
     style="display:inline">
    <g
       id="text1841"
       style="font-style:normal;font-variant:normal;font-weight:bold;font-stretch:normal;font-size:40px;line-height:125%;font-family:Impact;-inkscape-font-specification:'Impact Bold';letter-spacing:0px;word-spacing:0px;fill:#000000;fill-opacity:1;stroke:none;stroke-width:1px;stroke-linecap:butt;stroke-linejoin:miter;stroke-opacity:1"
       aria-label="NOT EVERY MAN REALLY LIVES">
      <path
         id="path1857"
         style="font-style:normal;font-variant:normal;font-weight:800;font-stretch:normal;font-size:93.33333588px;font-family:Overpass;-inkscape-font-specification:'Overpass Ultra-Bold';letter-spacing:11.5px;word-spacing:20px"
         d="m -403.52362,571.33504 61.41895,22.27458 -4.20035,11.58186 -42.06542,11.0043 q -0.86104,0.18414 -2.5672,0.50855 -1.70616,0.32441 -2.91816,0.38127 0.96902,0.2025 2.44857,0.63981 1.50751,0.49708 2.25331,0.76756 l 33.60494,12.18738 -4.55038,12.54701 -61.41895,-22.27459 4.02534,-11.09928 42.50366,-11.39141 q 0.87695,-0.22801 2.62698,-0.53651 1.73412,-0.26463 2.96203,-0.36536 -1.20428,-0.23818 -2.5204,-0.7155 -1.28816,-0.41753 -2.20945,-0.75165 l -33.91203,-12.29875 z" />
      <path
         id="path1859"
         style="font-style:normal;font-variant:normal;font-weight:800;font-stretch:normal;font-size:93.33333588px;font-family:Overpass;-inkscape-font-specification:'Overpass Ultra-Bold';letter-spacing:11.5px;word-spacing:20px"
         d="m -433.20033,670.78927 q 1.31551,-7.72885 5.13782,-12.66413 3.86831,-4.92744 9.27045,-7.46362 5.44033,-2.48234 11.5952,-3.04422 6.14705,-0.51587 12.1277,0.50208 5.98066,1.01796 11.6109,3.53841 5.62241,2.56647 9.88915,6.70102 4.30491,4.18839 6.27924,10.1103 2.02033,5.92974 0.70483,13.65858 -1.33117,7.82086 -5.19165,12.7023 -3.81448,4.88927 -9.2548,7.37161 -5.40215,2.53618 -11.54919,3.05205 -6.14705,0.51588 -12.1277,-0.50208 -5.98066,-1.01795 -11.6109,-3.53841 -5.63024,-2.52045 -9.93515,-6.70884 -4.26674,-4.13456 -6.2949,-10.01829 -1.98216,-5.87591 -0.651,-13.69676 z m 12.7894,2.17685 q -0.68907,4.04844 0.72731,7.12979 1.40855,3.12735 4.20116,5.35418 2.83862,2.23465 6.2939,3.62751 3.45527,1.39286 6.81364,1.96447 3.58839,0.61078 7.34807,0.4933 3.75969,-0.11748 7.08574,-1.30286 3.31823,-1.13937 5.63609,-3.63247 2.31785,-2.49309 3.02259,-6.63354 0.70473,-4.14045 -0.74982,-7.27563 -1.40855,-3.12736 -4.20116,-5.35418 -2.79262,-2.22682 -6.30173,-3.58151 -3.50911,-1.35468 -6.86748,-1.9263 -3.54238,-0.60294 -7.30207,-0.48546 -3.72151,0.17131 -7.04756,1.35669 -3.33389,1.23139 -5.65175,3.72448 -2.31785,2.49309 -3.00693,6.54153 z" />
      <path
         id="path1861"
         style="font-style:normal;font-variant:normal;font-weight:800;font-stretch:normal;font-size:93.33333588px;font-family:Overpass;-inkscape-font-specification:'Overpass Ultra-Bold';letter-spacing:11.5px;word-spacing:20px"
         d="m -438.14409,734.49165 52.45244,0.30595 0.10888,-18.66635 12.87978,0.0751 -0.29642,50.81913 -12.87978,-0.0751 0.10915,-18.71302 -52.45244,-0.30595 z" />
      <path
         id="path1863"
         style="font-style:normal;font-variant:normal;font-weight:800;font-stretch:normal;font-size:93.33333588px;font-family:Overpass;-inkscape-font-specification:'Overpass Ultra-Bold';letter-spacing:11.5px;word-spacing:20px"
         d="m -427.83044,843.0189 62.96439,-17.43362 12.25334,44.25497 -12.27806,3.39955 -8.66699,-31.30229 -12.05319,3.33729 4.94368,17.8549 -12.27805,3.39956 -4.94368,-17.8549 -13.98709,3.87275 9.17756,33.14625 -12.36801,3.42446 z" />
      <path
         id="path1865"
         style="font-style:normal;font-variant:normal;font-weight:800;font-stretch:normal;font-size:93.33333588px;font-family:Overpass;-inkscape-font-specification:'Overpass Ultra-Bold';letter-spacing:11.5px;word-spacing:20px"
         d="m -399.95615,925.30727 49.38849,-48.76506 6.11286,13.1632 -31.97396,30.64454 q -0.68625,0.6274 -1.33017,1.23516 -0.64393,0.60775 -1.09287,0.97059 0.46257,-0.1119 1.3227,-0.25408 0.86014,-0.14217 1.88656,-0.25866 l 44.02279,-4.69907 6.05389,13.03622 -69.0833,6.35501 z" />
      <path
         id="path1867"
         style="font-style:normal;font-variant:normal;font-weight:800;font-stretch:normal;font-size:93.33333588px;font-family:Overpass;-inkscape-font-specification:'Overpass Ultra-Bold';letter-spacing:11.5px;word-spacing:20px"
         d="m -375.11594,973.15685 53.9216,-36.89045 25.92872,37.89918 -10.51472,7.19364 -18.33982,-26.80674 -10.32213,7.06189 10.46107,15.29062 -10.51471,7.19364 -10.46108,-15.29063 -11.9783,8.19495 19.42019,28.38585 -10.59175,7.2464 z" />
      <path
         id="path1869"
         style="font-style:normal;font-variant:normal;font-weight:800;font-stretch:normal;font-size:93.33333588px;font-family:Overpass;-inkscape-font-specification:'Overpass Ultra-Bold';letter-spacing:11.5px;word-spacing:20px"
         d="m -334.40461,1029.4165 47.34899,-45.01683 21.41516,22.52463 q 5.65926,5.9524 6.87434,11.4295 1.28104,5.4788 -0.75385,10.2468 -1.96892,4.7695 -5.95977,8.5638 -2.67183,2.5402 -6.37596,4.1302 -3.67197,1.6237 -7.83509,1.7827 -4.12931,0.1268 -8.00905,-1.7867 l -9.98387,26.7492 -10.35388,-10.8903 8.85113,-25.0283 -8.81044,-9.2668 -17.1471,16.3025 z m 35.57312,-15.2761 12.28317,12.9195 q 2.05792,2.1645 4.09316,2.612 2.06741,0.4813 3.90256,-0.2976 1.90113,-0.7772 3.45688,-2.2563 1.42047,-1.3505 2.29097,-3.144 0.90266,-1.7597 0.56012,-3.8809 -0.3104,-2.0874 -2.43262,-4.3196 l -12.28317,-12.9195 z" />
      <path
         id="path1871"
         style="font-style:normal;font-variant:normal;font-weight:800;font-stretch:normal;font-size:93.33333588px;font-family:Overpass;-inkscape-font-specification:'Overpass Ultra-Bold';letter-spacing:11.5px;word-spacing:20px"
         d="m -268.27903,1091.5888 15.36274,-20.2692 4.53862,-46.6256 12.04995,9.1331 -2.7663,30.2264 28.31665,-10.8609 12.04995,9.1331 -43.59838,16.9623 -15.39093,20.3064 z" />
      <path
         id="path1873"
         style="font-style:normal;font-variant:normal;font-weight:800;font-stretch:normal;font-size:93.33333588px;font-family:Overpass;-inkscape-font-specification:'Overpass Ultra-Bold';letter-spacing:11.5px;word-spacing:20px"
         d="m -147.83074,1159.1729 -3.62109,-38.2611 q -0.0332,-0.4585 -0.047,-1.1083 -0.0138,-0.6498 -0.0118,-1.3436 -0.14598,0.5427 -0.38333,1.2012 -0.17763,0.6304 -0.33586,1.0695 l -11.37714,31.5656 -12.6438,-4.5572 22.15297,-61.4629 12.73161,4.5888 3.05036,38.0554 q 0.1348,1.1399 0.15373,2.1884 0.0347,1.0047 -0.0219,2.1252 0.71516,-0.8832 1.39867,-1.6785 0.69934,-0.8393 1.41093,-1.5749 l 27.02257,-27.2163 11.765757,4.2407 -22.152967,61.4629 -12.5999,-4.5413 11.40878,-31.6534 q 0.18988,-0.5269 0.41141,-1.1415 0.23735,-0.6585 0.42367,-1.0378 -0.4094,0.4477 -0.87851,0.9235 -0.42522,0.4916 -0.80297,0.8515 z" />
      <path
         id="path1875"
         style="font-style:normal;font-variant:normal;font-weight:800;font-stretch:normal;font-size:93.33333588px;font-family:Overpass;-inkscape-font-specification:'Overpass Ultra-Bold';letter-spacing:11.5px;word-spacing:20px"
         d="m -99.930516,1173.2973 35.148743,-60.6814 12.636997,1.9506 15.260884,68.4629 -14.435694,-2.2283 -2.934368,-13.7216 -24.397706,-3.7661 -6.843162,12.2123 z m 27.593026,-21.5224 15.496463,2.3921 -3.52929,-15.9856 q -0.169934,-0.7345 -0.403631,-1.6677 -0.226578,-0.9794 -0.407035,-1.9516 -0.180458,-0.9723 -0.297151,-1.7458 -0.344511,0.7023 -0.809739,1.5749 -0.465229,0.8726 -0.976578,1.738 -0.50423,0.8194 -0.887741,1.4685 z" />
      <path
         id="path1877"
         style="font-style:normal;font-variant:normal;font-weight:800;font-stretch:normal;font-size:93.33333588px;font-family:Overpass;-inkscape-font-specification:'Overpass Ultra-Bold';letter-spacing:11.5px;word-spacing:20px"
         d="m -17.409052,1183.8296 -1.427395,-65.3177 12.3170594,-0.2692 25.4627836,35.2454 q 0.482868,0.7363 1.401949,2.2099 0.919081,1.4736 1.410106,2.5832 -0.161377,-0.9767 -0.288334,-2.5143 -0.08132,-1.5853 -0.09865,-2.3784 l -0.780989,-35.7382 13.343481,-0.2916 1.427395,65.3178 -11.803849,0.2579 -25.9821115,-35.5141 q -0.5295239,-0.7353 -1.4496247,-2.2556 -0.8734453,-1.5213 -1.4111257,-2.6298 0.2131308,1.209 0.2437179,2.6087 0.076223,1.3519 0.097634,2.3317 l 0.7881258,36.0647 z" />
      <path
         id="path1879"
         style="font-style:normal;font-variant:normal;font-weight:800;font-stretch:normal;font-size:93.33333588px;font-family:Overpass;-inkscape-font-specification:'Overpass Ultra-Bold';letter-spacing:11.5px;word-spacing:20px"
         d="m 113.99831,1168.9966 -20.413329,-62.0624 29.523969,-9.7109 q 7.80213,-2.5662 13.27217,-1.3196 5.49978,1.1877 8.93757,5.0679 3.46754,3.8212 5.18809,9.0521 1.1519,3.5021 1.00305,7.5303 -0.10453,4.0136 -1.74309,7.844 -1.65314,3.7861 -5.04329,6.4732 l 19.90004,20.474 -14.27435,4.695 -18.82975,-18.7135 -12.1465,3.9951 7.39254,22.4755 z m 1.42314,-38.6883 16.93417,-5.5699 q 2.83714,-0.9332 4.11283,-2.5809 1.32003,-1.6623 1.40175,-3.6543 0.11146,-2.0508 -0.55926,-4.09 -0.6124,-1.8619 -1.86059,-3.4164 -1.20386,-1.5691 -3.26752,-2.1676 -2.01932,-0.6131 -4.94512,0.3493 l -16.93417,5.5699 z" />
      <path
         id="path1881"
         style="font-style:normal;font-variant:normal;font-weight:800;font-stretch:normal;font-size:93.33333588px;font-family:Overpass;-inkscape-font-specification:'Overpass Ultra-Bold';letter-spacing:11.5px;word-spacing:20px"
         d="m 185.19869,1143.1751 -30.49858,-57.7779 40.60958,-21.4361 5.94722,11.2666 -28.72385,15.1622 5.8383,11.0603 16.38415,-8.6485 5.94723,11.2667 -16.38415,8.6485 6.77504,12.835 30.41592,-16.0554 5.99079,11.3492 z" />
      <path
         id="path1883"
         style="font-style:normal;font-variant:normal;font-weight:800;font-stretch:normal;font-size:93.33333588px;font-family:Overpass;-inkscape-font-specification:'Overpass Ultra-Bold';letter-spacing:11.5px;word-spacing:20px"
         d="m 242.59037,1111.6595 -19.8737,-67.2511 10.10769,-7.8316 60.1938,36.0106 -11.54638,8.9462 -11.97881,-7.3076 -19.51448,15.1201 4.15826,13.3671 z m 3.35518,-34.833 12.39483,-9.6037 -14.03139,-8.4328 q -0.65007,-0.3819 -1.48825,-0.8541 -0.86676,-0.5091 -1.69663,-1.0468 -0.82988,-0.5378 -1.47164,-0.9851 0.27287,0.7332 0.58629,1.671 0.31342,0.9379 0.58995,1.9043 0.24795,0.9296 0.45535,1.6544 z" />
      <path
         id="path1885"
         style="font-style:normal;font-variant:normal;font-weight:800;font-stretch:normal;font-size:93.33333588px;font-family:Overpass;-inkscape-font-specification:'Overpass Ultra-Bold';letter-spacing:11.5px;word-spacing:20px"
         d="m 306.80229,1058.7205 -47.725,-44.618 9.17857,-9.8177 38.24818,35.7581 21.44852,-22.942 9.47683,8.8598 z" />
      <path
         id="path1887"
         style="font-style:normal;font-variant:normal;font-weight:800;font-stretch:normal;font-size:93.33333588px;font-family:Overpass;-inkscape-font-specification:'Overpass Ultra-Bold';letter-spacing:11.5px;word-spacing:20px"
         d="m 348.89226,1010.7662 -53.28449,-37.80487 7.77701,-10.96138 42.70371,30.2979 18.17334,-25.61461 10.58077,7.50696 z" />
      <path
         id="path1889"
         style="font-style:normal;font-variant:normal;font-weight:800;font-stretch:normal;font-size:93.33333588px;font-family:Overpass;-inkscape-font-specification:'Overpass Ultra-Bold';letter-spacing:11.5px;word-spacing:20px"
         d="m 388.422,948.3547 -22.63408,-11.59969 -46.70381,3.64734 6.89596,-13.45586 30.24643,-2.5378 -15.62445,-25.99361 6.89596,-13.45586 24.29298,39.97987 22.67562,11.62097 z" />
      <path
         id="path1891"
         style="font-style:normal;font-variant:normal;font-weight:800;font-stretch:normal;font-size:93.33333588px;font-family:Overpass;-inkscape-font-specification:'Overpass Ultra-Bold';letter-spacing:11.5px;word-spacing:20px"
         d="m 426.86852,847.66839 -64.16806,-12.28433 2.52706,-13.20028 51.42612,9.845 5.90525,-30.8465 12.74194,2.43932 z" />
      <path
         id="path1893"
         style="font-style:normal;font-variant:normal;font-weight:800;font-stretch:normal;font-size:93.33333588px;font-family:Overpass;-inkscape-font-specification:'Overpass Ultra-Bold';letter-spacing:11.5px;word-spacing:20px"
         d="m 436.65863,784.51067 -65.1381,-5.04698 1.03823,-13.39983 65.13811,5.04698 z" />
      <path
         id="path1895"
         style="font-style:normal;font-variant:normal;font-weight:800;font-stretch:normal;font-size:93.33333588px;font-family:Overpass;-inkscape-font-specification:'Overpass Ultra-Bold';letter-spacing:11.5px;word-spacing:20px"
         d="m 438.10506,729.2344 -64.12442,26.5577 -0.70162,-14.49636 41.16507,-16.33582 q 0.87209,-0.32254 1.69758,-0.64282 0.82548,-0.32028 1.37806,-0.48719 -0.47064,-0.0707 -1.32094,-0.26311 -0.85029,-0.19246 -1.84494,-0.47136 l -42.54801,-12.23741 -0.69485,-14.35652 66.38495,20.14762 z" />
      <path
         id="path1897"
         style="font-style:normal;font-variant:normal;font-weight:800;font-stretch:normal;font-size:93.33333588px;font-family:Overpass;-inkscape-font-specification:'Overpass Ultra-Bold';letter-spacing:11.5px;word-spacing:20px"
         d="m 433.31855,675.49711 -63.92824,13.4768 -9.47227,-44.93242 12.46601,-2.62798 6.69989,31.78147 12.2377,-2.57984 -3.82164,-18.12822 12.46601,-2.62798 3.82163,18.12822 14.20121,-2.99377 -7.09458,-33.65366 12.55734,-2.64723 z" />
      <path
         id="path1899"
         style="font-style:normal;font-variant:normal;font-weight:800;font-stretch:normal;font-size:93.33333588px;font-family:Overpass;-inkscape-font-specification:'Overpass Ultra-Bold';letter-spacing:11.5px;word-spacing:20px"
         d="m 410.4647,587.65153 q 2.21794,5.84679 1.94427,11.44087 -0.27368,5.59409 -2.8494,10.51419 -2.59227,4.87646 -7.28048,8.70127 l -8.50273,-9.65172 q 3.51462,-3.62918 4.95589,-8.11893 1.39764,-4.4732 -0.20788,-8.70557 -1.65518,-4.36328 -4.3936,-6.31917 -2.73841,-1.95589 -6.0545,-0.69796 -2.26891,0.86069 -3.17311,2.9506 -0.9042,2.08991 -0.98536,5.1653 -0.12479,3.09194 0.0484,6.96928 0.15659,3.8337 0.12812,7.83742 -0.0721,4.02028 -1.01388,7.72161 -0.94176,3.70132 -3.4047,6.682 -2.52312,2.95359 -7.19182,4.72463 -4.62507,1.75449 -9.39165,0.76761 -4.82677,-1.01396 -8.91034,-4.80541 -4.10013,-3.8351 -6.63256,-10.51091 -2.08552,-5.49772 -1.74412,-10.51856 0.29776,-5.00429 2.55453,-9.05472 2.25678,-4.05043 5.97154,-6.7573 l 7.94604,9.76308 q -2.31249,2.32466 -3.27835,5.43619 -0.98241,3.06789 0.62311,7.30027 1.42346,3.75242 3.59764,5.2735 2.114,1.494 4.73196,0.50089 1.70168,-0.64552 2.41029,-2.46158 0.64843,-1.84315 0.698,-4.60709 0.033,-2.80757 -0.0679,-6.36292 -0.15811,-4.23242 -0.0379,-8.52052 0.12024,-4.28809 1.20344,-8.14289 1.06664,-3.89844 3.70411,-6.94532 2.62091,-3.09051 7.50778,-4.94431 5.89042,-2.23449 11.16105,-0.83988 5.27063,1.3946 9.43246,5.65549 4.10164,4.23381 6.50165,10.56056 z" />
    </g>
    <g
       id="text1849"
       style="font-style:normal;font-variant:normal;font-weight:bold;font-stretch:normal;font-size:40px;line-height:125%;font-family:Impact;-inkscape-font-specification:'Impact Bold';letter-spacing:0px;word-spacing:0px;fill:#000000;fill-opacity:1;stroke:none;stroke-width:1px;stroke-linecap:butt;stroke-linejoin:miter;stroke-opacity:1"
       aria-label="BOSS GEE">
      <path
         id="path1902"
         style="font-style:normal;font-variant:normal;font-weight:800;font-stretch:normal;font-size:93.33333588px;font-family:Overpass;-inkscape-font-specification:'Overpass Ultra-Bold';letter-spacing:1px;word-spacing:18.75px"
         d="m -222.06927,443.83418 -35.19291,-55.04456 25.16323,-16.08819 q 6.76262,-4.3237 12.07695,-4.67501 5.35365,-0.37646 9.19197,1.98838 3.85251,2.30039 6.2406,6.03555 2.36295,3.69585 2.86895,7.69272 0.52018,3.93241 -2.02707,7.83197 3.65268,-0.78444 6.74331,0.0644 3.12995,0.82372 5.5393,2.77283 2.44867,1.92398 3.95694,4.28303 1.88533,2.94881 2.72327,6.51189 0.87726,3.53795 0.18375,7.30472 -0.6542,3.74163 -3.34132,7.50905 -2.67293,3.70297 -7.90217,7.0463 z m 4.53625,-17.85542 15.49111,-9.90429 q 2.63428,-1.68423 3.48572,-3.55795 0.89076,-1.89886 0.62584,-3.61272 -0.25074,-1.77832 -1.08029,-3.0758 -1.05579,-1.65134 -2.71874,-2.69292 -1.68809,-1.08091 -4.2431,-0.8321 -2.555,0.24882 -6.29017,2.63691 l -13.28933,8.49657 z m -14.52964,-22.72554 12.62093,-8.06923 q 4.01039,-2.56406 4.87794,-5.27892 0.90686,-2.74 -0.72709,-5.29564 -0.85469,-1.33679 -2.13091,-2.2933 -1.2369,-0.98165 -3.14091,-0.92749 -1.92914,0.0148 -4.64205,1.74934 l -13.99705,8.94906 z" />
      <path
         id="path1904"
         style="font-style:normal;font-variant:normal;font-weight:800;font-stretch:normal;font-size:93.33333588px;font-family:Overpass;-inkscape-font-specification:'Overpass Ultra-Bold';letter-spacing:1px;word-spacing:18.75px"
         d="m -139.64032,400.1633 q -7.28072,2.90806 -13.48507,2.22036 -6.22167,-0.73105 -11.20285,-4.01787 -4.95515,-3.34748 -8.64429,-8.30615 -3.64581,-4.97599 -5.89609,-10.60987 -2.25028,-5.63389 -3.0358,-11.75233 -0.74219,-6.13574 0.56058,-11.9325 1.3288,-5.8574 5.35211,-10.63024 4.00601,-4.81617 11.28672,-7.72422 7.36739,-2.94268 13.54572,-2.19433 6.16102,0.70501 11.11617,4.05249 4.98118,3.28682 8.62698,8.26281 3.64581,4.97598 5.89609,10.60987 2.25028,5.63389 3.03581,11.75232 0.78552,6.11844 -0.54328,11.97584 -1.30277,5.79676 -5.26544,10.59562 -3.97997,4.75552 -11.34736,7.6982 z m -4.81214,-12.04785 q 3.8137,-1.52327 5.70425,-4.3387 1.93389,-2.83274 2.37762,-6.37683 0.42642,-3.58742 -0.18701,-7.26202 -0.61343,-3.6746 -1.87705,-6.83824 -1.35017,-3.38033 -3.41105,-6.52704 -2.06088,-3.14671 -4.80682,-5.36653 -2.70261,-2.23712 -6.0386,-2.91473 -3.33598,-0.6776 -7.23637,0.88029 -3.90038,1.55789 -5.81696,4.43397 -1.93388,2.83274 -2.37761,6.37683 -0.44373,3.54408 0.23034,7.24471 0.67408,3.70062 1.9377,6.86427 1.33286,3.33699 3.39374,6.4837 2.08691,3.08607 4.83285,5.30588 2.78928,2.20251 6.12527,2.88011 3.33599,0.6776 7.1497,-0.84567 z" />
      <path
         id="path1906"
         style="font-style:normal;font-variant:normal;font-weight:800;font-stretch:normal;font-size:93.33333588px;font-family:Overpass;-inkscape-font-specification:'Overpass Ultra-Bold';letter-spacing:1px;word-spacing:18.75px"
         d="m -78.124675,381.54796 q -6.11535,1.30639 -11.603377,0.18824 -5.488027,-1.11816 -9.961028,-4.40965 -4.42736,-3.30125 -7.49764,-8.51488 l 10.828658,-6.94208 q 3.054725,4.02395 7.274246,6.12889 4.209771,2.0593 8.636554,1.11362 4.563694,-0.97492 6.91194,-3.38536 2.348247,-2.41043 1.607304,-5.87884 -0.506961,-2.37312 -2.435728,-3.58355 -1.928767,-1.21043 -4.956351,-1.75665 -3.037334,-0.59186 -6.896133,-1.00823 -3.813161,-0.42612 -7.766343,-1.06092 -3.962931,-0.68044 -7.478817,-2.17218 -3.51589,-1.49174 -6.08895,-4.37788 -2.53718,-2.94152 -3.58034,-7.82468 -1.03342,-4.83751 0.66431,-9.39952 1.73362,-4.61739 6.10007,-8.07932 4.412075,-3.47168 11.394526,-4.96331 5.750254,-1.22841 10.66139,-0.13017 4.901387,1.0526 8.563094,3.89705 3.661707,2.84446 5.774445,6.92649 l -10.85437,6.37494 q -1.947423,-2.63803 -4.876672,-4.06421 -2.883612,-1.43593 -7.310395,-0.49025 -3.924777,0.83843 -5.757737,2.75703 -1.797073,1.86321 -1.212118,4.60142 0.380221,1.77985 2.067945,2.75545 1.723611,0.92022 4.448126,1.38803 2.770152,0.45805 6.299743,0.89703 4.207505,0.48504 8.427868,1.25364 4.220363,0.76861 7.866524,2.4234 3.691797,1.64503 6.303854,4.71372 2.657694,3.05894 3.749609,8.17028 1.316149,6.16098 -0.860985,11.15944 -2.177133,4.99846 -7.019443,8.46661 -4.806423,3.41275 -11.423779,4.8264 z" />
      <path
         id="path1908"
         style="font-style:normal;font-variant:normal;font-weight:800;font-stretch:normal;font-size:93.33333588px;font-family:Overpass;-inkscape-font-specification:'Overpass Ultra-Bold';letter-spacing:1px;word-spacing:18.75px"
         d="m -19.575981,373.75721 q -6.243291,0.35426 -11.495278,-1.59134 -5.251987,-1.94559 -9.168023,-5.8834 -3.869443,-3.94046 -6.104879,-9.56285 l 11.764226,-5.20147 q 2.402302,4.44438 6.249601,7.17081 3.844655,2.67983 8.364053,2.42339 4.659172,-0.26437 7.348928,-2.28666 2.6897552,-2.02229 2.488834,-5.56326 -0.137472,-2.42277 -1.858068,-3.91436 -1.720596,-1.49159 -4.628784,-2.49512 -2.910831,-1.05012 -6.660314,-2.05265 -3.70289,-1.00518 -7.512183,-2.23802 -3.811936,-1.27944 -7.057836,-3.29213 -3.245899,-2.01268 -5.346506,-5.25889 -2.056659,-3.29545 -2.339534,-8.28076 -0.280233,-4.93873 2.096259,-9.18685 2.420439,-4.29735 7.265637,-7.04959 4.89179,-2.75488 12.020324,-3.15936 5.870557,-0.33311 10.555513,1.50444 4.6823115,1.79095 7.8651029,5.16272 3.1827914,3.37178 4.6453276,7.72926 l -11.7027675,4.63708 q -1.520356,-2.9052 -4.19658,-4.76324 -2.629632,-1.86069 -7.149029,-1.60425 -4.006889,0.22736 -6.112101,1.84255 -2.061265,1.56595 -1.902643,4.36145 0.103104,1.81708 1.621471,3.03969 1.562315,1.17338 4.183021,2.053 2.667298,0.87697 6.087995,1.85141 4.083555,1.12381 8.136381,2.5298 4.0528263,1.406 7.4024839,3.59976 3.3962493,2.19112 5.50743102,5.6237 2.15777348,3.42994 2.45386768,8.64821 0.3568993,6.28988 -2.56018661,10.89587 -2.91708589,4.60598 -8.23348899,7.29147 -5.272455,2.63626 -12.028255,3.01959 z" />
      <path
         id="path1910"
         style="font-style:normal;font-variant:normal;font-weight:800;font-stretch:normal;font-size:93.33333588px;font-family:Overpass;-inkscape-font-specification:'Overpass Ultra-Bold';letter-spacing:1px;word-spacing:18.75px"
         d="m 86.955737,382.93215 q -7.368251,-1.69189 -12.063142,-5.64278 -4.638965,-3.98594 -6.929005,-9.44353 -2.279596,-5.50307 -2.569744,-11.74636 -0.279704,-6.28877 1.151088,-12.51994 1.347241,-5.86731 4.310984,-11.26769 3.01967,-5.43541 7.537934,-9.47333 4.563746,-4.02747 10.508177,-5.72692 5.94443,-1.69944 13.176231,-0.0389 6.14021,1.4099 9.99113,4.44879 3.86137,2.99341 6.12174,6.91199 2.26038,3.91858 3.70947,8.03393 l -12.95518,3.87225 q -1.34027,-3.75519 -3.56121,-6.80286 -2.21051,-3.09315 -6.167531,-4.00175 -4.138956,-0.95038 -7.352058,0.32284 -3.213102,1.27322 -5.550221,3.94461 -2.337119,2.67138 -3.889903,6.09744 -1.552783,3.42606 -2.325619,6.79181 -0.887717,3.86606 -0.914965,7.73817 -0.0168,3.82663 0.997669,7.12396 1.059957,3.30778 3.392077,5.66276 2.388047,2.31994 6.254105,3.20765 2.774465,0.63707 5.37608,-0.0583 2.657542,-0.73045 4.547928,-2.49891 1.900828,-1.81395 2.475238,-4.31552 l 0.1671,-0.72773 -10.552067,-2.42294 2.861582,-12.46235 23.969555,5.50384 -2.22451,9.68789 q -1.86943,8.14146 -6.30278,13.06074 -4.43335,4.91928 -10.46875,6.59783 -6.035397,1.67856 -12.721403,0.14333 z" />
      <path
         id="path1912"
         style="font-style:normal;font-variant:normal;font-weight:800;font-stretch:normal;font-size:93.33333588px;font-family:Overpass;-inkscape-font-specification:'Overpass Ultra-Bold';letter-spacing:1px;word-spacing:18.75px"
         d="m 124.70554,392.07048 25.66561,-60.08095 42.22833,18.03926 -5.0048,11.71578 -29.86881,-12.75947 -4.91314,11.50121 17.03725,7.27803 -5.0048,11.71579 -17.03724,-7.27803 -5.70143,13.34655 31.62833,13.51111 -5.04146,11.80162 z" />
      <path
         id="path1914"
         style="font-style:normal;font-variant:normal;font-weight:800;font-stretch:normal;font-size:93.33333588px;font-family:Overpass;-inkscape-font-specification:'Overpass Ultra-Bold';letter-spacing:1px;word-spacing:18.75px"
         d="m 179.77053,417.05544 34.75887,-55.31967 38.88182,24.43052 -6.77798,10.78733 -27.50178,-17.28012 -6.65384,10.58977 15.68708,9.85662 -6.77798,10.78734 -15.68708,-9.85663 -7.72143,12.28887 29.12186,18.29806 -6.82764,10.86637 z" />
    </g>
    <text
       xml:space="preserve"
       style="font-style:normal;font-variant:normal;font-weight:bold;font-stretch:normal;font-size:40px;line-height:125%;font-family:Impact;-inkscape-font-specification:'Impact Bold';letter-spacing:0px;word-spacing:0px;fill:#000000;fill-opacity:1;stroke:none;stroke-width:1px;stroke-linecap:butt;stroke-linejoin:miter;stroke-opacity:1"
       x="0"
       y="351"
       id="text1853"><tspan
         id="tspan1851"
         x="0"
         y="391.0433"></tspan></text>
  </g>
</svg>
