<?xml version="1.0" encoding="UTF-8" standalone="no"?>
<svg
   xmlns:dc="http://purl.org/dc/elements/1.1/"
   xmlns:cc="http://creativecommons.org/ns#"
   xmlns:rdf="http://www.w3.org/1999/02/22-rdf-syntax-ns#"
   xmlns:svg="http://www.w3.org/2000/svg"
   xmlns="http://www.w3.org/2000/svg"
   viewBox="0 0 570 745"
   height="745"
   width="570"
   id="svg885"
   version="1.1">
  <metadata
     id="metadata891">
    <rdf:RDF>
      <cc:Work
         rdf:about="">
        <dc:format>image/svg+xml</dc:format>
        <dc:type
           rdf:resource="http://purl.org/dc/dcmitype/StillImage" />
        <dc:title></dc:title>
      </cc:Work>
    </rdf:RDF>
  </metadata>
  <defs
     id="defs889" />
  <g
     style="display:inline"
     id="layer8">
    <path
       id="circle4588"
       d="M 298.03516,9.046875 C 176.12962,8.9309857 56.073117,76.2186 -6.0585938,181.35938 -61.144693,272.01413 -73.466678,387.82525 -36.595703,487.13477 -2.9267119,581.23883 71.829073,660.20524 164.95312,697.16211 c 89.9208,36.75706 194.88595,35.17126 283.06836,-6.0293 C 532.05622,652.84129 600.57667,580.75279 632.91797,494.41016 667.58499,404.67248 664.34122,300.66076 622.50586,213.89062 582.94645,129.7218 509.25969,61.773098 421.29492,30.673828 381.83589,16.309391 339.92447,8.8048498 298.03516,9.046875 Z m -0.36914,12.005859 c 74.47362,-0.215465 148.57519,23.899488 208.3125,68.740235 72.76405,53.830601 122.5088,137.616241 135.06445,226.972651 13.32097,88.38829 -10.02837,181.56415 -63.19336,253.56836 -54.11608,74.5839 -139.51324,125.52696 -230.8125,137.80664 -54.18987,7.80773 -110.23121,1.89156 -161.99414,-16.23046 C 97.533145,661.48483 23.829515,594.29363 -14.283203,509.88086 -45.512341,441.864 -53.845957,364.13174 -37.328125,291.26758 -18.033415,203.1413 37.499138,123.76385 113.6875,75.53125 168.2721,40.399437 232.97924,21.695655 297.66602,21.052734 Z"
       style="display:inline;opacity:0.6520004;fill:#f2e500;fill-opacity:1;stroke:#ff0000;stroke-width:1.81616175;stroke-linejoin:round;stroke-miterlimit:6.4000001;stroke-dasharray:none;stroke-dashoffset:0;stroke-opacity:1;paint-order:markers stroke fill" />
    <path
       id="circle4586"
       d="M 299.51953,-101.89844 A 468.22607,468.22607 0 0 0 -168.70703,366.32617 468.22607,468.22607 0 0 0 299.51953,834.55273 468.22607,468.22607 0 0 0 767.74609,366.32617 468.22607,468.22607 0 0 0 299.51953,-101.89844 Z m -2.68555,12.289065 c 74.08616,-0.516472 148.1918,17.671831 213.85157,51.953125 85.69042,44.2237836 156.00571,117.112219 198.26562,203.65039 48.43264,97.69075 59.33672,212.72285 31.02539,317.76953 C 712.87692,586.81561 648.12633,679.22992 560.70898,739.92578 475.01322,800.34842 368.18307,829.0537 263.93555,820.86523 158.2656,812.93339 56.175157,766.27333 -19.511719,691.95898 -100.92803,612.97158 -150.19156,502.4768 -155.81641,389.38867 -162.84227,265.5391 -115.45353,139.88567 -29.310547,50.527344 54.574295,-37.628066 175.28433,-89.185256 296.83398,-89.609375 Z"
       style="display:inline;opacity:0.522;fill:#0000e0;fill-opacity:1;stroke:#ff0000;stroke-width:2.4338305;stroke-linejoin:round;stroke-miterlimit:6.4000001;stroke-dasharray:none;stroke-dashoffset:0;stroke-opacity:1;paint-order:markers stroke fill" />
  </g>
</svg>
