<?xml version="1.0" encoding="UTF-8" standalone="no"?>
<!-- Created with Inkscape (http://www.inkscape.org/) -->

<svg
   xmlns:dc="http://purl.org/dc/elements/1.1/"
   xmlns:cc="http://creativecommons.org/ns#"
   xmlns:rdf="http://www.w3.org/1999/02/22-rdf-syntax-ns#"
   xmlns:svg="http://www.w3.org/2000/svg"
   xmlns="http://www.w3.org/2000/svg"
   xmlns:xlink="http://www.w3.org/1999/xlink"
   xmlns:sodipodi="http://sodipodi.sourceforge.net/DTD/sodipodi-0.dtd"
   xmlns:inkscape="http://www.inkscape.org/namespaces/inkscape"
   version="1.1"
   id="svg885"
   width="570"
   height="745"
   viewBox="0 0 570 745"
   sodipodi:docname="skull.svg"
   inkscape:version="0.92.5 (2060ec1f9f, 2020-04-08)">
  <metadata
     id="metadata891">
    <rdf:RDF>
      <cc:Work
         rdf:about="">
        <dc:format>image/svg+xml</dc:format>
        <dc:type
           rdf:resource="http://purl.org/dc/dcmitype/StillImage" />
        <dc:title />
      </cc:Work>
    </rdf:RDF>
  </metadata>
  <defs
     id="defs889" />
  <sodipodi:namedview
     pagecolor="#ffffff"
     bordercolor="#666666"
     borderopacity="1"
     objecttolerance="10"
     gridtolerance="10"
     guidetolerance="10"
     inkscape:pageopacity="0"
     inkscape:pageshadow="2"
     inkscape:window-width="1280"
     inkscape:window-height="968"
     id="namedview887"
     showgrid="false"
     inkscape:zoom="0.72608952"
     inkscape:cx="-81.725986"
     inkscape:cy="408.52631"
     inkscape:window-x="0"
     inkscape:window-y="0"
     inkscape:window-maximized="1"
     inkscape:current-layer="layer3" />
  <g
     inkscape:groupmode="layer"
     id="layer1"
     inkscape:label="Photo Reference"
     style="display:none">
    <image
       sodipodi:absref="/home/jasonrohrer/checkout/jason-rohrer/design/bossGee/skullPhoto.jpg"
       xlink:href="skullPhoto.jpg"
       inkscape:label="image893"
       style="opacity:1;fill:#ff0000;image-rendering:auto"
       y="-2.0050468"
       x="12.158869"
       id="image893"
       preserveAspectRatio="none"
       height="745"
       width="570" />
  </g>
  <g
     inkscape:groupmode="layer"
     id="layer4"
     inkscape:label="Skull Outline"
     style="display:inline">
    <path
       id="path897"
       style="display:inline;fill:none;fill-rule:evenodd;stroke:#000000;stroke-width:1px;stroke-linecap:butt;stroke-linejoin:miter;stroke-opacity:1"
       d="m 418.72951,53.857463 c 31.83931,18.035477 55.79039,38.243904 74.98692,68.764877 18.92292,30.08596 17.07556,53.33531 23.53964,84.85797 1.75128,8.54028 6.2151,19.00564 9.53687,27.67136 6.43451,16.78608 7.71867,37.28587 3.72834,54.57055 -2.94922,12.77493 -12.54165,25.22677 -15.5817,37.98039 -2.15343,9.03405 0.20984,20.2683 -0.39832,29.53553 -0.89324,13.61113 -9.35354,12.39379 -12.61626,22.83668 8.06512,8.29715 11.79887,11.24185 15.47369,18.59695 4.99801,10.00343 1.62552,17.41005 -3.58152,27.37179 -5.96311,11.4082 -15.6716,23.90945 -23.80818,33.8845 -10.94014,13.41208 -16.53927,5.54745 -29.60537,12.51394 -2.16127,29.05747 -4.99061,44.67541 -3.69372,74.52805 0.53213,12.24898 5.77773,26.21864 4.78932,38.43927 -0.70816,8.75563 0.59013,17.13725 -4.90747,24.77426 -2.86062,3.97383 -1.81971,3.99881 -7.5092,7.48472 -16.3413,10.01217 -18.20702,22.41588 -32.42904,36.13772 -13.48334,13.00914 -27.79274,29.43565 -44.1037,38.65469 -7.45691,4.21468 -18.07992,14.59502 -26.50088,16.1623 -10.74933,2.00062 -25.42546,-1.34264 -41.59058,-1.34264 -16.16512,0 -37.72745,3.34326 -48.47678,1.34264 -8.42096,-1.56728 -15.77303,-7.12728 -23.22994,-11.34196 -16.31096,-9.21904 -34.23561,-16.69348 -47.71895,-29.70262 -14.22202,-13.72184 -17.37847,-37.21986 -33.11111,-49.17974 -5.31187,-4.03806 -12.9923,-2.54932 -17.61296,-7.36299 -6.08303,-6.33714 -7.973,-15.5317 -8.68116,-24.28733 -0.98841,-12.22063 3.1616,-28.74666 3.69373,-40.99564 1.29689,-29.85264 -0.0717,-56.06127 -2.23294,-85.11874 -13.0661,-6.96649 -25.48222,-7.37963 -34.109442,-23.83501 -5.977218,-11.40082 -17.939965,-20.27026 -17.504942,-33.13558 0.301915,-8.92881 3.80358,-16.38514 10.879506,-18.07542 8.072439,-1.92833 9.068957,-6.09591 13.407828,-12.05505 -3.262715,-10.44289 -9.155031,-6.92847 -12.114131,-20.02313 -2.047074,-9.05874 -0.281216,-18.72085 -2.434641,-27.7549 -3.04005,-12.75362 -11.658626,-23.74468 -14.607843,-36.51961 -3.990336,-17.28468 -7.575447,-39.73218 -1.140944,-56.51826 3.321777,-8.66572 7.043733,-17.04388 10.023799,-25.23672 11.820294,-32.49652 4.873302,-67.53158 28.24183,-94.3113 23.32825,-26.733558 51.99586,-50.916755 84.17948,-65.85344 32.78516,-15.215864 74.01182,-22.975301 112.18441,-22.999598 38.41113,-0.02445 83.18739,11.727125 114.63636,29.541491 z"
       inkscape:connector-curvature="0"
       sodipodi:nodetypes="ssssssscssscsssssssssssscsscssscsssssssss" />
  </g>
  <g
     inkscape:groupmode="layer"
     id="layer2"
     inkscape:label="Skull Holes"
     style="display:inline">
    <path
       style="fill:none;fill-rule:evenodd;stroke:#ff0000;stroke-width:1px;stroke-linecap:butt;stroke-linejoin:miter;stroke-opacity:1"
       d="m 163.89164,399.31259 c 16.89873,5.18427 36.44956,5.45464 53.02376,-0.68862 18.94585,-7.02231 41.5893,-19.30294 46.48188,-38.90704 4.88713,-19.58227 -8.8242,-41.48932 -22.72447,-56.12256 -8.98218,-9.45582 -16.56942,-15.70536 -29.61068,-15.83827 -13.92482,-0.14191 -29.23925,11.99791 -44.0717,16.18258 -12.86494,3.62958 -30.39998,9.69602 -37.52981,21.00292 -6.18772,9.81285 -0.43836,18.28332 2.06586,29.61067 2.44318,11.05126 5.97566,22.52462 13.08379,31.33223 4.91885,6.09489 11.79365,11.13097 19.28137,13.42809 z"
       id="path900"
       inkscape:connector-curvature="0"
       sodipodi:nodetypes="ssssssssss" />
    <path
       style="fill:none;fill-rule:evenodd;stroke:#ff0000;stroke-width:1px;stroke-linecap:butt;stroke-linejoin:miter;stroke-opacity:1"
       d="m 377.12582,291.66994 c -4.44066,1.63499 -5.6614,1.12136 -9.4951,3.89542 -7.64482,5.53178 -16.96412,10.18787 -21.42484,18.50327 -4.8726,9.0832 -3.76375,16.041 -7.06045,25.80719 -1.1397,3.37625 -1.78343,10.5809 -2.19118,14.12091 -0.89303,7.7531 2.21691,16.09414 6.81699,22.39869 6.05065,8.29259 16.26049,12.70262 25.32026,17.52942 11.38524,6.06575 23.44189,11.31213 36.03268,14.12091 9.68409,2.16035 20.3199,5.17469 29.70262,1.94771 9.45774,-3.25278 17.33625,-11.33844 22.39869,-19.96405 10.60418,-18.06787 13.63809,-40.89666 13.63399,-61.35294 -0.002,-9.65161 -13.63793,-12.07286 -21.91177,-17.04248 -9.9024,-5.94781 -20.3172,-9.45146 -31.65032,-11.68628 -7.01392,-1.3831 -12.23888,-1.91157 -18.50327,-5.3562 -3.47217,-1.90926 -7.54576,-2.36165 -11.19935,-3.89544 -2.73098,-1.14648 -7.68949,-0.0495 -10.46895,0.97387 z"
       id="path902"
       inkscape:connector-curvature="0"
       sodipodi:nodetypes="ssssssssssssssss" />
    <path
       style="fill:none;fill-rule:evenodd;stroke:#ff0000;stroke-width:1px;stroke-linecap:butt;stroke-linejoin:miter;stroke-opacity:1"
       d="m 295.76243,369.0133 c -4.32002,-0.46169 -8.61849,-4.13043 -12.73947,-2.75448 -7.48621,2.49956 -11.03155,10.84716 -13.77241,18.24844 -8.36611,22.59143 -15.1287,49.57814 -15.14965,70.23927 -0.008,7.54546 9.95441,18.68526 17.21551,27.88913 3.45479,4.37915 7.85782,11.99749 13.4281,11.70654 3.8935,-0.20337 4.83144,-7.7908 8.26344,-9.64068 1.24965,-0.67358 3.21743,0.0319 4.47603,0.68862 2.28658,1.19309 0.59491,5.82047 2.75448,7.23051 3.84878,2.51297 10.59526,2.63311 13.77241,-0.68862 10.15711,-10.61933 15.82345,-18.90577 22.72447,-29.26636 5.53862,-8.31519 2.12182,-19.03446 0.68862,-28.92206 -2.36397,-16.30896 -7.00876,-31.11013 -13.7724,-46.13756 -2.95263,-6.56014 -4.15209,-16.58873 -10.67362,-19.62568 -2.92985,-1.36437 -6.41333,0.86053 -9.64068,1.03293 -2.52135,0.13469 -5.06418,0.26832 -7.57483,0 z"
       id="path904"
       inkscape:connector-curvature="0"
       sodipodi:nodetypes="ssssssssssssssss" />
    <path
       style="fill:none;fill-rule:evenodd;stroke:#ff0000;stroke-width:1px;stroke-linecap:butt;stroke-linejoin:miter;stroke-opacity:1"
       d="m 221.15342,546.61148 c -6.52899,4.28172 -4.12459,16.40204 -0.68862,23.4131 1.5002,3.06113 5.01042,5.0061 8.26344,6.02542 2.41005,0.75518 9.04565,1.5461 8.06176,-1.38947 -3.17957,-9.48663 -3.43506,-8.48859 -4.27434,-13.0629 -0.70694,-3.85302 1.30381,-7.71035 -1.03293,-10.85442 -2.21207,-2.97633 -7.22833,-6.16536 -10.32931,-4.13173 z"
       id="path955"
       inkscape:connector-curvature="0"
       sodipodi:nodetypes="sssssss" />
    <path
       style="opacity:1;fill:none;fill-rule:evenodd;stroke:#ff0000;stroke-width:1px;stroke-linecap:butt;stroke-linejoin:miter;stroke-opacity:1"
       d="m 242.2222,556.01415 c -2.07937,-0.002 -4.07852,2.01703 -4.82034,3.95957 -1.74015,4.55677 0.69798,11.06228 3.09013,15.31315 1.61791,2.87504 3.49529,4.83406 6.72271,5.51761 2.22089,0.47037 4.55483,0.84912 5.8115,-1.04158 2.75029,-4.1377 0.6539,-11.41549 -1.72155,-15.77919 -2.02698,-3.72355 -4.84294,-7.9656 -9.08245,-7.96956 z"
       id="path957"
       inkscape:connector-curvature="0"
       sodipodi:nodetypes="sssssss" />
    <path
       style="fill:none;fill-rule:evenodd;stroke:#ff0000;stroke-width:1px;stroke-linecap:butt;stroke-linejoin:miter;stroke-opacity:1"
       d="m 268.90624,560.31803 c -0.67271,-0.14716 -5.82349,0.16894 -7.91913,1.89371 -2.24052,1.84401 -2.88133,5.1117 -3.61526,7.91913 -0.87387,3.3427 -0.75791,7.00749 -0.13039,11.05969 0.39264,2.53545 7.65264,4.44283 12.3534,5.63935 4.89889,1.24695 14.69617,3.2887 15.14965,0.68862 1.29924,-7.4493 -1.1137,-13.88083 -4.22392,-19.69698 -1.47351,-2.75547 -3.35408,-4.81716 -6.10539,-6.29843 -1.65511,-0.89109 -5.50896,-1.20509 -5.50896,-1.20509 z"
       id="path959"
       inkscape:connector-curvature="0"
       sodipodi:nodetypes="sssssssss" />
    <path
       style="fill:none;fill-rule:evenodd;stroke:#ff0000;stroke-width:1px;stroke-linecap:butt;stroke-linejoin:miter;stroke-opacity:1"
       d="m 303.84314,564.45425 c -3.23402,-0.28084 -7.80282,-0.75629 -10.46895,1.09559 -3.62756,2.51968 -3.01571,6.99278 -3.89543,11.32107 -0.7281,3.58232 -1.27893,7.83974 -0.3652,10.95589 0.71879,2.45132 10.36243,2.36689 15.70343,2.6781 3.16383,0.18435 6.71523,1.03494 9.4951,-0.48693 1.22472,-0.67048 2.04702,-2.06714 2.43464,-3.40849 1.1735,-4.0609 0.0274,-8.50156 -0.73039,-12.66013 -0.48779,-2.67672 -0.39016,-5.99561 -2.43464,-7.79085 -2.47633,-2.17445 -6.4554,-1.41914 -9.73856,-1.70425 z"
       id="path961"
       inkscape:connector-curvature="0"
       sodipodi:nodetypes="ssssssssss" />
    <path
       style="fill:none;fill-rule:evenodd;stroke:#ff0000;stroke-width:1px;stroke-linecap:butt;stroke-linejoin:miter;stroke-opacity:1"
       d="m 330.38072,564.69771 c -2.87357,1.02408 -6.05223,2.06342 -8.03431,4.38236 -1.56775,1.83419 -1.96894,4.44946 -2.43464,6.81699 -0.68989,3.50729 -0.68787,7.60968 -0.48693,10.71242 0.10429,1.6103 6.63349,-0.18732 9.73856,-1.21732 3.27706,-1.08705 9.22097,-3.60901 9.00817,-5.11275 -0.67756,-4.788 -0.43124,-8.98451 -1.94771,-13.14706 -0.42404,-1.16394 -0.81505,-2.66342 -1.94772,-3.16503 -1.20795,-0.53495 -2.65098,0.2869 -3.89542,0.73039 z"
       id="path963"
       inkscape:connector-curvature="0"
       sodipodi:nodetypes="sssssssss" />
    <path
       style="fill:none;fill-rule:evenodd;stroke:#ff0000;stroke-width:1px;stroke-linecap:butt;stroke-linejoin:miter;stroke-opacity:1"
       d="m 352.2402,549.11601 c -3.20127,2.68526 -6.46208,5.44745 -8.39951,8.03432 -2.13225,2.84699 -2.17929,4.81657 -2.999,8.27777 -1.05797,4.46723 0.77076,6.04019 1.41648,13.14706 0.16938,1.86424 5.28021,3.58439 8.27778,3.4085 2.24662,-0.13183 4.67054,-1.17244 6.0866,-2.92157 1.73394,-2.14177 1.65829,-5.29388 1.94771,-8.03431 0.62245,-5.89374 -0.10299,-11.77166 -0.48693,-17.77288 -0.15239,-2.38196 -4.01446,-5.6728 -5.84313,-4.13889 z"
       id="path965"
       inkscape:connector-curvature="0"
       sodipodi:nodetypes="sssssssss" />
    <path
       style="fill:none;fill-rule:evenodd;stroke:#ff0000;stroke-width:1px;stroke-linecap:butt;stroke-linejoin:miter;stroke-opacity:1"
       d="m 373.47386,542.29902 c -3.72783,0.14038 -6.15,4.57126 -8.03432,7.79085 -2.24712,3.83948 -3.04191,8.56848 -2.54771,12.98967 0.23388,2.0923 0.1224,4.69195 2.06078,5.5136 2.10411,0.8919 4.83869,-0.46008 6.57353,-1.94772 2.45267,-2.10318 2.74334,-5.53546 2.84773,-8.7647 0.13196,-4.0823 2.7393,-9.29436 0.98863,-13.31922 -0.50563,-1.16247 -0.62186,-2.31018 -1.88864,-2.26248 z"
       id="path967"
       inkscape:connector-curvature="0"
       sodipodi:nodetypes="ssssssss" />
    <path
       style="fill:none;fill-rule:evenodd;stroke:#ff0000;stroke-width:1px;stroke-linecap:butt;stroke-linejoin:miter;stroke-opacity:1"
       d="m 385.57761,537.55147 c -0.93596,0.0396 -2.0691,0.14028 -2.6781,0.85212 -1.38783,1.62219 -0.47221,4.255 -0.97386,6.33007 -0.81411,3.36754 -4.11857,6.49708 -3.28676,9.86029 0.32385,1.3094 1.63165,2.40549 2.92157,2.79984 1.14193,0.34911 2.64554,0.19334 3.53023,-0.60866 2.15155,-1.95046 1.20212,-5.54029 1.71037,-8.39951 0.59861,-3.36752 0.97924,-6.34699 0.33565,-10.22549 -0.14986,-0.90312 -0.64445,-0.64736 -1.5591,-0.60866 z"
       id="path969"
       inkscape:connector-curvature="0"
       sodipodi:nodetypes="sssssssss" />
    <path
       style="fill:none;fill-rule:evenodd;stroke:#ff0000;stroke-width:1px;stroke-linecap:butt;stroke-linejoin:miter;stroke-opacity:1"
       d="m 394.58578,524.96078 c -1.68294,0.73693 -2.76366,2.00471 -3.50068,3.68762 -1.82321,4.16311 -2.63649,10.42024 0.0504,13.89222 0.92722,1.19813 2.42275,-0.76752 3.572,-1.75467 1.58456,-1.36105 1.89359,-3.37595 2.44076,-5.39186 0.92498,-3.40786 2.79996,-8.32699 0.24346,-10.76285 -0.82466,-0.78574 -1.76255,-0.12735 -2.80596,0.32954 z"
       id="path971"
       inkscape:connector-curvature="0"
       sodipodi:nodetypes="sssssss" />
    <path
       style="fill:none;fill-rule:evenodd;stroke:#ff0000;stroke-width:1px;stroke-linecap:butt;stroke-linejoin:miter;stroke-opacity:1"
       d="m 207.81819,539.12274 c 2.0013,-2.1609 2.85184,2.1271 4.91761,4.22645 0.68097,0.69204 1.55993,3.04204 1.7572,3.99268 0.6586,3.17375 -0.39548,5.77709 -1.07724,8.94595 -0.18004,0.83683 -0.0998,1.7116 -0.846,2.13106 -1.31304,0.73813 -2.60842,0.0228 -3.57349,-1.13378 -1.70556,-2.04393 0.13591,-4.42385 -0.18081,-7.06701 -0.40865,-3.41033 -2.61538,-9.3482 -0.99727,-11.09535 z"
       id="path973"
       inkscape:connector-curvature="0"
       sodipodi:nodetypes="ssssssss" />
    <path
       style="fill:none;fill-rule:evenodd;stroke:#ff0000;stroke-width:1px;stroke-linecap:butt;stroke-linejoin:miter;stroke-opacity:1"
       d="m 195.44935,533.65605 c 1.02,-3.38842 5.21191,4.27199 6.81699,7.42564 1.55142,3.04822 3.32017,7.89728 0.60865,9.98203 -1.43466,1.10304 -2.386,-0.77627 -3.65195,-2.06944 -1.25669,-1.28371 -1.11945,-3.62048 -1.58252,-5.3562 -0.89643,-3.36007 -3.48907,-5.67044 -2.19117,-9.98203 z"
       id="path975"
       inkscape:connector-curvature="0"
       sodipodi:nodetypes="ssssss" />
    <path
       style="fill:none;fill-rule:evenodd;stroke:#ff0000;stroke-width:1px;stroke-linecap:butt;stroke-linejoin:miter;stroke-opacity:1"
       d="m 196.47459,561.3001 c -1.51096,-0.17423 -3.18349,1.23831 -3.70133,2.66841 -0.74635,2.06115 -0.42175,11.18566 1.03293,12.82556 1.10319,1.24365 2.39777,0.72729 4.04564,0.94684 1.34428,0.1791 4.26384,-5.09526 5.25073,-6.02542 0.63504,-0.59853 0.37316,-1.71156 0.43039,-2.58233 0.11109,-1.69018 1.03453,-3.88988 -0.17215,-5.07857 -1.08353,-1.06739 -3.18379,0.55701 -4.56211,-0.0861 -1.06891,-0.49874 -1.15233,-2.53327 -2.3241,-2.66839 z"
       id="path1013"
       inkscape:connector-curvature="0"
       sodipodi:nodetypes="sssssssss" />
    <path
       style="display:inline;fill:none;fill-rule:evenodd;stroke:#ff0000;stroke-width:1px;stroke-linecap:butt;stroke-linejoin:miter;stroke-opacity:1"
       d="m 205.06213,571.86743 c -1.72574,1.27657 -5.28923,12.43622 -5.33427,14.58232 -0.0414,1.97415 1.88243,3.35048 3.57095,4.37413 1.41225,0.85616 4.13684,-6.52612 5.46466,-7.50814 1.0278,-0.76013 1.34493,-3.37097 1.29116,-4.64819 -0.0957,-2.27357 -1.00258,-4.44216 -1.63547,-6.62797 -0.12617,-0.43577 -0.0203,-1.09714 -0.43039,-1.29116 -0.94409,-0.44668 -2.08698,0.49789 -2.92664,1.11901 z"
       id="path1015"
       inkscape:connector-curvature="0"
       sodipodi:nodetypes="ssssssss" />
    <path
       style="fill:none;fill-rule:evenodd;stroke:#ff0000;stroke-width:1px;stroke-linecap:butt;stroke-linejoin:miter;stroke-opacity:1"
       d="m 219.5,585.60131 c 2.19612,4.07309 2.69379,10.40534 -0.3652,13.87745 -1.05844,1.20138 -3.41406,1.61665 -4.74754,0.73039 -1.67205,-1.11128 -1.14993,-3.85969 -1.46079,-5.84314 -0.66743,-4.25858 -1.33714,-8.6204 -0.85212,-12.90359 0.0953,-0.8419 -0.1051,-2.29379 0.73039,-2.43464 1.77685,-0.29955 1.84708,3.15356 3.16503,4.38235 1.013,0.94447 2.87293,0.9721 3.53023,2.19118 z"
       id="path1018"
       inkscape:connector-curvature="0"
       sodipodi:nodetypes="ssssssss" />
    <path
       style="fill:none;fill-rule:evenodd;stroke:#ff0000;stroke-width:1px;stroke-linecap:butt;stroke-linejoin:miter;stroke-opacity:1"
       d="m 225.03023,590.94036 c -4.17625,4.23491 -0.33729,12.14351 1.58252,17.77288 0.55953,1.64068 1.28597,3.53789 2.79983,4.38235 2.30367,1.28503 6.04757,1.98719 7.91258,0.12173 3.67265,-3.67353 0.44174,-10.43256 -0.24346,-15.5817 -0.32584,-2.44864 0.23752,-5.82425 -1.82598,-7.18219 -1.51019,-0.99382 -4.50409,0.73039 -5.35621,0.85213 -0.85212,0.12173 -3.72641,-1.52412 -4.86928,-0.3652 z"
       id="path1020"
       inkscape:connector-curvature="0"
       sodipodi:nodetypes="ssssssss" />
    <path
       style="fill:none;fill-rule:evenodd;stroke:#ff0000;stroke-width:1px;stroke-linecap:butt;stroke-linejoin:miter;stroke-opacity:1"
       d="m 242.54248,588.08824 c -5.64662,3.45273 0.45126,13.22962 0.7304,19.84232 0.14392,3.40932 -1.14183,7.22693 0.48692,10.22549 0.76325,1.40517 2.30095,2.92098 3.89543,2.79983 2.7181,-0.20653 4.60223,-3.29429 5.84314,-5.7214 2.1108,-4.12853 1.81485,-9.12588 2.06944,-13.75572 0.16946,-3.08163 1.83586,-7.0882 -0.3652,-9.25164 -1.30256,-1.2803 -3.71579,0.35856 -5.47794,-0.12173 -2.64656,-0.72134 -4.84192,-5.44815 -7.18219,-4.01715 z"
       id="path1022"
       inkscape:connector-curvature="0"
       sodipodi:nodetypes="sssssssss" />
    <path
       style="fill:none;fill-rule:evenodd;stroke:#ff0000;stroke-width:1px;stroke-linecap:butt;stroke-linejoin:miter;stroke-opacity:1"
       d="m 260.23262,595.55897 c -4.71362,2.8537 -0.25573,11.04949 0.34431,16.52688 0.25491,2.32694 -0.51587,5.50934 1.37724,6.88621 2.00901,1.46117 5.46528,0.69411 7.40267,-0.86078 2.32118,-1.86291 2.68403,-5.46922 2.92664,-8.4356 0.27531,-3.3662 0.48931,-7.43172 -1.72155,-9.98499 -1.57992,-1.82462 -4.67125,-1.27918 -6.8862,-2.23802 -1.20204,-0.52036 -2.32262,-2.57206 -3.44311,-1.8937 z"
       id="path1024"
       inkscape:connector-curvature="0"
       sodipodi:nodetypes="ssssssss" />
    <path
       style="fill:none;fill-rule:evenodd;stroke:#ff0000;stroke-width:1px;stroke-linecap:butt;stroke-linejoin:miter;stroke-opacity:1"
       d="m 277.16968,595.41224 c -2.54147,3.11341 1.69208,7.87712 2.06586,11.8787 0.37896,4.05708 -2.28314,8.97108 0.17216,12.22301 1.44403,1.91255 4.5336,2.52232 6.8862,2.06586 1.80358,-0.34994 3.36501,-1.8639 4.30388,-3.4431 1.6682,-2.80596 1.77618,-6.37675 1.72155,-9.64069 -0.0736,-4.40011 0.5926,-10.05446 -2.75448,-12.91163 -1.66083,-1.41773 -4.35839,-0.319 -6.54189,-0.34431 -1.95181,-0.0226 -4.61895,-1.33995 -5.85328,0.17216 z"
       id="path1026"
       inkscape:connector-curvature="0"
       sodipodi:nodetypes="sssssssss" />
    <path
       style="fill:none;fill-rule:evenodd;stroke:#ff0000;stroke-width:1px;stroke-linecap:butt;stroke-linejoin:miter;stroke-opacity:1"
       d="m 298.34476,597.65025 c -3.55906,3.82309 -1.4252,10.55588 -0.34431,15.66612 0.64279,3.03898 1.15382,7.10277 3.95956,8.4356 1.70973,0.81219 4.02645,-0.20039 5.50897,-1.37724 1.96992,-1.56376 2.85276,-4.26917 3.4431,-6.71405 0.82162,-3.4027 -0.10923,-7.00268 0,-10.50146 0.0574,-1.83901 1.55663,-4.12494 0.34431,-5.50897 -1.62984,-1.86067 -4.92929,-0.54592 -7.40267,-0.51646 -1.84424,0.022 -4.25224,-0.83349 -5.50896,0.51646 z"
       id="path1028"
       inkscape:connector-curvature="0"
       sodipodi:nodetypes="sssssssss" />
    <path
       style="fill:none;fill-rule:evenodd;stroke:#ff0000;stroke-width:1px;stroke-linecap:butt;stroke-linejoin:miter;stroke-opacity:1"
       d="m 318.14259,595.34638 c -3.48574,3.24633 -0.15995,9.53716 0.17216,14.28887 0.15732,2.25084 0.2782,4.53422 0.86077,6.71405 0.77045,2.88284 0.62443,7.28393 3.4431,8.26344 1.67423,0.58181 3.55717,-1.18546 4.64819,-2.58232 2.45057,-3.13753 2.67078,-7.57634 3.09879,-11.5344 0.52498,-4.85482 -0.33079,-9.76318 -0.68862,-14.63318 -0.0423,-0.57516 0.29384,-1.38177 -0.17215,-1.72155 -1.99167,-1.45221 -4.77067,1.39181 -7.23052,1.5494 -1.37919,0.0884 -3.12038,-1.28619 -4.13172,-0.34431 z"
       id="path1030"
       inkscape:connector-curvature="0"
       sodipodi:nodetypes="ssssssssss" />
    <path
       style="fill:none;fill-rule:evenodd;stroke:#ff0000;stroke-width:1px;stroke-linecap:butt;stroke-linejoin:miter;stroke-opacity:1"
       d="m 334.56319,590.52604 c -2.39966,3.57465 -0.19102,8.63963 0.34431,12.91163 0.38773,3.09419 1.07118,6.16872 2.06586,9.12422 0.88468,2.62866 1.17052,5.98488 3.4431,7.57482 1.8392,1.28674 5.14513,2.12172 6.71405,0.51646 1.2093,-1.23732 -0.52305,-3.43453 -0.51647,-5.16465 0.0143,-3.75157 0.90681,-7.45036 1.20509,-11.19008 0.35178,-4.4106 3.09524,-9.54309 0.68862,-13.25594 -1.4723,-2.27142 -4.868,-2.91721 -7.57483,-2.92664 -2.27014,-0.008 -5.10444,0.52534 -6.36973,2.41018 z"
       id="path1032"
       inkscape:connector-curvature="0"
       sodipodi:nodetypes="ssssssssss" />
    <path
       style="fill:none;fill-rule:evenodd;stroke:#ff0000;stroke-width:1px;stroke-linecap:butt;stroke-linejoin:miter;stroke-opacity:1"
       d="m 352.50775,593.0425 c -2.38997,4.81263 2.58974,10.63838 5.50896,15.14965 1.52123,2.35087 3.39081,4.90486 6.02543,5.85327 1.35414,0.48746 3.2653,0.65202 4.30388,-0.34431 1.71043,-1.64084 0.98053,-4.69117 0.86077,-7.05836 -0.24971,-4.9358 -2.20086,-9.63616 -3.27095,-14.46103 -0.58491,-2.63728 0.12627,-5.94862 -1.72155,-7.91913 -0.28577,-0.30474 -0.8244,-0.51638 -1.20508,-0.34431 -2.31562,1.04668 -1.35005,5.22253 -3.27095,6.8862 -1.90714,1.65175 -6.10834,-0.0217 -7.23051,2.23802 z"
       id="path1034"
       inkscape:connector-curvature="0"
       sodipodi:nodetypes="ssssssssss" />
    <path
       style="fill:none;fill-rule:evenodd;stroke:#ff0000;stroke-width:1px;stroke-linecap:butt;stroke-linejoin:miter;stroke-opacity:1"
       d="m 367.86998,583.27009 c -1.6977,2.35543 1.18841,5.81853 2.75448,8.26345 1.35767,2.11956 4.04352,3.11812 5.50897,5.16465 1.94378,2.71453 1.61569,6.92956 4.13172,9.12422 1.66928,1.45607 4.47928,3.04818 6.36974,1.89371 2.39177,-1.46061 1.58734,-5.46122 1.54939,-8.26345 -0.0405,-2.99366 -0.85335,-5.97254 -1.8937,-8.77991 -1.58824,-4.28585 -2.05032,-11.20425 -6.5419,-12.05085 -2.36107,-0.44503 -3.25234,3.82336 -5.50896,4.64818 -1.99421,0.72891 -5.12826,-1.72247 -6.36974,0 z"
       id="path1036"
       inkscape:connector-curvature="0"
       sodipodi:nodetypes="ssssssssss" />
    <path
       style="fill:none;fill-rule:evenodd;stroke:#ff0000;stroke-width:1px;stroke-linecap:butt;stroke-linejoin:miter;stroke-opacity:1"
       d="m 383.88041,570.08001 c -2.31286,1.14133 -4.35835,3.97274 -4.13173,6.5419 0.232,2.63012 3.41251,4.04539 5.33681,5.85327 3.00455,2.82278 5.51851,7.80201 9.64069,7.74698 2.4833,-0.0331 4.72496,-2.52826 5.68111,-4.82034 1.15224,-2.76214 -0.68862,-7.91914 -0.68862,-8.95207 0,-1.03293 -1.77852,-6.1851 -4.13172,-8.09129 -1.20065,-0.97257 -2.97831,-1.58493 -4.47603,-1.20508 -1.53445,0.38917 -1.94783,2.75116 -3.4431,3.27094 -1.19739,0.41624 -2.65061,-0.90529 -3.78741,-0.34431 z"
       id="path1038"
       inkscape:connector-curvature="0"
       sodipodi:nodetypes="ssssssssss" />
    <path
       style="fill:none;fill-rule:evenodd;stroke:#ff0000;stroke-width:1px;stroke-linecap:butt;stroke-linejoin:miter;stroke-opacity:1"
       d="m 401.37436,551.10252 c -2.68363,-0.18139 -5.21248,2.24442 -6.71404,4.47603 -1.43874,2.13825 -2.59479,5.21915 -1.5494,7.57483 1.18962,2.68071 4.68913,3.95236 7.57482,4.47603 1.9494,0.35376 4.30693,0.20567 5.85328,-1.03293 1.16451,-0.93275 2.41017,-2.41017 1.72155,-4.13172 -0.68862,-1.72155 -2.05326,-6.19665 -3.95957,-8.77991 -0.77251,-1.04683 -1.62859,-2.49459 -2.92664,-2.58233 z"
       id="path1040"
       inkscape:connector-curvature="0"
       sodipodi:nodetypes="ssssssss" />
  </g>
  <g
     inkscape:groupmode="layer"
     id="layer3"
     inkscape:label="Skull Etched Lines"
     style="display:inline">
    <path
       id="path1042"
       style="fill:none;fill-rule:evenodd;stroke:#ff0000;stroke-width:1px;stroke-linecap:butt;stroke-linejoin:miter;stroke-opacity:1"
       d="m 135.52648,249.19336 c 0,0 2.13183,15.7399 0.68862,23.41309 -1.52095,8.08651 -6.42465,15.15069 -9.64068,22.72447 -2.30789,5.43511 -4.52671,10.90902 -6.929,16.30307 -3.75186,8.42434 -9.5582,16.10364 -11.68627,25.07679 -2.52928,10.66487 3.51307,28.54616 3.51307,28.54616 l -6.1826,-0.0609 c 0,0 -5.85975,-17.82043 -3.33047,-28.4853 2.12807,-8.97315 7.93441,-16.65245 11.68627,-25.07679 2.40229,-5.39405 4.62111,-10.86796 6.929,-16.30307 3.21603,-7.57378 8.11973,-14.63796 9.64068,-22.72447 1.44321,-7.67319 -0.68862,-23.41309 -0.68862,-23.41309 z"
       inkscape:connector-curvature="0"
       sodipodi:nodetypes="cssssccsssscc" />
    <path
       id="path1045"
       style="fill:none;fill-rule:evenodd;stroke:#ff0000;stroke-width:1px;stroke-linecap:butt;stroke-linejoin:miter;stroke-opacity:1"
       d="m 466.52941,238.59477 c 0,0 -4.23033,16.92558 -2.92157,25.32026 1.70091,10.91002 9.31021,20.0295 13.63399,30.18955 6.16081,14.47673 14.75242,28.33741 17.52941,43.82352 2.23532,12.46546 -2.97385,37.9804 -2.97385,37.9804 h -6 c 0,0 5.20917,-25.51494 2.97385,-37.9804 -2.77699,-15.48611 -11.3686,-29.34679 -17.52941,-43.82352 -4.32378,-10.16005 -11.93308,-19.27953 -13.63399,-30.18955 -1.30876,-8.39468 2.92157,-25.32026 2.92157,-25.32026 z"
       inkscape:connector-curvature="0"
       sodipodi:nodetypes="csssccssscc" />
    <path
       id="path1048"
       style="fill:none;fill-rule:evenodd;stroke:#ff0000;stroke-width:1px;stroke-linecap:butt;stroke-linejoin:miter;stroke-opacity:1"
       d="m 195.32442,519.16606 c 0,0 5.43405,-18.1925 3.82917,-33.69874 -7.50796,-4.36609 -19.79301,-3.97164 -27.26797,-8.76471 -21.97796,-14.09262 -34.94411,-13.91668 -34.94411,-13.91668 l 0.1063,-6.7747 c 0,0 18.85985,0.59876 40.83781,14.69138 7.47496,4.79307 19.76001,4.39862 27.26797,8.76471 1.60488,15.50624 -2.92156,40.4759 -2.92156,40.4759 z"
       inkscape:connector-curvature="0"
       sodipodi:nodetypes="ccsccsccc" />
    <path
       id="path1051"
       style="fill:none;fill-rule:evenodd;stroke:#ff0000;stroke-width:1px;stroke-linecap:butt;stroke-linejoin:miter;stroke-opacity:1"
       d="m 167.38779,574.68911 c 0,0 -9.72599,-32.37862 -12.74665,-48.64858 l -8.85121,-47.67472 h -6 l 8.85121,47.67472 c 3.02065,16.26996 12.74665,48.64858 12.74665,48.64858 z"
       inkscape:connector-curvature="0"
       sodipodi:nodetypes="csccscc" />
    <path
       id="path1054"
       style="fill:none;fill-rule:evenodd;stroke:#ff0000;stroke-width:1px;stroke-linecap:butt;stroke-linejoin:miter;stroke-opacity:1"
       d="m 428.32184,584.91078 c 8.85304,-20.92538 8.73668,-25.66952 11.74832,-37.06735 5.56213,-21.05037 7.00435,-50.42203 8.22167,-60.02812 h -6 c -1.21732,9.60609 -2.65954,38.97775 -8.22167,60.02812 -3.01164,11.39783 -2.89528,16.14197 -11.74832,37.06735 z"
       inkscape:connector-curvature="0"
       sodipodi:nodetypes="csccscc" />
    <path
       id="path1057"
       style="fill:none;fill-rule:evenodd;stroke:#ff0000;stroke-width:1px;stroke-linecap:butt;stroke-linejoin:miter;stroke-opacity:1"
       d="m 389.26895,513.49859 c 0,0 -2.22132,-15.52196 0.34343,-26.18932 5.17918,-5.00749 11.8246,-4.30997 17.55982,-6.8862 6.69543,-3.00755 18.13836,-8.45411 25.13464,-10.67362 8.86254,-2.81156 19.51445,-3.47961 19.51445,-3.47961 l -0.0659,6.86078 c 0,0 -4.58605,-0.19273 -13.44859,2.61883 -6.99628,2.21951 -18.43921,7.66607 -25.13464,10.67362 -5.73522,2.57623 -12.38064,1.87871 -17.55982,6.8862 -2.56475,10.66736 -0.17127,20.81208 -0.17127,20.81208 z"
       inkscape:connector-curvature="0"
       sodipodi:nodetypes="ccssccssccc" />
  </g>
</svg>
