<?xml version="1.0" encoding="UTF-8" standalone="no"?>
<svg
   xmlns:dc="http://purl.org/dc/elements/1.1/"
   xmlns:cc="http://creativecommons.org/ns#"
   xmlns:rdf="http://www.w3.org/1999/02/22-rdf-syntax-ns#"
   xmlns:svg="http://www.w3.org/2000/svg"
   xmlns="http://www.w3.org/2000/svg"
   viewBox="0 0 570 745"
   height="745"
   width="570"
   id="svg885"
   version="1.1">
  <metadata
     id="metadata891">
    <rdf:RDF>
      <cc:Work
         rdf:about="">
        <dc:format>image/svg+xml</dc:format>
        <dc:type
           rdf:resource="http://purl.org/dc/dcmitype/StillImage" />
        <dc:title></dc:title>
      </cc:Work>
    </rdf:RDF>
  </metadata>
  <defs
     id="defs889" />
  <g
     style="display:inline;opacity:0.36199999"
     id="layer5">
    <path
       id="path7767"
       d="m 5.0839888,393.00717 c -1.38065,-0.0112 -2.76192,-0.0106 -4.14258005,0.002 -61.89249975,0.52618 -125.59206875,20.02408 -171.22851875,63.1543 -20.43334,17.74751 -41.35483,38.40731 -47.0957,65.92188 -6.31744,26.13814 -5.85217,54.38999 -19.4043,78.36133 -12.13198,28.53786 -6.86915,61.38296 5.37109,88.94531 3.67704,8.00949 8.65112,16.01209 8.17969,25.01953 0.2141,12.56548 0.52987,26.94775 10.38281,36.21289 3.63527,2.58946 -3.23257,3.14658 -4.44531,4.55078 -7.59719,2.76006 -13.33521,9.07527 -15.33203,16.89844 -4.48205,14.417 2.2386,29.73695 12.05078,40.2793 7.17716,11.90338 15.47307,24.90205 29.35352,29.69726 3.75546,2.08538 11.04434,2.12046 9.56836,8.28907 2.87325,36.11651 2.8543,72.60949 -2.30664,108.48632 -0.46991,15.03991 2.93985,32.8036 16.50586,41.48442 7.45779,3.4515 17.54698,3.9063 20.91601,12.8203 10.88046,16.8683 17.26746,38.5235 35.77149,49.0117 18.829029,12.8164 39.454439,22.8299 59.562499,33.2871 23.54357,6.9602 47.8658597,-3.1189 71.59765,1.5117 15.90099,1.9991 34.02489,1.8868 46.70313,-9.3808 20.59777,-13.6136 40.231111,-28.8843 56.492191,-47.5821 9.60936,-9.9114 16.63346,-22.066 26.49023,-31.6894 6.51267,-5.3276 14.51511,-9.53778 17.58203,-17.90628 9.35233,-21.37462 1.58153,-44.90142 -0.48242,-66.81054 -1.54877,-17.7902 0.79638,-35.58994 2.03906,-53.46875 0.75313,-3.88007 0.45681,-8.81308 2.29688,-11.79493 10.97983,-1.2656 22.81456,-5.33177 28.32812,-15.68554 13.35551,-16.57476 28.45007,-34.47834 30.48633,-56.52539 -0.4163,-11.30681 -7.5851,-20.86089 -14.96094,-28.83985 7.44084,-7.30869 11.16643,-17.86057 9.60938,-28.22265 -0.61227,-11.42763 -1.39384,-23.5234 5.55078,-33.46485 9.00705,-16.82001 14.88984,-35.85629 12.67383,-55.10742 -1.61893,-25.69613 -16.14281,-48.29868 -18.63477,-73.82031 -3.73389,-24.71236 -7.56223,-50.74643 -22.56445,-71.57227 -36.31651,-57.43506 -101.7285,-91.62764 -168.003911,-100.10552 -9.58693,-1.22048 -19.24564,-1.87871 -28.9101502,-1.95703 z m -4.06055,12.00195 c 32.3343902,-0.38187 64.8944202,6.48399 95.0761702,18.60352 42.812891,18.13021 82.310441,48.79928 103.312501,91.26367 13.65432,27.03499 10.32159,58.56101 20.91797,86.5254 7.39421,16.82708 12.4155,34.83457 10.68359,53.36523 -0.13346,15.15519 -7.9915,28.29897 -14.24414,41.56445 -6.4467,12.24695 -3.52392,26.25632 -3.74023,39.4043 0.62507,10.31418 -11.24118,14.06325 -12.91211,23.5293 5.85199,6.23825 12.87453,11.801 16.38476,19.83203 5.55038,11.99633 -3.59669,23.71282 -9.29492,33.72656 -7.5016,10.46593 -14.41225,21.90825 -24.35937,30.22266 -7.42297,3.93798 -16.73206,1.74249 -23.86914,6.78711 -1.61337,22.24238 -4.64459,44.4457 -4.06446,66.79296 -1.06584,17.20942 6.68978,33.52301 4.87891,50.61914 0.34351,9.4658 -1.34357,20.35711 -9.50977,26.27344 -13.09002,6.79001 -20.12897,20.15091 -28.8125,31.33201 -14.26231,14.6976 -28.095801,30.0802 -44.984371,41.8203 -11.22512,5.5372 -19.65039,16.5784 -32.28906,18.9512 -16.95806,1.0926 -34.10673,-3.1848 -51.2597703,-1.2383 -14.9657197,0.088 -31.1018597,4.8823 -45.1718697,-2.3047 -17.78741,-11.165 -37.57194,-19.1136 -54.386719,-31.6797 -18.94004,-12.707 -21.15972,-38.1426 -37.5,-53.05659 -5.66717,-6.73843 -16.72211,-3.65026 -21.54492,-11.29687 -9.80216,-15.04912 -5.90486,-33.98731 -3.62305,-50.51563 3.36722,-32.39461 0.94949,-65.08688 -1.22852,-97.48828 -10.64706,-5.91134 -24.23208,-8.03596 -31.42187,-18.86914 -4.68119,-8.79201 -11.17097,-16.38115 -16.5918,-24.69336 -5.4353,-8.34274 -5.06576,-22.40531 4.25586,-27.76172 6.48985,-1.06779 11.74407,-5.45007 14.68164,-11.24414 3.82559,-3.32491 0.13901,-8.14559 -2.33203,-11.24023 -7.2885,-5.13866 -9.15232,-14.40212 -9.04883,-22.48047 0.57561,-11.56921 -1.76783,-23.13096 -7.34961,-33.31836 -9.16836,-15.9579 -12.34434,-34.71981 -13.22851,-52.70508 -1.3685,-15.64115 5.81336,-29.87147 11.50976,-43.91406 12.82522,-29.18764 6.9298,-63.65971 24.11133,-91.13867 13.79458,-18.65933 31.18608,-34.51323 49.44727,-48.73829 41.677,-32.66713 95.600619,-46.08798 147.5078088,-46.92969 z"
       style="display:inline;fill:#ff8b00;fill-opacity:1;fill-rule:evenodd;stroke:none;stroke-width:1px;stroke-linecap:butt;stroke-linejoin:miter;stroke-opacity:1" />
  </g>
</svg>
