<?xml version="1.0" encoding="UTF-8" standalone="no"?>
<svg
   xmlns:dc="http://purl.org/dc/elements/1.1/"
   xmlns:cc="http://creativecommons.org/ns#"
   xmlns:rdf="http://www.w3.org/1999/02/22-rdf-syntax-ns#"
   xmlns:svg="http://www.w3.org/2000/svg"
   xmlns="http://www.w3.org/2000/svg"
   viewBox="0 0 570 745"
   height="745"
   width="570"
   id="svg885"
   version="1.1">
  <metadata
     id="metadata891">
    <rdf:RDF>
      <cc:Work
         rdf:about="">
        <dc:format>image/svg+xml</dc:format>
        <dc:type
           rdf:resource="http://purl.org/dc/dcmitype/StillImage" />
        <dc:title></dc:title>
      </cc:Work>
    </rdf:RDF>
  </metadata>
  <defs
     id="defs889" />
  <g
     style="display:inline"
     id="layer4">
    <path
       d="m 119.20998,432.52479 c 31.83931,18.03548 55.79039,38.2439 74.98692,68.76488 18.92292,30.08596 17.07556,53.33531 23.53964,84.85797 1.75128,8.54028 6.2151,19.00564 9.53687,27.67136 6.43451,16.78608 7.71867,37.28587 3.72834,54.57055 -2.94922,12.77493 -12.54165,25.22677 -15.5817,37.98039 -2.15343,9.03405 0.20984,20.2683 -0.39832,29.53553 -0.89324,13.61113 -9.35354,12.39379 -12.61626,22.83668 8.06512,8.29715 11.79887,11.24185 15.47369,18.59695 4.99801,10.00343 1.62552,17.41005 -3.58152,27.37179 -5.96311,11.4082 -15.6716,23.90945 -23.80818,33.8845 -10.94014,13.41208 -16.53927,5.54745 -29.60537,12.51394 -2.16127,29.05747 -4.99061,44.67541 -3.69372,74.52805 0.53213,12.24898 5.77773,26.21864 4.78932,38.43927 -0.70816,8.75563 0.59013,17.13725 -4.90747,24.77426 -2.86062,3.97383 -1.81971,3.99881 -7.5092,7.48472 -16.3413,10.01217 -18.20702,22.41587 -32.42904,36.13767 -13.48334,13.0092 -27.792741,29.4357 -44.103701,38.6547 -7.45691,4.2147 -18.07992,14.5951 -26.50088,16.1623 -10.74933,2.0007 -25.42546,-1.3426 -41.5905802,-1.3426 -16.1651198,0 -37.7274498,3.3433 -48.4767798,1.3426 -8.42096,-1.5672 -15.77303,-7.1272 -23.22994,-11.3419 -16.31096,-9.2191 -34.235609,-16.6935 -47.718949,-29.7026 -14.22202,-13.7219 -17.37847,-37.2199 -33.11111,-49.17978 -5.31187,-4.03806 -12.9923,-2.54932 -17.61296,-7.36299 -6.08303,-6.33714 -7.973,-15.5317 -8.68116,-24.28733 -0.98841,-12.22063 3.1616,-28.74666 3.69373,-40.99564 1.29689,-29.85264 -0.0717,-56.06127 -2.23294,-85.11874 -13.0661,-6.96649 -25.48222,-7.37963 -34.10944,-23.83501 -5.97722,-11.40082 -17.93997,-20.27026 -17.50495,-33.13558 0.30192,-8.92881 3.80358,-16.38514 10.87951,-18.07542 8.07244,-1.92833 9.06896,-6.09591 13.40783,-12.05505 -3.26272,-10.44289 -9.15503,-6.92847 -12.11413,-20.02313 -2.04708,-9.05874 -0.28122,-18.72085 -2.43464,-27.7549 -3.04005,-12.75362 -11.65863,-23.74468 -14.60785,-36.51961 -3.99033,-17.28468 -7.57544,-39.73218 -1.14094,-56.51826 3.32178,-8.66572 7.04373,-17.04388 10.0238,-25.23672 11.82029,-32.49652 4.8733,-67.53158 28.24183,-94.3113 23.32825,-26.73356 51.99586,-50.91676 84.17948,-65.85344 32.785159,-15.21587 74.011819,-22.9753 112.1844088,-22.9996 38.4111302,-0.0245 83.1873902,11.72712 114.6363612,29.54149 z"
       style="display:inline;fill:none;fill-rule:evenodd;stroke:#000000;stroke-width:1px;stroke-linecap:butt;stroke-linejoin:miter;stroke-opacity:1"
       id="path897" />
  </g>
</svg>
