<?xml version="1.0" encoding="UTF-8" standalone="no"?>
<!-- Created with Inkscape (http://www.inkscape.org/) -->

<svg
   xmlns:dc="http://purl.org/dc/elements/1.1/"
   xmlns:cc="http://creativecommons.org/ns#"
   xmlns:rdf="http://www.w3.org/1999/02/22-rdf-syntax-ns#"
   xmlns:svg="http://www.w3.org/2000/svg"
   xmlns="http://www.w3.org/2000/svg"
   xmlns:xlink="http://www.w3.org/1999/xlink"
   xmlns:sodipodi="http://sodipodi.sourceforge.net/DTD/sodipodi-0.dtd"
   xmlns:inkscape="http://www.inkscape.org/namespaces/inkscape"
   version="1.1"
   id="svg885"
   width="570"
   height="745"
   viewBox="0 0 570 745"
   sodipodi:docname="skull.svg"
   inkscape:version="0.92.5 (2060ec1f9f, 2020-04-08)">
  <metadata
     id="metadata891">
    <rdf:RDF>
      <cc:Work
         rdf:about="">
        <dc:format>image/svg+xml</dc:format>
        <dc:type
           rdf:resource="http://purl.org/dc/dcmitype/StillImage" />
        <dc:title />
      </cc:Work>
    </rdf:RDF>
  </metadata>
  <defs
     id="defs889" />
  <sodipodi:namedview
     pagecolor="#ffffff"
     bordercolor="#666666"
     borderopacity="1"
     objecttolerance="10"
     gridtolerance="10"
     guidetolerance="10"
     inkscape:pageopacity="0"
     inkscape:pageshadow="2"
     inkscape:window-width="1280"
     inkscape:window-height="968"
     id="namedview887"
     showgrid="false"
     inkscape:zoom="0.5"
     inkscape:cx="144.8328"
     inkscape:cy="-177.58611"
     inkscape:window-x="0"
     inkscape:window-y="0"
     inkscape:window-maximized="1"
     inkscape:current-layer="g1034"
     showguides="true"
     inkscape:guide-bbox="true"
     inkscape:snap-bbox="true"
     inkscape:snap-text-baseline="true"
     inkscape:snap-object-midpoints="true"
     inkscape:snap-to-guides="true">
    <sodipodi:guide
       position="0,0"
       orientation="1,0"
       id="guide6446"
       inkscape:locked="false"
       inkscape:label=""
       inkscape:color="rgb(0,0,255)" />
    <sodipodi:guide
       position="0,0"
       orientation="0,1"
       id="guide6448"
       inkscape:locked="false"
       inkscape:label=""
       inkscape:color="rgb(0,0,255)" />
  </sodipodi:namedview>
  <g
     inkscape:groupmode="layer"
     id="layer1"
     inkscape:label="Photo Reference"
     style="display:none">
    <image
       sodipodi:absref="/home/jasonrohrer/checkout/jason-rohrer/design/bossGee/skullPhoto.jpg"
       xlink:href="skullPhoto.jpg"
       width="570"
       height="745"
       preserveAspectRatio="none"
       id="image893"
       x="-287.36066"
       y="376.66229"
       style="opacity:1;fill:#ff0000;image-rendering:auto"
       inkscape:label="image893" />
  </g>
  <g
     inkscape:groupmode="layer"
     id="layer4"
     inkscape:label="Skull Outline"
     style="display:inline">
    <path
       id="path897"
       style="display:inline;fill:none;fill-rule:evenodd;stroke:#000000;stroke-width:1px;stroke-linecap:butt;stroke-linejoin:miter;stroke-opacity:1"
       d="m 119.20998,432.52479 c 31.83931,18.03548 55.79039,38.2439 74.98692,68.76488 18.92292,30.08596 17.07556,53.33531 23.53964,84.85797 1.75128,8.54028 6.2151,19.00564 9.53687,27.67136 6.43451,16.78608 7.71867,37.28587 3.72834,54.57055 -2.94922,12.77493 -12.54165,25.22677 -15.5817,37.98039 -2.15343,9.03405 0.20984,20.2683 -0.39832,29.53553 -0.89324,13.61113 -9.35354,12.39379 -12.61626,22.83668 8.06512,8.29715 11.79887,11.24185 15.47369,18.59695 4.99801,10.00343 1.62552,17.41005 -3.58152,27.37179 -5.96311,11.4082 -15.6716,23.90945 -23.80818,33.8845 -10.94014,13.41208 -16.53927,5.54745 -29.60537,12.51394 -2.16127,29.05747 -4.99061,44.67541 -3.69372,74.52805 0.53213,12.24898 5.77773,26.21864 4.78932,38.43927 -0.70816,8.75563 0.59013,17.13725 -4.90747,24.77426 -2.86062,3.97383 -1.81971,3.99881 -7.5092,7.48472 -16.3413,10.01217 -18.20702,22.41587 -32.42904,36.13767 -13.48334,13.0092 -27.792741,29.4357 -44.103701,38.6547 -7.45691,4.2147 -18.07992,14.5951 -26.50088,16.1623 -10.74933,2.0007 -25.42546,-1.3426 -41.5905802,-1.3426 -16.1651198,0 -37.7274498,3.3433 -48.4767798,1.3426 -8.42096,-1.5672 -15.77303,-7.1272 -23.22994,-11.3419 -16.31096,-9.2191 -34.235609,-16.6935 -47.718949,-29.7026 -14.22202,-13.7219 -17.37847,-37.2199 -33.11111,-49.17978 -5.31187,-4.03806 -12.9923,-2.54932 -17.61296,-7.36299 -6.08303,-6.33714 -7.973,-15.5317 -8.68116,-24.28733 -0.98841,-12.22063 3.1616,-28.74666 3.69373,-40.99564 1.29689,-29.85264 -0.0717,-56.06127 -2.23294,-85.11874 -13.0661,-6.96649 -25.48222,-7.37963 -34.10944,-23.83501 -5.97722,-11.40082 -17.93997,-20.27026 -17.50495,-33.13558 0.30192,-8.92881 3.80358,-16.38514 10.87951,-18.07542 8.07244,-1.92833 9.06896,-6.09591 13.40783,-12.05505 -3.26272,-10.44289 -9.15503,-6.92847 -12.11413,-20.02313 -2.04708,-9.05874 -0.28122,-18.72085 -2.43464,-27.7549 -3.04005,-12.75362 -11.65863,-23.74468 -14.60785,-36.51961 -3.99033,-17.28468 -7.57544,-39.73218 -1.14094,-56.51826 3.32178,-8.66572 7.04373,-17.04388 10.0238,-25.23672 11.82029,-32.49652 4.8733,-67.53158 28.24183,-94.3113 23.32825,-26.73356 51.99586,-50.91676 84.17948,-65.85344 32.785159,-15.21587 74.011819,-22.9753 112.1844088,-22.9996 38.4111302,-0.0245 83.1873902,11.72712 114.6363612,29.54149 z"
       inkscape:connector-curvature="0"
       sodipodi:nodetypes="ssssssscssscsssssssssssscsscssscsssssssss" />
  </g>
  <g
     inkscape:groupmode="layer"
     id="layer5"
     inkscape:label="Skull Ridge Outline"
     style="display:inline;opacity:0.36199999">
    <path
       style="display:inline;fill:#ff8b00;fill-opacity:1;fill-rule:evenodd;stroke:none;stroke-width:1px;stroke-linecap:butt;stroke-linejoin:miter;stroke-opacity:1"
       d="m 5.069896,393.00717 c -1.38065,-0.0112 -2.76192,-0.0106 -4.14258003,0.002 -61.89249997,0.52618 -125.59206597,20.02408 -171.22851597,63.1543 -20.43334,17.74751 -41.35483,38.40731 -47.0957,65.92188 -6.31744,26.13814 -5.85217,54.38999 -19.4043,78.36133 -12.13198,28.53786 -6.86915,61.38296 5.37109,88.94531 3.67704,8.00949 8.65112,16.01209 8.17969,25.01953 0.2141,12.56548 0.52987,26.94775 10.38281,36.21289 3.63527,2.58946 -3.23257,3.14658 -4.44531,4.55078 -7.59719,2.76006 -13.33521,9.07527 -15.33203,16.89844 -4.48205,14.417 2.2386,29.73695 12.05078,40.2793 7.17716,11.90338 15.47307,24.90205 29.35352,29.69726 3.75546,2.08538 11.04434,2.12046 9.56836,8.28907 2.87325,36.11651 2.8543,72.60949 -2.30664,108.48632 -0.46991,15.03991 2.93985,32.8036 16.50586,41.48442 7.45779,3.4515 17.54698,3.9063 20.91601,12.8203 10.88046,16.8683 17.26746,38.5235 35.77149,49.0117 18.829026,12.8164 39.454436,22.8299 59.562496,33.2871 23.54357,6.9602 47.8658599,-3.1189 71.59765,1.5117 15.90099,1.9991 34.02489,1.8868 46.70313,-9.3808 20.59777,-13.6136 40.231114,-28.8843 56.492194,-47.5821 9.60936,-9.9114 16.63346,-22.066 26.49023,-31.6894 6.51267,-5.3276 14.51511,-9.53778 17.58203,-17.90628 9.35233,-21.37462 1.58153,-44.90142 -0.48242,-66.81054 -1.54877,-17.7902 0.79638,-35.58994 2.03906,-53.46875 0.75313,-3.88007 0.45681,-8.81308 2.29688,-11.79493 10.97983,-1.2656 22.81456,-5.33177 28.32812,-15.68554 13.35551,-16.57476 28.45007,-34.47834 30.48633,-56.52539 -0.4163,-11.30681 -7.5851,-20.86089 -14.96094,-28.83985 7.44084,-7.30869 11.16643,-17.86057 9.60938,-28.22265 -0.61227,-11.42763 -1.39384,-23.5234 5.55078,-33.46485 9.00705,-16.82001 14.88984,-35.85629 12.67383,-55.10742 -1.61893,-25.69613 -16.14281,-48.29868 -18.63477,-73.82031 -3.73389,-24.71236 -7.56223,-50.74643 -22.56445,-71.57227 -36.31651,-57.43506 -101.7285,-91.62764 -168.003914,-100.10552 -9.58693,-1.22048 -19.24564,-1.87871 -28.91015,-1.95703 z m -4.06055,12.00195 c 32.33439,-0.38187 64.89442,6.48399 95.07617,18.60352 42.812894,18.13021 82.310444,48.79928 103.312504,91.26367 13.65432,27.03499 10.32159,58.56101 20.91797,86.5254 7.39421,16.82708 12.4155,34.83457 10.68359,53.36523 -0.13346,15.15519 -7.9915,28.29897 -14.24414,41.56445 -6.4467,12.24695 -3.52392,26.25632 -3.74023,39.4043 0.62507,10.31418 -11.24118,14.06325 -12.91211,23.5293 5.85199,6.23825 12.87453,11.801 16.38476,19.83203 5.55038,11.99633 -3.59669,23.71282 -9.29492,33.72656 -7.5016,10.46593 -14.41225,21.90825 -24.35937,30.22266 -7.42297,3.93798 -16.73206,1.74249 -23.86914,6.78711 -1.61337,22.24238 -4.64459,44.4457 -4.06446,66.79296 -1.06584,17.20942 6.68978,33.52301 4.87891,50.61914 0.34351,9.4658 -1.34357,20.35711 -9.50977,26.27344 -13.09002,6.79001 -20.12897,20.15091 -28.8125,31.33201 -14.26231,14.6976 -28.095804,30.0802 -44.984374,41.8203 -11.22512,5.5372 -19.65039,16.5784 -32.28906,18.9512 -16.95806,1.0926 -34.10673,-3.1848 -51.2597701,-1.2383 -14.9657199,0.088 -31.1018599,4.8823 -45.1718699,-2.3047 -17.78741,-11.165 -37.57194,-19.1136 -54.386716,-31.6797 -18.94004,-12.707 -21.15972,-38.1426 -37.5,-53.05659 -5.66717,-6.73843 -16.72211,-3.65026 -21.54492,-11.29687 -9.80216,-15.04912 -5.90486,-33.98731 -3.62305,-50.51563 3.36722,-32.39461 0.94949,-65.08688 -1.22852,-97.48828 -10.64706,-5.91134 -24.23208,-8.03596 -31.42187,-18.86914 -4.68119,-8.79201 -11.17097,-16.38115 -16.5918,-24.69336 -5.4353,-8.34274 -5.06576,-22.40531 4.25586,-27.76172 6.48985,-1.06779 11.74407,-5.45007 14.68164,-11.24414 3.82559,-3.32491 0.13901,-8.14559 -2.33203,-11.24023 -7.2885,-5.13866 -9.15232,-14.40212 -9.04883,-22.48047 0.57561,-11.56921 -1.76783,-23.13096 -7.34961,-33.31836 -9.16836,-15.9579 -12.34434,-34.71981 -13.22851,-52.70508 -1.3685,-15.64115 5.81336,-29.87147 11.50976,-43.91406 12.82522,-29.18764 6.9298,-63.65971 24.11133,-91.13867 13.79458,-18.65933 31.18608,-34.51323 49.44727,-48.73829 41.677,-32.66713 95.600616,-46.08798 147.507806,-46.92969 z"
       id="path7767"
       inkscape:connector-curvature="0" />
  </g>
  <g
     inkscape:groupmode="layer"
     id="layer2"
     inkscape:label="Skull Holes"
     style="display:inline">
    <path
       style="fill:none;fill-rule:evenodd;stroke:#ff0000;stroke-width:1px;stroke-linecap:butt;stroke-linejoin:miter;stroke-opacity:1"
       d="m -135.62789,777.97992 c 16.89873,5.18427 36.449559,5.45464 53.023759,-0.68862 18.94585,-7.02231 41.5893,-19.30294 46.48188,-38.90704 4.88713,-19.58227 -8.8242,-41.48932 -22.72447,-56.12256 -8.98218,-9.45582 -16.56942,-15.70536 -29.61068,-15.83827 -13.924819,-0.14191 -29.239249,11.99791 -44.071699,16.18258 -12.86494,3.62958 -30.39998,9.69602 -37.52981,21.00292 -6.18772,9.81285 -0.43836,18.28332 2.06586,29.61067 2.44318,11.05126 5.97566,22.52462 13.08379,31.33223 4.91885,6.09489 11.79365,11.13097 19.28137,13.42809 z"
       id="path900"
       inkscape:connector-curvature="0"
       sodipodi:nodetypes="ssssssssss" />
    <path
       style="fill:none;fill-rule:evenodd;stroke:#ff0000;stroke-width:1px;stroke-linecap:butt;stroke-linejoin:miter;stroke-opacity:1"
       d="m 77.606289,670.33727 c -4.44066,1.63499 -5.6614,1.12136 -9.4951,3.89542 -7.64482,5.53178 -16.96412,10.18787 -21.42484,18.50327 -4.8726,9.0832 -3.76375,16.041 -7.06045,25.80719 -1.1397,3.37625 -1.78343,10.5809 -2.19118,14.12091 -0.89303,7.7531 2.21691,16.09414 6.81699,22.39869 6.05065,8.29259 16.26049,12.70262 25.32026,17.52942 11.38524,6.06575 23.44189,11.31213 36.032681,14.12091 9.68409,2.16035 20.3199,5.17469 29.70262,1.94771 9.45774,-3.25278 17.33625,-11.33844 22.39869,-19.96405 10.60418,-18.06787 13.63809,-40.89666 13.63399,-61.35294 -0.002,-9.65161 -13.63793,-12.07286 -21.91177,-17.04248 -9.9024,-5.94781 -20.3172,-9.45146 -31.65032,-11.68628 -7.01392,-1.3831 -12.23888,-1.91157 -18.503271,-5.3562 -3.47217,-1.90926 -7.54576,-2.36165 -11.19935,-3.89544 -2.73098,-1.14648 -7.68949,-0.0495 -10.46895,0.97387 z"
       id="path902"
       inkscape:connector-curvature="0"
       sodipodi:nodetypes="ssssssssssssssss" />
    <path
       style="fill:none;fill-rule:evenodd;stroke:#ff0000;stroke-width:1px;stroke-linecap:butt;stroke-linejoin:miter;stroke-opacity:1"
       d="m -3.7571013,747.68063 c -4.32002,-0.46169 -8.6184897,-4.13043 -12.7394697,-2.75448 -7.48621,2.49956 -11.03155,10.84716 -13.77241,18.24844 -8.36611,22.59143 -15.1287,49.57814 -15.14965,70.23927 -0.008,7.54546 9.95441,18.68526 17.21551,27.88913 3.45479,4.37915 7.85782,11.99749 13.4281,11.70654 3.8935,-0.20337 4.8314397,-7.7908 8.2634397,-9.64068 1.24965,-0.67358 3.21743,0.0319 4.47603,0.68862 2.28658005,1.19309 0.5949101,5.82047 2.75448005,7.23051 3.84877995,2.51297 10.59526025,2.63311 13.77241025,-0.68862 10.15711,-10.61933 15.82345,-18.90577 22.72447,-29.26636 5.53862,-8.31519 2.12182,-19.03446 0.68862,-28.92206 -2.36397,-16.30896 -7.00876,-31.11013 -13.7724,-46.13756 -2.95263,-6.56014 -4.15209,-16.58873 -10.67362,-19.62568 -2.92985,-1.36437 -6.4133302,0.86053 -9.6406802,1.03293 -2.52135,0.13469 -5.0641801,0.26832 -7.5748301,0 z"
       id="path904"
       inkscape:connector-curvature="0"
       sodipodi:nodetypes="ssssssssssssssss" />
    <path
       style="fill:none;fill-rule:evenodd;stroke:#ff0000;stroke-width:1px;stroke-linecap:butt;stroke-linejoin:miter;stroke-opacity:1"
       d="m -78.366111,925.27881 c -6.52899,4.28172 -4.12459,16.40204 -0.68862,23.4131 1.5002,3.06113 5.01042,5.0061 8.26344,6.02542 2.41005,0.75518 9.04565,1.5461 8.06176,-1.38947 -3.17957,-9.48663 -3.43506,-8.48859 -4.27434,-13.0629 -0.70694,-3.85302 1.30381,-7.71035 -1.03293,-10.85442 -2.21207,-2.97633 -7.22833,-6.16536 -10.32931,-4.13173 z"
       id="path955"
       inkscape:connector-curvature="0"
       sodipodi:nodetypes="sssssss" />
    <path
       style="opacity:1;fill:none;fill-rule:evenodd;stroke:#ff0000;stroke-width:1px;stroke-linecap:butt;stroke-linejoin:miter;stroke-opacity:1"
       d="m -57.297331,934.68148 c -2.07937,-0.002 -4.07852,2.01703 -4.82034,3.95957 -1.74015,4.55677 0.69798,11.06228 3.09013,15.31315 1.61791,2.87504 3.49529,4.83406 6.72271,5.51761 2.22089,0.47037 4.55483,0.84912 5.8115,-1.04158 2.75029,-4.1377 0.6539,-11.41549 -1.72155,-15.77919 -2.02698,-3.72355 -4.84294,-7.9656 -9.08245,-7.96956 z"
       id="path957"
       inkscape:connector-curvature="0"
       sodipodi:nodetypes="sssssss" />
    <path
       style="fill:none;fill-rule:evenodd;stroke:#ff0000;stroke-width:1px;stroke-linecap:butt;stroke-linejoin:miter;stroke-opacity:1"
       d="m -30.613291,938.98536 c -0.67271,-0.14716 -5.82349,0.16894 -7.91913,1.89371 -2.24052,1.84401 -2.88133,5.1117 -3.61526,7.91913 -0.87387,3.3427 -0.75791,7.00749 -0.13039,11.05969 0.39264,2.53545 7.65264,4.44283 12.3534,5.63935 4.89889,1.24695 14.69617,3.2887 15.14965,0.68862 1.29924,-7.4493 -1.1137,-13.88083 -4.22392,-19.69698 -1.47351,-2.75547 -3.35408,-4.81716 -6.10539,-6.29843 -1.65511,-0.89109 -5.50896,-1.20509 -5.50896,-1.20509 z"
       id="path959"
       inkscape:connector-curvature="0"
       sodipodi:nodetypes="sssssssss" />
    <path
       style="fill:none;fill-rule:evenodd;stroke:#ff0000;stroke-width:1px;stroke-linecap:butt;stroke-linejoin:miter;stroke-opacity:1"
       d="m 4.3236088,943.12158 c -3.23402,-0.28084 -7.80282,-0.75629 -10.4689501,1.09559 -3.62756,2.51968 -3.01571,6.99278 -3.8954297,11.32107 -0.7281,3.58232 -1.27893,7.83974 -0.3652,10.95589 0.7187898,2.45132 10.36242975,2.36689 15.7034298,2.6781 3.16383,0.18435 6.7152302,1.03494 9.4951002,-0.48693 1.22472,-0.67048 2.04702,-2.06714 2.43464,-3.40849 1.1735,-4.0609 0.0274,-8.50156 -0.73039,-12.66013 -0.48779,-2.67672 -0.39016,-5.99561 -2.43464,-7.79085 -2.47633,-2.17445 -6.4554002,-1.41914 -9.7385602,-1.70425 z"
       id="path961"
       inkscape:connector-curvature="0"
       sodipodi:nodetypes="ssssssssss" />
    <path
       style="fill:none;fill-rule:evenodd;stroke:#ff0000;stroke-width:1px;stroke-linecap:butt;stroke-linejoin:miter;stroke-opacity:1"
       d="m 30.861189,943.36504 c -2.87357,1.02408 -6.05223,2.06342 -8.03431,4.38236 -1.56775,1.83419 -1.96894,4.44946 -2.43464,6.81699 -0.68989,3.50729 -0.68787,7.60968 -0.48693,10.71242 0.10429,1.6103 6.63349,-0.18732 9.73856,-1.21732 3.27706,-1.08705 9.22097,-3.60901 9.00817,-5.11275 -0.67756,-4.788 -0.43124,-8.98451 -1.94771,-13.14706 -0.42404,-1.16394 -0.81505,-2.66342 -1.94772,-3.16503 -1.20795,-0.53495 -2.65098,0.2869 -3.89542,0.73039 z"
       id="path963"
       inkscape:connector-curvature="0"
       sodipodi:nodetypes="sssssssss" />
    <path
       style="fill:none;fill-rule:evenodd;stroke:#ff0000;stroke-width:1px;stroke-linecap:butt;stroke-linejoin:miter;stroke-opacity:1"
       d="m 52.720669,927.78334 c -3.20127,2.68526 -6.46208,5.44745 -8.39951,8.03432 -2.13225,2.84699 -2.17929,4.81657 -2.999,8.27777 -1.05797,4.46723 0.77076,6.04019 1.41648,13.14706 0.16938,1.86424 5.28021,3.58439 8.27778,3.4085 2.24662,-0.13183 4.67054,-1.17244 6.0866,-2.92157 1.73394,-2.14177 1.65829,-5.29388 1.94771,-8.03431 0.62245,-5.89374 -0.10299,-11.77166 -0.48693,-17.77288 -0.15239,-2.38196 -4.01446,-5.6728 -5.84313,-4.13889 z"
       id="path965"
       inkscape:connector-curvature="0"
       sodipodi:nodetypes="sssssssss" />
    <path
       style="fill:none;fill-rule:evenodd;stroke:#ff0000;stroke-width:1px;stroke-linecap:butt;stroke-linejoin:miter;stroke-opacity:1"
       d="m 73.954329,920.96635 c -3.72783,0.14038 -6.15,4.57126 -8.03432,7.79085 -2.24712,3.83948 -3.04191,8.56848 -2.54771,12.98967 0.23388,2.0923 0.1224,4.69195 2.06078,5.5136 2.10411,0.8919 4.83869,-0.46008 6.57353,-1.94772 2.45267,-2.10318 2.74334,-5.53546 2.84773,-8.7647 0.13196,-4.0823 2.7393,-9.29436 0.98863,-13.31922 -0.50563,-1.16247 -0.62186,-2.31018 -1.88864,-2.26248 z"
       id="path967"
       inkscape:connector-curvature="0"
       sodipodi:nodetypes="ssssssss" />
    <path
       style="fill:none;fill-rule:evenodd;stroke:#ff0000;stroke-width:1px;stroke-linecap:butt;stroke-linejoin:miter;stroke-opacity:1"
       d="m 86.058079,916.2188 c -0.93596,0.0396 -2.0691,0.14028 -2.6781,0.85212 -1.38783,1.62219 -0.47221,4.255 -0.97386,6.33007 -0.81411,3.36754 -4.11857,6.49708 -3.28676,9.86029 0.32385,1.3094 1.63165,2.40549 2.92157,2.79984 1.14193,0.34911 2.64554,0.19334 3.53023,-0.60866 2.15155,-1.95046 1.20212,-5.54029 1.71037,-8.39951 0.59861,-3.36752 0.97924,-6.34699 0.33565,-10.22549 -0.14986,-0.90312 -0.64445,-0.64736 -1.5591,-0.60866 z"
       id="path969"
       inkscape:connector-curvature="0"
       sodipodi:nodetypes="sssssssss" />
    <path
       style="fill:none;fill-rule:evenodd;stroke:#ff0000;stroke-width:1px;stroke-linecap:butt;stroke-linejoin:miter;stroke-opacity:1"
       d="m 95.066249,903.62811 c -1.68294,0.73693 -2.76366,2.00471 -3.50068,3.68762 -1.82321,4.16311 -2.63649,10.42024 0.0504,13.89222 0.92722,1.19813 2.42275,-0.76752 3.572,-1.75467 1.58456,-1.36105 1.89359,-3.37595 2.44076,-5.39186 0.92498,-3.40786 2.799961,-8.32699 0.24346,-10.76285 -0.82466,-0.78574 -1.76255,-0.12735 -2.80596,0.32954 z"
       id="path971"
       inkscape:connector-curvature="0"
       sodipodi:nodetypes="sssssss" />
    <path
       style="fill:none;fill-rule:evenodd;stroke:#ff0000;stroke-width:1px;stroke-linecap:butt;stroke-linejoin:miter;stroke-opacity:1"
       d="m -91.701341,917.79007 c 2.0013,-2.1609 2.85184,2.1271 4.91761,4.22645 0.68097,0.69204 1.55993,3.04204 1.7572,3.99268 0.6586,3.17375 -0.39548,5.77709 -1.07724,8.94595 -0.18004,0.83683 -0.0998,1.7116 -0.846,2.13106 -1.31304,0.73813 -2.60842,0.0228 -3.57349,-1.13378 -1.70556,-2.04393 0.13591,-4.42385 -0.18081,-7.06701 -0.40865,-3.41033 -2.61538,-9.3482 -0.99727,-11.09535 z"
       id="path973"
       inkscape:connector-curvature="0"
       sodipodi:nodetypes="ssssssss" />
    <path
       style="fill:none;fill-rule:evenodd;stroke:#ff0000;stroke-width:1px;stroke-linecap:butt;stroke-linejoin:miter;stroke-opacity:1"
       d="m -104.07018,912.32338 c 1.02,-3.38842 5.211909,4.27199 6.816989,7.42564 1.55142,3.04822 3.32017,7.89728 0.60865,9.98203 -1.43466,1.10304 -2.386,-0.77627 -3.651949,-2.06944 -1.25669,-1.28371 -1.11945,-3.62048 -1.58252,-5.3562 -0.89643,-3.36007 -3.48907,-5.67044 -2.19117,-9.98203 z"
       id="path975"
       inkscape:connector-curvature="0"
       sodipodi:nodetypes="ssssss" />
    <path
       style="fill:none;fill-rule:evenodd;stroke:#ff0000;stroke-width:1px;stroke-linecap:butt;stroke-linejoin:miter;stroke-opacity:1"
       d="m -103.04494,939.96743 c -1.51096,-0.17423 -3.18349,1.23831 -3.70133,2.66841 -0.74635,2.06115 -0.42175,11.18566 1.03293,12.82556 1.10319,1.24365 2.39777,0.72729 4.04564,0.94684 1.34428,0.1791 4.263839,-5.09526 5.250729,-6.02542 0.63504,-0.59853 0.37316,-1.71156 0.43039,-2.58233 0.11109,-1.69018 1.03453,-3.88988 -0.17215,-5.07857 -1.08353,-1.06739 -3.18379,0.55701 -4.562109,-0.0861 -1.06891,-0.49874 -1.15233,-2.53327 -2.3241,-2.66839 z"
       id="path1013"
       inkscape:connector-curvature="0"
       sodipodi:nodetypes="sssssssss" />
    <path
       style="display:inline;fill:none;fill-rule:evenodd;stroke:#ff0000;stroke-width:1px;stroke-linecap:butt;stroke-linejoin:miter;stroke-opacity:1"
       d="m -94.457401,950.53476 c -1.72574,1.27657 -5.28923,12.43622 -5.33427,14.58232 -0.0414,1.97415 1.88243,3.35048 3.57095,4.37413 1.41225,0.85616 4.13684,-6.52612 5.46466,-7.50814 1.0278,-0.76013 1.34493,-3.37097 1.29116,-4.64819 -0.0957,-2.27357 -1.00258,-4.44216 -1.63547,-6.62797 -0.12617,-0.43577 -0.0203,-1.09714 -0.43039,-1.29116 -0.94409,-0.44668 -2.08698,0.49789 -2.92664,1.11901 z"
       id="path1015"
       inkscape:connector-curvature="0"
       sodipodi:nodetypes="ssssssss" />
    <path
       style="fill:none;fill-rule:evenodd;stroke:#ff0000;stroke-width:1px;stroke-linecap:butt;stroke-linejoin:miter;stroke-opacity:1"
       d="m -80.019531,964.26864 c 2.19612,4.07309 2.69379,10.40534 -0.3652,13.87745 -1.05844,1.20138 -3.41406,1.61665 -4.74754,0.73039 -1.67205,-1.11128 -1.14993,-3.85969 -1.46079,-5.84314 -0.66743,-4.25858 -1.33714,-8.6204 -0.85212,-12.90359 0.0953,-0.8419 -0.1051,-2.29379 0.73039,-2.43464 1.77685,-0.29955 1.84708,3.15356 3.16503,4.38235 1.013,0.94447 2.87293,0.9721 3.53023,2.19118 z"
       id="path1018"
       inkscape:connector-curvature="0"
       sodipodi:nodetypes="ssssssss" />
    <path
       style="fill:none;fill-rule:evenodd;stroke:#ff0000;stroke-width:1px;stroke-linecap:butt;stroke-linejoin:miter;stroke-opacity:1"
       d="m -74.489301,969.60769 c -4.17625,4.23491 -0.33729,12.14351 1.58252,17.77288 0.55953,1.64068 1.28597,3.53789 2.79983,4.38235 2.30367,1.28503 6.04757,1.98719 7.91258,0.12173 3.67265,-3.67353 0.44174,-10.43256 -0.24346,-15.5817 -0.32584,-2.44864 0.23752,-5.82425 -1.82598,-7.18219 -1.51019,-0.99382 -4.50409,0.73039 -5.35621,0.85213 -0.85212,0.12173 -3.72641,-1.52412 -4.86928,-0.3652 z"
       id="path1020"
       inkscape:connector-curvature="0"
       sodipodi:nodetypes="ssssssss" />
    <path
       style="fill:none;fill-rule:evenodd;stroke:#ff0000;stroke-width:1px;stroke-linecap:butt;stroke-linejoin:miter;stroke-opacity:1"
       d="m -56.977051,970.75557 c -5.64662,3.45273 0.45126,13.22962 0.7304,19.84232 0.14392,3.40932 -1.14183,7.22693 0.48692,10.22551 0.76325,1.4051 2.30095,2.921 3.89543,2.7998 2.7181,-0.2065 4.60223,-3.2943 5.84314,-5.72139 2.1108,-4.12853 1.81485,-9.12588 2.06944,-13.75572 0.16946,-3.08163 1.83586,-7.0882 -0.3652,-9.25164 -1.30256,-1.2803 -3.71579,0.35856 -5.47794,-0.12173 -2.64656,-0.72134 -4.84192,-5.44815 -7.18219,-4.01715 z"
       id="path1022"
       inkscape:connector-curvature="0"
       sodipodi:nodetypes="sssssssss" />
    <path
       style="fill:none;fill-rule:evenodd;stroke:#ff0000;stroke-width:1px;stroke-linecap:butt;stroke-linejoin:miter;stroke-opacity:1"
       d="m -39.286911,974.2263 c -4.71362,2.8537 -0.25573,11.04949 0.34431,16.52688 0.25491,2.32694 -0.51587,5.50934 1.37724,6.88621 2.00901,1.46117 5.46528,0.69411 7.40267,-0.86078 2.32118,-1.86291 2.68403,-5.46922 2.92664,-8.4356 0.27531,-3.3662 0.48931,-7.43172 -1.72155,-9.98499 -1.57992,-1.82462 -4.67125,-1.27918 -6.8862,-2.23802 -1.20204,-0.52036 -2.32262,-2.57206 -3.44311,-1.8937 z"
       id="path1024"
       inkscape:connector-curvature="0"
       sodipodi:nodetypes="ssssssss" />
    <path
       style="fill:none;fill-rule:evenodd;stroke:#ff0000;stroke-width:1px;stroke-linecap:butt;stroke-linejoin:miter;stroke-opacity:1"
       d="m -22.349851,980.07957 c -2.54147,3.11341 1.69208,7.87712 2.06586,11.8787 0.37896,4.05708 -2.28314,8.97103 0.17216,12.22303 1.44403,1.9125 4.5336,2.5223 6.8862,2.0658 1.80358,-0.3499 3.3650097,-1.8639 4.3038797,-3.4431 1.6682001,-2.80592 1.7761801,-6.37671 1.72155,-9.64065 -0.0736,-4.40011 0.5926,-10.05446 -2.75448,-12.91163 -1.6608297,-1.41773 -4.3583897,-0.319 -6.5418897,-0.34431 -1.95181,-0.0226 -4.61895,-1.33995 -5.85328,0.17216 z"
       id="path1026"
       inkscape:connector-curvature="0"
       sodipodi:nodetypes="sssssssss" />
    <path
       style="fill:none;fill-rule:evenodd;stroke:#ff0000;stroke-width:1px;stroke-linecap:butt;stroke-linejoin:miter;stroke-opacity:1"
       d="m -1.1747712,980.31758 c -3.55906,3.82309 -1.4252001,10.55588 -0.34431,15.66612 0.64278995,3.03898 1.15381995,7.1028 3.95956,8.4356 1.7097299,0.8122 4.02645,-0.2004 5.5089699,-1.3772 1.96992,-1.5638 2.8527603,-4.26921 3.4431003,-6.71409 0.82162,-3.4027 -0.10923,-7.00268 0,-10.50146 0.0574,-1.83901 1.55663,-4.12494 0.34431,-5.50897 -1.62984,-1.86067 -4.9292902,-0.54592 -7.4026702,-0.51646 -1.8442401,0.022 -4.25224005,-0.83349 -5.50896,0.51646 z"
       id="path1028"
       inkscape:connector-curvature="0"
       sodipodi:nodetypes="sssssssss" />
    <path
       style="fill:none;fill-rule:evenodd;stroke:#ff0000;stroke-width:1px;stroke-linecap:butt;stroke-linejoin:miter;stroke-opacity:1"
       d="m 18.623059,978.01371 c -3.48574,3.24633 -0.15995,9.53716 0.17216,14.28887 0.15732,2.25084 0.2782,4.53422 0.86077,6.71405 0.77045,2.88287 0.62443,7.28397 3.4431,8.26347 1.67423,0.5818 3.55717,-1.1855 4.64819,-2.5824 2.45057,-3.1375 2.67078,-7.57629 3.09879,-11.53435 0.52498,-4.85482 -0.33079,-9.76318 -0.68862,-14.63318 -0.0423,-0.57516 0.29384,-1.38177 -0.17215,-1.72155 -1.99167,-1.45221 -4.77067,1.39181 -7.23052,1.5494 -1.37919,0.0884 -3.12038,-1.28619 -4.13172,-0.34431 z"
       id="path1030"
       inkscape:connector-curvature="0"
       sodipodi:nodetypes="ssssssssss" />
    <path
       style="fill:none;fill-rule:evenodd;stroke:#ff0000;stroke-width:1px;stroke-linecap:butt;stroke-linejoin:miter;stroke-opacity:1"
       d="m 35.043659,975.19337 c -2.39966,3.57465 -0.19102,8.63963 0.34431,12.91163 0.38773,3.09419 1.07118,6.16872 2.06586,9.12422 0.88468,2.62866 1.17052,5.98488 3.4431,7.57478 1.8392,1.2868 5.14513,2.1218 6.71405,0.5165 1.2093,-1.2373 -0.52305,-3.4345 -0.51647,-5.1647 0.0143,-3.75152 0.90681,-7.45031 1.20509,-11.19003 0.35178,-4.4106 3.09524,-9.54309 0.68862,-13.25594 -1.4723,-2.27142 -4.868,-2.91721 -7.57483,-2.92664 -2.27014,-0.008 -5.10444,0.52534 -6.36973,2.41018 z"
       id="path1032"
       inkscape:connector-curvature="0"
       sodipodi:nodetypes="ssssssssss" />
    <path
       style="fill:none;fill-rule:evenodd;stroke:#ff0000;stroke-width:1px;stroke-linecap:butt;stroke-linejoin:miter;stroke-opacity:1"
       d="m 52.988219,971.70983 c -2.38997,4.81263 2.58974,10.63838 5.50896,15.14965 1.52123,2.35087 3.39081,4.90486 6.02543,5.85327 1.35414,0.48746 3.2653,0.65202 4.30388,-0.34431 1.71043,-1.64084 0.98053,-4.69117 0.86077,-7.05836 -0.24971,-4.9358 -2.20086,-9.63616 -3.27095,-14.46103 -0.58491,-2.63728 0.12627,-5.94862 -1.72155,-7.91913 -0.28577,-0.30474 -0.8244,-0.51638 -1.20508,-0.34431 -2.31562,1.04668 -1.35005,5.22253 -3.27095,6.8862 -1.90714,1.65175 -6.10834,-0.0217 -7.23051,2.23802 z"
       id="path1034"
       inkscape:connector-curvature="0"
       sodipodi:nodetypes="ssssssssss" />
    <path
       style="fill:none;fill-rule:evenodd;stroke:#ff0000;stroke-width:1px;stroke-linecap:butt;stroke-linejoin:miter;stroke-opacity:1"
       d="m 68.350449,961.93742 c -1.6977,2.35543 1.18841,5.81853 2.75448,8.26345 1.35767,2.11956 4.04352,3.11812 5.50897,5.16465 1.94378,2.71453 1.61569,6.92956 4.13172,9.12422 1.66928,1.45607 4.47928,3.04818 6.36974,1.89371 2.39177,-1.46061 1.58734,-5.46122 1.54939,-8.26345 -0.0405,-2.99366 -0.85335,-5.97254 -1.8937,-8.77991 -1.58824,-4.28585 -2.05032,-11.20425 -6.5419,-12.05085 -2.36107,-0.44503 -3.25234,3.82336 -5.50896,4.64818 -1.99421,0.72891 -5.12826,-1.72247 -6.36974,0 z"
       id="path1036"
       inkscape:connector-curvature="0"
       sodipodi:nodetypes="ssssssssss" />
    <path
       style="fill:none;fill-rule:evenodd;stroke:#ff0000;stroke-width:1px;stroke-linecap:butt;stroke-linejoin:miter;stroke-opacity:1"
       d="m 84.360879,948.74734 c -2.31286,1.14133 -4.35835,3.97274 -4.13173,6.5419 0.232,2.63012 3.41251,4.04539 5.33681,5.85327 3.00455,2.82278 5.51851,7.80201 9.64069,7.74698 2.4833,-0.0331 4.72496,-2.52826 5.681111,-4.82034 1.15224,-2.76214 -0.68862,-7.91914 -0.68862,-8.95207 0,-1.03293 -1.778521,-6.1851 -4.131721,-8.09129 -1.20065,-0.97257 -2.97831,-1.58493 -4.47603,-1.20508 -1.53445,0.38917 -1.94783,2.75116 -3.4431,3.27094 -1.19739,0.41624 -2.65061,-0.90529 -3.78741,-0.34431 z"
       id="path1038"
       inkscape:connector-curvature="0"
       sodipodi:nodetypes="ssssssssss" />
    <path
       style="fill:none;fill-rule:evenodd;stroke:#ff0000;stroke-width:1px;stroke-linecap:butt;stroke-linejoin:miter;stroke-opacity:1"
       d="m 101.85483,929.76985 c -2.683631,-0.18139 -5.212481,2.24442 -6.714041,4.47603 -1.43874,2.13825 -2.59479,5.21915 -1.5494,7.57483 1.18962,2.68071 4.68913,3.95236 7.574821,4.47603 1.9494,0.35376 4.30693,0.20567 5.85328,-1.03293 1.16451,-0.93275 2.41017,-2.41017 1.72155,-4.13172 -0.68862,-1.72155 -2.05326,-6.19665 -3.95957,-8.77991 -0.77251,-1.04683 -1.62859,-2.49459 -2.92664,-2.58233 z"
       id="path1040"
       inkscape:connector-curvature="0"
       sodipodi:nodetypes="ssssssss" />
  </g>
  <g
     inkscape:groupmode="layer"
     id="layer3"
     inkscape:label="Skull Etched Lines"
     style="display:inline">
    <path
       id="path1042"
       style="fill:none;fill-rule:evenodd;stroke:#ff0000;stroke-width:1px;stroke-linecap:butt;stroke-linejoin:miter;stroke-opacity:1"
       d="m -163.99305,627.86069 c 0,0 2.13183,15.7399 0.68862,23.41309 -1.52095,8.08651 -6.42465,15.15069 -9.64068,22.72447 -2.30789,5.43511 -4.52671,10.90902 -6.929,16.30307 -3.75186,8.42434 -9.5582,16.10364 -11.68627,25.07679 -2.52928,10.66487 3.51307,28.54616 3.51307,28.54616 l -6.1826,-0.0609 c 0,0 -5.85975,-17.82043 -3.33047,-28.4853 2.12807,-8.97315 7.93441,-16.65245 11.68627,-25.07679 2.40229,-5.39405 4.62111,-10.86796 6.929,-16.30307 3.21603,-7.57378 8.11973,-14.63796 9.64068,-22.72447 1.44321,-7.67319 -0.68862,-23.41309 -0.68862,-23.41309 z"
       inkscape:connector-curvature="0"
       sodipodi:nodetypes="cssssccsssscc" />
    <path
       id="path1045"
       style="fill:none;fill-rule:evenodd;stroke:#ff0000;stroke-width:1px;stroke-linecap:butt;stroke-linejoin:miter;stroke-opacity:1"
       d="m 167.00988,617.2621 c 0,0 -4.23033,16.92558 -2.92157,25.32026 1.70091,10.91002 9.31021,20.0295 13.63399,30.18955 6.16081,14.47673 14.75242,28.33741 17.52941,43.82352 2.23532,12.46546 -2.97385,37.9804 -2.97385,37.9804 h -6 c 0,0 5.20917,-25.51494 2.97385,-37.9804 -2.77699,-15.48611 -11.3686,-29.34679 -17.52941,-43.82352 -4.32378,-10.16005 -11.93308,-19.27953 -13.63399,-30.18955 -1.30876,-8.39468 2.92157,-25.32026 2.92157,-25.32026 z"
       inkscape:connector-curvature="0"
       sodipodi:nodetypes="csssccssscc" />
    <path
       id="path1048"
       style="fill:none;fill-rule:evenodd;stroke:#ff0000;stroke-width:1px;stroke-linecap:butt;stroke-linejoin:miter;stroke-opacity:1"
       d="m -104.19511,897.83339 c 0,0 5.434049,-18.1925 3.82917,-33.69874 -7.50796,-4.36609 -19.79301,-3.97164 -27.26797,-8.76471 -21.97796,-14.09262 -34.94411,-13.91668 -34.94411,-13.91668 l 0.1063,-6.7747 c 0,0 18.85985,0.59876 40.83781,14.69138 7.47496,4.79307 19.76001,4.39862 27.267969,8.76471 1.60488,15.50624 -2.92156,40.4759 -2.92156,40.4759 z"
       inkscape:connector-curvature="0"
       sodipodi:nodetypes="ccsccsccc" />
    <path
       id="path1051"
       style="fill:none;fill-rule:evenodd;stroke:#ff0000;stroke-width:1px;stroke-linecap:butt;stroke-linejoin:miter;stroke-opacity:1"
       d="m -132.13174,953.35644 c 0,0 -9.72599,-32.37862 -12.74665,-48.64858 l -8.85121,-47.67472 h -6 l 8.85121,47.67472 c 3.02065,16.26996 12.74665,48.64858 12.74665,48.64858 z"
       inkscape:connector-curvature="0"
       sodipodi:nodetypes="csccscc" />
    <path
       id="path1054"
       style="fill:none;fill-rule:evenodd;stroke:#ff0000;stroke-width:1px;stroke-linecap:butt;stroke-linejoin:miter;stroke-opacity:1"
       d="m 128.80231,963.57811 c 8.85304,-20.92538 8.73668,-25.66952 11.74832,-37.06735 5.56213,-21.05037 7.00435,-50.42203 8.22167,-60.02812 h -6 c -1.21732,9.60609 -2.65954,38.97775 -8.22167,60.02812 -3.01164,11.39783 -2.89528,16.14197 -11.74832,37.06735 z"
       inkscape:connector-curvature="0"
       sodipodi:nodetypes="csccscc" />
    <path
       id="path1057"
       style="fill:none;fill-rule:evenodd;stroke:#ff0000;stroke-width:1px;stroke-linecap:butt;stroke-linejoin:miter;stroke-opacity:1"
       d="m 89.749419,892.16592 c 0,0 -2.22132,-15.52196 0.34343,-26.18932 5.17918,-5.00749 11.824601,-4.30997 17.559821,-6.8862 6.69543,-3.00755 18.13836,-8.45411 25.13464,-10.67362 8.86254,-2.81156 19.51445,-3.47961 19.51445,-3.47961 l -0.0659,6.86078 c 0,0 -4.58605,-0.19273 -13.44859,2.61883 -6.99628,2.21951 -18.43921,7.66607 -25.13464,10.67362 -5.73522,2.57623 -12.38064,1.87871 -17.559821,6.8862 -2.56475,10.66736 -0.17127,20.81208 -0.17127,20.81208 z"
       inkscape:connector-curvature="0"
       sodipodi:nodetypes="ccssccssccc" />
  </g>
  <g
     inkscape:groupmode="layer"
     id="layer9"
     inkscape:label="Skull Text"
     style="display:none">
    <text
       xml:space="preserve"
       style="font-style:normal;font-variant:normal;font-weight:bold;font-stretch:normal;font-size:62.01516724px;line-height:125%;font-family:Impact;-inkscape-font-specification:'Impact Bold';letter-spacing:0px;word-spacing:0px;display:inline;opacity:0.36199999;fill:#000000;fill-opacity:1;stroke:none;stroke-width:1.5503794px;stroke-linecap:butt;stroke-linejoin:miter;stroke-opacity:1"
       x="-0.013053375"
       y="559.77307"
       id="text8393"><tspan
         sodipodi:role="line"
         x="1.4869444"
         y="559.77307"
         style="font-style:normal;font-variant:normal;font-weight:800;font-stretch:normal;font-size:66.66666412px;font-family:Overpass;-inkscape-font-specification:'Overpass Ultra-Bold';text-align:center;letter-spacing:3px;text-anchor:middle;stroke-width:1.5503794px"
         id="tspan937">MAN</tspan></text>
    <text
       xml:space="preserve"
       style="font-style:normal;font-variant:normal;font-weight:bold;font-stretch:normal;font-size:84.44282532px;line-height:125%;font-family:Impact;-inkscape-font-specification:'Impact Bold';letter-spacing:0px;word-spacing:0px;display:inline;opacity:0.36199999;fill:#000000;fill-opacity:1;stroke:none;stroke-width:2.11107063px;stroke-linecap:butt;stroke-linejoin:miter;stroke-opacity:1"
       x="-103.5728"
       y="645.65808"
       id="text8417"><tspan
         sodipodi:role="line"
         id="tspan8415"
         x="-103.5728"
         y="645.65808"
         style="font-style:normal;font-variant:normal;font-weight:800;font-stretch:normal;font-size:86.66666412px;font-family:Overpass;-inkscape-font-specification:'Overpass Ultra-Bold';letter-spacing:3px;stroke-width:2.11107063px">DIES</tspan></text>
    <text
       id="text943"
       y="489.72809"
       x="-2.0963378"
       style="font-style:normal;font-variant:normal;font-weight:bold;font-stretch:normal;font-size:62.01516724px;line-height:125%;font-family:Impact;-inkscape-font-specification:'Impact Bold';letter-spacing:0px;word-spacing:0px;display:inline;opacity:0.36199999;fill:#000000;fill-opacity:1;stroke:none;stroke-width:1.5503794px;stroke-linecap:butt;stroke-linejoin:miter;stroke-opacity:1"
       xml:space="preserve"><tspan
         id="tspan941"
         style="font-style:normal;font-variant:normal;font-weight:800;font-stretch:normal;font-size:66.66666412px;font-family:Overpass;-inkscape-font-specification:'Overpass Ultra-Bold';text-align:center;letter-spacing:3px;text-anchor:middle;stroke-width:1.5503794px"
         y="489.72809"
         x="-0.59633875"
         sodipodi:role="line">EVERY</tspan></text>
  </g>
  <g
     style="display:inline"
     inkscape:label="Skull Text as Paths"
     id="g1034"
     inkscape:groupmode="layer">
    <g
       aria-label="MAN"
       style="font-style:normal;font-variant:normal;font-weight:bold;font-stretch:normal;font-size:62.01516724px;line-height:125%;font-family:Impact;-inkscape-font-specification:'Impact Bold';letter-spacing:0px;word-spacing:0px;display:inline;opacity:0.36199999;fill:#000000;fill-opacity:1;stroke:none;stroke-width:1.5503794px;stroke-linecap:butt;stroke-linejoin:miter;stroke-opacity:1"
       id="text1024">
      <path
         d="m -50.912943,560.57307 -11.699999,-24.83333 q -0.133334,-0.3 -0.3,-0.73333 -0.166667,-0.43334 -0.333334,-0.9 0.03333,0.4 0.03333,0.9 0.03333,0.46666 0.03333,0.8 v 23.96666 h -9.6 v -46.66666 h 9.666667 l 11.266666,24.83333 q 0.366667,0.73333 0.633333,1.43333 0.266667,0.66667 0.5,1.43334 0.266667,-0.76667 0.533334,-1.46667 0.266666,-0.73333 0.566666,-1.4 l 11.566666,-24.83333 h 8.933333 v 46.66666 h -9.566666 v -24.03333 q 0,-0.4 0,-0.86667 0,-0.5 0.03333,-0.8 -0.166666,0.4 -0.366666,0.83334 -0.166667,0.43333 -0.333333,0.76666 z"
         style="font-style:normal;font-variant:normal;font-weight:800;font-stretch:normal;font-size:66.66666412px;font-family:Overpass;-inkscape-font-specification:'Overpass Ultra-Bold';text-align:center;letter-spacing:3px;text-anchor:middle;stroke-width:1.5503794px"
         id="path1061"
         inkscape:connector-curvature="0" />
      <path
         d="m -19.813032,559.77307 18.1999998,-46.66666 h 9.133333 L 25.753633,559.77307 H 15.3203 L 11.753634,550.4064 H -5.8796987 l -3.4999999,9.36667 z m 17.1333332,-18.2 H 8.5203008 l -4.2333332,-10.9 q -0.2,-0.5 -0.4666667,-1.13333 -0.2666666,-0.66667 -0.4999999,-1.33333 -0.2333334,-0.66667 -0.4,-1.2 -0.1666667,0.53333 -0.4,1.2 -0.2333333,0.66666 -0.5,1.33333 -0.2666667,0.63333 -0.4666666,1.13333 z"
         style="font-style:normal;font-variant:normal;font-weight:800;font-stretch:normal;font-size:66.66666412px;font-family:Overpass;-inkscape-font-specification:'Overpass Ultra-Bold';text-align:center;letter-spacing:3px;text-anchor:middle;stroke-width:1.5503794px"
         id="path1063"
         inkscape:connector-curvature="0" />
      <path
         d="m 35.053605,559.77307 v -46.66666 h 8.8 l 17.633333,25.56666 q 0.333333,0.53334 0.966666,1.6 0.633334,1.06667 0.966667,1.86667 -0.1,-0.7 -0.166667,-1.8 -0.03333,-1.13333 -0.03333,-1.7 v -25.53333 h 9.533333 v 46.66666 H 64.320271 L 46.320272,534.00641 q -0.366667,-0.53334 -1,-1.63334 -0.6,-1.1 -0.966667,-1.9 0.133333,0.86667 0.133333,1.86667 0.03333,0.96667 0.03333,1.66667 v 25.76666 z"
         style="font-style:normal;font-variant:normal;font-weight:800;font-stretch:normal;font-size:66.66666412px;font-family:Overpass;-inkscape-font-specification:'Overpass Ultra-Bold';text-align:center;letter-spacing:3px;text-anchor:middle;stroke-width:1.5503794px"
         id="path1065"
         inkscape:connector-curvature="0" />
    </g>
    <g
       aria-label="DIES"
       style="font-style:normal;font-variant:normal;font-weight:bold;font-stretch:normal;font-size:84.44282532px;line-height:125%;font-family:Impact;-inkscape-font-specification:'Impact Bold';letter-spacing:0px;word-spacing:0px;display:inline;opacity:0.36199999;fill:#000000;fill-opacity:1;stroke:none;stroke-width:2.11107063px;stroke-linecap:butt;stroke-linejoin:miter;stroke-opacity:1"
       id="text1028">
      <path
         d="m -96.8128,645.65808 v -60.66666 h 21.753333 q 7.93,0 13.519999,2.55666 5.59,2.55667 9.1,6.93334 3.51,4.33333 5.113333,9.75 1.603334,5.41666 1.603334,11.09333 0,5.15667 -1.56,10.48666 -1.516667,5.33 -4.983334,9.83667 -3.423333,4.50667 -9.099999,7.28 -5.676667,2.73 -14.04,2.73 z m 12.48,-11.87333 h 10.139999 q 4.29,0 7.236667,-1.64667 2.99,-1.64667 4.81,-4.37667 1.82,-2.73 2.643333,-5.97999 0.866667,-3.25 0.866667,-6.45667 0,-3.38 -0.866667,-6.67333 -0.866667,-3.29334 -2.643333,-5.98 -1.733334,-2.68667 -4.506667,-4.29 -2.773333,-1.60334 -6.586666,-1.60334 H -84.3328 Z"
         style="font-style:normal;font-variant:normal;font-weight:800;font-stretch:normal;font-size:86.66666412px;font-family:Overpass;-inkscape-font-specification:'Overpass Ultra-Bold';letter-spacing:3px;stroke-width:2.11107063px"
         id="path1037"
         inkscape:connector-curvature="0" />
      <path
         d="m -31.759669,645.65808 v -60.66666 h 12.48 v 60.66666 z"
         style="font-style:normal;font-variant:normal;font-weight:800;font-stretch:normal;font-size:86.66666412px;font-family:Overpass;-inkscape-font-specification:'Overpass Ultra-Bold';letter-spacing:3px;stroke-width:2.11107063px"
         id="path1039"
         inkscape:connector-curvature="0" />
      <path
         d="M -2.8898262,645.65808 V 584.99142 H 39.750173 v 11.83 H 9.5901734 v 11.61333 H 26.793506 v 11.83 H 9.5901734 v 13.47666 H 41.526839 v 11.91667 z"
         style="font-style:normal;font-variant:normal;font-weight:800;font-stretch:normal;font-size:86.66666412px;font-family:Overpass;-inkscape-font-specification:'Overpass Ultra-Bold';letter-spacing:3px;stroke-width:2.11107063px"
         id="path1041"
         inkscape:connector-curvature="0" />
      <path
         d="m 74.513458,646.69808 q -5.806667,0 -10.573333,-2.08 -4.766667,-2.08 -8.19,-5.93667 -3.38,-3.85666 -5.156667,-9.18666 l 11.18,-4.20334 q 1.993333,4.24667 5.416667,6.97667 3.423333,2.68667 7.626666,2.68667 4.333333,0 6.933333,-1.73334 2.6,-1.73333 2.6,-5.02666 0,-2.25334 -1.516667,-3.72667 -1.516666,-1.47333 -4.159999,-2.55666 -2.643334,-1.12667 -6.066667,-2.25334 -3.38,-1.12666 -6.846666,-2.47 -3.466667,-1.38666 -6.37,-3.42333 -2.903333,-2.03667 -4.68,-5.15667 -1.733333,-3.16333 -1.733333,-7.8 0,-4.59333 2.426666,-8.40666 2.47,-3.85667 7.106667,-6.15334 4.68,-2.29666 11.309999,-2.29666 5.46,0 9.706667,1.95 4.246666,1.90666 7.02,5.2 2.773333,3.29333 3.899999,7.41 l -11.093333,3.68333 q -1.256666,-2.77333 -3.639999,-4.63667 -2.34,-1.86333 -6.543334,-1.86333 -3.726666,0 -5.763333,1.38667 -1.993333,1.34333 -1.993333,3.94333 0,1.69 1.343333,2.90333 1.386667,1.17 3.77,2.12334 2.426667,0.95333 5.546667,2.03666 3.726666,1.25667 7.409999,2.77334 3.683334,1.51666 6.673334,3.72666 3.033333,2.21 4.809999,5.50334 1.82,3.29333 1.82,8.14666 0,5.85 -2.946666,9.96667 -2.946667,4.11666 -8.016667,6.32666 -5.026666,2.16667 -11.309999,2.16667 z"
         style="font-style:normal;font-variant:normal;font-weight:800;font-stretch:normal;font-size:86.66666412px;font-family:Overpass;-inkscape-font-specification:'Overpass Ultra-Bold';letter-spacing:3px;stroke-width:2.11107063px"
         id="path1043"
         inkscape:connector-curvature="0" />
    </g>
    <g
       aria-label="EVERY"
       style="font-style:normal;font-variant:normal;font-weight:bold;font-stretch:normal;font-size:62.01516724px;line-height:125%;font-family:Impact;-inkscape-font-specification:'Impact Bold';letter-spacing:0px;word-spacing:0px;display:inline;opacity:0.36199999;fill:#000000;fill-opacity:1;stroke:none;stroke-width:1.5503794px;stroke-linecap:butt;stroke-linejoin:miter;stroke-opacity:1"
       id="text1032">
      <path
         d="m -111.91288,489.72809 v -46.66667 h 32.799999 v 9.1 h -23.199999 v 8.93334 h 13.233333 v 9.1 h -13.233333 v 10.36666 h 24.566666 v 9.16667 z"
         style="font-style:normal;font-variant:normal;font-weight:800;font-stretch:normal;font-size:66.66666412px;font-family:Overpass;-inkscape-font-specification:'Overpass Ultra-Bold';text-align:center;letter-spacing:3px;text-anchor:middle;stroke-width:1.5503794px"
         id="path1046"
         inkscape:connector-curvature="0" />
      <path
         d="m -54.346323,489.72809 -16.733332,-46.66667 h 10.366666 l 10.233333,29.93334 q 0.2,0.63333 0.4,1.23333 0.2,0.6 0.3,1 0.06667,-0.33333 0.233333,-0.93333 0.166667,-0.6 0.4,-1.3 l 10.2,-29.93334 h 10.266666 l -16.666666,46.66667 z"
         style="font-style:normal;font-variant:normal;font-weight:800;font-stretch:normal;font-size:66.66666412px;font-family:Overpass;-inkscape-font-specification:'Overpass Ultra-Bold';text-align:center;letter-spacing:3px;text-anchor:middle;stroke-width:1.5503794px"
         id="path1049"
         inkscape:connector-curvature="0" />
      <path
         d="m -20.413055,489.72809 v -46.66667 h 32.799999 v 9.1 h -23.199999 v 8.93334 H 2.4202775 v 9.1 H -10.813055 v 10.36666 H 13.75361 v 9.16667 z"
         style="font-style:normal;font-variant:normal;font-weight:800;font-stretch:normal;font-size:66.66666412px;font-family:Overpass;-inkscape-font-specification:'Overpass Ultra-Bold';text-align:center;letter-spacing:3px;text-anchor:middle;stroke-width:1.5503794px"
         id="path1052"
         inkscape:connector-curvature="0" />
      <path
         d="m 24.586892,489.72809 v -46.66667 h 22.199999 q 5.866666,0 9.299999,2.06667 3.466667,2.03333 4.933334,5.43333 1.5,3.36667 1.5,7.3 0,2.63334 -1,5.33334 -0.966667,2.7 -2.933334,4.93333 -1.966666,2.2 -4.866666,3.26667 l 8.933333,18.33333 H 51.920224 l -8.6,-16.9 h -9.133333 v 16.9 z m 9.599999,-25.93333 h 12.733333 q 2.133333,0 3.366667,-0.83334 1.266666,-0.83333 1.766666,-2.16666 0.533334,-1.36667 0.533334,-2.9 0,-1.4 -0.5,-2.73334 -0.466667,-1.33333 -1.733334,-2.2 -1.233333,-0.86666 -3.433333,-0.86666 H 34.186891 Z"
         style="font-style:normal;font-variant:normal;font-weight:800;font-stretch:normal;font-size:66.66666412px;font-family:Overpass;-inkscape-font-specification:'Overpass Ultra-Bold';text-align:center;letter-spacing:3px;text-anchor:middle;stroke-width:1.5503794px"
         id="path1055"
         inkscape:connector-curvature="0" />
      <path
         d="m 84.920209,489.72809 v -18.16667 l -17.533332,-28.5 h 10.799999 l 11.466666,18.4 11.433338,-18.4 h 10.79999 l -17.499994,28.46667 v 18.2 z"
         style="font-style:normal;font-variant:normal;font-weight:800;font-stretch:normal;font-size:66.66666412px;font-family:Overpass;-inkscape-font-specification:'Overpass Ultra-Bold';text-align:center;letter-spacing:3px;text-anchor:middle;stroke-width:1.5503794px"
         id="path1058"
         inkscape:connector-curvature="0" />
    </g>
  </g>
  <g
     inkscape:groupmode="layer"
     id="layer6"
     inkscape:label="Coin Rim"
     style="display:inline">
    <path
       style="opacity:0.45800003;fill:#00e500;fill-opacity:1;stroke:#ff0000;stroke-width:2.43400002;stroke-linejoin:round;stroke-miterlimit:6.4000001;stroke-dasharray:none;stroke-dashoffset:0;stroke-opacity:1;paint-order:markers stroke fill"
       d="M 0.86327875,283.04037 C -60.275211,283.18845 -121.31732,295.07358 -177.65625,318.68295 c -98.18736,40.59075 -181.45561,116.52402 -230.77148,210.77344 -46.66951,88.12924 -63.93942,191.56369 -47.34766,289.70117 17.13576,108.46838 75.0505,209.99794 159.64648,280.20704 72.34778,60.8616 164.18891,98.3569 258.441409,105.957 45.9973398,4.1277 92.79429,0.181 138.078131,-9.4746 87.88531,-19.553 169.38909,-65.1937 231.88867,-130.0644 C 400.35747,995.53533 445.25735,902.77353 457.80859,805.63999 465.2647,751.97421 462.37323,696.8097 450.70313,644.08725 434.35407,570.80505 399.67424,501.61857 350.83399,444.59116 291.26799,374.84864 210.4489,323.64817 122.08789,299.56381 82.614569,288.84757 41.704359,283.05919 0.86327875,283.04037 Z M -2.2050812,393.73959 c 49.0214302,-0.22871 98.0331802,10.00368 142.9531312,29.60743 88.17655,37.62518 158.05473,113.96218 190.14453,204.03515 31.88717,87.70407 25.65833,187.9081 -15.34375,271.58008 -42.43094,88.90911 -124.8223,156.92495 -219.392581,183.77535 -96.91003025,28.4472 -205.501209,11.0363 -289.564449,-44.5976 -77.19793,-50.43584 -132.35507,-132.67294 -150.67188,-222.95705 -20.51084,-96.91399 3.58912,-201.72517 63.07031,-280.7539 64.15294,-87.07832 170.8171,-140.28999 278.8046888,-140.68946 z"
       id="circle4679"
       inkscape:connector-curvature="0" />
  </g>
  <g
     inkscape:groupmode="layer"
     id="layer8"
     inkscape:label="Coin Rim Ridges"
     style="display:inline">
    <path
       style="display:inline;opacity:0.6520004;fill:#f25400;fill-opacity:1;stroke:none;stroke-width:1.81616175;stroke-linejoin:round;stroke-miterlimit:6.4000001;stroke-dasharray:none;stroke-dashoffset:0;stroke-opacity:1;paint-order:markers stroke fill"
       d="M -1.4843712,387.7142 C -123.38991,387.59831 -243.44641,454.88593 -305.57813,560.02671 c -55.08609,90.65475 -67.40808,206.46587 -30.5371,305.77539 33.66899,94.10406 108.42477,173.0705 201.54882,210.0273 89.920799,36.7571 194.885949,35.1713 283.06836,-6.0293 84.03474,-38.2915 152.55519,-110.37998 184.89649,-196.72261 34.66702,-89.73768 31.42325,-193.7494 -10.41211,-280.51954 C 283.42692,508.38913 209.74016,440.44043 121.77539,409.34116 82.316359,394.97672 40.404939,387.47218 -1.4843712,387.7142 Z m -0.36914,12.00586 C 72.620109,399.5046 146.72168,423.61955 206.45899,468.4603 c 72.76405,53.8306 122.5088,137.61624 135.06445,226.97265 13.32097,88.38829 -10.02837,181.56415 -63.19336,253.56836 -54.11608,74.58389 -139.51324,125.52699 -230.812501,137.80659 -54.1898703,7.8078 -110.23121,1.8916 -161.994139,-16.2304 -87.50983,-30.4253 -161.21346,-97.61654 -199.32617,-182.02931 -31.22914,-68.01686 -39.56276,-145.74912 -23.04493,-218.61328 19.29471,-88.12628 74.82727,-167.50373 151.01563,-215.73633 54.5846,-35.13182 119.291739,-53.8356 183.9785188,-54.47852 z"
       id="circle4588"
       inkscape:connector-curvature="0" />
    <path
       style="display:inline;opacity:0.522;fill:#0000e0;fill-opacity:1;stroke:none;stroke-width:2;stroke-linejoin:round;stroke-miterlimit:6.4000001;stroke-dasharray:none;stroke-dashoffset:0;stroke-opacity:1;paint-order:markers stroke fill"
       d="M -1.25e-6,276.76889 A 468.22607,468.22607 0 0 0 -468.22656,744.9935 468.22607,468.22607 0 0 0 -1.25e-6,1213.2201 468.22607,468.22607 0 0 0 468.22656,744.9935 468.22607,468.22607 0 0 0 -1.25e-6,276.76889 Z m -2.68555005,12.28906 c 74.0861603,-0.51647 148.1918013,17.67183 213.8515713,51.95313 85.69042,44.22378 156.00571,117.11222 198.26562,203.65039 48.43264,97.69075 59.33672,212.72285 31.02539,317.76953 -27.09964,103.05194 -91.85023,195.4662 -179.26758,256.1621 -85.69576,60.4226 -192.525911,89.1279 -296.773431,80.9395 -105.669949,-7.9319 -207.760389,-54.5919 -283.447269,-128.9063 -81.41631,-78.98739 -130.67984,-189.48217 -136.30469,-302.5703 -7.02586,-123.84957 40.36288,-249.503 126.50586,-338.86133 83.88484,-88.15541 204.59488,-139.7126 326.1445287,-140.13672 z"
       id="circle4586"
       inkscape:connector-curvature="0" />
  </g>
  <g
     inkscape:groupmode="layer"
     id="layer7"
     inkscape:label="Rim Text"
     style="display:none">
    <text
       xml:space="preserve"
       style="font-style:normal;font-variant:normal;font-weight:bold;font-stretch:normal;font-size:40px;line-height:125%;font-family:Impact;-inkscape-font-specification:'Impact Bold';letter-spacing:0px;word-spacing:0px;fill:#000000;fill-opacity:1;stroke:none;stroke-width:1px;stroke-linecap:butt;stroke-linejoin:miter;stroke-opacity:1"
       id="text4577"><textPath
         xlink:href="#path4646"
         id="textPath4660"
         style="font-style:normal;font-variant:normal;font-weight:800;font-stretch:normal;font-size:93.33333588px;font-family:Overpass;-inkscape-font-specification:'Overpass Ultra-Bold';letter-spacing:10px;word-spacing:20px">NOT EVERY MAN REALLY LIVES</textPath></text>
    <path
       style="opacity:0.6520004;fill:none;fill-opacity:1;stroke:#ff0000;stroke-width:1.81616175;stroke-linejoin:round;stroke-miterlimit:6.4000001;stroke-dasharray:none;stroke-dashoffset:0;stroke-opacity:1;paint-order:markers stroke fill"
       d="M -228.98449,455.37853 C -119.58413,367.33343 42.245435,350.31205 166.88736,415.58525 274.65552,469.68836 353.16988,579.40492 366.55145,699.61291 380.24331,808.70892 342.82542,923.63485 265.29492,1001.9828 192.29888,1077.529 86.026243,1120.1779 -19.059096,1113.7396 -121.67946,1108.573 -221.535,1058.7599 -285.93853,978.44098 c -64.4776,-78.74144 -94.67489,-184.88785 -79.39153,-285.69182 13.25382,-92.51465 62.61472,-179.69599 136.34557,-237.37063 z"
       id="path4624"
       inkscape:connector-curvature="0" />
    <path
       style="opacity:0.6520004;fill:none;fill-opacity:1;stroke:#ff0000;stroke-width:2.4338305;stroke-linejoin:round;stroke-miterlimit:6.4000001;stroke-dasharray:none;stroke-dashoffset:0;stroke-opacity:1;paint-order:markers stroke fill"
       d="m -411.80143,579.14613 c -56.1013,136.93245 -37.43213,302.30129 49.56707,422.47377 74.42962,105.2635 196.10883,176.1951 325.007889,185.7218 116.466137,9.8715 236.674641,-27.8429 325.118841,-104.4706 C 376.49841,1007.5355 434.03472,896.75133 442.48125,780.45836 451.68385,666.98954 415.76137,550.20963 342.60349,462.74548 271.3352,376.14993 166.91339,317.92139 55.707552,304.56104 -57.878262,290.17749 -176.81903,321.12431 -267.83025,391.02123 c -63.7334,48.34387 -114.32323,113.90881 -143.97118,188.1249 z"
       id="path4646"
       inkscape:connector-curvature="0" />
    <text
       xml:space="preserve"
       style="font-style:normal;font-variant:normal;font-weight:bold;font-stretch:normal;font-size:40px;line-height:125%;font-family:Impact;-inkscape-font-specification:'Impact Bold';letter-spacing:0px;word-spacing:0px;fill:#000000;fill-opacity:1;stroke:none;stroke-width:1px;stroke-linecap:butt;stroke-linejoin:miter;stroke-opacity:1"
       id="text4664"><textPath
         xlink:href="#path4624"
         id="textPath4669"
         style="font-style:normal;font-variant:normal;font-weight:800;font-stretch:normal;font-size:93.33333588px;font-family:Overpass;-inkscape-font-specification:'Overpass Ultra-Bold';letter-spacing:2.5px;word-spacing:19px">BOSS GEE</textPath></text>
  </g>
  <g
     style="display:inline"
     inkscape:label="Rim Text as Paths"
     id="g957"
     inkscape:groupmode="layer">
    <g
       aria-label="NOT EVERY MAN REALLY LIVES"
       style="font-style:normal;font-variant:normal;font-weight:bold;font-stretch:normal;font-size:40px;line-height:125%;font-family:Impact;-inkscape-font-specification:'Impact Bold';letter-spacing:0px;word-spacing:0px;fill:#000000;fill-opacity:1;stroke:none;stroke-width:1px;stroke-linecap:butt;stroke-linejoin:miter;stroke-opacity:1"
       id="text947">
      <path
         d="m -415.2706,585.64388 62.2461,19.84612 -3.74241,11.73783 -41.60097,12.6473 q -0.85314,0.2178 -2.54525,0.60894 -1.69211,0.39114 -2.90094,0.49554 0.97622,0.16431 2.4718,0.54319 1.52587,0.43751 2.28171,0.6785 l 34.05751,10.85866 -4.05428,12.71599 -62.2461,-19.84612 3.58648,-11.24876 42.02367,-13.05131 q 0.86732,-0.26227 2.60389,-0.63923 1.72239,-0.33251 2.9454,-0.48137 -1.2127,-0.19072 -2.54655,-0.616 -1.30356,-0.36663 -2.23725,-0.66432 l -34.36873,-10.9579 z"
         style="font-style:normal;font-variant:normal;font-weight:800;font-stretch:normal;font-size:93.33333588px;font-family:Overpass;-inkscape-font-specification:'Overpass Ultra-Bold';letter-spacing:10px;word-spacing:20px"
         id="path960"
         inkscape:connector-curvature="0" />
      <path
         d="m -441.04106,685.6565 q 1.03737,-7.77107 4.68015,-12.84031 3.68903,-5.06306 8.99671,-7.79142 5.34775,-2.67592 11.47851,-3.45826 6.12458,-0.73609 12.13791,0.0666 6.01332,0.80272 11.73037,3.11956 5.71086,2.36309 10.1232,6.3419 4.45241,4.03124 6.63793,9.8785 2.23178,5.85344 1.19441,13.62451 -1.04972,7.86358 -4.73257,12.88038 -3.63661,5.02298 -8.98437,7.69891 -5.30767,2.72836 -11.43225,3.46444 -6.12458,0.73608 -12.13791,-0.0666 -6.01332,-0.80272 -11.73037,-3.11956 -5.71704,-2.31683 -10.16945,-6.34808 -4.41233,-3.97881 -6.65029,-9.78599 -2.1917,-5.801 -1.14198,-13.66458 z m 12.85927,1.71659 q -0.54339,4.07056 0.98263,7.09911 1.51985,3.0748 4.39056,5.2 2.91696,2.13137 6.41999,3.39936 3.50302,1.268 6.87973,1.71876 3.608,0.48163 7.36105,0.22934 3.75304,-0.25229 7.03443,-1.55624 3.27521,-1.25769 5.50213,-3.83233 2.22692,-2.57465 2.78265,-6.73772 0.55573,-4.16307 -1.01037,-7.24405 -1.51985,-3.0748 -4.39056,-5.2 -2.8707,-2.1252 -6.42616,-3.35311 -3.55545,-1.22791 -6.93217,-1.67867 -3.56173,-0.47546 -7.31478,-0.22317 -3.71297,0.30472 -6.99436,1.60867 -3.28756,1.3502 -5.51447,3.92485 -2.22692,2.57464 -2.7703,6.6452 z"
         style="font-style:normal;font-variant:normal;font-weight:800;font-stretch:normal;font-size:93.33333588px;font-family:Overpass;-inkscape-font-specification:'Overpass Ultra-Bold';letter-spacing:10px;word-spacing:20px"
         id="path962"
         inkscape:connector-curvature="0" />
      <path
         d="m -443.75685,748.88833 52.43445,-1.4076 -0.50093,-18.65994 12.87536,-0.34564 1.36377,50.8017 -12.87536,0.34564 -0.50218,-18.7066 -52.43444,1.4076 z"
         style="font-style:normal;font-variant:normal;font-weight:800;font-stretch:normal;font-size:93.33333588px;font-family:Overpass;-inkscape-font-specification:'Overpass Ultra-Bold';letter-spacing:10px;word-spacing:20px"
         id="path964"
         inkscape:connector-curvature="0" />
      <path
         d="m -430.40049,855.60346 62.49461,-19.04911 13.3888,43.92478 -12.18645,3.71458 -9.47012,-31.06875 -11.96326,3.64654 5.40179,17.72169 -12.18645,3.71457 -5.40179,-17.72168 -13.88273,4.23162 10.028,32.89895 -12.27573,3.74179 z"
         style="font-style:normal;font-variant:normal;font-weight:800;font-stretch:normal;font-size:93.33333588px;font-family:Overpass;-inkscape-font-specification:'Overpass Ultra-Bold';letter-spacing:10px;word-spacing:20px"
         id="path966"
         inkscape:connector-curvature="0" />
      <path
         d="m -400.746,936.64095 48.32437,-49.81976 6.39557,13.02819 -31.30504,31.32756 q -0.67255,0.64208 -1.3032,1.26359 -0.63066,0.6215 -1.07166,0.99395 0.46004,-0.12186 1.31691,-0.28257 0.85686,-0.1607 1.88053,-0.29932 l 43.9111,-5.64822 6.33388,12.90251 -68.93004,7.84471 z"
         style="font-style:normal;font-variant:normal;font-weight:800;font-stretch:normal;font-size:93.33333588px;font-family:Overpass;-inkscape-font-specification:'Overpass Ultra-Bold';letter-spacing:10px;word-spacing:20px"
         id="path968"
         inkscape:connector-curvature="0" />
      <path
         d="m -375.20258,983.44187 53.1886,-37.93965 26.66615,37.38399 -10.37177,7.39824 -18.86143,-26.44234 -10.18182,7.26273 10.7586,15.08277 -10.37178,7.39823 -10.7586,-15.08277 -11.81547,8.42802 19.97252,28.00001 -10.44776,7.4524 z"
         style="font-style:normal;font-variant:normal;font-weight:800;font-stretch:normal;font-size:93.33333588px;font-family:Overpass;-inkscape-font-specification:'Overpass Ultra-Bold';letter-spacing:10px;word-spacing:20px"
         id="path970"
         inkscape:connector-curvature="0" />
      <path
         d="m -333.86527,1038.4725 46.63773,-45.75329 21.76551,22.18619 q 5.75184,5.8631 7.0526,11.3205 1.36674,5.4581 -0.59319,10.2573 -1.89393,4.7998 -5.82483,8.6562 -2.6317,2.5818 -6.31045,4.2295 -3.64608,1.6811 -7.8062,1.9053 -4.12681,0.1915 -8.03606,-1.6609 l -9.56347,26.9023 -10.52327,-10.7267 8.45784,-25.1639 -8.95458,-9.1277 -16.88952,16.5693 z m 35.32936,-15.8317 12.48412,12.7254 q 2.09158,2.1321 4.1336,2.5476 2.07469,0.4489 3.89741,-0.3587 1.88871,-0.8069 3.4211,-2.3102 1.39913,-1.3726 2.24142,-3.1796 0.87497,-1.7736 0.49923,-3.8892 -0.34307,-2.0822 -2.50001,-4.2809 l -12.48412,-12.7254 z"
         style="font-style:normal;font-variant:normal;font-weight:800;font-stretch:normal;font-size:93.33333588px;font-family:Overpass;-inkscape-font-specification:'Overpass Ultra-Bold';letter-spacing:10px;word-spacing:20px"
         id="path972"
         inkscape:connector-curvature="0" />
      <path
         d="m -267.28776,1099.2686 15.10266,-20.4638 3.94284,-46.6798 12.1656,8.9785 -2.38009,30.2593 28.17565,-11.2216 12.16559,8.9784 -43.37821,17.5177 -15.13037,20.5013 z"
         style="font-style:normal;font-variant:normal;font-weight:800;font-stretch:normal;font-size:93.33333588px;font-family:Overpass;-inkscape-font-specification:'Overpass Ultra-Bold';letter-spacing:10px;word-spacing:20px"
         id="path974"
         inkscape:connector-curvature="0" />
      <path
         d="m -147.37484,1165.1249 -3.8059,-38.2432 q -0.0354,-0.4582 -0.0524,-1.108 -0.0169,-0.6498 -0.0183,-1.3435 -0.14335,0.5433 -0.37752,1.203 -0.17458,0.6313 -0.33069,1.0711 l -11.22449,31.6202 -12.66568,-4.4961 21.85576,-61.5692 12.75363,4.5273 3.23419,38.0402 q 0.14031,1.1392 0.16429,2.1877 0.0396,1.0044 -0.0116,2.1252 0.71088,-0.8866 1.39054,-1.6853 0.69528,-0.8426 1.4033,-1.5817 l 26.89076,-27.3465 11.786112,4.1838 -21.855752,61.5693 -12.6217,-4.4805 11.25572,-31.7081 q 0.18733,-0.5278 0.40589,-1.1435 0.23417,-0.6596 0.41865,-1.0398 -0.40723,0.4497 -0.87404,0.9277 -0.42284,0.4937 -0.79884,0.8554 z"
         style="font-style:normal;font-variant:normal;font-weight:800;font-stretch:normal;font-size:93.33333588px;font-family:Overpass;-inkscape-font-specification:'Overpass Ultra-Bold';letter-spacing:10px;word-spacing:20px"
         id="path976"
         inkscape:connector-curvature="0" />
      <path
         d="m -99.867104,1179.0468 35.0098,-60.7618 12.641428,1.9218 15.417499,68.4277 -14.440755,-2.1953 -2.965758,-13.7148 -24.406259,-3.7103 -6.8152,12.2279 z m 27.543706,-21.5856 15.501896,2.3566 -3.565859,-15.9774 q -0.171613,-0.7341 -0.407445,-1.6668 -0.228818,-0.9788 -0.4115,-1.9507 -0.182682,-0.9718 -0.301145,-1.7451 -0.342903,0.7032 -0.806133,1.5768 -0.463231,0.8736 -0.972598,1.7403 -0.502354,0.8204 -0.88438,1.4704 z"
         style="font-style:normal;font-variant:normal;font-weight:800;font-stretch:normal;font-size:93.33333588px;font-family:Overpass;-inkscape-font-specification:'Overpass Ultra-Bold';letter-spacing:10px;word-spacing:20px"
         id="path978"
         inkscape:connector-curvature="0" />
      <path
         d="m -17.858642,1189.3327 -1.334738,-65.3197 12.3174293,-0.2517 25.4127607,35.2815 q 0.481823,0.737 1.398813,2.2119 0.91699,1.4749 1.406441,2.5852 -0.159992,-0.977 -0.284768,-2.5147 -0.07907,-1.5854 -0.09528,-2.3786 l -0.730292,-35.7392 13.343881,-0.2727 1.334738,65.3197 -11.804203,0.2412 -25.9317073,-35.5509 q -0.5284803,-0.7361 -1.4464236,-2.2576 -0.8712864,-1.5225 -1.4073938,-2.6318 0.2114157,1.2092 0.2400172,2.609 0.074305,1.3521 0.094326,2.3319 l 0.7369657,36.0658 z"
         style="font-style:normal;font-variant:normal;font-weight:800;font-stretch:normal;font-size:93.33333588px;font-family:Overpass;-inkscape-font-specification:'Overpass Ultra-Bold';letter-spacing:10px;word-spacing:20px"
         id="path980"
         inkscape:connector-curvature="0" />
      <path
         d="m 112.25062,1175.1079 -19.947869,-62.2135 29.595879,-9.4895 q 7.82113,-2.5078 13.28168,-1.2202 5.49074,1.2289 8.89936,5.1347 3.43882,3.8471 5.12014,9.0908 1.12563,3.5106 0.94661,7.5376 -0.13458,4.0127 -1.80179,7.8307 -1.68146,3.7736 -5.09164,6.4352 l 19.74612,20.6225 -14.30912,4.588 -18.68905,-18.8541 -12.17608,3.9041 7.22398,22.5302 z m 1.7129,-38.6765 16.97542,-5.4429 q 2.84405,-0.9119 4.13205,-2.5501 1.33244,-1.6524 1.42908,-3.6436 0.12682,-2.05 -0.52861,-4.0941 -0.59844,-1.8664 -1.83495,-3.4302 -1.19207,-1.5781 -3.25119,-2.192 -2.01467,-0.6282 -4.9476,0.3122 l -16.97541,5.4429 z"
         style="font-style:normal;font-variant:normal;font-weight:800;font-stretch:normal;font-size:93.33333588px;font-family:Overpass;-inkscape-font-specification:'Overpass Ultra-Bold';letter-spacing:10px;word-spacing:20px"
         id="path982"
         inkscape:connector-curvature="0" />
      <path
         d="m 183.12751,1150.0932 -29.77939,-58.1518 40.87241,-20.9306 5.80698,11.3396 -28.90976,14.8046 5.70063,11.1319 16.49019,-8.4446 5.80698,11.3396 -16.49019,8.4446 6.61528,12.918 30.61277,-15.6767 5.84953,11.4227 z"
         style="font-style:normal;font-variant:normal;font-weight:800;font-stretch:normal;font-size:93.33333588px;font-family:Overpass;-inkscape-font-specification:'Overpass Ultra-Bold';letter-spacing:10px;word-spacing:20px"
         id="path984"
         inkscape:connector-curvature="0" />
      <path
         d="m 240.53081,1119.7176 -18.8998,-67.5313 10.2198,-7.6847 59.66714,36.8767 -11.67445,8.7785 -11.87196,-7.48 -19.73094,14.8365 3.96466,13.4258 z m 3.85818,-34.7809 12.53232,-9.4235 -13.90806,-8.6348 q -0.64448,-0.3912 -1.47575,-0.8755 -0.85932,-0.5216 -1.68133,-1.0712 -0.82202,-0.5497 -1.45725,-1.0062 0.26225,0.737 0.56208,1.6793 0.29984,0.9423 0.56238,1.9126 0.23449,0.9331 0.43139,1.6608 z"
         style="font-style:normal;font-variant:normal;font-weight:800;font-stretch:normal;font-size:93.33333588px;font-family:Overpass;-inkscape-font-specification:'Overpass Ultra-Bold';letter-spacing:10px;word-spacing:20px"
         id="path986"
         inkscape:connector-curvature="0" />
      <path
         d="m 305.01145,1068.0908 -46.89544,-45.4892 9.35777,-9.647 37.58334,36.4563 21.86729,-22.5433 9.31209,9.0328 z"
         style="font-style:normal;font-variant:normal;font-weight:800;font-stretch:normal;font-size:93.33333588px;font-family:Overpass;-inkscape-font-specification:'Overpass Ultra-Bold';letter-spacing:10px;word-spacing:20px"
         id="path988"
         inkscape:connector-curvature="0" />
      <path
         d="m 347.50852,1021.5178 -52.48651,-38.90513 8.00335,-10.79722 42.06419,31.17975 18.70226,-25.23105 10.42232,7.72545 z"
         style="font-style:normal;font-variant:normal;font-weight:800;font-stretch:normal;font-size:93.33333588px;font-family:Overpass;-inkscape-font-specification:'Overpass Ultra-Bold';letter-spacing:10px;word-spacing:20px"
         id="path990"
         inkscape:connector-curvature="0" />
      <path
         d="m 388.01788,960.58506 -22.34611,-12.14518 -46.77853,2.51361 7.22026,-13.28466 30.29908,-1.80352 -14.98946,-26.36489 7.22026,-13.28466 23.31625,40.55725 22.38712,12.16747 z"
         style="font-style:normal;font-variant:normal;font-weight:800;font-stretch:normal;font-size:93.33333588px;font-family:Overpass;-inkscape-font-specification:'Overpass Ultra-Bold';letter-spacing:10px;word-spacing:20px"
         id="path992"
         inkscape:connector-curvature="0" />
      <path
         d="m 428.74973,862.33336 -63.70307,-14.50391 2.98366,-13.10463 51.05346,11.62385 6.97224,-30.62298 12.64961,2.88006 z"
         style="font-style:normal;font-variant:normal;font-weight:800;font-stretch:normal;font-size:93.33333588px;font-family:Overpass;-inkscape-font-specification:'Overpass Ultra-Bold';letter-spacing:10px;word-spacing:20px"
         id="path994"
         inkscape:connector-curvature="0" />
      <path
         d="m 440.5825,800.42825 -64.95756,-6.99711 1.43941,-13.3627 64.95756,6.99711 z"
         style="font-style:normal;font-variant:normal;font-weight:800;font-stretch:normal;font-size:93.33333588px;font-family:Overpass;-inkscape-font-specification:'Overpass Ultra-Bold';letter-spacing:10px;word-spacing:20px"
         id="path996"
         inkscape:connector-curvature="0" />
      <path
         d="m 443.92427,746.03757 -65.10402,24.05661 -0.14018,-14.51266 41.76634,-14.73076 q 0.88392,-0.28855 1.72118,-0.57665 0.83725,-0.2881 1.39587,-0.4335 -0.46754,-0.0888 -1.30976,-0.31404 -0.84221,-0.2252 -1.82532,-0.54239 l -42.04264,-13.87457 -0.13883,-14.37266 65.55566,22.70121 z"
         style="font-style:normal;font-variant:normal;font-weight:800;font-stretch:normal;font-size:93.33333588px;font-family:Overpass;-inkscape-font-specification:'Overpass Ultra-Bold';letter-spacing:10px;word-spacing:20px"
         id="path998"
         inkscape:connector-curvature="0" />
      <path
         d="m 441.2873,692.77606 -64.42322,10.86708 -7.63801,-45.28032 12.56253,-2.11908 5.40249,32.02755 12.33245,-2.08027 -3.0816,-18.26859 12.56253,-2.11908 3.08159,18.26859 14.31116,-2.41405 -5.72074,-33.91422 12.65456,-2.13461 z"
         style="font-style:normal;font-variant:normal;font-weight:800;font-stretch:normal;font-size:93.33333588px;font-family:Overpass;-inkscape-font-specification:'Overpass Ultra-Bold';letter-spacing:10px;word-spacing:20px"
         id="path1000"
         inkscape:connector-curvature="0" />
      <path
         d="m 422.29837,604.67425 q 1.95462,5.94 1.4314,11.51628 -0.52322,5.57629 -3.31609,10.37645 -2.80746,4.75583 -7.6618,8.36747 l -8.06323,-10.02181 q 3.67319,-3.46861 5.31353,-7.88951 1.596,-4.40632 0.18109,-8.70617 -1.45868,-4.43284 -4.10701,-6.50907 -2.64834,-2.07624 -6.0173,-0.96765 -2.30508,0.75852 -3.30171,2.80596 -0.99662,2.04744 -1.21504,5.11614 -0.26275,3.08329 -0.26293,6.96448 -0.0148,3.83687 -0.22202,7.83533 -0.25156,4.01305 -1.35769,7.66862 -1.10612,3.65558 -3.69971,6.52329 -2.6525,2.83797 -7.39563,4.39875 -4.69881,1.54619 -9.41657,0.34744 -4.77667,-1.2285 -8.68685,-5.19854 -3.92477,-4.01437 -6.15654,-10.79661 -1.83793,-5.58537 -1.27266,-10.58596 0.52095,-4.98599 2.95636,-8.9316 2.4354,-3.94561 6.26734,-6.48389 l 7.50212,10.10819 q -2.414,2.21908 -3.51785,5.28437 -1.11844,3.02096 0.29648,7.32081 1.25446,3.81224 3.35854,5.4289 2.04517,1.58692 4.70487,0.71171 1.72881,-0.56888 2.51782,-2.35149 0.73009,-1.81235 0.90304,-4.57132 0.15837,-2.8033 0.21633,-6.35961 0.0311,-4.23525 0.34268,-8.5137 0.31162,-4.27845 1.56589,-8.08103 1.23967,-3.84691 4.01057,-6.77297 2.75631,-2.97038 7.72109,-4.6041 5.98433,-1.96921 11.18743,-0.34062 5.20309,1.62859 9.17049,6.07109 3.90848,4.41275 6.02356,10.84037 z"
         style="font-style:normal;font-variant:normal;font-weight:800;font-stretch:normal;font-size:93.33333588px;font-family:Overpass;-inkscape-font-specification:'Overpass Ultra-Bold';letter-spacing:10px;word-spacing:20px"
         id="path1002"
         inkscape:connector-curvature="0" />
    </g>
    <g
       aria-label="BOSS GEE"
       style="font-style:normal;font-variant:normal;font-weight:bold;font-stretch:normal;font-size:40px;line-height:125%;font-family:Impact;-inkscape-font-specification:'Impact Bold';letter-spacing:0px;word-spacing:0px;fill:#000000;fill-opacity:1;stroke:none;stroke-width:1px;stroke-linecap:butt;stroke-linejoin:miter;stroke-opacity:1"
       id="text955">
      <path
         d="m -223.79622,450.10897 -35.91041,-54.57919 24.95048,-16.41618 q 6.70545,-4.41185 12.01473,-4.8327 5.34826,-0.4465 9.21721,1.8679 3.88229,2.24975 6.31906,5.95334 2.41113,3.6646 2.9694,7.65451 0.57161,3.92526 -1.92437,7.85783 3.64209,-0.83219 6.74357,-0.0239 3.14047,0.78268 5.57512,2.70008 2.47365,1.89176 4.01266,4.23087 1.92377,2.92388 2.80828,6.47569 0.9235,3.52616 0.27935,7.30168 -0.60517,3.74987 -3.24274,7.55215 -2.62423,3.73764 -7.80926,7.14913 z m 4.30214,-17.91327 15.36014,-10.10622 q 2.612,-1.71857 3.43885,-3.60327 0.86582,-1.91036 0.57849,-3.6206 -0.274,-1.77489 -1.12046,-3.0614 -1.07731,-1.63737 -2.75375,-2.6571 -1.7021,-1.05872 -4.25362,-0.77648 -2.55153,0.28223 -6.25512,2.71901 l -13.17697,8.6698 z m -14.82587,-22.53341 12.51423,-8.23374 q 3.97648,-2.61633 4.80842,-5.34232 0.87092,-2.75163 -0.79634,-5.28566 -0.87211,-1.3255 -2.16075,-2.26522 -1.24964,-0.96537 -3.15278,-0.8863 -1.92878,0.0401 -4.61876,1.80996 l -13.8787,9.13151 z"
         style="font-style:normal;font-variant:normal;font-weight:800;font-stretch:normal;font-size:93.33333588px;font-family:Overpass;-inkscape-font-specification:'Overpass Ultra-Bold';letter-spacing:2.5px;word-spacing:19px"
         id="path1005"
         inkscape:connector-curvature="0" />
      <path
         d="m -141.22957,405.14679 q -7.25424,2.97349 -13.46454,2.34167 -6.22799,-0.67499 -11.23856,-3.91684 -4.98509,-3.30272 -8.71873,-8.22798 -3.69046,-4.94296 -5.99137,-10.55635 -2.30092,-5.6134 -3.1415,-11.72452 -0.7974,-6.12881 0.45313,-11.93707 1.276,-5.86913 5.25618,-10.67799 3.96248,-4.85204 11.21672,-7.82553 7.34059,-3.0089 13.52541,-2.3162 6.16712,0.64951 11.15221,3.95224 5.01057,3.24184 8.70103,8.1848 3.69045,4.94296 5.99137,10.55636 2.30092,5.61339 3.14149,11.72451 0.84058,6.11112 -0.43542,11.98025 -1.25053,5.80825 -5.16983,10.64259 -3.937,4.79116 -11.27759,7.80006 z m -4.92042,-12.00404 q 3.79983,-1.55754 5.66496,-4.38988 1.9083,-2.85004 2.32011,-6.39798 0.3941,-3.59111 -0.25239,-7.26004 -0.64649,-3.66893 -1.93854,-6.82107 -1.38055,-3.36803 -3.46968,-6.49606 -2.08913,-3.12803 -4.85495,-5.32303 -2.72264,-2.21271 -6.06459,-2.86024 -3.34195,-0.64754 -7.22815,0.9454 -3.8862,1.59294 -5.7768,4.48616 -1.90831,2.85004 -2.32011,6.39798 -0.4118,3.54793 0.29557,7.24234 0.70737,3.69441 1.99942,6.84655 1.36285,3.32485 3.45198,6.45288 2.11461,3.06715 4.88042,5.26216 2.809,2.1773 6.15095,2.82484 3.34196,0.64753 7.1418,-0.91001 z"
         style="font-style:normal;font-variant:normal;font-weight:800;font-stretch:normal;font-size:93.33333588px;font-family:Overpass;-inkscape-font-specification:'Overpass Ultra-Bold';letter-spacing:2.5px;word-spacing:19px"
         id="path1007"
         inkscape:connector-curvature="0" />
      <path
         d="m -79.070888,385.85506 q -6.108477,1.33816 -11.602241,0.24855 -5.493765,-1.08962 -9.983811,-4.35782 -4.44447,-3.27819 -7.54179,-8.47579 l 10.79242,-6.99828 q 3.075599,4.00803 7.306003,6.091 4.220418,2.0374 8.642226,1.06872 4.558565,-0.99863 6.894251,-3.42123 2.335687,-2.42261 1.576726,-5.88712 -0.519288,-2.37045 -2.454321,-3.57084 -1.935032,-1.20039 -4.965415,-1.73087 -3.040369,-0.57606 -6.901279,-0.97237 -3.815325,-0.40629 -7.771753,-1.02054 -3.966414,-0.65984 -7.490008,-2.13328 -3.5236,-1.47344 -6.11162,-4.34617 -2.55243,-2.9283 -3.62097,-7.80596 -1.05855,-4.83208 0.61545,-9.40285 1.7096,-4.62635 6.05799,-8.11092 4.39398,-3.49456 11.368583,-5.02247 5.743792,-1.25828 10.660569,-0.18558 4.906792,1.02711 8.583234,3.85249 3.676441,2.82539 5.810368,6.89638 l -10.821088,6.43128 q -1.961109,-2.62788 -4.897731,-4.03882 -2.891037,-1.42092 -7.312845,-0.45224 -3.920365,0.85882 -5.743329,2.78692 -1.787364,1.87252 -1.188185,4.60766 0.389467,1.77784 2.082239,2.74466 1.728371,0.91125 4.455281,1.36489 2.772495,0.44365 6.30432,0.86428 4.209969,0.46316 8.43427,1.20982 4.224301,0.74666 7.879013,2.38247 3.700298,1.62583 6.32827,4.6809 2.673557,3.04508 3.792025,8.15067 1.348153,6.15407 -0.802971,11.16377 -2.151124,5.00971 -6.975343,8.50298 -4.788619,3.43769 -11.398538,4.88571 z"
         style="font-style:normal;font-variant:normal;font-weight:800;font-stretch:normal;font-size:93.33333588px;font-family:Overpass;-inkscape-font-specification:'Overpass Ultra-Bold';letter-spacing:2.5px;word-spacing:19px"
         id="path1009"
         inkscape:connector-curvature="0" />
      <path
         d="m -19.67937,377.75489 q -6.242831,0.36227 -11.497313,-1.57658 -5.254482,-1.93884 -9.175573,-5.87162 -3.874502,-3.93548 -6.117158,-9.555 l 11.757535,-5.21658 q 2.408009,4.44129 6.258807,7.16278 3.848095,2.67489 8.367159,2.41265 4.658829,-0.27036 7.345984,-2.2961 2.687156,-2.02575 2.481686,-5.56646 -0.140584,-2.42259 -1.863095,-3.91197 -1.72251,-1.48937 -4.631985,-2.48917 -2.912177,-1.04637 -6.662945,-2.04409 -3.704178,-1.00042 -7.515051,-2.22837 -3.813577,-1.27454 -7.062059,-3.28306 -3.248482,-2.00851 -5.353257,-5.25202 -2.060891,-3.2928 -2.35017,-8.27775 -0.286576,-4.93836 2.084456,-9.18953 2.414917,-4.30046 7.256576,-7.05891 4.888248,-2.76117 12.016256,-3.17481 5.870125,-0.34065 10.557437,1.49088 4.6846079,1.78494 7.8717279,5.15262 3.18712,3.36768 4.6552524,7.72328 l -11.6968013,4.65211 q -1.524087,-2.90325 -4.202695,-4.75785 -2.63202,-1.8573 -7.151084,-1.59506 -4.006593,0.2325 -6.10973,1.8504 -2.059251,1.5686 -1.897038,4.36389 0.105438,1.81695 1.625374,3.03761 1.563821,1.17137 4.185655,2.04762 2.668423,0.87354 6.090368,1.84359 4.084996,1.11856 8.139624,2.51935 4.0546292,1.40079 7.407102,3.59024 3.3990611,2.18676 5.51465044,5.61662 2.16217766,3.42716 2.46497476,8.64505 0.3649786,6.28942 -2.54618825,10.89915 -2.91116685,4.60973 -8.22411595,7.30205 -5.269064,2.64302 -12.024366,3.03504 z"
         style="font-style:normal;font-variant:normal;font-weight:800;font-stretch:normal;font-size:93.33333588px;font-family:Overpass;-inkscape-font-specification:'Overpass Ultra-Bold';letter-spacing:2.5px;word-spacing:19px"
         id="path1011"
         inkscape:connector-curvature="0" />
      <path
         d="m 88.88775,387.48359 q -7.353463,-1.75504 -12.014281,-5.74608 -4.604593,-4.02559 -6.847721,-9.50263 -2.232295,-5.52243 -2.468862,-11.76797 -0.225735,-6.29094 1.258469,-12.50961 1.397536,-5.85554 4.407506,-11.23028 3.066197,-5.4093 7.61894,-9.4083 4.598135,-3.98818 10.556929,-5.63655 5.958794,-1.64837 13.17608,0.0742 6.12789,1.46254 9.95259,4.53436 3.83554,3.02643 6.06221,6.96426 2.22667,3.93783 3.6404,8.06546 l -12.98793,3.76095 q -1.308,-3.76655 -3.50271,-6.83316 -2.18388,-3.11201 -6.13297,-4.05453 -4.130646,-0.98586 -7.354554,0.25974 -3.223908,1.24561 -5.583862,3.89685 -2.359955,2.65123 -3.942078,6.06384 -1.582123,3.41261 -2.383809,6.7716 -0.920857,3.8583 -0.981328,7.73004 -0.04964,3.82634 0.936507,7.13226 1.031536,3.31675 3.343364,5.69165 2.368053,2.34035 6.226352,3.2612 2.768897,0.66085 5.376383,-0.0122 2.663712,-0.70762 4.569205,-2.4598 1.91632,-1.79757 2.51217,-4.29412 l 0.17334,-0.72627 -10.530889,-2.51339 2.968408,-12.43734 23.921451,5.70931 -2.30756,9.66844 q -1.93921,8.12512 -6.41461,13.00618 -4.4754,4.88106 -10.52498,6.50777 -6.049573,1.6267 -12.72216,0.0342 z"
         style="font-style:normal;font-variant:normal;font-weight:800;font-stretch:normal;font-size:93.33333588px;font-family:Overpass;-inkscape-font-specification:'Overpass Ultra-Bold';letter-spacing:2.5px;word-spacing:19px"
         id="path1014"
         inkscape:connector-curvature="0" />
      <path
         d="m 127.27237,397.29341 26.38234,-59.7697 42.00956,18.54301 -5.14456,11.6551 -29.71408,-13.11579 -5.05033,11.44163 16.94898,7.48127 -5.14456,11.65509 -16.94898,-7.48127 -5.86064,13.27741 31.46448,13.88841 -5.18225,11.74048 z"
         style="font-style:normal;font-variant:normal;font-weight:800;font-stretch:normal;font-size:93.33333588px;font-family:Overpass;-inkscape-font-specification:'Overpass Ultra-Bold';letter-spacing:2.5px;word-spacing:19px"
         id="path1016"
         inkscape:connector-curvature="0" />
      <path
         d="m 182.82132,423.32116 35.68677,-54.72567 38.46433,25.0827 -6.95893,10.67151 -27.20647,-17.74143 -6.83147,10.47606 15.51864,10.11975 -6.95892,10.67151 -15.51864,-10.11975 -7.92756,12.15691 28.80916,18.78654 -7.0099,10.74968 z"
         style="font-style:normal;font-variant:normal;font-weight:800;font-stretch:normal;font-size:93.33333588px;font-family:Overpass;-inkscape-font-specification:'Overpass Ultra-Bold';letter-spacing:2.5px;word-spacing:19px"
         id="path1019"
         inkscape:connector-curvature="0" />
    </g>
  </g>
  <g
     inkscape:groupmode="layer"
     id="layer10"
     inkscape:label="Sprue Template"
     style="display:none">
    <circle
       style="display:inline;opacity:1;fill:#0000e0;fill-opacity:1;stroke:none;stroke-width:46.21465683;stroke-linejoin:round;stroke-miterlimit:6.4000001;stroke-dasharray:none;stroke-dashoffset:0;stroke-opacity:1;paint-order:markers stroke fill"
       id="path5763"
       cx="0"
       cy="745"
       r="6.0900416" />
  </g>
  <g
     style="display:inline"
     inkscape:label="Sprue Template Outer"
     id="g6452"
     inkscape:groupmode="layer">
    <circle
       r="6.0900416"
       cy="745"
       cx="-462.13651"
       id="circle6450"
       style="display:inline;opacity:1;fill:#0000e0;fill-opacity:1;stroke:none;stroke-width:46.21465683;stroke-linejoin:round;stroke-miterlimit:6.4000001;stroke-dasharray:none;stroke-dashoffset:0;stroke-opacity:1;paint-order:markers stroke fill" />
  </g>
  <g
     inkscape:groupmode="layer"
     id="g7468"
     inkscape:label="Sprue Template Outer Larger"
     style="display:inline;opacity:0.48300003">
    <path
       style="display:inline;opacity:1;fill:#0000e0;fill-opacity:1;stroke:none;stroke-width:46.21465683;stroke-linejoin:round;stroke-miterlimit:6.4000001;stroke-dasharray:none;stroke-dashoffset:0;stroke-opacity:1;paint-order:markers stroke fill"
       d="m -462.87109,722.81055 c -19.73585,-0.88605 -28.61691,28.98768 -12.92774,40.03906 13.19225,11.43002 35.24081,-0.6272 35.9336,-17.125 1.07216,-12.48834 -10.90125,-23.26017 -23.00586,-22.91406 z"
       id="circle7466"
       inkscape:connector-curvature="0" />
  </g>
  <g
     inkscape:groupmode="layer"
     id="g6456"
     inkscape:label="Sprue Template Inner"
     style="display:inline">
    <circle
       style="display:inline;opacity:1;fill:#0000e0;fill-opacity:1;stroke:none;stroke-width:45.62179947;stroke-linejoin:round;stroke-miterlimit:6.4000001;stroke-dasharray:none;stroke-dashoffset:0;stroke-opacity:1;paint-order:markers stroke fill"
       id="circle6454"
       cx="-351.15009"
       cy="745"
       r="6.0119166" />
  </g>
  <g
     style="display:inline;opacity:0.612"
     inkscape:label="Sprue Template Inner Larger"
     id="g7478"
     inkscape:groupmode="layer">
    <path
       style="display:inline;opacity:1;fill:#0000e0;fill-opacity:1;stroke:none;stroke-width:45.62179947;stroke-linejoin:round;stroke-miterlimit:6.4000001;stroke-dasharray:none;stroke-dashoffset:0;stroke-opacity:1;paint-order:markers stroke fill"
       d="m -352.35742,722.9082 c -19.39226,-0.42606 -27.87176,28.95802 -12.42969,39.85938 13.40959,11.6447 35.96901,-1.10592 35.87891,-17.96875 0.38698,-12.26907 -11.52581,-22.49945 -23.44922,-21.89063 z"
       id="circle7476"
       inkscape:connector-curvature="0" />
  </g>
  <g
     style="display:inline"
     inkscape:label="Sprue Template Cheek"
     id="g6460"
     inkscape:groupmode="layer">
    <circle
       r="5.9181666"
       cy="745"
       cx="-209.93495"
       id="circle6458"
       style="display:inline;opacity:1;fill:#0000e0;fill-opacity:1;stroke:none;stroke-width:44.91037369;stroke-linejoin:round;stroke-miterlimit:6.4000001;stroke-dasharray:none;stroke-dashoffset:0;stroke-opacity:1;paint-order:markers stroke fill" />
  </g>
  <g
     inkscape:groupmode="layer"
     id="g7488"
     inkscape:label="Sprue Template Cheek Larger"
     style="display:inline;opacity:0.478">
    <path
       style="display:inline;opacity:1;fill:#0000e0;fill-opacity:1;stroke:none;stroke-width:44.91037369;stroke-linejoin:round;stroke-miterlimit:6.4000001;stroke-dasharray:none;stroke-dashoffset:0;stroke-opacity:1;paint-order:markers stroke fill"
       d="m -211.17383,723.00781 c -19.32936,-0.42367 -27.63472,28.83329 -12.31836,39.68946 13.30041,11.58451 35.70521,-1.01324 35.67578,-17.76368 0.52897,-12.3093 -11.41123,-22.56914 -23.35742,-21.92578 z"
       id="circle7486"
       inkscape:connector-curvature="0" />
  </g>
</svg>
