<?xml version="1.0" encoding="UTF-8" standalone="no"?>
<svg
   xmlns:dc="http://purl.org/dc/elements/1.1/"
   xmlns:cc="http://creativecommons.org/ns#"
   xmlns:rdf="http://www.w3.org/1999/02/22-rdf-syntax-ns#"
   xmlns:svg="http://www.w3.org/2000/svg"
   xmlns="http://www.w3.org/2000/svg"
   viewBox="0 0 570 745"
   height="745"
   width="570"
   id="svg885"
   version="1.1">
  <metadata
     id="metadata891">
    <rdf:RDF>
      <cc:Work
         rdf:about="">
        <dc:format>image/svg+xml</dc:format>
        <dc:type
           rdf:resource="http://purl.org/dc/dcmitype/StillImage" />
        <dc:title></dc:title>
      </cc:Work>
    </rdf:RDF>
  </metadata>
  <defs
     id="defs889" />
  <g
     style="display:inline"
     id="layer4">
    <path
       d="m 418.72951,53.857463 c 31.83931,18.035477 55.79039,38.243904 74.98692,68.764877 18.92292,30.08596 17.07556,53.33531 23.53964,84.85797 1.75128,8.54028 6.2151,19.00564 9.53687,27.67136 6.43451,16.78608 7.71867,37.28587 3.72834,54.57055 -2.94922,12.77493 -12.54165,25.22677 -15.5817,37.98039 -2.15343,9.03405 0.20984,20.2683 -0.39832,29.53553 -0.89324,13.61113 -9.35354,12.39379 -12.61626,22.83668 8.06512,8.29715 11.79887,11.24185 15.47369,18.59695 4.99801,10.00343 1.62552,17.41005 -3.58152,27.37179 -5.96311,11.4082 -15.6716,23.90945 -23.80818,33.8845 -10.94014,13.41208 -16.53927,5.54745 -29.60537,12.51394 -2.16127,29.05747 -4.99061,44.67541 -3.69372,74.52805 0.53213,12.24898 5.77773,26.21864 4.78932,38.43927 -0.70816,8.75563 0.59013,17.13725 -4.90747,24.77426 -2.86062,3.97383 -1.81971,3.99881 -7.5092,7.48472 -16.3413,10.01217 -18.20702,22.41588 -32.42904,36.13772 -13.48334,13.00914 -27.79274,29.43565 -44.1037,38.65469 -7.45691,4.21468 -18.07992,14.59502 -26.50088,16.1623 -10.74933,2.00062 -25.42546,-1.34264 -41.59058,-1.34264 -16.16512,0 -37.72745,3.34326 -48.47678,1.34264 -8.42096,-1.56728 -15.77303,-7.12728 -23.22994,-11.34196 -16.31096,-9.21904 -34.23561,-16.69348 -47.71895,-29.70262 -14.22202,-13.72184 -17.37847,-37.21986 -33.11111,-49.17974 -5.31187,-4.03806 -12.9923,-2.54932 -17.61296,-7.36299 -6.08303,-6.33714 -7.973,-15.5317 -8.68116,-24.28733 -0.98841,-12.22063 3.1616,-28.74666 3.69373,-40.99564 1.29689,-29.85264 -0.0717,-56.06127 -2.23294,-85.11874 -13.0661,-6.96649 -25.48222,-7.37963 -34.109442,-23.83501 -5.977218,-11.40082 -17.939965,-20.27026 -17.504942,-33.13558 0.301915,-8.92881 3.80358,-16.38514 10.879506,-18.07542 8.072439,-1.92833 9.068957,-6.09591 13.407828,-12.05505 -3.262715,-10.44289 -9.155031,-6.92847 -12.114131,-20.02313 -2.047074,-9.05874 -0.281216,-18.72085 -2.434641,-27.7549 -3.04005,-12.75362 -11.658626,-23.74468 -14.607843,-36.51961 -3.990336,-17.28468 -7.575447,-39.73218 -1.140944,-56.51826 3.321777,-8.66572 7.043733,-17.04388 10.023799,-25.23672 11.820294,-32.49652 4.873302,-67.53158 28.24183,-94.3113 23.32825,-26.733558 51.99586,-50.916755 84.17948,-65.85344 32.78516,-15.215864 74.01182,-22.975301 112.18441,-22.999598 38.41113,-0.02445 83.18739,11.727125 114.63636,29.541491 z"
       style="display:inline;fill:none;fill-rule:evenodd;stroke:#000000;stroke-width:1px;stroke-linecap:butt;stroke-linejoin:miter;stroke-opacity:1"
       id="path897" />
  </g>
</svg>
