<?xml version="1.0" encoding="UTF-8" standalone="no"?>
<!-- Created with Inkscape (http://www.inkscape.org/) -->

<svg
   xmlns:dc="http://purl.org/dc/elements/1.1/"
   xmlns:cc="http://creativecommons.org/ns#"
   xmlns:rdf="http://www.w3.org/1999/02/22-rdf-syntax-ns#"
   xmlns:svg="http://www.w3.org/2000/svg"
   xmlns="http://www.w3.org/2000/svg"
   xmlns:xlink="http://www.w3.org/1999/xlink"
   xmlns:sodipodi="http://sodipodi.sourceforge.net/DTD/sodipodi-0.dtd"
   xmlns:inkscape="http://www.inkscape.org/namespaces/inkscape"
   version="1.1"
   id="svg885"
   width="570"
   height="745"
   viewBox="0 0 570 745"
   sodipodi:docname="skull.svg"
   inkscape:version="0.92.5 (2060ec1f9f, 2020-04-08)">
  <metadata
     id="metadata891">
    <rdf:RDF>
      <cc:Work
         rdf:about="">
        <dc:format>image/svg+xml</dc:format>
        <dc:type
           rdf:resource="http://purl.org/dc/dcmitype/StillImage" />
        <dc:title />
      </cc:Work>
    </rdf:RDF>
  </metadata>
  <defs
     id="defs889" />
  <sodipodi:namedview
     pagecolor="#ffffff"
     bordercolor="#666666"
     borderopacity="1"
     objecttolerance="10"
     gridtolerance="10"
     guidetolerance="10"
     inkscape:pageopacity="0"
     inkscape:pageshadow="2"
     inkscape:window-width="1280"
     inkscape:window-height="968"
     id="namedview887"
     showgrid="false"
     inkscape:zoom="0.70710678"
     inkscape:cx="-232.36309"
     inkscape:cy="65.722606"
     inkscape:window-x="0"
     inkscape:window-y="0"
     inkscape:window-maximized="1"
     inkscape:current-layer="g2794"
     showguides="true"
     inkscape:guide-bbox="true"
     inkscape:snap-bbox="true"
     inkscape:snap-text-baseline="true"
     inkscape:snap-object-midpoints="true"
     inkscape:snap-to-guides="true">
    <sodipodi:guide
       position="0,0"
       orientation="1,0"
       id="guide6446"
       inkscape:locked="false"
       inkscape:label=""
       inkscape:color="rgb(0,0,255)" />
    <sodipodi:guide
       position="0,0"
       orientation="0,1"
       id="guide6448"
       inkscape:locked="false"
       inkscape:label=""
       inkscape:color="rgb(0,0,255)" />
  </sodipodi:namedview>
  <g
     inkscape:groupmode="layer"
     id="layer1"
     inkscape:label="Photo Reference"
     style="display:none">
    <image
       sodipodi:absref="/home/jasonrohrer/checkout/jason-rohrer/design/bossGee/skullPhoto.jpg"
       xlink:href="skullPhoto.jpg"
       width="570"
       height="745"
       preserveAspectRatio="none"
       id="image893"
       x="-287.36066"
       y="376.66229"
       style="opacity:1;fill:#ff0000;image-rendering:auto"
       inkscape:label="image893" />
  </g>
  <g
     inkscape:groupmode="layer"
     id="layer4"
     inkscape:label="Skull Outline"
     style="display:inline">
    <path
       id="path897"
       style="display:inline;fill:none;fill-rule:evenodd;stroke:#000000;stroke-width:1px;stroke-linecap:butt;stroke-linejoin:miter;stroke-opacity:1"
       d="m 119.20998,432.52479 c 31.83931,18.03548 55.79039,38.2439 74.98692,68.76488 18.92292,30.08596 17.07556,53.33531 23.53964,84.85797 1.75128,8.54028 6.2151,19.00564 9.53687,27.67136 6.43451,16.78608 7.71867,37.28587 3.72834,54.57055 -2.94922,12.77493 -12.54165,25.22677 -15.5817,37.98039 -2.15343,9.03405 0.20984,20.2683 -0.39832,29.53553 -0.89324,13.61113 -9.35354,12.39379 -12.61626,22.83668 8.06512,8.29715 11.79887,11.24185 15.47369,18.59695 4.99801,10.00343 1.62552,17.41005 -3.58152,27.37179 -5.96311,11.4082 -15.6716,23.90945 -23.80818,33.8845 -10.94014,13.41208 -16.53927,5.54745 -29.60537,12.51394 -2.16127,29.05747 -4.99061,44.67541 -3.69372,74.52805 0.53213,12.24898 5.77773,26.21864 4.78932,38.43927 -0.70816,8.75563 0.59013,17.13725 -4.90747,24.77426 -2.86062,3.97383 -1.81971,3.99881 -7.5092,7.48472 -16.3413,10.01217 -18.20702,22.41587 -32.42904,36.13767 -13.48334,13.0092 -27.792741,29.4357 -44.103701,38.6547 -7.45691,4.2147 -18.07992,14.5951 -26.50088,16.1623 -10.74933,2.0007 -25.42546,-1.3426 -41.5905802,-1.3426 -16.1651198,0 -37.7274498,3.3433 -48.4767798,1.3426 -8.42096,-1.5672 -15.77303,-7.1272 -23.22994,-11.3419 -16.31096,-9.2191 -34.235609,-16.6935 -47.718949,-29.7026 -14.22202,-13.7219 -17.37847,-37.2199 -33.11111,-49.17978 -5.31187,-4.03806 -12.9923,-2.54932 -17.61296,-7.36299 -6.08303,-6.33714 -7.973,-15.5317 -8.68116,-24.28733 -0.98841,-12.22063 3.1616,-28.74666 3.69373,-40.99564 1.29689,-29.85264 -0.0717,-56.06127 -2.23294,-85.11874 -13.0661,-6.96649 -25.48222,-7.37963 -34.10944,-23.83501 -5.97722,-11.40082 -17.93997,-20.27026 -17.50495,-33.13558 0.30192,-8.92881 3.80358,-16.38514 10.87951,-18.07542 8.07244,-1.92833 9.06896,-6.09591 13.40783,-12.05505 -3.26272,-10.44289 -9.15503,-6.92847 -12.11413,-20.02313 -2.04708,-9.05874 -0.28122,-18.72085 -2.43464,-27.7549 -3.04005,-12.75362 -11.65863,-23.74468 -14.60785,-36.51961 -3.99033,-17.28468 -7.57544,-39.73218 -1.14094,-56.51826 3.32178,-8.66572 7.04373,-17.04388 10.0238,-25.23672 11.82029,-32.49652 4.8733,-67.53158 28.24183,-94.3113 23.32825,-26.73356 51.99586,-50.91676 84.17948,-65.85344 32.785159,-15.21587 74.011819,-22.9753 112.1844088,-22.9996 38.4111302,-0.0245 83.1873902,11.72712 114.6363612,29.54149 z"
       inkscape:connector-curvature="0"
       sodipodi:nodetypes="ssssssscssscsssssssssssscsscssscsssssssss" />
  </g>
  <g
     inkscape:groupmode="layer"
     id="layer5"
     inkscape:label="Skull Ridge Outline"
     style="display:inline;opacity:0.36199999">
    <path
       style="display:inline;fill:#ff8b00;fill-opacity:1;fill-rule:evenodd;stroke:none;stroke-width:1px;stroke-linecap:butt;stroke-linejoin:miter;stroke-opacity:1"
       d="m 5.069896,393.00717 c -1.38065,-0.0112 -2.76192,-0.0106 -4.14258003,0.002 -61.89249997,0.52618 -125.59206597,20.02408 -171.22851597,63.1543 -20.43334,17.74751 -41.35483,38.40731 -47.0957,65.92188 -6.31744,26.13814 -5.85217,54.38999 -19.4043,78.36133 -12.13198,28.53786 -6.86915,61.38296 5.37109,88.94531 3.67704,8.00949 8.65112,16.01209 8.17969,25.01953 0.2141,12.56548 0.52987,26.94775 10.38281,36.21289 3.63527,2.58946 -3.23257,3.14658 -4.44531,4.55078 -7.59719,2.76006 -13.33521,9.07527 -15.33203,16.89844 -4.48205,14.417 2.2386,29.73695 12.05078,40.2793 7.17716,11.90338 15.47307,24.90205 29.35352,29.69726 3.75546,2.08538 11.04434,2.12046 9.56836,8.28907 2.87325,36.11651 2.8543,72.60949 -2.30664,108.48632 -0.46991,15.03991 2.93985,32.8036 16.50586,41.48442 7.45779,3.4515 17.54698,3.9063 20.91601,12.8203 10.88046,16.8683 17.26746,38.5235 35.77149,49.0117 18.829026,12.8164 39.454436,22.8299 59.562496,33.2871 23.54357,6.9602 47.8658599,-3.1189 71.59765,1.5117 15.90099,1.9991 34.02489,1.8868 46.70313,-9.3808 20.59777,-13.6136 40.231114,-28.8843 56.492194,-47.5821 9.60936,-9.9114 16.63346,-22.066 26.49023,-31.6894 6.51267,-5.3276 14.51511,-9.53778 17.58203,-17.90628 9.35233,-21.37462 1.58153,-44.90142 -0.48242,-66.81054 -1.54877,-17.7902 0.79638,-35.58994 2.03906,-53.46875 0.75313,-3.88007 0.45681,-8.81308 2.29688,-11.79493 10.97983,-1.2656 22.81456,-5.33177 28.32812,-15.68554 13.35551,-16.57476 28.45007,-34.47834 30.48633,-56.52539 -0.4163,-11.30681 -7.5851,-20.86089 -14.96094,-28.83985 7.44084,-7.30869 11.16643,-17.86057 9.60938,-28.22265 -0.61227,-11.42763 -1.39384,-23.5234 5.55078,-33.46485 9.00705,-16.82001 14.88984,-35.85629 12.67383,-55.10742 -1.61893,-25.69613 -16.14281,-48.29868 -18.63477,-73.82031 -3.73389,-24.71236 -7.56223,-50.74643 -22.56445,-71.57227 -36.31651,-57.43506 -101.7285,-91.62764 -168.003914,-100.10552 -9.58693,-1.22048 -19.24564,-1.87871 -28.91015,-1.95703 z m -4.06055,12.00195 c 32.33439,-0.38187 64.89442,6.48399 95.07617,18.60352 42.812894,18.13021 82.310444,48.79928 103.312504,91.26367 13.65432,27.03499 10.32159,58.56101 20.91797,86.5254 7.39421,16.82708 12.4155,34.83457 10.68359,53.36523 -0.13346,15.15519 -7.9915,28.29897 -14.24414,41.56445 -6.4467,12.24695 -3.52392,26.25632 -3.74023,39.4043 0.62507,10.31418 -11.24118,14.06325 -12.91211,23.5293 5.85199,6.23825 12.87453,11.801 16.38476,19.83203 5.55038,11.99633 -3.59669,23.71282 -9.29492,33.72656 -7.5016,10.46593 -14.41225,21.90825 -24.35937,30.22266 -7.42297,3.93798 -16.73206,1.74249 -23.86914,6.78711 -1.61337,22.24238 -4.64459,44.4457 -4.06446,66.79296 -1.06584,17.20942 6.68978,33.52301 4.87891,50.61914 0.34351,9.4658 -1.34357,20.35711 -9.50977,26.27344 -13.09002,6.79001 -20.12897,20.15091 -28.8125,31.33201 -14.26231,14.6976 -28.095804,30.0802 -44.984374,41.8203 -11.22512,5.5372 -19.65039,16.5784 -32.28906,18.9512 -16.95806,1.0926 -34.10673,-3.1848 -51.2597701,-1.2383 -14.9657199,0.088 -31.1018599,4.8823 -45.1718699,-2.3047 -17.78741,-11.165 -37.57194,-19.1136 -54.386716,-31.6797 -18.94004,-12.707 -21.15972,-38.1426 -37.5,-53.05659 -5.66717,-6.73843 -16.72211,-3.65026 -21.54492,-11.29687 -9.80216,-15.04912 -5.90486,-33.98731 -3.62305,-50.51563 3.36722,-32.39461 0.94949,-65.08688 -1.22852,-97.48828 -10.64706,-5.91134 -24.23208,-8.03596 -31.42187,-18.86914 -4.68119,-8.79201 -11.17097,-16.38115 -16.5918,-24.69336 -5.4353,-8.34274 -5.06576,-22.40531 4.25586,-27.76172 6.48985,-1.06779 11.74407,-5.45007 14.68164,-11.24414 3.82559,-3.32491 0.13901,-8.14559 -2.33203,-11.24023 -7.2885,-5.13866 -9.15232,-14.40212 -9.04883,-22.48047 0.57561,-11.56921 -1.76783,-23.13096 -7.34961,-33.31836 -9.16836,-15.9579 -12.34434,-34.71981 -13.22851,-52.70508 -1.3685,-15.64115 5.81336,-29.87147 11.50976,-43.91406 12.82522,-29.18764 6.9298,-63.65971 24.11133,-91.13867 13.79458,-18.65933 31.18608,-34.51323 49.44727,-48.73829 41.677,-32.66713 95.600616,-46.08798 147.507806,-46.92969 z"
       id="path7767"
       inkscape:connector-curvature="0" />
  </g>
  <g
     inkscape:groupmode="layer"
     id="layer2"
     inkscape:label="Skull Holes"
     style="display:inline">
    <path
       style="fill:none;fill-rule:evenodd;stroke:#ff0000;stroke-width:1px;stroke-linecap:butt;stroke-linejoin:miter;stroke-opacity:1"
       d="m -135.62789,777.97992 c 16.89873,5.18427 36.449559,5.45464 53.023759,-0.68862 18.94585,-7.02231 41.5893,-19.30294 46.48188,-38.90704 4.88713,-19.58227 -8.8242,-41.48932 -22.72447,-56.12256 -8.98218,-9.45582 -16.56942,-15.70536 -29.61068,-15.83827 -13.924819,-0.14191 -29.239249,11.99791 -44.071699,16.18258 -12.86494,3.62958 -30.39998,9.69602 -37.52981,21.00292 -6.18772,9.81285 -0.43836,18.28332 2.06586,29.61067 2.44318,11.05126 5.97566,22.52462 13.08379,31.33223 4.91885,6.09489 11.79365,11.13097 19.28137,13.42809 z"
       id="path900"
       inkscape:connector-curvature="0"
       sodipodi:nodetypes="ssssssssss" />
    <path
       style="fill:none;fill-rule:evenodd;stroke:#ff0000;stroke-width:1px;stroke-linecap:butt;stroke-linejoin:miter;stroke-opacity:1"
       d="m 77.606289,670.33727 c -4.44066,1.63499 -5.6614,1.12136 -9.4951,3.89542 -7.64482,5.53178 -16.96412,10.18787 -21.42484,18.50327 -4.8726,9.0832 -3.76375,16.041 -7.06045,25.80719 -1.1397,3.37625 -1.78343,10.5809 -2.19118,14.12091 -0.89303,7.7531 2.21691,16.09414 6.81699,22.39869 6.05065,8.29259 16.26049,12.70262 25.32026,17.52942 11.38524,6.06575 23.44189,11.31213 36.032681,14.12091 9.68409,2.16035 20.3199,5.17469 29.70262,1.94771 9.45774,-3.25278 17.33625,-11.33844 22.39869,-19.96405 10.60418,-18.06787 13.63809,-40.89666 13.63399,-61.35294 -0.002,-9.65161 -13.63793,-12.07286 -21.91177,-17.04248 -9.9024,-5.94781 -20.3172,-9.45146 -31.65032,-11.68628 -7.01392,-1.3831 -12.23888,-1.91157 -18.503271,-5.3562 -3.47217,-1.90926 -7.54576,-2.36165 -11.19935,-3.89544 -2.73098,-1.14648 -7.68949,-0.0495 -10.46895,0.97387 z"
       id="path902"
       inkscape:connector-curvature="0"
       sodipodi:nodetypes="ssssssssssssssss" />
    <path
       style="fill:none;fill-rule:evenodd;stroke:#ff0000;stroke-width:1px;stroke-linecap:butt;stroke-linejoin:miter;stroke-opacity:1"
       d="m -3.7571013,747.68063 c -4.32002,-0.46169 -8.6184897,-4.13043 -12.7394697,-2.75448 -7.48621,2.49956 -11.03155,10.84716 -13.77241,18.24844 -8.36611,22.59143 -15.1287,49.57814 -15.14965,70.23927 -0.008,7.54546 9.95441,18.68526 17.21551,27.88913 3.45479,4.37915 7.85782,11.99749 13.4281,11.70654 3.8935,-0.20337 4.8314397,-7.7908 8.2634397,-9.64068 1.24965,-0.67358 3.21743,0.0319 4.47603,0.68862 2.28658005,1.19309 0.5949101,5.82047 2.75448005,7.23051 3.84877995,2.51297 10.59526025,2.63311 13.77241025,-0.68862 10.15711,-10.61933 15.82345,-18.90577 22.72447,-29.26636 5.53862,-8.31519 2.12182,-19.03446 0.68862,-28.92206 -2.36397,-16.30896 -7.00876,-31.11013 -13.7724,-46.13756 -2.95263,-6.56014 -4.15209,-16.58873 -10.67362,-19.62568 -2.92985,-1.36437 -6.4133302,0.86053 -9.6406802,1.03293 -2.52135,0.13469 -5.0641801,0.26832 -7.5748301,0 z"
       id="path904"
       inkscape:connector-curvature="0"
       sodipodi:nodetypes="ssssssssssssssss" />
    <path
       style="fill:none;fill-rule:evenodd;stroke:#ff0000;stroke-width:1px;stroke-linecap:butt;stroke-linejoin:miter;stroke-opacity:1"
       d="m -78.366111,925.27881 c -6.52899,4.28172 -4.12459,16.40204 -0.68862,23.4131 1.5002,3.06113 5.01042,5.0061 8.26344,6.02542 2.41005,0.75518 9.04565,1.5461 8.06176,-1.38947 -3.17957,-9.48663 -3.43506,-8.48859 -4.27434,-13.0629 -0.70694,-3.85302 1.30381,-7.71035 -1.03293,-10.85442 -2.21207,-2.97633 -7.22833,-6.16536 -10.32931,-4.13173 z"
       id="path955"
       inkscape:connector-curvature="0"
       sodipodi:nodetypes="sssssss" />
    <path
       style="opacity:1;fill:none;fill-rule:evenodd;stroke:#ff0000;stroke-width:1px;stroke-linecap:butt;stroke-linejoin:miter;stroke-opacity:1"
       d="m -57.297331,934.68148 c -2.07937,-0.002 -4.07852,2.01703 -4.82034,3.95957 -1.74015,4.55677 0.69798,11.06228 3.09013,15.31315 1.61791,2.87504 3.49529,4.83406 6.72271,5.51761 2.22089,0.47037 4.55483,0.84912 5.8115,-1.04158 2.75029,-4.1377 0.6539,-11.41549 -1.72155,-15.77919 -2.02698,-3.72355 -4.84294,-7.9656 -9.08245,-7.96956 z"
       id="path957"
       inkscape:connector-curvature="0"
       sodipodi:nodetypes="sssssss" />
    <path
       style="fill:none;fill-rule:evenodd;stroke:#ff0000;stroke-width:1px;stroke-linecap:butt;stroke-linejoin:miter;stroke-opacity:1"
       d="m -30.613291,938.98536 c -0.67271,-0.14716 -5.82349,0.16894 -7.91913,1.89371 -2.24052,1.84401 -2.88133,5.1117 -3.61526,7.91913 -0.87387,3.3427 -0.75791,7.00749 -0.13039,11.05969 0.39264,2.53545 7.65264,4.44283 12.3534,5.63935 4.89889,1.24695 14.69617,3.2887 15.14965,0.68862 1.29924,-7.4493 -1.1137,-13.88083 -4.22392,-19.69698 -1.47351,-2.75547 -3.35408,-4.81716 -6.10539,-6.29843 -1.65511,-0.89109 -5.50896,-1.20509 -5.50896,-1.20509 z"
       id="path959"
       inkscape:connector-curvature="0"
       sodipodi:nodetypes="sssssssss" />
    <path
       style="fill:none;fill-rule:evenodd;stroke:#ff0000;stroke-width:1px;stroke-linecap:butt;stroke-linejoin:miter;stroke-opacity:1"
       d="m 4.3236088,943.12158 c -3.23402,-0.28084 -7.80282,-0.75629 -10.4689501,1.09559 -3.62756,2.51968 -3.01571,6.99278 -3.8954297,11.32107 -0.7281,3.58232 -1.27893,7.83974 -0.3652,10.95589 0.7187898,2.45132 10.36242975,2.36689 15.7034298,2.6781 3.16383,0.18435 6.7152302,1.03494 9.4951002,-0.48693 1.22472,-0.67048 2.04702,-2.06714 2.43464,-3.40849 1.1735,-4.0609 0.0274,-8.50156 -0.73039,-12.66013 -0.48779,-2.67672 -0.39016,-5.99561 -2.43464,-7.79085 -2.47633,-2.17445 -6.4554002,-1.41914 -9.7385602,-1.70425 z"
       id="path961"
       inkscape:connector-curvature="0"
       sodipodi:nodetypes="ssssssssss" />
    <path
       style="fill:none;fill-rule:evenodd;stroke:#ff0000;stroke-width:1px;stroke-linecap:butt;stroke-linejoin:miter;stroke-opacity:1"
       d="m 30.861189,943.36504 c -2.87357,1.02408 -6.05223,2.06342 -8.03431,4.38236 -1.56775,1.83419 -1.96894,4.44946 -2.43464,6.81699 -0.68989,3.50729 -0.68787,7.60968 -0.48693,10.71242 0.10429,1.6103 6.63349,-0.18732 9.73856,-1.21732 3.27706,-1.08705 9.22097,-3.60901 9.00817,-5.11275 -0.67756,-4.788 -0.43124,-8.98451 -1.94771,-13.14706 -0.42404,-1.16394 -0.81505,-2.66342 -1.94772,-3.16503 -1.20795,-0.53495 -2.65098,0.2869 -3.89542,0.73039 z"
       id="path963"
       inkscape:connector-curvature="0"
       sodipodi:nodetypes="sssssssss" />
    <path
       style="fill:none;fill-rule:evenodd;stroke:#ff0000;stroke-width:1px;stroke-linecap:butt;stroke-linejoin:miter;stroke-opacity:1"
       d="m 52.720669,927.78334 c -3.20127,2.68526 -6.46208,5.44745 -8.39951,8.03432 -2.13225,2.84699 -2.17929,4.81657 -2.999,8.27777 -1.05797,4.46723 0.77076,6.04019 1.41648,13.14706 0.16938,1.86424 5.28021,3.58439 8.27778,3.4085 2.24662,-0.13183 4.67054,-1.17244 6.0866,-2.92157 1.73394,-2.14177 1.65829,-5.29388 1.94771,-8.03431 0.62245,-5.89374 -0.10299,-11.77166 -0.48693,-17.77288 -0.15239,-2.38196 -4.01446,-5.6728 -5.84313,-4.13889 z"
       id="path965"
       inkscape:connector-curvature="0"
       sodipodi:nodetypes="sssssssss" />
    <path
       style="fill:none;fill-rule:evenodd;stroke:#ff0000;stroke-width:1px;stroke-linecap:butt;stroke-linejoin:miter;stroke-opacity:1"
       d="m 73.954329,920.96635 c -3.72783,0.14038 -6.15,4.57126 -8.03432,7.79085 -2.24712,3.83948 -3.04191,8.56848 -2.54771,12.98967 0.23388,2.0923 0.1224,4.69195 2.06078,5.5136 2.10411,0.8919 4.83869,-0.46008 6.57353,-1.94772 2.45267,-2.10318 2.74334,-5.53546 2.84773,-8.7647 0.13196,-4.0823 2.7393,-9.29436 0.98863,-13.31922 -0.50563,-1.16247 -0.62186,-2.31018 -1.88864,-2.26248 z"
       id="path967"
       inkscape:connector-curvature="0"
       sodipodi:nodetypes="ssssssss" />
    <path
       style="fill:none;fill-rule:evenodd;stroke:#ff0000;stroke-width:1px;stroke-linecap:butt;stroke-linejoin:miter;stroke-opacity:1"
       d="m 86.058079,916.2188 c -0.93596,0.0396 -2.0691,0.14028 -2.6781,0.85212 -1.38783,1.62219 -0.47221,4.255 -0.97386,6.33007 -0.81411,3.36754 -4.11857,6.49708 -3.28676,9.86029 0.32385,1.3094 1.63165,2.40549 2.92157,2.79984 1.14193,0.34911 2.64554,0.19334 3.53023,-0.60866 2.15155,-1.95046 1.20212,-5.54029 1.71037,-8.39951 0.59861,-3.36752 0.97924,-6.34699 0.33565,-10.22549 -0.14986,-0.90312 -0.64445,-0.64736 -1.5591,-0.60866 z"
       id="path969"
       inkscape:connector-curvature="0"
       sodipodi:nodetypes="sssssssss" />
    <path
       style="fill:none;fill-rule:evenodd;stroke:#ff0000;stroke-width:1px;stroke-linecap:butt;stroke-linejoin:miter;stroke-opacity:1"
       d="m 95.066249,903.62811 c -1.68294,0.73693 -2.76366,2.00471 -3.50068,3.68762 -1.82321,4.16311 -2.63649,10.42024 0.0504,13.89222 0.92722,1.19813 2.42275,-0.76752 3.572,-1.75467 1.58456,-1.36105 1.89359,-3.37595 2.44076,-5.39186 0.92498,-3.40786 2.799961,-8.32699 0.24346,-10.76285 -0.82466,-0.78574 -1.76255,-0.12735 -2.80596,0.32954 z"
       id="path971"
       inkscape:connector-curvature="0"
       sodipodi:nodetypes="sssssss" />
    <path
       style="fill:none;fill-rule:evenodd;stroke:#ff0000;stroke-width:1px;stroke-linecap:butt;stroke-linejoin:miter;stroke-opacity:1"
       d="m -91.701341,917.79007 c 2.0013,-2.1609 2.85184,2.1271 4.91761,4.22645 0.68097,0.69204 1.55993,3.04204 1.7572,3.99268 0.6586,3.17375 -0.39548,5.77709 -1.07724,8.94595 -0.18004,0.83683 -0.0998,1.7116 -0.846,2.13106 -1.31304,0.73813 -2.60842,0.0228 -3.57349,-1.13378 -1.70556,-2.04393 0.13591,-4.42385 -0.18081,-7.06701 -0.40865,-3.41033 -2.61538,-9.3482 -0.99727,-11.09535 z"
       id="path973"
       inkscape:connector-curvature="0"
       sodipodi:nodetypes="ssssssss" />
    <path
       style="fill:none;fill-rule:evenodd;stroke:#ff0000;stroke-width:1px;stroke-linecap:butt;stroke-linejoin:miter;stroke-opacity:1"
       d="m -104.07018,912.32338 c 1.02,-3.38842 5.211909,4.27199 6.816989,7.42564 1.55142,3.04822 3.32017,7.89728 0.60865,9.98203 -1.43466,1.10304 -2.386,-0.77627 -3.651949,-2.06944 -1.25669,-1.28371 -1.11945,-3.62048 -1.58252,-5.3562 -0.89643,-3.36007 -3.48907,-5.67044 -2.19117,-9.98203 z"
       id="path975"
       inkscape:connector-curvature="0"
       sodipodi:nodetypes="ssssss" />
    <path
       style="fill:none;fill-rule:evenodd;stroke:#ff0000;stroke-width:1px;stroke-linecap:butt;stroke-linejoin:miter;stroke-opacity:1"
       d="m -103.04494,939.96743 c -1.51096,-0.17423 -3.18349,1.23831 -3.70133,2.66841 -0.74635,2.06115 -0.42175,11.18566 1.03293,12.82556 1.10319,1.24365 2.39777,0.72729 4.04564,0.94684 1.34428,0.1791 4.263839,-5.09526 5.250729,-6.02542 0.63504,-0.59853 0.37316,-1.71156 0.43039,-2.58233 0.11109,-1.69018 1.03453,-3.88988 -0.17215,-5.07857 -1.08353,-1.06739 -3.18379,0.55701 -4.562109,-0.0861 -1.06891,-0.49874 -1.15233,-2.53327 -2.3241,-2.66839 z"
       id="path1013"
       inkscape:connector-curvature="0"
       sodipodi:nodetypes="sssssssss" />
    <path
       style="display:inline;fill:none;fill-rule:evenodd;stroke:#ff0000;stroke-width:1px;stroke-linecap:butt;stroke-linejoin:miter;stroke-opacity:1"
       d="m -94.457401,950.53476 c -1.72574,1.27657 -5.28923,12.43622 -5.33427,14.58232 -0.0414,1.97415 1.88243,3.35048 3.57095,4.37413 1.41225,0.85616 4.13684,-6.52612 5.46466,-7.50814 1.0278,-0.76013 1.34493,-3.37097 1.29116,-4.64819 -0.0957,-2.27357 -1.00258,-4.44216 -1.63547,-6.62797 -0.12617,-0.43577 -0.0203,-1.09714 -0.43039,-1.29116 -0.94409,-0.44668 -2.08698,0.49789 -2.92664,1.11901 z"
       id="path1015"
       inkscape:connector-curvature="0"
       sodipodi:nodetypes="ssssssss" />
    <path
       style="fill:none;fill-rule:evenodd;stroke:#ff0000;stroke-width:1px;stroke-linecap:butt;stroke-linejoin:miter;stroke-opacity:1"
       d="m -80.019531,964.26864 c 2.19612,4.07309 2.69379,10.40534 -0.3652,13.87745 -1.05844,1.20138 -3.41406,1.61665 -4.74754,0.73039 -1.67205,-1.11128 -1.14993,-3.85969 -1.46079,-5.84314 -0.66743,-4.25858 -1.33714,-8.6204 -0.85212,-12.90359 0.0953,-0.8419 -0.1051,-2.29379 0.73039,-2.43464 1.77685,-0.29955 1.84708,3.15356 3.16503,4.38235 1.013,0.94447 2.87293,0.9721 3.53023,2.19118 z"
       id="path1018"
       inkscape:connector-curvature="0"
       sodipodi:nodetypes="ssssssss" />
    <path
       style="fill:none;fill-rule:evenodd;stroke:#ff0000;stroke-width:1px;stroke-linecap:butt;stroke-linejoin:miter;stroke-opacity:1"
       d="m -74.489301,969.60769 c -4.17625,4.23491 -0.33729,12.14351 1.58252,17.77288 0.55953,1.64068 1.28597,3.53789 2.79983,4.38235 2.30367,1.28503 6.04757,1.98719 7.91258,0.12173 3.67265,-3.67353 0.44174,-10.43256 -0.24346,-15.5817 -0.32584,-2.44864 0.23752,-5.82425 -1.82598,-7.18219 -1.51019,-0.99382 -4.50409,0.73039 -5.35621,0.85213 -0.85212,0.12173 -3.72641,-1.52412 -4.86928,-0.3652 z"
       id="path1020"
       inkscape:connector-curvature="0"
       sodipodi:nodetypes="ssssssss" />
    <path
       style="fill:none;fill-rule:evenodd;stroke:#ff0000;stroke-width:1px;stroke-linecap:butt;stroke-linejoin:miter;stroke-opacity:1"
       d="m -56.977051,970.75557 c -5.64662,3.45273 0.45126,13.22962 0.7304,19.84232 0.14392,3.40932 -1.14183,7.22693 0.48692,10.22551 0.76325,1.4051 2.30095,2.921 3.89543,2.7998 2.7181,-0.2065 4.60223,-3.2943 5.84314,-5.72139 2.1108,-4.12853 1.81485,-9.12588 2.06944,-13.75572 0.16946,-3.08163 1.83586,-7.0882 -0.3652,-9.25164 -1.30256,-1.2803 -3.71579,0.35856 -5.47794,-0.12173 -2.64656,-0.72134 -4.84192,-5.44815 -7.18219,-4.01715 z"
       id="path1022"
       inkscape:connector-curvature="0"
       sodipodi:nodetypes="sssssssss" />
    <path
       style="fill:none;fill-rule:evenodd;stroke:#ff0000;stroke-width:1px;stroke-linecap:butt;stroke-linejoin:miter;stroke-opacity:1"
       d="m -39.286911,974.2263 c -4.71362,2.8537 -0.25573,11.04949 0.34431,16.52688 0.25491,2.32694 -0.51587,5.50934 1.37724,6.88621 2.00901,1.46117 5.46528,0.69411 7.40267,-0.86078 2.32118,-1.86291 2.68403,-5.46922 2.92664,-8.4356 0.27531,-3.3662 0.48931,-7.43172 -1.72155,-9.98499 -1.57992,-1.82462 -4.67125,-1.27918 -6.8862,-2.23802 -1.20204,-0.52036 -2.32262,-2.57206 -3.44311,-1.8937 z"
       id="path1024"
       inkscape:connector-curvature="0"
       sodipodi:nodetypes="ssssssss" />
    <path
       style="fill:none;fill-rule:evenodd;stroke:#ff0000;stroke-width:1px;stroke-linecap:butt;stroke-linejoin:miter;stroke-opacity:1"
       d="m -22.349851,980.07957 c -2.54147,3.11341 1.69208,7.87712 2.06586,11.8787 0.37896,4.05708 -2.28314,8.97103 0.17216,12.22303 1.44403,1.9125 4.5336,2.5223 6.8862,2.0658 1.80358,-0.3499 3.3650097,-1.8639 4.3038797,-3.4431 1.6682001,-2.80592 1.7761801,-6.37671 1.72155,-9.64065 -0.0736,-4.40011 0.5926,-10.05446 -2.75448,-12.91163 -1.6608297,-1.41773 -4.3583897,-0.319 -6.5418897,-0.34431 -1.95181,-0.0226 -4.61895,-1.33995 -5.85328,0.17216 z"
       id="path1026"
       inkscape:connector-curvature="0"
       sodipodi:nodetypes="sssssssss" />
    <path
       style="fill:none;fill-rule:evenodd;stroke:#ff0000;stroke-width:1px;stroke-linecap:butt;stroke-linejoin:miter;stroke-opacity:1"
       d="m -1.1747712,980.31758 c -3.55906,3.82309 -1.4252001,10.55588 -0.34431,15.66612 0.64278995,3.03898 1.15381995,7.1028 3.95956,8.4356 1.7097299,0.8122 4.02645,-0.2004 5.5089699,-1.3772 1.96992,-1.5638 2.8527603,-4.26921 3.4431003,-6.71409 0.82162,-3.4027 -0.10923,-7.00268 0,-10.50146 0.0574,-1.83901 1.55663,-4.12494 0.34431,-5.50897 -1.62984,-1.86067 -4.9292902,-0.54592 -7.4026702,-0.51646 -1.8442401,0.022 -4.25224005,-0.83349 -5.50896,0.51646 z"
       id="path1028"
       inkscape:connector-curvature="0"
       sodipodi:nodetypes="sssssssss" />
    <path
       style="fill:none;fill-rule:evenodd;stroke:#ff0000;stroke-width:1px;stroke-linecap:butt;stroke-linejoin:miter;stroke-opacity:1"
       d="m 18.623059,978.01371 c -3.48574,3.24633 -0.15995,9.53716 0.17216,14.28887 0.15732,2.25084 0.2782,4.53422 0.86077,6.71405 0.77045,2.88287 0.62443,7.28397 3.4431,8.26347 1.67423,0.5818 3.55717,-1.1855 4.64819,-2.5824 2.45057,-3.1375 2.67078,-7.57629 3.09879,-11.53435 0.52498,-4.85482 -0.33079,-9.76318 -0.68862,-14.63318 -0.0423,-0.57516 0.29384,-1.38177 -0.17215,-1.72155 -1.99167,-1.45221 -4.77067,1.39181 -7.23052,1.5494 -1.37919,0.0884 -3.12038,-1.28619 -4.13172,-0.34431 z"
       id="path1030"
       inkscape:connector-curvature="0"
       sodipodi:nodetypes="ssssssssss" />
    <path
       style="fill:none;fill-rule:evenodd;stroke:#ff0000;stroke-width:1px;stroke-linecap:butt;stroke-linejoin:miter;stroke-opacity:1"
       d="m 35.043659,975.19337 c -2.39966,3.57465 -0.19102,8.63963 0.34431,12.91163 0.38773,3.09419 1.07118,6.16872 2.06586,9.12422 0.88468,2.62866 1.17052,5.98488 3.4431,7.57478 1.8392,1.2868 5.14513,2.1218 6.71405,0.5165 1.2093,-1.2373 -0.52305,-3.4345 -0.51647,-5.1647 0.0143,-3.75152 0.90681,-7.45031 1.20509,-11.19003 0.35178,-4.4106 3.09524,-9.54309 0.68862,-13.25594 -1.4723,-2.27142 -4.868,-2.91721 -7.57483,-2.92664 -2.27014,-0.008 -5.10444,0.52534 -6.36973,2.41018 z"
       id="path1032"
       inkscape:connector-curvature="0"
       sodipodi:nodetypes="ssssssssss" />
    <path
       style="fill:none;fill-rule:evenodd;stroke:#ff0000;stroke-width:1px;stroke-linecap:butt;stroke-linejoin:miter;stroke-opacity:1"
       d="m 52.988219,971.70983 c -2.38997,4.81263 2.58974,10.63838 5.50896,15.14965 1.52123,2.35087 3.39081,4.90486 6.02543,5.85327 1.35414,0.48746 3.2653,0.65202 4.30388,-0.34431 1.71043,-1.64084 0.98053,-4.69117 0.86077,-7.05836 -0.24971,-4.9358 -2.20086,-9.63616 -3.27095,-14.46103 -0.58491,-2.63728 0.12627,-5.94862 -1.72155,-7.91913 -0.28577,-0.30474 -0.8244,-0.51638 -1.20508,-0.34431 -2.31562,1.04668 -1.35005,5.22253 -3.27095,6.8862 -1.90714,1.65175 -6.10834,-0.0217 -7.23051,2.23802 z"
       id="path1034"
       inkscape:connector-curvature="0"
       sodipodi:nodetypes="ssssssssss" />
    <path
       style="fill:none;fill-rule:evenodd;stroke:#ff0000;stroke-width:1px;stroke-linecap:butt;stroke-linejoin:miter;stroke-opacity:1"
       d="m 68.350449,961.93742 c -1.6977,2.35543 1.18841,5.81853 2.75448,8.26345 1.35767,2.11956 4.04352,3.11812 5.50897,5.16465 1.94378,2.71453 1.61569,6.92956 4.13172,9.12422 1.66928,1.45607 4.47928,3.04818 6.36974,1.89371 2.39177,-1.46061 1.58734,-5.46122 1.54939,-8.26345 -0.0405,-2.99366 -0.85335,-5.97254 -1.8937,-8.77991 -1.58824,-4.28585 -2.05032,-11.20425 -6.5419,-12.05085 -2.36107,-0.44503 -3.25234,3.82336 -5.50896,4.64818 -1.99421,0.72891 -5.12826,-1.72247 -6.36974,0 z"
       id="path1036"
       inkscape:connector-curvature="0"
       sodipodi:nodetypes="ssssssssss" />
    <path
       style="fill:none;fill-rule:evenodd;stroke:#ff0000;stroke-width:1px;stroke-linecap:butt;stroke-linejoin:miter;stroke-opacity:1"
       d="m 84.360879,948.74734 c -2.31286,1.14133 -4.35835,3.97274 -4.13173,6.5419 0.232,2.63012 3.41251,4.04539 5.33681,5.85327 3.00455,2.82278 5.51851,7.80201 9.64069,7.74698 2.4833,-0.0331 4.72496,-2.52826 5.681111,-4.82034 1.15224,-2.76214 -0.68862,-7.91914 -0.68862,-8.95207 0,-1.03293 -1.778521,-6.1851 -4.131721,-8.09129 -1.20065,-0.97257 -2.97831,-1.58493 -4.47603,-1.20508 -1.53445,0.38917 -1.94783,2.75116 -3.4431,3.27094 -1.19739,0.41624 -2.65061,-0.90529 -3.78741,-0.34431 z"
       id="path1038"
       inkscape:connector-curvature="0"
       sodipodi:nodetypes="ssssssssss" />
    <path
       style="fill:none;fill-rule:evenodd;stroke:#ff0000;stroke-width:1px;stroke-linecap:butt;stroke-linejoin:miter;stroke-opacity:1"
       d="m 101.85483,929.76985 c -2.683631,-0.18139 -5.212481,2.24442 -6.714041,4.47603 -1.43874,2.13825 -2.59479,5.21915 -1.5494,7.57483 1.18962,2.68071 4.68913,3.95236 7.574821,4.47603 1.9494,0.35376 4.30693,0.20567 5.85328,-1.03293 1.16451,-0.93275 2.41017,-2.41017 1.72155,-4.13172 -0.68862,-1.72155 -2.05326,-6.19665 -3.95957,-8.77991 -0.77251,-1.04683 -1.62859,-2.49459 -2.92664,-2.58233 z"
       id="path1040"
       inkscape:connector-curvature="0"
       sodipodi:nodetypes="ssssssss" />
  </g>
  <g
     inkscape:groupmode="layer"
     id="layer3"
     inkscape:label="Skull Etched Lines"
     style="display:inline">
    <path
       id="path1042"
       style="fill:none;fill-rule:evenodd;stroke:#ff0000;stroke-width:1px;stroke-linecap:butt;stroke-linejoin:miter;stroke-opacity:1"
       d="m -163.99305,627.86069 c 0,0 2.13183,15.7399 0.68862,23.41309 -1.52095,8.08651 -6.42465,15.15069 -9.64068,22.72447 -2.30789,5.43511 -4.52671,10.90902 -6.929,16.30307 -3.75186,8.42434 -9.5582,16.10364 -11.68627,25.07679 -2.52928,10.66487 3.51307,28.54616 3.51307,28.54616 l -6.1826,-0.0609 c 0,0 -5.85975,-17.82043 -3.33047,-28.4853 2.12807,-8.97315 7.93441,-16.65245 11.68627,-25.07679 2.40229,-5.39405 4.62111,-10.86796 6.929,-16.30307 3.21603,-7.57378 8.11973,-14.63796 9.64068,-22.72447 1.44321,-7.67319 -0.68862,-23.41309 -0.68862,-23.41309 z"
       inkscape:connector-curvature="0"
       sodipodi:nodetypes="cssssccsssscc" />
    <path
       id="path1045"
       style="fill:none;fill-rule:evenodd;stroke:#ff0000;stroke-width:1px;stroke-linecap:butt;stroke-linejoin:miter;stroke-opacity:1"
       d="m 167.00988,617.2621 c 0,0 -4.23033,16.92558 -2.92157,25.32026 1.70091,10.91002 9.31021,20.0295 13.63399,30.18955 6.16081,14.47673 14.75242,28.33741 17.52941,43.82352 2.23532,12.46546 -2.97385,37.9804 -2.97385,37.9804 h -6 c 0,0 5.20917,-25.51494 2.97385,-37.9804 -2.77699,-15.48611 -11.3686,-29.34679 -17.52941,-43.82352 -4.32378,-10.16005 -11.93308,-19.27953 -13.63399,-30.18955 -1.30876,-8.39468 2.92157,-25.32026 2.92157,-25.32026 z"
       inkscape:connector-curvature="0"
       sodipodi:nodetypes="csssccssscc" />
    <path
       id="path1048"
       style="fill:none;fill-rule:evenodd;stroke:#ff0000;stroke-width:1px;stroke-linecap:butt;stroke-linejoin:miter;stroke-opacity:1"
       d="m -104.19511,897.83339 c 0,0 5.434049,-18.1925 3.82917,-33.69874 -7.50796,-4.36609 -19.79301,-3.97164 -27.26797,-8.76471 -21.97796,-14.09262 -34.94411,-13.91668 -34.94411,-13.91668 l 0.1063,-6.7747 c 0,0 18.85985,0.59876 40.83781,14.69138 7.47496,4.79307 19.76001,4.39862 27.267969,8.76471 1.60488,15.50624 -2.92156,40.4759 -2.92156,40.4759 z"
       inkscape:connector-curvature="0"
       sodipodi:nodetypes="ccsccsccc" />
    <path
       id="path1051"
       style="fill:none;fill-rule:evenodd;stroke:#ff0000;stroke-width:1px;stroke-linecap:butt;stroke-linejoin:miter;stroke-opacity:1"
       d="m -132.13174,953.35644 c 0,0 -9.72599,-32.37862 -12.74665,-48.64858 l -8.85121,-47.67472 h -6 l 8.85121,47.67472 c 3.02065,16.26996 12.74665,48.64858 12.74665,48.64858 z"
       inkscape:connector-curvature="0"
       sodipodi:nodetypes="csccscc" />
    <path
       id="path1054"
       style="fill:none;fill-rule:evenodd;stroke:#ff0000;stroke-width:1px;stroke-linecap:butt;stroke-linejoin:miter;stroke-opacity:1"
       d="m 128.80231,963.57811 c 8.85304,-20.92538 8.73668,-25.66952 11.74832,-37.06735 5.56213,-21.05037 7.00435,-50.42203 8.22167,-60.02812 h -6 c -1.21732,9.60609 -2.65954,38.97775 -8.22167,60.02812 -3.01164,11.39783 -2.89528,16.14197 -11.74832,37.06735 z"
       inkscape:connector-curvature="0"
       sodipodi:nodetypes="csccscc" />
    <path
       id="path1057"
       style="fill:none;fill-rule:evenodd;stroke:#ff0000;stroke-width:1px;stroke-linecap:butt;stroke-linejoin:miter;stroke-opacity:1"
       d="m 89.749419,892.16592 c 0,0 -2.22132,-15.52196 0.34343,-26.18932 5.17918,-5.00749 11.824601,-4.30997 17.559821,-6.8862 6.69543,-3.00755 18.13836,-8.45411 25.13464,-10.67362 8.86254,-2.81156 19.51445,-3.47961 19.51445,-3.47961 l -0.0659,6.86078 c 0,0 -4.58605,-0.19273 -13.44859,2.61883 -6.99628,2.21951 -18.43921,7.66607 -25.13464,10.67362 -5.73522,2.57623 -12.38064,1.87871 -17.559821,6.8862 -2.56475,10.66736 -0.17127,20.81208 -0.17127,20.81208 z"
       inkscape:connector-curvature="0"
       sodipodi:nodetypes="ccssccssccc" />
  </g>
  <g
     inkscape:groupmode="layer"
     id="layer9"
     inkscape:label="Skull Text"
     style="display:none">
    <text
       xml:space="preserve"
       style="font-style:normal;font-variant:normal;font-weight:bold;font-stretch:normal;font-size:62.01516724px;line-height:125%;font-family:Impact;-inkscape-font-specification:'Impact Bold';letter-spacing:0px;word-spacing:0px;display:inline;opacity:0.36199999;fill:#000000;fill-opacity:1;stroke:none;stroke-width:1.5503794px;stroke-linecap:butt;stroke-linejoin:miter;stroke-opacity:1"
       x="-0.013053375"
       y="559.77307"
       id="text8393"><tspan
         sodipodi:role="line"
         x="3.4869444"
         y="559.77307"
         style="font-style:normal;font-variant:normal;font-weight:800;font-stretch:normal;font-size:66.66666412px;font-family:Overpass;-inkscape-font-specification:'Overpass Ultra-Bold';text-align:center;letter-spacing:7px;text-anchor:middle;stroke-width:1.5503794px"
         id="tspan937">MAN</tspan></text>
    <text
       xml:space="preserve"
       style="font-style:normal;font-variant:normal;font-weight:bold;font-stretch:normal;font-size:84.44282532px;line-height:125%;font-family:Impact;-inkscape-font-specification:'Impact Bold';letter-spacing:0px;word-spacing:0px;display:inline;opacity:0.36199999;fill:#000000;fill-opacity:1;stroke:none;stroke-width:2.11107063px;stroke-linecap:butt;stroke-linejoin:miter;stroke-opacity:1"
       x="-109.5728"
       y="645.65808"
       id="text8417"><tspan
         sodipodi:role="line"
         id="tspan8415"
         x="-109.5728"
         y="645.65808"
         style="font-style:normal;font-variant:normal;font-weight:800;font-stretch:normal;font-size:86.66666412px;font-family:Overpass;-inkscape-font-specification:'Overpass Ultra-Bold';letter-spacing:7px;stroke-width:2.11107063px">DIES</tspan></text>
    <text
       id="text943"
       y="489.72809"
       x="-2.0963378"
       style="font-style:normal;font-variant:normal;font-weight:bold;font-stretch:normal;font-size:62.01516724px;line-height:125%;font-family:Impact;-inkscape-font-specification:'Impact Bold';letter-spacing:0px;word-spacing:0px;display:inline;opacity:0.36199999;fill:#000000;fill-opacity:1;stroke:none;stroke-width:1.5503794px;stroke-linecap:butt;stroke-linejoin:miter;stroke-opacity:1"
       xml:space="preserve"><tspan
         id="tspan941"
         style="font-style:normal;font-variant:normal;font-weight:800;font-stretch:normal;font-size:66.66666412px;font-family:Overpass;-inkscape-font-specification:'Overpass Ultra-Bold';text-align:center;letter-spacing:7px;text-anchor:middle;stroke-width:1.5503794px"
         y="489.72809"
         x="1.4036613"
         sodipodi:role="line">EVERY</tspan></text>
  </g>
  <g
     style="display:inline"
     inkscape:label="Skull Text as Paths"
     id="g2794"
     inkscape:groupmode="layer">
    <g
       aria-label="MAN"
       style="font-style:normal;font-variant:normal;font-weight:bold;font-stretch:normal;font-size:62.01516724px;line-height:125%;font-family:Impact;-inkscape-font-specification:'Impact Bold';letter-spacing:0px;word-spacing:0px;display:inline;opacity:0.36199999;fill:#000000;fill-opacity:1;stroke:none;stroke-width:1.5503794px;stroke-linecap:butt;stroke-linejoin:miter;stroke-opacity:1"
       id="text2784">
      <path
         d="m -54.912943,560.57307 -11.699999,-24.83333 q -0.133334,-0.3 -0.3,-0.73333 -0.166667,-0.43334 -0.333334,-0.9 0.03333,0.4 0.03333,0.9 0.03333,0.46666 0.03333,0.8 v 23.96666 h -9.6 v -46.66666 h 9.666667 l 11.266666,24.83333 q 0.366667,0.73333 0.633333,1.43333 0.266667,0.66667 0.5,1.43334 0.266667,-0.76667 0.533334,-1.46667 0.266666,-0.73333 0.566666,-1.4 l 11.566666,-24.83333 h 8.933333 v 46.66666 h -9.566666 v -24.03333 q 0,-0.4 0,-0.86667 0,-0.5 0.03333,-0.8 -0.166666,0.4 -0.366666,0.83334 -0.166667,0.43333 -0.333333,0.76666 z"
         style="font-style:normal;font-variant:normal;font-weight:800;font-stretch:normal;font-size:66.66666412px;font-family:Overpass;-inkscape-font-specification:'Overpass Ultra-Bold';text-align:center;letter-spacing:7px;text-anchor:middle;stroke-width:1.5503794px"
         id="path2805" />
      <path
         d="m -19.813032,559.77307 18.1999998,-46.66666 h 9.133333 L 25.753633,559.77307 H 15.3203 L 11.753634,550.4064 H -5.8796987 l -3.4999999,9.36667 z m 17.1333332,-18.2 H 8.5203008 l -4.2333332,-10.9 q -0.2,-0.5 -0.4666667,-1.13333 -0.2666666,-0.66667 -0.4999999,-1.33333 -0.2333334,-0.66667 -0.4,-1.2 -0.1666667,0.53333 -0.4,1.2 -0.2333333,0.66666 -0.5,1.33333 -0.2666667,0.63333 -0.4666666,1.13333 z"
         style="font-style:normal;font-variant:normal;font-weight:800;font-stretch:normal;font-size:66.66666412px;font-family:Overpass;-inkscape-font-specification:'Overpass Ultra-Bold';text-align:center;letter-spacing:7px;text-anchor:middle;stroke-width:1.5503794px"
         id="path2807" />
      <path
         d="m 39.053605,559.77307 v -46.66666 h 8.8 l 17.633333,25.56666 q 0.333333,0.53334 0.966666,1.6 0.633334,1.06667 0.966667,1.86667 -0.1,-0.7 -0.166667,-1.8 -0.03333,-1.13333 -0.03333,-1.7 v -25.53333 h 9.533333 v 46.66666 H 68.320271 L 50.320272,534.00641 q -0.366667,-0.53334 -1,-1.63334 -0.6,-1.1 -0.966667,-1.9 0.133333,0.86667 0.133333,1.86667 0.03333,0.96667 0.03333,1.66667 v 25.76666 z"
         style="font-style:normal;font-variant:normal;font-weight:800;font-stretch:normal;font-size:66.66666412px;font-family:Overpass;-inkscape-font-specification:'Overpass Ultra-Bold';text-align:center;letter-spacing:7px;text-anchor:middle;stroke-width:1.5503794px"
         id="path2809" />
    </g>
    <g
       aria-label="DIES"
       style="font-style:normal;font-variant:normal;font-weight:bold;font-stretch:normal;font-size:84.44282532px;line-height:125%;font-family:Impact;-inkscape-font-specification:'Impact Bold';letter-spacing:0px;word-spacing:0px;display:inline;opacity:0.36199999;fill:#000000;fill-opacity:1;stroke:none;stroke-width:2.11107063px;stroke-linecap:butt;stroke-linejoin:miter;stroke-opacity:1"
       id="text2788">
      <path
         d="m -102.8128,645.65808 v -60.66666 h 21.753333 q 7.93,0 13.519999,2.55666 5.59,2.55667 9.1,6.93334 3.51,4.33333 5.113333,9.75 1.603334,5.41666 1.603334,11.09333 0,5.15667 -1.56,10.48666 -1.516667,5.33 -4.983334,9.83667 -3.423333,4.50667 -9.099999,7.28 -5.676667,2.73 -14.04,2.73 z m 12.48,-11.87333 h 10.139999 q 4.29,0 7.236667,-1.64667 2.99,-1.64667 4.81,-4.37667 1.82,-2.73 2.643333,-5.97999 0.866667,-3.25 0.866667,-6.45667 0,-3.38 -0.866667,-6.67333 -0.866667,-3.29334 -2.643333,-5.98 -1.733334,-2.68667 -4.506667,-4.29 -2.773333,-1.60334 -6.586666,-1.60334 H -90.3328 Z"
         style="font-style:normal;font-variant:normal;font-weight:800;font-stretch:normal;font-size:86.66666412px;font-family:Overpass;-inkscape-font-specification:'Overpass Ultra-Bold';letter-spacing:7px;stroke-width:2.11107063px"
         id="path2796" />
      <path
         d="m -33.759669,645.65808 v -60.66666 h 12.48 v 60.66666 z"
         style="font-style:normal;font-variant:normal;font-weight:800;font-stretch:normal;font-size:86.66666412px;font-family:Overpass;-inkscape-font-specification:'Overpass Ultra-Bold';letter-spacing:7px;stroke-width:2.11107063px"
         id="path2798" />
      <path
         d="M -0.88982625,645.65808 V 584.99142 H 41.750173 v 11.83 h -30.16 v 11.61333 h 17.203333 v 11.83 H 11.590173 v 13.47666 h 31.936666 v 11.91667 z"
         style="font-style:normal;font-variant:normal;font-weight:800;font-stretch:normal;font-size:86.66666412px;font-family:Overpass;-inkscape-font-specification:'Overpass Ultra-Bold';letter-spacing:7px;stroke-width:2.11107063px"
         id="path2800" />
      <path
         d="m 80.513458,646.69808 q -5.806667,0 -10.573333,-2.08 -4.766667,-2.08 -8.19,-5.93667 -3.38,-3.85666 -5.156667,-9.18666 l 11.18,-4.20334 q 1.993333,4.24667 5.416667,6.97667 3.423333,2.68667 7.626666,2.68667 4.333333,0 6.933333,-1.73334 2.6,-1.73333 2.6,-5.02666 0,-2.25334 -1.516667,-3.72667 -1.516666,-1.47333 -4.159999,-2.55666 -2.643334,-1.12667 -6.066667,-2.25334 -3.38,-1.12666 -6.846666,-2.47 -3.466667,-1.38666 -6.37,-3.42333 -2.903333,-2.03667 -4.68,-5.15667 -1.733333,-3.16333 -1.733333,-7.8 0,-4.59333 2.426666,-8.40666 2.47,-3.85667 7.106667,-6.15334 4.68,-2.29666 11.309999,-2.29666 5.46,0 9.706667,1.95 4.246666,1.90666 7.02,5.2 2.773333,3.29333 3.899999,7.41 l -11.093333,3.68333 q -1.256666,-2.77333 -3.639999,-4.63667 -2.34,-1.86333 -6.543334,-1.86333 -3.726666,0 -5.763333,1.38667 -1.993333,1.34333 -1.993333,3.94333 0,1.69 1.343333,2.90333 1.386667,1.17 3.77,2.12334 2.426667,0.95333 5.546667,2.03666 3.726666,1.25667 7.409999,2.77334 3.683334,1.51666 6.673334,3.72666 3.033333,2.21 4.809999,5.50334 1.82,3.29333 1.82,8.14666 0,5.85 -2.946666,9.96667 -2.946667,4.11666 -8.016667,6.32666 -5.026666,2.16667 -11.309999,2.16667 z"
         style="font-style:normal;font-variant:normal;font-weight:800;font-stretch:normal;font-size:86.66666412px;font-family:Overpass;-inkscape-font-specification:'Overpass Ultra-Bold';letter-spacing:7px;stroke-width:2.11107063px"
         id="path2802" />
    </g>
    <g
       aria-label="EVERY"
       style="font-style:normal;font-variant:normal;font-weight:bold;font-stretch:normal;font-size:62.01516724px;line-height:125%;font-family:Impact;-inkscape-font-specification:'Impact Bold';letter-spacing:0px;word-spacing:0px;display:inline;opacity:0.36199999;fill:#000000;fill-opacity:1;stroke:none;stroke-width:1.5503794px;stroke-linecap:butt;stroke-linejoin:miter;stroke-opacity:1"
       id="text2792">
      <path
         d="m -119.91288,489.72809 v -46.66667 h 32.799999 v 9.1 h -23.199999 v 8.93334 h 13.233333 v 9.1 h -13.233333 v 10.36666 h 24.566666 v 9.16667 z"
         style="font-style:normal;font-variant:normal;font-weight:800;font-stretch:normal;font-size:66.66666412px;font-family:Overpass;-inkscape-font-specification:'Overpass Ultra-Bold';text-align:center;letter-spacing:7px;text-anchor:middle;stroke-width:1.5503794px"
         id="path2812" />
      <path
         d="m -58.346323,489.72809 -16.733332,-46.66667 h 10.366666 l 10.233333,29.93334 q 0.2,0.63333 0.4,1.23333 0.2,0.6 0.3,1 0.06667,-0.33333 0.233333,-0.93333 0.166667,-0.6 0.4,-1.3 l 10.2,-29.93334 h 10.266666 l -16.666666,46.66667 z"
         style="font-style:normal;font-variant:normal;font-weight:800;font-stretch:normal;font-size:66.66666412px;font-family:Overpass;-inkscape-font-specification:'Overpass Ultra-Bold';text-align:center;letter-spacing:7px;text-anchor:middle;stroke-width:1.5503794px"
         id="path2814" />
      <path
         d="m -20.413055,489.72809 v -46.66667 h 32.799999 v 9.1 h -23.199999 v 8.93334 H 2.4202775 v 9.1 H -10.813055 v 10.36666 H 13.75361 v 9.16667 z"
         style="font-style:normal;font-variant:normal;font-weight:800;font-stretch:normal;font-size:66.66666412px;font-family:Overpass;-inkscape-font-specification:'Overpass Ultra-Bold';text-align:center;letter-spacing:7px;text-anchor:middle;stroke-width:1.5503794px"
         id="path2816" />
      <path
         d="m 28.586892,489.72809 v -46.66667 h 22.199999 q 5.866666,0 9.299999,2.06667 3.466667,2.03333 4.933334,5.43333 1.5,3.36667 1.5,7.3 0,2.63334 -1,5.33334 -0.966667,2.7 -2.933334,4.93333 -1.966666,2.2 -4.866666,3.26667 l 8.933333,18.33333 H 55.920224 l -8.6,-16.9 h -9.133333 v 16.9 z m 9.599999,-25.93333 h 12.733333 q 2.133333,0 3.366667,-0.83334 1.266666,-0.83333 1.766666,-2.16666 0.533334,-1.36667 0.533334,-2.9 0,-1.4 -0.5,-2.73334 -0.466667,-1.33333 -1.733334,-2.2 -1.233333,-0.86666 -3.433333,-0.86666 H 38.186891 Z"
         style="font-style:normal;font-variant:normal;font-weight:800;font-stretch:normal;font-size:66.66666412px;font-family:Overpass;-inkscape-font-specification:'Overpass Ultra-Bold';text-align:center;letter-spacing:7px;text-anchor:middle;stroke-width:1.5503794px"
         id="path2818" />
      <path
         d="m 92.920209,489.72809 v -18.16667 l -17.533332,-28.5 h 10.799999 l 11.466666,18.4 11.433338,-18.4 h 10.79999 l -17.49999,28.46667 v 18.2 z"
         style="font-style:normal;font-variant:normal;font-weight:800;font-stretch:normal;font-size:66.66666412px;font-family:Overpass;-inkscape-font-specification:'Overpass Ultra-Bold';text-align:center;letter-spacing:7px;text-anchor:middle;stroke-width:1.5503794px"
         id="path2820" />
    </g>
  </g>
  <g
     inkscape:groupmode="layer"
     id="layer6"
     inkscape:label="Coin Rim"
     style="display:inline">
    <path
       style="opacity:0.45800003;fill:#00e500;fill-opacity:1;stroke:#ff0000;stroke-width:2.43400002;stroke-linejoin:round;stroke-miterlimit:6.4000001;stroke-dasharray:none;stroke-dashoffset:0;stroke-opacity:1;paint-order:markers stroke fill"
       d="M 0.86327875,283.04037 C -60.275211,283.18845 -121.31732,295.07358 -177.65625,318.68295 c -98.18736,40.59075 -181.45561,116.52402 -230.77148,210.77344 -46.66951,88.12924 -63.93942,191.56369 -47.34766,289.70117 17.13576,108.46838 75.0505,209.99794 159.64648,280.20704 72.34778,60.8616 164.18891,98.3569 258.441409,105.957 45.9973398,4.1277 92.79429,0.181 138.078131,-9.4746 87.88531,-19.553 169.38909,-65.1937 231.88867,-130.0644 C 400.35747,995.53533 445.25735,902.77353 457.80859,805.63999 465.2647,751.97421 462.37323,696.8097 450.70313,644.08725 434.35407,570.80505 399.67424,501.61857 350.83399,444.59116 291.26799,374.84864 210.4489,323.64817 122.08789,299.56381 82.614569,288.84757 41.704359,283.05919 0.86327875,283.04037 Z M -2.2050812,393.73959 c 49.0214302,-0.22871 98.0331802,10.00368 142.9531312,29.60743 88.17655,37.62518 158.05473,113.96218 190.14453,204.03515 31.88717,87.70407 25.65833,187.9081 -15.34375,271.58008 -42.43094,88.90911 -124.8223,156.92495 -219.392581,183.77535 -96.91003025,28.4472 -205.501209,11.0363 -289.564449,-44.5976 -77.19793,-50.43584 -132.35507,-132.67294 -150.67188,-222.95705 -20.51084,-96.91399 3.58912,-201.72517 63.07031,-280.7539 64.15294,-87.07832 170.8171,-140.28999 278.8046888,-140.68946 z"
       id="circle4679"
       inkscape:connector-curvature="0" />
  </g>
  <g
     inkscape:groupmode="layer"
     id="layer8"
     inkscape:label="Coin Rim Ridges"
     style="display:inline">
    <path
       style="display:inline;opacity:0.6520004;fill:#f25400;fill-opacity:1;stroke:none;stroke-width:1.81616175;stroke-linejoin:round;stroke-miterlimit:6.4000001;stroke-dasharray:none;stroke-dashoffset:0;stroke-opacity:1;paint-order:markers stroke fill"
       d="M -1.4843712,387.7142 C -123.38991,387.59831 -243.44641,454.88593 -305.57813,560.02671 c -55.08609,90.65475 -67.40808,206.46587 -30.5371,305.77539 33.66899,94.10406 108.42477,173.0705 201.54882,210.0273 89.920799,36.7571 194.885949,35.1713 283.06836,-6.0293 84.03474,-38.2915 152.55519,-110.37998 184.89649,-196.72261 34.66702,-89.73768 31.42325,-193.7494 -10.41211,-280.51954 C 283.42692,508.38913 209.74016,440.44043 121.77539,409.34116 82.316359,394.97672 40.404939,387.47218 -1.4843712,387.7142 Z m -0.36914,12.00586 C 72.620109,399.5046 146.72168,423.61955 206.45899,468.4603 c 72.76405,53.8306 122.5088,137.61624 135.06445,226.97265 13.32097,88.38829 -10.02837,181.56415 -63.19336,253.56836 -54.11608,74.58389 -139.51324,125.52699 -230.812501,137.80659 -54.1898703,7.8078 -110.23121,1.8916 -161.994139,-16.2304 -87.50983,-30.4253 -161.21346,-97.61654 -199.32617,-182.02931 -31.22914,-68.01686 -39.56276,-145.74912 -23.04493,-218.61328 19.29471,-88.12628 74.82727,-167.50373 151.01563,-215.73633 54.5846,-35.13182 119.291739,-53.8356 183.9785188,-54.47852 z"
       id="circle4588"
       inkscape:connector-curvature="0" />
    <path
       style="display:inline;opacity:0.522;fill:#0000e0;fill-opacity:1;stroke:none;stroke-width:2;stroke-linejoin:round;stroke-miterlimit:6.4000001;stroke-dasharray:none;stroke-dashoffset:0;stroke-opacity:1;paint-order:markers stroke fill"
       d="M -1.25e-6,276.76889 A 468.22607,468.22607 0 0 0 -468.22656,744.9935 468.22607,468.22607 0 0 0 -1.25e-6,1213.2201 468.22607,468.22607 0 0 0 468.22656,744.9935 468.22607,468.22607 0 0 0 -1.25e-6,276.76889 Z m -2.68555005,12.28906 c 74.0861603,-0.51647 148.1918013,17.67183 213.8515713,51.95313 85.69042,44.22378 156.00571,117.11222 198.26562,203.65039 48.43264,97.69075 59.33672,212.72285 31.02539,317.76953 -27.09964,103.05194 -91.85023,195.4662 -179.26758,256.1621 -85.69576,60.4226 -192.525911,89.1279 -296.773431,80.9395 -105.669949,-7.9319 -207.760389,-54.5919 -283.447269,-128.9063 -81.41631,-78.98739 -130.67984,-189.48217 -136.30469,-302.5703 -7.02586,-123.84957 40.36288,-249.503 126.50586,-338.86133 83.88484,-88.15541 204.59488,-139.7126 326.1445287,-140.13672 z"
       id="circle4586"
       inkscape:connector-curvature="0" />
  </g>
  <g
     inkscape:groupmode="layer"
     id="layer7"
     inkscape:label="Rim Text"
     style="display:none">
    <text
       xml:space="preserve"
       style="font-style:normal;font-variant:normal;font-weight:bold;font-stretch:normal;font-size:40px;line-height:125%;font-family:Impact;-inkscape-font-specification:'Impact Bold';letter-spacing:0px;word-spacing:0px;fill:#000000;fill-opacity:1;stroke:none;stroke-width:1px;stroke-linecap:butt;stroke-linejoin:miter;stroke-opacity:1"
       id="text4577"><textPath
         xlink:href="#path4646"
         id="textPath4660"
         style="font-style:normal;font-variant:normal;font-weight:800;font-stretch:normal;font-size:93.33333588px;font-family:Overpass;-inkscape-font-specification:'Overpass Ultra-Bold';letter-spacing:11.5px;word-spacing:20px"
         dy="-5.5">NOT EVERY MAN REALLY LIVES</textPath></text>
    <path
       style="opacity:0.6520004;fill:none;fill-opacity:1;stroke:#ff0000;stroke-width:1.81616175;stroke-linejoin:round;stroke-miterlimit:6.4000001;stroke-dasharray:none;stroke-dashoffset:0;stroke-opacity:1;paint-order:markers stroke fill"
       d="m -225.1714,452.40548 c 110.54346,-86.60555 272.581963,-101.50718 396.35881,-34.60806 107.05073,55.50911 184.12223,166.244 195.92918,286.61684 12.26266,109.26589 -26.65636,223.69218 -105.20576,301.01854 -73.97865,74.5843 -180.800442,115.8384 -285.792504,108.0252 -102.543946,-6.5095 -201.738896,-57.6253 -265.085566,-138.78039 -63.44138,-79.57867 -92.24667,-186.11126 -75.64514,-286.70654 14.46366,-92.33324 64.96151,-178.86099 139.44098,-235.56559 z"
       id="path4624"
       inkscape:connector-curvature="0" />
    <path
       style="opacity:0.6520004;fill:none;fill-opacity:1;stroke:#ff0000;stroke-width:2.4338305;stroke-linejoin:round;stroke-miterlimit:6.4000001;stroke-dasharray:none;stroke-dashoffset:0;stroke-opacity:1;paint-order:markers stroke fill"
       d="m -404.9725,563.10338 c -61.43399,134.62434 -49.27156,300.59864 32.94263,424.09404 70.2396,108.10448 189.04023,183.75848 317.465906,198.33848 115.988791,14.4362 237.585274,-18.5297 328.969684,-91.626 C 365.90111,1022.111 427.74242,913.67109 440.74808,797.79938 454.39836,684.77933 423.08833,566.67915 353.42067,476.41027 285.60706,387.0835 183.55179,324.80026 72.956217,307.0843 -39.977331,288.25248 -160.04137,314.50584 -253.72656,380.7758 -319.3088,426.58024 -372.43369,490.10848 -404.9725,563.10338 Z"
       id="path4646"
       inkscape:connector-curvature="0" />
    <text
       xml:space="preserve"
       style="font-style:normal;font-variant:normal;font-weight:bold;font-stretch:normal;font-size:40px;line-height:125%;font-family:Impact;-inkscape-font-specification:'Impact Bold';letter-spacing:0px;word-spacing:0px;fill:#000000;fill-opacity:1;stroke:none;stroke-width:1px;stroke-linecap:butt;stroke-linejoin:miter;stroke-opacity:1"
       id="text4664"><textPath
         xlink:href="#path4624"
         id="textPath4669"
         style="font-style:normal;font-variant:normal;font-weight:800;font-stretch:normal;font-size:93.33333588px;font-family:Overpass;-inkscape-font-specification:'Overpass Ultra-Bold';letter-spacing:1px;word-spacing:18.75px"
         dy="-4">BOSS GEE</textPath></text>
    <text
       xml:space="preserve"
       style="font-style:normal;font-variant:normal;font-weight:bold;font-stretch:normal;font-size:40px;line-height:125%;font-family:Impact;-inkscape-font-specification:'Impact Bold';letter-spacing:0px;word-spacing:0px;fill:#000000;fill-opacity:1;stroke:none;stroke-width:1px;stroke-linecap:butt;stroke-linejoin:miter;stroke-opacity:1"
       x="0"
       y="351"
       id="text1837"><tspan
         sodipodi:role="line"
         id="tspan1835"
         x="0"
         y="391.0433" /></text>
  </g>
  <g
     style="display:inline"
     inkscape:label="Rim Text as Paths"
     id="g1855"
     inkscape:groupmode="layer">
    <g
       aria-label="NOT EVERY MAN REALLY LIVES"
       style="font-style:normal;font-variant:normal;font-weight:bold;font-stretch:normal;font-size:40px;line-height:125%;font-family:Impact;-inkscape-font-specification:'Impact Bold';letter-spacing:0px;word-spacing:0px;fill:#000000;fill-opacity:1;stroke:none;stroke-width:1px;stroke-linecap:butt;stroke-linejoin:miter;stroke-opacity:1"
       id="text1841">
      <path
         d="m -403.52362,571.33504 61.41895,22.27458 -4.20035,11.58186 -42.06542,11.0043 q -0.86104,0.18414 -2.5672,0.50855 -1.70616,0.32441 -2.91816,0.38127 0.96902,0.2025 2.44857,0.63981 1.50751,0.49708 2.25331,0.76756 l 33.60494,12.18738 -4.55038,12.54701 -61.41895,-22.27459 4.02534,-11.09928 42.50366,-11.39141 q 0.87695,-0.22801 2.62698,-0.53651 1.73412,-0.26463 2.96203,-0.36536 -1.20428,-0.23818 -2.5204,-0.7155 -1.28816,-0.41753 -2.20945,-0.75165 l -33.91203,-12.29875 z"
         style="font-style:normal;font-variant:normal;font-weight:800;font-stretch:normal;font-size:93.33333588px;font-family:Overpass;-inkscape-font-specification:'Overpass Ultra-Bold';letter-spacing:11.5px;word-spacing:20px"
         id="path1857" />
      <path
         d="m -433.20033,670.78927 q 1.31551,-7.72885 5.13782,-12.66413 3.86831,-4.92744 9.27045,-7.46362 5.44033,-2.48234 11.5952,-3.04422 6.14705,-0.51587 12.1277,0.50208 5.98066,1.01796 11.6109,3.53841 5.62241,2.56647 9.88915,6.70102 4.30491,4.18839 6.27924,10.1103 2.02033,5.92974 0.70483,13.65858 -1.33117,7.82086 -5.19165,12.7023 -3.81448,4.88927 -9.2548,7.37161 -5.40215,2.53618 -11.54919,3.05205 -6.14705,0.51588 -12.1277,-0.50208 -5.98066,-1.01795 -11.6109,-3.53841 -5.63024,-2.52045 -9.93515,-6.70884 -4.26674,-4.13456 -6.2949,-10.01829 -1.98216,-5.87591 -0.651,-13.69676 z m 12.7894,2.17685 q -0.68907,4.04844 0.72731,7.12979 1.40855,3.12735 4.20116,5.35418 2.83862,2.23465 6.2939,3.62751 3.45527,1.39286 6.81364,1.96447 3.58839,0.61078 7.34807,0.4933 3.75969,-0.11748 7.08574,-1.30286 3.31823,-1.13937 5.63609,-3.63247 2.31785,-2.49309 3.02259,-6.63354 0.70473,-4.14045 -0.74982,-7.27563 -1.40855,-3.12736 -4.20116,-5.35418 -2.79262,-2.22682 -6.30173,-3.58151 -3.50911,-1.35468 -6.86748,-1.9263 -3.54238,-0.60294 -7.30207,-0.48546 -3.72151,0.17131 -7.04756,1.35669 -3.33389,1.23139 -5.65175,3.72448 -2.31785,2.49309 -3.00693,6.54153 z"
         style="font-style:normal;font-variant:normal;font-weight:800;font-stretch:normal;font-size:93.33333588px;font-family:Overpass;-inkscape-font-specification:'Overpass Ultra-Bold';letter-spacing:11.5px;word-spacing:20px"
         id="path1859" />
      <path
         d="m -438.14409,734.49165 52.45244,0.30595 0.10888,-18.66635 12.87978,0.0751 -0.29642,50.81913 -12.87978,-0.0751 0.10915,-18.71302 -52.45244,-0.30595 z"
         style="font-style:normal;font-variant:normal;font-weight:800;font-stretch:normal;font-size:93.33333588px;font-family:Overpass;-inkscape-font-specification:'Overpass Ultra-Bold';letter-spacing:11.5px;word-spacing:20px"
         id="path1861" />
      <path
         d="m -427.83044,843.0189 62.96439,-17.43362 12.25334,44.25497 -12.27806,3.39955 -8.66699,-31.30229 -12.05319,3.33729 4.94368,17.8549 -12.27805,3.39956 -4.94368,-17.8549 -13.98709,3.87275 9.17756,33.14625 -12.36801,3.42446 z"
         style="font-style:normal;font-variant:normal;font-weight:800;font-stretch:normal;font-size:93.33333588px;font-family:Overpass;-inkscape-font-specification:'Overpass Ultra-Bold';letter-spacing:11.5px;word-spacing:20px"
         id="path1863" />
      <path
         d="m -399.95615,925.30727 49.38849,-48.76506 6.11286,13.1632 -31.97396,30.64454 q -0.68625,0.6274 -1.33017,1.23516 -0.64393,0.60775 -1.09287,0.97059 0.46257,-0.1119 1.3227,-0.25408 0.86014,-0.14217 1.88656,-0.25866 l 44.02279,-4.69907 6.05389,13.03622 -69.0833,6.35501 z"
         style="font-style:normal;font-variant:normal;font-weight:800;font-stretch:normal;font-size:93.33333588px;font-family:Overpass;-inkscape-font-specification:'Overpass Ultra-Bold';letter-spacing:11.5px;word-spacing:20px"
         id="path1865" />
      <path
         d="m -375.11594,973.15685 53.9216,-36.89045 25.92872,37.89918 -10.51472,7.19364 -18.33982,-26.80674 -10.32213,7.06189 10.46107,15.29062 -10.51471,7.19364 -10.46108,-15.29063 -11.9783,8.19495 19.42019,28.38585 -10.59175,7.2464 z"
         style="font-style:normal;font-variant:normal;font-weight:800;font-stretch:normal;font-size:93.33333588px;font-family:Overpass;-inkscape-font-specification:'Overpass Ultra-Bold';letter-spacing:11.5px;word-spacing:20px"
         id="path1867" />
      <path
         d="m -334.40461,1029.4165 47.34899,-45.01683 21.41516,22.52463 q 5.65926,5.9524 6.87434,11.4295 1.28104,5.4788 -0.75385,10.2468 -1.96892,4.7695 -5.95977,8.5638 -2.67183,2.5402 -6.37596,4.1302 -3.67197,1.6237 -7.83509,1.7827 -4.12931,0.1268 -8.00905,-1.7867 l -9.98387,26.7492 -10.35388,-10.8903 8.85113,-25.0283 -8.81044,-9.2668 -17.1471,16.3025 z m 35.57312,-15.2761 12.28317,12.9195 q 2.05792,2.1645 4.09316,2.612 2.06741,0.4813 3.90256,-0.2976 1.90113,-0.7772 3.45688,-2.2563 1.42047,-1.3505 2.29097,-3.144 0.90266,-1.7597 0.56012,-3.8809 -0.3104,-2.0874 -2.43262,-4.3196 l -12.28317,-12.9195 z"
         style="font-style:normal;font-variant:normal;font-weight:800;font-stretch:normal;font-size:93.33333588px;font-family:Overpass;-inkscape-font-specification:'Overpass Ultra-Bold';letter-spacing:11.5px;word-spacing:20px"
         id="path1869" />
      <path
         d="m -268.27903,1091.5888 15.36274,-20.2692 4.53862,-46.6256 12.04995,9.1331 -2.7663,30.2264 28.31665,-10.8609 12.04995,9.1331 -43.59838,16.9623 -15.39093,20.3064 z"
         style="font-style:normal;font-variant:normal;font-weight:800;font-stretch:normal;font-size:93.33333588px;font-family:Overpass;-inkscape-font-specification:'Overpass Ultra-Bold';letter-spacing:11.5px;word-spacing:20px"
         id="path1871" />
      <path
         d="m -147.83074,1159.1729 -3.62109,-38.2611 q -0.0332,-0.4585 -0.047,-1.1083 -0.0138,-0.6498 -0.0118,-1.3436 -0.14598,0.5427 -0.38333,1.2012 -0.17763,0.6304 -0.33586,1.0695 l -11.37714,31.5656 -12.6438,-4.5572 22.15297,-61.4629 12.73161,4.5888 3.05036,38.0554 q 0.1348,1.1399 0.15373,2.1884 0.0347,1.0047 -0.0219,2.1252 0.71516,-0.8832 1.39867,-1.6785 0.69934,-0.8393 1.41093,-1.5749 l 27.02257,-27.2163 11.765757,4.2407 -22.152967,61.4629 -12.5999,-4.5413 11.40878,-31.6534 q 0.18988,-0.5269 0.41141,-1.1415 0.23735,-0.6585 0.42367,-1.0378 -0.4094,0.4477 -0.87851,0.9235 -0.42522,0.4916 -0.80297,0.8515 z"
         style="font-style:normal;font-variant:normal;font-weight:800;font-stretch:normal;font-size:93.33333588px;font-family:Overpass;-inkscape-font-specification:'Overpass Ultra-Bold';letter-spacing:11.5px;word-spacing:20px"
         id="path1873" />
      <path
         d="m -99.930516,1173.2973 35.148743,-60.6814 12.636997,1.9506 15.260884,68.4629 -14.435694,-2.2283 -2.934368,-13.7216 -24.397706,-3.7661 -6.843162,12.2123 z m 27.593026,-21.5224 15.496463,2.3921 -3.52929,-15.9856 q -0.169934,-0.7345 -0.403631,-1.6677 -0.226578,-0.9794 -0.407035,-1.9516 -0.180458,-0.9723 -0.297151,-1.7458 -0.344511,0.7023 -0.809739,1.5749 -0.465229,0.8726 -0.976578,1.738 -0.50423,0.8194 -0.887741,1.4685 z"
         style="font-style:normal;font-variant:normal;font-weight:800;font-stretch:normal;font-size:93.33333588px;font-family:Overpass;-inkscape-font-specification:'Overpass Ultra-Bold';letter-spacing:11.5px;word-spacing:20px"
         id="path1875" />
      <path
         d="m -17.409052,1183.8296 -1.427395,-65.3177 12.3170594,-0.2692 25.4627836,35.2454 q 0.482868,0.7363 1.401949,2.2099 0.919081,1.4736 1.410106,2.5832 -0.161377,-0.9767 -0.288334,-2.5143 -0.08132,-1.5853 -0.09865,-2.3784 l -0.780989,-35.7382 13.343481,-0.2916 1.427395,65.3178 -11.803849,0.2579 -25.9821115,-35.5141 q -0.5295239,-0.7353 -1.4496247,-2.2556 -0.8734453,-1.5213 -1.4111257,-2.6298 0.2131308,1.209 0.2437179,2.6087 0.076223,1.3519 0.097634,2.3317 l 0.7881258,36.0647 z"
         style="font-style:normal;font-variant:normal;font-weight:800;font-stretch:normal;font-size:93.33333588px;font-family:Overpass;-inkscape-font-specification:'Overpass Ultra-Bold';letter-spacing:11.5px;word-spacing:20px"
         id="path1877" />
      <path
         d="m 113.99831,1168.9966 -20.413329,-62.0624 29.523969,-9.7109 q 7.80213,-2.5662 13.27217,-1.3196 5.49978,1.1877 8.93757,5.0679 3.46754,3.8212 5.18809,9.0521 1.1519,3.5021 1.00305,7.5303 -0.10453,4.0136 -1.74309,7.844 -1.65314,3.7861 -5.04329,6.4732 l 19.90004,20.474 -14.27435,4.695 -18.82975,-18.7135 -12.1465,3.9951 7.39254,22.4755 z m 1.42314,-38.6883 16.93417,-5.5699 q 2.83714,-0.9332 4.11283,-2.5809 1.32003,-1.6623 1.40175,-3.6543 0.11146,-2.0508 -0.55926,-4.09 -0.6124,-1.8619 -1.86059,-3.4164 -1.20386,-1.5691 -3.26752,-2.1676 -2.01932,-0.6131 -4.94512,0.3493 l -16.93417,5.5699 z"
         style="font-style:normal;font-variant:normal;font-weight:800;font-stretch:normal;font-size:93.33333588px;font-family:Overpass;-inkscape-font-specification:'Overpass Ultra-Bold';letter-spacing:11.5px;word-spacing:20px"
         id="path1879" />
      <path
         d="m 185.19869,1143.1751 -30.49858,-57.7779 40.60958,-21.4361 5.94722,11.2666 -28.72385,15.1622 5.8383,11.0603 16.38415,-8.6485 5.94723,11.2667 -16.38415,8.6485 6.77504,12.835 30.41592,-16.0554 5.99079,11.3492 z"
         style="font-style:normal;font-variant:normal;font-weight:800;font-stretch:normal;font-size:93.33333588px;font-family:Overpass;-inkscape-font-specification:'Overpass Ultra-Bold';letter-spacing:11.5px;word-spacing:20px"
         id="path1881" />
      <path
         d="m 242.59037,1111.6595 -19.8737,-67.2511 10.10769,-7.8316 60.1938,36.0106 -11.54638,8.9462 -11.97881,-7.3076 -19.51448,15.1201 4.15826,13.3671 z m 3.35518,-34.833 12.39483,-9.6037 -14.03139,-8.4328 q -0.65007,-0.3819 -1.48825,-0.8541 -0.86676,-0.5091 -1.69663,-1.0468 -0.82988,-0.5378 -1.47164,-0.9851 0.27287,0.7332 0.58629,1.671 0.31342,0.9379 0.58995,1.9043 0.24795,0.9296 0.45535,1.6544 z"
         style="font-style:normal;font-variant:normal;font-weight:800;font-stretch:normal;font-size:93.33333588px;font-family:Overpass;-inkscape-font-specification:'Overpass Ultra-Bold';letter-spacing:11.5px;word-spacing:20px"
         id="path1883" />
      <path
         d="m 306.80229,1058.7205 -47.725,-44.618 9.17857,-9.8177 38.24818,35.7581 21.44852,-22.942 9.47683,8.8598 z"
         style="font-style:normal;font-variant:normal;font-weight:800;font-stretch:normal;font-size:93.33333588px;font-family:Overpass;-inkscape-font-specification:'Overpass Ultra-Bold';letter-spacing:11.5px;word-spacing:20px"
         id="path1885" />
      <path
         d="m 348.89226,1010.7662 -53.28449,-37.80487 7.77701,-10.96138 42.70371,30.2979 18.17334,-25.61461 10.58077,7.50696 z"
         style="font-style:normal;font-variant:normal;font-weight:800;font-stretch:normal;font-size:93.33333588px;font-family:Overpass;-inkscape-font-specification:'Overpass Ultra-Bold';letter-spacing:11.5px;word-spacing:20px"
         id="path1887" />
      <path
         d="m 388.422,948.3547 -22.63408,-11.59969 -46.70381,3.64734 6.89596,-13.45586 30.24643,-2.5378 -15.62445,-25.99361 6.89596,-13.45586 24.29298,39.97987 22.67562,11.62097 z"
         style="font-style:normal;font-variant:normal;font-weight:800;font-stretch:normal;font-size:93.33333588px;font-family:Overpass;-inkscape-font-specification:'Overpass Ultra-Bold';letter-spacing:11.5px;word-spacing:20px"
         id="path1889" />
      <path
         d="m 426.86852,847.66839 -64.16806,-12.28433 2.52706,-13.20028 51.42612,9.845 5.90525,-30.8465 12.74194,2.43932 z"
         style="font-style:normal;font-variant:normal;font-weight:800;font-stretch:normal;font-size:93.33333588px;font-family:Overpass;-inkscape-font-specification:'Overpass Ultra-Bold';letter-spacing:11.5px;word-spacing:20px"
         id="path1891" />
      <path
         d="m 436.65863,784.51067 -65.1381,-5.04698 1.03823,-13.39983 65.13811,5.04698 z"
         style="font-style:normal;font-variant:normal;font-weight:800;font-stretch:normal;font-size:93.33333588px;font-family:Overpass;-inkscape-font-specification:'Overpass Ultra-Bold';letter-spacing:11.5px;word-spacing:20px"
         id="path1893" />
      <path
         d="m 438.10506,729.2344 -64.12442,26.5577 -0.70162,-14.49636 41.16507,-16.33582 q 0.87209,-0.32254 1.69758,-0.64282 0.82548,-0.32028 1.37806,-0.48719 -0.47064,-0.0707 -1.32094,-0.26311 -0.85029,-0.19246 -1.84494,-0.47136 l -42.54801,-12.23741 -0.69485,-14.35652 66.38495,20.14762 z"
         style="font-style:normal;font-variant:normal;font-weight:800;font-stretch:normal;font-size:93.33333588px;font-family:Overpass;-inkscape-font-specification:'Overpass Ultra-Bold';letter-spacing:11.5px;word-spacing:20px"
         id="path1895" />
      <path
         d="m 433.31855,675.49711 -63.92824,13.4768 -9.47227,-44.93242 12.46601,-2.62798 6.69989,31.78147 12.2377,-2.57984 -3.82164,-18.12822 12.46601,-2.62798 3.82163,18.12822 14.20121,-2.99377 -7.09458,-33.65366 12.55734,-2.64723 z"
         style="font-style:normal;font-variant:normal;font-weight:800;font-stretch:normal;font-size:93.33333588px;font-family:Overpass;-inkscape-font-specification:'Overpass Ultra-Bold';letter-spacing:11.5px;word-spacing:20px"
         id="path1897" />
      <path
         d="m 410.4647,587.65153 q 2.21794,5.84679 1.94427,11.44087 -0.27368,5.59409 -2.8494,10.51419 -2.59227,4.87646 -7.28048,8.70127 l -8.50273,-9.65172 q 3.51462,-3.62918 4.95589,-8.11893 1.39764,-4.4732 -0.20788,-8.70557 -1.65518,-4.36328 -4.3936,-6.31917 -2.73841,-1.95589 -6.0545,-0.69796 -2.26891,0.86069 -3.17311,2.9506 -0.9042,2.08991 -0.98536,5.1653 -0.12479,3.09194 0.0484,6.96928 0.15659,3.8337 0.12812,7.83742 -0.0721,4.02028 -1.01388,7.72161 -0.94176,3.70132 -3.4047,6.682 -2.52312,2.95359 -7.19182,4.72463 -4.62507,1.75449 -9.39165,0.76761 -4.82677,-1.01396 -8.91034,-4.80541 -4.10013,-3.8351 -6.63256,-10.51091 -2.08552,-5.49772 -1.74412,-10.51856 0.29776,-5.00429 2.55453,-9.05472 2.25678,-4.05043 5.97154,-6.7573 l 7.94604,9.76308 q -2.31249,2.32466 -3.27835,5.43619 -0.98241,3.06789 0.62311,7.30027 1.42346,3.75242 3.59764,5.2735 2.114,1.494 4.73196,0.50089 1.70168,-0.64552 2.41029,-2.46158 0.64843,-1.84315 0.698,-4.60709 0.033,-2.80757 -0.0679,-6.36292 -0.15811,-4.23242 -0.0379,-8.52052 0.12024,-4.28809 1.20344,-8.14289 1.06664,-3.89844 3.70411,-6.94532 2.62091,-3.09051 7.50778,-4.94431 5.89042,-2.23449 11.16105,-0.83988 5.27063,1.3946 9.43246,5.65549 4.10164,4.23381 6.50165,10.56056 z"
         style="font-style:normal;font-variant:normal;font-weight:800;font-stretch:normal;font-size:93.33333588px;font-family:Overpass;-inkscape-font-specification:'Overpass Ultra-Bold';letter-spacing:11.5px;word-spacing:20px"
         id="path1899" />
    </g>
    <g
       aria-label="BOSS GEE"
       style="font-style:normal;font-variant:normal;font-weight:bold;font-stretch:normal;font-size:40px;line-height:125%;font-family:Impact;-inkscape-font-specification:'Impact Bold';letter-spacing:0px;word-spacing:0px;fill:#000000;fill-opacity:1;stroke:none;stroke-width:1px;stroke-linecap:butt;stroke-linejoin:miter;stroke-opacity:1"
       id="text1849">
      <path
         d="m -222.06927,443.83418 -35.19291,-55.04456 25.16323,-16.08819 q 6.76262,-4.3237 12.07695,-4.67501 5.35365,-0.37646 9.19197,1.98838 3.85251,2.30039 6.2406,6.03555 2.36295,3.69585 2.86895,7.69272 0.52018,3.93241 -2.02707,7.83197 3.65268,-0.78444 6.74331,0.0644 3.12995,0.82372 5.5393,2.77283 2.44867,1.92398 3.95694,4.28303 1.88533,2.94881 2.72327,6.51189 0.87726,3.53795 0.18375,7.30472 -0.6542,3.74163 -3.34132,7.50905 -2.67293,3.70297 -7.90217,7.0463 z m 4.53625,-17.85542 15.49111,-9.90429 q 2.63428,-1.68423 3.48572,-3.55795 0.89076,-1.89886 0.62584,-3.61272 -0.25074,-1.77832 -1.08029,-3.0758 -1.05579,-1.65134 -2.71874,-2.69292 -1.68809,-1.08091 -4.2431,-0.8321 -2.555,0.24882 -6.29017,2.63691 l -13.28933,8.49657 z m -14.52964,-22.72554 12.62093,-8.06923 q 4.01039,-2.56406 4.87794,-5.27892 0.90686,-2.74 -0.72709,-5.29564 -0.85469,-1.33679 -2.13091,-2.2933 -1.2369,-0.98165 -3.14091,-0.92749 -1.92914,0.0148 -4.64205,1.74934 l -13.99705,8.94906 z"
         style="font-style:normal;font-variant:normal;font-weight:800;font-stretch:normal;font-size:93.33333588px;font-family:Overpass;-inkscape-font-specification:'Overpass Ultra-Bold';letter-spacing:1px;word-spacing:18.75px"
         id="path1902" />
      <path
         d="m -139.64032,400.1633 q -7.28072,2.90806 -13.48507,2.22036 -6.22167,-0.73105 -11.20285,-4.01787 -4.95515,-3.34748 -8.64429,-8.30615 -3.64581,-4.97599 -5.89609,-10.60987 -2.25028,-5.63389 -3.0358,-11.75233 -0.74219,-6.13574 0.56058,-11.9325 1.3288,-5.8574 5.35211,-10.63024 4.00601,-4.81617 11.28672,-7.72422 7.36739,-2.94268 13.54572,-2.19433 6.16102,0.70501 11.11617,4.05249 4.98118,3.28682 8.62698,8.26281 3.64581,4.97598 5.89609,10.60987 2.25028,5.63389 3.03581,11.75232 0.78552,6.11844 -0.54328,11.97584 -1.30277,5.79676 -5.26544,10.59562 -3.97997,4.75552 -11.34736,7.6982 z m -4.81214,-12.04785 q 3.8137,-1.52327 5.70425,-4.3387 1.93389,-2.83274 2.37762,-6.37683 0.42642,-3.58742 -0.18701,-7.26202 -0.61343,-3.6746 -1.87705,-6.83824 -1.35017,-3.38033 -3.41105,-6.52704 -2.06088,-3.14671 -4.80682,-5.36653 -2.70261,-2.23712 -6.0386,-2.91473 -3.33598,-0.6776 -7.23637,0.88029 -3.90038,1.55789 -5.81696,4.43397 -1.93388,2.83274 -2.37761,6.37683 -0.44373,3.54408 0.23034,7.24471 0.67408,3.70062 1.9377,6.86427 1.33286,3.33699 3.39374,6.4837 2.08691,3.08607 4.83285,5.30588 2.78928,2.20251 6.12527,2.88011 3.33599,0.6776 7.1497,-0.84567 z"
         style="font-style:normal;font-variant:normal;font-weight:800;font-stretch:normal;font-size:93.33333588px;font-family:Overpass;-inkscape-font-specification:'Overpass Ultra-Bold';letter-spacing:1px;word-spacing:18.75px"
         id="path1904" />
      <path
         d="m -78.124675,381.54796 q -6.11535,1.30639 -11.603377,0.18824 -5.488027,-1.11816 -9.961028,-4.40965 -4.42736,-3.30125 -7.49764,-8.51488 l 10.828658,-6.94208 q 3.054725,4.02395 7.274246,6.12889 4.209771,2.0593 8.636554,1.11362 4.563694,-0.97492 6.91194,-3.38536 2.348247,-2.41043 1.607304,-5.87884 -0.506961,-2.37312 -2.435728,-3.58355 -1.928767,-1.21043 -4.956351,-1.75665 -3.037334,-0.59186 -6.896133,-1.00823 -3.813161,-0.42612 -7.766343,-1.06092 -3.962931,-0.68044 -7.478817,-2.17218 -3.51589,-1.49174 -6.08895,-4.37788 -2.53718,-2.94152 -3.58034,-7.82468 -1.03342,-4.83751 0.66431,-9.39952 1.73362,-4.61739 6.10007,-8.07932 4.412075,-3.47168 11.394526,-4.96331 5.750254,-1.22841 10.66139,-0.13017 4.901387,1.0526 8.563094,3.89705 3.661707,2.84446 5.774445,6.92649 l -10.85437,6.37494 q -1.947423,-2.63803 -4.876672,-4.06421 -2.883612,-1.43593 -7.310395,-0.49025 -3.924777,0.83843 -5.757737,2.75703 -1.797073,1.86321 -1.212118,4.60142 0.380221,1.77985 2.067945,2.75545 1.723611,0.92022 4.448126,1.38803 2.770152,0.45805 6.299743,0.89703 4.207505,0.48504 8.427868,1.25364 4.220363,0.76861 7.866524,2.4234 3.691797,1.64503 6.303854,4.71372 2.657694,3.05894 3.749609,8.17028 1.316149,6.16098 -0.860985,11.15944 -2.177133,4.99846 -7.019443,8.46661 -4.806423,3.41275 -11.423779,4.8264 z"
         style="font-style:normal;font-variant:normal;font-weight:800;font-stretch:normal;font-size:93.33333588px;font-family:Overpass;-inkscape-font-specification:'Overpass Ultra-Bold';letter-spacing:1px;word-spacing:18.75px"
         id="path1906" />
      <path
         d="m -19.575981,373.75721 q -6.243291,0.35426 -11.495278,-1.59134 -5.251987,-1.94559 -9.168023,-5.8834 -3.869443,-3.94046 -6.104879,-9.56285 l 11.764226,-5.20147 q 2.402302,4.44438 6.249601,7.17081 3.844655,2.67983 8.364053,2.42339 4.659172,-0.26437 7.348928,-2.28666 2.6897552,-2.02229 2.488834,-5.56326 -0.137472,-2.42277 -1.858068,-3.91436 -1.720596,-1.49159 -4.628784,-2.49512 -2.910831,-1.05012 -6.660314,-2.05265 -3.70289,-1.00518 -7.512183,-2.23802 -3.811936,-1.27944 -7.057836,-3.29213 -3.245899,-2.01268 -5.346506,-5.25889 -2.056659,-3.29545 -2.339534,-8.28076 -0.280233,-4.93873 2.096259,-9.18685 2.420439,-4.29735 7.265637,-7.04959 4.89179,-2.75488 12.020324,-3.15936 5.870557,-0.33311 10.555513,1.50444 4.6823115,1.79095 7.8651029,5.16272 3.1827914,3.37178 4.6453276,7.72926 l -11.7027675,4.63708 q -1.520356,-2.9052 -4.19658,-4.76324 -2.629632,-1.86069 -7.149029,-1.60425 -4.006889,0.22736 -6.112101,1.84255 -2.061265,1.56595 -1.902643,4.36145 0.103104,1.81708 1.621471,3.03969 1.562315,1.17338 4.183021,2.053 2.667298,0.87697 6.087995,1.85141 4.083555,1.12381 8.136381,2.5298 4.0528263,1.406 7.4024839,3.59976 3.3962493,2.19112 5.50743102,5.6237 2.15777348,3.42994 2.45386768,8.64821 0.3568993,6.28988 -2.56018661,10.89587 -2.91708589,4.60598 -8.23348899,7.29147 -5.272455,2.63626 -12.028255,3.01959 z"
         style="font-style:normal;font-variant:normal;font-weight:800;font-stretch:normal;font-size:93.33333588px;font-family:Overpass;-inkscape-font-specification:'Overpass Ultra-Bold';letter-spacing:1px;word-spacing:18.75px"
         id="path1908" />
      <path
         d="m 86.955737,382.93215 q -7.368251,-1.69189 -12.063142,-5.64278 -4.638965,-3.98594 -6.929005,-9.44353 -2.279596,-5.50307 -2.569744,-11.74636 -0.279704,-6.28877 1.151088,-12.51994 1.347241,-5.86731 4.310984,-11.26769 3.01967,-5.43541 7.537934,-9.47333 4.563746,-4.02747 10.508177,-5.72692 5.94443,-1.69944 13.176231,-0.0389 6.14021,1.4099 9.99113,4.44879 3.86137,2.99341 6.12174,6.91199 2.26038,3.91858 3.70947,8.03393 l -12.95518,3.87225 q -1.34027,-3.75519 -3.56121,-6.80286 -2.21051,-3.09315 -6.167531,-4.00175 -4.138956,-0.95038 -7.352058,0.32284 -3.213102,1.27322 -5.550221,3.94461 -2.337119,2.67138 -3.889903,6.09744 -1.552783,3.42606 -2.325619,6.79181 -0.887717,3.86606 -0.914965,7.73817 -0.0168,3.82663 0.997669,7.12396 1.059957,3.30778 3.392077,5.66276 2.388047,2.31994 6.254105,3.20765 2.774465,0.63707 5.37608,-0.0583 2.657542,-0.73045 4.547928,-2.49891 1.900828,-1.81395 2.475238,-4.31552 l 0.1671,-0.72773 -10.552067,-2.42294 2.861582,-12.46235 23.969555,5.50384 -2.22451,9.68789 q -1.86943,8.14146 -6.30278,13.06074 -4.43335,4.91928 -10.46875,6.59783 -6.035397,1.67856 -12.721403,0.14333 z"
         style="font-style:normal;font-variant:normal;font-weight:800;font-stretch:normal;font-size:93.33333588px;font-family:Overpass;-inkscape-font-specification:'Overpass Ultra-Bold';letter-spacing:1px;word-spacing:18.75px"
         id="path1910" />
      <path
         d="m 124.70554,392.07048 25.66561,-60.08095 42.22833,18.03926 -5.0048,11.71578 -29.86881,-12.75947 -4.91314,11.50121 17.03725,7.27803 -5.0048,11.71579 -17.03724,-7.27803 -5.70143,13.34655 31.62833,13.51111 -5.04146,11.80162 z"
         style="font-style:normal;font-variant:normal;font-weight:800;font-stretch:normal;font-size:93.33333588px;font-family:Overpass;-inkscape-font-specification:'Overpass Ultra-Bold';letter-spacing:1px;word-spacing:18.75px"
         id="path1912" />
      <path
         d="m 179.77053,417.05544 34.75887,-55.31967 38.88182,24.43052 -6.77798,10.78733 -27.50178,-17.28012 -6.65384,10.58977 15.68708,9.85662 -6.77798,10.78734 -15.68708,-9.85663 -7.72143,12.28887 29.12186,18.29806 -6.82764,10.86637 z"
         style="font-style:normal;font-variant:normal;font-weight:800;font-stretch:normal;font-size:93.33333588px;font-family:Overpass;-inkscape-font-specification:'Overpass Ultra-Bold';letter-spacing:1px;word-spacing:18.75px"
         id="path1914" />
    </g>
    <text
       id="text1853"
       y="351"
       x="0"
       style="font-style:normal;font-variant:normal;font-weight:bold;font-stretch:normal;font-size:40px;line-height:125%;font-family:Impact;-inkscape-font-specification:'Impact Bold';letter-spacing:0px;word-spacing:0px;fill:#000000;fill-opacity:1;stroke:none;stroke-width:1px;stroke-linecap:butt;stroke-linejoin:miter;stroke-opacity:1"
       xml:space="preserve"><tspan
         y="391.0433"
         x="0"
         id="tspan1851"
         sodipodi:role="line" /></text>
  </g>
  <g
     inkscape:groupmode="layer"
     id="layer10"
     inkscape:label="Sprue Template"
     style="display:none">
    <circle
       style="display:inline;opacity:1;fill:#0000e0;fill-opacity:1;stroke:none;stroke-width:46.21465683;stroke-linejoin:round;stroke-miterlimit:6.4000001;stroke-dasharray:none;stroke-dashoffset:0;stroke-opacity:1;paint-order:markers stroke fill"
       id="path5763"
       cx="0"
       cy="745"
       r="6.0900416" />
  </g>
  <g
     style="display:inline"
     inkscape:label="Sprue Template Outer"
     id="g6452"
     inkscape:groupmode="layer">
    <circle
       r="6.0900416"
       cy="745"
       cx="-462.13651"
       id="circle6450"
       style="display:inline;opacity:1;fill:#0000e0;fill-opacity:1;stroke:none;stroke-width:46.21465683;stroke-linejoin:round;stroke-miterlimit:6.4000001;stroke-dasharray:none;stroke-dashoffset:0;stroke-opacity:1;paint-order:markers stroke fill" />
  </g>
  <g
     inkscape:groupmode="layer"
     id="g7468"
     inkscape:label="Sprue Template Outer Larger"
     style="display:inline;opacity:0.48300003">
    <path
       style="display:inline;opacity:1;fill:#0000e0;fill-opacity:1;stroke:none;stroke-width:46.21465683;stroke-linejoin:round;stroke-miterlimit:6.4000001;stroke-dasharray:none;stroke-dashoffset:0;stroke-opacity:1;paint-order:markers stroke fill"
       d="m -462.87109,722.81055 c -19.73585,-0.88605 -28.61691,28.98768 -12.92774,40.03906 13.19225,11.43002 35.24081,-0.6272 35.9336,-17.125 1.07216,-12.48834 -10.90125,-23.26017 -23.00586,-22.91406 z"
       id="circle7466"
       inkscape:connector-curvature="0" />
  </g>
  <g
     inkscape:groupmode="layer"
     id="g6456"
     inkscape:label="Sprue Template Inner"
     style="display:inline">
    <circle
       style="display:inline;opacity:1;fill:#0000e0;fill-opacity:1;stroke:none;stroke-width:45.62179947;stroke-linejoin:round;stroke-miterlimit:6.4000001;stroke-dasharray:none;stroke-dashoffset:0;stroke-opacity:1;paint-order:markers stroke fill"
       id="circle6454"
       cx="-351.15009"
       cy="745"
       r="6.0119166" />
  </g>
  <g
     style="display:inline;opacity:0.612"
     inkscape:label="Sprue Template Inner Larger"
     id="g7478"
     inkscape:groupmode="layer">
    <path
       style="display:inline;opacity:1;fill:#0000e0;fill-opacity:1;stroke:none;stroke-width:45.62179947;stroke-linejoin:round;stroke-miterlimit:6.4000001;stroke-dasharray:none;stroke-dashoffset:0;stroke-opacity:1;paint-order:markers stroke fill"
       d="m -352.35742,722.9082 c -19.39226,-0.42606 -27.87176,28.95802 -12.42969,39.85938 13.40959,11.6447 35.96901,-1.10592 35.87891,-17.96875 0.38698,-12.26907 -11.52581,-22.49945 -23.44922,-21.89063 z"
       id="circle7476"
       inkscape:connector-curvature="0" />
  </g>
  <g
     style="display:inline"
     inkscape:label="Sprue Template Cheek"
     id="g6460"
     inkscape:groupmode="layer">
    <circle
       r="5.9181666"
       cy="745"
       cx="-209.93495"
       id="circle6458"
       style="display:inline;opacity:1;fill:#0000e0;fill-opacity:1;stroke:none;stroke-width:44.91037369;stroke-linejoin:round;stroke-miterlimit:6.4000001;stroke-dasharray:none;stroke-dashoffset:0;stroke-opacity:1;paint-order:markers stroke fill" />
  </g>
  <g
     inkscape:groupmode="layer"
     id="g7488"
     inkscape:label="Sprue Template Cheek Larger"
     style="display:inline;opacity:0.478">
    <path
       style="display:inline;opacity:1;fill:#0000e0;fill-opacity:1;stroke:none;stroke-width:44.91037369;stroke-linejoin:round;stroke-miterlimit:6.4000001;stroke-dasharray:none;stroke-dashoffset:0;stroke-opacity:1;paint-order:markers stroke fill"
       d="m -211.17383,723.00781 c -19.32936,-0.42367 -27.63472,28.83329 -12.31836,39.68946 13.30041,11.58451 35.70521,-1.01324 35.67578,-17.76368 0.52897,-12.3093 -11.41123,-22.56914 -23.35742,-21.92578 z"
       id="circle7486"
       inkscape:connector-curvature="0" />
  </g>
</svg>
