<?xml version="1.0" encoding="UTF-8" standalone="no"?>
<svg
   xmlns:dc="http://purl.org/dc/elements/1.1/"
   xmlns:cc="http://creativecommons.org/ns#"
   xmlns:rdf="http://www.w3.org/1999/02/22-rdf-syntax-ns#"
   xmlns:svg="http://www.w3.org/2000/svg"
   xmlns="http://www.w3.org/2000/svg"
   viewBox="0 0 570 745"
   height="745"
   width="570"
   id="svg885"
   version="1.1">
  <metadata
     id="metadata891">
    <rdf:RDF>
      <cc:Work
         rdf:about="">
        <dc:format>image/svg+xml</dc:format>
        <dc:type
           rdf:resource="http://purl.org/dc/dcmitype/StillImage" />
        <dc:title></dc:title>
      </cc:Work>
    </rdf:RDF>
  </metadata>
  <defs
     id="defs889" />
  <g
     style="display:inline"
     id="layer3">
    <path
       d="m 131.52648,249.19336 c 0,0 2.13183,15.7399 0.68862,23.41309 -1.52095,8.08651 -6.42465,15.15069 -9.64068,22.72447 -2.30789,5.43511 -4.52671,10.90902 -6.929,16.30307 -3.75186,8.42434 -9.5582,16.10364 -11.68627,25.07679 -2.52928,10.66487 -0.97386,32.86765 -0.97386,32.86765 h -2 c 0,0 -1.55542,-22.20278 0.97386,-32.86765 2.12807,-8.97315 7.93441,-16.65245 11.68627,-25.07679 2.40229,-5.39405 4.62111,-10.86796 6.929,-16.30307 3.21603,-7.57378 8.11973,-14.63796 9.64068,-22.72447 1.44321,-7.67319 -0.68862,-23.41309 -0.68862,-23.41309 z"
       style="fill:none;fill-rule:evenodd;stroke:#ff0000;stroke-width:1px;stroke-linecap:butt;stroke-linejoin:miter;stroke-opacity:1"
       id="path1042" />
    <path
       d="m 466.52941,238.59477 c 0,0 -4.23033,16.92558 -2.92157,25.32026 1.70091,10.91002 9.31021,20.0295 13.63399,30.18955 6.16081,14.47673 14.75242,28.33741 17.52941,43.82352 2.23532,12.46546 -0.97385,37.9804 -0.97385,37.9804 h -2 c 0,0 3.20917,-25.51494 0.97385,-37.9804 -2.77699,-15.48611 -11.3686,-29.34679 -17.52941,-43.82352 -4.32378,-10.16005 -11.93308,-19.27953 -13.63399,-30.18955 -1.30876,-8.39468 2.92157,-25.32026 2.92157,-25.32026 z"
       style="fill:none;fill-rule:evenodd;stroke:#ff0000;stroke-width:1px;stroke-linecap:butt;stroke-linejoin:miter;stroke-opacity:1"
       id="path1045" />
    <path
       d="m 197.44935,529.65605 c 0,0 3.30912,-28.68249 1.70424,-44.18873 -7.50796,-4.36609 -19.79301,-3.97164 -27.26797,-8.76471 -21.97796,-14.09262 -44.79738,-16.06862 -44.79738,-16.06862 l 2,-2 c 0,0 22.81942,1.976 44.79738,16.06862 7.47496,4.79307 19.76001,4.39862 27.26797,8.76471 1.60488,15.50624 -1.70424,44.18873 -1.70424,44.18873 z"
       style="fill:none;fill-rule:evenodd;stroke:#ff0000;stroke-width:1px;stroke-linecap:butt;stroke-linejoin:miter;stroke-opacity:1"
       id="path1048" />
    <path
       d="m 163.38779,566.68911 c 0,0 -9.72599,-32.37862 -12.74665,-48.64858 l -8.85121,-47.67472 h -2 l 8.85121,47.67472 c 3.02066,16.26996 12.74665,48.64858 12.74665,48.64858 z"
       style="fill:none;fill-rule:evenodd;stroke:#ff0000;stroke-width:1px;stroke-linecap:butt;stroke-linejoin:miter;stroke-opacity:1"
       id="path1051" />
    <path
       d="m 428.32184,574.91078 c 8.85304,-20.92538 8.73668,-25.66952 11.74832,-37.06735 5.56213,-21.05037 7.00435,-50.42203 8.22167,-60.02812 h -2 c -1.21732,9.60609 -2.65954,38.97775 -8.22167,60.02812 -3.01164,11.39783 -2.89528,16.14197 -11.74832,37.06735 z"
       style="fill:none;fill-rule:evenodd;stroke:#ff0000;stroke-width:1px;stroke-linecap:butt;stroke-linejoin:miter;stroke-opacity:1"
       id="path1054" />
    <path
       d="m 394.12973,521.63031 c 0,0 -3.0821,-19.65368 -0.51735,-30.32104 5.17918,-5.00749 11.8246,-4.30997 17.55982,-6.8862 6.69543,-3.00755 18.13836,-8.45411 25.13464,-10.67362 8.86254,-2.81156 22.09678,-3.30745 22.09678,-3.30745 l 2,2 c 0,0 -13.23424,0.49589 -22.09678,3.30745 -6.99628,2.21951 -18.43921,7.66607 -25.13464,10.67362 -5.73522,2.57623 -12.38064,1.87871 -17.55982,6.8862 -2.56475,10.66736 0.51735,30.32104 0.51735,30.32104 z"
       style="fill:none;fill-rule:evenodd;stroke:#ff0000;stroke-width:1px;stroke-linecap:butt;stroke-linejoin:miter;stroke-opacity:1"
       id="path1057" />
  </g>
</svg>
