<?xml version="1.0" encoding="UTF-8" standalone="no"?>
<svg
   xmlns:dc="http://purl.org/dc/elements/1.1/"
   xmlns:cc="http://creativecommons.org/ns#"
   xmlns:rdf="http://www.w3.org/1999/02/22-rdf-syntax-ns#"
   xmlns:svg="http://www.w3.org/2000/svg"
   xmlns="http://www.w3.org/2000/svg"
   viewBox="0 0 570 745"
   height="745"
   width="570"
   id="svg885"
   version="1.1">
  <metadata
     id="metadata891">
    <rdf:RDF>
      <cc:Work
         rdf:about="">
        <dc:format>image/svg+xml</dc:format>
        <dc:type
           rdf:resource="http://purl.org/dc/dcmitype/StillImage" />
        <dc:title></dc:title>
      </cc:Work>
    </rdf:RDF>
  </metadata>
  <defs
     id="defs889" />
  <g
     id="g5041"
     style="display:inline">
    <g
       id="text5035"
       style="font-style:normal;font-variant:normal;font-weight:bold;font-stretch:normal;font-size:62.01516724px;line-height:125%;font-family:Impact;-inkscape-font-specification:'Impact Bold';letter-spacing:0px;word-spacing:0px;display:inline;opacity:0.36199999;fill:#000000;fill-opacity:1;stroke:none;stroke-width:1.5503794px;stroke-linecap:butt;stroke-linejoin:miter;stroke-opacity:1"
       aria-label="EVERY MAN">
      <path
         id="path5052"
         style="font-style:normal;font-variant:normal;font-weight:bold;font-stretch:normal;font-family:Futura;-inkscape-font-specification:'Futura Bold';text-align:center;text-anchor:middle;stroke-width:1.5503794px"
         d="m 137.75338,142.59583 v -10.29452 h -26.6045 v 46.75944 h 26.6045 v -10.29452 h -14.44953 v -8.06197 h 13.70535 v -10.29452 h -13.70535 v -7.81391 z" />
      <path
         id="path5054"
         style="font-style:normal;font-variant:normal;font-weight:bold;font-stretch:normal;font-family:Futura;-inkscape-font-specification:'Futura Bold';text-align:center;text-anchor:middle;stroke-width:1.5503794px"
         d="m 153.5672,132.30131 h -13.20923 l 19.65881,46.75944 h 9.42631 l 19.96888,-46.75944 h -13.20923 l -11.34878,28.40295 z" />
      <path
         id="path5056"
         style="font-style:normal;font-variant:normal;font-weight:bold;font-stretch:normal;font-family:Futura;-inkscape-font-specification:'Futura Bold';text-align:center;text-anchor:middle;stroke-width:1.5503794px"
         d="m 219.0552,142.59583 v -10.29452 h -26.60451 v 46.75944 h 26.60451 v -10.29452 h -14.44953 v -8.06197 h 13.70535 v -10.29452 h -13.70535 v -7.81391 z" />
      <path
         id="path5058"
         style="font-style:normal;font-variant:normal;font-weight:bold;font-stretch:normal;font-family:Futura;-inkscape-font-specification:'Futura Bold';text-align:center;text-anchor:middle;stroke-width:1.5503794px"
         d="m 250.7449,159.89806 q 4.83718,-0.86821 7.50384,-4.52711 2.72866,-3.65889 2.72866,-8.68212 0,-7.19376 -4.46509,-10.79064 -4.46509,-3.59688 -11.78288,-3.59688 h -18.17044 v 46.75944 h 12.15497 v -17.9844 h 0.12403 l 11.47281,17.9844 h 15.1317 z m -12.03094,-18.29448 h 1.17829 q 1.67441,0 3.10076,0.24806 1.48836,0.18605 2.66665,0.8062 1.2403,0.62015 1.92247,1.79844 0.74418,1.17829 0.74418,2.97673 0,1.79844 -0.74418,2.97673 -0.68217,1.17829 -1.92247,1.79844 -1.17829,0.62015 -2.66665,0.86821 -1.42635,0.18605 -3.10076,0.18605 h -1.17829 z" />
      <path
         id="path5060"
         style="font-style:normal;font-variant:normal;font-weight:bold;font-stretch:normal;font-family:Futura;-inkscape-font-specification:'Futura Bold';text-align:center;text-anchor:middle;stroke-width:1.5503794px"
         d="m 278.3415,156.61125 v 22.4495 h 12.15498 v -22.4495 l 17.24021,-24.30994 h -14.57356 l -8.74414,12.71311 -8.74414,-12.71311 h -14.57356 z" />
      <path
         id="path5062"
         style="font-style:normal;font-variant:normal;font-weight:bold;font-stretch:normal;font-family:Futura;-inkscape-font-specification:'Futura Bold';text-align:center;text-anchor:middle;stroke-width:1.5503794px"
         d="m 329.00773,179.06075 h 12.09296 l 3.90695,-26.91459 h 0.12403 l 10.72863,26.91459 h 4.83718 l 11.22474,-26.91459 h 0.12404 l 3.41083,26.91459 h 12.15497 l -7.06973,-46.75944 h -12.09295 l -10.04646,24.99211 -9.48832,-24.99211 h -11.96893 z" />
      <path
         id="path5064"
         style="font-style:normal;font-variant:normal;font-weight:bold;font-stretch:normal;font-family:Futura;-inkscape-font-specification:'Futura Bold';text-align:center;text-anchor:middle;stroke-width:1.5503794px"
         d="m 421.4103,170.93676 3.03874,8.12399 h 12.96117 L 419.7979,132.30131 h -13.27124 l -17.9844,46.75944 h 12.89915 l 3.22479,-8.12399 z m -3.28681,-9.30228 h -10.10847 l 5.02323,-14.88364 h 0.12403 z" />
      <path
         id="path5066"
         style="font-style:normal;font-variant:normal;font-weight:bold;font-stretch:normal;font-family:Futura;-inkscape-font-specification:'Futura Bold';text-align:center;text-anchor:middle;stroke-width:1.5503794px"
         d="m 441.19303,179.06075 h 12.15498 v -28.65101 h 0.12403 l 22.26344,28.65101 h 12.15498 v -46.75944 h -12.15498 v 28.58899 h -0.12403 l -22.26344,-28.58899 h -12.15498 z" />
    </g>
    <g
       id="text5039"
       style="font-style:normal;font-variant:normal;font-weight:bold;font-stretch:normal;font-size:84.44282532px;line-height:125%;font-family:Impact;-inkscape-font-specification:'Impact Bold';letter-spacing:0px;word-spacing:0px;display:inline;opacity:0.36199999;fill:#000000;fill-opacity:1;stroke:none;stroke-width:2.11107063px;stroke-linecap:butt;stroke-linejoin:miter;stroke-opacity:1"
       aria-label="DIES">
      <path
         id="path5043"
         style="font-style:normal;font-variant:normal;font-weight:bold;font-stretch:normal;font-family:Futura;-inkscape-font-specification:'Futura Bold';stroke-width:2.11107063px"
         d="m 208.78595,262.99072 h 23.4751 q 6.5021,0 12.4131,-2.44884 5.911,-2.44884 10.38647,-6.75543 4.47547,-4.39102 7.00875,-10.21758 2.53329,-5.82655 2.53329,-12.41309 0,-6.58654 -2.53329,-12.4131 -2.44884,-5.82655 -6.92431,-10.21758 -4.47547,-4.39103 -10.38647,-6.75543 -5.911,-2.44884 -12.49754,-2.44884 h -23.4751 z m 16.55079,-49.65238 h 3.88437 q 8.19096,0 13.17308,4.7288 4.98213,4.7288 4.98213,13.08864 0,4.47547 -1.43553,7.93762 -1.43553,3.37772 -3.96881,5.57323 -2.53329,2.19551 -5.82656,3.29327 -3.29327,1.01331 -7.09319,1.01331 h -3.71549 z" />
      <path
         id="path5045"
         style="font-style:normal;font-variant:normal;font-weight:bold;font-stretch:normal;font-family:Futura;-inkscape-font-specification:'Futura Bold';stroke-width:2.11107063px"
         d="m 288.83765,199.32083 h -16.55079 v 63.66989 h 16.55079 z" />
      <path
         id="path5047"
         style="font-style:normal;font-variant:normal;font-weight:bold;font-stretch:normal;font-family:Futura;-inkscape-font-specification:'Futura Bold';stroke-width:2.11107063px"
         d="m 335.87226,213.33834 v -14.01751 h -36.22598 v 63.66989 h 36.22598 v -14.01751 h -19.67518 v -10.97756 h 18.66186 v -14.01751 h -18.66186 v -10.6398 z" />
      <path
         id="path5049"
         style="font-style:normal;font-variant:normal;font-weight:bold;font-stretch:normal;font-family:Futura;-inkscape-font-specification:'Futura Bold';stroke-width:2.11107063px"
         d="m 387.63565,202.86743 q -4.22214,-2.3644 -9.62648,-3.79993 -5.40434,-1.43552 -10.30203,-1.43552 -4.72879,0 -8.78205,1.51997 -4.05326,1.51997 -7.00875,4.39102 -2.9555,2.78662 -4.55992,6.75543 -1.60441,3.88437 -1.60441,8.69761 0,4.47547 1.1822,7.51541 1.1822,2.9555 3.37771,4.89769 2.27996,1.85774 5.15101,3.03994 2.87106,1.1822 7.51542,2.53328 0.16888,0.0845 0.50665,0.16889 1.94219,0.50666 3.37772,1.01331 1.51997,0.50666 2.95549,1.35109 1.43553,0.84443 2.27996,2.02663 0.92887,1.09775 0.92887,2.70217 0,3.12438 -2.3644,4.81324 -2.3644,1.60441 -5.65767,1.60441 -3.96881,0 -7.59985,-1.7733 -3.63104,-1.7733 -7.0932,-4.81324 l -7.0932,13.34197 q 4.89769,3.46215 10.6398,5.40434 5.82656,1.85774 11.73755,1.85774 5.06657,0 9.79537,-1.51997 4.7288,-1.43553 8.2754,-4.47547 3.5466,-3.03994 5.06657,-7.43097 1.51997,-4.47547 1.51997,-9.71092 0,-3.71549 -1.1822,-6.58655 -1.09776,-2.87105 -3.29327,-4.89768 -2.11107,-2.02663 -4.89769,-3.46216 -2.78661,-1.43552 -6.33321,-2.44884 l -4.22214,-1.26664 v 0 q -3.29327,-1.09776 -5.3199,-2.3644 -2.02662,-1.26664 -2.02662,-3.71548 0,-2.44884 2.19551,-3.88437 2.27996,-1.43553 4.89768,-1.43553 2.9555,0 5.74212,1.1822 2.87105,1.09776 5.23545,3.03994 z" />
    </g>
  </g>
</svg>
