<?xml version="1.0" encoding="UTF-8" standalone="no"?>
<svg
   xmlns:dc="http://purl.org/dc/elements/1.1/"
   xmlns:cc="http://creativecommons.org/ns#"
   xmlns:rdf="http://www.w3.org/1999/02/22-rdf-syntax-ns#"
   xmlns:svg="http://www.w3.org/2000/svg"
   xmlns="http://www.w3.org/2000/svg"
   viewBox="0 0 570 745"
   height="745"
   width="570"
   id="svg885"
   version="1.1">
  <metadata
     id="metadata891">
    <rdf:RDF>
      <cc:Work
         rdf:about="">
        <dc:format>image/svg+xml</dc:format>
        <dc:type
           rdf:resource="http://purl.org/dc/dcmitype/StillImage" />
        <dc:title></dc:title>
      </cc:Work>
    </rdf:RDF>
  </metadata>
  <defs
     id="defs889" />
  <g
     style="display:inline"
     id="layer2">
    <path
       id="path900"
       d="m 163.89164,399.31259 c 16.89873,5.18427 36.44956,5.45464 53.02376,-0.68862 18.94585,-7.02231 41.5893,-19.30294 46.48188,-38.90704 4.88713,-19.58227 -8.8242,-41.48932 -22.72447,-56.12256 -8.98218,-9.45582 -16.56942,-15.70536 -29.61068,-15.83827 -13.92482,-0.14191 -29.23925,11.99791 -44.0717,16.18258 -12.86494,3.62958 -30.39998,9.69602 -37.52981,21.00292 -6.18772,9.81285 -0.43836,18.28332 2.06586,29.61067 2.44318,11.05126 5.97566,22.52462 13.08379,31.33223 4.91885,6.09489 11.79365,11.13097 19.28137,13.42809 z"
       style="fill:none;fill-rule:evenodd;stroke:#ff0000;stroke-width:1px;stroke-linecap:butt;stroke-linejoin:miter;stroke-opacity:1" />
    <path
       id="path902"
       d="m 377.12582,291.66994 c -4.44066,1.63499 -5.6614,1.12136 -9.4951,3.89542 -7.64482,5.53178 -16.96412,10.18787 -21.42484,18.50327 -4.8726,9.0832 -3.76375,16.041 -7.06045,25.80719 -1.1397,3.37625 -1.78343,10.5809 -2.19118,14.12091 -0.89303,7.7531 2.21691,16.09414 6.81699,22.39869 6.05065,8.29259 16.26049,12.70262 25.32026,17.52942 11.38524,6.06575 23.44189,11.31213 36.03268,14.12091 9.68409,2.16035 20.3199,5.17469 29.70262,1.94771 9.45774,-3.25278 17.33625,-11.33844 22.39869,-19.96405 10.60418,-18.06787 13.63809,-40.89666 13.63399,-61.35294 -0.002,-9.65161 -13.63793,-12.07286 -21.91177,-17.04248 -9.9024,-5.94781 -20.3172,-9.45146 -31.65032,-11.68628 -7.01392,-1.3831 -12.23888,-1.91157 -18.50327,-5.3562 -3.47217,-1.90926 -7.54576,-2.36165 -11.19935,-3.89544 -2.73098,-1.14648 -7.68949,-0.0495 -10.46895,0.97387 z"
       style="fill:none;fill-rule:evenodd;stroke:#ff0000;stroke-width:1px;stroke-linecap:butt;stroke-linejoin:miter;stroke-opacity:1" />
    <path
       id="path904"
       d="m 295.76243,369.0133 c -4.32002,-0.46169 -8.61849,-4.13043 -12.73947,-2.75448 -7.48621,2.49956 -11.03155,10.84716 -13.77241,18.24844 -8.36611,22.59143 -15.1287,49.57814 -15.14965,70.23927 -0.008,7.54546 9.95441,18.68526 17.21551,27.88913 3.45479,4.37915 7.85782,11.99749 13.4281,11.70654 3.8935,-0.20337 4.83144,-7.7908 8.26344,-9.64068 1.24965,-0.67358 3.21743,0.0319 4.47603,0.68862 2.28658,1.19309 0.59491,5.82047 2.75448,7.23051 3.84878,2.51297 10.59526,2.63311 13.77241,-0.68862 10.15711,-10.61933 15.82345,-18.90577 22.72447,-29.26636 5.53862,-8.31519 2.12182,-19.03446 0.68862,-28.92206 -2.36397,-16.30896 -7.00876,-31.11013 -13.7724,-46.13756 -2.95263,-6.56014 -4.15209,-16.58873 -10.67362,-19.62568 -2.92985,-1.36437 -6.41333,0.86053 -9.64068,1.03293 -2.52135,0.13469 -5.06418,0.26832 -7.57483,0 z"
       style="fill:none;fill-rule:evenodd;stroke:#ff0000;stroke-width:1px;stroke-linecap:butt;stroke-linejoin:miter;stroke-opacity:1" />
    <path
       id="path955"
       d="m 219.15342,544.61148 c -6.52899,4.28172 -4.12459,16.40204 -0.68862,23.4131 1.5002,3.06113 5.01042,5.0061 8.26344,6.02542 2.41005,0.75518 9.04565,1.5461 8.06176,-1.38947 -3.17957,-9.48663 -3.43506,-8.48859 -4.27434,-13.0629 -0.70694,-3.85302 1.30381,-7.71035 -1.03293,-10.85442 -2.21207,-2.97633 -7.22833,-6.16536 -10.32931,-4.13173 z"
       style="fill:none;fill-rule:evenodd;stroke:#ff0000;stroke-width:1px;stroke-linecap:butt;stroke-linejoin:miter;stroke-opacity:1" />
    <path
       id="path957"
       d="m 242.2222,552.01415 c -2.07937,-0.002 -4.07852,2.01703 -4.82034,3.95957 -1.74015,4.55677 0.69798,11.06228 3.09013,15.31315 1.61791,2.87504 3.49529,4.83406 6.72271,5.51761 2.22089,0.47037 4.55483,0.84912 5.8115,-1.04158 2.75029,-4.1377 0.6539,-11.41549 -1.72155,-15.77919 -2.02698,-3.72355 -4.84294,-7.9656 -9.08245,-7.96956 z"
       style="opacity:1;fill:none;fill-rule:evenodd;stroke:#ff0000;stroke-width:1px;stroke-linecap:butt;stroke-linejoin:miter;stroke-opacity:1" />
    <path
       id="path959"
       d="m 268.90624,556.31803 c -0.67271,-0.14716 -5.82349,0.16894 -7.91913,1.89371 -2.24052,1.84401 -2.88133,5.1117 -3.61526,7.91913 -0.87387,3.3427 -0.75791,7.00749 -0.13039,11.05969 0.39264,2.53545 7.65264,4.44283 12.3534,5.63935 4.89889,1.24695 14.69617,3.2887 15.14965,0.68862 1.29924,-7.4493 -1.1137,-13.88083 -4.22392,-19.69698 -1.47351,-2.75547 -3.35408,-4.81716 -6.10539,-6.29843 -1.65511,-0.89109 -5.50896,-1.20509 -5.50896,-1.20509 z"
       style="fill:none;fill-rule:evenodd;stroke:#ff0000;stroke-width:1px;stroke-linecap:butt;stroke-linejoin:miter;stroke-opacity:1" />
    <path
       id="path961"
       d="m 303.84314,560.45425 c -3.23402,-0.28084 -7.80282,-0.75629 -10.46895,1.09559 -3.62756,2.51968 -3.01571,6.99278 -3.89543,11.32107 -0.7281,3.58232 -1.27893,7.83974 -0.3652,10.95589 0.71879,2.45132 10.36243,2.36689 15.70343,2.6781 3.16383,0.18435 6.71523,1.03494 9.4951,-0.48693 1.22472,-0.67048 2.04702,-2.06714 2.43464,-3.40849 1.1735,-4.0609 0.0274,-8.50156 -0.73039,-12.66013 -0.48779,-2.67672 -0.39016,-5.99561 -2.43464,-7.79085 -2.47633,-2.17445 -6.4554,-1.41914 -9.73856,-1.70425 z"
       style="fill:none;fill-rule:evenodd;stroke:#ff0000;stroke-width:1px;stroke-linecap:butt;stroke-linejoin:miter;stroke-opacity:1" />
    <path
       id="path963"
       d="m 330.38072,560.69771 c -2.87357,1.02408 -6.05223,2.06342 -8.03431,4.38236 -1.56775,1.83419 -1.96894,4.44946 -2.43464,6.81699 -0.68989,3.50729 -0.68787,7.60968 -0.48693,10.71242 0.10429,1.6103 6.63349,-0.18732 9.73856,-1.21732 3.27706,-1.08705 9.22097,-3.60901 9.00817,-5.11275 -0.67756,-4.788 -0.43124,-8.98451 -1.94771,-13.14706 -0.42404,-1.16394 -0.81505,-2.66342 -1.94772,-3.16503 -1.20795,-0.53495 -2.65098,0.2869 -3.89542,0.73039 z"
       style="fill:none;fill-rule:evenodd;stroke:#ff0000;stroke-width:1px;stroke-linecap:butt;stroke-linejoin:miter;stroke-opacity:1" />
    <path
       id="path965"
       d="m 354.2402,545.11601 c -3.20127,2.68526 -6.46208,5.44745 -8.39951,8.03432 -2.13225,2.84699 -2.17929,4.81657 -2.999,8.27777 -1.05797,4.46723 0.77076,6.04019 1.41648,13.14706 0.16938,1.86424 5.28021,3.58439 8.27778,3.4085 2.24662,-0.13183 4.67054,-1.17244 6.0866,-2.92157 1.73394,-2.14177 1.65829,-5.29388 1.94771,-8.03431 0.62245,-5.89374 -0.10299,-11.77166 -0.48693,-17.77288 -0.15239,-2.38196 -4.01446,-5.6728 -5.84313,-4.13889 z"
       style="fill:none;fill-rule:evenodd;stroke:#ff0000;stroke-width:1px;stroke-linecap:butt;stroke-linejoin:miter;stroke-opacity:1" />
    <path
       id="path967"
       d="m 373.47386,538.29902 c -3.72783,0.14038 -6.15,4.57126 -8.03432,7.79085 -2.24712,3.83948 -3.04191,8.56848 -2.54771,12.98967 0.23388,2.0923 0.1224,4.69195 2.06078,5.5136 2.10411,0.8919 4.83869,-0.46008 6.57353,-1.94772 2.45267,-2.10318 2.74334,-5.53546 2.84773,-8.7647 0.13196,-4.0823 2.7393,-9.29436 0.98863,-13.31922 -0.50563,-1.16247 -0.62186,-2.31018 -1.88864,-2.26248 z"
       style="fill:none;fill-rule:evenodd;stroke:#ff0000;stroke-width:1px;stroke-linecap:butt;stroke-linejoin:miter;stroke-opacity:1" />
    <path
       id="path969"
       d="m 383.57761,533.55147 c -0.93596,0.0396 -2.0691,0.14028 -2.6781,0.85212 -1.38783,1.62219 -0.47221,4.255 -0.97386,6.33007 -0.81411,3.36754 -4.11857,6.49708 -3.28676,9.86029 0.32385,1.3094 1.63165,2.40549 2.92157,2.79984 1.14193,0.34911 2.64554,0.19334 3.53023,-0.60866 2.15155,-1.95046 1.20212,-5.54029 1.71037,-8.39951 0.59861,-3.36752 0.97924,-6.34699 0.33565,-10.22549 -0.14986,-0.90312 -0.64445,-0.64736 -1.5591,-0.60866 z"
       style="fill:none;fill-rule:evenodd;stroke:#ff0000;stroke-width:1px;stroke-linecap:butt;stroke-linejoin:miter;stroke-opacity:1" />
    <path
       id="path971"
       d="m 392.58578,522.96078 c -1.68294,0.73693 -2.76366,2.00471 -3.50068,3.68762 -1.82321,4.16311 -2.63649,10.42024 0.0504,13.89222 0.92722,1.19813 2.42275,-0.76752 3.572,-1.75467 1.58456,-1.36105 1.89359,-3.37595 2.44076,-5.39186 0.92498,-3.40786 2.79996,-8.32699 0.24346,-10.76285 -0.82466,-0.78574 -1.76255,-0.12735 -2.80596,0.32954 z"
       style="fill:none;fill-rule:evenodd;stroke:#ff0000;stroke-width:1px;stroke-linecap:butt;stroke-linejoin:miter;stroke-opacity:1" />
    <path
       id="path973"
       d="m 207.81819,537.12274 c 2.0013,-2.1609 2.85184,2.1271 4.91761,4.22645 0.68097,0.69204 1.55993,3.04204 1.7572,3.99268 0.6586,3.17375 -0.39548,5.77709 -1.07724,8.94595 -0.18004,0.83683 -0.0998,1.7116 -0.846,2.13106 -1.31304,0.73813 -2.60842,0.0228 -3.57349,-1.13378 -1.70556,-2.04393 0.13591,-4.42385 -0.18081,-7.06701 -0.40865,-3.41033 -2.61538,-9.3482 -0.99727,-11.09535 z"
       style="fill:none;fill-rule:evenodd;stroke:#ff0000;stroke-width:1px;stroke-linecap:butt;stroke-linejoin:miter;stroke-opacity:1" />
    <path
       id="path975"
       d="m 197.44935,529.65605 c 1.02,-3.38842 5.21191,4.27199 6.81699,7.42564 1.55142,3.04822 3.32017,7.89728 0.60865,9.98203 -1.43466,1.10304 -2.386,-0.77627 -3.65195,-2.06944 -1.25669,-1.28371 -1.11945,-3.62048 -1.58252,-5.3562 -0.89643,-3.36007 -3.48907,-5.67044 -2.19117,-9.98203 z"
       style="fill:none;fill-rule:evenodd;stroke:#ff0000;stroke-width:1px;stroke-linecap:butt;stroke-linejoin:miter;stroke-opacity:1" />
    <path
       id="path1013"
       d="m 200.47459,545.3001 c -1.51096,-0.17423 -3.18349,1.23831 -3.70133,2.66841 -0.74635,2.06115 -0.42175,11.18566 1.03293,12.82556 1.10319,1.24365 2.39777,0.72729 4.04564,0.94684 1.34428,0.1791 4.26384,-5.09526 5.25073,-6.02542 0.63504,-0.59853 0.37316,-1.71156 0.43039,-2.58233 0.11109,-1.69018 1.03453,-3.88988 -0.17215,-5.07857 -1.08353,-1.06739 -3.18379,0.55701 -4.56211,-0.0861 -1.06891,-0.49874 -1.15233,-2.53327 -2.3241,-2.66839 z"
       style="fill:none;fill-rule:evenodd;stroke:#ff0000;stroke-width:1px;stroke-linecap:butt;stroke-linejoin:miter;stroke-opacity:1" />
    <path
       id="path1015"
       d="m 211.06213,557.86743 c -1.72574,1.27657 -5.28923,12.43622 -5.33427,14.58232 -0.0414,1.97415 1.88243,3.35048 3.57095,4.37413 1.41225,0.85616 4.13684,-6.52612 5.46466,-7.50814 1.0278,-0.76013 1.34493,-3.37097 1.29116,-4.64819 -0.0957,-2.27357 -1.00258,-4.44216 -1.63547,-6.62797 -0.12617,-0.43577 -0.0203,-1.09714 -0.43039,-1.29116 -0.94409,-0.44668 -2.08698,0.49789 -2.92664,1.11901 z"
       style="display:inline;fill:none;fill-rule:evenodd;stroke:#ff0000;stroke-width:1px;stroke-linecap:butt;stroke-linejoin:miter;stroke-opacity:1" />
    <path
       id="path1018"
       d="m 223.5,573.60131 c 2.19612,4.07309 2.69379,10.40534 -0.3652,13.87745 -1.05844,1.20138 -3.41406,1.61665 -4.74754,0.73039 -1.67205,-1.11128 -1.14993,-3.85969 -1.46079,-5.84314 -0.66743,-4.25858 -1.33714,-8.6204 -0.85212,-12.90359 0.0953,-0.8419 -0.1051,-2.29379 0.73039,-2.43464 1.77685,-0.29955 1.84708,3.15356 3.16503,4.38235 1.013,0.94447 2.87293,0.9721 3.53023,2.19118 z"
       style="fill:none;fill-rule:evenodd;stroke:#ff0000;stroke-width:1px;stroke-linecap:butt;stroke-linejoin:miter;stroke-opacity:1" />
    <path
       id="path1020"
       d="m 227.03023,574.94036 c -4.17625,4.23491 -0.33729,12.14351 1.58252,17.77288 0.55953,1.64068 1.28597,3.53789 2.79983,4.38235 2.30367,1.28503 6.04757,1.98719 7.91258,0.12173 3.67265,-3.67353 0.44174,-10.43256 -0.24346,-15.5817 -0.32584,-2.44864 0.23752,-5.82425 -1.82598,-7.18219 -1.51019,-0.99382 -4.50409,0.73039 -5.35621,0.85213 -0.85212,0.12173 -3.72641,-1.52412 -4.86928,-0.3652 z"
       style="fill:none;fill-rule:evenodd;stroke:#ff0000;stroke-width:1px;stroke-linecap:butt;stroke-linejoin:miter;stroke-opacity:1" />
    <path
       id="path1022"
       d="m 240.54248,574.08824 c -5.64662,3.45273 0.45126,13.22962 0.7304,19.84232 0.14392,3.40932 -1.14183,7.22693 0.48692,10.22549 0.76325,1.40517 2.30095,2.92098 3.89543,2.79983 2.7181,-0.20653 4.60223,-3.29429 5.84314,-5.7214 2.1108,-4.12853 1.81485,-9.12588 2.06944,-13.75572 0.16946,-3.08163 1.83586,-7.0882 -0.3652,-9.25164 -1.30256,-1.2803 -3.71579,0.35856 -5.47794,-0.12173 -2.64656,-0.72134 -4.84192,-5.44815 -7.18219,-4.01715 z"
       style="fill:none;fill-rule:evenodd;stroke:#ff0000;stroke-width:1px;stroke-linecap:butt;stroke-linejoin:miter;stroke-opacity:1" />
    <path
       id="path1024"
       d="m 258.23262,579.55897 c -4.71362,2.8537 -0.25573,11.04949 0.34431,16.52688 0.25491,2.32694 -0.51587,5.50934 1.37724,6.88621 2.00901,1.46117 5.46528,0.69411 7.40267,-0.86078 2.32118,-1.86291 2.68403,-5.46922 2.92664,-8.4356 0.27531,-3.3662 0.48931,-7.43172 -1.72155,-9.98499 -1.57992,-1.82462 -4.67125,-1.27918 -6.8862,-2.23802 -1.20204,-0.52036 -2.32262,-2.57206 -3.44311,-1.8937 z"
       style="fill:none;fill-rule:evenodd;stroke:#ff0000;stroke-width:1px;stroke-linecap:butt;stroke-linejoin:miter;stroke-opacity:1" />
    <path
       id="path1026"
       d="m 277.16968,585.41224 c -2.54147,3.11341 1.69208,7.87712 2.06586,11.8787 0.37896,4.05708 -2.28314,8.97108 0.17216,12.22301 1.44403,1.91255 4.5336,2.52232 6.8862,2.06586 1.80358,-0.34994 3.36501,-1.8639 4.30388,-3.4431 1.6682,-2.80596 1.77618,-6.37675 1.72155,-9.64069 -0.0736,-4.40011 0.5926,-10.05446 -2.75448,-12.91163 -1.66083,-1.41773 -4.35839,-0.319 -6.54189,-0.34431 -1.95181,-0.0226 -4.61895,-1.33995 -5.85328,0.17216 z"
       style="fill:none;fill-rule:evenodd;stroke:#ff0000;stroke-width:1px;stroke-linecap:butt;stroke-linejoin:miter;stroke-opacity:1" />
    <path
       id="path1028"
       d="m 298.34476,587.65025 c -3.55906,3.82309 -1.4252,10.55588 -0.34431,15.66612 0.64279,3.03898 1.15382,7.10277 3.95956,8.4356 1.70973,0.81219 4.02645,-0.20039 5.50897,-1.37724 1.96992,-1.56376 2.85276,-4.26917 3.4431,-6.71405 0.82162,-3.4027 -0.10923,-7.00268 0,-10.50146 0.0574,-1.83901 1.55663,-4.12494 0.34431,-5.50897 -1.62984,-1.86067 -4.92929,-0.54592 -7.40267,-0.51646 -1.84424,0.022 -4.25224,-0.83349 -5.50896,0.51646 z"
       style="fill:none;fill-rule:evenodd;stroke:#ff0000;stroke-width:1px;stroke-linecap:butt;stroke-linejoin:miter;stroke-opacity:1" />
    <path
       id="path1030"
       d="m 318.14259,583.34638 c -3.48574,3.24633 -0.15995,9.53716 0.17216,14.28887 0.15732,2.25084 0.2782,4.53422 0.86077,6.71405 0.77045,2.88284 0.62443,7.28393 3.4431,8.26344 1.67423,0.58181 3.55717,-1.18546 4.64819,-2.58232 2.45057,-3.13753 2.67078,-7.57634 3.09879,-11.5344 0.52498,-4.85482 -0.33079,-9.76318 -0.68862,-14.63318 -0.0423,-0.57516 0.29384,-1.38177 -0.17215,-1.72155 -1.99167,-1.45221 -4.77067,1.39181 -7.23052,1.5494 -1.37919,0.0884 -3.12038,-1.28619 -4.13172,-0.34431 z"
       style="fill:none;fill-rule:evenodd;stroke:#ff0000;stroke-width:1px;stroke-linecap:butt;stroke-linejoin:miter;stroke-opacity:1" />
    <path
       id="path1032"
       d="m 336.56319,578.52604 c -2.39966,3.57465 -0.19102,8.63963 0.34431,12.91163 0.38773,3.09419 1.07118,6.16872 2.06586,9.12422 0.88468,2.62866 1.17052,5.98488 3.4431,7.57482 1.8392,1.28674 5.14513,2.12172 6.71405,0.51646 1.2093,-1.23732 -0.52305,-3.43453 -0.51647,-5.16465 0.0143,-3.75157 0.90681,-7.45036 1.20509,-11.19008 0.35178,-4.4106 3.09524,-9.54309 0.68862,-13.25594 -1.4723,-2.27142 -4.868,-2.91721 -7.57483,-2.92664 -2.27014,-0.008 -5.10444,0.52534 -6.36973,2.41018 z"
       style="fill:none;fill-rule:evenodd;stroke:#ff0000;stroke-width:1px;stroke-linecap:butt;stroke-linejoin:miter;stroke-opacity:1" />
    <path
       id="path1034"
       d="m 350.50775,579.0425 c -2.38997,4.81263 2.58974,10.63838 5.50896,15.14965 1.52123,2.35087 3.39081,4.90486 6.02543,5.85327 1.35414,0.48746 3.2653,0.65202 4.30388,-0.34431 1.71043,-1.64084 0.98053,-4.69117 0.86077,-7.05836 -0.24971,-4.9358 -2.20086,-9.63616 -3.27095,-14.46103 -0.58491,-2.63728 0.12627,-5.94862 -1.72155,-7.91913 -0.28577,-0.30474 -0.8244,-0.51638 -1.20508,-0.34431 -2.31562,1.04668 -1.35005,5.22253 -3.27095,6.8862 -1.90714,1.65175 -6.10834,-0.0217 -7.23051,2.23802 z"
       style="fill:none;fill-rule:evenodd;stroke:#ff0000;stroke-width:1px;stroke-linecap:butt;stroke-linejoin:miter;stroke-opacity:1" />
    <path
       id="path1036"
       d="m 361.86998,565.27009 c -1.6977,2.35543 1.18841,5.81853 2.75448,8.26345 1.35767,2.11956 4.04352,3.11812 5.50897,5.16465 1.94378,2.71453 1.61569,6.92956 4.13172,9.12422 1.66928,1.45607 4.47928,3.04818 6.36974,1.89371 2.39177,-1.46061 1.58734,-5.46122 1.54939,-8.26345 -0.0405,-2.99366 -0.85335,-5.97254 -1.8937,-8.77991 -1.58824,-4.28585 -2.05032,-11.20425 -6.5419,-12.05085 -2.36107,-0.44503 -3.25234,3.82336 -5.50896,4.64818 -1.99421,0.72891 -5.12826,-1.72247 -6.36974,0 z"
       style="fill:none;fill-rule:evenodd;stroke:#ff0000;stroke-width:1px;stroke-linecap:butt;stroke-linejoin:miter;stroke-opacity:1" />
    <path
       id="path1038"
       d="m 377.88041,554.08001 c -2.31286,1.14133 -4.35835,3.97274 -4.13173,6.5419 0.232,2.63012 3.41251,4.04539 5.33681,5.85327 3.00455,2.82278 5.51851,7.80201 9.64069,7.74698 2.4833,-0.0331 4.72496,-2.52826 5.68111,-4.82034 1.15224,-2.76214 -0.68862,-7.91914 -0.68862,-8.95207 0,-1.03293 -1.77852,-6.1851 -4.13172,-8.09129 -1.20065,-0.97257 -2.97831,-1.58493 -4.47603,-1.20508 -1.53445,0.38917 -1.94783,2.75116 -3.4431,3.27094 -1.19739,0.41624 -2.65061,-0.90529 -3.78741,-0.34431 z"
       style="fill:none;fill-rule:evenodd;stroke:#ff0000;stroke-width:1px;stroke-linecap:butt;stroke-linejoin:miter;stroke-opacity:1" />
    <path
       id="path1040"
       d="m 393.37436,539.10252 c -2.68363,-0.18139 -5.21248,2.24442 -6.71404,4.47603 -1.43874,2.13825 -2.59479,5.21915 -1.5494,7.57483 1.18962,2.68071 4.68913,3.95236 7.57482,4.47603 1.9494,0.35376 4.30693,0.20567 5.85328,-1.03293 1.16451,-0.93275 2.41017,-2.41017 1.72155,-4.13172 -0.68862,-1.72155 -2.05326,-6.19665 -3.95957,-8.77991 -0.77251,-1.04683 -1.62859,-2.49459 -2.92664,-2.58233 z"
       style="fill:none;fill-rule:evenodd;stroke:#ff0000;stroke-width:1px;stroke-linecap:butt;stroke-linejoin:miter;stroke-opacity:1" />
  </g>
</svg>
