<?xml version="1.0" encoding="UTF-8" standalone="no"?>
<!-- Created with Inkscape (http://www.inkscape.org/) -->

<svg
   xmlns:dc="http://purl.org/dc/elements/1.1/"
   xmlns:cc="http://creativecommons.org/ns#"
   xmlns:rdf="http://www.w3.org/1999/02/22-rdf-syntax-ns#"
   xmlns:svg="http://www.w3.org/2000/svg"
   xmlns="http://www.w3.org/2000/svg"
   xmlns:xlink="http://www.w3.org/1999/xlink"
   xmlns:sodipodi="http://sodipodi.sourceforge.net/DTD/sodipodi-0.dtd"
   xmlns:inkscape="http://www.inkscape.org/namespaces/inkscape"
   version="1.1"
   id="svg885"
   width="570"
   height="745"
   viewBox="0 0 570 745"
   sodipodi:docname="skull.svg"
   inkscape:version="0.92.5 (2060ec1f9f, 2020-04-08)">
  <metadata
     id="metadata891">
    <rdf:RDF>
      <cc:Work
         rdf:about="">
        <dc:format>image/svg+xml</dc:format>
        <dc:type
           rdf:resource="http://purl.org/dc/dcmitype/StillImage" />
        <dc:title />
      </cc:Work>
    </rdf:RDF>
  </metadata>
  <defs
     id="defs889" />
  <sodipodi:namedview
     pagecolor="#ffffff"
     bordercolor="#666666"
     borderopacity="1"
     objecttolerance="10"
     gridtolerance="10"
     guidetolerance="10"
     inkscape:pageopacity="0"
     inkscape:pageshadow="2"
     inkscape:window-width="1280"
     inkscape:window-height="968"
     id="namedview887"
     showgrid="false"
     inkscape:zoom="0.35355339"
     inkscape:cx="-643.30453"
     inkscape:cy="-242.74894"
     inkscape:window-x="0"
     inkscape:window-y="0"
     inkscape:window-maximized="1"
     inkscape:current-layer="g7488"
     showguides="true"
     inkscape:guide-bbox="true"
     inkscape:snap-bbox="true"
     inkscape:snap-text-baseline="true"
     inkscape:snap-object-midpoints="true"
     inkscape:snap-to-guides="true">
    <sodipodi:guide
       position="0,0"
       orientation="1,0"
       id="guide6446"
       inkscape:locked="false"
       inkscape:label=""
       inkscape:color="rgb(0,0,255)" />
    <sodipodi:guide
       position="0,0"
       orientation="0,1"
       id="guide6448"
       inkscape:locked="false"
       inkscape:label=""
       inkscape:color="rgb(0,0,255)" />
  </sodipodi:namedview>
  <g
     inkscape:groupmode="layer"
     id="layer1"
     inkscape:label="Photo Reference"
     style="display:none">
    <image
       sodipodi:absref="/home/jasonrohrer/checkout/jason-rohrer/design/bossGee/skullPhoto.jpg"
       xlink:href="skullPhoto.jpg"
       inkscape:label="image893"
       style="opacity:1;fill:#ff0000;image-rendering:auto"
       y="376.66229"
       x="-287.36066"
       id="image893"
       preserveAspectRatio="none"
       height="745"
       width="570" />
  </g>
  <g
     inkscape:groupmode="layer"
     id="layer4"
     inkscape:label="Skull Outline"
     style="display:inline">
    <path
       id="path897"
       style="display:inline;fill:none;fill-rule:evenodd;stroke:#000000;stroke-width:1px;stroke-linecap:butt;stroke-linejoin:miter;stroke-opacity:1"
       d="m 119.20998,432.52479 c 31.83931,18.03548 55.79039,38.2439 74.98692,68.76488 18.92292,30.08596 17.07556,53.33531 23.53964,84.85797 1.75128,8.54028 6.2151,19.00564 9.53687,27.67136 6.43451,16.78608 7.71867,37.28587 3.72834,54.57055 -2.94922,12.77493 -12.54165,25.22677 -15.5817,37.98039 -2.15343,9.03405 0.20984,20.2683 -0.39832,29.53553 -0.89324,13.61113 -9.35354,12.39379 -12.61626,22.83668 8.06512,8.29715 11.79887,11.24185 15.47369,18.59695 4.99801,10.00343 1.62552,17.41005 -3.58152,27.37179 -5.96311,11.4082 -15.6716,23.90945 -23.80818,33.8845 -10.94014,13.41208 -16.53927,5.54745 -29.60537,12.51394 -2.16127,29.05747 -4.99061,44.67541 -3.69372,74.52805 0.53213,12.24898 5.77773,26.21864 4.78932,38.43927 -0.70816,8.75563 0.59013,17.13725 -4.90747,24.77426 -2.86062,3.97383 -1.81971,3.99881 -7.5092,7.48472 -16.3413,10.01217 -18.20702,22.41587 -32.42904,36.13767 -13.48334,13.0092 -27.792741,29.4357 -44.103701,38.6547 -7.45691,4.2147 -18.07992,14.5951 -26.50088,16.1623 -10.74933,2.0007 -25.42546,-1.3426 -41.5905802,-1.3426 -16.1651198,0 -37.7274498,3.3433 -48.4767798,1.3426 -8.42096,-1.5672 -15.77303,-7.1272 -23.22994,-11.3419 -16.31096,-9.2191 -34.235609,-16.6935 -47.718949,-29.7026 -14.22202,-13.7219 -17.37847,-37.2199 -33.11111,-49.17978 -5.31187,-4.03806 -12.9923,-2.54932 -17.61296,-7.36299 -6.08303,-6.33714 -7.973,-15.5317 -8.68116,-24.28733 -0.98841,-12.22063 3.1616,-28.74666 3.69373,-40.99564 1.29689,-29.85264 -0.0717,-56.06127 -2.23294,-85.11874 -13.0661,-6.96649 -25.48222,-7.37963 -34.10944,-23.83501 -5.97722,-11.40082 -17.93997,-20.27026 -17.50495,-33.13558 0.30192,-8.92881 3.80358,-16.38514 10.87951,-18.07542 8.07244,-1.92833 9.06896,-6.09591 13.40783,-12.05505 -3.26272,-10.44289 -9.15503,-6.92847 -12.11413,-20.02313 -2.04708,-9.05874 -0.28122,-18.72085 -2.43464,-27.7549 -3.04005,-12.75362 -11.65863,-23.74468 -14.60785,-36.51961 -3.99033,-17.28468 -7.57544,-39.73218 -1.14094,-56.51826 3.32178,-8.66572 7.04373,-17.04388 10.0238,-25.23672 11.82029,-32.49652 4.8733,-67.53158 28.24183,-94.3113 23.32825,-26.73356 51.99586,-50.91676 84.17948,-65.85344 32.785159,-15.21587 74.011819,-22.9753 112.1844088,-22.9996 38.4111302,-0.0245 83.1873902,11.72712 114.6363612,29.54149 z"
       inkscape:connector-curvature="0"
       sodipodi:nodetypes="ssssssscssscsssssssssssscsscssscsssssssss" />
  </g>
  <g
     inkscape:groupmode="layer"
     id="layer5"
     inkscape:label="Skull Ridge Outline"
     style="display:inline;opacity:0.36199999">
    <path
       style="display:inline;fill:#ff8b00;fill-opacity:1;fill-rule:evenodd;stroke:none;stroke-width:1px;stroke-linecap:butt;stroke-linejoin:miter;stroke-opacity:1"
       d="m 5.0839888,393.00717 c -1.38065,-0.0112 -2.76192,-0.0106 -4.14258005,0.002 -61.89249975,0.52618 -125.59206875,20.02408 -171.22851875,63.1543 -20.43334,17.74751 -41.35483,38.40731 -47.0957,65.92188 -6.31744,26.13814 -5.85217,54.38999 -19.4043,78.36133 -12.13198,28.53786 -6.86915,61.38296 5.37109,88.94531 3.67704,8.00949 8.65112,16.01209 8.17969,25.01953 0.2141,12.56548 0.52987,26.94775 10.38281,36.21289 3.63527,2.58946 -3.23257,3.14658 -4.44531,4.55078 -7.59719,2.76006 -13.33521,9.07527 -15.33203,16.89844 -4.48205,14.417 2.2386,29.73695 12.05078,40.2793 7.17716,11.90338 15.47307,24.90205 29.35352,29.69726 3.75546,2.08538 11.04434,2.12046 9.56836,8.28907 2.87325,36.11651 2.8543,72.60949 -2.30664,108.48632 -0.46991,15.03991 2.93985,32.8036 16.50586,41.48442 7.45779,3.4515 17.54698,3.9063 20.91601,12.8203 10.88046,16.8683 17.26746,38.5235 35.77149,49.0117 18.829029,12.8164 39.454439,22.8299 59.562499,33.2871 23.54357,6.9602 47.8658597,-3.1189 71.59765,1.5117 15.90099,1.9991 34.02489,1.8868 46.70313,-9.3808 20.59777,-13.6136 40.231111,-28.8843 56.492191,-47.5821 9.60936,-9.9114 16.63346,-22.066 26.49023,-31.6894 6.51267,-5.3276 14.51511,-9.53778 17.58203,-17.90628 9.35233,-21.37462 1.58153,-44.90142 -0.48242,-66.81054 -1.54877,-17.7902 0.79638,-35.58994 2.03906,-53.46875 0.75313,-3.88007 0.45681,-8.81308 2.29688,-11.79493 10.97983,-1.2656 22.81456,-5.33177 28.32812,-15.68554 13.35551,-16.57476 28.45007,-34.47834 30.48633,-56.52539 -0.4163,-11.30681 -7.5851,-20.86089 -14.96094,-28.83985 7.44084,-7.30869 11.16643,-17.86057 9.60938,-28.22265 -0.61227,-11.42763 -1.39384,-23.5234 5.55078,-33.46485 9.00705,-16.82001 14.88984,-35.85629 12.67383,-55.10742 -1.61893,-25.69613 -16.14281,-48.29868 -18.63477,-73.82031 -3.73389,-24.71236 -7.56223,-50.74643 -22.56445,-71.57227 -36.31651,-57.43506 -101.7285,-91.62764 -168.003911,-100.10552 -9.58693,-1.22048 -19.24564,-1.87871 -28.9101502,-1.95703 z m -4.06055,12.00195 c 32.3343902,-0.38187 64.8944202,6.48399 95.0761702,18.60352 42.812891,18.13021 82.310441,48.79928 103.312501,91.26367 13.65432,27.03499 10.32159,58.56101 20.91797,86.5254 7.39421,16.82708 12.4155,34.83457 10.68359,53.36523 -0.13346,15.15519 -7.9915,28.29897 -14.24414,41.56445 -6.4467,12.24695 -3.52392,26.25632 -3.74023,39.4043 0.62507,10.31418 -11.24118,14.06325 -12.91211,23.5293 5.85199,6.23825 12.87453,11.801 16.38476,19.83203 5.55038,11.99633 -3.59669,23.71282 -9.29492,33.72656 -7.5016,10.46593 -14.41225,21.90825 -24.35937,30.22266 -7.42297,3.93798 -16.73206,1.74249 -23.86914,6.78711 -1.61337,22.24238 -4.64459,44.4457 -4.06446,66.79296 -1.06584,17.20942 6.68978,33.52301 4.87891,50.61914 0.34351,9.4658 -1.34357,20.35711 -9.50977,26.27344 -13.09002,6.79001 -20.12897,20.15091 -28.8125,31.33201 -14.26231,14.6976 -28.095801,30.0802 -44.984371,41.8203 -11.22512,5.5372 -19.65039,16.5784 -32.28906,18.9512 -16.95806,1.0926 -34.10673,-3.1848 -51.2597703,-1.2383 -14.9657197,0.088 -31.1018597,4.8823 -45.1718697,-2.3047 -17.78741,-11.165 -37.57194,-19.1136 -54.386719,-31.6797 -18.94004,-12.707 -21.15972,-38.1426 -37.5,-53.05659 -5.66717,-6.73843 -16.72211,-3.65026 -21.54492,-11.29687 -9.80216,-15.04912 -5.90486,-33.98731 -3.62305,-50.51563 3.36722,-32.39461 0.94949,-65.08688 -1.22852,-97.48828 -10.64706,-5.91134 -24.23208,-8.03596 -31.42187,-18.86914 -4.68119,-8.79201 -11.17097,-16.38115 -16.5918,-24.69336 -5.4353,-8.34274 -5.06576,-22.40531 4.25586,-27.76172 6.48985,-1.06779 11.74407,-5.45007 14.68164,-11.24414 3.82559,-3.32491 0.13901,-8.14559 -2.33203,-11.24023 -7.2885,-5.13866 -9.15232,-14.40212 -9.04883,-22.48047 0.57561,-11.56921 -1.76783,-23.13096 -7.34961,-33.31836 -9.16836,-15.9579 -12.34434,-34.71981 -13.22851,-52.70508 -1.3685,-15.64115 5.81336,-29.87147 11.50976,-43.91406 12.82522,-29.18764 6.9298,-63.65971 24.11133,-91.13867 13.79458,-18.65933 31.18608,-34.51323 49.44727,-48.73829 41.677,-32.66713 95.600619,-46.08798 147.5078088,-46.92969 z"
       id="path7767"
       inkscape:connector-curvature="0" />
  </g>
  <g
     inkscape:groupmode="layer"
     id="layer2"
     inkscape:label="Skull Holes"
     style="display:inline">
    <path
       style="fill:none;fill-rule:evenodd;stroke:#ff0000;stroke-width:1px;stroke-linecap:butt;stroke-linejoin:miter;stroke-opacity:1"
       d="m -135.62789,777.97992 c 16.89873,5.18427 36.449559,5.45464 53.023759,-0.68862 18.94585,-7.02231 41.5893,-19.30294 46.48188,-38.90704 4.88713,-19.58227 -8.8242,-41.48932 -22.72447,-56.12256 -8.98218,-9.45582 -16.56942,-15.70536 -29.61068,-15.83827 -13.924819,-0.14191 -29.239249,11.99791 -44.071699,16.18258 -12.86494,3.62958 -30.39998,9.69602 -37.52981,21.00292 -6.18772,9.81285 -0.43836,18.28332 2.06586,29.61067 2.44318,11.05126 5.97566,22.52462 13.08379,31.33223 4.91885,6.09489 11.79365,11.13097 19.28137,13.42809 z"
       id="path900"
       inkscape:connector-curvature="0"
       sodipodi:nodetypes="ssssssssss" />
    <path
       style="fill:none;fill-rule:evenodd;stroke:#ff0000;stroke-width:1px;stroke-linecap:butt;stroke-linejoin:miter;stroke-opacity:1"
       d="m 77.606289,670.33727 c -4.44066,1.63499 -5.6614,1.12136 -9.4951,3.89542 -7.64482,5.53178 -16.96412,10.18787 -21.42484,18.50327 -4.8726,9.0832 -3.76375,16.041 -7.06045,25.80719 -1.1397,3.37625 -1.78343,10.5809 -2.19118,14.12091 -0.89303,7.7531 2.21691,16.09414 6.81699,22.39869 6.05065,8.29259 16.26049,12.70262 25.32026,17.52942 11.38524,6.06575 23.44189,11.31213 36.032681,14.12091 9.68409,2.16035 20.3199,5.17469 29.70262,1.94771 9.45774,-3.25278 17.33625,-11.33844 22.39869,-19.96405 10.60418,-18.06787 13.63809,-40.89666 13.63399,-61.35294 -0.002,-9.65161 -13.63793,-12.07286 -21.91177,-17.04248 -9.9024,-5.94781 -20.3172,-9.45146 -31.65032,-11.68628 -7.01392,-1.3831 -12.23888,-1.91157 -18.503271,-5.3562 -3.47217,-1.90926 -7.54576,-2.36165 -11.19935,-3.89544 -2.73098,-1.14648 -7.68949,-0.0495 -10.46895,0.97387 z"
       id="path902"
       inkscape:connector-curvature="0"
       sodipodi:nodetypes="ssssssssssssssss" />
    <path
       style="fill:none;fill-rule:evenodd;stroke:#ff0000;stroke-width:1px;stroke-linecap:butt;stroke-linejoin:miter;stroke-opacity:1"
       d="m -3.7571013,747.68063 c -4.32002,-0.46169 -8.6184897,-4.13043 -12.7394697,-2.75448 -7.48621,2.49956 -11.03155,10.84716 -13.77241,18.24844 -8.36611,22.59143 -15.1287,49.57814 -15.14965,70.23927 -0.008,7.54546 9.95441,18.68526 17.21551,27.88913 3.45479,4.37915 7.85782,11.99749 13.4281,11.70654 3.8935,-0.20337 4.8314397,-7.7908 8.2634397,-9.64068 1.24965,-0.67358 3.21743,0.0319 4.47603,0.68862 2.28658005,1.19309 0.5949101,5.82047 2.75448005,7.23051 3.84877995,2.51297 10.59526025,2.63311 13.77241025,-0.68862 10.15711,-10.61933 15.82345,-18.90577 22.72447,-29.26636 5.53862,-8.31519 2.12182,-19.03446 0.68862,-28.92206 -2.36397,-16.30896 -7.00876,-31.11013 -13.7724,-46.13756 -2.95263,-6.56014 -4.15209,-16.58873 -10.67362,-19.62568 -2.92985,-1.36437 -6.4133302,0.86053 -9.6406802,1.03293 -2.52135,0.13469 -5.0641801,0.26832 -7.5748301,0 z"
       id="path904"
       inkscape:connector-curvature="0"
       sodipodi:nodetypes="ssssssssssssssss" />
    <path
       style="fill:none;fill-rule:evenodd;stroke:#ff0000;stroke-width:1px;stroke-linecap:butt;stroke-linejoin:miter;stroke-opacity:1"
       d="m -78.366111,925.27881 c -6.52899,4.28172 -4.12459,16.40204 -0.68862,23.4131 1.5002,3.06113 5.01042,5.0061 8.26344,6.02542 2.41005,0.75518 9.04565,1.5461 8.06176,-1.38947 -3.17957,-9.48663 -3.43506,-8.48859 -4.27434,-13.0629 -0.70694,-3.85302 1.30381,-7.71035 -1.03293,-10.85442 -2.21207,-2.97633 -7.22833,-6.16536 -10.32931,-4.13173 z"
       id="path955"
       inkscape:connector-curvature="0"
       sodipodi:nodetypes="sssssss" />
    <path
       style="opacity:1;fill:none;fill-rule:evenodd;stroke:#ff0000;stroke-width:1px;stroke-linecap:butt;stroke-linejoin:miter;stroke-opacity:1"
       d="m -57.297331,934.68148 c -2.07937,-0.002 -4.07852,2.01703 -4.82034,3.95957 -1.74015,4.55677 0.69798,11.06228 3.09013,15.31315 1.61791,2.87504 3.49529,4.83406 6.72271,5.51761 2.22089,0.47037 4.55483,0.84912 5.8115,-1.04158 2.75029,-4.1377 0.6539,-11.41549 -1.72155,-15.77919 -2.02698,-3.72355 -4.84294,-7.9656 -9.08245,-7.96956 z"
       id="path957"
       inkscape:connector-curvature="0"
       sodipodi:nodetypes="sssssss" />
    <path
       style="fill:none;fill-rule:evenodd;stroke:#ff0000;stroke-width:1px;stroke-linecap:butt;stroke-linejoin:miter;stroke-opacity:1"
       d="m -30.613291,938.98536 c -0.67271,-0.14716 -5.82349,0.16894 -7.91913,1.89371 -2.24052,1.84401 -2.88133,5.1117 -3.61526,7.91913 -0.87387,3.3427 -0.75791,7.00749 -0.13039,11.05969 0.39264,2.53545 7.65264,4.44283 12.3534,5.63935 4.89889,1.24695 14.69617,3.2887 15.14965,0.68862 1.29924,-7.4493 -1.1137,-13.88083 -4.22392,-19.69698 -1.47351,-2.75547 -3.35408,-4.81716 -6.10539,-6.29843 -1.65511,-0.89109 -5.50896,-1.20509 -5.50896,-1.20509 z"
       id="path959"
       inkscape:connector-curvature="0"
       sodipodi:nodetypes="sssssssss" />
    <path
       style="fill:none;fill-rule:evenodd;stroke:#ff0000;stroke-width:1px;stroke-linecap:butt;stroke-linejoin:miter;stroke-opacity:1"
       d="m 4.3236088,943.12158 c -3.23402,-0.28084 -7.80282,-0.75629 -10.4689501,1.09559 -3.62756,2.51968 -3.01571,6.99278 -3.8954297,11.32107 -0.7281,3.58232 -1.27893,7.83974 -0.3652,10.95589 0.7187898,2.45132 10.36242975,2.36689 15.7034298,2.6781 3.16383,0.18435 6.7152302,1.03494 9.4951002,-0.48693 1.22472,-0.67048 2.04702,-2.06714 2.43464,-3.40849 1.1735,-4.0609 0.0274,-8.50156 -0.73039,-12.66013 -0.48779,-2.67672 -0.39016,-5.99561 -2.43464,-7.79085 -2.47633,-2.17445 -6.4554002,-1.41914 -9.7385602,-1.70425 z"
       id="path961"
       inkscape:connector-curvature="0"
       sodipodi:nodetypes="ssssssssss" />
    <path
       style="fill:none;fill-rule:evenodd;stroke:#ff0000;stroke-width:1px;stroke-linecap:butt;stroke-linejoin:miter;stroke-opacity:1"
       d="m 30.861189,943.36504 c -2.87357,1.02408 -6.05223,2.06342 -8.03431,4.38236 -1.56775,1.83419 -1.96894,4.44946 -2.43464,6.81699 -0.68989,3.50729 -0.68787,7.60968 -0.48693,10.71242 0.10429,1.6103 6.63349,-0.18732 9.73856,-1.21732 3.27706,-1.08705 9.22097,-3.60901 9.00817,-5.11275 -0.67756,-4.788 -0.43124,-8.98451 -1.94771,-13.14706 -0.42404,-1.16394 -0.81505,-2.66342 -1.94772,-3.16503 -1.20795,-0.53495 -2.65098,0.2869 -3.89542,0.73039 z"
       id="path963"
       inkscape:connector-curvature="0"
       sodipodi:nodetypes="sssssssss" />
    <path
       style="fill:none;fill-rule:evenodd;stroke:#ff0000;stroke-width:1px;stroke-linecap:butt;stroke-linejoin:miter;stroke-opacity:1"
       d="m 52.720669,927.78334 c -3.20127,2.68526 -6.46208,5.44745 -8.39951,8.03432 -2.13225,2.84699 -2.17929,4.81657 -2.999,8.27777 -1.05797,4.46723 0.77076,6.04019 1.41648,13.14706 0.16938,1.86424 5.28021,3.58439 8.27778,3.4085 2.24662,-0.13183 4.67054,-1.17244 6.0866,-2.92157 1.73394,-2.14177 1.65829,-5.29388 1.94771,-8.03431 0.62245,-5.89374 -0.10299,-11.77166 -0.48693,-17.77288 -0.15239,-2.38196 -4.01446,-5.6728 -5.84313,-4.13889 z"
       id="path965"
       inkscape:connector-curvature="0"
       sodipodi:nodetypes="sssssssss" />
    <path
       style="fill:none;fill-rule:evenodd;stroke:#ff0000;stroke-width:1px;stroke-linecap:butt;stroke-linejoin:miter;stroke-opacity:1"
       d="m 73.954329,920.96635 c -3.72783,0.14038 -6.15,4.57126 -8.03432,7.79085 -2.24712,3.83948 -3.04191,8.56848 -2.54771,12.98967 0.23388,2.0923 0.1224,4.69195 2.06078,5.5136 2.10411,0.8919 4.83869,-0.46008 6.57353,-1.94772 2.45267,-2.10318 2.74334,-5.53546 2.84773,-8.7647 0.13196,-4.0823 2.7393,-9.29436 0.98863,-13.31922 -0.50563,-1.16247 -0.62186,-2.31018 -1.88864,-2.26248 z"
       id="path967"
       inkscape:connector-curvature="0"
       sodipodi:nodetypes="ssssssss" />
    <path
       style="fill:none;fill-rule:evenodd;stroke:#ff0000;stroke-width:1px;stroke-linecap:butt;stroke-linejoin:miter;stroke-opacity:1"
       d="m 86.058079,916.2188 c -0.93596,0.0396 -2.0691,0.14028 -2.6781,0.85212 -1.38783,1.62219 -0.47221,4.255 -0.97386,6.33007 -0.81411,3.36754 -4.11857,6.49708 -3.28676,9.86029 0.32385,1.3094 1.63165,2.40549 2.92157,2.79984 1.14193,0.34911 2.64554,0.19334 3.53023,-0.60866 2.15155,-1.95046 1.20212,-5.54029 1.71037,-8.39951 0.59861,-3.36752 0.97924,-6.34699 0.33565,-10.22549 -0.14986,-0.90312 -0.64445,-0.64736 -1.5591,-0.60866 z"
       id="path969"
       inkscape:connector-curvature="0"
       sodipodi:nodetypes="sssssssss" />
    <path
       style="fill:none;fill-rule:evenodd;stroke:#ff0000;stroke-width:1px;stroke-linecap:butt;stroke-linejoin:miter;stroke-opacity:1"
       d="m 95.066249,903.62811 c -1.68294,0.73693 -2.76366,2.00471 -3.50068,3.68762 -1.82321,4.16311 -2.63649,10.42024 0.0504,13.89222 0.92722,1.19813 2.42275,-0.76752 3.572,-1.75467 1.58456,-1.36105 1.89359,-3.37595 2.44076,-5.39186 0.92498,-3.40786 2.799961,-8.32699 0.24346,-10.76285 -0.82466,-0.78574 -1.76255,-0.12735 -2.80596,0.32954 z"
       id="path971"
       inkscape:connector-curvature="0"
       sodipodi:nodetypes="sssssss" />
    <path
       style="fill:none;fill-rule:evenodd;stroke:#ff0000;stroke-width:1px;stroke-linecap:butt;stroke-linejoin:miter;stroke-opacity:1"
       d="m -91.701341,917.79007 c 2.0013,-2.1609 2.85184,2.1271 4.91761,4.22645 0.68097,0.69204 1.55993,3.04204 1.7572,3.99268 0.6586,3.17375 -0.39548,5.77709 -1.07724,8.94595 -0.18004,0.83683 -0.0998,1.7116 -0.846,2.13106 -1.31304,0.73813 -2.60842,0.0228 -3.57349,-1.13378 -1.70556,-2.04393 0.13591,-4.42385 -0.18081,-7.06701 -0.40865,-3.41033 -2.61538,-9.3482 -0.99727,-11.09535 z"
       id="path973"
       inkscape:connector-curvature="0"
       sodipodi:nodetypes="ssssssss" />
    <path
       style="fill:none;fill-rule:evenodd;stroke:#ff0000;stroke-width:1px;stroke-linecap:butt;stroke-linejoin:miter;stroke-opacity:1"
       d="m -104.07018,912.32338 c 1.02,-3.38842 5.211909,4.27199 6.816989,7.42564 1.55142,3.04822 3.32017,7.89728 0.60865,9.98203 -1.43466,1.10304 -2.386,-0.77627 -3.651949,-2.06944 -1.25669,-1.28371 -1.11945,-3.62048 -1.58252,-5.3562 -0.89643,-3.36007 -3.48907,-5.67044 -2.19117,-9.98203 z"
       id="path975"
       inkscape:connector-curvature="0"
       sodipodi:nodetypes="ssssss" />
    <path
       style="fill:none;fill-rule:evenodd;stroke:#ff0000;stroke-width:1px;stroke-linecap:butt;stroke-linejoin:miter;stroke-opacity:1"
       d="m -103.04494,939.96743 c -1.51096,-0.17423 -3.18349,1.23831 -3.70133,2.66841 -0.74635,2.06115 -0.42175,11.18566 1.03293,12.82556 1.10319,1.24365 2.39777,0.72729 4.04564,0.94684 1.34428,0.1791 4.263839,-5.09526 5.250729,-6.02542 0.63504,-0.59853 0.37316,-1.71156 0.43039,-2.58233 0.11109,-1.69018 1.03453,-3.88988 -0.17215,-5.07857 -1.08353,-1.06739 -3.18379,0.55701 -4.562109,-0.0861 -1.06891,-0.49874 -1.15233,-2.53327 -2.3241,-2.66839 z"
       id="path1013"
       inkscape:connector-curvature="0"
       sodipodi:nodetypes="sssssssss" />
    <path
       style="display:inline;fill:none;fill-rule:evenodd;stroke:#ff0000;stroke-width:1px;stroke-linecap:butt;stroke-linejoin:miter;stroke-opacity:1"
       d="m -94.457401,950.53476 c -1.72574,1.27657 -5.28923,12.43622 -5.33427,14.58232 -0.0414,1.97415 1.88243,3.35048 3.57095,4.37413 1.41225,0.85616 4.13684,-6.52612 5.46466,-7.50814 1.0278,-0.76013 1.34493,-3.37097 1.29116,-4.64819 -0.0957,-2.27357 -1.00258,-4.44216 -1.63547,-6.62797 -0.12617,-0.43577 -0.0203,-1.09714 -0.43039,-1.29116 -0.94409,-0.44668 -2.08698,0.49789 -2.92664,1.11901 z"
       id="path1015"
       inkscape:connector-curvature="0"
       sodipodi:nodetypes="ssssssss" />
    <path
       style="fill:none;fill-rule:evenodd;stroke:#ff0000;stroke-width:1px;stroke-linecap:butt;stroke-linejoin:miter;stroke-opacity:1"
       d="m -80.019531,964.26864 c 2.19612,4.07309 2.69379,10.40534 -0.3652,13.87745 -1.05844,1.20138 -3.41406,1.61665 -4.74754,0.73039 -1.67205,-1.11128 -1.14993,-3.85969 -1.46079,-5.84314 -0.66743,-4.25858 -1.33714,-8.6204 -0.85212,-12.90359 0.0953,-0.8419 -0.1051,-2.29379 0.73039,-2.43464 1.77685,-0.29955 1.84708,3.15356 3.16503,4.38235 1.013,0.94447 2.87293,0.9721 3.53023,2.19118 z"
       id="path1018"
       inkscape:connector-curvature="0"
       sodipodi:nodetypes="ssssssss" />
    <path
       style="fill:none;fill-rule:evenodd;stroke:#ff0000;stroke-width:1px;stroke-linecap:butt;stroke-linejoin:miter;stroke-opacity:1"
       d="m -74.489301,969.60769 c -4.17625,4.23491 -0.33729,12.14351 1.58252,17.77288 0.55953,1.64068 1.28597,3.53789 2.79983,4.38235 2.30367,1.28503 6.04757,1.98719 7.91258,0.12173 3.67265,-3.67353 0.44174,-10.43256 -0.24346,-15.5817 -0.32584,-2.44864 0.23752,-5.82425 -1.82598,-7.18219 -1.51019,-0.99382 -4.50409,0.73039 -5.35621,0.85213 -0.85212,0.12173 -3.72641,-1.52412 -4.86928,-0.3652 z"
       id="path1020"
       inkscape:connector-curvature="0"
       sodipodi:nodetypes="ssssssss" />
    <path
       style="fill:none;fill-rule:evenodd;stroke:#ff0000;stroke-width:1px;stroke-linecap:butt;stroke-linejoin:miter;stroke-opacity:1"
       d="m -56.977051,970.75557 c -5.64662,3.45273 0.45126,13.22962 0.7304,19.84232 0.14392,3.40932 -1.14183,7.22693 0.48692,10.22551 0.76325,1.4051 2.30095,2.921 3.89543,2.7998 2.7181,-0.2065 4.60223,-3.2943 5.84314,-5.72139 2.1108,-4.12853 1.81485,-9.12588 2.06944,-13.75572 0.16946,-3.08163 1.83586,-7.0882 -0.3652,-9.25164 -1.30256,-1.2803 -3.71579,0.35856 -5.47794,-0.12173 -2.64656,-0.72134 -4.84192,-5.44815 -7.18219,-4.01715 z"
       id="path1022"
       inkscape:connector-curvature="0"
       sodipodi:nodetypes="sssssssss" />
    <path
       style="fill:none;fill-rule:evenodd;stroke:#ff0000;stroke-width:1px;stroke-linecap:butt;stroke-linejoin:miter;stroke-opacity:1"
       d="m -39.286911,974.2263 c -4.71362,2.8537 -0.25573,11.04949 0.34431,16.52688 0.25491,2.32694 -0.51587,5.50934 1.37724,6.88621 2.00901,1.46117 5.46528,0.69411 7.40267,-0.86078 2.32118,-1.86291 2.68403,-5.46922 2.92664,-8.4356 0.27531,-3.3662 0.48931,-7.43172 -1.72155,-9.98499 -1.57992,-1.82462 -4.67125,-1.27918 -6.8862,-2.23802 -1.20204,-0.52036 -2.32262,-2.57206 -3.44311,-1.8937 z"
       id="path1024"
       inkscape:connector-curvature="0"
       sodipodi:nodetypes="ssssssss" />
    <path
       style="fill:none;fill-rule:evenodd;stroke:#ff0000;stroke-width:1px;stroke-linecap:butt;stroke-linejoin:miter;stroke-opacity:1"
       d="m -22.349851,980.07957 c -2.54147,3.11341 1.69208,7.87712 2.06586,11.8787 0.37896,4.05708 -2.28314,8.97103 0.17216,12.22303 1.44403,1.9125 4.5336,2.5223 6.8862,2.0658 1.80358,-0.3499 3.3650097,-1.8639 4.3038797,-3.4431 1.6682001,-2.80592 1.7761801,-6.37671 1.72155,-9.64065 -0.0736,-4.40011 0.5926,-10.05446 -2.75448,-12.91163 -1.6608297,-1.41773 -4.3583897,-0.319 -6.5418897,-0.34431 -1.95181,-0.0226 -4.61895,-1.33995 -5.85328,0.17216 z"
       id="path1026"
       inkscape:connector-curvature="0"
       sodipodi:nodetypes="sssssssss" />
    <path
       style="fill:none;fill-rule:evenodd;stroke:#ff0000;stroke-width:1px;stroke-linecap:butt;stroke-linejoin:miter;stroke-opacity:1"
       d="m -1.1747712,980.31758 c -3.55906,3.82309 -1.4252001,10.55588 -0.34431,15.66612 0.64278995,3.03898 1.15381995,7.1028 3.95956,8.4356 1.7097299,0.8122 4.02645,-0.2004 5.5089699,-1.3772 1.96992,-1.5638 2.8527603,-4.26921 3.4431003,-6.71409 0.82162,-3.4027 -0.10923,-7.00268 0,-10.50146 0.0574,-1.83901 1.55663,-4.12494 0.34431,-5.50897 -1.62984,-1.86067 -4.9292902,-0.54592 -7.4026702,-0.51646 -1.8442401,0.022 -4.25224005,-0.83349 -5.50896,0.51646 z"
       id="path1028"
       inkscape:connector-curvature="0"
       sodipodi:nodetypes="sssssssss" />
    <path
       style="fill:none;fill-rule:evenodd;stroke:#ff0000;stroke-width:1px;stroke-linecap:butt;stroke-linejoin:miter;stroke-opacity:1"
       d="m 18.623059,978.01371 c -3.48574,3.24633 -0.15995,9.53716 0.17216,14.28887 0.15732,2.25084 0.2782,4.53422 0.86077,6.71405 0.77045,2.88287 0.62443,7.28397 3.4431,8.26347 1.67423,0.5818 3.55717,-1.1855 4.64819,-2.5824 2.45057,-3.1375 2.67078,-7.57629 3.09879,-11.53435 0.52498,-4.85482 -0.33079,-9.76318 -0.68862,-14.63318 -0.0423,-0.57516 0.29384,-1.38177 -0.17215,-1.72155 -1.99167,-1.45221 -4.77067,1.39181 -7.23052,1.5494 -1.37919,0.0884 -3.12038,-1.28619 -4.13172,-0.34431 z"
       id="path1030"
       inkscape:connector-curvature="0"
       sodipodi:nodetypes="ssssssssss" />
    <path
       style="fill:none;fill-rule:evenodd;stroke:#ff0000;stroke-width:1px;stroke-linecap:butt;stroke-linejoin:miter;stroke-opacity:1"
       d="m 35.043659,975.19337 c -2.39966,3.57465 -0.19102,8.63963 0.34431,12.91163 0.38773,3.09419 1.07118,6.16872 2.06586,9.12422 0.88468,2.62866 1.17052,5.98488 3.4431,7.57478 1.8392,1.2868 5.14513,2.1218 6.71405,0.5165 1.2093,-1.2373 -0.52305,-3.4345 -0.51647,-5.1647 0.0143,-3.75152 0.90681,-7.45031 1.20509,-11.19003 0.35178,-4.4106 3.09524,-9.54309 0.68862,-13.25594 -1.4723,-2.27142 -4.868,-2.91721 -7.57483,-2.92664 -2.27014,-0.008 -5.10444,0.52534 -6.36973,2.41018 z"
       id="path1032"
       inkscape:connector-curvature="0"
       sodipodi:nodetypes="ssssssssss" />
    <path
       style="fill:none;fill-rule:evenodd;stroke:#ff0000;stroke-width:1px;stroke-linecap:butt;stroke-linejoin:miter;stroke-opacity:1"
       d="m 52.988219,971.70983 c -2.38997,4.81263 2.58974,10.63838 5.50896,15.14965 1.52123,2.35087 3.39081,4.90486 6.02543,5.85327 1.35414,0.48746 3.2653,0.65202 4.30388,-0.34431 1.71043,-1.64084 0.98053,-4.69117 0.86077,-7.05836 -0.24971,-4.9358 -2.20086,-9.63616 -3.27095,-14.46103 -0.58491,-2.63728 0.12627,-5.94862 -1.72155,-7.91913 -0.28577,-0.30474 -0.8244,-0.51638 -1.20508,-0.34431 -2.31562,1.04668 -1.35005,5.22253 -3.27095,6.8862 -1.90714,1.65175 -6.10834,-0.0217 -7.23051,2.23802 z"
       id="path1034"
       inkscape:connector-curvature="0"
       sodipodi:nodetypes="ssssssssss" />
    <path
       style="fill:none;fill-rule:evenodd;stroke:#ff0000;stroke-width:1px;stroke-linecap:butt;stroke-linejoin:miter;stroke-opacity:1"
       d="m 68.350449,961.93742 c -1.6977,2.35543 1.18841,5.81853 2.75448,8.26345 1.35767,2.11956 4.04352,3.11812 5.50897,5.16465 1.94378,2.71453 1.61569,6.92956 4.13172,9.12422 1.66928,1.45607 4.47928,3.04818 6.36974,1.89371 2.39177,-1.46061 1.58734,-5.46122 1.54939,-8.26345 -0.0405,-2.99366 -0.85335,-5.97254 -1.8937,-8.77991 -1.58824,-4.28585 -2.05032,-11.20425 -6.5419,-12.05085 -2.36107,-0.44503 -3.25234,3.82336 -5.50896,4.64818 -1.99421,0.72891 -5.12826,-1.72247 -6.36974,0 z"
       id="path1036"
       inkscape:connector-curvature="0"
       sodipodi:nodetypes="ssssssssss" />
    <path
       style="fill:none;fill-rule:evenodd;stroke:#ff0000;stroke-width:1px;stroke-linecap:butt;stroke-linejoin:miter;stroke-opacity:1"
       d="m 84.360879,948.74734 c -2.31286,1.14133 -4.35835,3.97274 -4.13173,6.5419 0.232,2.63012 3.41251,4.04539 5.33681,5.85327 3.00455,2.82278 5.51851,7.80201 9.64069,7.74698 2.4833,-0.0331 4.72496,-2.52826 5.681111,-4.82034 1.15224,-2.76214 -0.68862,-7.91914 -0.68862,-8.95207 0,-1.03293 -1.778521,-6.1851 -4.131721,-8.09129 -1.20065,-0.97257 -2.97831,-1.58493 -4.47603,-1.20508 -1.53445,0.38917 -1.94783,2.75116 -3.4431,3.27094 -1.19739,0.41624 -2.65061,-0.90529 -3.78741,-0.34431 z"
       id="path1038"
       inkscape:connector-curvature="0"
       sodipodi:nodetypes="ssssssssss" />
    <path
       style="fill:none;fill-rule:evenodd;stroke:#ff0000;stroke-width:1px;stroke-linecap:butt;stroke-linejoin:miter;stroke-opacity:1"
       d="m 101.85483,929.76985 c -2.683631,-0.18139 -5.212481,2.24442 -6.714041,4.47603 -1.43874,2.13825 -2.59479,5.21915 -1.5494,7.57483 1.18962,2.68071 4.68913,3.95236 7.574821,4.47603 1.9494,0.35376 4.30693,0.20567 5.85328,-1.03293 1.16451,-0.93275 2.41017,-2.41017 1.72155,-4.13172 -0.68862,-1.72155 -2.05326,-6.19665 -3.95957,-8.77991 -0.77251,-1.04683 -1.62859,-2.49459 -2.92664,-2.58233 z"
       id="path1040"
       inkscape:connector-curvature="0"
       sodipodi:nodetypes="ssssssss" />
  </g>
  <g
     inkscape:groupmode="layer"
     id="layer3"
     inkscape:label="Skull Etched Lines"
     style="display:inline">
    <path
       id="path1042"
       style="fill:none;fill-rule:evenodd;stroke:#ff0000;stroke-width:1px;stroke-linecap:butt;stroke-linejoin:miter;stroke-opacity:1"
       d="m -163.99305,627.86069 c 0,0 2.13183,15.7399 0.68862,23.41309 -1.52095,8.08651 -6.42465,15.15069 -9.64068,22.72447 -2.30789,5.43511 -4.52671,10.90902 -6.929,16.30307 -3.75186,8.42434 -9.5582,16.10364 -11.68627,25.07679 -2.52928,10.66487 3.51307,28.54616 3.51307,28.54616 l -6.1826,-0.0609 c 0,0 -5.85975,-17.82043 -3.33047,-28.4853 2.12807,-8.97315 7.93441,-16.65245 11.68627,-25.07679 2.40229,-5.39405 4.62111,-10.86796 6.929,-16.30307 3.21603,-7.57378 8.11973,-14.63796 9.64068,-22.72447 1.44321,-7.67319 -0.68862,-23.41309 -0.68862,-23.41309 z"
       inkscape:connector-curvature="0"
       sodipodi:nodetypes="cssssccsssscc" />
    <path
       id="path1045"
       style="fill:none;fill-rule:evenodd;stroke:#ff0000;stroke-width:1px;stroke-linecap:butt;stroke-linejoin:miter;stroke-opacity:1"
       d="m 167.00988,617.2621 c 0,0 -4.23033,16.92558 -2.92157,25.32026 1.70091,10.91002 9.31021,20.0295 13.63399,30.18955 6.16081,14.47673 14.75242,28.33741 17.52941,43.82352 2.23532,12.46546 -2.97385,37.9804 -2.97385,37.9804 h -6 c 0,0 5.20917,-25.51494 2.97385,-37.9804 -2.77699,-15.48611 -11.3686,-29.34679 -17.52941,-43.82352 -4.32378,-10.16005 -11.93308,-19.27953 -13.63399,-30.18955 -1.30876,-8.39468 2.92157,-25.32026 2.92157,-25.32026 z"
       inkscape:connector-curvature="0"
       sodipodi:nodetypes="csssccssscc" />
    <path
       id="path1048"
       style="fill:none;fill-rule:evenodd;stroke:#ff0000;stroke-width:1px;stroke-linecap:butt;stroke-linejoin:miter;stroke-opacity:1"
       d="m -104.19511,897.83339 c 0,0 5.434049,-18.1925 3.82917,-33.69874 -7.50796,-4.36609 -19.79301,-3.97164 -27.26797,-8.76471 -21.97796,-14.09262 -34.94411,-13.91668 -34.94411,-13.91668 l 0.1063,-6.7747 c 0,0 18.85985,0.59876 40.83781,14.69138 7.47496,4.79307 19.76001,4.39862 27.267969,8.76471 1.60488,15.50624 -2.92156,40.4759 -2.92156,40.4759 z"
       inkscape:connector-curvature="0"
       sodipodi:nodetypes="ccsccsccc" />
    <path
       id="path1051"
       style="fill:none;fill-rule:evenodd;stroke:#ff0000;stroke-width:1px;stroke-linecap:butt;stroke-linejoin:miter;stroke-opacity:1"
       d="m -132.13174,953.35644 c 0,0 -9.72599,-32.37862 -12.74665,-48.64858 l -8.85121,-47.67472 h -6 l 8.85121,47.67472 c 3.02065,16.26996 12.74665,48.64858 12.74665,48.64858 z"
       inkscape:connector-curvature="0"
       sodipodi:nodetypes="csccscc" />
    <path
       id="path1054"
       style="fill:none;fill-rule:evenodd;stroke:#ff0000;stroke-width:1px;stroke-linecap:butt;stroke-linejoin:miter;stroke-opacity:1"
       d="m 128.80231,963.57811 c 8.85304,-20.92538 8.73668,-25.66952 11.74832,-37.06735 5.56213,-21.05037 7.00435,-50.42203 8.22167,-60.02812 h -6 c -1.21732,9.60609 -2.65954,38.97775 -8.22167,60.02812 -3.01164,11.39783 -2.89528,16.14197 -11.74832,37.06735 z"
       inkscape:connector-curvature="0"
       sodipodi:nodetypes="csccscc" />
    <path
       id="path1057"
       style="fill:none;fill-rule:evenodd;stroke:#ff0000;stroke-width:1px;stroke-linecap:butt;stroke-linejoin:miter;stroke-opacity:1"
       d="m 89.749419,892.16592 c 0,0 -2.22132,-15.52196 0.34343,-26.18932 5.17918,-5.00749 11.824601,-4.30997 17.559821,-6.8862 6.69543,-3.00755 18.13836,-8.45411 25.13464,-10.67362 8.86254,-2.81156 19.51445,-3.47961 19.51445,-3.47961 l -0.0659,6.86078 c 0,0 -4.58605,-0.19273 -13.44859,2.61883 -6.99628,2.21951 -18.43921,7.66607 -25.13464,10.67362 -5.73522,2.57623 -12.38064,1.87871 -17.559821,6.8862 -2.56475,10.66736 -0.17127,20.81208 -0.17127,20.81208 z"
       inkscape:connector-curvature="0"
       sodipodi:nodetypes="ccssccssccc" />
  </g>
  <g
     inkscape:groupmode="layer"
     id="layer9"
     inkscape:label="Skull Text"
     style="display:none">
    <text
       xml:space="preserve"
       style="font-style:normal;font-variant:normal;font-weight:bold;font-stretch:normal;font-size:62.01516724px;line-height:125%;font-family:Impact;-inkscape-font-specification:'Impact Bold';letter-spacing:0px;word-spacing:0px;display:inline;opacity:0.36199999;fill:#000000;fill-opacity:1;stroke:none;stroke-width:1.5503794px;stroke-linecap:butt;stroke-linejoin:miter;stroke-opacity:1"
       x="9.1552734e-05"
       y="557.72809"
       id="text8393"><tspan
         sodipodi:role="line"
         x="9.5202326e-05"
         y="557.72809"
         style="font-style:normal;font-variant:normal;font-weight:bold;font-stretch:normal;font-family:Futura;-inkscape-font-specification:'Futura Bold';text-align:center;text-anchor:middle;stroke-width:1.5503794px"
         id="tspan8405">EVERY MAN</tspan></text>
    <text
       xml:space="preserve"
       style="font-style:normal;font-variant:normal;font-weight:bold;font-stretch:normal;font-size:84.44282532px;line-height:125%;font-family:Impact;-inkscape-font-specification:'Impact Bold';letter-spacing:0px;word-spacing:0px;display:inline;opacity:0.36199999;fill:#000000;fill-opacity:1;stroke:none;stroke-width:2.11107063px;stroke-linecap:butt;stroke-linejoin:miter;stroke-opacity:1"
       x="-96.137924"
       y="641.65808"
       id="text8417"><tspan
         sodipodi:role="line"
         id="tspan8415"
         x="-96.137924"
         y="641.65808"
         style="font-style:normal;font-variant:normal;font-weight:bold;font-stretch:normal;font-family:Futura;-inkscape-font-specification:'Futura Bold';stroke-width:2.11107063px">DIES</tspan></text>
  </g>
  <g
     style="display:inline"
     inkscape:label="Skull Text as Paths"
     id="g5041"
     inkscape:groupmode="layer">
    <g
       aria-label="EVERY MAN"
       style="font-style:normal;font-variant:normal;font-weight:bold;font-stretch:normal;font-size:62.01516724px;line-height:125%;font-family:Impact;-inkscape-font-specification:'Impact Bold';letter-spacing:0px;word-spacing:0px;display:inline;opacity:0.36199999;fill:#000000;fill-opacity:1;stroke:none;stroke-width:1.5503794px;stroke-linecap:butt;stroke-linejoin:miter;stroke-opacity:1"
       id="text5035"
       transform="translate(-299.51953,378.66733)">
      <path
         d="m 137.75338,142.59583 v -10.29452 h -26.6045 v 46.75944 h 26.6045 v -10.29452 h -14.44953 v -8.06197 h 13.70535 v -10.29452 h -13.70535 v -7.81391 z"
         style="font-style:normal;font-variant:normal;font-weight:bold;font-stretch:normal;font-family:Futura;-inkscape-font-specification:'Futura Bold';text-align:center;text-anchor:middle;stroke-width:1.5503794px"
         id="path5052"
         inkscape:connector-curvature="0" />
      <path
         d="m 153.5672,132.30131 h -13.20923 l 19.65881,46.75944 h 9.42631 l 19.96888,-46.75944 h -13.20923 l -11.34878,28.40295 z"
         style="font-style:normal;font-variant:normal;font-weight:bold;font-stretch:normal;font-family:Futura;-inkscape-font-specification:'Futura Bold';text-align:center;text-anchor:middle;stroke-width:1.5503794px"
         id="path5054"
         inkscape:connector-curvature="0" />
      <path
         d="m 219.0552,142.59583 v -10.29452 h -26.60451 v 46.75944 h 26.60451 v -10.29452 h -14.44953 v -8.06197 h 13.70535 v -10.29452 h -13.70535 v -7.81391 z"
         style="font-style:normal;font-variant:normal;font-weight:bold;font-stretch:normal;font-family:Futura;-inkscape-font-specification:'Futura Bold';text-align:center;text-anchor:middle;stroke-width:1.5503794px"
         id="path5056"
         inkscape:connector-curvature="0" />
      <path
         d="m 250.7449,159.89806 q 4.83718,-0.86821 7.50384,-4.52711 2.72866,-3.65889 2.72866,-8.68212 0,-7.19376 -4.46509,-10.79064 -4.46509,-3.59688 -11.78288,-3.59688 h -18.17044 v 46.75944 h 12.15497 v -17.9844 h 0.12403 l 11.47281,17.9844 h 15.1317 z m -12.03094,-18.29448 h 1.17829 q 1.67441,0 3.10076,0.24806 1.48836,0.18605 2.66665,0.8062 1.2403,0.62015 1.92247,1.79844 0.74418,1.17829 0.74418,2.97673 0,1.79844 -0.74418,2.97673 -0.68217,1.17829 -1.92247,1.79844 -1.17829,0.62015 -2.66665,0.86821 -1.42635,0.18605 -3.10076,0.18605 h -1.17829 z"
         style="font-style:normal;font-variant:normal;font-weight:bold;font-stretch:normal;font-family:Futura;-inkscape-font-specification:'Futura Bold';text-align:center;text-anchor:middle;stroke-width:1.5503794px"
         id="path5058"
         inkscape:connector-curvature="0" />
      <path
         d="m 278.3415,156.61125 v 22.4495 h 12.15498 v -22.4495 l 17.24021,-24.30994 h -14.57356 l -8.74414,12.71311 -8.74414,-12.71311 h -14.57356 z"
         style="font-style:normal;font-variant:normal;font-weight:bold;font-stretch:normal;font-family:Futura;-inkscape-font-specification:'Futura Bold';text-align:center;text-anchor:middle;stroke-width:1.5503794px"
         id="path5060"
         inkscape:connector-curvature="0" />
      <path
         d="m 329.00773,179.06075 h 12.09296 l 3.90695,-26.91459 h 0.12403 l 10.72863,26.91459 h 4.83718 l 11.22474,-26.91459 h 0.12404 l 3.41083,26.91459 h 12.15497 l -7.06973,-46.75944 h -12.09295 l -10.04646,24.99211 -9.48832,-24.99211 h -11.96893 z"
         style="font-style:normal;font-variant:normal;font-weight:bold;font-stretch:normal;font-family:Futura;-inkscape-font-specification:'Futura Bold';text-align:center;text-anchor:middle;stroke-width:1.5503794px"
         id="path5062"
         inkscape:connector-curvature="0" />
      <path
         d="m 421.4103,170.93676 3.03874,8.12399 h 12.96117 L 419.7979,132.30131 h -13.27124 l -17.9844,46.75944 h 12.89915 l 3.22479,-8.12399 z m -3.28681,-9.30228 h -10.10847 l 5.02323,-14.88364 h 0.12403 z"
         style="font-style:normal;font-variant:normal;font-weight:bold;font-stretch:normal;font-family:Futura;-inkscape-font-specification:'Futura Bold';text-align:center;text-anchor:middle;stroke-width:1.5503794px"
         id="path5064"
         inkscape:connector-curvature="0" />
      <path
         d="m 441.19303,179.06075 h 12.15498 v -28.65101 h 0.12403 l 22.26344,28.65101 h 12.15498 v -46.75944 h -12.15498 v 28.58899 h -0.12403 l -22.26344,-28.58899 h -12.15498 z"
         style="font-style:normal;font-variant:normal;font-weight:bold;font-stretch:normal;font-family:Futura;-inkscape-font-specification:'Futura Bold';text-align:center;text-anchor:middle;stroke-width:1.5503794px"
         id="path5066"
         inkscape:connector-curvature="0" />
    </g>
    <g
       aria-label="DIES"
       style="font-style:normal;font-variant:normal;font-weight:bold;font-stretch:normal;font-size:84.44282532px;line-height:125%;font-family:Impact;-inkscape-font-specification:'Impact Bold';letter-spacing:0px;word-spacing:0px;display:inline;opacity:0.36199999;fill:#000000;fill-opacity:1;stroke:none;stroke-width:2.11107063px;stroke-linecap:butt;stroke-linejoin:miter;stroke-opacity:1"
       id="text5039"
       transform="translate(-299.51953,378.66733)">
      <path
         d="m 208.78595,262.99072 h 23.4751 q 6.5021,0 12.4131,-2.44884 5.911,-2.44884 10.38647,-6.75543 4.47547,-4.39102 7.00875,-10.21758 2.53329,-5.82655 2.53329,-12.41309 0,-6.58654 -2.53329,-12.4131 -2.44884,-5.82655 -6.92431,-10.21758 -4.47547,-4.39103 -10.38647,-6.75543 -5.911,-2.44884 -12.49754,-2.44884 h -23.4751 z m 16.55079,-49.65238 h 3.88437 q 8.19096,0 13.17308,4.7288 4.98213,4.7288 4.98213,13.08864 0,4.47547 -1.43553,7.93762 -1.43553,3.37772 -3.96881,5.57323 -2.53329,2.19551 -5.82656,3.29327 -3.29327,1.01331 -7.09319,1.01331 h -3.71549 z"
         style="font-style:normal;font-variant:normal;font-weight:bold;font-stretch:normal;font-family:Futura;-inkscape-font-specification:'Futura Bold';stroke-width:2.11107063px"
         id="path5043"
         inkscape:connector-curvature="0" />
      <path
         d="m 288.83765,199.32083 h -16.55079 v 63.66989 h 16.55079 z"
         style="font-style:normal;font-variant:normal;font-weight:bold;font-stretch:normal;font-family:Futura;-inkscape-font-specification:'Futura Bold';stroke-width:2.11107063px"
         id="path5045"
         inkscape:connector-curvature="0" />
      <path
         d="m 335.87226,213.33834 v -14.01751 h -36.22598 v 63.66989 h 36.22598 v -14.01751 h -19.67518 v -10.97756 h 18.66186 v -14.01751 h -18.66186 v -10.6398 z"
         style="font-style:normal;font-variant:normal;font-weight:bold;font-stretch:normal;font-family:Futura;-inkscape-font-specification:'Futura Bold';stroke-width:2.11107063px"
         id="path5047"
         inkscape:connector-curvature="0" />
      <path
         d="m 387.63565,202.86743 q -4.22214,-2.3644 -9.62648,-3.79993 -5.40434,-1.43552 -10.30203,-1.43552 -4.72879,0 -8.78205,1.51997 -4.05326,1.51997 -7.00875,4.39102 -2.9555,2.78662 -4.55992,6.75543 -1.60441,3.88437 -1.60441,8.69761 0,4.47547 1.1822,7.51541 1.1822,2.9555 3.37771,4.89769 2.27996,1.85774 5.15101,3.03994 2.87106,1.1822 7.51542,2.53328 0.16888,0.0845 0.50665,0.16889 1.94219,0.50666 3.37772,1.01331 1.51997,0.50666 2.95549,1.35109 1.43553,0.84443 2.27996,2.02663 0.92887,1.09775 0.92887,2.70217 0,3.12438 -2.3644,4.81324 -2.3644,1.60441 -5.65767,1.60441 -3.96881,0 -7.59985,-1.7733 -3.63104,-1.7733 -7.0932,-4.81324 l -7.0932,13.34197 q 4.89769,3.46215 10.6398,5.40434 5.82656,1.85774 11.73755,1.85774 5.06657,0 9.79537,-1.51997 4.7288,-1.43553 8.2754,-4.47547 3.5466,-3.03994 5.06657,-7.43097 1.51997,-4.47547 1.51997,-9.71092 0,-3.71549 -1.1822,-6.58655 -1.09776,-2.87105 -3.29327,-4.89768 -2.11107,-2.02663 -4.89769,-3.46216 -2.78661,-1.43552 -6.33321,-2.44884 l -4.22214,-1.26664 v 0 q -3.29327,-1.09776 -5.3199,-2.3644 -2.02662,-1.26664 -2.02662,-3.71548 0,-2.44884 2.19551,-3.88437 2.27996,-1.43553 4.89768,-1.43553 2.9555,0 5.74212,1.1822 2.87105,1.09776 5.23545,3.03994 z"
         style="font-style:normal;font-variant:normal;font-weight:bold;font-stretch:normal;font-family:Futura;-inkscape-font-specification:'Futura Bold';stroke-width:2.11107063px"
         id="path5049"
         inkscape:connector-curvature="0" />
    </g>
  </g>
  <g
     inkscape:groupmode="layer"
     id="layer6"
     inkscape:label="Coin Rim"
     style="display:inline">
    <path
       style="opacity:0.45800003;fill:#00e500;fill-opacity:1;stroke:#ff0000;stroke-width:2.43400002;stroke-linejoin:round;stroke-miterlimit:6.4000001;stroke-dasharray:none;stroke-dashoffset:0;stroke-opacity:1;paint-order:markers stroke fill"
       d="M 0.86327875,283.04037 C -60.275211,283.18845 -121.31732,295.07358 -177.65625,318.68295 c -98.18736,40.59075 -181.45561,116.52402 -230.77148,210.77344 -46.66951,88.12924 -63.93942,191.56369 -47.34766,289.70117 17.13576,108.46838 75.0505,209.99794 159.64648,280.20704 72.34778,60.8616 164.18891,98.3569 258.441409,105.957 45.9973398,4.1277 92.79429,0.181 138.078131,-9.4746 87.88531,-19.553 169.38909,-65.1937 231.88867,-130.0644 C 400.35747,995.53533 445.25735,902.77353 457.80859,805.63999 465.2647,751.97421 462.37323,696.8097 450.70313,644.08725 434.35407,570.80505 399.67424,501.61857 350.83399,444.59116 291.26799,374.84864 210.4489,323.64817 122.08789,299.56381 82.614569,288.84757 41.704359,283.05919 0.86327875,283.04037 Z M -2.2050812,393.73959 c 49.0214302,-0.22871 98.0331802,10.00368 142.9531312,29.60743 88.17655,37.62518 158.05473,113.96218 190.14453,204.03515 31.88717,87.70407 25.65833,187.9081 -15.34375,271.58008 -42.43094,88.90911 -124.8223,156.92495 -219.392581,183.77535 -96.91003025,28.4472 -205.501209,11.0363 -289.564449,-44.5976 -77.19793,-50.43584 -132.35507,-132.67294 -150.67188,-222.95705 -20.51084,-96.91399 3.58912,-201.72517 63.07031,-280.7539 64.15294,-87.07832 170.8171,-140.28999 278.8046888,-140.68946 z"
       id="circle4679"
       inkscape:connector-curvature="0" />
  </g>
  <g
     inkscape:groupmode="layer"
     id="layer8"
     inkscape:label="Coin Rim Ridges"
     style="display:inline">
    <path
       style="display:inline;opacity:0.6520004;fill:#f25400;fill-opacity:1;stroke:none;stroke-width:1.81616175;stroke-linejoin:round;stroke-miterlimit:6.4000001;stroke-dasharray:none;stroke-dashoffset:0;stroke-opacity:1;paint-order:markers stroke fill"
       d="M -1.4843712,387.7142 C -123.38991,387.59831 -243.44641,454.88593 -305.57813,560.02671 c -55.08609,90.65475 -67.40808,206.46587 -30.5371,305.77539 33.66899,94.10406 108.42477,173.0705 201.54882,210.0273 89.920799,36.7571 194.885949,35.1713 283.06836,-6.0293 84.03474,-38.2915 152.55519,-110.37998 184.89649,-196.72261 34.66702,-89.73768 31.42325,-193.7494 -10.41211,-280.51954 C 283.42692,508.38913 209.74016,440.44043 121.77539,409.34116 82.316359,394.97672 40.404939,387.47218 -1.4843712,387.7142 Z m -0.36914,12.00586 C 72.620109,399.5046 146.72168,423.61955 206.45899,468.4603 c 72.76405,53.8306 122.5088,137.61624 135.06445,226.97265 13.32097,88.38829 -10.02837,181.56415 -63.19336,253.56836 -54.11608,74.58389 -139.51324,125.52699 -230.812501,137.80659 -54.1898703,7.8078 -110.23121,1.8916 -161.994139,-16.2304 -87.50983,-30.4253 -161.21346,-97.61654 -199.32617,-182.02931 -31.22914,-68.01686 -39.56276,-145.74912 -23.04493,-218.61328 19.29471,-88.12628 74.82727,-167.50373 151.01563,-215.73633 54.5846,-35.13182 119.291739,-53.8356 183.9785188,-54.47852 z"
       id="circle4588"
       inkscape:connector-curvature="0" />
    <path
       style="display:inline;opacity:0.522;fill:#0000e0;fill-opacity:1;stroke:none;stroke-width:2;stroke-linejoin:round;stroke-miterlimit:6.4000001;stroke-dasharray:none;stroke-dashoffset:0;stroke-opacity:1;paint-order:markers stroke fill"
       d="M -1.25e-6,276.76889 A 468.22607,468.22607 0 0 0 -468.22656,744.9935 468.22607,468.22607 0 0 0 -1.25e-6,1213.2201 468.22607,468.22607 0 0 0 468.22656,744.9935 468.22607,468.22607 0 0 0 -1.25e-6,276.76889 Z m -2.68555005,12.28906 c 74.0861603,-0.51647 148.1918013,17.67183 213.8515713,51.95313 85.69042,44.22378 156.00571,117.11222 198.26562,203.65039 48.43264,97.69075 59.33672,212.72285 31.02539,317.76953 -27.09964,103.05194 -91.85023,195.4662 -179.26758,256.1621 -85.69576,60.4226 -192.525911,89.1279 -296.773431,80.9395 -105.669949,-7.9319 -207.760389,-54.5919 -283.447269,-128.9063 -81.41631,-78.98739 -130.67984,-189.48217 -136.30469,-302.5703 -7.02586,-123.84957 40.36288,-249.503 126.50586,-338.86133 83.88484,-88.15541 204.59488,-139.7126 326.1445287,-140.13672 z"
       id="circle4586"
       inkscape:connector-curvature="0" />
  </g>
  <g
     inkscape:groupmode="layer"
     id="layer7"
     inkscape:label="Rim Text"
     style="display:none">
    <text
       xml:space="preserve"
       style="font-style:normal;font-variant:normal;font-weight:bold;font-stretch:normal;font-size:40px;line-height:125%;font-family:Impact;-inkscape-font-specification:'Impact Bold';letter-spacing:0px;word-spacing:0px;fill:#000000;fill-opacity:1;stroke:none;stroke-width:1px;stroke-linecap:butt;stroke-linejoin:miter;stroke-opacity:1"
       id="text4577"><textPath
         xlink:href="#path4646"
         id="textPath4660"
         style="font-style:normal;font-variant:normal;font-weight:bold;font-stretch:normal;font-size:93.33333588px;font-family:Futura;-inkscape-font-specification:'Futura Bold';letter-spacing:10px;word-spacing:20px">NOT EVERY MAN REALLY LIVES</textPath></text>
    <path
       style="opacity:0.6520004;fill:none;fill-opacity:1;stroke:#ff0000;stroke-width:1.81616175;stroke-linejoin:round;stroke-miterlimit:6.4000001;stroke-dasharray:none;stroke-dashoffset:0;stroke-opacity:1;paint-order:markers stroke fill"
       d="M -232.75793,458.40113 C -124.51941,368.93157 37.073489,349.79336 162.55913,413.42947 271.02626,466.1173 350.97003,574.79673 365.92392,694.81927 381.04263,803.72671 345.13229,919.13258 268.63398,998.48871 196.63306,1074.9839 90.927779,1119.0202 -14.232831,1113.958 -116.91204,1110.1351 -217.41106,1061.6332 -282.8604,982.16428 c -65.50278,-77.89071 -97.08689,-183.63275 -83.12433,-284.62814 12.04172,-92.68021 60.25722,-180.50021 133.2268,-239.13501 z"
       id="path4624"
       inkscape:connector-curvature="0" />
    <path
       style="opacity:0.6520004;fill:none;fill-opacity:1;stroke:#ff0000;stroke-width:2.4338305;stroke-linejoin:round;stroke-miterlimit:6.4000001;stroke-dasharray:none;stroke-dashoffset:0;stroke-opacity:1;paint-order:markers stroke fill"
       d="m -396.21705,544.74302 c -67.53517,131.66946 -62.98694,298.02663 13.48501,425.15775 65.21485,111.20803 180.42596,192.22343 308.049129,212.66983 115.20591,19.7334 238.184621,-7.6289 332.820841,-76.4633 C 352.82561,1038.5742 419.56848,933.08027 437.86728,817.92577 456.67943,705.64952 430.81109,586.23928 365.35078,492.87441 301.69936,400.5356 202.60369,333.64371 92.935539,310.88116 c -111.95257,-23.98428 -233.093009,-3.25725 -329.714969,58.65247 -67.6112,42.75279 -123.58988,103.78133 -159.43762,175.20939 z"
       id="path4646"
       inkscape:connector-curvature="0" />
    <text
       xml:space="preserve"
       style="font-style:normal;font-variant:normal;font-weight:bold;font-stretch:normal;font-size:40px;line-height:125%;font-family:Impact;-inkscape-font-specification:'Impact Bold';letter-spacing:0px;word-spacing:0px;fill:#000000;fill-opacity:1;stroke:none;stroke-width:1px;stroke-linecap:butt;stroke-linejoin:miter;stroke-opacity:1"
       id="text4664"><textPath
         xlink:href="#path4624"
         id="textPath4669"
         style="font-style:normal;font-variant:normal;font-weight:bold;font-stretch:normal;font-size:93.33333588px;font-family:Futura;-inkscape-font-specification:'Futura Bold';letter-spacing:3px;word-spacing:10px">BOSS GEE</textPath></text>
  </g>
  <g
     style="display:inline"
     inkscape:label="Rim Text as Paths"
     id="g4262"
     inkscape:groupmode="layer">
    <g
       aria-label="NOT EVERY MAN REALLY LIVES"
       style="font-style:normal;font-variant:normal;font-weight:bold;font-stretch:normal;font-size:40px;line-height:125%;font-family:Impact;-inkscape-font-specification:'Impact Bold';letter-spacing:0px;word-spacing:0px;fill:#000000;fill-opacity:1;stroke:none;stroke-width:1px;stroke-linecap:butt;stroke-linejoin:miter;stroke-opacity:1"
       id="text4252"
       transform="translate(-299.51953,378.66733)">
      <path
         d="m -100.72024,170.83997 -6.7155,17.01612 40.109412,15.82939 -0.06853,0.17363 -52.409732,15.33788 -6.7155,17.01612 65.459948,25.83411 6.715497,-17.01612 -40.022596,-15.79512 0.06853,-0.17364 52.322921,-15.37214 6.715497,-17.01612 z"
         style="font-style:normal;font-variant:normal;font-weight:bold;font-stretch:normal;font-size:93.33333588px;font-family:Futura;-inkscape-font-specification:'Futura Bold';letter-spacing:10px;word-spacing:20px"
         id="path4279"
         inkscape:connector-curvature="0" />
      <path
         d="m -66.382442,304.37657 q 1.234424,-7.45854 -0.277691,-14.89863 -1.435275,-7.33277 -5.416404,-13.57324 -3.889049,-6.22523 -10.000708,-10.45324 -6.034818,-4.12069 -13.677518,-5.3856 -8.287267,-1.37158 -15.849917,0.30946 -7.47057,1.69627 -13.48052,5.99936 -6.00995,4.3031 -10.03791,10.92088 -3.93589,6.63302 -5.29223,14.8282 -1.35635,8.19519 0.23261,15.7426 1.68104,7.56265 5.89205,13.55736 4.30309,6.00995 10.92087,10.03792 6.61778,4.02796 14.90505,5.39955 7.6427,1.2649 14.698581,-0.78382 7.132726,-1.9414 12.820072,-6.58169 5.779428,-4.62505 9.515913,-11.19647 3.813327,-6.4641 5.047752,-13.92264 z m -17.495338,-2.89556 q -0.655312,3.95947 -2.722956,7.30678 -2.067644,3.34731 -5.087859,5.59094 -3.035454,2.3357 -6.686278,3.24512 -3.573987,1.01674 -7.073047,0.43763 -4.41988,-0.73151 -7.93611,-2.92172 -3.53147,-2.09812 -5.92878,-5.33298 -2.41255,-3.14277 -3.38357,-6.993 -0.87894,-3.83498 -0.22363,-7.79445 0.65531,-3.95947 2.72296,-7.30679 2.15972,-3.33207 5.47142,-5.62205 3.29646,-2.19791 7.33084,-3.13845 4.01915,-0.84846 8.439025,-0.11695 3.499068,0.57911 6.570137,2.60104 3.055829,2.114 5.176895,5.30314 2.213147,3.20438 3.107326,6.94728 0.878939,3.83498 0.223627,7.79446 z"
         style="font-style:normal;font-variant:normal;font-weight:bold;font-stretch:normal;font-size:93.33333588px;font-family:Futura;-inkscape-font-specification:'Futura Bold';letter-spacing:10px;word-spacing:20px"
         id="path4281"
         inkscape:connector-curvature="0" />
      <path
         d="m -89.245049,377.34386 0.06711,15.11985 15.493181,-0.0688 -0.215413,-48.53285 -15.493182,0.0688 0.06711,15.11985 -54.879457,0.24359 0.0812,18.29315 z"
         style="font-style:normal;font-variant:normal;font-weight:bold;font-stretch:normal;font-size:93.33333588px;font-family:Futura;-inkscape-font-specification:'Futura Bold';letter-spacing:10px;word-spacing:20px"
         id="path4283"
         inkscape:connector-curvature="0" />
      <path
         d="m -68.786072,494.01869 14.901669,-4.24071 -10.959431,-38.51094 -67.685896,19.26203 10.95943,38.51094 14.90167,-4.24072 -5.95232,-20.91619 11.66998,-3.32104 5.645765,19.83897 14.901669,-4.24072 -5.645767,-19.83897 11.310906,-3.21885 z"
         style="font-style:normal;font-variant:normal;font-weight:bold;font-stretch:normal;font-size:93.33333588px;font-family:Futura;-inkscape-font-specification:'Futura Bold';letter-spacing:10px;word-spacing:20px"
         id="path4285"
         inkscape:connector-curvature="0" />
      <path
         d="m -45.887549,510.39 -8.544337,-17.95017 -50.825714,56.96072 6.097372,12.80952 76.45872,-3.11021 -8.544337,-17.95017 -45.937996,2.95035 z"
         style="font-style:normal;font-variant:normal;font-weight:bold;font-stretch:normal;font-size:93.33333588px;font-family:Futura;-inkscape-font-specification:'Futura Bold';letter-spacing:10px;word-spacing:20px"
         id="path4287"
         inkscape:connector-curvature="0" />
      <path
         d="m -9.722331,603.20747 12.7645713,-8.78118 -22.6935293,-32.98796 -57.978836,39.8856 22.693529,32.98796 12.764572,-8.78118 -12.325391,-17.91654 9.996351,-6.87683 11.690607,16.9938 12.764571,-8.78118 -11.690606,-16.99379 9.688771,-6.66524 z"
         style="font-style:normal;font-variant:normal;font-weight:bold;font-stretch:normal;font-size:93.33333588px;font-family:Futura;-inkscape-font-specification:'Futura Bold';letter-spacing:10px;word-spacing:20px"
         id="path4289"
         inkscape:connector-curvature="0" />
      <path
         d="m 4.1517867,657.98945 q 5.9305043,4.41983 12.6930563,3.5843 6.826359,-0.76741 12.343824,-5.9357 7.901554,-7.40149 7.258299,-16.00666 -0.643255,-8.60516 -8.172363,-16.64295 l -18.6951598,-19.95823 -51.3601052,48.10972 12.505977,13.35091 19.7538866,-18.50374 0.127612,0.13623 -7.9497756,31.10536 15.5686651,16.62051 z m 7.7161063,-32.03744 1.212314,1.29422 q 1.722762,1.83916 2.917833,3.66107 1.326993,1.82622 1.858139,3.7585 0.594951,2.0004 0.0026,3.962 -0.528548,2.02971 -2.503937,3.88009 -1.975388,1.85037 -4.03528,2.24528 -1.9960867,0.46303 -3.9533753,-0.26125 -1.8934826,-0.65616 -3.6972941,-2.03574 -1.6718887,-1.37527 -3.3946508,-3.21442 l -1.21231409,-1.29422 z"
         style="font-style:normal;font-variant:normal;font-weight:bold;font-stretch:normal;font-size:93.33333588px;font-family:Futura;-inkscape-font-specification:'Futura Bold';letter-spacing:10px;word-spacing:20px"
         id="path4291"
         inkscape:connector-curvature="0" />
      <path
         d="M 41.953927,685.46454 21.344171,712.23723 35.83988,723.39611 56.449637,696.62342 99.327626,683.45938 81.947566,670.08012 59.848259,677.21389 61.091494,654.025 43.711434,640.64574 Z"
         style="font-style:normal;font-variant:normal;font-weight:bold;font-stretch:normal;font-size:93.33333588px;font-family:Futura;-inkscape-font-specification:'Futura Bold';letter-spacing:10px;word-spacing:20px"
         id="path4293"
         inkscape:connector-curvature="0" />
      <path
         d="m 119.50454,774.81938 17.30078,5.65005 18.16448,-36.67991 0.17744,0.058 2.7739,43.51793 6.92031,2.26002 28.63367,-33.26091 0.17744,0.058 -7.69529,40.09893 17.3895,5.67903 11.73258,-70.19945 -17.30078,-5.65006 -26.04973,31.06105 -1.89768,-40.18806 -17.12333,-5.59211 z"
         style="font-style:normal;font-variant:normal;font-weight:bold;font-stretch:normal;font-size:93.33333588px;font-family:Futura;-inkscape-font-specification:'Futura Bold';letter-spacing:10px;word-spacing:20px"
         id="path4295"
         inkscape:connector-curvature="0" />
      <path
         d="m 265.44625,796.81039 3.25088,12.64273 19.39666,2.06872 -18.89394,-72.78755 -19.8607,-2.11822 -34.37726,67.10599 19.30385,2.05883 6.12263,-11.64301 z m -3.43404,-14.44565 -15.12754,-1.6134 9.89294,-21.47193 0.18561,0.0198 z"
         style="font-style:normal;font-variant:normal;font-weight:bold;font-stretch:normal;font-size:93.33333588px;font-family:Futura;-inkscape-font-specification:'Futura Bold';letter-spacing:10px;word-spacing:20px"
         id="path4297"
         inkscape:connector-curvature="0" />
      <path
         d="m 303.9904,811.49454 18.22037,-1.63225 -3.84746,-42.94801 0.18592,-0.0167 37.22048,39.95832 18.22037,-1.63226 -6.27919,-70.09264 -18.22037,1.63226 3.83913,42.85505 -0.18592,0.0167 -37.21215,-39.86535 -18.22037,1.63226 z"
         style="font-style:normal;font-variant:normal;font-weight:bold;font-stretch:normal;font-size:93.33333588px;font-family:Futura;-inkscape-font-specification:'Futura Bold';letter-spacing:10px;word-spacing:20px"
         id="path4299"
         inkscape:connector-curvature="0" />
      <path
         d="m 476.87975,741.93873 q 6.1416,-4.12147 7.60434,-10.77659 1.54821,-6.69262 -1.4892,-13.61561 -4.34986,-9.9144 -12.67855,-12.17169 -8.3287,-2.25729 -18.41405,2.16756 l -25.04242,10.98715 28.27409,64.44364 16.75192,-7.34977 -10.87464,-24.78601 0.17093,-0.075 26.68642,17.84874 20.85444,-9.1497 z m -27.64313,-17.93859 1.62391,-0.71248 q 2.30766,-1.01247 4.42344,-1.53306 2.16376,-0.64357 4.16266,-0.50135 2.08436,0.10471 3.737,1.31614 1.73811,1.17392 2.82557,3.65252 1.08746,2.4786 0.77431,4.5525 -0.22768,2.0364 -1.56207,3.64107 -1.24892,1.56716 -3.15019,2.80901 -1.85329,1.11888 -4.16095,2.13135 l -1.62391,0.71247 z"
         style="font-style:normal;font-variant:normal;font-weight:bold;font-stretch:normal;font-size:93.33333588px;font-family:Futura;-inkscape-font-specification:'Futura Bold';letter-spacing:10px;word-spacing:20px"
         id="path4301"
         inkscape:connector-curvature="0" />
      <path
         d="m 525.52381,683.66789 -8.37626,-13.03387 -33.6839,21.64708 38.04638,59.20202 33.68391,-21.64708 -8.37626,-13.03386 -18.29453,11.75704 -6.55972,-10.20725 17.35232,-11.15152 -8.37626,-13.03387 -17.35232,11.15152 -6.35788,-9.89317 z"
         style="font-style:normal;font-variant:normal;font-weight:bold;font-stretch:normal;font-size:93.33333588px;font-family:Futura;-inkscape-font-specification:'Futura Bold';letter-spacing:10px;word-spacing:20px"
         id="path4303"
         inkscape:connector-curvature="0" />
      <path
         d="m 596.67078,679.66477 11.5633,6.05779 14.53205,-13.01267 -66.69211,-34.74437 -14.87972,13.32398 26.78111,70.4825 14.46253,-12.95041 -4.54063,-12.34621 z m -13.0244,-7.12985 -11.33361,10.14863 -9.31073,-21.73071 0.13906,-0.12452 z"
         style="font-style:normal;font-variant:normal;font-weight:bold;font-stretch:normal;font-size:93.33333588px;font-family:Futura;-inkscape-font-specification:'Futura Bold';letter-spacing:10px;word-spacing:20px"
         id="path4305"
         inkscape:connector-curvature="0" />
      <path
         d="m 589.59271,601.55303 -11.56651,14.17257 54.52101,44.49568 25.43453,-31.16519 -12.0033,-9.79613 -13.86802,16.99262 z"
         style="font-style:normal;font-variant:normal;font-weight:bold;font-stretch:normal;font-size:93.33333588px;font-family:Futura;-inkscape-font-specification:'Futura Bold';letter-spacing:10px;word-spacing:20px"
         id="path4307"
         inkscape:connector-curvature="0" />
      <path
         d="m 617.2727,562.68387 -9.78522,15.45624 59.45922,37.64315 21.51751,-33.98796 -13.0905,-8.28749 -11.73228,18.53172 z"
         style="font-style:normal;font-variant:normal;font-weight:bold;font-stretch:normal;font-size:93.33333588px;font-family:Futura;-inkscape-font-specification:'Futura Bold';letter-spacing:10px;word-spacing:20px"
         id="path4309"
         inkscape:connector-curvature="0" />
      <path
         d="m 669.00986,544.85955 30.78132,13.93015 7.54229,-16.66613 -30.78132,-13.93015 -22.63452,-38.72327 -9.04305,19.98235 12.00558,19.87803 -22.85725,4.10079 -9.04305,19.98235 z"
         style="font-style:normal;font-variant:normal;font-weight:bold;font-stretch:normal;font-size:93.33333588px;font-family:Futura;-inkscape-font-specification:'Futura Bold';letter-spacing:10px;word-spacing:20px"
         id="path4311"
         inkscape:connector-curvature="0" />
      <path
         d="m 669.62576,416.8029 -2.49335,18.12261 69.7166,9.59178 5.48283,-39.85127 -15.34875,-2.11172 -2.98948,21.72865 z"
         style="font-style:normal;font-variant:normal;font-weight:bold;font-stretch:normal;font-size:93.33333588px;font-family:Futura;-inkscape-font-specification:'Futura Bold';letter-spacing:10px;word-spacing:20px"
         id="path4313"
         inkscape:connector-curvature="0" />
      <path
         d="m 673.11139,368.36727 -0.52294,18.28586 70.34457,2.01172 0.52294,-18.28586 z"
         style="font-style:normal;font-variant:normal;font-weight:bold;font-stretch:normal;font-size:93.33333588px;font-family:Futura;-inkscape-font-specification:'Futura Bold';letter-spacing:10px;word-spacing:20px"
         id="path4315"
         inkscape:connector-curvature="0" />
      <path
         d="m 672.65566,343.42095 2.11952,19.76669 66.81783,-36.92093 -1.51252,-14.10581 -73.17639,-22.37914 2.11952,19.76669 44.32402,12.42519 z"
         style="font-style:normal;font-variant:normal;font-weight:bold;font-stretch:normal;font-size:93.33333588px;font-family:Futura;-inkscape-font-specification:'Futura Bold';letter-spacing:10px;word-spacing:20px"
         id="path4317"
         inkscape:connector-curvature="0" />
      <path
         d="m 669.38022,243.83963 -14.95233,4.05848 10.4885,38.64186 67.91599,-18.43433 -10.4885,-38.64186 -14.95233,4.05849 5.69655,20.9873 -11.70965,3.17833 -5.40317,-19.90641 -14.95232,4.05849 5.40316,19.90641 -11.34935,3.08054 z"
         style="font-style:normal;font-variant:normal;font-weight:bold;font-stretch:normal;font-size:93.33333588px;font-family:Futura;-inkscape-font-specification:'Futura Bold';letter-spacing:10px;word-spacing:20px"
         id="path4319"
         inkscape:connector-curvature="0" />
      <path
         d="m 636.19775,193.69014 q -0.53231,5.32202 0.39844,11.43201 0.93076,6.10999 3.09254,11.07294 2.08723,4.79181 5.41652,8.22819 3.32928,3.43637 7.54312,5.164 4.12827,1.76491 8.85814,1.63892 4.64431,-0.0887 9.52169,-2.21323 4.53511,-1.97542 7.09375,-4.51517 2.47308,-2.50247 3.47207,-5.5845 0.87616,-3.13033 0.80686,-6.56145 -0.0693,-3.43113 -0.75017,-8.73373 0.011,-0.2084 -0.0525,-0.58795 -0.34385,-2.1917 -0.46407,-3.86999 -0.15749,-1.76386 0.0646,-3.59124 0.22206,-1.82738 1.04729,-3.20487 0.70239,-1.42578 2.32819,-2.13395 3.16602,-1.37907 5.921,0.2714 2.66941,1.68774 4.12302,5.0249 1.75179,4.0217 1.55755,8.48384 -0.19423,4.46214 -1.74653,9.31223 l 16.65062,1.29874 q 1.34652,-6.49111 0.78008,-13.167 -0.68927,-6.72418 -3.29831,-12.71395 -2.23633,-5.13409 -5.86379,-9.25501 -3.54189,-4.15819 -8.18777,-6.41026 -4.64588,-2.25206 -9.76632,-1.85414 -5.20601,0.43519 -10.51123,2.74606 -3.765,1.63997 -6.15251,4.10517 -2.42478,2.37964 -3.50934,5.49894 -1.12183,3.03373 -1.34651,6.4911 -0.22468,3.45738 0.31392,7.4985 l 0.58008,4.83749 v 0 q 0.34123,3.82169 -0.0478,6.43441 -0.389,2.61272 -2.87047,3.69361 -2.48148,1.08089 -4.90521,-0.51026 -2.461,-1.67672 -3.61644,-4.32933 -1.30452,-2.99488 -1.33654,-6.34044 -0.15487,-3.39385 0.76958,-6.64702 z"
         style="font-style:normal;font-variant:normal;font-weight:bold;font-stretch:normal;font-size:93.33333588px;font-family:Futura;-inkscape-font-specification:'Futura Bold';letter-spacing:10px;word-spacing:20px"
         id="path4321"
         inkscape:connector-curvature="0" />
    </g>
    <g
       aria-label="BOSS GEE"
       style="font-style:normal;font-variant:normal;font-weight:bold;font-stretch:normal;font-size:40px;line-height:125%;font-family:Impact;-inkscape-font-specification:'Impact Bold';letter-spacing:0px;word-spacing:0px;fill:#000000;fill-opacity:1;stroke:none;stroke-width:1px;stroke-linecap:butt;stroke-linejoin:miter;stroke-opacity:1"
       id="text4260"
       transform="translate(-299.51953,378.66733)">
      <path
         d="m 69.558832,40.836066 1.542336,-1.051495 q 3.084674,-2.102991 5.401669,-3.343734 2.264421,-1.317859 4.304473,-1.804995 2.040051,-0.487135 3.782107,0.245529 1.766599,0.602972 3.238692,2.762243 1.472093,2.159271 1.286229,4.206304 -0.161323,1.917341 -1.514412,3.743496 -1.328547,1.696462 -3.151318,3.165065 -1.745655,1.416028 -4.444744,3.256145 l -1.927921,1.314369 z m 24.57771,18.487527 q 4.241426,-2.891612 7.364708,-6.263486 3.20041,-3.424449 4.81648,-7.35021 1.61607,-3.925762 1.20965,-8.16708 -0.38188,-4.37101 -3.37864,-8.766669 -4.311134,-6.323581 -9.870311,-8.181581 -5.559178,-1.858001 -12.100039,1.471662 l -0.105149,-0.154233 q 2.236496,-4.00986 1.6513,-8.016337 Q 83.216461,9.836607 80.377424,5.672298 74.962224,-2.2707357 67.993891,-2.716199 61.050101,-3.2913538 52.7986,2.3341459 L 31.205887,17.05508 70.847259,75.201171 Z M 54.207001,18.317951 55.286636,17.581904 q 1.927921,-1.314369 3.421174,-2.106481 1.570369,-0.844687 3.172262,-1.146065 1.679009,-0.353953 3.161682,0.329626 1.55979,0.631005 2.874159,2.558926 1.20922,1.773687 1.30379,3.403612 0.119112,1.500234 -0.69416,2.958365 -0.736154,1.405556 -1.966533,2.583252 -1.282953,1.10058 -2.979524,2.257225 l -1.69657,1.156644 z"
         style="font-style:normal;font-variant:normal;font-weight:bold;font-stretch:normal;font-size:93.33333588px;font-family:Futura;-inkscape-font-specification:'Futura Bold';letter-spacing:3px;word-spacing:10px"
         id="path4264"
         inkscape:connector-curvature="0" />
      <path
         d="m 131.49888,-42.297033 q -7.00367,2.846461 -12.5559,8.024698 -5.50091,5.056631 -8.73984,11.712621 -3.27407,6.569526 -3.68369,13.9898127 -0.3583,7.2986805 2.55844,14.4752711 3.16274,7.7818452 8.54905,13.3502592 5.35116,5.48195 12.16112,8.356063 6.80996,2.874113 14.55715,2.848631 7.71205,-0.111946 15.40743,-3.239539 7.69538,-3.127594 13.29893,-8.427437 5.56842,-5.386309 8.47767,-12.1098043 2.87412,-6.80996073 2.84863,-14.5571479 -0.0255,-7.7471868 -3.18821,-15.5290328 -2.91675,-7.17659 -8.3516,-12.12079 -5.38353,-5.065807 -12.31232,-7.488636 -6.96393,-2.509294 -14.51923,-2.259559 -7.50397,0.128129 -14.50763,2.97459 z m 6.67688,16.42834 q 3.71799,-1.511085 7.65239,-1.498164 3.9344,0.01292 7.42584,1.414836 3.57791,1.366774 6.26159,4.003713 2.73499,2.515333 4.07037,5.801 1.68679,4.150318 1.65769,8.2927861 0.0574,4.1073267 -1.4472,7.8419849 -1.4181,3.6995167 -4.19282,6.5399391 -2.80987,2.7539575 -6.52787,4.2650419 -3.71799,1.511084 -7.65239,1.498163 -3.96953,-0.09938 -7.65287,-1.725554 -3.59687,-1.6613098 -6.50757,-4.6089671 -2.82424,-2.9827989 -4.51104,-7.1331163 -1.33537,-3.2856679 -1.21703,-6.9606699 0.20481,-3.7101437 1.8148,-7.1854067 1.57484,-3.561728 4.29825,-6.280544 2.80987,-2.753958 6.52786,-4.265042 z"
         style="font-style:normal;font-variant:normal;font-weight:bold;font-stretch:normal;font-size:93.33333588px;font-family:Futura;-inkscape-font-specification:'Futura Bold';letter-spacing:3px;word-spacing:10px"
         id="path4266"
         inkscape:connector-curvature="0" />
      <path
         d="m 239.01572,-65.336149 q -5.07869,-1.677562 -11.24481,-2.098571 -6.16611,-0.42101 -11.48053,0.609094 -5.13117,0.994583 -9.20962,3.496385 -4.07846,2.501802 -6.68158,6.238767 -2.62089,3.645336 -3.52708,8.289297 -0.92395,4.552333 0.0884,9.775125 0.94131,4.856281 2.86347,7.906241 1.90441,2.958333 4.69522,4.604005 2.86469,1.536284 6.22868,2.215221 3.364,0.678937 8.6877,1.168162 0.20102,0.05611 0.58529,0.07669 2.214,0.141278 3.87824,0.389119 1.75587,0.23008 3.49115,0.844433 1.73527,0.614352 2.9002,1.719539 1.23879,0.995799 1.57624,2.73673 0.65713,3.390234 -1.55324,5.720084 -2.22813,2.2382222 -5.80162,2.9308779 -4.30652,0.8347391 -8.61949,-0.3257503 -4.31297,-1.1604896 -8.70909,-3.7309186 l -4.8906,15.9690887 q 6.0426,2.7266421 12.68179,3.6263772 6.71305,0.7903468 13.12701,-0.4528816 5.49768,-1.0656243 10.30915,-3.7095099 4.82924,-2.55225765 8.03824,-6.5968005 3.209,-4.0445429 3.93476,-9.1288829 0.708,-5.175968 -0.39314,-10.856901 -0.78146,-4.031629 -2.66811,-6.898334 -1.79501,-2.884464 -4.60359,-4.621764 -2.71695,-1.755061 -6.0426,-2.726642 -3.32565,-0.971582 -7.38714,-1.32518 l -4.84781,-0.486399 v 0 q -3.80437,-0.498508 -6.26985,-1.446677 -2.46548,-0.948169 -2.98053,-3.60538 -0.51505,-2.65721 1.56535,-4.676656 2.17203,-2.037205 5.01249,-2.587778 3.20698,-0.621614 6.47935,0.07508 3.34624,0.587309 6.32031,2.19746 z"
         style="font-style:normal;font-variant:normal;font-weight:bold;font-stretch:normal;font-size:93.33333588px;font-family:Futura;-inkscape-font-specification:'Futura Bold';letter-spacing:3px;word-spacing:10px"
         id="path4268"
         inkscape:connector-curvature="0" />
      <path
         d="m 309.93717,-69.640962 q -4.75003,-2.458545 -10.77229,-3.848033 -6.02225,-1.389488 -11.43266,-1.211571 -5.22385,0.171781 -9.64621,1.998115 -4.42236,1.826334 -7.58297,5.105316 -3.16367,3.1857 -4.79188,7.62828 -1.63126,4.349297 -1.45642,9.666423 0.16258,4.943994 1.57898,8.259234 1.41332,3.221956 3.90923,5.287707 2.58612,1.969401 5.80069,3.171066 3.21456,1.201665 8.3942,2.525478 0.18964,0.08715 0.56583,0.16816 2.16392,0.489145 3.76813,0.996694 1.6975,0.504482 3.31398,1.385163 1.61649,0.880682 2.59226,2.155967 1.06599,1.178935 1.12428,2.951311 0.11349,3.451467 -2.43708,5.403016 -2.55364,1.858266 -6.19167,1.9779 -4.3843,0.144174 -8.45988,-1.682864 -4.07558,-1.827037 -8.01061,-5.059454 l -7.3511,14.9963729 q 5.53618,3.6466829 11.94997,5.5835981 6.50401,1.84056472 13.03381,1.62583786 5.59698,-0.18405159 10.7656,-2.03492556 5.1717,-1.757591 8.97915,-5.2446119 3.80745,-3.4870214 5.32703,-8.3929484 1.51652,-4.999209 1.32633,-10.78275 -0.13497,-4.104448 -1.54523,-7.233122 -1.31697,-3.131741 -3.81595,-5.290775 -2.40569,-2.162102 -5.53618,-3.646683 -3.13048,-1.484581 -7.08517,-2.47514 l -4.71016,-1.245868 v 0 q -3.67791,-1.093044 -5.96272,-2.418667 -2.2848,-1.325623 -2.37376,-4.030828 -0.089,-2.705204 2.28425,-4.370769 2.46649,-1.668633 5.35826,-1.763726 3.26491,-0.107364 6.38619,1.097369 3.21149,1.108382 5.89397,3.167998 z"
         style="font-style:normal;font-variant:normal;font-weight:bold;font-stretch:normal;font-size:93.33333588px;font-family:Futura;-inkscape-font-specification:'Futura Bold';letter-spacing:3px;word-spacing:10px"
         id="path4270"
         inkscape:connector-curvature="0" />
      <path
         d="m 415.24843,-25.825059 -4.03439,13.795524 14.33301,4.1915681 q -2.18791,5.4864394 -6.93062,7.40572032 -4.7427,1.91928088 -10.65507,0.190259 -4.21032,-1.23127322 -7.11666,-3.92881572 -2.79057,-2.7609266 -4.22897,-6.4878217 -1.34883,-3.700697 -1.4131,-7.803677 -0.0381,-4.192562 1.11461,-8.13414 1.15268,-3.941578 3.41752,-7.363429 2.29105,-3.511432 5.42129,-5.902264 3.15644,-2.480414 6.99489,-3.30274 3.83846,-0.822326 7.9592,0.38275 5.19571,1.519443 8.11981,5.486332 2.92411,3.966889 3.33827,9.533586 l 18.70551,-2.114645 q -1.54919,-10.663509 -7.9543,-17.690484 -6.40512,-7.026975 -16.97572,-10.118257 -8.06232,-2.357757 -15.63022,-1.750894 -7.45212,0.54348 -13.79375,3.940019 -6.25204,3.422737 -10.90428,9.355417 -4.56266,5.958878 -6.94661,14.110778 -2.30537,7.883156 -1.64611,15.271896 0.68546,7.2991577 4.13439,13.4616219 3.44894,6.1624643 9.31823,10.6989229 5.8955,4.4468772 13.77865,6.7522402 8.68939,2.541138 16.799,1.411995 8.1358,-1.218725 14.93799,-6.5226699 5.79737,-4.5281286 8.83293,-10.2528962 3.12513,-5.6985702 5.87163,-14.4251449 z"
         style="font-style:normal;font-variant:normal;font-weight:bold;font-stretch:normal;font-size:93.33333588px;font-family:Futura;-inkscape-font-specification:'Futura Bold';letter-spacing:3px;word-spacing:10px"
         id="path4272"
         inkscape:connector-curvature="0" />
      <path
         d="m 509.75631,-2.5667656 7.05701,-13.7928254 -35.64531,-18.237688 -32.05412,62.64934 35.64531,18.237688 7.05701,-13.792825 -19.35981,-9.905318 5.52657,-10.80161 18.36274,9.395172 7.05701,-13.7928255 -18.36274,-9.3951725 5.35652,-10.469253 z"
         style="font-style:normal;font-variant:normal;font-weight:bold;font-stretch:normal;font-size:93.33333588px;font-family:Futura;-inkscape-font-specification:'Futura Bold';letter-spacing:3px;word-spacing:10px"
         id="path4274"
         inkscape:connector-curvature="0" />
      <path
         d="m 561.51287,32.192014 8.98725,-12.620332 -32.6152,-23.2260763 -40.82159,57.3236793 32.6152,23.226076 8.98725,-12.620332 -17.71409,-12.614629 7.03821,-9.883393 16.80177,11.964948 8.98724,-12.620332 -16.80176,-11.964949 6.82164,-9.579288 z"
         style="font-style:normal;font-variant:normal;font-weight:bold;font-stretch:normal;font-size:93.33333588px;font-family:Futura;-inkscape-font-specification:'Futura Bold';letter-spacing:3px;word-spacing:10px"
         id="path4276"
         inkscape:connector-curvature="0" />
    </g>
  </g>
  <g
     inkscape:groupmode="layer"
     id="layer10"
     inkscape:label="Sprue Template"
     style="display:none">
    <circle
       style="display:inline;opacity:1;fill:#0000e0;fill-opacity:1;stroke:none;stroke-width:46.21465683;stroke-linejoin:round;stroke-miterlimit:6.4000001;stroke-dasharray:none;stroke-dashoffset:0;stroke-opacity:1;paint-order:markers stroke fill"
       id="path5763"
       cx="0"
       cy="745"
       r="6.0900416" />
  </g>
  <g
     style="display:inline"
     inkscape:label="Sprue Template Outer"
     id="g6452"
     inkscape:groupmode="layer">
    <circle
       r="6.0900416"
       cy="745"
       cx="-462.13651"
       id="circle6450"
       style="display:inline;opacity:1;fill:#0000e0;fill-opacity:1;stroke:none;stroke-width:46.21465683;stroke-linejoin:round;stroke-miterlimit:6.4000001;stroke-dasharray:none;stroke-dashoffset:0;stroke-opacity:1;paint-order:markers stroke fill" />
  </g>
  <g
     inkscape:groupmode="layer"
     id="g7468"
     inkscape:label="Sprue Template Outer Larger"
     style="display:inline;opacity:0.48300003">
    <path
       style="display:inline;opacity:1;fill:#0000e0;fill-opacity:1;stroke:none;stroke-width:46.21465683;stroke-linejoin:round;stroke-miterlimit:6.4000001;stroke-dasharray:none;stroke-dashoffset:0;stroke-opacity:1;paint-order:markers stroke fill"
       d="m -462.87109,722.81055 c -19.73585,-0.88605 -28.61691,28.98768 -12.92774,40.03906 13.19225,11.43002 35.24081,-0.6272 35.9336,-17.125 1.07216,-12.48834 -10.90125,-23.26017 -23.00586,-22.91406 z"
       id="circle7466"
       inkscape:connector-curvature="0" />
  </g>
  <g
     inkscape:groupmode="layer"
     id="g6456"
     inkscape:label="Sprue Template Inner"
     style="display:inline">
    <circle
       style="display:inline;opacity:1;fill:#0000e0;fill-opacity:1;stroke:none;stroke-width:45.62179947;stroke-linejoin:round;stroke-miterlimit:6.4000001;stroke-dasharray:none;stroke-dashoffset:0;stroke-opacity:1;paint-order:markers stroke fill"
       id="circle6454"
       cx="-351.15009"
       cy="745"
       r="6.0119166" />
  </g>
  <g
     style="display:inline;opacity:0.612"
     inkscape:label="Sprue Template Inner Larger"
     id="g7478"
     inkscape:groupmode="layer">
    <path
       style="display:inline;opacity:1;fill:#0000e0;fill-opacity:1;stroke:none;stroke-width:45.62179947;stroke-linejoin:round;stroke-miterlimit:6.4000001;stroke-dasharray:none;stroke-dashoffset:0;stroke-opacity:1;paint-order:markers stroke fill"
       d="m -352.35742,722.9082 c -19.39226,-0.42606 -27.87176,28.95802 -12.42969,39.85938 13.40959,11.6447 35.96901,-1.10592 35.87891,-17.96875 0.38698,-12.26907 -11.52581,-22.49945 -23.44922,-21.89063 z"
       id="circle7476"
       inkscape:connector-curvature="0" />
  </g>
  <g
     style="display:inline"
     inkscape:label="Sprue Template Cheek"
     id="g6460"
     inkscape:groupmode="layer">
    <circle
       r="5.9181666"
       cy="745"
       cx="-209.93495"
       id="circle6458"
       style="display:inline;opacity:1;fill:#0000e0;fill-opacity:1;stroke:none;stroke-width:44.91037369;stroke-linejoin:round;stroke-miterlimit:6.4000001;stroke-dasharray:none;stroke-dashoffset:0;stroke-opacity:1;paint-order:markers stroke fill" />
  </g>
  <g
     inkscape:groupmode="layer"
     id="g7488"
     inkscape:label="Sprue Template Cheek Larger"
     style="display:inline;opacity:0.478">
    <path
       style="display:inline;opacity:1;fill:#0000e0;fill-opacity:1;stroke:none;stroke-width:44.91037369;stroke-linejoin:round;stroke-miterlimit:6.4000001;stroke-dasharray:none;stroke-dashoffset:0;stroke-opacity:1;paint-order:markers stroke fill"
       d="m -211.17383,723.00781 c -19.32936,-0.42367 -27.63472,28.83329 -12.31836,39.68946 13.30041,11.58451 35.70521,-1.01324 35.67578,-17.76368 0.52897,-12.3093 -11.41123,-22.56914 -23.35742,-21.92578 z"
       id="circle7486"
       inkscape:connector-curvature="0" />
  </g>
</svg>
