<?xml version="1.0" encoding="UTF-8" standalone="no"?>
<svg
   xmlns:dc="http://purl.org/dc/elements/1.1/"
   xmlns:cc="http://creativecommons.org/ns#"
   xmlns:rdf="http://www.w3.org/1999/02/22-rdf-syntax-ns#"
   xmlns:svg="http://www.w3.org/2000/svg"
   xmlns="http://www.w3.org/2000/svg"
   viewBox="0 0 570 745"
   height="745"
   width="570"
   id="svg885"
   version="1.1">
  <metadata
     id="metadata891">
    <rdf:RDF>
      <cc:Work
         rdf:about="">
        <dc:format>image/svg+xml</dc:format>
        <dc:type
           rdf:resource="http://purl.org/dc/dcmitype/StillImage" />
        <dc:title></dc:title>
      </cc:Work>
    </rdf:RDF>
  </metadata>
  <defs
     id="defs889" />
  <g
     id="g2794"
     style="display:inline">
    <g
       id="text2784"
       style="font-style:normal;font-variant:normal;font-weight:bold;font-stretch:normal;font-size:62.01516724px;line-height:125%;font-family:Impact;-inkscape-font-specification:'Impact Bold';letter-spacing:0px;word-spacing:0px;display:inline;opacity:0.36199999;fill:#000000;fill-opacity:1;stroke:none;stroke-width:1.5503794px;stroke-linecap:butt;stroke-linejoin:miter;stroke-opacity:1"
       aria-label="MAN">
      <path
         id="path2805"
         style="font-style:normal;font-variant:normal;font-weight:800;font-stretch:normal;font-size:66.66666412px;font-family:Overpass;-inkscape-font-specification:'Overpass Ultra-Bold';text-align:center;letter-spacing:7px;text-anchor:middle;stroke-width:1.5503794px"
         d="m -54.912943,560.57307 -11.699999,-24.83333 q -0.133334,-0.3 -0.3,-0.73333 -0.166667,-0.43334 -0.333334,-0.9 0.03333,0.4 0.03333,0.9 0.03333,0.46666 0.03333,0.8 v 23.96666 h -9.6 v -46.66666 h 9.666667 l 11.266666,24.83333 q 0.366667,0.73333 0.633333,1.43333 0.266667,0.66667 0.5,1.43334 0.266667,-0.76667 0.533334,-1.46667 0.266666,-0.73333 0.566666,-1.4 l 11.566666,-24.83333 h 8.933333 v 46.66666 h -9.566666 v -24.03333 q 0,-0.4 0,-0.86667 0,-0.5 0.03333,-0.8 -0.166666,0.4 -0.366666,0.83334 -0.166667,0.43333 -0.333333,0.76666 z" />
      <path
         id="path2807"
         style="font-style:normal;font-variant:normal;font-weight:800;font-stretch:normal;font-size:66.66666412px;font-family:Overpass;-inkscape-font-specification:'Overpass Ultra-Bold';text-align:center;letter-spacing:7px;text-anchor:middle;stroke-width:1.5503794px"
         d="m -19.813032,559.77307 18.1999998,-46.66666 h 9.133333 L 25.753633,559.77307 H 15.3203 L 11.753634,550.4064 H -5.8796987 l -3.4999999,9.36667 z m 17.1333332,-18.2 H 8.5203008 l -4.2333332,-10.9 q -0.2,-0.5 -0.4666667,-1.13333 -0.2666666,-0.66667 -0.4999999,-1.33333 -0.2333334,-0.66667 -0.4,-1.2 -0.1666667,0.53333 -0.4,1.2 -0.2333333,0.66666 -0.5,1.33333 -0.2666667,0.63333 -0.4666666,1.13333 z" />
      <path
         id="path2809"
         style="font-style:normal;font-variant:normal;font-weight:800;font-stretch:normal;font-size:66.66666412px;font-family:Overpass;-inkscape-font-specification:'Overpass Ultra-Bold';text-align:center;letter-spacing:7px;text-anchor:middle;stroke-width:1.5503794px"
         d="m 39.053605,559.77307 v -46.66666 h 8.8 l 17.633333,25.56666 q 0.333333,0.53334 0.966666,1.6 0.633334,1.06667 0.966667,1.86667 -0.1,-0.7 -0.166667,-1.8 -0.03333,-1.13333 -0.03333,-1.7 v -25.53333 h 9.533333 v 46.66666 H 68.320271 L 50.320272,534.00641 q -0.366667,-0.53334 -1,-1.63334 -0.6,-1.1 -0.966667,-1.9 0.133333,0.86667 0.133333,1.86667 0.03333,0.96667 0.03333,1.66667 v 25.76666 z" />
    </g>
    <g
       id="text2788"
       style="font-style:normal;font-variant:normal;font-weight:bold;font-stretch:normal;font-size:84.44282532px;line-height:125%;font-family:Impact;-inkscape-font-specification:'Impact Bold';letter-spacing:0px;word-spacing:0px;display:inline;opacity:0.36199999;fill:#000000;fill-opacity:1;stroke:none;stroke-width:2.11107063px;stroke-linecap:butt;stroke-linejoin:miter;stroke-opacity:1"
       aria-label="DIES">
      <path
         id="path2796"
         style="font-style:normal;font-variant:normal;font-weight:800;font-stretch:normal;font-size:86.66666412px;font-family:Overpass;-inkscape-font-specification:'Overpass Ultra-Bold';letter-spacing:7px;stroke-width:2.11107063px"
         d="m -102.8128,645.65808 v -60.66666 h 21.753333 q 7.93,0 13.519999,2.55666 5.59,2.55667 9.1,6.93334 3.51,4.33333 5.113333,9.75 1.603334,5.41666 1.603334,11.09333 0,5.15667 -1.56,10.48666 -1.516667,5.33 -4.983334,9.83667 -3.423333,4.50667 -9.099999,7.28 -5.676667,2.73 -14.04,2.73 z m 12.48,-11.87333 h 10.139999 q 4.29,0 7.236667,-1.64667 2.99,-1.64667 4.81,-4.37667 1.82,-2.73 2.643333,-5.97999 0.866667,-3.25 0.866667,-6.45667 0,-3.38 -0.866667,-6.67333 -0.866667,-3.29334 -2.643333,-5.98 -1.733334,-2.68667 -4.506667,-4.29 -2.773333,-1.60334 -6.586666,-1.60334 H -90.3328 Z" />
      <path
         id="path2798"
         style="font-style:normal;font-variant:normal;font-weight:800;font-stretch:normal;font-size:86.66666412px;font-family:Overpass;-inkscape-font-specification:'Overpass Ultra-Bold';letter-spacing:7px;stroke-width:2.11107063px"
         d="m -33.759669,645.65808 v -60.66666 h 12.48 v 60.66666 z" />
      <path
         id="path2800"
         style="font-style:normal;font-variant:normal;font-weight:800;font-stretch:normal;font-size:86.66666412px;font-family:Overpass;-inkscape-font-specification:'Overpass Ultra-Bold';letter-spacing:7px;stroke-width:2.11107063px"
         d="M -0.88982625,645.65808 V 584.99142 H 41.750173 v 11.83 h -30.16 v 11.61333 h 17.203333 v 11.83 H 11.590173 v 13.47666 h 31.936666 v 11.91667 z" />
      <path
         id="path2802"
         style="font-style:normal;font-variant:normal;font-weight:800;font-stretch:normal;font-size:86.66666412px;font-family:Overpass;-inkscape-font-specification:'Overpass Ultra-Bold';letter-spacing:7px;stroke-width:2.11107063px"
         d="m 80.513458,646.69808 q -5.806667,0 -10.573333,-2.08 -4.766667,-2.08 -8.19,-5.93667 -3.38,-3.85666 -5.156667,-9.18666 l 11.18,-4.20334 q 1.993333,4.24667 5.416667,6.97667 3.423333,2.68667 7.626666,2.68667 4.333333,0 6.933333,-1.73334 2.6,-1.73333 2.6,-5.02666 0,-2.25334 -1.516667,-3.72667 -1.516666,-1.47333 -4.159999,-2.55666 -2.643334,-1.12667 -6.066667,-2.25334 -3.38,-1.12666 -6.846666,-2.47 -3.466667,-1.38666 -6.37,-3.42333 -2.903333,-2.03667 -4.68,-5.15667 -1.733333,-3.16333 -1.733333,-7.8 0,-4.59333 2.426666,-8.40666 2.47,-3.85667 7.106667,-6.15334 4.68,-2.29666 11.309999,-2.29666 5.46,0 9.706667,1.95 4.246666,1.90666 7.02,5.2 2.773333,3.29333 3.899999,7.41 l -11.093333,3.68333 q -1.256666,-2.77333 -3.639999,-4.63667 -2.34,-1.86333 -6.543334,-1.86333 -3.726666,0 -5.763333,1.38667 -1.993333,1.34333 -1.993333,3.94333 0,1.69 1.343333,2.90333 1.386667,1.17 3.77,2.12334 2.426667,0.95333 5.546667,2.03666 3.726666,1.25667 7.409999,2.77334 3.683334,1.51666 6.673334,3.72666 3.033333,2.21 4.809999,5.50334 1.82,3.29333 1.82,8.14666 0,5.85 -2.946666,9.96667 -2.946667,4.11666 -8.016667,6.32666 -5.026666,2.16667 -11.309999,2.16667 z" />
    </g>
    <g
       id="text2792"
       style="font-style:normal;font-variant:normal;font-weight:bold;font-stretch:normal;font-size:62.01516724px;line-height:125%;font-family:Impact;-inkscape-font-specification:'Impact Bold';letter-spacing:0px;word-spacing:0px;display:inline;opacity:0.36199999;fill:#000000;fill-opacity:1;stroke:none;stroke-width:1.5503794px;stroke-linecap:butt;stroke-linejoin:miter;stroke-opacity:1"
       aria-label="EVERY">
      <path
         id="path2812"
         style="font-style:normal;font-variant:normal;font-weight:800;font-stretch:normal;font-size:66.66666412px;font-family:Overpass;-inkscape-font-specification:'Overpass Ultra-Bold';text-align:center;letter-spacing:7px;text-anchor:middle;stroke-width:1.5503794px"
         d="m -119.91288,489.72809 v -46.66667 h 32.799999 v 9.1 h -23.199999 v 8.93334 h 13.233333 v 9.1 h -13.233333 v 10.36666 h 24.566666 v 9.16667 z" />
      <path
         id="path2814"
         style="font-style:normal;font-variant:normal;font-weight:800;font-stretch:normal;font-size:66.66666412px;font-family:Overpass;-inkscape-font-specification:'Overpass Ultra-Bold';text-align:center;letter-spacing:7px;text-anchor:middle;stroke-width:1.5503794px"
         d="m -58.346323,489.72809 -16.733332,-46.66667 h 10.366666 l 10.233333,29.93334 q 0.2,0.63333 0.4,1.23333 0.2,0.6 0.3,1 0.06667,-0.33333 0.233333,-0.93333 0.166667,-0.6 0.4,-1.3 l 10.2,-29.93334 h 10.266666 l -16.666666,46.66667 z" />
      <path
         id="path2816"
         style="font-style:normal;font-variant:normal;font-weight:800;font-stretch:normal;font-size:66.66666412px;font-family:Overpass;-inkscape-font-specification:'Overpass Ultra-Bold';text-align:center;letter-spacing:7px;text-anchor:middle;stroke-width:1.5503794px"
         d="m -20.413055,489.72809 v -46.66667 h 32.799999 v 9.1 h -23.199999 v 8.93334 H 2.4202775 v 9.1 H -10.813055 v 10.36666 H 13.75361 v 9.16667 z" />
      <path
         id="path2818"
         style="font-style:normal;font-variant:normal;font-weight:800;font-stretch:normal;font-size:66.66666412px;font-family:Overpass;-inkscape-font-specification:'Overpass Ultra-Bold';text-align:center;letter-spacing:7px;text-anchor:middle;stroke-width:1.5503794px"
         d="m 28.586892,489.72809 v -46.66667 h 22.199999 q 5.866666,0 9.299999,2.06667 3.466667,2.03333 4.933334,5.43333 1.5,3.36667 1.5,7.3 0,2.63334 -1,5.33334 -0.966667,2.7 -2.933334,4.93333 -1.966666,2.2 -4.866666,3.26667 l 8.933333,18.33333 H 55.920224 l -8.6,-16.9 h -9.133333 v 16.9 z m 9.599999,-25.93333 h 12.733333 q 2.133333,0 3.366667,-0.83334 1.266666,-0.83333 1.766666,-2.16666 0.533334,-1.36667 0.533334,-2.9 0,-1.4 -0.5,-2.73334 -0.466667,-1.33333 -1.733334,-2.2 -1.233333,-0.86666 -3.433333,-0.86666 H 38.186891 Z" />
      <path
         id="path2820"
         style="font-style:normal;font-variant:normal;font-weight:800;font-stretch:normal;font-size:66.66666412px;font-family:Overpass;-inkscape-font-specification:'Overpass Ultra-Bold';text-align:center;letter-spacing:7px;text-anchor:middle;stroke-width:1.5503794px"
         d="m 92.920209,489.72809 v -18.16667 l -17.533332,-28.5 h 10.799999 l 11.466666,18.4 11.433338,-18.4 h 10.79999 l -17.49999,28.46667 v 18.2 z" />
    </g>
  </g>
</svg>
