  0
SECTION
  2
HEADER
  9
$ACADVER
  1
AC1014
  9
$HANDSEED
  5
FFFF
  9
$MEASUREMENT
 70
     1
  0
ENDSEC
  0
SECTION
  2
TABLES
  0
TABLE
  2
VPORT
  5
8
330
0
100
AcDbSymbolTable
 70
     4
  0
VPORT
  5
2E
330
8
100
AcDbSymbolTableRecord
100
AcDbViewportTableRecord
  2
*ACTIVE
 70
     0
 10
0.0
 20
0.0
 11
1.0
 21
1.0
 12
210.0
 22
148.5
 13
0.0
 23
0.0
 14
10.0
 24
10.0
 15
10.0
 25
10.0
 16
0.0
 26
0.0
 36
1.0
 17
0.0
 27
0.0
 37
0.0
 40
341.0
 41
1.24
 42
50.0
 43
0.0
 44
0.0
 50
0.0
 51
0.0
 71
     0
 72
   100
 73
     1
 74
     3
 75
     0
 76
     0
 77
     0
 78
     0
  0
ENDTAB
  0
TABLE
  2
LTYPE
  5
5
330
0
100
AcDbSymbolTable
 70
     1
  0
LTYPE
  5
14
330
5
100
AcDbSymbolTableRecord
100
AcDbLinetypeTableRecord
  2
BYBLOCK
 70
     0
  3

 72
    65
 73
     0
 40
0.0
  0
LTYPE
  5
15
330
5
100
AcDbSymbolTableRecord
100
AcDbLinetypeTableRecord
  2
BYLAYER
 70
     0
  3

 72
    65
 73
     0
 40
0.0
  0
LTYPE
  5
16
330
5
100
AcDbSymbolTableRecord
100
AcDbLinetypeTableRecord
  2
CONTINUOUS
 70
     0
  3
Solid line
 72
    65
 73
     0
 40
0.0
  0
ENDTAB
  0
TABLE
  2
LAYER
  5
2
100
AcDbSymbolTable
 70
5
  0
LAYER
  5
50
100
AcDbSymbolTableRecord
100
AcDbLayerTableRecord
  2
0
 70
0
  6
CONTINUOUS
  0
LAYER
  5
51
100
AcDbSymbolTableRecord
100
AcDbLayerTableRecord
  2
Layer_1
 70
0
  6
CONTINUOUS
  0
LAYER
  5
52
100
AcDbSymbolTableRecord
100
AcDbLayerTableRecord
  2
Vector_Middle
 70
0
  6
CONTINUOUS
  0
LAYER
  5
53
100
AcDbSymbolTableRecord
100
AcDbLayerTableRecord
  2
Vector_Thicker
 70
0
  6
CONTINUOUS
  0
LAYER
  5
54
100
AcDbSymbolTableRecord
100
AcDbLayerTableRecord
  2
Vector
 70
0
  6
CONTINUOUS
  0
ENDTAB
  0
TABLE
  2
STYLE
  5
3
330
0
100
AcDbSymbolTable
 70
     1
  0
STYLE
  5
11
330
3
100
AcDbSymbolTableRecord
100
AcDbTextStyleTableRecord
  2
STANDARD
 70
     0
 40
0.0
 41
1.0
 50
0.0
 71
     0
 42
2.5
  3
txt
  4

  0
ENDTAB
  0
TABLE
  2
VIEW
  5
6
330
0
100
AcDbSymbolTable
 70
     0
  0
ENDTAB
  0
TABLE
  2
UCS
  5
7
330
0
100
AcDbSymbolTable
 70
     0
  0
ENDTAB
  0
TABLE
  2
APPID
  5
9
330
0
100
AcDbSymbolTable
 70
     2
  0
APPID
  5
12
330
9
100
AcDbSymbolTableRecord
100
AcDbRegAppTableRecord
  2
ACAD
 70
     0
  0
ENDTAB
  0
TABLE
  2
DIMSTYLE
  5
A
330
0
100
AcDbSymbolTable
 70
     1
  0
DIMSTYLE
105
27
330
A
100
AcDbSymbolTableRecord
100
AcDbDimStyleTableRecord
  2
ISO-25
 70
     0
  3

  4

  5

  6

  7

 40
1.0
 41
2.5
 42
0.625
 43
3.75
 44
1.25
 45
0.0
 46
0.0
 47
0.0
 48
0.0
140
2.5
141
2.5
142
0.0
143
0.03937007874016
144
1.0
145
0.0
146
1.0
147
0.625
 71
     0
 72
     0
 73
     0
 74
     0
 75
     0
 76
     0
 77
     1
 78
     8
170
     0
171
     3
172
     1
173
     0
174
     0
175
     0
176
     0
177
     0
178
     0
270
     2
271
     2
272
     2
273
     2
274
     3
340
11
275
     0
280
     0
281
     0
282
     0
283
     0
284
     8
285
     0
286
     0
287
     3
288
     0
  0
ENDTAB
  0
TABLE
  2
BLOCK_RECORD
  5
1
330
0
100
AcDbSymbolTable
 70
     1
  0
BLOCK_RECORD
  5
1F
330
1
100
AcDbSymbolTableRecord
100
AcDbBlockTableRecord
  2
*MODEL_SPACE
  0
BLOCK_RECORD
  5
1B
330
1
100
AcDbSymbolTableRecord
100
AcDbBlockTableRecord
  2
*PAPER_SPACE
  0
ENDTAB
  0
ENDSEC
  0
SECTION
  2
BLOCKS
  0
BLOCK
  5
20
330
1F
100
AcDbEntity
  8
0
100
AcDbBlockBegin
  2
*MODEL_SPACE
 70
     0
 10
0.0
 20
0.0
 30
0.0
  3
*MODEL_SPACE
  1

  0
ENDBLK
  5
21
330
1F
100
AcDbEntity
  8
0
100
AcDbBlockEnd
  0
BLOCK
  5
1C
330
1B
100
AcDbEntity
 67
     1
  8
0
100
AcDbBlockBegin
  2
*PAPER_SPACE
  1

  0
ENDBLK
  5
1D
330
1B
100
AcDbEntity
 67
     1
  8
0
100
AcDbBlockEnd
  0
ENDSEC
  0
SECTION
  2
ENTITIES
  0
SPLINE
  5
100
100
AcDbEntity
  8
Vector_Middle
 62
7
100
AcDbSpline
 70
8
 71
3
 72
8
 73
4
 74
0
 40
0
 40
0
 40
0
 40
0
 40
1
 40
1
 40
1
 40
1
 10
239.786793
 20
379.523906
 30
0.0
 10
231.070107
 20
380.562803
 30
0.0
 10
227.194807
 20
382.180932
 30
0.0
 10
225.479554
 20
385.497865
 30
0.0
  0
SPLINE
  5
101
100
AcDbEntity
  8
Vector_Middle
 62
7
100
AcDbSpline
 70
8
 71
3
 72
8
 73
4
 74
0
 40
0
 40
0
 40
0
 40
0
 40
1
 40
1
 40
1
 40
1
 10
225.479554
 20
385.497865
 30
0.0
 10
222.360982
 20
391.528517
 30
0.0
 10
224.679178
 20
397.255720
 30
0.0
 10
230.238771
 20
397.255720
 30
0.0
  0
SPLINE
  5
102
100
AcDbEntity
  8
Vector_Middle
 62
7
100
AcDbSpline
 70
8
 71
3
 72
8
 73
4
 74
0
 40
0
 40
0
 40
0
 40
0
 40
1
 40
1
 40
1
 40
1
 10
230.238771
 20
397.255720
 30
0.0
 10
232.190048
 20
397.255720
 30
0.0
 10
233.248895
 20
396.452721
 30
0.0
 10
234.458379
 20
394.055632
 30
0.0
  0
SPLINE
  5
103
100
AcDbEntity
  8
Vector_Middle
 62
7
100
AcDbSpline
 70
8
 71
3
 72
8
 73
4
 74
0
 40
0
 40
0
 40
0
 40
0
 40
1
 40
1
 40
1
 40
1
 10
234.458379
 20
394.055632
 30
0.0
 10
238.133665
 20
386.771584
 30
0.0
 10
244.077489
 20
382.486082
 30
0.0
 10
250.504866
 20
382.486082
 30
0.0
  0
SPLINE
  5
104
100
AcDbEntity
  8
Vector_Middle
 62
7
100
AcDbSpline
 70
8
 71
3
 72
8
 73
4
 74
0
 40
0
 40
0
 40
0
 40
0
 40
1
 40
1
 40
1
 40
1
 10
250.504866
 20
382.486082
 30
0.0
 10
262.689537
 20
382.486082
 30
0.0
 10
271.826155
 20
393.006387
 30
0.0
 10
272.960751
 20
408.342756
 30
0.0
  0
SPLINE
  5
105
100
AcDbEntity
  8
Vector_Middle
 62
7
100
AcDbSpline
 70
8
 71
3
 72
8
 73
4
 74
0
 40
0
 40
0
 40
0
 40
0
 40
1
 40
1
 40
1
 40
1
 10
272.960751
 20
408.342756
 30
0.0
 10
274.169418
 20
424.680548
 30
0.0
 10
265.686299
 20
438.010809
 30
0.0
 10
253.264706
 20
439.292835
 30
0.0
  0
SPLINE
  5
106
100
AcDbEntity
  8
Vector_Middle
 62
7
100
AcDbSpline
 70
8
 71
3
 72
8
 73
4
 74
0
 40
0
 40
0
 40
0
 40
0
 40
1
 40
1
 40
1
 40
1
 10
253.264706
 20
439.292835
 30
0.0
 10
246.690519
 20
439.971335
 30
0.0
 10
241.009186
 20
437.336220
 30
0.0
 10
237.670571
 20
432.059953
 30
0.0
  0
SPLINE
  5
107
100
AcDbEntity
  8
Vector_Middle
 62
7
100
AcDbSpline
 70
8
 71
3
 72
8
 73
4
 74
0
 40
0
 40
0
 40
0
 40
0
 40
1
 40
1
 40
1
 40
1
 10
237.670571
 20
432.059953
 30
0.0
 10
233.930302
 20
426.148951
 30
0.0
 10
233.960131
 20
426.176504
 30
0.0
 10
232.969518
 20
427.716057
 30
0.0
  0
SPLINE
  5
108
100
AcDbEntity
  8
Vector_Middle
 62
7
100
AcDbSpline
 70
8
 71
3
 72
8
 73
4
 74
0
 40
0
 40
0
 40
0
 40
0
 40
1
 40
1
 40
1
 40
1
 10
232.969518
 20
427.716057
 30
0.0
 10
232.469337
 20
428.493402
 30
0.0
 10
232.250885
 20
434.032016
 30
0.0
 10
232.484066
 20
440.024088
 30
0.0
  0
SPLINE
  5
109
100
AcDbEntity
  8
Vector_Middle
 62
7
100
AcDbSpline
 70
8
 71
3
 72
8
 73
4
 74
0
 40
0
 40
0
 40
0
 40
0
 40
1
 40
1
 40
1
 40
1
 10
232.484066
 20
440.024088
 30
0.0
 10
232.717243
 20
446.016161
 30
0.0
 10
233.095005
 20
461.331354
 30
0.0
 10
233.323532
 20
474.057865
 30
0.0
  0
SPLINE
  5
10a
100
AcDbEntity
  8
Vector_Middle
 62
7
100
AcDbSpline
 70
8
 71
3
 72
8
 73
4
 74
0
 40
0
 40
0
 40
0
 40
0
 40
1
 40
1
 40
1
 40
1
 10
233.323532
 20
474.057865
 30
0.0
 10
233.552061
 20
486.784375
 30
0.0
 10
233.770510
 20
497.307742
 30
0.0
 10
233.808985
 20
497.443153
 30
0.0
  0
SPLINE
  5
10b
100
AcDbEntity
  8
Vector_Middle
 62
7
100
AcDbSpline
 70
8
 71
3
 72
8
 73
4
 74
0
 40
0
 40
0
 40
0
 40
0
 40
1
 40
1
 40
1
 40
1
 10
233.808985
 20
497.443153
 30
0.0
 10
233.847451
 20
497.578649
 30
0.0
 10
243.198754
 20
497.689200
 30
0.0
 10
254.589642
 20
497.689200
 30
0.0
  0
SPLINE
  5
10c
100
AcDbEntity
  8
Vector_Middle
 62
7
100
AcDbSpline
 70
8
 71
3
 72
8
 73
4
 74
0
 40
0
 40
0
 40
0
 40
0
 40
1
 40
1
 40
1
 40
1
 10
277.370671
 20
501.198123
 30
0.0
 10
280.723014
 20
506.879915
 30
0.0
 10
281.447691
 20
504.003345
 30
0.0
 10
279.473641
 20
492.850545
 30
0.0
  0
LWPOLYLINE
  5
10d
100
AcDbEntity
  8
Vector_Middle
 62
7
100
AcDbPolyline
 90
3
 70
0
 10
254.589642
 20
497.689200
 30
0.0
 10
275.300351
 20
497.689200
 30
0.0
 10
277.370671
 20
501.198123
 30
0.0
  0
SPLINE
  5
10e
100
AcDbEntity
  8
Vector_Middle
 62
7
100
AcDbSpline
 70
8
 71
3
 72
8
 73
4
 74
0
 40
0
 40
0
 40
0
 40
0
 40
1
 40
1
 40
1
 40
1
 10
258.495007
 20
482.292482
 30
0.0
 10
247.934713
 20
482.010718
 30
0.0
 10
238.942522
 20
481.440898
 30
0.0
 10
238.512362
 20
481.026217
 30
0.0
  0
SPLINE
  5
10f
100
AcDbEntity
  8
Vector_Middle
 62
7
100
AcDbSpline
 70
8
 71
3
 72
8
 73
4
 74
0
 40
0
 40
0
 40
0
 40
0
 40
1
 40
1
 40
1
 40
1
 10
238.512362
 20
481.026217
 30
0.0
 10
238.082202
 20
480.611509
 30
0.0
 10
237.574868
 20
473.953890
 30
0.0
 10
237.384950
 20
466.231521
 30
0.0
  0
LWPOLYLINE
  5
110
100
AcDbEntity
  8
Vector_Middle
 62
7
100
AcDbPolyline
 90
3
 70
0
 10
279.473641
 20
492.850545
 30
0.0
 10
277.695544
 20
482.804759
 30
0.0
 10
258.495007
 20
482.292482
 30
0.0
  0
SPLINE
  5
111
100
AcDbEntity
  8
Vector_Middle
 62
7
100
AcDbSpline
 70
8
 71
3
 72
8
 73
4
 74
0
 40
0
 40
0
 40
0
 40
0
 40
1
 40
1
 40
1
 40
1
 10
240.136345
 20
453.019833
 30
0.0
 10
241.839530
 20
453.475786
 30
0.0
 10
246.999302
 20
453.846444
 30
0.0
 10
251.602506
 20
453.843524
 30
0.0
  0
SPLINE
  5
112
100
AcDbEntity
  8
Vector_Middle
 62
7
100
AcDbSpline
 70
8
 71
3
 72
8
 73
4
 74
0
 40
0
 40
0
 40
0
 40
0
 40
1
 40
1
 40
1
 40
1
 10
251.602506
 20
453.843524
 30
0.0
 10
258.535797
 20
453.837855
 30
0.0
 10
260.901258
 20
453.402283
 30
0.0
 10
265.387507
 20
451.298069
 30
0.0
  0
SPLINE
  5
113
100
AcDbEntity
  8
Vector_Middle
 62
7
100
AcDbSpline
 70
8
 71
3
 72
8
 73
4
 74
0
 40
0
 40
0
 40
0
 40
0
 40
1
 40
1
 40
1
 40
1
 10
265.387507
 20
451.298069
 30
0.0
 10
272.991087
 20
447.731717
 30
0.0
 10
278.715180
 20
441.747269
 30
0.0
 10
282.849194
 20
433.042243
 30
0.0
  0
SPLINE
  5
114
100
AcDbEntity
  8
Vector_Middle
 62
7
100
AcDbSpline
 70
8
 71
3
 72
8
 73
4
 74
0
 40
0
 40
0
 40
0
 40
0
 40
1
 40
1
 40
1
 40
1
 10
282.849194
 20
433.042243
 30
0.0
 10
286.265849
 20
425.847770
 30
0.0
 10
286.334306
 20
425.467644
 30
0.0
 10
285.773357
 20
416.809361
 30
0.0
  0
SPLINE
  5
115
100
AcDbEntity
  8
Vector_Middle
 62
7
100
AcDbSpline
 70
8
 71
3
 72
8
 73
4
 74
0
 40
0
 40
0
 40
0
 40
0
 40
1
 40
1
 40
1
 40
1
 10
285.773357
 20
416.809361
 30
0.0
 10
285.037625
 20
405.453118
 30
0.0
 10
281.660020
 20
397.816639
 30
0.0
 10
273.972915
 20
390.129534
 30
0.0
  0
SPLINE
  5
116
100
AcDbEntity
  8
Vector_Middle
 62
7
100
AcDbSpline
 70
8
 71
3
 72
8
 73
4
 74
0
 40
0
 40
0
 40
0
 40
0
 40
1
 40
1
 40
1
 40
1
 10
273.972915
 20
390.129534
 30
0.0
 10
264.577697
 20
380.734328
 30
0.0
 10
254.878024
 20
377.725153
 30
0.0
 10
239.786793
 20
379.523792
 30
0.0
  0
LWPOLYLINE
  5
117
100
AcDbEntity
  8
Vector_Middle
 62
7
100
AcDbPolyline
 90
3
 70
0
 10
237.384950
 20
466.231521
 30
0.0
 10
237.039647
 20
452.190813
 30
0.0
 10
240.136345
 20
453.019833
 30
0.0
  0
SPLINE
  5
118
100
AcDbEntity
  8
Vector_Middle
 62
7
100
AcDbSpline
 70
8
 71
3
 72
8
 73
4
 74
0
 40
0
 40
0
 40
0
 40
0
 40
1
 40
1
 40
1
 40
1
 10
342.394639
 20
386.670813
 30
0.0
 10
341.833209
 20
387.347754
 30
0.0
 10
341.050592
 20
394.697083
 30
0.0
 10
340.655471
 20
403.002680
 30
0.0
  0
SPLINE
  5
119
100
AcDbEntity
  8
Vector_Middle
 62
7
100
AcDbSpline
 70
8
 71
3
 72
8
 73
4
 74
0
 40
0
 40
0
 40
0
 40
0
 40
1
 40
1
 40
1
 40
1
 10
340.655471
 20
403.002680
 30
0.0
 10
340.199376
 20
412.589906
 30
0.0
 10
339.539386
 20
418.226258
 30
0.0
 10
338.847902
 20
418.439254
 30
0.0
  0
SPLINE
  5
11a
100
AcDbEntity
  8
Vector_Middle
 62
7
100
AcDbSpline
 70
8
 71
3
 72
8
 73
4
 74
0
 40
0
 40
0
 40
0
 40
0
 40
1
 40
1
 40
1
 40
1
 10
338.847902
 20
418.439254
 30
0.0
 10
338.248885
 20
418.623789
 30
0.0
 10
327.567713
 20
419.139269
 30
0.0
 10
315.111969
 20
419.584791
 30
0.0
  0
SPLINE
  5
11b
100
AcDbEntity
  8
Vector_Middle
 62
7
100
AcDbSpline
 70
8
 71
3
 72
8
 73
4
 74
0
 40
0
 40
0
 40
0
 40
0
 40
1
 40
1
 40
1
 40
1
 10
315.111969
 20
419.584791
 30
0.0
 10
293.298746
 20
420.365027
 30
0.0
 10
292.467146
 20
420.467953
 30
0.0
 10
292.518737
 20
422.381169
 30
0.0
  0
SPLINE
  5
11c
100
AcDbEntity
  8
Vector_Middle
 62
7
100
AcDbSpline
 70
8
 71
3
 72
8
 73
4
 74
0
 40
0
 40
0
 40
0
 40
0
 40
1
 40
1
 40
1
 40
1
 10
292.518737
 20
422.381169
 30
0.0
 10
292.573729
 20
424.418230
 30
0.0
 10
304.657710
 20
441.163531
 30
0.0
 10
325.547235
 20
468.150009
 30
0.0
  0
SPLINE
  5
11d
100
AcDbEntity
  8
Vector_Middle
 62
7
100
AcDbSpline
 70
8
 71
3
 72
8
 73
4
 74
0
 40
0
 40
0
 40
0
 40
0
 40
1
 40
1
 40
1
 40
1
 10
325.547235
 20
468.150009
 30
0.0
 10
332.044866
 20
476.544104
 30
0.0
 10
339.607984
 20
486.426444
 30
0.0
 10
342.354132
 20
490.110775
 30
0.0
  0
SPLINE
  5
11e
100
AcDbEntity
  8
Vector_Middle
 62
7
100
AcDbSpline
 70
8
 71
3
 72
8
 73
4
 74
0
 40
0
 40
0
 40
0
 40
0
 40
1
 40
1
 40
1
 40
1
 10
342.354132
 20
490.110775
 30
0.0
 10
347.083115
 20
496.455307
 30
0.0
 10
347.536233
 20
496.793764
 30
0.0
 10
350.922416
 20
496.510951
 30
0.0
  0
LWPOLYLINE
  5
11f
100
AcDbEntity
  8
Vector_Middle
 62
7
100
AcDbPolyline
 90
2
 70
0
 10
239.786793
 20
379.523792
 30
0.0
 10
239.786793
 20
379.523906
 30
0.0
  0
SPLINE
  5
120
100
AcDbEntity
  8
Vector_Middle
 62
7
100
AcDbSpline
 70
8
 71
3
 72
8
 73
4
 74
0
 40
0
 40
0
 40
0
 40
0
 40
1
 40
1
 40
1
 40
1
 10
355.119846
 20
482.919647
 30
0.0
 10
355.462044
 20
475.608671
 30
0.0
 10
355.794350
 20
461.334047
 30
0.0
 10
355.858328
 20
451.198233
 30
0.0
  0
LWPOLYLINE
  5
121
100
AcDbEntity
  8
Vector_Middle
 62
7
100
AcDbPolyline
 90
3
 70
0
 10
350.922416
 20
496.510951
 30
0.0
 10
354.497698
 20
496.212350
 30
0.0
 10
355.119846
 20
482.919647
 30
0.0
  0
SPLINE
  5
122
100
AcDbEntity
  8
Vector_Middle
 62
7
100
AcDbSpline
 70
8
 71
3
 72
8
 73
4
 74
0
 40
0
 40
0
 40
0
 40
0
 40
1
 40
1
 40
1
 40
1
 10
356.516731
 20
402.289143
 30
0.0
 10
356.239786
 20
391.048271
 30
0.0
 10
355.803817
 20
386.922246
 30
0.0
 10
354.828104
 20
386.303783
 30
0.0
  0
SPLINE
  5
123
100
AcDbEntity
  8
Vector_Middle
 62
7
100
AcDbSpline
 70
8
 71
3
 72
8
 73
4
 74
0
 40
0
 40
0
 40
0
 40
0
 40
1
 40
1
 40
1
 40
1
 10
354.828104
 20
386.303783
 30
0.0
 10
352.787301
 20
385.010164
 30
0.0
 10
343.545534
 20
385.282942
 30
0.0
 10
342.394526
 20
386.670756
 30
0.0
  0
LWPOLYLINE
  5
124
100
AcDbEntity
  8
Vector_Middle
 62
7
100
AcDbPolyline
 90
9
 70
0
 10
355.858328
 20
451.198233
 30
0.0
 10
355.974548
 20
432.769493
 30
0.0
 10
366.559455
 20
432.489997
 30
0.0
 10
377.144362
 20
432.210501
 30
0.0
 10
377.144362
 20
425.318003
 30
0.0
 10
377.144362
 20
418.425477
 30
0.0
 10
367.017279
 20
417.933156
 30
0.0
 10
356.890195
 20
417.440835
 30
0.0
 10
356.516731
 20
402.289143
 30
0.0
  0
SPLINE
  5
125
100
AcDbEntity
  8
Vector_Middle
 62
7
100
AcDbSpline
 70
8
 71
3
 72
8
 73
4
 74
0
 40
0
 40
0
 40
0
 40
0
 40
1
 40
1
 40
1
 40
1
 10
339.235710
 20
455.431720
 30
0.0
 10
339.235710
 20
467.932564
 30
0.0
 10
338.855499
 20
478.012847
 30
0.0
 10
338.390787
 20
477.832337
 30
0.0
  0
SPLINE
  5
126
100
AcDbEntity
  8
Vector_Middle
 62
7
100
AcDbSpline
 70
8
 71
3
 72
8
 73
4
 74
0
 40
0
 40
0
 40
0
 40
0
 40
1
 40
1
 40
1
 40
1
 10
338.390787
 20
477.832337
 30
0.0
 10
337.926076
 20
477.651770
 30
0.0
 10
333.384406
 20
472.052693
 30
0.0
 10
328.298202
 20
465.389830
 30
0.0
  0
SPLINE
  5
127
100
AcDbEntity
  8
Vector_Middle
 62
7
100
AcDbSpline
 70
8
 71
3
 72
8
 73
4
 74
0
 40
0
 40
0
 40
0
 40
0
 40
1
 40
1
 40
1
 40
1
 10
328.298202
 20
465.389830
 30
0.0
 10
307.155969
 20
437.693811
 30
0.0
 10
305.757865
 20
435.800183
 30
0.0
 10
305.757865
 20
434.860781
 30
0.0
  0
SPLINE
  5
128
100
AcDbEntity
  8
Vector_Middle
 62
7
100
AcDbSpline
 70
8
 71
3
 72
8
 73
4
 74
0
 40
0
 40
0
 40
0
 40
0
 40
1
 40
1
 40
1
 40
1
 10
305.757865
 20
434.860781
 30
0.0
 10
305.757865
 20
434.376709
 30
0.0
 10
311.841921
 20
433.886202
 30
0.0
 10
319.278019
 20
433.770718
 30
0.0
  0
SPLINE
  5
129
100
AcDbEntity
  8
Vector_Middle
 62
7
100
AcDbSpline
 70
8
 71
3
 72
8
 73
4
 74
0
 40
0
 40
0
 40
0
 40
0
 40
1
 40
1
 40
1
 40
1
 10
319.278019
 20
433.770718
 30
0.0
 10
326.714088
 20
433.655348
 30
0.0
 10
332.160350
 20
433.013301
 30
0.0
 10
333.227140
 20
432.966076
 30
0.0
  0
SPLINE
  5
12a
100
AcDbEntity
  8
Vector_Middle
 62
7
100
AcDbSpline
 70
8
 71
3
 72
8
 73
4
 74
0
 40
0
 40
0
 40
0
 40
0
 40
1
 40
1
 40
1
 40
1
 10
333.227140
 20
432.966076
 30
0.0
 10
334.554066
 20
432.907398
 30
0.0
 10
334.935156
 20
432.703020
 30
0.0
 10
336.445909
 20
432.703020
 30
0.0
  0
LWPOLYLINE
  5
12b
100
AcDbEntity
  8
Vector_Middle
 62
7
100
AcDbPolyline
 90
2
 70
0
 10
342.394526
 20
386.670756
 30
0.0
 10
342.394639
 20
386.670813
 30
0.0
  0
SPLINE
  5
12c
100
AcDbEntity
  8
Vector_Middle
 62
7
100
AcDbSpline
 70
8
 71
3
 72
8
 73
4
 74
0
 40
0
 40
0
 40
0
 40
0
 40
1
 40
1
 40
1
 40
1
 10
384.713858
 20
417.672085
 30
0.0
 10
384.922772
 20
418.756649
 30
0.0
 10
386.297065
 20
419.588731
 30
0.0
 10
388.478466
 20
419.951367
 30
0.0
  0
SPLINE
  5
12d
100
AcDbEntity
  8
Vector_Middle
 62
7
100
AcDbSpline
 70
8
 71
3
 72
8
 73
4
 74
0
 40
0
 40
0
 40
0
 40
0
 40
1
 40
1
 40
1
 40
1
 10
388.478466
 20
419.951367
 30
0.0
 10
393.759269
 20
420.829285
 30
0.0
 10
395.970548
 20
422.445798
 30
0.0
 10
398.205156
 20
427.061877
 30
0.0
  0
SPLINE
  5
12e
100
AcDbEntity
  8
Vector_Middle
 62
7
100
AcDbSpline
 70
8
 71
3
 72
8
 73
4
 74
0
 40
0
 40
0
 40
0
 40
0
 40
1
 40
1
 40
1
 40
1
 10
398.205156
 20
427.061877
 30
0.0
 10
406.834299
 20
449.951386
 30
0.0
 10
415.257279
 20
475.095061
 30
0.0
 10
423.375477
 20
496.586239
 30
0.0
  0
SPLINE
  5
12f
100
AcDbEntity
  8
Vector_Middle
 62
7
100
AcDbSpline
 70
8
 71
3
 72
8
 73
4
 74
0
 40
0
 40
0
 40
0
 40
0
 40
1
 40
1
 40
1
 40
1
 10
423.375477
 20
496.586239
 30
0.0
 10
428.714391
 20
509.974328
 30
0.0
 10
428.853912
 20
510.557131
 30
0.0
 10
427.395317
 20
513.377717
 30
0.0
  0
SPLINE
  5
130
100
AcDbEntity
  8
Vector_Middle
 62
7
100
AcDbSpline
 70
8
 71
3
 72
8
 73
4
 74
0
 40
0
 40
0
 40
0
 40
0
 40
1
 40
1
 40
1
 40
1
 10
427.395317
 20
513.377717
 30
0.0
 10
425.121874
 20
517.774110
 30
0.0
 10
425.447717
 20
519.351449
 30
0.0
 10
428.629380
 20
519.351449
 30
0.0
  0
SPLINE
  5
131
100
AcDbEntity
  8
Vector_Middle
 62
7
100
AcDbSpline
 70
8
 71
3
 72
8
 73
4
 74
0
 40
0
 40
0
 40
0
 40
0
 40
1
 40
1
 40
1
 40
1
 10
428.629380
 20
519.351449
 30
0.0
 10
430.919972
 20
519.351449
 30
0.0
 10
432.071206
 20
520.411153
 30
0.0
 10
435.582369
 20
525.751625
 30
0.0
  0
SPLINE
  5
132
100
AcDbEntity
  8
Vector_Middle
 62
7
100
AcDbSpline
 70
8
 71
3
 72
8
 73
4
 74
0
 40
0
 40
0
 40
0
 40
0
 40
1
 40
1
 40
1
 40
1
 10
435.582369
 20
525.751625
 30
0.0
 10
437.896687
 20
529.271717
 30
0.0
 10
440.395824
 20
532.151802
 30
0.0
 10
441.135978
 20
532.151802
 30
0.0
  0
SPLINE
  5
133
100
AcDbEntity
  8
Vector_Middle
 62
7
100
AcDbSpline
 70
8
 71
3
 72
8
 73
4
 74
0
 40
0
 40
0
 40
0
 40
0
 40
1
 40
1
 40
1
 40
1
 10
441.135978
 20
532.151802
 30
0.0
 10
442.582469
 20
532.151802
 30
0.0
 10
443.141348
 20
530.793581
 30
0.0
 10
452.480287
 20
504.581811
 30
0.0
  0
SPLINE
  5
134
100
AcDbEntity
  8
Vector_Middle
 62
7
100
AcDbSpline
 70
8
 71
3
 72
8
 73
4
 74
0
 40
0
 40
0
 40
0
 40
0
 40
1
 40
1
 40
1
 40
1
 10
452.480287
 20
504.581811
 30
0.0
 10
455.856888
 20
495.104598
 30
0.0
 10
459.625776
 20
484.913565
 30
0.0
 10
460.855559
 20
481.935005
 30
0.0
  0
SPLINE
  5
135
100
AcDbEntity
  8
Vector_Middle
 62
7
100
AcDbSpline
 70
8
 71
3
 72
8
 73
4
 74
0
 40
0
 40
0
 40
0
 40
0
 40
1
 40
1
 40
1
 40
1
 10
460.855559
 20
481.935005
 30
0.0
 10
462.085342
 20
478.956472
 30
0.0
 10
464.317994
 20
472.974775
 30
0.0
 10
465.817011
 20
468.642331
 30
0.0
  0
SPLINE
  5
136
100
AcDbEntity
  8
Vector_Middle
 62
7
100
AcDbSpline
 70
8
 71
3
 72
8
 73
4
 74
0
 40
0
 40
0
 40
0
 40
0
 40
1
 40
1
 40
1
 40
1
 10
465.817011
 20
468.642331
 30
0.0
 10
471.396784
 20
452.515748
 30
0.0
 10
481.918620
 20
427.510403
 30
0.0
 10
484.103083
 20
425.185143
 30
0.0
  0
SPLINE
  5
137
100
AcDbEntity
  8
Vector_Middle
 62
7
100
AcDbSpline
 70
8
 71
3
 72
8
 73
4
 74
0
 40
0
 40
0
 40
0
 40
0
 40
1
 40
1
 40
1
 40
1
 10
484.103083
 20
425.185143
 30
0.0
 10
485.345622
 20
423.862498
 30
0.0
 10
488.270381
 20
422.299899
 30
0.0
 10
490.602529
 20
421.712646
 30
0.0
  0
SPLINE
  5
138
100
AcDbEntity
  8
Vector_Middle
 62
7
100
AcDbSpline
 70
8
 71
3
 72
8
 73
4
 74
0
 40
0
 40
0
 40
0
 40
0
 40
1
 40
1
 40
1
 40
1
 10
490.602529
 20
421.712646
 30
0.0
 10
492.934649
 20
421.125420
 30
0.0
 10
495.051902
 20
420.306548
 30
0.0
 10
495.307502
 20
419.892973
 30
0.0
  0
SPLINE
  5
139
100
AcDbEntity
  8
Vector_Middle
 62
7
100
AcDbSpline
 70
8
 71
3
 72
8
 73
4
 74
0
 40
0
 40
0
 40
0
 40
0
 40
1
 40
1
 40
1
 40
1
 10
495.307502
 20
419.892973
 30
0.0
 10
496.698435
 20
417.642435
 30
0.0
 10
491.857795
 20
417.065839
 30
0.0
 10
469.832882
 20
416.858598
 30
0.0
  0
SPLINE
  5
13a
100
AcDbEntity
  8
Vector_Middle
 62
7
100
AcDbSpline
 70
8
 71
3
 72
8
 73
4
 74
0
 40
0
 40
0
 40
0
 40
0
 40
1
 40
1
 40
1
 40
1
 10
469.832882
 20
416.858598
 30
0.0
 10
450.821537
 20
416.679732
 30
0.0
 10
446.219291
 20
416.894315
 30
0.0
 10
445.541443
 20
417.991011
 30
0.0
  0
SPLINE
  5
13b
100
AcDbEntity
  8
Vector_Middle
 62
7
100
AcDbSpline
 70
8
 71
3
 72
8
 73
4
 74
0
 40
0
 40
0
 40
0
 40
0
 40
1
 40
1
 40
1
 40
1
 10
445.541443
 20
417.991011
 30
0.0
 10
444.163380
 20
420.220772
 30
0.0
 10
446.503436
 20
421.871811
 30
0.0
 10
451.041789
 20
421.871811
 30
0.0
  0
SPLINE
  5
13c
100
AcDbEntity
  8
Vector_Middle
 62
7
100
AcDbSpline
 70
8
 71
3
 72
8
 73
4
 74
0
 40
0
 40
0
 40
0
 40
0
 40
1
 40
1
 40
1
 40
1
 10
451.041789
 20
421.871811
 30
0.0
 10
454.448324
 20
421.871811
 30
0.0
 10
455.681367
 20
422.381225
 30
0.0
 10
457.321408
 20
424.466192
 30
0.0
  0
SPLINE
  5
13d
100
AcDbEntity
  8
Vector_Middle
 62
7
100
AcDbSpline
 70
8
 71
3
 72
8
 73
4
 74
0
 40
0
 40
0
 40
0
 40
0
 40
1
 40
1
 40
1
 40
1
 10
457.321408
 20
424.466192
 30
0.0
 10
460.093181
 20
427.989912
 30
0.0
 10
459.924633
 20
429.869934
 30
0.0
 10
455.823950
 20
441.169285
 30
0.0
  0
SPLINE
  5
13e
100
AcDbEntity
  8
Vector_Middle
 62
7
100
AcDbSpline
 70
8
 71
3
 72
8
 73
4
 74
0
 40
0
 40
0
 40
0
 40
0
 40
1
 40
1
 40
1
 40
1
 10
455.823950
 20
441.169285
 30
0.0
 10
453.877937
 20
446.531499
 30
0.0
 10
451.488274
 20
453.134211
 30
0.0
 10
450.513581
 20
455.841978
 30
0.0
  0
LWPOLYLINE
  5
13f
100
AcDbEntity
  8
Vector_Middle
 62
7
100
AcDbPolyline
 90
3
 70
0
 10
336.445909
 20
432.703020
 30
0.0
 10
339.235710
 20
432.703020
 30
0.0
 10
339.235710
 20
455.431720
 30
0.0
  0
SPLINE
  5
140
100
AcDbEntity
  8
Vector_Middle
 62
7
100
AcDbSpline
 70
8
 71
3
 72
8
 73
4
 74
0
 40
0
 40
0
 40
0
 40
0
 40
1
 40
1
 40
1
 40
1
 10
433.128132
 20
460.400173
 30
0.0
 10
424.540828
 20
460.199480
 30
0.0
 10
416.827219
 20
459.676942
 30
0.0
 10
415.986803
 20
459.239159
 30
0.0
  0
SPLINE
  5
141
100
AcDbEntity
  8
Vector_Middle
 62
7
100
AcDbSpline
 70
8
 71
3
 72
8
 73
4
 74
0
 40
0
 40
0
 40
0
 40
0
 40
1
 40
1
 40
1
 40
1
 10
415.986803
 20
459.239159
 30
0.0
 10
413.728101
 20
458.062469
 30
0.0
 10
406.673660
 20
435.210605
 30
0.0
 10
406.761506
 20
429.354992
 30
0.0
  0
SPLINE
  5
142
100
AcDbEntity
  8
Vector_Middle
 62
7
100
AcDbSpline
 70
8
 71
3
 72
8
 73
4
 74
0
 40
0
 40
0
 40
0
 40
0
 40
1
 40
1
 40
1
 40
1
 10
406.761506
 20
429.354992
 30
0.0
 10
406.848529
 20
423.543458
 30
0.0
 10
409.394353
 20
420.895304
 30
0.0
 10
414.916129
 20
420.872088
 30
0.0
  0
SPLINE
  5
143
100
AcDbEntity
  8
Vector_Middle
 62
7
100
AcDbSpline
 70
8
 71
3
 72
8
 73
4
 74
0
 40
0
 40
0
 40
0
 40
0
 40
1
 40
1
 40
1
 40
1
 10
414.916129
 20
420.872088
 30
0.0
 10
419.817061
 20
420.852246
 30
0.0
 10
421.753833
 20
419.582551
 30
0.0
 10
420.038731
 20
417.515953
 30
0.0
  0
SPLINE
  5
144
100
AcDbEntity
  8
Vector_Middle
 62
7
100
AcDbSpline
 70
8
 71
3
 72
8
 73
4
 74
0
 40
0
 40
0
 40
0
 40
0
 40
1
 40
1
 40
1
 40
1
 10
420.038731
 20
417.515953
 30
0.0
 10
418.956151
 20
416.211534
 30
0.0
 10
416.009509
 20
415.963928
 30
0.0
 10
401.567783
 20
415.963928
 30
0.0
  0
SPLINE
  5
145
100
AcDbEntity
  8
Vector_Middle
 62
7
100
AcDbSpline
 70
8
 71
3
 72
8
 73
4
 74
0
 40
0
 40
0
 40
0
 40
0
 40
1
 40
1
 40
1
 40
1
 10
401.567783
 20
415.963928
 30
0.0
 10
385.790542
 20
415.963928
 30
0.0
 10
384.411798
 20
416.103676
 30
0.0
 10
384.713858
 20
417.672085
 30
0.0
  0
LWPOLYLINE
  5
146
100
AcDbEntity
  8
Vector_Middle
 62
7
100
AcDbPolyline
 90
3
 70
0
 10
450.513581
 20
455.841978
 30
0.0
 10
448.741417
 20
460.765191
 30
0.0
 10
433.128132
 20
460.400173
 30
0.0
  0
SPLINE
  5
147
100
AcDbEntity
  8
Vector_Middle
 62
7
100
AcDbSpline
 70
8
 71
3
 72
8
 73
4
 74
0
 40
0
 40
0
 40
0
 40
0
 40
1
 40
1
 40
1
 40
1
 10
441.793757
 20
468.767225
 30
0.0
 10
445.957257
 20
469.455732
 30
0.0
 10
446.189046
 20
467.692611
 30
0.0
 10
439.460957
 20
486.511115
 30
0.0
  0
SPLINE
  5
148
100
AcDbEntity
  8
Vector_Middle
 62
7
100
AcDbSpline
 70
8
 71
3
 72
8
 73
4
 74
0
 40
0
 40
0
 40
0
 40
0
 40
1
 40
1
 40
1
 40
1
 10
439.460957
 20
486.511115
 30
0.0
 10
435.141553
 20
498.592573
 30
0.0
 10
432.126624
 20
504.336274
 30
0.0
 10
430.810980
 20
502.990129
 30
0.0
  0
SPLINE
  5
149
100
AcDbEntity
  8
Vector_Middle
 62
7
100
AcDbSpline
 70
8
 71
3
 72
8
 73
4
 74
0
 40
0
 40
0
 40
0
 40
0
 40
1
 40
1
 40
1
 40
1
 10
430.810980
 20
502.990129
 30
0.0
 10
429.498255
 20
501.646989
 30
0.0
 10
426.736432
 20
493.701307
 30
0.0
 10
419.299880
 20
469.873134
 30
0.0
  0
SPLINE
  5
14a
100
AcDbEntity
  8
Vector_Middle
 62
7
100
AcDbSpline
 70
8
 71
3
 72
8
 73
4
 74
0
 40
0
 40
0
 40
0
 40
0
 40
1
 40
1
 40
1
 40
1
 10
419.299880
 20
469.873134
 30
0.0
 10
418.812576
 20
468.311669
 30
0.0
 10
419.673628
 20
468.151030
 30
0.0
 10
428.477216
 20
468.160866
 30
0.0
  0
SPLINE
  5
14b
100
AcDbEntity
  8
Vector_Middle
 62
7
100
AcDbSpline
 70
8
 71
3
 72
8
 73
4
 74
0
 40
0
 40
0
 40
0
 40
0
 40
1
 40
1
 40
1
 40
1
 10
428.477216
 20
468.160866
 30
0.0
 10
433.820551
 20
468.166535
 30
0.0
 10
439.812964
 20
468.439795
 30
0.0
 10
441.793757
 20
468.767225
 30
0.0
  0
LWPOLYLINE
  5
14c
100
AcDbEntity
  8
Vector_Middle
 62
7
100
AcDbPolyline
 90
1
 70
1
 10
384.713858
 20
417.672085
 30
0.0
  0
LWPOLYLINE
  5
14d
100
AcDbEntity
  8
Vector_Middle
 62
7
100
AcDbPolyline
 90
1
 70
1
 10
441.793757
 20
468.767225
 30
0.0
  0
ENDSEC
  0
SECTION
  2
OBJECTS
  0
DICTIONARY
  5
C
330
0
100
AcDbDictionary
  3
ACAD_GROUP
350
D
  3
ACAD_MLINESTYLE
350
17
  0
DICTIONARY
  5
D
330
C
100
AcDbDictionary
  0
DICTIONARY
  5
1A
330
C
100
AcDbDictionary
  0
DICTIONARY
  5
17
330
C
100
AcDbDictionary
  3
STANDARD
350
18
  0
DICTIONARY
  5
19
330
C
100
AcDbDictionary
  0
ENDSEC
  0
EOF
