  0
SECTION
  2
HEADER
  9
$ACADVER
  1
AC1014
  9
$HANDSEED
  5
FFFF
  9
$MEASUREMENT
 70
     1
  0
ENDSEC
  0
SECTION
  2
TABLES
  0
TABLE
  2
VPORT
  5
8
330
0
100
AcDbSymbolTable
 70
     4
  0
VPORT
  5
2E
330
8
100
AcDbSymbolTableRecord
100
AcDbViewportTableRecord
  2
*ACTIVE
 70
     0
 10
0.0
 20
0.0
 11
1.0
 21
1.0
 12
210.0
 22
148.5
 13
0.0
 23
0.0
 14
10.0
 24
10.0
 15
10.0
 25
10.0
 16
0.0
 26
0.0
 36
1.0
 17
0.0
 27
0.0
 37
0.0
 40
341.0
 41
1.24
 42
50.0
 43
0.0
 44
0.0
 50
0.0
 51
0.0
 71
     0
 72
   100
 73
     1
 74
     3
 75
     0
 76
     0
 77
     0
 78
     0
  0
ENDTAB
  0
TABLE
  2
LTYPE
  5
5
330
0
100
AcDbSymbolTable
 70
     1
  0
LTYPE
  5
14
330
5
100
AcDbSymbolTableRecord
100
AcDbLinetypeTableRecord
  2
BYBLOCK
 70
     0
  3

 72
    65
 73
     0
 40
0.0
  0
LTYPE
  5
15
330
5
100
AcDbSymbolTableRecord
100
AcDbLinetypeTableRecord
  2
BYLAYER
 70
     0
  3

 72
    65
 73
     0
 40
0.0
  0
LTYPE
  5
16
330
5
100
AcDbSymbolTableRecord
100
AcDbLinetypeTableRecord
  2
CONTINUOUS
 70
     0
  3
Solid line
 72
    65
 73
     0
 40
0.0
  0
ENDTAB
  0
TABLE
  2
LAYER
  5
2
100
AcDbSymbolTable
 70
5
  0
LAYER
  5
50
100
AcDbSymbolTableRecord
100
AcDbLayerTableRecord
  2
0
 70
0
  6
CONTINUOUS
  0
LAYER
  5
51
100
AcDbSymbolTableRecord
100
AcDbLayerTableRecord
  2
Layer_1
 70
0
  6
CONTINUOUS
  0
LAYER
  5
52
100
AcDbSymbolTableRecord
100
AcDbLayerTableRecord
  2
Vector_Middle
 70
0
  6
CONTINUOUS
  0
LAYER
  5
53
100
AcDbSymbolTableRecord
100
AcDbLayerTableRecord
  2
Vector_Thicker
 70
0
  6
CONTINUOUS
  0
LAYER
  5
54
100
AcDbSymbolTableRecord
100
AcDbLayerTableRecord
  2
Vector
 70
0
  6
CONTINUOUS
  0
ENDTAB
  0
TABLE
  2
STYLE
  5
3
330
0
100
AcDbSymbolTable
 70
     1
  0
STYLE
  5
11
330
3
100
AcDbSymbolTableRecord
100
AcDbTextStyleTableRecord
  2
STANDARD
 70
     0
 40
0.0
 41
1.0
 50
0.0
 71
     0
 42
2.5
  3
txt
  4

  0
ENDTAB
  0
TABLE
  2
VIEW
  5
6
330
0
100
AcDbSymbolTable
 70
     0
  0
ENDTAB
  0
TABLE
  2
UCS
  5
7
330
0
100
AcDbSymbolTable
 70
     0
  0
ENDTAB
  0
TABLE
  2
APPID
  5
9
330
0
100
AcDbSymbolTable
 70
     2
  0
APPID
  5
12
330
9
100
AcDbSymbolTableRecord
100
AcDbRegAppTableRecord
  2
ACAD
 70
     0
  0
ENDTAB
  0
TABLE
  2
DIMSTYLE
  5
A
330
0
100
AcDbSymbolTable
 70
     1
  0
DIMSTYLE
105
27
330
A
100
AcDbSymbolTableRecord
100
AcDbDimStyleTableRecord
  2
ISO-25
 70
     0
  3

  4

  5

  6

  7

 40
1.0
 41
2.5
 42
0.625
 43
3.75
 44
1.25
 45
0.0
 46
0.0
 47
0.0
 48
0.0
140
2.5
141
2.5
142
0.0
143
0.03937007874016
144
1.0
145
0.0
146
1.0
147
0.625
 71
     0
 72
     0
 73
     0
 74
     0
 75
     0
 76
     0
 77
     1
 78
     8
170
     0
171
     3
172
     1
173
     0
174
     0
175
     0
176
     0
177
     0
178
     0
270
     2
271
     2
272
     2
273
     2
274
     3
340
11
275
     0
280
     0
281
     0
282
     0
283
     0
284
     8
285
     0
286
     0
287
     3
288
     0
  0
ENDTAB
  0
TABLE
  2
BLOCK_RECORD
  5
1
330
0
100
AcDbSymbolTable
 70
     1
  0
BLOCK_RECORD
  5
1F
330
1
100
AcDbSymbolTableRecord
100
AcDbBlockTableRecord
  2
*MODEL_SPACE
  0
BLOCK_RECORD
  5
1B
330
1
100
AcDbSymbolTableRecord
100
AcDbBlockTableRecord
  2
*PAPER_SPACE
  0
ENDTAB
  0
ENDSEC
  0
SECTION
  2
BLOCKS
  0
BLOCK
  5
20
330
1F
100
AcDbEntity
  8
0
100
AcDbBlockBegin
  2
*MODEL_SPACE
 70
     0
 10
0.0
 20
0.0
 30
0.0
  3
*MODEL_SPACE
  1

  0
ENDBLK
  5
21
330
1F
100
AcDbEntity
  8
0
100
AcDbBlockEnd
  0
BLOCK
  5
1C
330
1B
100
AcDbEntity
 67
     1
  8
0
100
AcDbBlockBegin
  2
*PAPER_SPACE
  1

  0
ENDBLK
  5
1D
330
1B
100
AcDbEntity
 67
     1
  8
0
100
AcDbBlockEnd
  0
ENDSEC
  0
SECTION
  2
ENTITIES
  0
SPLINE
  5
100
100
AcDbEntity
  8
Vector_Middle
 62
7
100
AcDbSpline
 70
8
 71
3
 72
8
 73
4
 74
0
 40
0
 40
0
 40
0
 40
0
 40
1
 40
1
 40
1
 40
1
 10
239.786793
 20
379.523906
 30
0.0
 10
238.697206
 20
379.653732
 30
0.0
 10
237.683268
 20
379.792630
 30
0.0
 10
236.739739
 20
379.942838
 30
0.0
  0
SPLINE
  5
101
100
AcDbEntity
  8
Vector_Middle
 62
7
100
AcDbSpline
 70
8
 71
3
 72
8
 73
4
 74
0
 40
0
 40
0
 40
0
 40
0
 40
1
 40
1
 40
1
 40
1
 10
236.739739
 20
379.942838
 30
0.0
 10
235.796210
 20
380.093074
 30
0.0
 10
234.923091
 20
380.254365
 30
0.0
 10
234.115143
 20
380.429178
 30
0.0
  0
SPLINE
  5
102
100
AcDbEntity
  8
Vector_Middle
 62
7
100
AcDbSpline
 70
8
 71
3
 72
8
 73
4
 74
0
 40
0
 40
0
 40
0
 40
0
 40
1
 40
1
 40
1
 40
1
 10
234.115143
 20
380.429178
 30
0.0
 10
233.307196
 20
380.604076
 30
0.0
 10
232.564422
 20
380.792211
 30
0.0
 10
231.881581
 20
380.996079
 30
0.0
  0
SPLINE
  5
103
100
AcDbEntity
  8
Vector_Middle
 62
7
100
AcDbSpline
 70
8
 71
3
 72
8
 73
4
 74
0
 40
0
 40
0
 40
0
 40
0
 40
1
 40
1
 40
1
 40
1
 10
231.881581
 20
380.996079
 30
0.0
 10
231.198744
 20
381.199890
 30
0.0
 10
230.575842
 20
381.419376
 30
0.0
 10
230.007637
 20
381.656608
 30
0.0
  0
SPLINE
  5
104
100
AcDbEntity
  8
Vector_Middle
 62
7
100
AcDbSpline
 70
8
 71
3
 72
8
 73
4
 74
0
 40
0
 40
0
 40
0
 40
0
 40
1
 40
1
 40
1
 40
1
 10
230.007637
 20
381.656608
 30
0.0
 10
229.439432
 20
381.893868
 30
0.0
 10
228.925925
 20
382.148929
 30
0.0
 10
228.461882
 20
382.423946
 30
0.0
  0
SPLINE
  5
105
100
AcDbEntity
  8
Vector_Middle
 62
7
100
AcDbSpline
 70
8
 71
3
 72
8
 73
4
 74
0
 40
0
 40
0
 40
0
 40
0
 40
1
 40
1
 40
1
 40
1
 10
228.461882
 20
382.423946
 30
0.0
 10
227.997839
 20
382.698907
 30
0.0
 10
227.583255
 20
382.994022
 30
0.0
 10
227.212897
 20
383.311191
 30
0.0
  0
SPLINE
  5
106
100
AcDbEntity
  8
Vector_Middle
 62
7
100
AcDbSpline
 70
8
 71
3
 72
8
 73
4
 74
0
 40
0
 40
0
 40
0
 40
0
 40
1
 40
1
 40
1
 40
1
 10
227.212897
 20
383.311191
 30
0.0
 10
226.842540
 20
383.628387
 30
0.0
 10
226.516408
 20
383.967751
 30
0.0
 10
226.229264
 20
384.331465
 30
0.0
  0
SPLINE
  5
107
100
AcDbEntity
  8
Vector_Middle
 62
7
100
AcDbSpline
 70
8
 71
3
 72
8
 73
4
 74
0
 40
0
 40
0
 40
0
 40
0
 40
1
 40
1
 40
1
 40
1
 10
226.229264
 20
384.331465
 30
0.0
 10
225.942117
 20
384.695178
 30
0.0
 10
225.693961
 20
385.083241
 30
0.0
 10
225.479554
 20
385.497865
 30
0.0
  0
SPLINE
  5
108
100
AcDbEntity
  8
Vector_Middle
 62
7
100
AcDbSpline
 70
8
 71
3
 72
8
 73
4
 74
0
 40
0
 40
0
 40
0
 40
0
 40
1
 40
1
 40
1
 40
1
 10
225.479554
 20
385.497865
 30
0.0
 10
225.089734
 20
386.251710
 30
0.0
 10
224.784862
 20
387.000794
 30
0.0
 10
224.560650
 20
387.734542
 30
0.0
  0
SPLINE
  5
109
100
AcDbEntity
  8
Vector_Middle
 62
7
100
AcDbSpline
 70
8
 71
3
 72
8
 73
4
 74
0
 40
0
 40
0
 40
0
 40
0
 40
1
 40
1
 40
1
 40
1
 10
224.560650
 20
387.734542
 30
0.0
 10
224.336429
 20
388.468290
 30
0.0
 10
224.192891
 20
389.186731
 30
0.0
 10
224.125716
 20
389.879206
 30
0.0
  0
SPLINE
  5
10a
100
AcDbEntity
  8
Vector_Middle
 62
7
100
AcDbSpline
 70
8
 71
3
 72
8
 73
4
 74
0
 40
0
 40
0
 40
0
 40
0
 40
1
 40
1
 40
1
 40
1
 10
224.125716
 20
389.879206
 30
0.0
 10
224.058535
 20
390.571710
 30
0.0
 10
224.067747
 20
391.238277
 30
0.0
 10
224.148960
 20
391.868306
 30
0.0
  0
SPLINE
  5
10b
100
AcDbEntity
  8
Vector_Middle
 62
7
100
AcDbSpline
 70
8
 71
3
 72
8
 73
4
 74
0
 40
0
 40
0
 40
0
 40
0
 40
1
 40
1
 40
1
 40
1
 10
224.148960
 20
391.868306
 30
0.0
 10
224.230258
 20
392.498362
 30
0.0
 10
224.383612
 20
393.091880
 30
0.0
 10
224.604785
 20
393.638287
 30
0.0
  0
SPLINE
  5
10c
100
AcDbEntity
  8
Vector_Middle
 62
7
100
AcDbSpline
 70
8
 71
3
 72
8
 73
4
 74
0
 40
0
 40
0
 40
0
 40
0
 40
1
 40
1
 40
1
 40
1
 10
224.604785
 20
393.638287
 30
0.0
 10
224.825944
 20
394.184693
 30
0.0
 10
225.114922
 20
394.683987
 30
0.0
 10
225.467399
 20
395.125569
 30
0.0
  0
SPLINE
  5
10d
100
AcDbEntity
  8
Vector_Middle
 62
7
100
AcDbSpline
 70
8
 71
3
 72
8
 73
4
 74
0
 40
0
 40
0
 40
0
 40
0
 40
1
 40
1
 40
1
 40
1
 10
225.467399
 20
395.125569
 30
0.0
 10
225.819876
 20
395.567150
 30
0.0
 10
226.235866
 20
395.951046
 30
0.0
 10
226.711074
 20
396.266627
 30
0.0
  0
SPLINE
  5
10e
100
AcDbEntity
  8
Vector_Middle
 62
7
100
AcDbSpline
 70
8
 71
3
 72
8
 73
4
 74
0
 40
0
 40
0
 40
0
 40
0
 40
1
 40
1
 40
1
 40
1
 10
226.711074
 20
396.266627
 30
0.0
 10
227.186286
 20
396.582180
 30
0.0
 10
227.720718
 20
396.829474
 30
0.0
 10
228.310087
 20
396.997852
 30
0.0
  0
SPLINE
  5
10f
100
AcDbEntity
  8
Vector_Middle
 62
7
100
AcDbSpline
 70
8
 71
3
 72
8
 73
4
 74
0
 40
0
 40
0
 40
0
 40
0
 40
1
 40
1
 40
1
 40
1
 10
228.310087
 20
396.997852
 30
0.0
 10
228.899455
 20
397.166230
 30
0.0
 10
229.543756
 20
397.255805
 30
0.0
 10
230.238706
 20
397.255805
 30
0.0
  0
SPLINE
  5
110
100
AcDbEntity
  8
Vector_Middle
 62
7
100
AcDbSpline
 70
8
 71
3
 72
8
 73
4
 74
0
 40
0
 40
0
 40
0
 40
0
 40
1
 40
1
 40
1
 40
1
 10
230.238706
 20
397.255805
 30
0.0
 10
230.482627
 20
397.255805
 30
0.0
 10
230.712582
 20
397.244466
 30
0.0
 10
230.930640
 20
397.216687
 30
0.0
  0
SPLINE
  5
111
100
AcDbEntity
  8
Vector_Middle
 62
7
100
AcDbSpline
 70
8
 71
3
 72
8
 73
4
 74
0
 40
0
 40
0
 40
0
 40
0
 40
1
 40
1
 40
1
 40
1
 10
230.930640
 20
397.216687
 30
0.0
 10
231.148709
 20
397.191175
 30
0.0
 10
231.354850
 20
397.149222
 30
0.0
 10
231.551130
 20
397.092813
 30
0.0
  0
SPLINE
  5
112
100
AcDbEntity
  8
Vector_Middle
 62
7
100
AcDbSpline
 70
8
 71
3
 72
8
 73
4
 74
0
 40
0
 40
0
 40
0
 40
0
 40
1
 40
1
 40
1
 40
1
 10
231.551130
 20
397.092813
 30
0.0
 10
231.747401
 20
397.036403
 30
0.0
 10
231.933824
 20
396.964403
 30
0.0
 10
232.112404
 20
396.875112
 30
0.0
  0
SPLINE
  5
113
100
AcDbEntity
  8
Vector_Middle
 62
7
100
AcDbSpline
 70
8
 71
3
 72
8
 73
4
 74
0
 40
0
 40
0
 40
0
 40
0
 40
1
 40
1
 40
1
 40
1
 10
232.112404
 20
396.875112
 30
0.0
 10
232.290986
 20
396.785820
 30
0.0
 10
232.461731
 20
396.679521
 30
0.0
 10
232.626682
 20
396.554485
 30
0.0
  0
SPLINE
  5
114
100
AcDbEntity
  8
Vector_Middle
 62
7
100
AcDbSpline
 70
8
 71
3
 72
8
 73
4
 74
0
 40
0
 40
0
 40
0
 40
0
 40
1
 40
1
 40
1
 40
1
 10
232.626682
 20
396.554485
 30
0.0
 10
232.791630
 20
396.429477
 30
0.0
 10
232.950790
 20
396.285477
 30
0.0
 10
233.106188
 20
396.121465
 30
0.0
  0
SPLINE
  5
115
100
AcDbEntity
  8
Vector_Middle
 62
7
100
AcDbSpline
 70
8
 71
3
 72
8
 73
4
 74
0
 40
0
 40
0
 40
0
 40
0
 40
1
 40
1
 40
1
 40
1
 10
233.106188
 20
396.121465
 30
0.0
 10
233.261583
 20
395.957339
 30
0.0
 10
233.413228
 20
395.773002
 30
0.0
 10
233.563147
 20
395.566809
 30
0.0
  0
SPLINE
  5
116
100
AcDbEntity
  8
Vector_Middle
 62
7
100
AcDbSpline
 70
8
 71
3
 72
8
 73
4
 74
0
 40
0
 40
0
 40
0
 40
0
 40
1
 40
1
 40
1
 40
1
 10
233.563147
 20
395.566809
 30
0.0
 10
233.713072
 20
395.360731
 30
0.0
 10
233.861267
 20
395.132627
 30
0.0
 10
234.009782
 20
394.881250
 30
0.0
  0
SPLINE
  5
117
100
AcDbEntity
  8
Vector_Middle
 62
7
100
AcDbSpline
 70
8
 71
3
 72
8
 73
4
 74
0
 40
0
 40
0
 40
0
 40
0
 40
1
 40
1
 40
1
 40
1
 10
234.009782
 20
394.881250
 30
0.0
 10
234.158289
 20
394.629817
 30
0.0
 10
234.307128
 20
394.355140
 30
0.0
 10
234.458314
 20
394.055518
 30
0.0
  0
SPLINE
  5
118
100
AcDbEntity
  8
Vector_Middle
 62
7
100
AcDbSpline
 70
8
 71
3
 72
8
 73
4
 74
0
 40
0
 40
0
 40
0
 40
0
 40
1
 40
1
 40
1
 40
1
 10
234.458314
 20
394.055518
 30
0.0
 10
234.917725
 20
393.145002
 30
0.0
 10
235.412580
 20
392.281370
 30
0.0
 10
235.939397
 20
391.467061
 30
0.0
  0
SPLINE
  5
119
100
AcDbEntity
  8
Vector_Middle
 62
7
100
AcDbSpline
 70
8
 71
3
 72
8
 73
4
 74
0
 40
0
 40
0
 40
0
 40
0
 40
1
 40
1
 40
1
 40
1
 10
235.939397
 20
391.467061
 30
0.0
 10
236.466213
 20
390.652781
 30
0.0
 10
237.024989
 20
389.887852
 30
0.0
 10
237.612240
 20
389.174825
 30
0.0
  0
SPLINE
  5
11a
100
AcDbEntity
  8
Vector_Middle
 62
7
100
AcDbSpline
 70
8
 71
3
 72
8
 73
4
 74
0
 40
0
 40
0
 40
0
 40
0
 40
1
 40
1
 40
1
 40
1
 10
237.612240
 20
389.174825
 30
0.0
 10
238.199488
 20
388.461770
 30
0.0
 10
238.815210
 20
387.800617
 30
0.0
 10
239.455919
 20
387.193833
 30
0.0
  0
SPLINE
  5
11b
100
AcDbEntity
  8
Vector_Middle
 62
7
100
AcDbSpline
 70
8
 71
3
 72
8
 73
4
 74
0
 40
0
 40
0
 40
0
 40
0
 40
1
 40
1
 40
1
 40
1
 10
239.455919
 20
387.193833
 30
0.0
 10
240.096628
 20
386.587077
 30
0.0
 10
240.762325
 20
386.034690
 30
0.0
 10
241.449523
 20
385.539222
 30
0.0
  0
SPLINE
  5
11c
100
AcDbEntity
  8
Vector_Middle
 62
7
100
AcDbSpline
 70
8
 71
3
 72
8
 73
4
 74
0
 40
0
 40
0
 40
0
 40
0
 40
1
 40
1
 40
1
 40
1
 10
241.449523
 20
385.539222
 30
0.0
 10
242.136720
 20
385.043754
 30
0.0
 10
242.845418
 20
384.605178
 30
0.0
 10
243.572131
 20
384.226044
 30
0.0
  0
SPLINE
  5
11d
100
AcDbEntity
  8
Vector_Middle
 62
7
100
AcDbSpline
 70
8
 71
3
 72
8
 73
4
 74
0
 40
0
 40
0
 40
0
 40
0
 40
1
 40
1
 40
1
 40
1
 10
243.572131
 20
384.226044
 30
0.0
 10
244.298843
 20
383.846910
 30
0.0
 10
245.043570
 20
383.527191
 30
0.0
 10
245.802824
 20
383.269380
 30
0.0
  0
SPLINE
  5
11e
100
AcDbEntity
  8
Vector_Middle
 62
7
100
AcDbSpline
 70
8
 71
3
 72
8
 73
4
 74
0
 40
0
 40
0
 40
0
 40
0
 40
1
 40
1
 40
1
 40
1
 10
245.802824
 20
383.269380
 30
0.0
 10
246.562078
 20
383.011710
 30
0.0
 10
247.335863
 20
382.815751
 30
0.0
 10
248.120688
 20
382.684337
 30
0.0
  0
SPLINE
  5
11f
100
AcDbEntity
  8
Vector_Middle
 62
7
100
AcDbSpline
 70
8
 71
3
 72
8
 73
4
 74
0
 40
0
 40
0
 40
0
 40
0
 40
1
 40
1
 40
1
 40
1
 10
248.120688
 20
382.684337
 30
0.0
 10
248.905511
 20
382.552809
 30
0.0
 10
249.701377
 20
382.485912
 30
0.0
 10
250.504801
 20
382.485912
 30
0.0
  0
SPLINE
  5
120
100
AcDbEntity
  8
Vector_Middle
 62
7
100
AcDbSpline
 70
8
 71
3
 72
8
 73
4
 74
0
 40
0
 40
0
 40
0
 40
0
 40
1
 40
1
 40
1
 40
1
 10
250.504801
 20
382.485912
 30
0.0
 10
252.027884
 20
382.485912
 30
0.0
 10
253.503343
 20
382.650321
 30
0.0
 10
254.921499
 20
382.967915
 30
0.0
  0
SPLINE
  5
121
100
AcDbEntity
  8
Vector_Middle
 62
7
100
AcDbSpline
 70
8
 71
3
 72
8
 73
4
 74
0
 40
0
 40
0
 40
0
 40
0
 40
1
 40
1
 40
1
 40
1
 10
254.921499
 20
382.967915
 30
0.0
 10
256.339655
 20
383.285537
 30
0.0
 10
257.700509
 20
383.756372
 30
0.0
 10
258.994389
 20
384.369335
 30
0.0
  0
SPLINE
  5
122
100
AcDbEntity
  8
Vector_Middle
 62
7
100
AcDbSpline
 70
8
 71
3
 72
8
 73
4
 74
0
 40
0
 40
0
 40
0
 40
0
 40
1
 40
1
 40
1
 40
1
 10
258.994389
 20
384.369335
 30
0.0
 10
260.288266
 20
384.982299
 30
0.0
 10
261.515166
 20
385.737335
 30
0.0
 10
262.665414
 20
386.623361
 30
0.0
  0
SPLINE
  5
123
100
AcDbEntity
  8
Vector_Middle
 62
7
100
AcDbSpline
 70
8
 71
3
 72
8
 73
4
 74
0
 40
0
 40
0
 40
0
 40
0
 40
1
 40
1
 40
1
 40
1
 10
262.665414
 20
386.623361
 30
0.0
 10
263.815662
 20
387.509357
 30
0.0
 10
264.889256
 20
388.526343
 30
0.0
 10
265.876520
 20
389.663121
 30
0.0
  0
SPLINE
  5
124
100
AcDbEntity
  8
Vector_Middle
 62
7
100
AcDbSpline
 70
8
 71
3
 72
8
 73
4
 74
0
 40
0
 40
0
 40
0
 40
0
 40
1
 40
1
 40
1
 40
1
 10
265.876520
 20
389.663121
 30
0.0
 10
266.863788
 20
390.799899
 30
0.0
 10
267.764723
 20
392.056498
 30
0.0
 10
268.569658
 20
393.421748
 30
0.0
  0
SPLINE
  5
125
100
AcDbEntity
  8
Vector_Middle
 62
7
100
AcDbSpline
 70
8
 71
3
 72
8
 73
4
 74
0
 40
0
 40
0
 40
0
 40
0
 40
1
 40
1
 40
1
 40
1
 10
268.569658
 20
393.421748
 30
0.0
 10
269.374589
 20
394.787027
 30
0.0
 10
270.083517
 20
396.260986
 30
0.0
 10
270.686767
 20
397.832457
 30
0.0
  0
SPLINE
  5
126
100
AcDbEntity
  8
Vector_Middle
 62
7
100
AcDbSpline
 70
8
 71
3
 72
8
 73
4
 74
0
 40
0
 40
0
 40
0
 40
0
 40
1
 40
1
 40
1
 40
1
 10
270.686767
 20
397.832457
 30
0.0
 10
271.290013
 20
399.403928
 30
0.0
 10
271.787581
 20
401.072939
 30
0.0
 10
272.169794
 20
402.828350
 30
0.0
  0
SPLINE
  5
127
100
AcDbEntity
  8
Vector_Middle
 62
7
100
AcDbSpline
 70
8
 71
3
 72
8
 73
4
 74
0
 40
0
 40
0
 40
0
 40
0
 40
1
 40
1
 40
1
 40
1
 10
272.169794
 20
402.828350
 30
0.0
 10
272.552006
 20
404.583732
 30
0.0
 10
272.818862
 20
406.425543
 30
0.0
 10
272.960685
 20
408.342586
 30
0.0
  0
SPLINE
  5
128
100
AcDbEntity
  8
Vector_Middle
 62
7
100
AcDbSpline
 70
8
 71
3
 72
8
 73
4
 74
0
 40
0
 40
0
 40
0
 40
0
 40
1
 40
1
 40
1
 40
1
 10
272.960685
 20
408.342586
 30
0.0
 10
273.111772
 20
410.384806
 30
0.0
 10
273.111432
 20
412.380028
 30
0.0
 10
272.970890
 20
414.310620
 30
0.0
  0
SPLINE
  5
129
100
AcDbEntity
  8
Vector_Middle
 62
7
100
AcDbSpline
 70
8
 71
3
 72
8
 73
4
 74
0
 40
0
 40
0
 40
0
 40
0
 40
1
 40
1
 40
1
 40
1
 10
272.970890
 20
414.310620
 30
0.0
 10
272.830348
 20
416.241213
 30
0.0
 10
272.549599
 20
418.107146
 30
0.0
 10
272.139894
 20
419.890762
 30
0.0
  0
SPLINE
  5
12a
100
AcDbEntity
  8
Vector_Middle
 62
7
100
AcDbSpline
 70
8
 71
3
 72
8
 73
4
 74
0
 40
0
 40
0
 40
0
 40
0
 40
1
 40
1
 40
1
 40
1
 10
272.139894
 20
419.890762
 30
0.0
 10
271.730188
 20
421.674378
 30
0.0
 10
271.191523
 20
423.375704
 30
0.0
 10
270.535133
 20
424.977052
 30
0.0
  0
SPLINE
  5
12b
100
AcDbEntity
  8
Vector_Middle
 62
7
100
AcDbSpline
 70
8
 71
3
 72
8
 73
4
 74
0
 40
0
 40
0
 40
0
 40
0
 40
1
 40
1
 40
1
 40
1
 10
270.535133
 20
424.977052
 30
0.0
 10
269.878745
 20
426.578400
 30
0.0
 10
269.104632
 20
428.079770
 30
0.0
 10
268.224032
 20
429.463531
 30
0.0
  0
SPLINE
  5
12c
100
AcDbEntity
  8
Vector_Middle
 62
7
100
AcDbSpline
 70
8
 71
3
 72
8
 73
4
 74
0
 40
0
 40
0
 40
0
 40
0
 40
1
 40
1
 40
1
 40
1
 10
268.224032
 20
429.463531
 30
0.0
 10
267.343432
 20
430.847291
 30
0.0
 10
266.356346
 20
432.113443
 30
0.0
 10
265.274014
 20
433.244296
 30
0.0
  0
SPLINE
  5
12d
100
AcDbEntity
  8
Vector_Middle
 62
7
100
AcDbSpline
 70
8
 71
3
 72
8
 73
4
 74
0
 40
0
 40
0
 40
0
 40
0
 40
1
 40
1
 40
1
 40
1
 10
265.274014
 20
433.244296
 30
0.0
 10
264.191678
 20
434.375150
 30
0.0
 10
263.014092
 20
435.370734
 30
0.0
 10
261.752494
 20
436.213361
 30
0.0
  0
SPLINE
  5
12e
100
AcDbEntity
  8
Vector_Middle
 62
7
100
AcDbSpline
 70
8
 71
3
 72
8
 73
4
 74
0
 40
0
 40
0
 40
0
 40
0
 40
1
 40
1
 40
1
 40
1
 10
261.752494
 20
436.213361
 30
0.0
 10
260.490898
 20
437.055987
 30
0.0
 10
259.145289
 20
437.745685
 30
0.0
 10
257.726903
 20
438.264794
 30
0.0
  0
SPLINE
  5
12f
100
AcDbEntity
  8
Vector_Middle
 62
7
100
AcDbSpline
 70
8
 71
3
 72
8
 73
4
 74
0
 40
0
 40
0
 40
0
 40
0
 40
1
 40
1
 40
1
 40
1
 10
257.726903
 20
438.264794
 30
0.0
 10
256.308517
 20
438.783902
 30
0.0
 10
254.817357
 20
439.132422
 30
0.0
 10
253.264657
 20
439.292665
 30
0.0
  0
SPLINE
  5
130
100
AcDbEntity
  8
Vector_Middle
 62
7
100
AcDbSpline
 70
8
 71
3
 72
8
 73
4
 74
0
 40
0
 40
0
 40
0
 40
0
 40
1
 40
1
 40
1
 40
1
 10
253.264657
 20
439.292665
 30
0.0
 10
252.442885
 20
439.377420
 30
0.0
 10
251.635062
 20
439.410586
 30
0.0
 10
250.844020
 20
439.393011
 30
0.0
  0
SPLINE
  5
131
100
AcDbEntity
  8
Vector_Middle
 62
7
100
AcDbSpline
 70
8
 71
3
 72
8
 73
4
 74
0
 40
0
 40
0
 40
0
 40
0
 40
1
 40
1
 40
1
 40
1
 10
250.844020
 20
439.393011
 30
0.0
 10
250.052981
 20
439.376003
 30
0.0
 10
249.278723
 20
439.307688
 30
0.0
 10
248.524081
 20
439.190617
 30
0.0
  0
SPLINE
  5
132
100
AcDbEntity
  8
Vector_Middle
 62
7
100
AcDbSpline
 70
8
 71
3
 72
8
 73
4
 74
0
 40
0
 40
0
 40
0
 40
0
 40
1
 40
1
 40
1
 40
1
 10
248.524081
 20
439.190617
 30
0.0
 10
247.769439
 20
439.073546
 30
0.0
 10
247.034409
 20
438.907436
 30
0.0
 10
246.321828
 20
438.693392
 30
0.0
  0
SPLINE
  5
133
100
AcDbEntity
  8
Vector_Middle
 62
7
100
AcDbSpline
 70
8
 71
3
 72
8
 73
4
 74
0
 40
0
 40
0
 40
0
 40
0
 40
1
 40
1
 40
1
 40
1
 10
246.321828
 20
438.693392
 30
0.0
 10
245.609246
 20
438.479376
 30
0.0
 10
244.919109
 20
438.217512
 30
0.0
 10
244.254251
 20
437.909159
 30
0.0
  0
SPLINE
  5
134
100
AcDbEntity
  8
Vector_Middle
 62
7
100
AcDbSpline
 70
8
 71
3
 72
8
 73
4
 74
0
 40
0
 40
0
 40
0
 40
0
 40
1
 40
1
 40
1
 40
1
 10
244.254251
 20
437.909159
 30
0.0
 10
243.589391
 20
437.600778
 30
0.0
 10
242.949813
 20
437.245880
 30
0.0
 10
242.338340
 20
436.845770
 30
0.0
  0
SPLINE
  5
135
100
AcDbEntity
  8
Vector_Middle
 62
7
100
AcDbSpline
 70
8
 71
3
 72
8
 73
4
 74
0
 40
0
 40
0
 40
0
 40
0
 40
1
 40
1
 40
1
 40
1
 10
242.338340
 20
436.845770
 30
0.0
 10
241.726870
 20
436.445660
 30
0.0
 10
241.143508
 20
436.000365
 30
0.0
 10
240.591090
 20
435.511134
 30
0.0
  0
SPLINE
  5
136
100
AcDbEntity
  8
Vector_Middle
 62
7
100
AcDbSpline
 70
8
 71
3
 72
8
 73
4
 74
0
 40
0
 40
0
 40
0
 40
0
 40
1
 40
1
 40
1
 40
1
 10
240.591090
 20
435.511134
 30
0.0
 10
240.038671
 20
435.021931
 30
0.0
 10
239.517193
 20
434.488847
 30
0.0
 10
239.029486
 20
433.913159
 30
0.0
  0
SPLINE
  5
137
100
AcDbEntity
  8
Vector_Middle
 62
7
100
AcDbSpline
 70
8
 71
3
 72
8
 73
4
 74
0
 40
0
 40
0
 40
0
 40
0
 40
1
 40
1
 40
1
 40
1
 10
239.029486
 20
433.913159
 30
0.0
 10
238.541783
 20
433.337471
 30
0.0
 10
238.087851
 20
432.719206
 30
0.0
 10
237.670523
 20
432.059669
 30
0.0
  0
SPLINE
  5
138
100
AcDbEntity
  8
Vector_Middle
 62
7
100
AcDbSpline
 70
8
 71
3
 72
8
 73
4
 74
0
 40
0
 40
0
 40
0
 40
0
 40
1
 40
1
 40
1
 40
1
 10
237.670523
 20
432.059669
 30
0.0
 10
237.202988
 20
431.320791
 30
0.0
 10
236.794363
 20
430.674718
 30
0.0
 10
236.435289
 20
430.112778
 30
0.0
  0
SPLINE
  5
139
100
AcDbEntity
  8
Vector_Middle
 62
7
100
AcDbSpline
 70
8
 71
3
 72
8
 73
4
 74
0
 40
0
 40
0
 40
0
 40
0
 40
1
 40
1
 40
1
 40
1
 10
236.435289
 20
430.112778
 30
0.0
 10
236.076214
 20
429.550838
 30
0.0
 10
235.766690
 20
429.073030
 30
0.0
 10
235.497362
 20
428.670737
 30
0.0
  0
SPLINE
  5
13a
100
AcDbEntity
  8
Vector_Middle
 62
7
100
AcDbSpline
 70
8
 71
3
 72
8
 73
4
 74
0
 40
0
 40
0
 40
0
 40
0
 40
1
 40
1
 40
1
 40
1
 10
235.497362
 20
428.670737
 30
0.0
 10
235.228042
 20
428.268444
 30
0.0
 10
234.998901
 20
427.941638
 30
0.0
 10
234.800603
 20
427.681701
 30
0.0
  0
SPLINE
  5
13b
100
AcDbEntity
  8
Vector_Middle
 62
7
100
AcDbSpline
 70
8
 71
3
 72
8
 73
4
 74
0
 40
0
 40
0
 40
0
 40
0
 40
1
 40
1
 40
1
 40
1
 10
234.800603
 20
427.681701
 30
0.0
 10
234.602320
 20
427.421764
 30
0.0
 10
234.434852
 20
427.228639
 30
0.0
 10
234.288876
 20
427.093767
 30
0.0
  0
SPLINE
  5
13c
100
AcDbEntity
  8
Vector_Middle
 62
7
100
AcDbSpline
 70
8
 71
3
 72
8
 73
4
 74
0
 40
0
 40
0
 40
0
 40
0
 40
1
 40
1
 40
1
 40
1
 10
234.288876
 20
427.093767
 30
0.0
 10
234.142892
 20
426.958838
 30
0.0
 10
234.018394
 20
426.882302
 30
0.0
 10
233.906037
 20
426.855090
 30
0.0
  0
SPLINE
  5
13d
100
AcDbEntity
  8
Vector_Middle
 62
7
100
AcDbSpline
 70
8
 71
3
 72
8
 73
4
 74
0
 40
0
 40
0
 40
0
 40
0
 40
1
 40
1
 40
1
 40
1
 10
233.906037
 20
426.855090
 30
0.0
 10
233.793672
 20
426.826743
 30
0.0
 10
233.693410
 20
426.849420
 30
0.0
 10
233.595950
 20
426.913767
 30
0.0
  0
SPLINE
  5
13e
100
AcDbEntity
  8
Vector_Middle
 62
7
100
AcDbSpline
 70
8
 71
3
 72
8
 73
4
 74
0
 40
0
 40
0
 40
0
 40
0
 40
1
 40
1
 40
1
 40
1
 10
233.595950
 20
426.913767
 30
0.0
 10
233.498466
 20
426.976980
 30
0.0
 10
233.403761
 20
427.081294
 30
0.0
 10
233.302473
 20
427.217953
 30
0.0
  0
SPLINE
  5
13f
100
AcDbEntity
  8
Vector_Middle
 62
7
100
AcDbSpline
 70
8
 71
3
 72
8
 73
4
 74
0
 40
0
 40
0
 40
0
 40
0
 40
1
 40
1
 40
1
 40
1
 10
233.302473
 20
427.217953
 30
0.0
 10
233.201191
 20
427.354583
 30
0.0
 10
233.093305
 20
427.523329
 30
0.0
 10
232.969470
 20
427.715773
 30
0.0
  0
SPLINE
  5
140
100
AcDbEntity
  8
Vector_Middle
 62
7
100
AcDbSpline
 70
8
 71
3
 72
8
 73
4
 74
0
 40
0
 40
0
 40
0
 40
0
 40
1
 40
1
 40
1
 40
1
 10
232.969470
 20
427.715773
 30
0.0
 10
232.906938
 20
427.813002
 30
0.0
 10
232.848828
 20
427.984498
 30
0.0
 10
232.795451
 20
428.222041
 30
0.0
  0
SPLINE
  5
141
100
AcDbEntity
  8
Vector_Middle
 62
7
100
AcDbSpline
 70
8
 71
3
 72
8
 73
4
 74
0
 40
0
 40
0
 40
0
 40
0
 40
1
 40
1
 40
1
 40
1
 10
232.795451
 20
428.222041
 30
0.0
 10
232.742075
 20
428.459584
 30
0.0
 10
232.693404
 20
428.763118
 30
0.0
 10
232.649836
 20
429.124224
 30
0.0
  0
SPLINE
  5
142
100
AcDbEntity
  8
Vector_Middle
 62
7
100
AcDbSpline
 70
8
 71
3
 72
8
 73
4
 74
0
 40
0
 40
0
 40
0
 40
0
 40
1
 40
1
 40
1
 40
1
 10
232.649836
 20
429.124224
 30
0.0
 10
232.606239
 20
429.485301
 30
0.0
 10
232.567716
 20
429.903950
 30
0.0
 10
232.534607
 20
430.371780
 30
0.0
  0
SPLINE
  5
143
100
AcDbEntity
  8
Vector_Middle
 62
7
100
AcDbSpline
 70
8
 71
3
 72
8
 73
4
 74
0
 40
0
 40
0
 40
0
 40
0
 40
1
 40
1
 40
1
 40
1
 10
232.534607
 20
430.371780
 30
0.0
 10
232.501499
 20
430.839581
 30
0.0
 10
232.473747
 20
431.356564
 30
0.0
 10
232.451751
 20
431.914252
 30
0.0
  0
SPLINE
  5
144
100
AcDbEntity
  8
Vector_Middle
 62
7
100
AcDbSpline
 70
8
 71
3
 72
8
 73
4
 74
0
 40
0
 40
0
 40
0
 40
0
 40
1
 40
1
 40
1
 40
1
 10
232.451751
 20
431.914252
 30
0.0
 10
232.429640
 20
432.471969
 30
0.0
 10
232.413483
 20
433.070419
 30
0.0
 10
232.403278
 20
433.701184
 30
0.0
  0
SPLINE
  5
145
100
AcDbEntity
  8
Vector_Middle
 62
7
100
AcDbSpline
 70
8
 71
3
 72
8
 73
4
 74
0
 40
0
 40
0
 40
0
 40
0
 40
1
 40
1
 40
1
 40
1
 10
232.403278
 20
433.701184
 30
0.0
 10
232.393073
 20
434.331978
 30
0.0
 10
232.388821
 20
434.995058
 30
0.0
 10
232.391089
 20
435.682091
 30
0.0
  0
SPLINE
  5
146
100
AcDbEntity
  8
Vector_Middle
 62
7
100
AcDbSpline
 70
8
 71
3
 72
8
 73
4
 74
0
 40
0
 40
0
 40
0
 40
0
 40
1
 40
1
 40
1
 40
1
 10
232.391089
 20
435.682091
 30
0.0
 10
232.393337
 20
436.369096
 30
0.0
 10
232.401861
 20
437.080025
 30
0.0
 10
232.417451
 20
437.806460
 30
0.0
  0
SPLINE
  5
147
100
AcDbEntity
  8
Vector_Middle
 62
7
100
AcDbSpline
 70
8
 71
3
 72
8
 73
4
 74
0
 40
0
 40
0
 40
0
 40
0
 40
1
 40
1
 40
1
 40
1
 10
232.417451
 20
437.806460
 30
0.0
 10
232.432758
 20
438.532866
 30
0.0
 10
232.454897
 20
439.274806
 30
0.0
 10
232.484066
 20
440.023805
 30
0.0
  0
SPLINE
  5
148
100
AcDbEntity
  8
Vector_Middle
 62
7
100
AcDbSpline
 70
8
 71
3
 72
8
 73
4
 74
0
 40
0
 40
0
 40
0
 40
0
 40
1
 40
1
 40
1
 40
1
 10
232.484066
 20
440.023805
 30
0.0
 10
232.513206
 20
440.772803
 30
0.0
 10
232.544614
 20
441.667502
 30
0.0
 10
232.577722
 20
442.684602
 30
0.0
  0
SPLINE
  5
149
100
AcDbEntity
  8
Vector_Middle
 62
7
100
AcDbSpline
 70
8
 71
3
 72
8
 73
4
 74
0
 40
0
 40
0
 40
0
 40
0
 40
1
 40
1
 40
1
 40
1
 10
232.577722
 20
442.684602
 30
0.0
 10
232.610803
 20
443.701672
 30
0.0
 10
232.645584
 20
444.841172
 30
0.0
 10
232.681470
 20
446.079827
 30
0.0
  0
SPLINE
  5
14a
100
AcDbEntity
  8
Vector_Middle
 62
7
100
AcDbSpline
 70
8
 71
3
 72
8
 73
4
 74
0
 40
0
 40
0
 40
0
 40
0
 40
1
 40
1
 40
1
 40
1
 10
232.681470
 20
446.079827
 30
0.0
 10
232.717357
 20
447.318454
 30
0.0
 10
232.754349
 20
448.656265
 30
0.0
 10
232.791908
 20
450.069902
 30
0.0
  0
SPLINE
  5
14b
100
AcDbEntity
  8
Vector_Middle
 62
7
100
AcDbSpline
 70
8
 71
3
 72
8
 73
4
 74
0
 40
0
 40
0
 40
0
 40
0
 40
1
 40
1
 40
1
 40
1
 10
232.791908
 20
450.069902
 30
0.0
 10
232.829439
 20
451.483569
 30
0.0
 10
232.867508
 20
452.973118
 30
0.0
 10
232.905549
 20
454.515279
 30
0.0
  0
SPLINE
  5
14c
100
AcDbEntity
  8
Vector_Middle
 62
7
100
AcDbSpline
 70
8
 71
3
 72
8
 73
4
 74
0
 40
0
 40
0
 40
0
 40
0
 40
1
 40
1
 40
1
 40
1
 10
232.905549
 20
454.515279
 30
0.0
 10
232.943590
 20
456.057439
 30
0.0
 10
232.981603
 20
457.652211
 30
0.0
 10
233.018992
 20
459.276321
 30
0.0
  0
SPLINE
  5
14d
100
AcDbEntity
  8
Vector_Middle
 62
7
100
AcDbSpline
 70
8
 71
3
 72
8
 73
4
 74
0
 40
0
 40
0
 40
0
 40
0
 40
1
 40
1
 40
1
 40
1
 10
233.018992
 20
459.276321
 30
0.0
 10
233.056380
 20
460.900432
 30
0.0
 10
233.093174
 20
462.553909
 30
0.0
 10
233.128749
 20
464.213452
 30
0.0
  0
SPLINE
  5
14e
100
AcDbEntity
  8
Vector_Middle
 62
7
100
AcDbSpline
 70
8
 71
3
 72
8
 73
4
 74
0
 40
0
 40
0
 40
0
 40
0
 40
1
 40
1
 40
1
 40
1
 10
233.128749
 20
464.213452
 30
0.0
 10
233.164352
 20
465.872995
 30
0.0
 10
233.198765
 20
467.538605
 30
0.0
 10
233.231420
 20
469.187065
 30
0.0
  0
SPLINE
  5
14f
100
AcDbEntity
  8
Vector_Middle
 62
7
100
AcDbSpline
 70
8
 71
3
 72
8
 73
4
 74
0
 40
0
 40
0
 40
0
 40
0
 40
1
 40
1
 40
1
 40
1
 10
233.231420
 20
469.187065
 30
0.0
 10
233.264075
 20
470.835496
 30
0.0
 10
233.294973
 20
472.466778
 30
0.0
 10
233.323546
 20
474.057581
 30
0.0
  0
SPLINE
  5
150
100
AcDbEntity
  8
Vector_Middle
 62
7
100
AcDbSpline
 70
8
 71
3
 72
8
 73
4
 74
0
 40
0
 40
0
 40
0
 40
0
 40
1
 40
1
 40
1
 40
1
 10
233.323546
 20
474.057581
 30
0.0
 10
233.352119
 20
475.648384
 30
0.0
 10
233.380522
 20
477.204775
 30
0.0
 10
233.408443
 20
478.710765
 30
0.0
  0
SPLINE
  5
151
100
AcDbEntity
  8
Vector_Middle
 62
7
100
AcDbSpline
 70
8
 71
3
 72
8
 73
4
 74
0
 40
0
 40
0
 40
0
 40
0
 40
1
 40
1
 40
1
 40
1
 10
233.408443
 20
478.710765
 30
0.0
 10
233.436506
 20
480.216756
 30
0.0
 10
233.463804
 20
481.672318
 30
0.0
 10
233.490393
 20
483.061493
 30
0.0
  0
SPLINE
  5
152
100
AcDbEntity
  8
Vector_Middle
 62
7
100
AcDbSpline
 70
8
 71
3
 72
8
 73
4
 74
0
 40
0
 40
0
 40
0
 40
0
 40
1
 40
1
 40
1
 40
1
 10
233.490393
 20
483.061493
 30
0.0
 10
233.517039
 20
484.450668
 30
0.0
 10
233.542806
 20
485.773427
 30
0.0
 10
233.567410
 20
487.013839
 30
0.0
  0
SPLINE
  5
153
100
AcDbEntity
  8
Vector_Middle
 62
7
100
AcDbSpline
 70
8
 71
3
 72
8
 73
4
 74
0
 40
0
 40
0
 40
0
 40
0
 40
1
 40
1
 40
1
 40
1
 10
233.567410
 20
487.013839
 30
0.0
 10
233.592072
 20
488.254224
 30
0.0
 10
233.615543
 20
489.412233
 30
0.0
 10
233.637540
 20
490.471880
 30
0.0
  0
SPLINE
  5
154
100
AcDbEntity
  8
Vector_Middle
 62
7
100
AcDbSpline
 70
8
 71
3
 72
8
 73
4
 74
0
 40
0
 40
0
 40
0
 40
0
 40
1
 40
1
 40
1
 40
1
 10
233.637540
 20
490.471880
 30
0.0
 10
233.659650
 20
491.531528
 30
0.0
 10
233.680059
 20
492.492813
 30
0.0
 10
233.698740
 20
493.339748
 30
0.0
  0
SPLINE
  5
155
100
AcDbEntity
  8
Vector_Middle
 62
7
100
AcDbSpline
 70
8
 71
3
 72
8
 73
4
 74
0
 40
0
 40
0
 40
0
 40
0
 40
1
 40
1
 40
1
 40
1
 10
233.698740
 20
493.339748
 30
0.0
 10
233.717448
 20
494.186655
 30
0.0
 10
233.734314
 20
494.919241
 30
0.0
 10
233.749054
 20
495.521461
 30
0.0
  0
SPLINE
  5
156
100
AcDbEntity
  8
Vector_Middle
 62
7
100
AcDbSpline
 70
8
 71
3
 72
8
 73
4
 74
0
 40
0
 40
0
 40
0
 40
0
 40
1
 40
1
 40
1
 40
1
 10
233.749054
 20
495.521461
 30
0.0
 10
233.763795
 20
496.123682
 30
0.0
 10
233.776267
 20
496.595565
 30
0.0
 10
233.786472
 20
496.921153
 30
0.0
  0
SPLINE
  5
157
100
AcDbEntity
  8
Vector_Middle
 62
7
100
AcDbSpline
 70
8
 71
3
 72
8
 73
4
 74
0
 40
0
 40
0
 40
0
 40
0
 40
1
 40
1
 40
1
 40
1
 10
233.786472
 20
496.921153
 30
0.0
 10
233.796677
 20
497.246712
 30
0.0
 10
233.804330
 20
497.425946
 30
0.0
 10
233.808866
 20
497.442869
 30
0.0
  0
SPLINE
  5
158
100
AcDbEntity
  8
Vector_Middle
 62
7
100
AcDbSpline
 70
8
 71
3
 72
8
 73
4
 74
0
 40
0
 40
0
 40
0
 40
0
 40
1
 40
1
 40
1
 40
1
 10
233.808866
 20
497.442869
 30
0.0
 10
233.813684
 20
497.459877
 30
0.0
 10
233.964006
 20
497.476318
 30
0.0
 10
234.245625
 20
497.492192
 30
0.0
  0
SPLINE
  5
159
100
AcDbEntity
  8
Vector_Middle
 62
7
100
AcDbSpline
 70
8
 71
3
 72
8
 73
4
 74
0
 40
0
 40
0
 40
0
 40
0
 40
1
 40
1
 40
1
 40
1
 10
234.245625
 20
497.492192
 30
0.0
 10
234.527247
 20
497.509200
 30
0.0
 10
234.940190
 20
497.523657
 30
0.0
 10
235.470229
 20
497.538397
 30
0.0
  0
SPLINE
  5
15a
100
AcDbEntity
  8
Vector_Middle
 62
7
100
AcDbSpline
 70
8
 71
3
 72
8
 73
4
 74
0
 40
0
 40
0
 40
0
 40
0
 40
1
 40
1
 40
1
 40
1
 10
235.470229
 20
497.538397
 30
0.0
 10
236.000265
 20
497.552570
 30
0.0
 10
236.647406
 20
497.567027
 30
0.0
 10
237.397442
 20
497.580066
 30
0.0
  0
SPLINE
  5
15b
100
AcDbEntity
  8
Vector_Middle
 62
7
100
AcDbSpline
 70
8
 71
3
 72
8
 73
4
 74
0
 40
0
 40
0
 40
0
 40
0
 40
1
 40
1
 40
1
 40
1
 10
237.397442
 20
497.580066
 30
0.0
 10
238.147481
 20
497.594239
 30
0.0
 10
239.000411
 20
497.605578
 30
0.0
 10
239.942035
 20
497.616633
 30
0.0
  0
SPLINE
  5
15c
100
AcDbEntity
  8
Vector_Middle
 62
7
100
AcDbSpline
 70
8
 71
3
 72
8
 73
4
 74
0
 40
0
 40
0
 40
0
 40
0
 40
1
 40
1
 40
1
 40
1
 10
239.942035
 20
497.616633
 30
0.0
 10
240.883659
 20
497.627972
 30
0.0
 10
241.913974
 20
497.636476
 30
0.0
 10
243.018774
 20
497.646680
 30
0.0
  0
SPLINE
  5
15d
100
AcDbEntity
  8
Vector_Middle
 62
7
100
AcDbSpline
 70
8
 71
3
 72
8
 73
4
 74
0
 40
0
 40
0
 40
0
 40
0
 40
1
 40
1
 40
1
 40
1
 10
243.018774
 20
497.646680
 30
0.0
 10
244.123574
 20
497.655184
 30
0.0
 10
245.302858
 20
497.663688
 30
0.0
 10
246.542423
 20
497.669357
 30
0.0
  0
SPLINE
  5
15e
100
AcDbEntity
  8
Vector_Middle
 62
7
100
AcDbSpline
 70
8
 71
3
 72
8
 73
4
 74
0
 40
0
 40
0
 40
0
 40
0
 40
1
 40
1
 40
1
 40
1
 10
246.542423
 20
497.669357
 30
0.0
 10
247.781988
 20
497.675027
 30
0.0
 10
249.081832
 20
497.680696
 30
0.0
 10
250.427750
 20
497.683531
 30
0.0
  0
SPLINE
  5
15f
100
AcDbEntity
  8
Vector_Middle
 62
7
100
AcDbSpline
 70
8
 71
3
 72
8
 73
4
 74
0
 40
0
 40
0
 40
0
 40
0
 40
1
 40
1
 40
1
 40
1
 10
250.427750
 20
497.683531
 30
0.0
 10
251.773668
 20
497.686365
 30
0.0
 10
253.165660
 20
497.689200
 30
0.0
 10
254.589523
 20
497.689200
 30
0.0
  0
SPLINE
  5
160
100
AcDbEntity
  8
Vector_Middle
 62
7
100
AcDbSpline
 70
8
 71
3
 72
8
 73
4
 74
0
 40
0
 40
0
 40
0
 40
0
 40
1
 40
1
 40
1
 40
1
 10
277.370657
 20
501.198123
 30
0.0
 10
277.789700
 20
501.908343
 30
0.0
 10
278.167686
 20
502.484854
 30
0.0
 10
278.504476
 20
502.928164
 30
0.0
  0
SPLINE
  5
161
100
AcDbEntity
  8
Vector_Middle
 62
7
100
AcDbSpline
 70
8
 71
3
 72
8
 73
4
 74
0
 40
0
 40
0
 40
0
 40
0
 40
1
 40
1
 40
1
 40
1
 10
278.504476
 20
502.928164
 30
0.0
 10
278.841266
 20
503.371502
 30
0.0
 10
279.136860
 20
503.681641
 30
0.0
 10
279.391116
 20
503.859175
 30
0.0
  0
SPLINE
  5
162
100
AcDbEntity
  8
Vector_Middle
 62
7
100
AcDbSpline
 70
8
 71
3
 72
8
 73
4
 74
0
 40
0
 40
0
 40
0
 40
0
 40
1
 40
1
 40
1
 40
1
 10
279.391116
 20
503.859175
 30
0.0
 10
279.645384
 20
504.036624
 30
0.0
 10
279.858300
 20
504.081694
 30
0.0
 10
280.029750
 20
503.994387
 30
0.0
  0
SPLINE
  5
163
100
AcDbEntity
  8
Vector_Middle
 62
7
100
AcDbSpline
 70
8
 71
3
 72
8
 73
4
 74
0
 40
0
 40
0
 40
0
 40
0
 40
1
 40
1
 40
1
 40
1
 10
280.029750
 20
503.994387
 30
0.0
 10
280.201190
 20
503.907364
 30
0.0
 10
280.331175
 20
503.687991
 30
0.0
 10
280.419540
 20
503.337260
 30
0.0
  0
SPLINE
  5
164
100
AcDbEntity
  8
Vector_Middle
 62
7
100
AcDbSpline
 70
8
 71
3
 72
8
 73
4
 74
0
 40
0
 40
0
 40
0
 40
0
 40
1
 40
1
 40
1
 40
1
 10
280.419540
 20
503.337260
 30
0.0
 10
280.507895
 20
502.986501
 30
0.0
 10
280.554667
 20
502.504214
 30
0.0
 10
280.559656
 20
501.890967
 30
0.0
  0
SPLINE
  5
165
100
AcDbEntity
  8
Vector_Middle
 62
7
100
AcDbSpline
 70
8
 71
3
 72
8
 73
4
 74
0
 40
0
 40
0
 40
0
 40
0
 40
1
 40
1
 40
1
 40
1
 10
280.559656
 20
501.890967
 30
0.0
 10
280.564758
 20
501.277720
 30
0.0
 10
280.527908
 20
500.533512
 30
0.0
 10
280.449275
 20
499.658882
 30
0.0
  0
SPLINE
  5
166
100
AcDbEntity
  8
Vector_Middle
 62
7
100
AcDbSpline
 70
8
 71
3
 72
8
 73
4
 74
0
 40
0
 40
0
 40
0
 40
0
 40
1
 40
1
 40
1
 40
1
 10
280.449275
 20
499.658882
 30
0.0
 10
280.370642
 20
498.784252
 30
0.0
 10
280.250113
 20
497.779200
 30
0.0
 10
280.087543
 20
496.644293
 30
0.0
  0
SPLINE
  5
167
100
AcDbEntity
  8
Vector_Middle
 62
7
100
AcDbSpline
 70
8
 71
3
 72
8
 73
4
 74
0
 40
0
 40
0
 40
0
 40
0
 40
1
 40
1
 40
1
 40
1
 10
280.087543
 20
496.644293
 30
0.0
 10
279.924976
 20
495.509386
 30
0.0
 10
279.720394
 20
494.244595
 30
0.0
 10
279.473638
 20
492.850488
 30
0.0
  0
LWPOLYLINE
  5
168
100
AcDbEntity
  8
Vector_Middle
 62
7
100
AcDbPolyline
 90
17
 70
0
 10
254.589523
 20
497.689200
 30
0.0
 10
257.178362
 20
497.689200
 30
0.0
 10
259.767198
 20
497.689200
 30
0.0
 10
262.356038
 20
497.689200
 30
0.0
 10
264.944877
 20
497.689200
 30
0.0
 10
267.533717
 20
497.689200
 30
0.0
 10
270.122556
 20
497.689200
 30
0.0
 10
272.711392
 20
497.689200
 30
0.0
 10
275.300232
 20
497.689200
 30
0.0
 10
275.559035
 20
498.127805
 30
0.0
 10
275.817838
 20
498.566438
 30
0.0
 10
276.076641
 20
499.005043
 30
0.0
 10
276.335444
 20
499.443647
 30
0.0
 10
276.594248
 20
499.882280
 30
0.0
 10
276.853051
 20
500.320885
 30
0.0
 10
277.111854
 20
500.759518
 30
0.0
 10
277.370657
 20
501.198123
 30
0.0
  0
SPLINE
  5
169
100
AcDbEntity
  8
Vector_Middle
 62
7
100
AcDbSpline
 70
8
 71
3
 72
8
 73
4
 74
0
 40
0
 40
0
 40
0
 40
0
 40
1
 40
1
 40
1
 40
1
 10
258.494984
 20
482.292198
 30
0.0
 10
257.174946
 20
482.257049
 30
0.0
 10
255.879411
 20
482.217364
 30
0.0
 10
254.622039
 20
482.173994
 30
0.0
  0
SPLINE
  5
16a
100
AcDbEntity
  8
Vector_Middle
 62
7
100
AcDbSpline
 70
8
 71
3
 72
8
 73
4
 74
0
 40
0
 40
0
 40
0
 40
0
 40
1
 40
1
 40
1
 40
1
 10
254.622039
 20
482.173994
 30
0.0
 10
253.364666
 20
482.130624
 30
0.0
 10
252.145454
 20
482.083569
 30
0.0
 10
250.978062
 20
482.033962
 30
0.0
  0
SPLINE
  5
16b
100
AcDbEntity
  8
Vector_Middle
 62
7
100
AcDbSpline
 70
8
 71
3
 72
8
 73
4
 74
0
 40
0
 40
0
 40
0
 40
0
 40
1
 40
1
 40
1
 40
1
 10
250.978062
 20
482.033962
 30
0.0
 10
249.810673
 20
481.984072
 30
0.0
 10
248.695104
 20
481.931632
 30
0.0
 10
247.645018
 20
481.877206
 30
0.0
  0
SPLINE
  5
16c
100
AcDbEntity
  8
Vector_Middle
 62
7
100
AcDbSpline
 70
8
 71
3
 72
8
 73
4
 74
0
 40
0
 40
0
 40
0
 40
0
 40
1
 40
1
 40
1
 40
1
 10
247.645018
 20
481.877206
 30
0.0
 10
246.594932
 20
481.822781
 30
0.0
 10
245.610326
 20
481.766372
 30
0.0
 10
244.704861
 20
481.709112
 30
0.0
  0
SPLINE
  5
16d
100
AcDbEntity
  8
Vector_Middle
 62
7
100
AcDbSpline
 70
8
 71
3
 72
8
 73
4
 74
0
 40
0
 40
0
 40
0
 40
0
 40
1
 40
1
 40
1
 40
1
 10
244.704861
 20
481.709112
 30
0.0
 10
243.799398
 20
481.651852
 30
0.0
 10
242.973077
 20
481.593175
 30
0.0
 10
242.239555
 20
481.534781
 30
0.0
  0
SPLINE
  5
16e
100
AcDbEntity
  8
Vector_Middle
 62
7
100
AcDbSpline
 70
8
 71
3
 72
8
 73
4
 74
0
 40
0
 40
0
 40
0
 40
0
 40
1
 40
1
 40
1
 40
1
 10
242.239555
 20
481.534781
 30
0.0
 10
241.506037
 20
481.476104
 30
0.0
 10
240.865316
 20
481.417427
 30
0.0
 10
240.331059
 20
481.359317
 30
0.0
  0
SPLINE
  5
16f
100
AcDbEntity
  8
Vector_Middle
 62
7
100
AcDbSpline
 70
8
 71
3
 72
8
 73
4
 74
0
 40
0
 40
0
 40
0
 40
0
 40
1
 40
1
 40
1
 40
1
 10
240.331059
 20
481.359317
 30
0.0
 10
239.796802
 20
481.301206
 30
0.0
 10
239.369009
 20
481.243946
 30
0.0
 10
239.061334
 20
481.188104
 30
0.0
  0
SPLINE
  5
170
100
AcDbEntity
  8
Vector_Middle
 62
7
100
AcDbSpline
 70
8
 71
3
 72
8
 73
4
 74
0
 40
0
 40
0
 40
0
 40
0
 40
1
 40
1
 40
1
 40
1
 10
239.061334
 20
481.188104
 30
0.0
 10
238.753661
 20
481.132261
 30
0.0
 10
238.566110
 20
481.078120
 30
0.0
 10
238.512339
 20
481.026246
 30
0.0
  0
SPLINE
  5
171
100
AcDbEntity
  8
Vector_Middle
 62
7
100
AcDbSpline
 70
8
 71
3
 72
8
 73
4
 74
0
 40
0
 40
0
 40
0
 40
0
 40
1
 40
1
 40
1
 40
1
 10
238.512339
 20
481.026246
 30
0.0
 10
238.458566
 20
480.974372
 30
0.0
 10
238.403602
 20
480.824986
 30
0.0
 10
238.348185
 20
480.588208
 30
0.0
  0
SPLINE
  5
172
100
AcDbEntity
  8
Vector_Middle
 62
7
100
AcDbSpline
 70
8
 71
3
 72
8
 73
4
 74
0
 40
0
 40
0
 40
0
 40
0
 40
1
 40
1
 40
1
 40
1
 10
238.348185
 20
480.588208
 30
0.0
 10
238.292768
 20
480.351515
 30
0.0
 10
238.236925
 20
480.027146
 30
0.0
 10
238.181423
 20
479.625591
 30
0.0
  0
SPLINE
  5
173
100
AcDbEntity
  8
Vector_Middle
 62
7
100
AcDbSpline
 70
8
 71
3
 72
8
 73
4
 74
0
 40
0
 40
0
 40
0
 40
0
 40
1
 40
1
 40
1
 40
1
 10
238.181423
 20
479.625591
 30
0.0
 10
238.125920
 20
479.224006
 30
0.0
 10
238.070730
 20
478.745121
 30
0.0
 10
238.016673
 20
478.199027
 30
0.0
  0
SPLINE
  5
174
100
AcDbEntity
  8
Vector_Middle
 62
7
100
AcDbSpline
 70
8
 71
3
 72
8
 73
4
 74
0
 40
0
 40
0
 40
0
 40
0
 40
1
 40
1
 40
1
 40
1
 10
238.016673
 20
478.199027
 30
0.0
 10
237.962616
 20
477.652961
 30
0.0
 10
237.909637
 20
477.039657
 30
0.0
 10
237.858557
 20
476.369263
 30
0.0
  0
SPLINE
  5
175
100
AcDbEntity
  8
Vector_Middle
 62
7
100
AcDbSpline
 70
8
 71
3
 72
8
 73
4
 74
0
 40
0
 40
0
 40
0
 40
0
 40
1
 40
1
 40
1
 40
1
 10
237.858557
 20
476.369263
 30
0.0
 10
237.807476
 20
475.698898
 30
0.0
 10
237.758267
 20
474.971414
 30
0.0
 10
237.711694
 20
474.196961
 30
0.0
  0
SPLINE
  5
176
100
AcDbEntity
  8
Vector_Middle
 62
7
100
AcDbSpline
 70
8
 71
3
 72
8
 73
4
 74
0
 40
0
 40
0
 40
0
 40
0
 40
1
 40
1
 40
1
 40
1
 10
237.711694
 20
474.196961
 30
0.0
 10
237.665149
 20
473.422507
 30
0.0
 10
237.621212
 20
472.601083
 30
0.0
 10
237.580733
 20
471.742781
 30
0.0
  0
SPLINE
  5
177
100
AcDbEntity
  8
Vector_Middle
 62
7
100
AcDbSpline
 70
8
 71
3
 72
8
 73
4
 74
0
 40
0
 40
0
 40
0
 40
0
 40
1
 40
1
 40
1
 40
1
 10
237.580733
 20
471.742781
 30
0.0
 10
237.540226
 20
470.884479
 30
0.0
 10
237.503149
 20
469.989326
 30
0.0
 10
237.470267
 20
469.067414
 30
0.0
  0
SPLINE
  5
178
100
AcDbEntity
  8
Vector_Middle
 62
7
100
AcDbSpline
 70
8
 71
3
 72
8
 73
4
 74
0
 40
0
 40
0
 40
0
 40
0
 40
1
 40
1
 40
1
 40
1
 10
237.470267
 20
469.067414
 30
0.0
 10
237.437385
 20
468.145502
 30
0.0
 10
237.408670
 20
467.196860
 30
0.0
 10
237.384944
 20
466.231550
 30
0.0
  0
LWPOLYLINE
  5
179
100
AcDbEntity
  8
Vector_Middle
 62
7
100
AcDbPolyline
 90
17
 70
0
 10
279.473638
 20
492.850488
 30
0.0
 10
279.251374
 20
491.594769
 30
0.0
 10
279.029109
 20
490.339049
 30
0.0
 10
278.806844
 20
489.083329
 30
0.0
 10
278.584580
 20
487.827581
 30
0.0
 10
278.362315
 20
486.571861
 30
0.0
 10
278.140051
 20
485.316142
 30
0.0
 10
277.917786
 20
484.060422
 30
0.0
 10
277.695522
 20
482.804702
 30
0.0
 10
275.295455
 20
482.740639
 30
0.0
 10
272.895386
 20
482.676576
 30
0.0
 10
270.495320
 20
482.612513
 30
0.0
 10
268.095251
 20
482.548450
 30
0.0
 10
265.695185
 20
482.484387
 30
0.0
 10
263.295119
 20
482.420324
 30
0.0
 10
260.895050
 20
482.356261
 30
0.0
 10
258.494984
 20
482.292198
 30
0.0
  0
SPLINE
  5
17a
100
AcDbEntity
  8
Vector_Middle
 62
7
100
AcDbSpline
 70
8
 71
3
 72
8
 73
4
 74
0
 40
0
 40
0
 40
0
 40
0
 40
1
 40
1
 40
1
 40
1
 10
240.136268
 20
453.020825
 30
0.0
 10
240.349178
 20
453.077802
 30
0.0
 10
240.616074
 20
453.133361
 30
0.0
 10
240.929152
 20
453.187219
 30
0.0
  0
SPLINE
  5
17b
100
AcDbEntity
  8
Vector_Middle
 62
7
100
AcDbSpline
 70
8
 71
3
 72
8
 73
4
 74
0
 40
0
 40
0
 40
0
 40
0
 40
1
 40
1
 40
1
 40
1
 10
240.929152
 20
453.187219
 30
0.0
 10
241.242231
 20
453.241077
 30
0.0
 10
241.601479
 20
453.292951
 30
0.0
 10
241.999061
 20
453.342274
 30
0.0
  0
SPLINE
  5
17c
100
AcDbEntity
  8
Vector_Middle
 62
7
100
AcDbSpline
 70
8
 71
3
 72
8
 73
4
 74
0
 40
0
 40
0
 40
0
 40
0
 40
1
 40
1
 40
1
 40
1
 10
241.999061
 20
453.342274
 30
0.0
 10
242.396643
 20
453.391597
 30
0.0
 10
242.832557
 20
453.438652
 30
0.0
 10
243.298967
 20
453.482589
 30
0.0
  0
SPLINE
  5
17d
100
AcDbEntity
  8
Vector_Middle
 62
7
100
AcDbSpline
 70
8
 71
3
 72
8
 73
4
 74
0
 40
0
 40
0
 40
0
 40
0
 40
1
 40
1
 40
1
 40
1
 10
243.298967
 20
453.482589
 30
0.0
 10
243.765377
 20
453.526526
 30
0.0
 10
244.262282
 20
453.567345
 30
0.0
 10
244.781841
 20
453.604762
 30
0.0
  0
SPLINE
  5
17e
100
AcDbEntity
  8
Vector_Middle
 62
7
100
AcDbSpline
 70
8
 71
3
 72
8
 73
4
 74
0
 40
0
 40
0
 40
0
 40
0
 40
1
 40
1
 40
1
 40
1
 10
244.781841
 20
453.604762
 30
0.0
 10
245.301403
 20
453.642180
 30
0.0
 10
245.843620
 20
453.675912
 30
0.0
 10
246.400654
 20
453.705392
 30
0.0
  0
SPLINE
  5
17f
100
AcDbEntity
  8
Vector_Middle
 62
7
100
AcDbSpline
 70
8
 71
3
 72
8
 73
4
 74
0
 40
0
 40
0
 40
0
 40
0
 40
1
 40
1
 40
1
 40
1
 10
246.400654
 20
453.705392
 30
0.0
 10
246.957690
 20
453.734872
 30
0.0
 10
247.529543
 20
453.760384
 30
0.0
 10
248.108374
 20
453.781077
 30
0.0
  0
SPLINE
  5
180
100
AcDbEntity
  8
Vector_Middle
 62
7
100
AcDbSpline
 70
8
 71
3
 72
8
 73
4
 74
0
 40
0
 40
0
 40
0
 40
0
 40
1
 40
1
 40
1
 40
1
 10
248.108374
 20
453.781077
 30
0.0
 10
248.687209
 20
453.800920
 30
0.0
 10
249.273023
 20
453.817928
 30
0.0
 10
249.857977
 20
453.828699
 30
0.0
  0
SPLINE
  5
181
100
AcDbEntity
  8
Vector_Middle
 62
7
100
AcDbSpline
 70
8
 71
3
 72
8
 73
4
 74
0
 40
0
 40
0
 40
0
 40
0
 40
1
 40
1
 40
1
 40
1
 10
249.857977
 20
453.828699
 30
0.0
 10
250.442932
 20
453.840038
 30
0.0
 10
251.027028
 20
453.845707
 30
0.0
 10
251.602430
 20
453.845707
 30
0.0
  0
SPLINE
  5
182
100
AcDbEntity
  8
Vector_Middle
 62
7
100
AcDbSpline
 70
8
 71
3
 72
8
 73
4
 74
0
 40
0
 40
0
 40
0
 40
0
 40
1
 40
1
 40
1
 40
1
 10
251.602430
 20
453.845707
 30
0.0
 10
252.469091
 20
453.844998
 30
0.0
 10
253.264380
 20
453.837203
 30
0.0
 10
254.001359
 20
453.820195
 30
0.0
  0
SPLINE
  5
183
100
AcDbEntity
  8
Vector_Middle
 62
7
100
AcDbSpline
 70
8
 71
3
 72
8
 73
4
 74
0
 40
0
 40
0
 40
0
 40
0
 40
1
 40
1
 40
1
 40
1
 10
254.001359
 20
453.820195
 30
0.0
 10
254.738341
 20
453.803187
 30
0.0
 10
255.417012
 20
453.777959
 30
0.0
 10
256.050439
 20
453.740825
 30
0.0
  0
SPLINE
  5
184
100
AcDbEntity
  8
Vector_Middle
 62
7
100
AcDbSpline
 70
8
 71
3
 72
8
 73
4
 74
0
 40
0
 40
0
 40
0
 40
0
 40
1
 40
1
 40
1
 40
1
 10
256.050439
 20
453.740825
 30
0.0
 10
256.683866
 20
453.703691
 30
0.0
 10
257.272047
 20
453.654652
 30
0.0
 10
257.828049
 20
453.592006
 30
0.0
  0
SPLINE
  5
185
100
AcDbEntity
  8
Vector_Middle
 62
7
100
AcDbSpline
 70
8
 71
3
 72
8
 73
4
 74
0
 40
0
 40
0
 40
0
 40
0
 40
1
 40
1
 40
1
 40
1
 10
257.828049
 20
453.592006
 30
0.0
 10
258.384050
 20
453.529361
 30
0.0
 10
258.907870
 20
453.452542
 30
0.0
 10
259.412570
 20
453.359282
 30
0.0
  0
SPLINE
  5
186
100
AcDbEntity
  8
Vector_Middle
 62
7
100
AcDbSpline
 70
8
 71
3
 72
8
 73
4
 74
0
 40
0
 40
0
 40
0
 40
0
 40
1
 40
1
 40
1
 40
1
 10
259.412570
 20
453.359282
 30
0.0
 10
259.917273
 20
453.266022
 30
0.0
 10
260.402856
 20
453.156605
 30
0.0
 10
260.882388
 20
453.028195
 30
0.0
  0
SPLINE
  5
187
100
AcDbEntity
  8
Vector_Middle
 62
7
100
AcDbSpline
 70
8
 71
3
 72
8
 73
4
 74
0
 40
0
 40
0
 40
0
 40
0
 40
1
 40
1
 40
1
 40
1
 10
260.882388
 20
453.028195
 30
0.0
 10
261.361919
 20
452.899786
 30
0.0
 10
261.835396
 20
452.752668
 30
0.0
 10
262.315882
 20
452.584233
 30
0.0
  0
SPLINE
  5
188
100
AcDbEntity
  8
Vector_Middle
 62
7
100
AcDbSpline
 70
8
 71
3
 72
8
 73
4
 74
0
 40
0
 40
0
 40
0
 40
0
 40
1
 40
1
 40
1
 40
1
 10
262.315882
 20
452.584233
 30
0.0
 10
262.796369
 20
452.415855
 30
0.0
 10
263.283866
 20
452.226189
 30
0.0
 10
263.791434
 20
452.012882
 30
0.0
  0
SPLINE
  5
189
100
AcDbEntity
  8
Vector_Middle
 62
7
100
AcDbSpline
 70
8
 71
3
 72
8
 73
4
 74
0
 40
0
 40
0
 40
0
 40
0
 40
1
 40
1
 40
1
 40
1
 10
263.791434
 20
452.012882
 30
0.0
 10
264.299006
 20
451.799433
 30
0.0
 10
264.826650
 20
451.562627
 30
0.0
 10
265.387431
 20
451.299600
 30
0.0
  0
SPLINE
  5
18a
100
AcDbEntity
  8
Vector_Middle
 62
7
100
AcDbSpline
 70
8
 71
3
 72
8
 73
4
 74
0
 40
0
 40
0
 40
0
 40
0
 40
1
 40
1
 40
1
 40
1
 10
265.387431
 20
451.299600
 30
0.0
 10
266.337879
 20
450.853795
 30
0.0
 10
267.258957
 20
450.370233
 30
0.0
 10
268.151236
 20
449.848290
 30
0.0
  0
SPLINE
  5
18b
100
AcDbEntity
  8
Vector_Middle
 62
7
100
AcDbSpline
 70
8
 71
3
 72
8
 73
4
 74
0
 40
0
 40
0
 40
0
 40
0
 40
1
 40
1
 40
1
 40
1
 10
268.151236
 20
449.848290
 30
0.0
 10
269.043517
 20
449.326318
 30
0.0
 10
269.906992
 20
448.765994
 30
0.0
 10
270.742232
 20
448.166721
 30
0.0
  0
SPLINE
  5
18c
100
AcDbEntity
  8
Vector_Middle
 62
7
100
AcDbSpline
 70
8
 71
3
 72
8
 73
4
 74
0
 40
0
 40
0
 40
0
 40
0
 40
1
 40
1
 40
1
 40
1
 10
270.742232
 20
448.166721
 30
0.0
 10
271.577475
 20
447.567420
 30
0.0
 10
272.384478
 20
446.929172
 30
0.0
 10
273.163810
 20
446.251380
 30
0.0
  0
SPLINE
  5
18d
100
AcDbEntity
  8
Vector_Middle
 62
7
100
AcDbSpline
 70
8
 71
3
 72
8
 73
4
 74
0
 40
0
 40
0
 40
0
 40
0
 40
1
 40
1
 40
1
 40
1
 10
273.163810
 20
446.251380
 30
0.0
 10
273.943142
 20
445.573559
 30
0.0
 10
274.694805
 20
444.856195
 30
0.0
 10
275.419361
 20
444.098693
 30
0.0
  0
SPLINE
  5
18e
100
AcDbEntity
  8
Vector_Middle
 62
7
100
AcDbSpline
 70
8
 71
3
 72
8
 73
4
 74
0
 40
0
 40
0
 40
0
 40
0
 40
1
 40
1
 40
1
 40
1
 10
275.419361
 20
444.098693
 30
0.0
 10
276.143916
 20
443.341191
 30
0.0
 10
276.841366
 20
442.543521
 30
0.0
 10
277.512276
 20
441.705146
 30
0.0
  0
SPLINE
  5
18f
100
AcDbEntity
  8
Vector_Middle
 62
7
100
AcDbSpline
 70
8
 71
3
 72
8
 73
4
 74
0
 40
0
 40
0
 40
0
 40
0
 40
1
 40
1
 40
1
 40
1
 10
277.512276
 20
441.705146
 30
0.0
 10
278.183186
 20
440.866743
 30
0.0
 10
278.827552
 20
439.987606
 30
0.0
 10
279.445946
 20
439.067169
 30
0.0
  0
SPLINE
  5
190
100
AcDbEntity
  8
Vector_Middle
 62
7
100
AcDbSpline
 70
8
 71
3
 72
8
 73
4
 74
0
 40
0
 40
0
 40
0
 40
0
 40
1
 40
1
 40
1
 40
1
 10
279.445946
 20
439.067169
 30
0.0
 10
280.064339
 20
438.146702
 30
0.0
 10
280.656754
 20
437.184935
 30
0.0
 10
281.223763
 20
436.181216
 30
0.0
  0
SPLINE
  5
191
100
AcDbEntity
  8
Vector_Middle
 62
7
100
AcDbSpline
 70
8
 71
3
 72
8
 73
4
 74
0
 40
0
 40
0
 40
0
 40
0
 40
1
 40
1
 40
1
 40
1
 10
281.223763
 20
436.181216
 30
0.0
 10
281.790768
 20
435.177524
 30
0.0
 10
282.332364
 20
434.131909
 30
0.0
 10
282.849117
 20
433.043773
 30
0.0
  0
SPLINE
  5
192
100
AcDbEntity
  8
Vector_Middle
 62
7
100
AcDbSpline
 70
8
 71
3
 72
8
 73
4
 74
0
 40
0
 40
0
 40
0
 40
0
 40
1
 40
1
 40
1
 40
1
 10
282.849117
 20
433.043773
 30
0.0
 10
283.276199
 20
432.144454
 30
0.0
 10
283.650953
 20
431.351632
 30
0.0
 10
283.978723
 20
430.635798
 30
0.0
  0
SPLINE
  5
193
100
AcDbEntity
  8
Vector_Middle
 62
7
100
AcDbSpline
 70
8
 71
3
 72
8
 73
4
 74
0
 40
0
 40
0
 40
0
 40
0
 40
1
 40
1
 40
1
 40
1
 10
283.978723
 20
430.635798
 30
0.0
 10
284.306494
 20
429.919965
 30
0.0
 10
284.587237
 20
429.281121
 30
0.0
 10
284.826311
 20
428.689786
 30
0.0
  0
SPLINE
  5
194
100
AcDbEntity
  8
Vector_Middle
 62
7
100
AcDbSpline
 70
8
 71
3
 72
8
 73
4
 74
0
 40
0
 40
0
 40
0
 40
0
 40
1
 40
1
 40
1
 40
1
 10
284.826311
 20
428.689786
 30
0.0
 10
285.065272
 20
428.098479
 30
0.0
 10
285.262733
 20
427.554652
 30
0.0
 10
285.423712
 20
427.028910
 30
0.0
  0
SPLINE
  5
195
100
AcDbEntity
  8
Vector_Middle
 62
7
100
AcDbSpline
 70
8
 71
3
 72
8
 73
4
 74
0
 40
0
 40
0
 40
0
 40
0
 40
1
 40
1
 40
1
 40
1
 10
285.423712
 20
427.028910
 30
0.0
 10
285.584720
 20
426.503140
 30
0.0
 10
285.709275
 20
425.995427
 30
0.0
 10
285.802790
 20
425.476261
 30
0.0
  0
SPLINE
  5
196
100
AcDbEntity
  8
Vector_Middle
 62
7
100
AcDbSpline
 70
8
 71
3
 72
8
 73
4
 74
0
 40
0
 40
0
 40
0
 40
0
 40
1
 40
1
 40
1
 40
1
 10
285.802790
 20
425.476261
 30
0.0
 10
285.896333
 20
424.957096
 30
0.0
 10
285.958695
 20
424.426507
 30
0.0
 10
285.995546
 20
423.855014
 30
0.0
  0
SPLINE
  5
197
100
AcDbEntity
  8
Vector_Middle
 62
7
100
AcDbSpline
 70
8
 71
3
 72
8
 73
4
 74
0
 40
0
 40
0
 40
0
 40
0
 40
1
 40
1
 40
1
 40
1
 10
285.995546
 20
423.855014
 30
0.0
 10
286.032112
 20
423.283493
 30
0.0
 10
286.043168
 20
422.671068
 30
0.0
 10
286.033530
 20
421.988258
 30
0.0
  0
SPLINE
  5
198
100
AcDbEntity
  8
Vector_Middle
 62
7
100
AcDbSpline
 70
8
 71
3
 72
8
 73
4
 74
0
 40
0
 40
0
 40
0
 40
0
 40
1
 40
1
 40
1
 40
1
 10
286.033530
 20
421.988258
 30
0.0
 10
286.025026
 20
421.305449
 30
0.0
 10
285.994128
 20
420.552255
 30
0.0
 10
285.948774
 20
419.699197
 30
0.0
  0
SPLINE
  5
199
100
AcDbEntity
  8
Vector_Middle
 62
7
100
AcDbSpline
 70
8
 71
3
 72
8
 73
4
 74
0
 40
0
 40
0
 40
0
 40
0
 40
1
 40
1
 40
1
 40
1
 10
285.948774
 20
419.699197
 30
0.0
 10
285.903703
 20
418.846110
 30
0.0
 10
285.843325
 20
417.893187
 30
0.0
 10
285.773309
 20
416.810891
 30
0.0
  0
SPLINE
  5
19a
100
AcDbEntity
  8
Vector_Middle
 62
7
100
AcDbSpline
 70
8
 71
3
 72
8
 73
4
 74
0
 40
0
 40
0
 40
0
 40
0
 40
1
 40
1
 40
1
 40
1
 10
285.773309
 20
416.810891
 30
0.0
 10
285.681467
 20
415.391357
 30
0.0
 10
285.547955
 20
414.029962
 30
0.0
 10
285.370308
 20
412.719307
 30
0.0
  0
SPLINE
  5
19b
100
AcDbEntity
  8
Vector_Middle
 62
7
100
AcDbSpline
 70
8
 71
3
 72
8
 73
4
 74
0
 40
0
 40
0
 40
0
 40
0
 40
1
 40
1
 40
1
 40
1
 10
285.370308
 20
412.719307
 30
0.0
 10
285.192575
 20
411.408652
 30
0.0
 10
284.970197
 20
410.148765
 30
0.0
 10
284.700084
 20
408.932249
 30
0.0
  0
SPLINE
  5
19c
100
AcDbEntity
  8
Vector_Middle
 62
7
100
AcDbSpline
 70
8
 71
3
 72
8
 73
4
 74
0
 40
0
 40
0
 40
0
 40
0
 40
1
 40
1
 40
1
 40
1
 10
284.700084
 20
408.932249
 30
0.0
 10
284.429942
 20
407.715761
 30
0.0
 10
284.112094
 20
406.542643
 30
0.0
 10
283.743136
 20
405.405553
 30
0.0
  0
SPLINE
  5
19d
100
AcDbEntity
  8
Vector_Middle
 62
7
100
AcDbSpline
 70
8
 71
3
 72
8
 73
4
 74
0
 40
0
 40
0
 40
0
 40
0
 40
1
 40
1
 40
1
 40
1
 10
283.743136
 20
405.405553
 30
0.0
 10
283.374170
 20
404.268491
 30
0.0
 10
282.954163
 20
403.167430
 30
0.0
 10
282.479848
 20
402.095055
 30
0.0
  0
SPLINE
  5
19e
100
AcDbEntity
  8
Vector_Middle
 62
7
100
AcDbSpline
 70
8
 71
3
 72
8
 73
4
 74
0
 40
0
 40
0
 40
0
 40
0
 40
1
 40
1
 40
1
 40
1
 10
282.479848
 20
402.095055
 30
0.0
 10
282.005535
 20
401.022680
 30
0.0
 10
281.476913
 20
399.978935
 30
0.0
 10
280.890729
 20
398.956535
 30
0.0
  0
SPLINE
  5
19f
100
AcDbEntity
  8
Vector_Middle
 62
7
100
AcDbSpline
 70
8
 71
3
 72
8
 73
4
 74
0
 40
0
 40
0
 40
0
 40
0
 40
1
 40
1
 40
1
 40
1
 10
280.890729
 20
398.956535
 30
0.0
 10
280.304544
 20
397.934107
 30
0.0
 10
279.660793
 20
396.932995
 30
0.0
 10
278.956219
 20
395.945802
 30
0.0
  0
SPLINE
  5
1a0
100
AcDbEntity
  8
Vector_Middle
 62
7
100
AcDbSpline
 70
8
 71
3
 72
8
 73
4
 74
0
 40
0
 40
0
 40
0
 40
0
 40
1
 40
1
 40
1
 40
1
 10
278.956219
 20
395.945802
 30
0.0
 10
278.251648
 20
394.958636
 30
0.0
 10
277.486254
 20
393.985389
 30
0.0
 10
276.656780
 20
393.018718
 30
0.0
  0
SPLINE
  5
1a1
100
AcDbEntity
  8
Vector_Middle
 62
7
100
AcDbSpline
 70
8
 71
3
 72
8
 73
4
 74
0
 40
0
 40
0
 40
0
 40
0
 40
1
 40
1
 40
1
 40
1
 10
276.656780
 20
393.018718
 30
0.0
 10
275.827306
 20
392.052047
 30
0.0
 10
274.933755
 20
391.091953
 30
0.0
 10
273.972866
 20
390.131065
 30
0.0
  0
SPLINE
  5
1a2
100
AcDbEntity
  8
Vector_Middle
 62
7
100
AcDbSpline
 70
8
 71
3
 72
8
 73
4
 74
0
 40
0
 40
0
 40
0
 40
0
 40
1
 40
1
 40
1
 40
1
 10
273.972866
 20
390.131065
 30
0.0
 10
272.798464
 20
388.956671
 30
0.0
 10
271.619306
 20
387.882057
 30
0.0
 10
270.425455
 20
386.904132
 30
0.0
  0
SPLINE
  5
1a3
100
AcDbEntity
  8
Vector_Middle
 62
7
100
AcDbSpline
 70
8
 71
3
 72
8
 73
4
 74
0
 40
0
 40
0
 40
0
 40
0
 40
1
 40
1
 40
1
 40
1
 10
270.425455
 20
386.904132
 30
0.0
 10
269.231601
 20
385.926208
 30
0.0
 10
268.023059
 20
385.044973
 30
0.0
 10
266.789886
 20
384.257367
 30
0.0
  0
SPLINE
  5
1a4
100
AcDbEntity
  8
Vector_Middle
 62
7
100
AcDbSpline
 70
8
 71
3
 72
8
 73
4
 74
0
 40
0
 40
0
 40
0
 40
0
 40
1
 40
1
 40
1
 40
1
 10
266.789886
 20
384.257367
 30
0.0
 10
265.556710
 20
383.469789
 30
0.0
 10
264.298910
 20
382.775783
 30
0.0
 10
263.006541
 20
382.172343
 30
0.0
  0
SPLINE
  5
1a5
100
AcDbEntity
  8
Vector_Middle
 62
7
100
AcDbSpline
 70
8
 71
3
 72
8
 73
4
 74
0
 40
0
 40
0
 40
0
 40
0
 40
1
 40
1
 40
1
 40
1
 10
263.006541
 20
382.172343
 30
0.0
 10
261.714175
 20
381.568876
 30
0.0
 10
260.387243
 20
381.055975
 30
0.0
 10
259.015813
 20
380.630494
 30
0.0
  0
SPLINE
  5
1a6
100
AcDbEntity
  8
Vector_Middle
 62
7
100
AcDbSpline
 70
8
 71
3
 72
8
 73
4
 74
0
 40
0
 40
0
 40
0
 40
0
 40
1
 40
1
 40
1
 40
1
 10
259.015813
 20
380.630494
 30
0.0
 10
257.644380
 20
380.205043
 30
0.0
 10
256.228449
 20
379.867011
 30
0.0
 10
254.758082
 20
379.613367
 30
0.0
  0
SPLINE
  5
1a7
100
AcDbEntity
  8
Vector_Middle
 62
7
100
AcDbSpline
 70
8
 71
3
 72
8
 73
4
 74
0
 40
0
 40
0
 40
0
 40
0
 40
1
 40
1
 40
1
 40
1
 10
254.758082
 20
379.613367
 30
0.0
 10
253.287714
 20
379.359666
 30
0.0
 10
251.762913
 20
379.190466
 30
0.0
 10
250.173737
 20
379.102479
 30
0.0
  0
SPLINE
  5
1a8
100
AcDbEntity
  8
Vector_Middle
 62
7
100
AcDbSpline
 70
8
 71
3
 72
8
 73
4
 74
0
 40
0
 40
0
 40
0
 40
0
 40
1
 40
1
 40
1
 40
1
 10
250.173737
 20
379.102479
 30
0.0
 10
248.584564
 20
379.014605
 30
0.0
 10
246.931016
 20
379.007802
 30
0.0
 10
245.203163
 20
379.079802
 30
0.0
  0
SPLINE
  5
1a9
100
AcDbEntity
  8
Vector_Middle
 62
7
100
AcDbSpline
 70
8
 71
3
 72
8
 73
4
 74
0
 40
0
 40
0
 40
0
 40
0
 40
1
 40
1
 40
1
 40
1
 10
245.203163
 20
379.079802
 30
0.0
 10
243.475311
 20
379.151235
 30
0.0
 10
241.673148
 20
379.300904
 30
0.0
 10
239.786745
 20
379.525833
 30
0.0
  0
LWPOLYLINE
  5
1aa
100
AcDbEntity
  8
Vector_Middle
 62
7
100
AcDbPolyline
 90
17
 70
0
 10
237.384944
 20
466.231550
 30
0.0
 10
237.341772
 20
464.476450
 30
0.0
 10
237.298601
 20
462.721380
 30
0.0
 10
237.255429
 20
460.966280
 30
0.0
 10
237.212257
 20
459.211181
 30
0.0
 10
237.169086
 20
457.456110
 30
0.0
 10
237.125914
 20
455.701011
 30
0.0
 10
237.082742
 20
453.945940
 30
0.0
 10
237.039571
 20
452.190841
 30
0.0
 10
237.426659
 20
452.294589
 30
0.0
 10
237.813744
 20
452.398337
 30
0.0
 10
238.200832
 20
452.502085
 30
0.0
 10
238.587919
 20
452.605833
 30
0.0
 10
238.975007
 20
452.709581
 30
0.0
 10
239.362092
 20
452.813329
 30
0.0
 10
239.749180
 20
452.917077
 30
0.0
 10
240.136268
 20
453.020825
 30
0.0
  0
SPLINE
  5
1ab
100
AcDbEntity
  8
Vector_Middle
 62
7
100
AcDbSpline
 70
8
 71
3
 72
8
 73
4
 74
0
 40
0
 40
0
 40
0
 40
0
 40
1
 40
1
 40
1
 40
1
 10
342.394639
 20
386.670813
 30
0.0
 10
342.324340
 20
386.755285
 30
0.0
 10
342.250923
 20
386.944356
 30
0.0
 10
342.174954
 20
387.226261
 30
0.0
  0
SPLINE
  5
1ac
100
AcDbEntity
  8
Vector_Middle
 62
7
100
AcDbSpline
 70
8
 71
3
 72
8
 73
4
 74
0
 40
0
 40
0
 40
0
 40
0
 40
1
 40
1
 40
1
 40
1
 10
342.174954
 20
387.226261
 30
0.0
 10
342.098986
 20
387.508309
 30
0.0
 10
342.021033
 20
387.883304
 30
0.0
 10
341.941663
 20
388.340277
 30
0.0
  0
SPLINE
  5
1ad
100
AcDbEntity
  8
Vector_Middle
 62
7
100
AcDbSpline
 70
8
 71
3
 72
8
 73
4
 74
0
 40
0
 40
0
 40
0
 40
0
 40
1
 40
1
 40
1
 40
1
 10
341.941663
 20
388.340277
 30
0.0
 10
341.862293
 20
388.797250
 30
0.0
 10
341.782072
 20
389.336173
 30
0.0
 10
341.701852
 20
389.945849
 30
0.0
  0
SPLINE
  5
1ae
100
AcDbEntity
  8
Vector_Middle
 62
7
100
AcDbSpline
 70
8
 71
3
 72
8
 73
4
 74
0
 40
0
 40
0
 40
0
 40
0
 40
1
 40
1
 40
1
 40
1
 10
341.701852
 20
389.945849
 30
0.0
 10
341.621632
 20
390.555524
 30
0.0
 10
341.541411
 20
391.235953
 30
0.0
 10
341.462608
 20
391.975994
 30
0.0
  0
SPLINE
  5
1af
100
AcDbEntity
  8
Vector_Middle
 62
7
100
AcDbSpline
 70
8
 71
3
 72
8
 73
4
 74
0
 40
0
 40
0
 40
0
 40
0
 40
1
 40
1
 40
1
 40
1
 10
341.462608
 20
391.975994
 30
0.0
 10
341.383805
 20
392.716035
 30
0.0
 10
341.306419
 20
393.515688
 30
0.0
 10
341.231301
 20
394.363757
 30
0.0
  0
SPLINE
  5
1b0
100
AcDbEntity
  8
Vector_Middle
 62
7
100
AcDbSpline
 70
8
 71
3
 72
8
 73
4
 74
0
 40
0
 40
0
 40
0
 40
0
 40
1
 40
1
 40
1
 40
1
 10
341.231301
 20
394.363757
 30
0.0
 10
341.156183
 20
395.211827
 30
0.0
 10
341.083899
 20
396.108312
 30
0.0
 10
341.015017
 20
397.042101
 30
0.0
  0
SPLINE
  5
1b1
100
AcDbEntity
  8
Vector_Middle
 62
7
100
AcDbSpline
 70
8
 71
3
 72
8
 73
4
 74
0
 40
0
 40
0
 40
0
 40
0
 40
1
 40
1
 40
1
 40
1
 10
341.015017
 20
397.042101
 30
0.0
 10
340.946135
 20
397.975861
 30
0.0
 10
340.880939
 20
398.946926
 30
0.0
 10
340.820561
 20
399.944069
 30
0.0
  0
SPLINE
  5
1b2
100
AcDbEntity
  8
Vector_Middle
 62
7
100
AcDbSpline
 70
8
 71
3
 72
8
 73
4
 74
0
 40
0
 40
0
 40
0
 40
0
 40
1
 40
1
 40
1
 40
1
 10
340.820561
 20
399.944069
 30
0.0
 10
340.760183
 20
400.941213
 30
0.0
 10
340.704907
 20
401.964491
 30
0.0
 10
340.655301
 20
403.002680
 30
0.0
  0
SPLINE
  5
1b3
100
AcDbEntity
  8
Vector_Middle
 62
7
100
AcDbSpline
 70
8
 71
3
 72
8
 73
4
 74
0
 40
0
 40
0
 40
0
 40
0
 40
1
 40
1
 40
1
 40
1
 10
340.655301
 20
403.002680
 30
0.0
 10
340.598324
 20
404.201083
 30
0.0
 10
340.538230
 20
405.337748
 30
0.0
 10
340.475017
 20
406.409811
 30
0.0
  0
SPLINE
  5
1b4
100
AcDbEntity
  8
Vector_Middle
 62
7
100
AcDbSpline
 70
8
 71
3
 72
8
 73
4
 74
0
 40
0
 40
0
 40
0
 40
0
 40
1
 40
1
 40
1
 40
1
 10
340.475017
 20
406.409811
 30
0.0
 10
340.412088
 20
407.481874
 30
0.0
 10
340.346041
 20
408.489335
 30
0.0
 10
340.277726
 20
409.429304
 30
0.0
  0
SPLINE
  5
1b5
100
AcDbEntity
  8
Vector_Middle
 62
7
100
AcDbSpline
 70
8
 71
3
 72
8
 73
4
 74
0
 40
0
 40
0
 40
0
 40
0
 40
1
 40
1
 40
1
 40
1
 10
340.277726
 20
409.429304
 30
0.0
 10
340.209411
 20
410.369272
 30
0.0
 10
340.138545
 20
411.241748
 30
0.0
 10
340.065411
 20
412.043896
 30
0.0
  0
SPLINE
  5
1b6
100
AcDbEntity
  8
Vector_Middle
 62
7
100
AcDbSpline
 70
8
 71
3
 72
8
 73
4
 74
0
 40
0
 40
0
 40
0
 40
0
 40
1
 40
1
 40
1
 40
1
 10
340.065411
 20
412.043896
 30
0.0
 10
339.992277
 20
412.846016
 30
0.0
 10
339.917159
 20
413.577780
 30
0.0
 10
339.840057
 20
414.236296
 30
0.0
  0
SPLINE
  5
1b7
100
AcDbEntity
  8
Vector_Middle
 62
7
100
AcDbSpline
 70
8
 71
3
 72
8
 73
4
 74
0
 40
0
 40
0
 40
0
 40
0
 40
1
 40
1
 40
1
 40
1
 10
339.840057
 20
414.236296
 30
0.0
 10
339.762954
 20
414.894841
 30
0.0
 10
339.683868
 20
415.480139
 30
0.0
 10
339.603647
 20
415.989298
 30
0.0
  0
SPLINE
  5
1b8
100
AcDbEntity
  8
Vector_Middle
 62
7
100
AcDbSpline
 70
8
 71
3
 72
8
 73
4
 74
0
 40
0
 40
0
 40
0
 40
0
 40
1
 40
1
 40
1
 40
1
 10
339.603647
 20
415.989298
 30
0.0
 10
339.523143
 20
416.498485
 30
0.0
 10
339.441222
 20
416.931562
 30
0.0
 10
339.358167
 20
417.285638
 30
0.0
  0
SPLINE
  5
1b9
100
AcDbEntity
  8
Vector_Middle
 62
7
100
AcDbSpline
 70
8
 71
3
 72
8
 73
4
 74
0
 40
0
 40
0
 40
0
 40
0
 40
1
 40
1
 40
1
 40
1
 10
339.358167
 20
417.285638
 30
0.0
 10
339.275112
 20
417.639713
 30
0.0
 10
339.190639
 20
417.914816
 30
0.0
 10
339.105600
 20
418.108025
 30
0.0
  0
SPLINE
  5
1ba
100
AcDbEntity
  8
Vector_Middle
 62
7
100
AcDbSpline
 70
8
 71
3
 72
8
 73
4
 74
0
 40
0
 40
0
 40
0
 40
0
 40
1
 40
1
 40
1
 40
1
 10
339.105600
 20
418.108025
 30
0.0
 10
339.020561
 20
418.301348
 30
0.0
 10
338.934671
 20
418.412636
 30
0.0
 10
338.848214
 20
418.439254
 30
0.0
  0
SPLINE
  5
1bb
100
AcDbEntity
  8
Vector_Middle
 62
7
100
AcDbSpline
 70
8
 71
3
 72
8
 73
4
 74
0
 40
0
 40
0
 40
0
 40
0
 40
1
 40
1
 40
1
 40
1
 10
338.848214
 20
418.439254
 30
0.0
 10
338.773380
 20
418.461931
 30
0.0
 10
338.540939
 20
418.490561
 30
0.0
 10
338.167219
 20
418.523159
 30
0.0
  0
SPLINE
  5
1bc
100
AcDbEntity
  8
Vector_Middle
 62
7
100
AcDbSpline
 70
8
 71
3
 72
8
 73
4
 74
0
 40
0
 40
0
 40
0
 40
0
 40
1
 40
1
 40
1
 40
1
 10
338.167219
 20
418.523159
 30
0.0
 10
337.793499
 20
418.555757
 30
0.0
 10
337.278472
 20
418.592891
 30
0.0
 10
336.638353
 20
418.633427
 30
0.0
  0
SPLINE
  5
1bd
100
AcDbEntity
  8
Vector_Middle
 62
7
100
AcDbSpline
 70
8
 71
3
 72
8
 73
4
 74
0
 40
0
 40
0
 40
0
 40
0
 40
1
 40
1
 40
1
 40
1
 10
336.638353
 20
418.633427
 30
0.0
 10
335.998233
 20
418.673962
 30
0.0
 10
335.233049
 20
418.718183
 30
0.0
 10
334.359014
 20
418.765238
 30
0.0
  0
SPLINE
  5
1be
100
AcDbEntity
  8
Vector_Middle
 62
7
100
AcDbSpline
 70
8
 71
3
 72
8
 73
4
 74
0
 40
0
 40
0
 40
0
 40
0
 40
1
 40
1
 40
1
 40
1
 10
334.359014
 20
418.765238
 30
0.0
 10
333.484951
 20
418.812293
 30
0.0
 10
332.502066
 20
418.862183
 30
0.0
 10
331.426517
 20
418.914057
 30
0.0
  0
SPLINE
  5
1bf
100
AcDbEntity
  8
Vector_Middle
 62
7
100
AcDbSpline
 70
8
 71
3
 72
8
 73
4
 74
0
 40
0
 40
0
 40
0
 40
0
 40
1
 40
1
 40
1
 40
1
 10
331.426517
 20
418.914057
 30
0.0
 10
330.350995
 20
418.965931
 30
0.0
 10
329.182809
 20
419.020072
 30
0.0
 10
327.938258
 20
419.075065
 30
0.0
  0
SPLINE
  5
1c0
100
AcDbEntity
  8
Vector_Middle
 62
7
100
AcDbSpline
 70
8
 71
3
 72
8
 73
4
 74
0
 40
0
 40
0
 40
0
 40
0
 40
1
 40
1
 40
1
 40
1
 10
327.938258
 20
419.075065
 30
0.0
 10
326.693679
 20
419.130340
 30
0.0
 10
325.372706
 20
419.186750
 30
0.0
 10
323.991553
 20
419.243726
 30
0.0
  0
SPLINE
  5
1c1
100
AcDbEntity
  8
Vector_Middle
 62
7
100
AcDbSpline
 70
8
 71
3
 72
8
 73
4
 74
0
 40
0
 40
0
 40
0
 40
0
 40
1
 40
1
 40
1
 40
1
 10
323.991553
 20
419.243726
 30
0.0
 10
322.610400
 20
419.300702
 30
0.0
 10
321.169068
 20
419.357962
 30
0.0
 10
319.683770
 20
419.415222
 30
0.0
  0
SPLINE
  5
1c2
100
AcDbEntity
  8
Vector_Middle
 62
7
100
AcDbSpline
 70
8
 71
3
 72
8
 73
4
 74
0
 40
0
 40
0
 40
0
 40
0
 40
1
 40
1
 40
1
 40
1
 10
319.683770
 20
419.415222
 30
0.0
 10
318.198501
 20
419.472198
 30
0.0
 10
316.669238
 20
419.529175
 30
0.0
 10
315.112280
 20
419.584734
 30
0.0
  0
SPLINE
  5
1c3
100
AcDbEntity
  8
Vector_Middle
 62
7
100
AcDbSpline
 70
8
 71
3
 72
8
 73
4
 74
0
 40
0
 40
0
 40
0
 40
0
 40
1
 40
1
 40
1
 40
1
 10
315.112280
 20
419.584734
 30
0.0
 10
312.385635
 20
419.682246
 30
0.0
 10
309.986816
 20
419.769269
 30
0.0
 10
307.876592
 20
419.850340
 30
0.0
  0
SPLINE
  5
1c4
100
AcDbEntity
  8
Vector_Middle
 62
7
100
AcDbSpline
 70
8
 71
3
 72
8
 73
4
 74
0
 40
0
 40
0
 40
0
 40
0
 40
1
 40
1
 40
1
 40
1
 10
307.876592
 20
419.850340
 30
0.0
 10
305.766340
 20
419.931411
 30
0.0
 10
303.944712
 20
420.007096
 30
0.0
 10
302.372391
 20
420.081647
 30
0.0
  0
SPLINE
  5
1c5
100
AcDbEntity
  8
Vector_Middle
 62
7
100
AcDbSpline
 70
8
 71
3
 72
8
 73
4
 74
0
 40
0
 40
0
 40
0
 40
0
 40
1
 40
1
 40
1
 40
1
 10
302.372391
 20
420.081647
 30
0.0
 10
300.800069
 20
420.156198
 30
0.0
 10
299.477055
 20
420.230183
 30
0.0
 10
298.364145
 20
420.307852
 30
0.0
  0
SPLINE
  5
1c6
100
AcDbEntity
  8
Vector_Middle
 62
7
100
AcDbSpline
 70
8
 71
3
 72
8
 73
4
 74
0
 40
0
 40
0
 40
0
 40
0
 40
1
 40
1
 40
1
 40
1
 10
298.364145
 20
420.307852
 30
0.0
 10
297.251235
 20
420.385521
 30
0.0
 10
296.348372
 20
420.467443
 30
0.0
 10
295.616353
 20
420.557868
 30
0.0
  0
SPLINE
  5
1c7
100
AcDbEntity
  8
Vector_Middle
 62
7
100
AcDbSpline
 70
8
 71
3
 72
8
 73
4
 74
0
 40
0
 40
0
 40
0
 40
0
 40
1
 40
1
 40
1
 40
1
 10
295.616353
 20
420.557868
 30
0.0
 10
294.884334
 20
420.648576
 30
0.0
 10
294.323131
 20
420.747789
 30
0.0
 10
293.893483
 20
420.861118
 30
0.0
  0
SPLINE
  5
1c8
100
AcDbEntity
  8
Vector_Middle
 62
7
100
AcDbSpline
 70
8
 71
3
 72
8
 73
4
 74
0
 40
0
 40
0
 40
0
 40
0
 40
1
 40
1
 40
1
 40
1
 10
293.893483
 20
420.861118
 30
0.0
 10
293.463836
 20
420.974220
 30
0.0
 10
293.165773
 20
421.101213
 30
0.0
 10
292.959978
 20
421.246602
 30
0.0
  0
SPLINE
  5
1c9
100
AcDbEntity
  8
Vector_Middle
 62
7
100
AcDbSpline
 70
8
 71
3
 72
8
 73
4
 74
0
 40
0
 40
0
 40
0
 40
0
 40
1
 40
1
 40
1
 40
1
 10
292.959978
 20
421.246602
 30
0.0
 10
292.754183
 20
421.392019
 30
0.0
 10
292.640769
 20
421.556032
 30
0.0
 10
292.580362
 20
421.743487
 30
0.0
  0
SPLINE
  5
1ca
100
AcDbEntity
  8
Vector_Middle
 62
7
100
AcDbSpline
 70
8
 71
3
 72
8
 73
4
 74
0
 40
0
 40
0
 40
0
 40
0
 40
1
 40
1
 40
1
 40
1
 10
292.580362
 20
421.743487
 30
0.0
 10
292.519984
 20
421.930857
 30
0.0
 10
292.512614
 20
422.141783
 30
0.0
 10
292.519134
 20
422.380942
 30
0.0
  0
SPLINE
  5
1cb
100
AcDbEntity
  8
Vector_Middle
 62
7
100
AcDbSpline
 70
8
 71
3
 72
8
 73
4
 74
0
 40
0
 40
0
 40
0
 40
0
 40
1
 40
1
 40
1
 40
1
 10
292.519134
 20
422.380942
 30
0.0
 10
292.524803
 20
422.635493
 30
0.0
 10
292.720961
 20
423.120019
 30
0.0
 10
293.097317
 20
423.825562
 30
0.0
  0
SPLINE
  5
1cc
100
AcDbEntity
  8
Vector_Middle
 62
7
100
AcDbSpline
 70
8
 71
3
 72
8
 73
4
 74
0
 40
0
 40
0
 40
0
 40
0
 40
1
 40
1
 40
1
 40
1
 10
293.097317
 20
423.825562
 30
0.0
 10
293.473814
 20
424.531106
 30
0.0
 10
294.031956
 20
425.457723
 30
0.0
 10
294.765449
 20
426.596740
 30
0.0
  0
SPLINE
  5
1cd
100
AcDbEntity
  8
Vector_Middle
 62
7
100
AcDbSpline
 70
8
 71
3
 72
8
 73
4
 74
0
 40
0
 40
0
 40
0
 40
0
 40
1
 40
1
 40
1
 40
1
 10
294.765449
 20
426.596740
 30
0.0
 10
295.498942
 20
427.735729
 30
0.0
 10
296.407814
 20
429.087090
 30
0.0
 10
297.485745
 20
430.642120
 30
0.0
  0
SPLINE
  5
1ce
100
AcDbEntity
  8
Vector_Middle
 62
7
100
AcDbSpline
 70
8
 71
3
 72
8
 73
4
 74
0
 40
0
 40
0
 40
0
 40
0
 40
1
 40
1
 40
1
 40
1
 10
297.485745
 20
430.642120
 30
0.0
 10
298.563676
 20
432.197121
 30
0.0
 10
299.810665
 20
433.955764
 30
0.0
 10
301.220419
 20
435.909317
 30
0.0
  0
SPLINE
  5
1cf
100
AcDbEntity
  8
Vector_Middle
 62
7
100
AcDbSpline
 70
8
 71
3
 72
8
 73
4
 74
0
 40
0
 40
0
 40
0
 40
0
 40
1
 40
1
 40
1
 40
1
 10
301.220419
 20
435.909317
 30
0.0
 10
302.630202
 20
437.862898
 30
0.0
 10
304.202721
 20
440.011389
 30
0.0
 10
305.931742
 20
442.346060
 30
0.0
  0
SPLINE
  5
1d0
100
AcDbEntity
  8
Vector_Middle
 62
7
100
AcDbSpline
 70
8
 71
3
 72
8
 73
4
 74
0
 40
0
 40
0
 40
0
 40
0
 40
1
 40
1
 40
1
 40
1
 10
305.931742
 20
442.346060
 30
0.0
 10
307.660762
 20
444.680731
 30
0.0
 10
309.546227
 20
447.201609
 30
0.0
 10
311.581899
 20
449.899937
 30
0.0
  0
SPLINE
  5
1d1
100
AcDbEntity
  8
Vector_Middle
 62
7
100
AcDbSpline
 70
8
 71
3
 72
8
 73
4
 74
0
 40
0
 40
0
 40
0
 40
0
 40
1
 40
1
 40
1
 40
1
 10
311.581899
 20
449.899937
 30
0.0
 10
313.617543
 20
452.598293
 30
0.0
 10
315.803395
 20
455.474098
 30
0.0
 10
318.133106
 20
458.518620
 30
0.0
  0
SPLINE
  5
1d2
100
AcDbEntity
  8
Vector_Middle
 62
7
100
AcDbSpline
 70
8
 71
3
 72
8
 73
4
 74
0
 40
0
 40
0
 40
0
 40
0
 40
1
 40
1
 40
1
 40
1
 10
318.133106
 20
458.518620
 30
0.0
 10
320.462844
 20
461.563172
 30
0.0
 10
322.936441
 20
464.776469
 30
0.0
 10
325.547632
 20
468.149783
 30
0.0
  0
SPLINE
  5
1d3
100
AcDbEntity
  8
Vector_Middle
 62
7
100
AcDbSpline
 70
8
 71
3
 72
8
 73
4
 74
0
 40
0
 40
0
 40
0
 40
0
 40
1
 40
1
 40
1
 40
1
 10
325.547632
 20
468.149783
 30
0.0
 10
326.359843
 20
469.199055
 30
0.0
 10
327.188693
 20
470.271572
 30
0.0
 10
328.022702
 20
471.352309
 30
0.0
  0
SPLINE
  5
1d4
100
AcDbEntity
  8
Vector_Middle
 62
7
100
AcDbSpline
 70
8
 71
3
 72
8
 73
4
 74
0
 40
0
 40
0
 40
0
 40
0
 40
1
 40
1
 40
1
 40
1
 10
328.022702
 20
471.352309
 30
0.0
 10
328.856712
 20
472.433074
 30
0.0
 10
329.695880
 20
473.522060
 30
0.0
 10
330.528728
 20
474.604299
 30
0.0
  0
SPLINE
  5
1d5
100
AcDbEntity
  8
Vector_Middle
 62
7
100
AcDbSpline
 70
8
 71
3
 72
8
 73
4
 74
0
 40
0
 40
0
 40
0
 40
0
 40
1
 40
1
 40
1
 40
1
 10
330.528728
 20
474.604299
 30
0.0
 10
331.361546
 20
475.686539
 30
0.0
 10
332.188072
 20
476.761975
 30
0.0
 10
332.996769
 20
477.815669
 30
0.0
  0
SPLINE
  5
1d6
100
AcDbEntity
  8
Vector_Middle
 62
7
100
AcDbSpline
 70
8
 71
3
 72
8
 73
4
 74
0
 40
0
 40
0
 40
0
 40
0
 40
1
 40
1
 40
1
 40
1
 10
332.996769
 20
477.815669
 30
0.0
 10
333.805465
 20
478.869335
 30
0.0
 10
334.596331
 20
479.901232
 30
0.0
 10
335.357887
 20
480.896334
 30
0.0
  0
SPLINE
  5
1d7
100
AcDbEntity
  8
Vector_Middle
 62
7
100
AcDbSpline
 70
8
 71
3
 72
8
 73
4
 74
0
 40
0
 40
0
 40
0
 40
0
 40
1
 40
1
 40
1
 40
1
 10
335.357887
 20
480.896334
 30
0.0
 10
336.119443
 20
481.891436
 30
0.0
 10
336.851717
 20
482.849717
 30
0.0
 10
337.543172
 20
483.756208
 30
0.0
  0
SPLINE
  5
1d8
100
AcDbEntity
  8
Vector_Middle
 62
7
100
AcDbSpline
 70
8
 71
3
 72
8
 73
4
 74
0
 40
0
 40
0
 40
0
 40
0
 40
1
 40
1
 40
1
 40
1
 10
337.543172
 20
483.756208
 30
0.0
 10
338.234627
 20
484.662728
 30
0.0
 10
338.885291
 20
485.517402
 30
0.0
 10
339.483657
 20
486.305263
 30
0.0
  0
SPLINE
  5
1d9
100
AcDbEntity
  8
Vector_Middle
 62
7
100
AcDbSpline
 70
8
 71
3
 72
8
 73
4
 74
0
 40
0
 40
0
 40
0
 40
0
 40
1
 40
1
 40
1
 40
1
 10
339.483657
 20
486.305263
 30
0.0
 10
340.082022
 20
487.093153
 30
0.0
 10
340.628117
 20
487.814202
 30
0.0
 10
341.110432
 20
488.453414
 30
0.0
  0
SPLINE
  5
1da
100
AcDbEntity
  8
Vector_Middle
 62
7
100
AcDbSpline
 70
8
 71
3
 72
8
 73
4
 74
0
 40
0
 40
0
 40
0
 40
0
 40
1
 40
1
 40
1
 40
1
 10
341.110432
 20
488.453414
 30
0.0
 10
341.592718
 20
489.092627
 30
0.0
 10
342.011254
 20
489.650003
 30
0.0
 10
342.354529
 20
490.110548
 30
0.0
  0
SPLINE
  5
1db
100
AcDbEntity
  8
Vector_Middle
 62
7
100
AcDbSpline
 70
8
 71
3
 72
8
 73
4
 74
0
 40
0
 40
0
 40
0
 40
0
 40
1
 40
1
 40
1
 40
1
 10
342.354529
 20
490.110548
 30
0.0
 10
342.945666
 20
490.903625
 30
0.0
 10
343.469962
 20
491.602847
 30
0.0
 10
343.941534
 20
492.218731
 30
0.0
  0
SPLINE
  5
1dc
100
AcDbEntity
  8
Vector_Middle
 62
7
100
AcDbSpline
 70
8
 71
3
 72
8
 73
4
 74
0
 40
0
 40
0
 40
0
 40
0
 40
1
 40
1
 40
1
 40
1
 10
343.941534
 20
492.218731
 30
0.0
 10
344.413134
 20
492.834614
 30
0.0
 10
344.831981
 20
493.367187
 30
0.0
 10
345.212192
 20
493.826939
 30
0.0
  0
SPLINE
  5
1dd
100
AcDbEntity
  8
Vector_Middle
 62
7
100
AcDbSpline
 70
8
 71
3
 72
8
 73
4
 74
0
 40
0
 40
0
 40
0
 40
0
 40
1
 40
1
 40
1
 40
1
 10
345.212192
 20
493.826939
 30
0.0
 10
345.592375
 20
494.286690
 30
0.0
 10
345.933921
 20
494.673647
 30
0.0
 10
346.250920
 20
494.998299
 30
0.0
  0
SPLINE
  5
1de
100
AcDbEntity
  8
Vector_Middle
 62
7
100
AcDbSpline
 70
8
 71
3
 72
8
 73
4
 74
0
 40
0
 40
0
 40
0
 40
0
 40
1
 40
1
 40
1
 40
1
 10
346.250920
 20
494.998299
 30
0.0
 10
346.567890
 20
495.322951
 30
0.0
 10
346.860312
 20
495.585298
 30
0.0
 10
347.142217
 20
495.795883
 30
0.0
  0
SPLINE
  5
1df
100
AcDbEntity
  8
Vector_Middle
 62
7
100
AcDbSpline
 70
8
 71
3
 72
8
 73
4
 74
0
 40
0
 40
0
 40
0
 40
0
 40
1
 40
1
 40
1
 40
1
 10
347.142217
 20
495.795883
 30
0.0
 10
347.424265
 20
496.006498
 30
0.0
 10
347.695569
 20
496.165266
 30
0.0
 10
347.970586
 20
496.282819
 30
0.0
  0
SPLINE
  5
1e0
100
AcDbEntity
  8
Vector_Middle
 62
7
100
AcDbSpline
 70
8
 71
3
 72
8
 73
4
 74
0
 40
0
 40
0
 40
0
 40
0
 40
1
 40
1
 40
1
 40
1
 10
347.970586
 20
496.282819
 30
0.0
 10
348.245546
 20
496.400457
 30
0.0
 10
348.524220
 20
496.476709
 30
0.0
 10
348.820498
 20
496.522346
 30
0.0
  0
SPLINE
  5
1e1
100
AcDbEntity
  8
Vector_Middle
 62
7
100
AcDbSpline
 70
8
 71
3
 72
8
 73
4
 74
0
 40
0
 40
0
 40
0
 40
0
 40
1
 40
1
 40
1
 40
1
 10
348.820498
 20
496.522346
 30
0.0
 10
349.116775
 20
496.567984
 30
0.0
 10
349.430712
 20
496.582724
 30
0.0
 10
349.776397
 20
496.577339
 30
0.0
  0
SPLINE
  5
1e2
100
AcDbEntity
  8
Vector_Middle
 62
7
100
AcDbSpline
 70
8
 71
3
 72
8
 73
4
 74
0
 40
0
 40
0
 40
0
 40
0
 40
1
 40
1
 40
1
 40
1
 10
349.776397
 20
496.577339
 30
0.0
 10
350.122110
 20
496.571669
 30
0.0
 10
350.499543
 20
496.546157
 30
0.0
 10
350.922813
 20
496.511008
 30
0.0
  0
LWPOLYLINE
  5
1e3
100
AcDbEntity
  8
Vector_Middle
 62
7
100
AcDbPolyline
 90
9
 70
0
 10
239.786745
 20
379.525833
 30
0.0
 10
239.786745
 20
379.525861
 30
0.0
 10
239.786745
 20
379.525861
 30
0.0
 10
239.786745
 20
379.525890
 30
0.0
 10
239.786745
 20
379.525890
 30
0.0
 10
239.786745
 20
379.525890
 30
0.0
 10
239.786745
 20
379.525918
 30
0.0
 10
239.786745
 20
379.525918
 30
0.0
 10
239.786793
 20
379.523906
 30
0.0
  0
SPLINE
  5
1e4
100
AcDbEntity
  8
Vector_Middle
 62
7
100
AcDbSpline
 70
8
 71
3
 72
8
 73
4
 74
0
 40
0
 40
0
 40
0
 40
0
 40
1
 40
1
 40
1
 40
1
 10
355.119449
 20
482.918967
 30
0.0
 10
355.162252
 20
482.005106
 30
0.0
 10
355.204772
 20
480.982422
 30
0.0
 10
355.246724
 20
479.872602
 30
0.0
  0
SPLINE
  5
1e5
100
AcDbEntity
  8
Vector_Middle
 62
7
100
AcDbSpline
 70
8
 71
3
 72
8
 73
4
 74
0
 40
0
 40
0
 40
0
 40
0
 40
1
 40
1
 40
1
 40
1
 10
355.246724
 20
479.872602
 30
0.0
 10
355.288677
 20
478.762809
 30
0.0
 10
355.330063
 20
477.565880
 30
0.0
 10
355.370032
 20
476.303528
 30
0.0
  0
SPLINE
  5
1e6
100
AcDbEntity
  8
Vector_Middle
 62
7
100
AcDbSpline
 70
8
 71
3
 72
8
 73
4
 74
0
 40
0
 40
0
 40
0
 40
0
 40
1
 40
1
 40
1
 40
1
 10
355.370032
 20
476.303528
 30
0.0
 10
355.410283
 20
475.041175
 30
0.0
 10
355.449118
 20
473.713370
 30
0.0
 10
355.486535
 20
472.341798
 30
0.0
  0
SPLINE
  5
1e7
100
AcDbEntity
  8
Vector_Middle
 62
7
100
AcDbSpline
 70
8
 71
3
 72
8
 73
4
 74
0
 40
0
 40
0
 40
0
 40
0
 40
1
 40
1
 40
1
 40
1
 10
355.486535
 20
472.341798
 30
0.0
 10
355.523953
 20
470.970255
 30
0.0
 10
355.559386
 20
469.554945
 30
0.0
 10
355.592835
 20
468.117581
 30
0.0
  0
SPLINE
  5
1e8
100
AcDbEntity
  8
Vector_Middle
 62
7
100
AcDbSpline
 70
8
 71
3
 72
8
 73
4
 74
0
 40
0
 40
0
 40
0
 40
0
 40
1
 40
1
 40
1
 40
1
 10
355.592835
 20
468.117581
 30
0.0
 10
355.626283
 20
466.680189
 30
0.0
 10
355.657465
 20
465.220743
 30
0.0
 10
355.686094
 20
463.760929
 30
0.0
  0
SPLINE
  5
1e9
100
AcDbEntity
  8
Vector_Middle
 62
7
100
AcDbSpline
 70
8
 71
3
 72
8
 73
4
 74
0
 40
0
 40
0
 40
0
 40
0
 40
1
 40
1
 40
1
 40
1
 10
355.686094
 20
463.760929
 30
0.0
 10
355.714724
 20
462.301087
 30
0.0
 10
355.740520
 20
460.840876
 30
0.0
 10
355.763480
 20
459.401953
 30
0.0
  0
SPLINE
  5
1ea
100
AcDbEntity
  8
Vector_Middle
 62
7
100
AcDbSpline
 70
8
 71
3
 72
8
 73
4
 74
0
 40
0
 40
0
 40
0
 40
0
 40
1
 40
1
 40
1
 40
1
 10
355.763480
 20
459.401953
 30
0.0
 10
355.786157
 20
457.963058
 30
0.0
 10
355.805717
 20
456.545424
 30
0.0
 10
355.821591
 20
455.170819
 30
0.0
  0
SPLINE
  5
1eb
100
AcDbEntity
  8
Vector_Middle
 62
7
100
AcDbSpline
 70
8
 71
3
 72
8
 73
4
 74
0
 40
0
 40
0
 40
0
 40
0
 40
1
 40
1
 40
1
 40
1
 10
355.821591
 20
455.170819
 30
0.0
 10
355.838598
 20
453.796186
 30
0.0
 10
355.849937
 20
452.464526
 30
0.0
 10
355.857591
 20
451.197553
 30
0.0
  0
LWPOLYLINE
  5
1ec
100
AcDbEntity
  8
Vector_Middle
 62
7
100
AcDbPolyline
 90
17
 70
0
 10
350.922813
 20
496.511008
 30
0.0
 10
351.369723
 20
496.473591
 30
0.0
 10
351.816633
 20
496.436173
 30
0.0
 10
352.263543
 20
496.398756
 30
0.0
 10
352.710454
 20
496.361339
 30
0.0
 10
353.157364
 20
496.323921
 30
0.0
 10
353.604274
 20
496.286504
 30
0.0
 10
354.051184
 20
496.249087
 30
0.0
 10
354.498094
 20
496.211669
 30
0.0
 10
354.575764
 20
494.550085
 30
0.0
 10
354.653433
 20
492.888501
 30
0.0
 10
354.731102
 20
491.226917
 30
0.0
 10
354.808772
 20
489.565304
 30
0.0
 10
354.886441
 20
487.903720
 30
0.0
 10
354.964110
 20
486.242135
 30
0.0
 10
355.041780
 20
484.580551
 30
0.0
 10
355.119449
 20
482.918967
 30
0.0
  0
SPLINE
  5
1ed
100
AcDbEntity
  8
Vector_Middle
 62
7
100
AcDbSpline
 70
8
 71
3
 72
8
 73
4
 74
0
 40
0
 40
0
 40
0
 40
0
 40
1
 40
1
 40
1
 40
1
 10
356.512450
 20
402.290050
 30
0.0
 10
356.477868
 20
400.884945
 30
0.0
 10
356.440734
 20
399.591014
 30
0.0
 10
356.400482
 20
398.401200
 30
0.0
  0
SPLINE
  5
1ee
100
AcDbEntity
  8
Vector_Middle
 62
7
100
AcDbSpline
 70
8
 71
3
 72
8
 73
4
 74
0
 40
0
 40
0
 40
0
 40
0
 40
1
 40
1
 40
1
 40
1
 10
356.400482
 20
398.401200
 30
0.0
 10
356.360230
 20
397.211357
 30
0.0
 10
356.316576
 20
396.125688
 30
0.0
 10
356.268954
 20
395.137077
 30
0.0
  0
SPLINE
  5
1ef
100
AcDbEntity
  8
Vector_Middle
 62
7
100
AcDbSpline
 70
8
 71
3
 72
8
 73
4
 74
0
 40
0
 40
0
 40
0
 40
0
 40
1
 40
1
 40
1
 40
1
 10
356.268954
 20
395.137077
 30
0.0
 10
356.221332
 20
394.148466
 30
0.0
 10
356.170025
 20
393.256913
 30
0.0
 10
356.113616
 20
392.455417
 30
0.0
  0
SPLINE
  5
1f0
100
AcDbEntity
  8
Vector_Middle
 62
7
100
AcDbSpline
 70
8
 71
3
 72
8
 73
4
 74
0
 40
0
 40
0
 40
0
 40
0
 40
1
 40
1
 40
1
 40
1
 10
356.113616
 20
392.455417
 30
0.0
 10
356.057490
 20
391.653921
 30
0.0
 10
355.996545
 20
390.942454
 30
0.0
 10
355.929931
 20
390.313956
 30
0.0
  0
SPLINE
  5
1f1
100
AcDbEntity
  8
Vector_Middle
 62
7
100
AcDbSpline
 70
8
 71
3
 72
8
 73
4
 74
0
 40
0
 40
0
 40
0
 40
0
 40
1
 40
1
 40
1
 40
1
 10
355.929931
 20
390.313956
 30
0.0
 10
355.863600
 20
389.685487
 30
0.0
 10
355.791600
 20
389.139987
 30
0.0
 10
355.713647
 20
388.670428
 30
0.0
  0
SPLINE
  5
1f2
100
AcDbEntity
  8
Vector_Middle
 62
7
100
AcDbSpline
 70
8
 71
3
 72
8
 73
4
 74
0
 40
0
 40
0
 40
0
 40
0
 40
1
 40
1
 40
1
 40
1
 10
355.713647
 20
388.670428
 30
0.0
 10
355.635694
 20
388.200898
 30
0.0
 10
355.551222
 20
387.807279
 30
0.0
 10
355.460230
 20
387.482570
 30
0.0
  0
SPLINE
  5
1f3
100
AcDbEntity
  8
Vector_Middle
 62
7
100
AcDbSpline
 70
8
 71
3
 72
8
 73
4
 74
0
 40
0
 40
0
 40
0
 40
0
 40
1
 40
1
 40
1
 40
1
 10
355.460230
 20
387.482570
 30
0.0
 10
355.368954
 20
387.157861
 30
0.0
 10
355.270876
 20
386.902035
 30
0.0
 10
355.165058
 20
386.708088
 30
0.0
  0
SPLINE
  5
1f4
100
AcDbEntity
  8
Vector_Middle
 62
7
100
AcDbSpline
 70
8
 71
3
 72
8
 73
4
 74
0
 40
0
 40
0
 40
0
 40
0
 40
1
 40
1
 40
1
 40
1
 10
355.165058
 20
386.708088
 30
0.0
 10
355.059326
 20
386.514198
 30
0.0
 10
354.945657
 20
386.381991
 30
0.0
 10
354.823710
 20
386.304690
 30
0.0
  0
SPLINE
  5
1f5
100
AcDbEntity
  8
Vector_Middle
 62
7
100
AcDbSpline
 70
8
 71
3
 72
8
 73
4
 74
0
 40
0
 40
0
 40
0
 40
0
 40
1
 40
1
 40
1
 40
1
 10
354.823710
 20
386.304690
 30
0.0
 10
354.568592
 20
386.142832
 30
0.0
 10
354.200995
 20
386.005748
 30
0.0
 10
353.750740
 20
385.892135
 30
0.0
  0
SPLINE
  5
1f6
100
AcDbEntity
  8
Vector_Middle
 62
7
100
AcDbSpline
 70
8
 71
3
 72
8
 73
4
 74
0
 40
0
 40
0
 40
0
 40
0
 40
1
 40
1
 40
1
 40
1
 10
353.750740
 20
385.892135
 30
0.0
 10
353.300457
 20
385.778466
 30
0.0
 10
352.767543
 20
385.688324
 30
0.0
 10
352.181849
 20
385.621143
 30
0.0
  0
SPLINE
  5
1f7
100
AcDbEntity
  8
Vector_Middle
 62
7
100
AcDbSpline
 70
8
 71
3
 72
8
 73
4
 74
0
 40
0
 40
0
 40
0
 40
0
 40
1
 40
1
 40
1
 40
1
 10
352.181849
 20
385.621143
 30
0.0
 10
351.596154
 20
385.553679
 30
0.0
 10
350.957679
 20
385.509175
 30
0.0
 10
350.296299
 20
385.486498
 30
0.0
  0
SPLINE
  5
1f8
100
AcDbEntity
  8
Vector_Middle
 62
7
100
AcDbSpline
 70
8
 71
3
 72
8
 73
4
 74
0
 40
0
 40
0
 40
0
 40
0
 40
1
 40
1
 40
1
 40
1
 10
350.296299
 20
385.486498
 30
0.0
 10
349.634920
 20
385.463820
 30
0.0
 10
348.950608
 20
385.463820
 30
0.0
 10
348.273241
 20
385.483663
 30
0.0
  0
SPLINE
  5
1f9
100
AcDbEntity
  8
Vector_Middle
 62
7
100
AcDbSpline
 70
8
 71
3
 72
8
 73
4
 74
0
 40
0
 40
0
 40
0
 40
0
 40
1
 40
1
 40
1
 40
1
 10
348.273241
 20
385.483663
 30
0.0
 10
347.595902
 20
385.503506
 30
0.0
 10
346.925480
 20
385.544608
 30
0.0
 10
346.291909
 20
385.605553
 30
0.0
  0
SPLINE
  5
1fa
100
AcDbEntity
  8
Vector_Middle
 62
7
100
AcDbSpline
 70
8
 71
3
 72
8
 73
4
 74
0
 40
0
 40
0
 40
0
 40
0
 40
1
 40
1
 40
1
 40
1
 10
346.291909
 20
385.605553
 30
0.0
 10
345.658309
 20
385.666498
 30
0.0
 10
345.061559
 20
385.747569
 30
0.0
 10
344.531480
 20
385.847915
 30
0.0
  0
SPLINE
  5
1fb
100
AcDbEntity
  8
Vector_Middle
 62
7
100
AcDbSpline
 70
8
 71
3
 72
8
 73
4
 74
0
 40
0
 40
0
 40
0
 40
0
 40
1
 40
1
 40
1
 40
1
 10
344.531480
 20
385.847915
 30
0.0
 10
344.001402
 20
385.948261
 30
0.0
 10
343.537994
 20
386.067600
 30
0.0
 10
343.171134
 20
386.205364
 30
0.0
  0
SPLINE
  5
1fc
100
AcDbEntity
  8
Vector_Middle
 62
7
100
AcDbSpline
 70
8
 71
3
 72
8
 73
4
 74
0
 40
0
 40
0
 40
0
 40
0
 40
1
 40
1
 40
1
 40
1
 10
343.171134
 20
386.205364
 30
0.0
 10
342.804302
 20
386.343128
 30
0.0
 10
342.534019
 20
386.499175
 30
0.0
 10
342.390132
 20
386.672655
 30
0.0
  0
LWPOLYLINE
  5
1fd
100
AcDbEntity
  8
Vector_Middle
 62
7
100
AcDbPolyline
 90
65
 70
0
 10
355.857591
 20
451.197553
 30
0.0
 10
355.871764
 20
448.893950
 30
0.0
 10
355.885937
 20
446.590375
 30
0.0
 10
355.900110
 20
444.286772
 30
0.0
 10
355.914283
 20
441.983169
 30
0.0
 10
355.928457
 20
439.679594
 30
0.0
 10
355.942630
 20
437.375991
 30
0.0
 10
355.956803
 20
435.072416
 30
0.0
 10
355.970976
 20
432.768813
 30
0.0
 10
357.294104
 20
432.733946
 30
0.0
 10
358.617203
 20
432.699080
 30
0.0
 10
359.940331
 20
432.664214
 30
0.0
 10
361.263430
 20
432.629348
 30
0.0
 10
362.586557
 20
432.594482
 30
0.0
 10
363.909657
 20
432.559616
 30
0.0
 10
365.232784
 20
432.524750
 30
0.0
 10
366.555883
 20
432.489883
 30
0.0
 10
367.878983
 20
432.455017
 30
0.0
 10
369.202110
 20
432.420151
 30
0.0
 10
370.525209
 20
432.385285
 30
0.0
 10
371.848337
 20
432.350419
 30
0.0
 10
373.171436
 20
432.315553
 30
0.0
 10
374.494564
 20
432.280687
 30
0.0
 10
375.817663
 20
432.245820
 30
0.0
 10
377.140791
 20
432.210954
 30
0.0
 10
377.140791
 20
431.349392
 30
0.0
 10
377.140791
 20
430.487830
 30
0.0
 10
377.140791
 20
429.626268
 30
0.0
 10
377.140791
 20
428.764706
 30
0.0
 10
377.140791
 20
427.903143
 30
0.0
 10
377.140791
 20
427.041581
 30
0.0
 10
377.140791
 20
426.180019
 30
0.0
 10
377.140791
 20
425.318457
 30
0.0
 10
377.140791
 20
424.456894
 30
0.0
 10
377.140791
 20
423.595332
 30
0.0
 10
377.140791
 20
422.733770
 30
0.0
 10
377.140791
 20
421.872180
 30
0.0
 10
377.140791
 20
421.010617
 30
0.0
 10
377.140791
 20
420.149055
 30
0.0
 10
377.140791
 20
419.287493
 30
0.0
 10
377.140791
 20
418.425931
 30
0.0
 10
375.874894
 20
418.364419
 30
0.0
 10
374.609027
 20
418.302907
 30
0.0
 10
373.343131
 20
418.241395
 30
0.0
 10
372.077235
 20
418.179883
 30
0.0
 10
370.811367
 20
418.118372
 30
0.0
 10
369.545471
 20
418.056860
 30
0.0
 10
368.279603
 20
417.995348
 30
0.0
 10
367.013707
 20
417.933836
 30
0.0
 10
365.747811
 20
417.872324
 30
0.0
 10
364.481943
 20
417.810813
 30
0.0
 10
363.216047
 20
417.749301
 30
0.0
 10
361.950180
 20
417.687789
 30
0.0
 10
360.684283
 20
417.626277
 30
0.0
 10
359.418387
 20
417.564765
 30
0.0
 10
358.152520
 20
417.503254
 30
0.0
 10
356.886624
 20
417.441742
 30
0.0
 10
356.839852
 20
415.547773
 30
0.0
 10
356.793080
 20
413.653805
 30
0.0
 10
356.746309
 20
411.759865
 30
0.0
 10
356.699537
 20
409.865896
 30
0.0
 10
356.652765
 20
407.971928
 30
0.0
 10
356.605994
 20
406.077959
 30
0.0
 10
356.559222
 20
404.184019
 30
0.0
 10
356.512450
 20
402.290050
 30
0.0
  0
SPLINE
  5
1fe
100
AcDbEntity
  8
Vector_Middle
 62
7
100
AcDbSpline
 70
8
 71
3
 72
8
 73
4
 74
0
 40
0
 40
0
 40
0
 40
0
 40
1
 40
1
 40
1
 40
1
 10
339.235710
 20
455.431720
 30
0.0
 10
339.235710
 20
456.994318
 30
0.0
 10
339.230041
 20
458.519102
 30
0.0
 10
339.218702
 20
459.990765
 30
0.0
  0
SPLINE
  5
1ff
100
AcDbEntity
  8
Vector_Middle
 62
7
100
AcDbSpline
 70
8
 71
3
 72
8
 73
4
 74
0
 40
0
 40
0
 40
0
 40
0
 40
1
 40
1
 40
1
 40
1
 10
339.218702
 20
459.990765
 30
0.0
 10
339.207364
 20
461.462400
 30
0.0
 10
339.190356
 20
462.880913
 30
0.0
 10
339.169380
 20
464.230998
 30
0.0
  0
SPLINE
  5
200
100
AcDbEntity
  8
Vector_Middle
 62
7
100
AcDbSpline
 70
8
 71
3
 72
8
 73
4
 74
0
 40
0
 40
0
 40
0
 40
0
 40
1
 40
1
 40
1
 40
1
 10
339.169380
 20
464.230998
 30
0.0
 10
339.146702
 20
465.581055
 30
0.0
 10
339.121757
 20
466.862683
 30
0.0
 10
339.091143
 20
468.060548
 30
0.0
  0
SPLINE
  5
201
100
AcDbEntity
  8
Vector_Middle
 62
7
100
AcDbSpline
 70
8
 71
3
 72
8
 73
4
 74
0
 40
0
 40
0
 40
0
 40
0
 40
1
 40
1
 40
1
 40
1
 10
339.091143
 20
468.060548
 30
0.0
 10
339.060529
 20
469.258413
 30
0.0
 10
339.025946
 20
470.372513
 30
0.0
 10
338.987679
 20
471.387543
 30
0.0
  0
SPLINE
  5
202
100
AcDbEntity
  8
Vector_Middle
 62
7
100
AcDbSpline
 70
8
 71
3
 72
8
 73
4
 74
0
 40
0
 40
0
 40
0
 40
0
 40
1
 40
1
 40
1
 40
1
 10
338.987679
 20
471.387543
 30
0.0
 10
338.949411
 20
472.402573
 30
0.0
 10
338.907458
 20
473.318532
 30
0.0
 10
338.862387
 20
474.120085
 30
0.0
  0
SPLINE
  5
203
100
AcDbEntity
  8
Vector_Middle
 62
7
100
AcDbSpline
 70
8
 71
3
 72
8
 73
4
 74
0
 40
0
 40
0
 40
0
 40
0
 40
1
 40
1
 40
1
 40
1
 10
338.862387
 20
474.120085
 30
0.0
 10
338.817317
 20
474.921666
 30
0.0
 10
338.769411
 20
475.608841
 30
0.0
 10
338.718954
 20
476.166331
 30
0.0
  0
SPLINE
  5
204
100
AcDbEntity
  8
Vector_Middle
 62
7
100
AcDbSpline
 70
8
 71
3
 72
8
 73
4
 74
0
 40
0
 40
0
 40
0
 40
0
 40
1
 40
1
 40
1
 40
1
 10
338.718954
 20
476.166331
 30
0.0
 10
338.668498
 20
476.723820
 30
0.0
 10
338.615490
 20
477.151597
 30
0.0
 10
338.560498
 20
477.434353
 30
0.0
  0
SPLINE
  5
205
100
AcDbEntity
  8
Vector_Middle
 62
7
100
AcDbSpline
 70
8
 71
3
 72
8
 73
4
 74
0
 40
0
 40
0
 40
0
 40
0
 40
1
 40
1
 40
1
 40
1
 10
338.560498
 20
477.434353
 30
0.0
 10
338.505506
 20
477.717250
 30
0.0
 10
338.448813
 20
477.854901
 30
0.0
 10
338.390702
 20
477.832337
 30
0.0
  0
SPLINE
  5
206
100
AcDbEntity
  8
Vector_Middle
 62
7
100
AcDbSpline
 70
8
 71
3
 72
8
 73
4
 74
0
 40
0
 40
0
 40
0
 40
0
 40
1
 40
1
 40
1
 40
1
 10
338.390702
 20
477.832337
 30
0.0
 10
338.332592
 20
477.809660
 30
0.0
 10
338.210702
 20
477.702510
 30
0.0
 10
338.032233
 20
477.519137
 30
0.0
  0
SPLINE
  5
207
100
AcDbEntity
  8
Vector_Middle
 62
7
100
AcDbSpline
 70
8
 71
3
 72
8
 73
4
 74
0
 40
0
 40
0
 40
0
 40
0
 40
1
 40
1
 40
1
 40
1
 10
338.032233
 20
477.519137
 30
0.0
 10
337.853650
 20
477.335735
 30
0.0
 10
337.618233
 20
477.076195
 30
0.0
 10
337.332926
 20
476.748992
 30
0.0
  0
SPLINE
  5
208
100
AcDbEntity
  8
Vector_Middle
 62
7
100
AcDbSpline
 70
8
 71
3
 72
8
 73
4
 74
0
 40
0
 40
0
 40
0
 40
0
 40
1
 40
1
 40
1
 40
1
 10
337.332926
 20
476.748992
 30
0.0
 10
337.047619
 20
476.421789
 30
0.0
 10
336.712422
 20
476.026923
 30
0.0
 10
336.334224
 20
475.572898
 30
0.0
  0
SPLINE
  5
209
100
AcDbEntity
  8
Vector_Middle
 62
7
100
AcDbSpline
 70
8
 71
3
 72
8
 73
4
 74
0
 40
0
 40
0
 40
0
 40
0
 40
1
 40
1
 40
1
 40
1
 10
336.334224
 20
475.572898
 30
0.0
 10
335.955997
 20
475.118901
 30
0.0
 10
335.534797
 20
474.605745
 30
0.0
 10
335.077483
 20
474.041934
 30
0.0
  0
SPLINE
  5
20a
100
AcDbEntity
  8
Vector_Middle
 62
7
100
AcDbSpline
 70
8
 71
3
 72
8
 73
4
 74
0
 40
0
 40
0
 40
0
 40
0
 40
1
 40
1
 40
1
 40
1
 10
335.077483
 20
474.041934
 30
0.0
 10
334.620142
 20
473.478151
 30
0.0
 10
334.126715
 20
472.863713
 30
0.0
 10
333.604091
 20
472.207124
 30
0.0
  0
SPLINE
  5
20b
100
AcDbEntity
  8
Vector_Middle
 62
7
100
AcDbSpline
 70
8
 71
3
 72
8
 73
4
 74
0
 40
0
 40
0
 40
0
 40
0
 40
1
 40
1
 40
1
 40
1
 10
333.604091
 20
472.207124
 30
0.0
 10
333.081468
 20
471.550535
 30
0.0
 10
332.529619
 20
470.851824
 30
0.0
 10
331.955490
 20
470.119465
 30
0.0
  0
SPLINE
  5
20c
100
AcDbEntity
  8
Vector_Middle
 62
7
100
AcDbSpline
 70
8
 71
3
 72
8
 73
4
 74
0
 40
0
 40
0
 40
0
 40
0
 40
1
 40
1
 40
1
 40
1
 10
331.955490
 20
470.119465
 30
0.0
 10
331.381332
 20
469.387134
 30
0.0
 10
330.784866
 20
468.621156
 30
0.0
 10
330.173008
 20
467.830035
 30
0.0
  0
SPLINE
  5
20d
100
AcDbEntity
  8
Vector_Middle
 62
7
100
AcDbSpline
 70
8
 71
3
 72
8
 73
4
 74
0
 40
0
 40
0
 40
0
 40
0
 40
1
 40
1
 40
1
 40
1
 10
330.173008
 20
467.830035
 30
0.0
 10
329.561150
 20
467.038913
 30
0.0
 10
328.933899
 20
466.222677
 30
0.0
 10
328.298117
 20
465.389830
 30
0.0
  0
SPLINE
  5
20e
100
AcDbEntity
  8
Vector_Middle
 62
7
100
AcDbSpline
 70
8
 71
3
 72
8
 73
4
 74
0
 40
0
 40
0
 40
0
 40
0
 40
1
 40
1
 40
1
 40
1
 10
328.298117
 20
465.389830
 30
0.0
 10
325.655348
 20
461.927820
 30
0.0
 10
323.321074
 20
458.868983
 30
0.0
 10
321.259465
 20
456.164787
 30
0.0
  0
SPLINE
  5
20f
100
AcDbEntity
  8
Vector_Middle
 62
7
100
AcDbSpline
 70
8
 71
3
 72
8
 73
4
 74
0
 40
0
 40
0
 40
0
 40
0
 40
1
 40
1
 40
1
 40
1
 10
321.259465
 20
456.164787
 30
0.0
 10
319.197855
 20
453.460564
 30
0.0
 10
317.408910
 20
451.110983
 30
0.0
 10
315.856828
 20
449.067515
 30
0.0
  0
SPLINE
  5
210
100
AcDbEntity
  8
Vector_Middle
 62
7
100
AcDbSpline
 70
8
 71
3
 72
8
 73
4
 74
0
 40
0
 40
0
 40
0
 40
0
 40
1
 40
1
 40
1
 40
1
 10
315.856828
 20
449.067515
 30
0.0
 10
314.304718
 20
447.024019
 30
0.0
 10
312.989443
 20
445.286636
 30
0.0
 10
311.875200
 20
443.806838
 30
0.0
  0
SPLINE
  5
211
100
AcDbEntity
  8
Vector_Middle
 62
7
100
AcDbSpline
 70
8
 71
3
 72
8
 73
4
 74
0
 40
0
 40
0
 40
0
 40
0
 40
1
 40
1
 40
1
 40
1
 10
311.875200
 20
443.806838
 30
0.0
 10
310.760957
 20
442.327011
 30
0.0
 10
309.847691
 20
441.104769
 30
0.0
 10
309.099628
 20
440.091581
 30
0.0
  0
SPLINE
  5
212
100
AcDbEntity
  8
Vector_Middle
 62
7
100
AcDbSpline
 70
8
 71
3
 72
8
 73
4
 74
0
 40
0
 40
0
 40
0
 40
0
 40
1
 40
1
 40
1
 40
1
 10
309.099628
 20
440.091581
 30
0.0
 10
308.351537
 20
439.078365
 30
0.0
 10
307.768649
 20
438.274176
 30
0.0
 10
307.315077
 20
437.630513
 30
0.0
  0
SPLINE
  5
213
100
AcDbEntity
  8
Vector_Middle
 62
7
100
AcDbSpline
 70
8
 71
3
 72
8
 73
4
 74
0
 40
0
 40
0
 40
0
 40
0
 40
1
 40
1
 40
1
 40
1
 10
307.315077
 20
437.630513
 30
0.0
 10
306.861506
 20
436.986850
 30
0.0
 10
306.537307
 20
436.503685
 30
0.0
 10
306.306595
 20
436.132488
 30
0.0
  0
SPLINE
  5
214
100
AcDbEntity
  8
Vector_Middle
 62
7
100
AcDbSpline
 70
8
 71
3
 72
8
 73
4
 74
0
 40
0
 40
0
 40
0
 40
0
 40
1
 40
1
 40
1
 40
1
 10
306.306595
 20
436.132488
 30
0.0
 10
306.075855
 20
435.761320
 30
0.0
 10
305.938658
 20
435.502091
 30
0.0
 10
305.859146
 20
435.306331
 30
0.0
  0
SPLINE
  5
215
100
AcDbEntity
  8
Vector_Middle
 62
7
100
AcDbSpline
 70
8
 71
3
 72
8
 73
4
 74
0
 40
0
 40
0
 40
0
 40
0
 40
1
 40
1
 40
1
 40
1
 10
305.859146
 20
435.306331
 30
0.0
 10
305.779776
 20
435.110457
 30
0.0
 10
305.757666
 20
434.978192
 30
0.0
 10
305.757666
 20
434.860781
 30
0.0
  0
SPLINE
  5
216
100
AcDbEntity
  8
Vector_Middle
 62
7
100
AcDbSpline
 70
8
 71
3
 72
8
 73
4
 74
0
 40
0
 40
0
 40
0
 40
0
 40
1
 40
1
 40
1
 40
1
 10
305.757666
 20
434.860781
 30
0.0
 10
305.757666
 20
434.800120
 30
0.0
 10
305.852627
 20
434.739742
 30
0.0
 10
306.033477
 20
434.679647
 30
0.0
  0
SPLINE
  5
217
100
AcDbEntity
  8
Vector_Middle
 62
7
100
AcDbSpline
 70
8
 71
3
 72
8
 73
4
 74
0
 40
0
 40
0
 40
0
 40
0
 40
1
 40
1
 40
1
 40
1
 10
306.033477
 20
434.679647
 30
0.0
 10
306.214328
 20
434.619553
 30
0.0
 10
306.481068
 20
434.560309
 30
0.0
 10
306.824343
 20
434.502482
 30
0.0
  0
SPLINE
  5
218
100
AcDbEntity
  8
Vector_Middle
 62
7
100
AcDbSpline
 70
8
 71
3
 72
8
 73
4
 74
0
 40
0
 40
0
 40
0
 40
0
 40
1
 40
1
 40
1
 40
1
 10
306.824343
 20
434.502482
 30
0.0
 10
307.167619
 20
434.444655
 30
0.0
 10
307.587487
 20
434.387962
 30
0.0
 10
308.074706
 20
434.333537
 30
0.0
  0
SPLINE
  5
219
100
AcDbEntity
  8
Vector_Middle
 62
7
100
AcDbSpline
 70
8
 71
3
 72
8
 73
4
 74
0
 40
0
 40
0
 40
0
 40
0
 40
1
 40
1
 40
1
 40
1
 10
308.074706
 20
434.333537
 30
0.0
 10
308.561896
 20
434.279112
 30
0.0
 10
309.116438
 20
434.226954
 30
0.0
 10
309.729061
 20
434.177348
 30
0.0
  0
SPLINE
  5
21a
100
AcDbEntity
  8
Vector_Middle
 62
7
100
AcDbSpline
 70
8
 71
3
 72
8
 73
4
 74
0
 40
0
 40
0
 40
0
 40
0
 40
1
 40
1
 40
1
 40
1
 10
309.729061
 20
434.177348
 30
0.0
 10
310.341685
 20
434.128025
 30
0.0
 10
311.012419
 20
434.081537
 30
0.0
 10
311.731994
 20
434.038450
 30
0.0
  0
SPLINE
  5
21b
100
AcDbEntity
  8
Vector_Middle
 62
7
100
AcDbSpline
 70
8
 71
3
 72
8
 73
4
 74
0
 40
0
 40
0
 40
0
 40
0
 40
1
 40
1
 40
1
 40
1
 10
311.731994
 20
434.038450
 30
0.0
 10
312.451569
 20
433.995647
 30
0.0
 10
313.220013
 20
433.956246
 30
0.0
 10
314.028057
 20
433.921380
 30
0.0
  0
SPLINE
  5
21c
100
AcDbEntity
  8
Vector_Middle
 62
7
100
AcDbSpline
 70
8
 71
3
 72
8
 73
4
 74
0
 40
0
 40
0
 40
0
 40
0
 40
1
 40
1
 40
1
 40
1
 10
314.028057
 20
433.921380
 30
0.0
 10
314.836101
 20
433.886513
 30
0.0
 10
315.683745
 20
433.855899
 30
0.0
 10
316.561748
 20
433.830671
 30
0.0
  0
SPLINE
  5
21d
100
AcDbEntity
  8
Vector_Middle
 62
7
100
AcDbSpline
 70
8
 71
3
 72
8
 73
4
 74
0
 40
0
 40
0
 40
0
 40
0
 40
1
 40
1
 40
1
 40
1
 10
316.561748
 20
433.830671
 30
0.0
 10
317.439780
 20
433.805159
 30
0.0
 10
318.348170
 20
433.785033
 30
0.0
 10
319.277679
 20
433.770576
 30
0.0
  0
SPLINE
  5
21e
100
AcDbEntity
  8
Vector_Middle
 62
7
100
AcDbSpline
 70
8
 71
3
 72
8
 73
4
 74
0
 40
0
 40
0
 40
0
 40
0
 40
1
 40
1
 40
1
 40
1
 10
319.277679
 20
433.770576
 30
0.0
 10
320.207187
 20
433.756403
 30
0.0
 10
321.105600
 20
433.733443
 30
0.0
 10
321.968268
 20
433.704813
 30
0.0
  0
SPLINE
  5
21f
100
AcDbEntity
  8
Vector_Middle
 62
7
100
AcDbSpline
 70
8
 71
3
 72
8
 73
4
 74
0
 40
0
 40
0
 40
0
 40
0
 40
1
 40
1
 40
1
 40
1
 10
321.968268
 20
433.704813
 30
0.0
 10
322.830935
 20
433.676183
 30
0.0
 10
323.657830
 20
433.641317
 30
0.0
 10
324.444302
 20
433.602765
 30
0.0
  0
SPLINE
  5
220
100
AcDbEntity
  8
Vector_Middle
 62
7
100
AcDbSpline
 70
8
 71
3
 72
8
 73
4
 74
0
 40
0
 40
0
 40
0
 40
0
 40
1
 40
1
 40
1
 40
1
 10
324.444302
 20
433.602765
 30
0.0
 10
325.230775
 20
433.564214
 30
0.0
 10
325.976825
 20
433.521694
 30
0.0
 10
326.677776
 20
433.477757
 30
0.0
  0
SPLINE
  5
221
100
AcDbEntity
  8
Vector_Middle
 62
7
100
AcDbSpline
 70
8
 71
3
 72
8
 73
4
 74
0
 40
0
 40
0
 40
0
 40
0
 40
1
 40
1
 40
1
 40
1
 10
326.677776
 20
433.477757
 30
0.0
 10
327.378756
 20
433.433820
 30
0.0
 10
328.034608
 20
433.387899
 30
0.0
 10
328.640712
 20
433.342828
 30
0.0
  0
SPLINE
  5
222
100
AcDbEntity
  8
Vector_Middle
 62
7
100
AcDbSpline
 70
8
 71
3
 72
8
 73
4
 74
0
 40
0
 40
0
 40
0
 40
0
 40
1
 40
1
 40
1
 40
1
 10
328.640712
 20
433.342828
 30
0.0
 10
329.246816
 20
433.297757
 30
0.0
 10
329.803172
 20
433.252970
 30
0.0
 10
330.305102
 20
433.211017
 30
0.0
  0
SPLINE
  5
223
100
AcDbEntity
  8
Vector_Middle
 62
7
100
AcDbSpline
 70
8
 71
3
 72
8
 73
4
 74
0
 40
0
 40
0
 40
0
 40
0
 40
1
 40
1
 40
1
 40
1
 10
330.305102
 20
433.211017
 30
0.0
 10
330.807005
 20
433.169065
 30
0.0
 10
331.254510
 20
433.129946
 30
0.0
 10
331.642885
 20
433.095647
 30
0.0
  0
SPLINE
  5
224
100
AcDbEntity
  8
Vector_Middle
 62
7
100
AcDbSpline
 70
8
 71
3
 72
8
 73
4
 74
0
 40
0
 40
0
 40
0
 40
0
 40
1
 40
1
 40
1
 40
1
 10
331.642885
 20
433.095647
 30
0.0
 10
332.031288
 20
433.061348
 30
0.0
 10
332.360589
 20
433.031868
 30
0.0
 10
332.626139
 20
433.009757
 30
0.0
  0
SPLINE
  5
225
100
AcDbEntity
  8
Vector_Middle
 62
7
100
AcDbSpline
 70
8
 71
3
 72
8
 73
4
 74
0
 40
0
 40
0
 40
0
 40
0
 40
1
 40
1
 40
1
 40
1
 10
332.626139
 20
433.009757
 30
0.0
 10
332.891745
 20
432.987080
 30
0.0
 10
333.093458
 20
432.972340
 30
0.0
 10
333.226800
 20
432.966387
 30
0.0
  0
SPLINE
  5
226
100
AcDbEntity
  8
Vector_Middle
 62
7
100
AcDbSpline
 70
8
 71
3
 72
8
 73
4
 74
0
 40
0
 40
0
 40
0
 40
0
 40
1
 40
1
 40
1
 40
1
 10
333.226800
 20
432.966387
 30
0.0
 10
333.392627
 20
432.957883
 30
0.0
 10
333.543742
 20
432.949380
 30
0.0
 10
333.684113
 20
432.938041
 30
0.0
  0
SPLINE
  5
227
100
AcDbEntity
  8
Vector_Middle
 62
7
100
AcDbSpline
 70
8
 71
3
 72
8
 73
4
 74
0
 40
0
 40
0
 40
0
 40
0
 40
1
 40
1
 40
1
 40
1
 10
333.684113
 20
432.938041
 30
0.0
 10
333.824428
 20
432.926702
 30
0.0
 10
333.954255
 20
432.915364
 30
0.0
 10
334.077080
 20
432.900340
 30
0.0
  0
SPLINE
  5
228
100
AcDbEntity
  8
Vector_Middle
 62
7
100
AcDbSpline
 70
8
 71
3
 72
8
 73
4
 74
0
 40
0
 40
0
 40
0
 40
0
 40
1
 40
1
 40
1
 40
1
 10
334.077080
 20
432.900340
 30
0.0
 10
334.200104
 20
432.886167
 30
0.0
 10
334.316324
 20
432.871994
 30
0.0
 10
334.430022
 20
432.857254
 30
0.0
  0
SPLINE
  5
229
100
AcDbEntity
  8
Vector_Middle
 62
7
100
AcDbSpline
 70
8
 71
3
 72
8
 73
4
 74
0
 40
0
 40
0
 40
0
 40
0
 40
1
 40
1
 40
1
 40
1
 10
334.430022
 20
432.857254
 30
0.0
 10
334.543691
 20
432.843080
 30
0.0
 10
334.654809
 20
432.827490
 30
0.0
 10
334.767260
 20
432.812750
 30
0.0
  0
SPLINE
  5
22a
100
AcDbEntity
  8
Vector_Middle
 62
7
100
AcDbSpline
 70
8
 71
3
 72
8
 73
4
 74
0
 40
0
 40
0
 40
0
 40
0
 40
1
 40
1
 40
1
 40
1
 10
334.767260
 20
432.812750
 30
0.0
 10
334.879795
 20
432.798576
 30
0.0
 10
334.993748
 20
432.784120
 30
0.0
 10
335.113087
 20
432.771080
 30
0.0
  0
SPLINE
  5
22b
100
AcDbEntity
  8
Vector_Middle
 62
7
100
AcDbSpline
 70
8
 71
3
 72
8
 73
4
 74
0
 40
0
 40
0
 40
0
 40
0
 40
1
 40
1
 40
1
 40
1
 10
335.113087
 20
432.771080
 30
0.0
 10
335.232425
 20
432.756907
 30
0.0
 10
335.357433
 20
432.745569
 30
0.0
 10
335.491880
 20
432.736214
 30
0.0
  0
SPLINE
  5
22c
100
AcDbEntity
  8
Vector_Middle
 62
7
100
AcDbSpline
 70
8
 71
3
 72
8
 73
4
 74
0
 40
0
 40
0
 40
0
 40
0
 40
1
 40
1
 40
1
 40
1
 10
335.491880
 20
432.736214
 30
0.0
 10
335.626243
 20
432.724876
 30
0.0
 10
335.770243
 20
432.719206
 30
0.0
 10
335.927934
 20
432.713537
 30
0.0
  0
SPLINE
  5
22d
100
AcDbEntity
  8
Vector_Middle
 62
7
100
AcDbSpline
 70
8
 71
3
 72
8
 73
4
 74
0
 40
0
 40
0
 40
0
 40
0
 40
1
 40
1
 40
1
 40
1
 10
335.927934
 20
432.713537
 30
0.0
 10
336.085540
 20
432.707868
 30
0.0
 10
336.256724
 20
432.705033
 30
0.0
 10
336.445569
 20
432.705033
 30
0.0
  0
LWPOLYLINE
  5
22e
100
AcDbEntity
  8
Vector_Middle
 62
7
100
AcDbPolyline
 90
9
 70
0
 10
342.390132
 20
386.672655
 30
0.0
 10
342.390161
 20
386.672655
 30
0.0
 10
342.390161
 20
386.672655
 30
0.0
 10
342.390189
 20
386.672683
 30
0.0
 10
342.390189
 20
386.672683
 30
0.0
 10
342.390217
 20
386.672683
 30
0.0
 10
342.390217
 20
386.672683
 30
0.0
 10
342.390246
 20
386.672712
 30
0.0
 10
342.394639
 20
386.670813
 30
0.0
  0
SPLINE
  5
22f
100
AcDbEntity
  8
Vector_Middle
 62
7
100
AcDbSpline
 70
8
 71
3
 72
8
 73
4
 74
0
 40
0
 40
0
 40
0
 40
0
 40
1
 40
1
 40
1
 40
1
 10
384.713858
 20
417.672085
 30
0.0
 10
384.739370
 20
417.807581
 30
0.0
 10
384.784157
 20
417.939392
 30
0.0
 10
384.846236
 20
418.066526
 30
0.0
  0
SPLINE
  5
230
100
AcDbEntity
  8
Vector_Middle
 62
7
100
AcDbSpline
 70
8
 71
3
 72
8
 73
4
 74
0
 40
0
 40
0
 40
0
 40
0
 40
1
 40
1
 40
1
 40
1
 10
384.846236
 20
418.066526
 30
0.0
 10
384.908032
 20
418.193802
 30
0.0
 10
384.987402
 20
418.316825
 30
0.0
 10
385.083496
 20
418.434775
 30
0.0
  0
SPLINE
  5
231
100
AcDbEntity
  8
Vector_Middle
 62
7
100
AcDbSpline
 70
8
 71
3
 72
8
 73
4
 74
0
 40
0
 40
0
 40
0
 40
0
 40
1
 40
1
 40
1
 40
1
 10
385.083496
 20
418.434775
 30
0.0
 10
385.179591
 20
418.552980
 30
0.0
 10
385.292693
 20
418.666082
 30
0.0
 10
385.421669
 20
418.774252
 30
0.0
  0
SPLINE
  5
232
100
AcDbEntity
  8
Vector_Middle
 62
7
100
AcDbSpline
 70
8
 71
3
 72
8
 73
4
 74
0
 40
0
 40
0
 40
0
 40
0
 40
1
 40
1
 40
1
 40
1
 10
385.421669
 20
418.774252
 30
0.0
 10
385.550646
 20
418.882252
 30
0.0
 10
385.696063
 20
418.985150
 30
0.0
 10
385.856504
 20
419.082435
 30
0.0
  0
SPLINE
  5
233
100
AcDbEntity
  8
Vector_Middle
 62
7
100
AcDbSpline
 70
8
 71
3
 72
8
 73
4
 74
0
 40
0
 40
0
 40
0
 40
0
 40
1
 40
1
 40
1
 40
1
 10
385.856504
 20
419.082435
 30
0.0
 10
386.016945
 20
419.179663
 30
0.0
 10
386.193090
 20
419.271222
 30
0.0
 10
386.383805
 20
419.356828
 30
0.0
  0
SPLINE
  5
234
100
AcDbEntity
  8
Vector_Middle
 62
7
100
AcDbSpline
 70
8
 71
3
 72
8
 73
4
 74
0
 40
0
 40
0
 40
0
 40
0
 40
1
 40
1
 40
1
 40
1
 10
386.383805
 20
419.356828
 30
0.0
 10
386.574576
 20
419.442435
 30
0.0
 10
386.779946
 20
419.521805
 30
0.0
 10
386.999376
 20
419.594655
 30
0.0
  0
SPLINE
  5
235
100
AcDbEntity
  8
Vector_Middle
 62
7
100
AcDbSpline
 70
8
 71
3
 72
8
 73
4
 74
0
 40
0
 40
0
 40
0
 40
0
 40
1
 40
1
 40
1
 40
1
 10
386.999376
 20
419.594655
 30
0.0
 10
387.218778
 20
419.667506
 30
0.0
 10
387.452239
 20
419.734120
 30
0.0
 10
387.698995
 20
419.793647
 30
0.0
  0
SPLINE
  5
236
100
AcDbEntity
  8
Vector_Middle
 62
7
100
AcDbSpline
 70
8
 71
3
 72
8
 73
4
 74
0
 40
0
 40
0
 40
0
 40
0
 40
1
 40
1
 40
1
 40
1
 10
387.698995
 20
419.793647
 30
0.0
 10
387.945893
 20
419.853175
 30
0.0
 10
388.205830
 20
419.905899
 30
0.0
 10
388.478494
 20
419.951254
 30
0.0
  0
SPLINE
  5
237
100
AcDbEntity
  8
Vector_Middle
 62
7
100
AcDbSpline
 70
8
 71
3
 72
8
 73
4
 74
0
 40
0
 40
0
 40
0
 40
0
 40
1
 40
1
 40
1
 40
1
 10
388.478494
 20
419.951254
 30
0.0
 10
389.138598
 20
420.060954
 30
0.0
 10
389.750740
 20
420.182277
 30
0.0
 10
390.320957
 20
420.319502
 30
0.0
  0
SPLINE
  5
238
100
AcDbEntity
  8
Vector_Middle
 62
7
100
AcDbSpline
 70
8
 71
3
 72
8
 73
4
 74
0
 40
0
 40
0
 40
0
 40
0
 40
1
 40
1
 40
1
 40
1
 10
390.320957
 20
420.319502
 30
0.0
 10
390.891175
 20
420.456699
 30
0.0
 10
391.419468
 20
420.609940
 30
0.0
 10
391.911874
 20
420.783506
 30
0.0
  0
SPLINE
  5
239
100
AcDbEntity
  8
Vector_Middle
 62
7
100
AcDbSpline
 70
8
 71
3
 72
8
 73
4
 74
0
 40
0
 40
0
 40
0
 40
0
 40
1
 40
1
 40
1
 40
1
 10
391.911874
 20
420.783506
 30
0.0
 10
392.404309
 20
420.956986
 30
0.0
 10
392.860857
 20
421.151017
 30
0.0
 10
393.287556
 20
421.369739
 30
0.0
  0
SPLINE
  5
23a
100
AcDbEntity
  8
Vector_Middle
 62
7
100
AcDbSpline
 70
8
 71
3
 72
8
 73
4
 74
0
 40
0
 40
0
 40
0
 40
0
 40
1
 40
1
 40
1
 40
1
 10
393.287556
 20
421.369739
 30
0.0
 10
393.714255
 20
421.588573
 30
0.0
 10
394.111106
 20
421.831984
 30
0.0
 10
394.484173
 20
422.104706
 30
0.0
  0
SPLINE
  5
23b
100
AcDbEntity
  8
Vector_Middle
 62
7
100
AcDbSpline
 70
8
 71
3
 72
8
 73
4
 74
0
 40
0
 40
0
 40
0
 40
0
 40
1
 40
1
 40
1
 40
1
 10
394.484173
 20
422.104706
 30
0.0
 10
394.857213
 20
422.377398
 30
0.0
 10
395.206498
 20
422.679345
 30
0.0
 10
395.537981
 20
423.014882
 30
0.0
  0
SPLINE
  5
23c
100
AcDbEntity
  8
Vector_Middle
 62
7
100
AcDbSpline
 70
8
 71
3
 72
8
 73
4
 74
0
 40
0
 40
0
 40
0
 40
0
 40
1
 40
1
 40
1
 40
1
 10
395.537981
 20
423.014882
 30
0.0
 10
395.869493
 20
423.350419
 30
0.0
 10
396.183260
 20
423.719603
 30
0.0
 10
396.485263
 20
424.126800
 30
0.0
  0
SPLINE
  5
23d
100
AcDbEntity
  8
Vector_Middle
 62
7
100
AcDbSpline
 70
8
 71
3
 72
8
 73
4
 74
0
 40
0
 40
0
 40
0
 40
0
 40
1
 40
1
 40
1
 40
1
 10
396.485263
 20
424.126800
 30
0.0
 10
396.787294
 20
424.533997
 30
0.0
 10
397.077619
 20
424.979235
 30
0.0
 10
397.362246
 20
425.466935
 30
0.0
  0
SPLINE
  5
23e
100
AcDbEntity
  8
Vector_Middle
 62
7
100
AcDbSpline
 70
8
 71
3
 72
8
 73
4
 74
0
 40
0
 40
0
 40
0
 40
0
 40
1
 40
1
 40
1
 40
1
 10
397.362246
 20
425.466935
 30
0.0
 10
397.646901
 20
425.954608
 30
0.0
 10
397.925858
 20
426.484743
 30
0.0
 10
398.205184
 20
427.061764
 30
0.0
  0
SPLINE
  5
23f
100
AcDbEntity
  8
Vector_Middle
 62
7
100
AcDbSpline
 70
8
 71
3
 72
8
 73
4
 74
0
 40
0
 40
0
 40
0
 40
0
 40
1
 40
1
 40
1
 40
1
 10
398.205184
 20
427.061764
 30
0.0
 10
399.283824
 20
429.922942
 30
0.0
 10
400.359260
 20
432.819354
 30
0.0
 10
401.431266
 20
435.739465
 30
0.0
  0
SPLINE
  5
240
100
AcDbEntity
  8
Vector_Middle
 62
7
100
AcDbSpline
 70
8
 71
3
 72
8
 73
4
 74
0
 40
0
 40
0
 40
0
 40
0
 40
1
 40
1
 40
1
 40
1
 10
401.431266
 20
435.739465
 30
0.0
 10
402.503272
 20
438.659546
 30
0.0
 10
403.571849
 20
441.603326
 30
0.0
 10
404.636854
 20
444.559266
 30
0.0
  0
SPLINE
  5
241
100
AcDbEntity
  8
Vector_Middle
 62
7
100
AcDbSpline
 70
8
 71
3
 72
8
 73
4
 74
0
 40
0
 40
0
 40
0
 40
0
 40
1
 40
1
 40
1
 40
1
 10
404.636854
 20
444.559266
 30
0.0
 10
405.701830
 20
447.515178
 30
0.0
 10
406.763206
 20
450.483279
 30
0.0
 10
407.820784
 20
453.451946
 30
0.0
  0
SPLINE
  5
242
100
AcDbEntity
  8
Vector_Middle
 62
7
100
AcDbSpline
 70
8
 71
3
 72
8
 73
4
 74
0
 40
0
 40
0
 40
0
 40
0
 40
1
 40
1
 40
1
 40
1
 10
407.820784
 20
453.451946
 30
0.0
 10
408.878362
 20
456.420643
 30
0.0
 10
409.932170
 20
459.389934
 30
0.0
 10
410.981953
 20
462.348312
 30
0.0
  0
SPLINE
  5
243
100
AcDbEntity
  8
Vector_Middle
 62
7
100
AcDbSpline
 70
8
 71
3
 72
8
 73
4
 74
0
 40
0
 40
0
 40
0
 40
0
 40
1
 40
1
 40
1
 40
1
 10
410.981953
 20
462.348312
 30
0.0
 10
412.031735
 20
465.306690
 30
0.0
 10
413.077550
 20
468.254154
 30
0.0
 10
414.119140
 20
471.179140
 30
0.0
  0
SPLINE
  5
244
100
AcDbEntity
  8
Vector_Middle
 62
7
100
AcDbSpline
 70
8
 71
3
 72
8
 73
4
 74
0
 40
0
 40
0
 40
0
 40
0
 40
1
 40
1
 40
1
 40
1
 10
414.119140
 20
471.179140
 30
0.0
 10
415.160759
 20
474.104126
 30
0.0
 10
416.198211
 20
477.006661
 30
0.0
 10
417.231241
 20
479.875181
 30
0.0
  0
SPLINE
  5
245
100
AcDbEntity
  8
Vector_Middle
 62
7
100
AcDbSpline
 70
8
 71
3
 72
8
 73
4
 74
0
 40
0
 40
0
 40
0
 40
0
 40
1
 40
1
 40
1
 40
1
 10
417.231241
 20
479.875181
 30
0.0
 10
418.264299
 20
482.743729
 30
0.0
 10
419.292992
 20
485.578261
 30
0.0
 10
420.317093
 20
488.367269
 30
0.0
  0
SPLINE
  5
246
100
AcDbEntity
  8
Vector_Middle
 62
7
100
AcDbSpline
 70
8
 71
3
 72
8
 73
4
 74
0
 40
0
 40
0
 40
0
 40
0
 40
1
 40
1
 40
1
 40
1
 10
420.317093
 20
488.367269
 30
0.0
 10
421.341194
 20
491.156249
 30
0.0
 10
422.360731
 20
493.899732
 30
0.0
 10
423.375506
 20
496.586126
 30
0.0
  0
SPLINE
  5
247
100
AcDbEntity
  8
Vector_Middle
 62
7
100
AcDbSpline
 70
8
 71
3
 72
8
 73
4
 74
0
 40
0
 40
0
 40
0
 40
0
 40
1
 40
1
 40
1
 40
1
 10
423.375506
 20
496.586126
 30
0.0
 10
424.042866
 20
498.259644
 30
0.0
 10
424.628986
 20
499.733065
 30
0.0
 10
425.140923
 20
501.035783
 30
0.0
  0
SPLINE
  5
248
100
AcDbEntity
  8
Vector_Middle
 62
7
100
AcDbSpline
 70
8
 71
3
 72
8
 73
4
 74
0
 40
0
 40
0
 40
0
 40
0
 40
1
 40
1
 40
1
 40
1
 10
425.140923
 20
501.035783
 30
0.0
 10
425.652832
 20
502.338529
 30
0.0
 10
426.090529
 20
503.470545
 30
0.0
 10
426.461074
 20
504.461254
 30
0.0
  0
SPLINE
  5
249
100
AcDbEntity
  8
Vector_Middle
 62
7
100
AcDbSpline
 70
8
 71
3
 72
8
 73
4
 74
0
 40
0
 40
0
 40
0
 40
0
 40
1
 40
1
 40
1
 40
1
 10
426.461074
 20
504.461254
 30
0.0
 10
426.831619
 20
505.451962
 30
0.0
 10
427.134983
 20
506.301335
 30
0.0
 10
427.378195
 20
507.038769
 30
0.0
  0
SPLINE
  5
24a
100
AcDbEntity
  8
Vector_Middle
 62
7
100
AcDbSpline
 70
8
 71
3
 72
8
 73
4
 74
0
 40
0
 40
0
 40
0
 40
0
 40
1
 40
1
 40
1
 40
1
 10
427.378195
 20
507.038769
 30
0.0
 10
427.621408
 20
507.776230
 30
0.0
 10
427.804498
 20
508.401723
 30
0.0
 10
427.934494
 20
508.944671
 30
0.0
  0
SPLINE
  5
24b
100
AcDbEntity
  8
Vector_Middle
 62
7
100
AcDbSpline
 70
8
 71
3
 72
8
 73
4
 74
0
 40
0
 40
0
 40
0
 40
0
 40
1
 40
1
 40
1
 40
1
 10
427.934494
 20
508.944671
 30
0.0
 10
428.064605
 20
509.487619
 30
0.0
 10
428.141424
 20
509.948022
 30
0.0
 10
428.172038
 20
510.355219
 30
0.0
  0
SPLINE
  5
24c
100
AcDbEntity
  8
Vector_Middle
 62
7
100
AcDbSpline
 70
8
 71
3
 72
8
 73
4
 74
0
 40
0
 40
0
 40
0
 40
0
 40
1
 40
1
 40
1
 40
1
 10
428.172038
 20
510.355219
 30
0.0
 10
428.202935
 20
510.762444
 30
0.0
 10
428.186211
 20
511.116463
 30
0.0
 10
428.133203
 20
511.446699
 30
0.0
  0
SPLINE
  5
24d
100
AcDbEntity
  8
Vector_Middle
 62
7
100
AcDbSpline
 70
8
 71
3
 72
8
 73
4
 74
0
 40
0
 40
0
 40
0
 40
0
 40
1
 40
1
 40
1
 40
1
 10
428.133203
 20
511.446699
 30
0.0
 10
428.078778
 20
511.776935
 30
0.0
 10
427.985518
 20
512.083389
 30
0.0
 10
427.860227
 20
512.395398
 30
0.0
  0
SPLINE
  5
24e
100
AcDbEntity
  8
Vector_Middle
 62
7
100
AcDbSpline
 70
8
 71
3
 72
8
 73
4
 74
0
 40
0
 40
0
 40
0
 40
0
 40
1
 40
1
 40
1
 40
1
 10
427.860227
 20
512.395398
 30
0.0
 10
427.734935
 20
512.707408
 30
0.0
 10
427.577613
 20
513.025030
 30
0.0
 10
427.395203
 20
513.377603
 30
0.0
  0
SPLINE
  5
24f
100
AcDbEntity
  8
Vector_Middle
 62
7
100
AcDbSpline
 70
8
 71
3
 72
8
 73
4
 74
0
 40
0
 40
0
 40
0
 40
0
 40
1
 40
1
 40
1
 40
1
 10
427.395203
 20
513.377603
 30
0.0
 10
427.111030
 20
513.927156
 30
0.0
 10
426.867449
 20
514.432658
 30
0.0
 10
426.664998
 20
514.896520
 30
0.0
  0
SPLINE
  5
250
100
AcDbEntity
  8
Vector_Middle
 62
7
100
AcDbSpline
 70
8
 71
3
 72
8
 73
4
 74
0
 40
0
 40
0
 40
0
 40
0
 40
1
 40
1
 40
1
 40
1
 10
426.664998
 20
514.896520
 30
0.0
 10
426.462605
 20
515.360409
 30
0.0
 10
426.301228
 20
515.782658
 30
0.0
 10
426.181493
 20
516.165732
 30
0.0
  0
SPLINE
  5
251
100
AcDbEntity
  8
Vector_Middle
 62
7
100
AcDbSpline
 70
8
 71
3
 72
8
 73
4
 74
0
 40
0
 40
0
 40
0
 40
0
 40
1
 40
1
 40
1
 40
1
 10
426.181493
 20
516.165732
 30
0.0
 10
426.061871
 20
516.548778
 30
0.0
 10
425.983635
 20
516.892649
 30
0.0
 10
425.947635
 20
517.199726
 30
0.0
  0
SPLINE
  5
252
100
AcDbEntity
  8
Vector_Middle
 62
7
100
AcDbSpline
 70
8
 71
3
 72
8
 73
4
 74
0
 40
0
 40
0
 40
0
 40
0
 40
1
 40
1
 40
1
 40
1
 10
425.947635
 20
517.199726
 30
0.0
 10
425.911635
 20
517.506832
 30
0.0
 10
425.917871
 20
517.777143
 30
0.0
 10
425.967477
 20
518.013128
 30
0.0
  0
SPLINE
  5
253
100
AcDbEntity
  8
Vector_Middle
 62
7
100
AcDbSpline
 70
8
 71
3
 72
8
 73
4
 74
0
 40
0
 40
0
 40
0
 40
0
 40
1
 40
1
 40
1
 40
1
 10
425.967477
 20
518.013128
 30
0.0
 10
426.016233
 20
518.248970
 30
0.0
 10
426.107509
 20
518.450712
 30
0.0
 10
426.242154
 20
518.620422
 30
0.0
  0
SPLINE
  5
254
100
AcDbEntity
  8
Vector_Middle
 62
7
100
AcDbSpline
 70
8
 71
3
 72
8
 73
4
 74
0
 40
0
 40
0
 40
0
 40
0
 40
1
 40
1
 40
1
 40
1
 10
426.242154
 20
518.620422
 30
0.0
 10
426.376517
 20
518.790217
 30
0.0
 10
426.554249
 20
518.927896
 30
0.0
 10
426.775465
 20
519.036180
 30
0.0
  0
SPLINE
  5
255
100
AcDbEntity
  8
Vector_Middle
 62
7
100
AcDbSpline
 70
8
 71
3
 72
8
 73
4
 74
0
 40
0
 40
0
 40
0
 40
0
 40
1
 40
1
 40
1
 40
1
 10
426.775465
 20
519.036180
 30
0.0
 10
426.996567
 20
519.144463
 30
0.0
 10
427.261550
 20
519.223266
 30
0.0
 10
427.570498
 20
519.274857
 30
0.0
  0
SPLINE
  5
256
100
AcDbEntity
  8
Vector_Middle
 62
7
100
AcDbSpline
 70
8
 71
3
 72
8
 73
4
 74
0
 40
0
 40
0
 40
0
 40
0
 40
1
 40
1
 40
1
 40
1
 10
427.570498
 20
519.274857
 30
0.0
 10
427.879474
 20
519.326447
 30
0.0
 10
428.232557
 20
519.351109
 30
0.0
 10
428.630258
 20
519.351109
 30
0.0
  0
SPLINE
  5
257
100
AcDbEntity
  8
Vector_Middle
 62
7
100
AcDbSpline
 70
8
 71
3
 72
8
 73
4
 74
0
 40
0
 40
0
 40
0
 40
0
 40
1
 40
1
 40
1
 40
1
 10
428.630258
 20
519.351109
 30
0.0
 10
428.916586
 20
519.351109
 30
0.0
 10
429.185112
 20
519.368117
 30
0.0
 10
429.442668
 20
519.406951
 30
0.0
  0
SPLINE
  5
258
100
AcDbEntity
  8
Vector_Middle
 62
7
100
AcDbSpline
 70
8
 71
3
 72
8
 73
4
 74
0
 40
0
 40
0
 40
0
 40
0
 40
1
 40
1
 40
1
 40
1
 10
429.442668
 20
519.406951
 30
0.0
 10
429.700337
 20
519.446353
 30
0.0
 10
429.946809
 20
519.508715
 30
0.0
 10
430.189257
 20
519.599991
 30
0.0
  0
SPLINE
  5
259
100
AcDbEntity
  8
Vector_Middle
 62
7
100
AcDbSpline
 70
8
 71
3
 72
8
 73
4
 74
0
 40
0
 40
0
 40
0
 40
0
 40
1
 40
1
 40
1
 40
1
 10
430.189257
 20
519.599991
 30
0.0
 10
430.431619
 20
519.691266
 30
0.0
 10
430.670013
 20
519.812022
 30
0.0
 10
430.911043
 20
519.967899
 30
0.0
  0
SPLINE
  5
25a
100
AcDbEntity
  8
Vector_Middle
 62
7
100
AcDbSpline
 70
8
 71
3
 72
8
 73
4
 74
0
 40
0
 40
0
 40
0
 40
0
 40
1
 40
1
 40
1
 40
1
 10
430.911043
 20
519.967899
 30
0.0
 10
431.151987
 20
520.123805
 30
0.0
 10
431.395795
 20
520.315257
 30
0.0
 10
431.649043
 20
520.548378
 30
0.0
  0
SPLINE
  5
25b
100
AcDbEntity
  8
Vector_Middle
 62
7
100
AcDbSpline
 70
8
 71
3
 72
8
 73
4
 74
0
 40
0
 40
0
 40
0
 40
0
 40
1
 40
1
 40
1
 40
1
 10
431.649043
 20
520.548378
 30
0.0
 10
431.902176
 20
520.781386
 30
0.0
 10
432.165090
 20
521.056346
 30
0.0
 10
432.444246
 20
521.379213
 30
0.0
  0
SPLINE
  5
25c
100
AcDbEntity
  8
Vector_Middle
 62
7
100
AcDbSpline
 70
8
 71
3
 72
8
 73
4
 74
0
 40
0
 40
0
 40
0
 40
0
 40
1
 40
1
 40
1
 40
1
 10
432.444246
 20
521.379213
 30
0.0
 10
432.723458
 20
521.702050
 30
0.0
 10
433.018942
 20
522.072935
 30
0.0
 10
433.337698
 20
522.498104
 30
0.0
  0
SPLINE
  5
25d
100
AcDbEntity
  8
Vector_Middle
 62
7
100
AcDbSpline
 70
8
 71
3
 72
8
 73
4
 74
0
 40
0
 40
0
 40
0
 40
0
 40
1
 40
1
 40
1
 40
1
 10
433.337698
 20
522.498104
 30
0.0
 10
433.656425
 20
522.923272
 30
0.0
 10
433.998369
 20
523.402753
 30
0.0
 10
434.370359
 20
523.942838
 30
0.0
  0
SPLINE
  5
25e
100
AcDbEntity
  8
Vector_Middle
 62
7
100
AcDbSpline
 70
8
 71
3
 72
8
 73
4
 74
0
 40
0
 40
0
 40
0
 40
0
 40
1
 40
1
 40
1
 40
1
 10
434.370359
 20
523.942838
 30
0.0
 10
434.742321
 20
524.482923
 30
0.0
 10
435.144359
 20
525.083584
 30
0.0
 10
435.583247
 20
525.751143
 30
0.0
  0
SPLINE
  5
25f
100
AcDbEntity
  8
Vector_Middle
 62
7
100
AcDbSpline
 70
8
 71
3
 72
8
 73
4
 74
0
 40
0
 40
0
 40
0
 40
0
 40
1
 40
1
 40
1
 40
1
 10
435.583247
 20
525.751143
 30
0.0
 10
435.872523
 20
526.191165
 30
0.0
 10
436.164718
 20
526.621153
 30
0.0
 10
436.455978
 20
527.036797
 30
0.0
  0
SPLINE
  5
260
100
AcDbEntity
  8
Vector_Middle
 62
7
100
AcDbSpline
 70
8
 71
3
 72
8
 73
4
 74
0
 40
0
 40
0
 40
0
 40
0
 40
1
 40
1
 40
1
 40
1
 10
436.455978
 20
527.036797
 30
0.0
 10
436.747266
 20
527.452441
 30
0.0
 10
437.037619
 20
527.853685
 30
0.0
 10
437.323266
 20
528.236220
 30
0.0
  0
SPLINE
  5
261
100
AcDbEntity
  8
Vector_Middle
 62
7
100
AcDbSpline
 70
8
 71
3
 72
8
 73
4
 74
0
 40
0
 40
0
 40
0
 40
0
 40
1
 40
1
 40
1
 40
1
 10
437.323266
 20
528.236220
 30
0.0
 10
437.608913
 20
528.618728
 30
0.0
 10
437.889883
 20
528.982469
 30
0.0
 10
438.162321
 20
529.323109
 30
0.0
  0
SPLINE
  5
262
100
AcDbEntity
  8
Vector_Middle
 62
7
100
AcDbSpline
 70
8
 71
3
 72
8
 73
4
 74
0
 40
0
 40
0
 40
0
 40
0
 40
1
 40
1
 40
1
 40
1
 10
438.162321
 20
529.323109
 30
0.0
 10
438.434731
 20
529.663748
 30
0.0
 10
438.698721
 20
529.981257
 30
0.0
 10
438.950353
 20
530.271269
 30
0.0
  0
SPLINE
  5
263
100
AcDbEntity
  8
Vector_Middle
 62
7
100
AcDbSpline
 70
8
 71
3
 72
8
 73
4
 74
0
 40
0
 40
0
 40
0
 40
0
 40
1
 40
1
 40
1
 40
1
 10
438.950353
 20
530.271269
 30
0.0
 10
439.202069
 20
530.561282
 30
0.0
 10
439.441370
 20
530.823770
 30
0.0
 10
439.664627
 20
531.054425
 30
0.0
  0
SPLINE
  5
264
100
AcDbEntity
  8
Vector_Middle
 62
7
100
AcDbSpline
 70
8
 71
3
 72
8
 73
4
 74
0
 40
0
 40
0
 40
0
 40
0
 40
1
 40
1
 40
1
 40
1
 10
439.664627
 20
531.054425
 30
0.0
 10
439.887997
 20
531.285165
 30
0.0
 10
440.095039
 20
531.483789
 30
0.0
 10
440.282296
 20
531.646299
 30
0.0
  0
SPLINE
  5
265
100
AcDbEntity
  8
Vector_Middle
 62
7
100
AcDbSpline
 70
8
 71
3
 72
8
 73
4
 74
0
 40
0
 40
0
 40
0
 40
0
 40
1
 40
1
 40
1
 40
1
 10
440.282296
 20
531.646299
 30
0.0
 10
440.469666
 20
531.808724
 30
0.0
 10
440.636939
 20
531.935065
 30
0.0
 10
440.780655
 20
532.020699
 30
0.0
  0
SPLINE
  5
266
100
AcDbEntity
  8
Vector_Middle
 62
7
100
AcDbSpline
 70
8
 71
3
 72
8
 73
4
 74
0
 40
0
 40
0
 40
0
 40
0
 40
1
 40
1
 40
1
 40
1
 10
440.780655
 20
532.020699
 30
0.0
 10
440.924372
 20
532.106306
 30
0.0
 10
441.044277
 20
532.151376
 30
0.0
 10
441.136857
 20
532.151376
 30
0.0
  0
SPLINE
  5
267
100
AcDbEntity
  8
Vector_Middle
 62
7
100
AcDbSpline
 70
8
 71
3
 72
8
 73
4
 74
0
 40
0
 40
0
 40
0
 40
0
 40
1
 40
1
 40
1
 40
1
 10
441.136857
 20
532.151376
 30
0.0
 10
441.317707
 20
532.151376
 30
0.0
 10
441.484611
 20
532.131534
 30
0.0
 10
441.656561
 20
532.041676
 30
0.0
  0
SPLINE
  5
268
100
AcDbEntity
  8
Vector_Middle
 62
7
100
AcDbSpline
 70
8
 71
3
 72
8
 73
4
 74
0
 40
0
 40
0
 40
0
 40
0
 40
1
 40
1
 40
1
 40
1
 10
441.656561
 20
532.041676
 30
0.0
 10
441.828624
 20
531.953235
 30
0.0
 10
442.005477
 20
531.797896
 30
0.0
 10
442.206369
 20
531.529455
 30
0.0
  0
SPLINE
  5
269
100
AcDbEntity
  8
Vector_Middle
 62
7
100
AcDbSpline
 70
8
 71
3
 72
8
 73
4
 74
0
 40
0
 40
0
 40
0
 40
0
 40
1
 40
1
 40
1
 40
1
 10
442.206369
 20
531.529455
 30
0.0
 10
442.407345
 20
531.261014
 30
0.0
 10
442.631991
 20
530.879556
 30
0.0
 10
442.899524
 20
530.339216
 30
0.0
  0
SPLINE
  5
26a
100
AcDbEntity
  8
Vector_Middle
 62
7
100
AcDbSpline
 70
8
 71
3
 72
8
 73
4
 74
0
 40
0
 40
0
 40
0
 40
0
 40
1
 40
1
 40
1
 40
1
 10
442.899524
 20
530.339216
 30
0.0
 10
443.167115
 20
529.798876
 30
0.0
 10
443.477367
 20
529.099654
 30
0.0
 10
443.849329
 20
528.195657
 30
0.0
  0
SPLINE
  5
26b
100
AcDbEntity
  8
Vector_Middle
 62
7
100
AcDbSpline
 70
8
 71
3
 72
8
 73
4
 74
0
 40
0
 40
0
 40
0
 40
0
 40
1
 40
1
 40
1
 40
1
 10
443.849329
 20
528.195657
 30
0.0
 10
444.221320
 20
527.291660
 30
0.0
 10
444.654964
 20
526.182860
 30
0.0
 10
445.169140
 20
524.823392
 30
0.0
  0
SPLINE
  5
26c
100
AcDbEntity
  8
Vector_Middle
 62
7
100
AcDbSpline
 70
8
 71
3
 72
8
 73
4
 74
0
 40
0
 40
0
 40
0
 40
0
 40
1
 40
1
 40
1
 40
1
 10
445.169140
 20
524.823392
 30
0.0
 10
445.683317
 20
523.463953
 30
0.0
 10
446.278025
 20
521.853817
 30
0.0
 10
446.972173
 20
519.947150
 30
0.0
  0
SPLINE
  5
26d
100
AcDbEntity
  8
Vector_Middle
 62
7
100
AcDbSpline
 70
8
 71
3
 72
8
 73
4
 74
0
 40
0
 40
0
 40
0
 40
0
 40
1
 40
1
 40
1
 40
1
 10
446.972173
 20
519.947150
 30
0.0
 10
447.666321
 20
518.040454
 30
0.0
 10
448.459880
 20
515.837225
 30
0.0
 10
449.371757
 20
513.291543
 30
0.0
  0
SPLINE
  5
26e
100
AcDbEntity
  8
Vector_Middle
 62
7
100
AcDbSpline
 70
8
 71
3
 72
8
 73
4
 74
0
 40
0
 40
0
 40
0
 40
0
 40
1
 40
1
 40
1
 40
1
 10
449.371757
 20
513.291543
 30
0.0
 10
450.283606
 20
510.745861
 30
0.0
 10
451.313802
 20
507.857726
 30
0.0
 10
452.481165
 20
504.581244
 30
0.0
  0
SPLINE
  5
26f
100
AcDbEntity
  8
Vector_Middle
 62
7
100
AcDbSpline
 70
8
 71
3
 72
8
 73
4
 74
0
 40
0
 40
0
 40
0
 40
0
 40
1
 40
1
 40
1
 40
1
 10
452.481165
 20
504.581244
 30
0.0
 10
452.903244
 20
503.396589
 30
0.0
 10
453.331446
 20
502.200794
 30
0.0
 10
453.760044
 20
501.009307
 30
0.0
  0
SPLINE
  5
270
100
AcDbEntity
  8
Vector_Middle
 62
7
100
AcDbSpline
 70
8
 71
3
 72
8
 73
4
 74
0
 40
0
 40
0
 40
0
 40
0
 40
1
 40
1
 40
1
 40
1
 10
453.760044
 20
501.009307
 30
0.0
 10
454.188671
 20
499.817820
 30
0.0
 10
454.617666
 20
498.630671
 30
0.0
 10
455.041361
 20
497.463335
 30
0.0
  0
SPLINE
  5
271
100
AcDbEntity
  8
Vector_Middle
 62
7
100
AcDbSpline
 70
8
 71
3
 72
8
 73
4
 74
0
 40
0
 40
0
 40
0
 40
0
 40
1
 40
1
 40
1
 40
1
 10
455.041361
 20
497.463335
 30
0.0
 10
455.465055
 20
496.296000
 30
0.0
 10
455.883420
 20
495.148479
 30
0.0
 10
456.290759
 20
494.036220
 30
0.0
  0
SPLINE
  5
272
100
AcDbEntity
  8
Vector_Middle
 62
7
100
AcDbSpline
 70
8
 71
3
 72
8
 73
4
 74
0
 40
0
 40
0
 40
0
 40
0
 40
1
 40
1
 40
1
 40
1
 10
456.290759
 20
494.036220
 30
0.0
 10
456.698069
 20
492.923991
 30
0.0
 10
457.094353
 20
491.847024
 30
0.0
 10
457.473855
 20
490.820854
 30
0.0
  0
SPLINE
  5
273
100
AcDbEntity
  8
Vector_Middle
 62
7
100
AcDbSpline
 70
8
 71
3
 72
8
 73
4
 74
0
 40
0
 40
0
 40
0
 40
0
 40
1
 40
1
 40
1
 40
1
 10
457.473855
 20
490.820854
 30
0.0
 10
457.853357
 20
489.794655
 30
0.0
 10
458.216107
 20
488.819254
 30
0.0
 10
458.556321
 20
487.910098
 30
0.0
  0
SPLINE
  5
274
100
AcDbEntity
  8
Vector_Middle
 62
7
100
AcDbSpline
 70
8
 71
3
 72
8
 73
4
 74
0
 40
0
 40
0
 40
0
 40
0
 40
1
 40
1
 40
1
 40
1
 10
458.556321
 20
487.910098
 30
0.0
 10
458.896564
 20
487.000942
 30
0.0
 10
459.214299
 20
486.158032
 30
0.0
 10
459.503830
 20
485.396844
 30
0.0
  0
SPLINE
  5
275
100
AcDbEntity
  8
Vector_Middle
 62
7
100
AcDbSpline
 70
8
 71
3
 72
8
 73
4
 74
0
 40
0
 40
0
 40
0
 40
0
 40
1
 40
1
 40
1
 40
1
 10
459.503830
 20
485.396844
 30
0.0
 10
459.793332
 20
484.635685
 30
0.0
 10
460.054630
 20
483.956220
 30
0.0
 10
460.281969
 20
483.374013
 30
0.0
  0
SPLINE
  5
276
100
AcDbEntity
  8
Vector_Middle
 62
7
100
AcDbSpline
 70
8
 71
3
 72
8
 73
4
 74
0
 40
0
 40
0
 40
0
 40
0
 40
1
 40
1
 40
1
 40
1
 10
460.281969
 20
483.374013
 30
0.0
 10
460.509307
 20
482.791776
 30
0.0
 10
460.702715
 20
482.306769
 30
0.0
 10
460.856438
 20
481.934438
 30
0.0
  0
SPLINE
  5
277
100
AcDbEntity
  8
Vector_Middle
 62
7
100
AcDbSpline
 70
8
 71
3
 72
8
 73
4
 74
0
 40
0
 40
0
 40
0
 40
0
 40
1
 40
1
 40
1
 40
1
 10
460.856438
 20
481.934438
 30
0.0
 10
461.010076
 20
481.562107
 30
0.0
 10
461.179559
 20
481.142891
 30
0.0
 10
461.361232
 20
480.685805
 30
0.0
  0
SPLINE
  5
278
100
AcDbEntity
  8
Vector_Middle
 62
7
100
AcDbSpline
 70
8
 71
3
 72
8
 73
4
 74
0
 40
0
 40
0
 40
0
 40
0
 40
1
 40
1
 40
1
 40
1
 10
461.361232
 20
480.685805
 30
0.0
 10
461.542932
 20
480.228718
 30
0.0
 10
461.736850
 20
479.733817
 30
0.0
 10
461.939669
 20
479.210145
 30
0.0
  0
SPLINE
  5
279
100
AcDbEntity
  8
Vector_Middle
 62
7
100
AcDbSpline
 70
8
 71
3
 72
8
 73
4
 74
0
 40
0
 40
0
 40
0
 40
0
 40
1
 40
1
 40
1
 40
1
 10
461.939669
 20
479.210145
 30
0.0
 10
462.142630
 20
478.686472
 30
0.0
 10
462.354236
 20
478.134057
 30
0.0
 10
462.571455
 20
477.561969
 30
0.0
  0
SPLINE
  5
27a
100
AcDbEntity
  8
Vector_Middle
 62
7
100
AcDbSpline
 70
8
 71
3
 72
8
 73
4
 74
0
 40
0
 40
0
 40
0
 40
0
 40
1
 40
1
 40
1
 40
1
 10
462.571455
 20
477.561969
 30
0.0
 10
462.788589
 20
476.989880
 30
0.0
 10
463.011392
 20
476.398148
 30
0.0
 10
463.236208
 20
475.795814
 30
0.0
  0
SPLINE
  5
27b
100
AcDbEntity
  8
Vector_Middle
 62
7
100
AcDbSpline
 70
8
 71
3
 72
8
 73
4
 74
0
 40
0
 40
0
 40
0
 40
0
 40
1
 40
1
 40
1
 40
1
 10
463.236208
 20
475.795814
 30
0.0
 10
463.460995
 20
475.193480
 30
0.0
 10
463.687937
 20
474.580602
 30
0.0
 10
463.913575
 20
473.966192
 30
0.0
  0
SPLINE
  5
27c
100
AcDbEntity
  8
Vector_Middle
 62
7
100
AcDbSpline
 70
8
 71
3
 72
8
 73
4
 74
0
 40
0
 40
0
 40
0
 40
0
 40
1
 40
1
 40
1
 40
1
 10
463.913575
 20
473.966192
 30
0.0
 10
464.139213
 20
473.351811
 30
0.0
 10
464.363546
 20
472.735928
 30
0.0
 10
464.583203
 20
472.127641
 30
0.0
  0
SPLINE
  5
27d
100
AcDbEntity
  8
Vector_Middle
 62
7
100
AcDbSpline
 70
8
 71
3
 72
8
 73
4
 74
0
 40
0
 40
0
 40
0
 40
0
 40
1
 40
1
 40
1
 40
1
 10
464.583203
 20
472.127641
 30
0.0
 10
464.802888
 20
471.519354
 30
0.0
 10
465.017839
 20
470.918665
 30
0.0
 10
465.224769
 20
470.334643
 30
0.0
  0
SPLINE
  5
27e
100
AcDbEntity
  8
Vector_Middle
 62
7
100
AcDbSpline
 70
8
 71
3
 72
8
 73
4
 74
0
 40
0
 40
0
 40
0
 40
0
 40
1
 40
1
 40
1
 40
1
 10
465.224769
 20
470.334643
 30
0.0
 10
465.431698
 20
469.750649
 30
0.0
 10
465.630520
 20
469.183323
 30
0.0
 10
465.817890
 20
468.641764
 30
0.0
  0
SPLINE
  5
27f
100
AcDbEntity
  8
Vector_Middle
 62
7
100
AcDbSpline
 70
8
 71
3
 72
8
 73
4
 74
0
 40
0
 40
0
 40
0
 40
0
 40
1
 40
1
 40
1
 40
1
 10
465.817890
 20
468.641764
 30
0.0
 10
466.515354
 20
466.625934
 30
0.0
 10
467.290063
 20
464.471376
 30
0.0
 10
468.116022
 20
462.239745
 30
0.0
  0
SPLINE
  5
280
100
AcDbEntity
  8
Vector_Middle
 62
7
100
AcDbSpline
 70
8
 71
3
 72
8
 73
4
 74
0
 40
0
 40
0
 40
0
 40
0
 40
1
 40
1
 40
1
 40
1
 10
468.116022
 20
462.239745
 30
0.0
 10
468.942009
 20
460.008085
 30
0.0
 10
469.819247
 20
457.699351
 30
0.0
 10
470.721855
 20
455.375169
 30
0.0
  0
SPLINE
  5
281
100
AcDbEntity
  8
Vector_Middle
 62
7
100
AcDbSpline
 70
8
 71
3
 72
8
 73
4
 74
0
 40
0
 40
0
 40
0
 40
0
 40
1
 40
1
 40
1
 40
1
 10
470.721855
 20
455.375169
 30
0.0
 10
471.624463
 20
453.050986
 30
0.0
 10
472.552413
 20
450.711326
 30
0.0
 10
473.479795
 20
448.417871
 30
0.0
  0
SPLINE
  5
282
100
AcDbEntity
  8
Vector_Middle
 62
7
100
AcDbSpline
 70
8
 71
3
 72
8
 73
4
 74
0
 40
0
 40
0
 40
0
 40
0
 40
1
 40
1
 40
1
 40
1
 10
473.479795
 20
448.417871
 30
0.0
 10
474.407150
 20
446.124416
 30
0.0
 10
475.333909
 20
443.877137
 30
0.0
 10
476.234164
 20
441.737660
 30
0.0
  0
SPLINE
  5
283
100
AcDbEntity
  8
Vector_Middle
 62
7
100
AcDbSpline
 70
8
 71
3
 72
8
 73
4
 74
0
 40
0
 40
0
 40
0
 40
0
 40
1
 40
1
 40
1
 40
1
 10
476.234164
 20
441.737660
 30
0.0
 10
477.134419
 20
439.598211
 30
0.0
 10
478.008142
 20
437.566592
 30
0.0
 10
478.829395
 20
435.704428
 30
0.0
  0
SPLINE
  5
284
100
AcDbEntity
  8
Vector_Middle
 62
7
100
AcDbSpline
 70
8
 71
3
 72
8
 73
4
 74
0
 40
0
 40
0
 40
0
 40
0
 40
1
 40
1
 40
1
 40
1
 10
478.829395
 20
435.704428
 30
0.0
 10
479.650649
 20
433.842236
 30
0.0
 10
480.419461
 20
432.149528
 30
0.0
 10
481.109839
 20
430.687928
 30
0.0
  0
SPLINE
  5
285
100
AcDbEntity
  8
Vector_Middle
 62
7
100
AcDbSpline
 70
8
 71
3
 72
8
 73
4
 74
0
 40
0
 40
0
 40
0
 40
0
 40
1
 40
1
 40
1
 40
1
 10
481.109839
 20
430.687928
 30
0.0
 10
481.800246
 20
429.226328
 30
0.0
 10
482.412246
 20
427.995808
 30
0.0
 10
482.919902
 20
427.058050
 30
0.0
  0
SPLINE
  5
286
100
AcDbEntity
  8
Vector_Middle
 62
7
100
AcDbSpline
 70
8
 71
3
 72
8
 73
4
 74
0
 40
0
 40
0
 40
0
 40
0
 40
1
 40
1
 40
1
 40
1
 10
482.919902
 20
427.058050
 30
0.0
 10
483.427587
 20
426.120265
 30
0.0
 10
483.830901
 20
425.475241
 30
0.0
 10
484.103962
 20
425.184576
 30
0.0
  0
SPLINE
  5
287
100
AcDbEntity
  8
Vector_Middle
 62
7
100
AcDbSpline
 70
8
 71
3
 72
8
 73
4
 74
0
 40
0
 40
0
 40
0
 40
0
 40
1
 40
1
 40
1
 40
1
 10
484.103962
 20
425.184576
 30
0.0
 10
484.259301
 20
425.019317
 30
0.0
 10
484.440888
 20
424.850173
 30
0.0
 10
484.644331
 20
424.679698
 30
0.0
  0
SPLINE
  5
288
100
AcDbEntity
  8
Vector_Middle
 62
7
100
AcDbSpline
 70
8
 71
3
 72
8
 73
4
 74
0
 40
0
 40
0
 40
0
 40
0
 40
1
 40
1
 40
1
 40
1
 10
484.644331
 20
424.679698
 30
0.0
 10
484.847858
 20
424.509335
 30
0.0
 10
485.073043
 20
424.337414
 30
0.0
 10
485.315745
 20
424.166598
 30
0.0
  0
SPLINE
  5
289
100
AcDbEntity
  8
Vector_Middle
 62
7
100
AcDbSpline
 70
8
 71
3
 72
8
 73
4
 74
0
 40
0
 40
0
 40
0
 40
0
 40
1
 40
1
 40
1
 40
1
 10
485.315745
 20
424.166598
 30
0.0
 10
485.558391
 20
423.995669
 30
0.0
 10
485.818498
 20
423.825931
 30
0.0
 10
486.091531
 20
423.659452
 30
0.0
  0
SPLINE
  5
28a
100
AcDbEntity
  8
Vector_Middle
 62
7
100
AcDbSpline
 70
8
 71
3
 72
8
 73
4
 74
0
 40
0
 40
0
 40
0
 40
0
 40
1
 40
1
 40
1
 40
1
 10
486.091531
 20
423.659452
 30
0.0
 10
486.364507
 20
423.493058
 30
0.0
 10
486.650580
 20
423.329896
 30
0.0
 10
486.945071
 20
423.172545
 30
0.0
  0
SPLINE
  5
28b
100
AcDbEntity
  8
Vector_Middle
 62
7
100
AcDbSpline
 70
8
 71
3
 72
8
 73
4
 74
0
 40
0
 40
0
 40
0
 40
0
 40
1
 40
1
 40
1
 40
1
 10
486.945071
 20
423.172545
 30
0.0
 10
487.239591
 20
423.015222
 30
0.0
 10
487.542614
 20
422.863597
 30
0.0
 10
487.849691
 20
422.720135
 30
0.0
  0
SPLINE
  5
28c
100
AcDbEntity
  8
Vector_Middle
 62
7
100
AcDbSpline
 70
8
 71
3
 72
8
 73
4
 74
0
 40
0
 40
0
 40
0
 40
0
 40
1
 40
1
 40
1
 40
1
 10
487.849691
 20
422.720135
 30
0.0
 10
488.156797
 20
422.576702
 30
0.0
 10
488.467956
 20
422.441206
 30
0.0
 10
488.778718
 20
422.316397
 30
0.0
  0
SPLINE
  5
28d
100
AcDbEntity
  8
Vector_Middle
 62
7
100
AcDbSpline
 70
8
 71
3
 72
8
 73
4
 74
0
 40
0
 40
0
 40
0
 40
0
 40
1
 40
1
 40
1
 40
1
 10
488.778718
 20
422.316397
 30
0.0
 10
489.089509
 20
422.191672
 30
0.0
 10
489.399931
 20
422.077153
 30
0.0
 10
489.705506
 20
421.975644
 30
0.0
  0
SPLINE
  5
28e
100
AcDbEntity
  8
Vector_Middle
 62
7
100
AcDbSpline
 70
8
 71
3
 72
8
 73
4
 74
0
 40
0
 40
0
 40
0
 40
0
 40
1
 40
1
 40
1
 40
1
 10
489.705506
 20
421.975644
 30
0.0
 10
490.011109
 20
421.874164
 30
0.0
 10
490.311893
 20
421.785439
 30
0.0
 10
490.603408
 20
421.712022
 30
0.0
  0
SPLINE
  5
28f
100
AcDbEntity
  8
Vector_Middle
 62
7
100
AcDbSpline
 70
8
 71
3
 72
8
 73
4
 74
0
 40
0
 40
0
 40
0
 40
0
 40
1
 40
1
 40
1
 40
1
 10
490.603408
 20
421.712022
 30
0.0
 10
491.769468
 20
421.418409
 30
0.0
 10
492.881811
 20
421.066885
 30
0.0
 10
493.734586
 20
420.737074
 30
0.0
  0
SPLINE
  5
290
100
AcDbEntity
  8
Vector_Middle
 62
7
100
AcDbSpline
 70
8
 71
3
 72
8
 73
4
 74
0
 40
0
 40
0
 40
0
 40
0
 40
1
 40
1
 40
1
 40
1
 10
493.734586
 20
420.737074
 30
0.0
 10
494.587361
 20
420.407263
 30
0.0
 10
495.180567
 20
420.099137
 30
0.0
 10
495.308381
 20
419.892350
 30
0.0
  0
SPLINE
  5
291
100
AcDbEntity
  8
Vector_Middle
 62
7
100
AcDbSpline
 70
8
 71
3
 72
8
 73
4
 74
0
 40
0
 40
0
 40
0
 40
0
 40
1
 40
1
 40
1
 40
1
 10
495.308381
 20
419.892350
 30
0.0
 10
496.003833
 20
418.767080
 30
0.0
 10
495.141420
 20
418.060290
 30
0.0
 10
491.352009
 20
417.608929
 30
0.0
  0
SPLINE
  5
292
100
AcDbEntity
  8
Vector_Middle
 62
7
100
AcDbSpline
 70
8
 71
3
 72
8
 73
4
 74
0
 40
0
 40
0
 40
0
 40
0
 40
1
 40
1
 40
1
 40
1
 10
491.352009
 20
417.608929
 30
0.0
 10
490.404671
 20
417.496110
 30
0.0
 10
489.274384
 20
417.399165
 30
0.0
 10
487.939748
 20
417.315742
 30
0.0
  0
SPLINE
  5
293
100
AcDbEntity
  8
Vector_Middle
 62
7
100
AcDbSpline
 70
8
 71
3
 72
8
 73
4
 74
0
 40
0
 40
0
 40
0
 40
0
 40
1
 40
1
 40
1
 40
1
 10
487.939748
 20
417.315742
 30
0.0
 10
486.605140
 20
417.232403
 30
0.0
 10
485.066183
 20
417.162104
 30
0.0
 10
483.301531
 20
417.103143
 30
0.0
  0
SPLINE
  5
294
100
AcDbEntity
  8
Vector_Middle
 62
7
100
AcDbSpline
 70
8
 71
3
 72
8
 73
4
 74
0
 40
0
 40
0
 40
0
 40
0
 40
1
 40
1
 40
1
 40
1
 10
483.301531
 20
417.103143
 30
0.0
 10
481.536879
 20
417.043899
 30
0.0
 10
479.546476
 20
416.995710
 30
0.0
 10
477.308976
 20
416.955742
 30
0.0
  0
SPLINE
  5
295
100
AcDbEntity
  8
Vector_Middle
 62
7
100
AcDbSpline
 70
8
 71
3
 72
8
 73
4
 74
0
 40
0
 40
0
 40
0
 40
0
 40
1
 40
1
 40
1
 40
1
 10
477.308976
 20
416.955742
 30
0.0
 10
475.071477
 20
416.915773
 30
0.0
 10
472.586882
 20
416.884025
 30
0.0
 10
469.833761
 20
416.858230
 30
0.0
  0
SPLINE
  5
296
100
AcDbEntity
  8
Vector_Middle
 62
7
100
AcDbSpline
 70
8
 71
3
 72
8
 73
4
 74
0
 40
0
 40
0
 40
0
 40
0
 40
1
 40
1
 40
1
 40
1
 10
469.833761
 20
416.858230
 30
0.0
 10
467.457335
 20
416.835553
 30
0.0
 10
465.306066
 20
416.819679
 30
0.0
 10
463.359458
 20
416.810608
 30
0.0
  0
SPLINE
  5
297
100
AcDbEntity
  8
Vector_Middle
 62
7
100
AcDbSpline
 70
8
 71
3
 72
8
 73
4
 74
0
 40
0
 40
0
 40
0
 40
0
 40
1
 40
1
 40
1
 40
1
 10
463.359458
 20
416.810608
 30
0.0
 10
461.412850
 20
416.802104
 30
0.0
 10
459.670904
 20
416.799269
 30
0.0
 10
458.113124
 20
416.804939
 30
0.0
  0
SPLINE
  5
298
100
AcDbEntity
  8
Vector_Middle
 62
7
100
AcDbSpline
 70
8
 71
3
 72
8
 73
4
 74
0
 40
0
 40
0
 40
0
 40
0
 40
1
 40
1
 40
1
 40
1
 10
458.113124
 20
416.804939
 30
0.0
 10
456.555373
 20
416.810608
 30
0.0
 10
455.181789
 20
416.824781
 30
0.0
 10
453.971934
 20
416.848309
 30
0.0
  0
SPLINE
  5
299
100
AcDbEntity
  8
Vector_Middle
 62
7
100
AcDbSpline
 70
8
 71
3
 72
8
 73
4
 74
0
 40
0
 40
0
 40
0
 40
0
 40
1
 40
1
 40
1
 40
1
 10
453.971934
 20
416.848309
 30
0.0
 10
452.762079
 20
416.870986
 30
0.0
 10
451.715896
 20
416.903584
 30
0.0
 10
450.812976
 20
416.945537
 30
0.0
  0
SPLINE
  5
29a
100
AcDbEntity
  8
Vector_Middle
 62
7
100
AcDbSpline
 70
8
 71
3
 72
8
 73
4
 74
0
 40
0
 40
0
 40
0
 40
0
 40
1
 40
1
 40
1
 40
1
 10
450.812976
 20
416.945537
 30
0.0
 10
449.910057
 20
416.987490
 30
0.0
 10
449.150343
 20
417.039647
 30
0.0
 10
448.513398
 20
417.102576
 30
0.0
  0
SPLINE
  5
29b
100
AcDbEntity
  8
Vector_Middle
 62
7
100
AcDbSpline
 70
8
 71
3
 72
8
 73
4
 74
0
 40
0
 40
0
 40
0
 40
0
 40
1
 40
1
 40
1
 40
1
 10
448.513398
 20
417.102576
 30
0.0
 10
447.876454
 20
417.165506
 30
0.0
 10
447.362277
 20
417.239490
 30
0.0
 10
446.950346
 20
417.325380
 30
0.0
  0
SPLINE
  5
29c
100
AcDbEntity
  8
Vector_Middle
 62
7
100
AcDbSpline
 70
8
 71
3
 72
8
 73
4
 74
0
 40
0
 40
0
 40
0
 40
0
 40
1
 40
1
 40
1
 40
1
 10
446.950346
 20
417.325380
 30
0.0
 10
446.538444
 20
417.411269
 30
0.0
 10
446.228787
 20
417.508781
 30
0.0
 10
446.000939
 20
417.619276
 30
0.0
  0
SPLINE
  5
29d
100
AcDbEntity
  8
Vector_Middle
 62
7
100
AcDbSpline
 70
8
 71
3
 72
8
 73
4
 74
0
 40
0
 40
0
 40
0
 40
0
 40
1
 40
1
 40
1
 40
1
 10
446.000939
 20
417.619276
 30
0.0
 10
445.773033
 20
417.729827
 30
0.0
 10
445.627049
 20
417.853134
 30
0.0
 10
445.542321
 20
417.990132
 30
0.0
  0
SPLINE
  5
29e
100
AcDbEntity
  8
Vector_Middle
 62
7
100
AcDbSpline
 70
8
 71
3
 72
8
 73
4
 74
0
 40
0
 40
0
 40
0
 40
0
 40
1
 40
1
 40
1
 40
1
 10
445.542321
 20
417.990132
 30
0.0
 10
445.369975
 20
418.268778
 30
0.0
 10
445.255909
 20
418.538523
 30
0.0
 10
445.196863
 20
418.797071
 30
0.0
  0
SPLINE
  5
29f
100
AcDbEntity
  8
Vector_Middle
 62
7
100
AcDbSpline
 70
8
 71
3
 72
8
 73
4
 74
0
 40
0
 40
0
 40
0
 40
0
 40
1
 40
1
 40
1
 40
1
 10
445.196863
 20
418.797071
 30
0.0
 10
445.137902
 20
419.055591
 30
0.0
 10
445.133934
 20
419.303027
 30
0.0
 10
445.182690
 20
419.537197
 30
0.0
  0
SPLINE
  5
2a0
100
AcDbEntity
  8
Vector_Middle
 62
7
100
AcDbSpline
 70
8
 71
3
 72
8
 73
4
 74
0
 40
0
 40
0
 40
0
 40
0
 40
1
 40
1
 40
1
 40
1
 10
445.182690
 20
419.537197
 30
0.0
 10
445.230879
 20
419.771339
 30
0.0
 10
445.331225
 20
419.992299
 30
0.0
 10
445.480951
 20
420.197924
 30
0.0
  0
SPLINE
  5
2a1
100
AcDbEntity
  8
Vector_Middle
 62
7
100
AcDbSpline
 70
8
 71
3
 72
8
 73
4
 74
0
 40
0
 40
0
 40
0
 40
0
 40
1
 40
1
 40
1
 40
1
 10
445.480951
 20
420.197924
 30
0.0
 10
445.630620
 20
420.403436
 30
0.0
 10
445.829329
 20
420.593811
 30
0.0
 10
446.074356
 20
420.766696
 30
0.0
  0
SPLINE
  5
2a2
100
AcDbEntity
  8
Vector_Middle
 62
7
100
AcDbSpline
 70
8
 71
3
 72
8
 73
4
 74
0
 40
0
 40
0
 40
0
 40
0
 40
1
 40
1
 40
1
 40
1
 10
446.074356
 20
420.766696
 30
0.0
 10
446.319269
 20
420.939609
 30
0.0
 10
446.610586
 20
421.095005
 30
0.0
 10
446.945074
 20
421.230954
 30
0.0
  0
SPLINE
  5
2a3
100
AcDbEntity
  8
Vector_Middle
 62
7
100
AcDbSpline
 70
8
 71
3
 72
8
 73
4
 74
0
 40
0
 40
0
 40
0
 40
0
 40
1
 40
1
 40
1
 40
1
 10
446.945074
 20
421.230954
 30
0.0
 10
447.279562
 20
421.367017
 30
0.0
 10
447.657307
 20
421.483238
 30
0.0
 10
448.075332
 20
421.578113
 30
0.0
  0
SPLINE
  5
2a4
100
AcDbEntity
  8
Vector_Middle
 62
7
100
AcDbSpline
 70
8
 71
3
 72
8
 73
4
 74
0
 40
0
 40
0
 40
0
 40
0
 40
1
 40
1
 40
1
 40
1
 10
448.075332
 20
421.578113
 30
0.0
 10
448.493357
 20
421.672791
 30
0.0
 10
448.951691
 20
421.746208
 30
0.0
 10
449.447301
 20
421.795531
 30
0.0
  0
SPLINE
  5
2a5
100
AcDbEntity
  8
Vector_Middle
 62
7
100
AcDbSpline
 70
8
 71
3
 72
8
 73
4
 74
0
 40
0
 40
0
 40
0
 40
0
 40
1
 40
1
 40
1
 40
1
 10
449.447301
 20
421.795531
 30
0.0
 10
449.942939
 20
421.845137
 30
0.0
 10
450.475880
 20
421.870932
 30
0.0
 10
451.043178
 20
421.870932
 30
0.0
  0
SPLINE
  5
2a6
100
AcDbEntity
  8
Vector_Middle
 62
7
100
AcDbSpline
 70
8
 71
3
 72
8
 73
4
 74
0
 40
0
 40
0
 40
0
 40
0
 40
1
 40
1
 40
1
 40
1
 10
451.043178
 20
421.870932
 30
0.0
 10
451.468998
 20
421.870932
 30
0.0
 10
451.860860
 20
421.879436
 30
0.0
 10
452.223780
 20
421.896444
 30
0.0
  0
SPLINE
  5
2a7
100
AcDbEntity
  8
Vector_Middle
 62
7
100
AcDbSpline
 70
8
 71
3
 72
8
 73
4
 74
0
 40
0
 40
0
 40
0
 40
0
 40
1
 40
1
 40
1
 40
1
 10
452.223780
 20
421.896444
 30
0.0
 10
452.586728
 20
421.913452
 30
0.0
 10
452.920734
 20
421.942365
 30
0.0
 10
453.230872
 20
421.982617
 30
0.0
  0
SPLINE
  5
2a8
100
AcDbEntity
  8
Vector_Middle
 62
7
100
AcDbSpline
 70
8
 71
3
 72
8
 73
4
 74
0
 40
0
 40
0
 40
0
 40
0
 40
1
 40
1
 40
1
 40
1
 10
453.230872
 20
421.982617
 30
0.0
 10
453.541011
 20
422.022869
 30
0.0
 10
453.827254
 20
422.075027
 30
0.0
 10
454.094674
 20
422.141641
 30
0.0
  0
SPLINE
  5
2a9
100
AcDbEntity
  8
Vector_Middle
 62
7
100
AcDbSpline
 70
8
 71
3
 72
8
 73
4
 74
0
 40
0
 40
0
 40
0
 40
0
 40
1
 40
1
 40
1
 40
1
 10
454.094674
 20
422.141641
 30
0.0
 10
454.361981
 20
422.208255
 30
0.0
 10
454.610665
 20
422.288759
 30
0.0
 10
454.845430
 20
422.385987
 30
0.0
  0
SPLINE
  5
2aa
100
AcDbEntity
  8
Vector_Middle
 62
7
100
AcDbSpline
 70
8
 71
3
 72
8
 73
4
 74
0
 40
0
 40
0
 40
0
 40
0
 40
1
 40
1
 40
1
 40
1
 10
454.845430
 20
422.385987
 30
0.0
 10
455.080139
 20
422.482932
 30
0.0
 10
455.301156
 20
422.596318
 30
0.0
 10
455.513386
 20
422.727902
 30
0.0
  0
SPLINE
  5
2ab
100
AcDbEntity
  8
Vector_Middle
 62
7
100
AcDbSpline
 70
8
 71
3
 72
8
 73
4
 74
0
 40
0
 40
0
 40
0
 40
0
 40
1
 40
1
 40
1
 40
1
 10
455.513386
 20
422.727902
 30
0.0
 10
455.725701
 20
422.859430
 30
0.0
 10
455.929030
 20
423.009666
 30
0.0
 10
456.128759
 20
423.180057
 30
0.0
  0
SPLINE
  5
2ac
100
AcDbEntity
  8
Vector_Middle
 62
7
100
AcDbSpline
 70
8
 71
3
 72
8
 73
4
 74
0
 40
0
 40
0
 40
0
 40
0
 40
1
 40
1
 40
1
 40
1
 10
456.128759
 20
423.180057
 30
0.0
 10
456.328602
 20
423.350419
 30
0.0
 10
456.524504
 20
423.541474
 30
0.0
 10
456.721824
 20
423.754951
 30
0.0
  0
SPLINE
  5
2ad
100
AcDbEntity
  8
Vector_Middle
 62
7
100
AcDbSpline
 70
8
 71
3
 72
8
 73
4
 74
0
 40
0
 40
0
 40
0
 40
0
 40
1
 40
1
 40
1
 40
1
 10
456.721824
 20
423.754951
 30
0.0
 10
456.919115
 20
423.968400
 30
0.0
 10
457.117795
 20
424.204413
 30
0.0
 10
457.322797
 20
424.465030
 30
0.0
  0
SPLINE
  5
2ae
100
AcDbEntity
  8
Vector_Middle
 62
7
100
AcDbSpline
 70
8
 71
3
 72
8
 73
4
 74
0
 40
0
 40
0
 40
0
 40
0
 40
1
 40
1
 40
1
 40
1
 10
457.322797
 20
424.465030
 30
0.0
 10
457.669276
 20
424.905506
 30
0.0
 10
457.969805
 20
425.320271
 30
0.0
 10
458.222457
 20
425.730983
 30
0.0
  0
SPLINE
  5
2af
100
AcDbEntity
  8
Vector_Middle
 62
7
100
AcDbSpline
 70
8
 71
3
 72
8
 73
4
 74
0
 40
0
 40
0
 40
0
 40
0
 40
1
 40
1
 40
1
 40
1
 10
458.222457
 20
425.730983
 30
0.0
 10
458.475024
 20
426.141694
 30
0.0
 10
458.679855
 20
426.548324
 30
0.0
 10
458.834825
 20
426.972501
 30
0.0
  0
SPLINE
  5
2b0
100
AcDbEntity
  8
Vector_Middle
 62
7
100
AcDbSpline
 70
8
 71
3
 72
8
 73
4
 74
0
 40
0
 40
0
 40
0
 40
0
 40
1
 40
1
 40
1
 40
1
 10
458.834825
 20
426.972501
 30
0.0
 10
458.989880
 20
427.396649
 30
0.0
 10
459.094762
 20
427.838343
 30
0.0
 10
459.148280
 20
428.319184
 30
0.0
  0
SPLINE
  5
2b1
100
AcDbEntity
  8
Vector_Middle
 62
7
100
AcDbSpline
 70
8
 71
3
 72
8
 73
4
 74
0
 40
0
 40
0
 40
0
 40
0
 40
1
 40
1
 40
1
 40
1
 10
459.148280
 20
428.319184
 30
0.0
 10
459.201572
 20
428.800025
 30
0.0
 10
459.203272
 20
429.319984
 30
0.0
 10
459.151115
 20
429.900718
 30
0.0
  0
SPLINE
  5
2b2
100
AcDbEntity
  8
Vector_Middle
 62
7
100
AcDbSpline
 70
8
 71
3
 72
8
 73
4
 74
0
 40
0
 40
0
 40
0
 40
0
 40
1
 40
1
 40
1
 40
1
 10
459.151115
 20
429.900718
 30
0.0
 10
459.098957
 20
430.481424
 30
0.0
 10
458.993225
 20
431.122904
 30
0.0
 10
458.831934
 20
431.846731
 30
0.0
  0
SPLINE
  5
2b3
100
AcDbEntity
  8
Vector_Middle
 62
7
100
AcDbSpline
 70
8
 71
3
 72
8
 73
4
 74
0
 40
0
 40
0
 40
0
 40
0
 40
1
 40
1
 40
1
 40
1
 10
458.831934
 20
431.846731
 30
0.0
 10
458.670643
 20
432.570557
 30
0.0
 10
458.453537
 20
433.376731
 30
0.0
 10
458.178945
 20
434.286879
 30
0.0
  0
SPLINE
  5
2b4
100
AcDbEntity
  8
Vector_Middle
 62
7
100
AcDbSpline
 70
8
 71
3
 72
8
 73
4
 74
0
 40
0
 40
0
 40
0
 40
0
 40
1
 40
1
 40
1
 40
1
 10
458.178945
 20
434.286879
 30
0.0
 10
457.904268
 20
435.197027
 30
0.0
 10
457.572246
 20
436.211121
 30
0.0
 10
457.180611
 20
437.350791
 30
0.0
  0
SPLINE
  5
2b5
100
AcDbEntity
  8
Vector_Middle
 62
7
100
AcDbSpline
 70
8
 71
3
 72
8
 73
4
 74
0
 40
0
 40
0
 40
0
 40
0
 40
1
 40
1
 40
1
 40
1
 10
457.180611
 20
437.350791
 30
0.0
 10
456.788948
 20
438.490460
 30
0.0
 10
456.337814
 20
439.755704
 30
0.0
 10
455.825225
 20
441.168123
 30
0.0
  0
SPLINE
  5
2b6
100
AcDbEntity
  8
Vector_Middle
 62
7
100
AcDbSpline
 70
8
 71
3
 72
8
 73
4
 74
0
 40
0
 40
0
 40
0
 40
0
 40
1
 40
1
 40
1
 40
1
 10
455.825225
 20
441.168123
 30
0.0
 10
455.582013
 20
441.838403
 30
0.0
 10
455.331798
 20
442.528072
 30
0.0
 10
455.078296
 20
443.227068
 30
0.0
  0
SPLINE
  5
2b7
100
AcDbEntity
  8
Vector_Middle
 62
7
100
AcDbSpline
 70
8
 71
3
 72
8
 73
4
 74
0
 40
0
 40
0
 40
0
 40
0
 40
1
 40
1
 40
1
 40
1
 10
455.078296
 20
443.227068
 30
0.0
 10
454.824879
 20
443.926091
 30
0.0
 10
454.568032
 20
444.634441
 30
0.0
 10
454.311581
 20
445.342139
 30
0.0
  0
SPLINE
  5
2b8
100
AcDbEntity
  8
Vector_Middle
 62
7
100
AcDbSpline
 70
8
 71
3
 72
8
 73
4
 74
0
 40
0
 40
0
 40
0
 40
0
 40
1
 40
1
 40
1
 40
1
 10
454.311581
 20
445.342139
 30
0.0
 10
454.055046
 20
446.049808
 30
0.0
 10
453.798992
 20
446.756825
 30
0.0
 10
453.546794
 20
447.453128
 30
0.0
  0
SPLINE
  5
2b9
100
AcDbEntity
  8
Vector_Middle
 62
7
100
AcDbSpline
 70
8
 71
3
 72
8
 73
4
 74
0
 40
0
 40
0
 40
0
 40
0
 40
1
 40
1
 40
1
 40
1
 10
453.546794
 20
447.453128
 30
0.0
 10
453.294510
 20
448.149430
 30
0.0
 10
453.046422
 20
448.835017
 30
0.0
 10
452.805789
 20
449.499883
 30
0.0
  0
SPLINE
  5
2ba
100
AcDbEntity
  8
Vector_Middle
 62
7
100
AcDbSpline
 70
8
 71
3
 72
8
 73
4
 74
0
 40
0
 40
0
 40
0
 40
0
 40
1
 40
1
 40
1
 40
1
 10
452.805789
 20
449.499883
 30
0.0
 10
452.565128
 20
450.164750
 30
0.0
 10
452.332120
 20
450.808866
 30
0.0
 10
452.110309
 20
451.422198
 30
0.0
  0
SPLINE
  5
2bb
100
AcDbEntity
  8
Vector_Middle
 62
7
100
AcDbSpline
 70
8
 71
3
 72
8
 73
4
 74
0
 40
0
 40
0
 40
0
 40
0
 40
1
 40
1
 40
1
 40
1
 10
452.110309
 20
451.422198
 30
0.0
 10
451.888639
 20
452.035559
 30
0.0
 10
451.677883
 20
452.618135
 30
0.0
 10
451.482151
 20
453.159921
 30
0.0
  0
SPLINE
  5
2bc
100
AcDbEntity
  8
Vector_Middle
 62
7
100
AcDbSpline
 70
8
 71
3
 72
8
 73
4
 74
0
 40
0
 40
0
 40
0
 40
0
 40
1
 40
1
 40
1
 40
1
 10
451.482151
 20
453.159921
 30
0.0
 10
451.286277
 20
453.701707
 30
0.0
 10
451.105483
 20
454.202702
 30
0.0
 10
450.943058
 20
454.652844
 30
0.0
  0
SPLINE
  5
2bd
100
AcDbEntity
  8
Vector_Middle
 62
7
100
AcDbSpline
 70
8
 71
3
 72
8
 73
4
 74
0
 40
0
 40
0
 40
0
 40
0
 40
1
 40
1
 40
1
 40
1
 10
450.943058
 20
454.652844
 30
0.0
 10
450.780633
 20
455.103014
 30
0.0
 10
450.636690
 20
455.502331
 30
0.0
 10
450.514857
 20
455.840816
 30
0.0
  0
LWPOLYLINE
  5
2be
100
AcDbEntity
  8
Vector_Middle
 62
7
100
AcDbPolyline
 90
17
 70
0
 10
336.445569
 20
432.705033
 30
0.0
 10
336.794287
 20
432.705033
 30
0.0
 10
337.143005
 20
432.705033
 30
0.0
 10
337.491751
 20
432.705033
 30
0.0
 10
337.840469
 20
432.705033
 30
0.0
 10
338.189187
 20
432.705033
 30
0.0
 10
338.537934
 20
432.705033
 30
0.0
 10
338.886652
 20
432.705033
 30
0.0
 10
339.235370
 20
432.705033
 30
0.0
 10
339.235370
 20
435.546113
 30
0.0
 10
339.235370
 20
438.387194
 30
0.0
 10
339.235370
 20
441.228302
 30
0.0
 10
339.235370
 20
444.069383
 30
0.0
 10
339.235370
 20
446.910463
 30
0.0
 10
339.235370
 20
449.751543
 30
0.0
 10
339.235370
 20
452.592652
 30
0.0
 10
339.235710
 20
455.431720
 30
0.0
  0
SPLINE
  5
2bf
100
AcDbEntity
  8
Vector_Middle
 62
7
100
AcDbSpline
 70
8
 71
3
 72
8
 73
4
 74
0
 40
0
 40
0
 40
0
 40
0
 40
1
 40
1
 40
1
 40
1
 10
433.129918
 20
460.398926
 30
0.0
 10
432.056494
 20
460.373414
 30
0.0
 10
430.996734
 20
460.343650
 30
0.0
 10
429.962343
 20
460.309351
 30
0.0
  0
SPLINE
  5
2c0
100
AcDbEntity
  8
Vector_Middle
 62
7
100
AcDbSpline
 70
8
 71
3
 72
8
 73
4
 74
0
 40
0
 40
0
 40
0
 40
0
 40
1
 40
1
 40
1
 40
1
 10
429.962343
 20
460.309351
 30
0.0
 10
428.927953
 20
460.275052
 30
0.0
 10
427.918932
 20
460.236501
 30
0.0
 10
426.946989
 20
460.194265
 30
0.0
  0
SPLINE
  5
2c1
100
AcDbEntity
  8
Vector_Middle
 62
7
100
AcDbSpline
 70
8
 71
3
 72
8
 73
4
 74
0
 40
0
 40
0
 40
0
 40
0
 40
1
 40
1
 40
1
 40
1
 10
426.946989
 20
460.194265
 30
0.0
 10
425.975074
 20
460.152312
 30
0.0
 10
425.040208
 20
460.106674
 30
0.0
 10
424.154183
 20
460.058769
 30
0.0
  0
SPLINE
  5
2c2
100
AcDbEntity
  8
Vector_Middle
 62
7
100
AcDbSpline
 70
8
 71
3
 72
8
 73
4
 74
0
 40
0
 40
0
 40
0
 40
0
 40
1
 40
1
 40
1
 40
1
 10
424.154183
 20
460.058769
 30
0.0
 10
423.268129
 20
460.010580
 30
0.0
 10
422.430888
 20
459.959839
 30
0.0
 10
421.654167
 20
459.907398
 30
0.0
  0
SPLINE
  5
2c3
100
AcDbEntity
  8
Vector_Middle
 62
7
100
AcDbSpline
 70
8
 71
3
 72
8
 73
4
 74
0
 40
0
 40
0
 40
0
 40
0
 40
1
 40
1
 40
1
 40
1
 10
421.654167
 20
459.907398
 30
0.0
 10
420.877446
 20
459.854674
 30
0.0
 10
420.161272
 20
459.800249
 30
0.0
 10
419.517298
 20
459.744690
 30
0.0
  0
SPLINE
  5
2c4
100
AcDbEntity
  8
Vector_Middle
 62
7
100
AcDbSpline
 70
8
 71
3
 72
8
 73
4
 74
0
 40
0
 40
0
 40
0
 40
0
 40
1
 40
1
 40
1
 40
1
 10
419.517298
 20
459.744690
 30
0.0
 10
418.873351
 20
459.689131
 30
0.0
 10
418.301632
 20
459.632721
 30
0.0
 10
417.813874
 20
459.575745
 30
0.0
  0
SPLINE
  5
2c5
100
AcDbEntity
  8
Vector_Middle
 62
7
100
AcDbSpline
 70
8
 71
3
 72
8
 73
4
 74
0
 40
0
 40
0
 40
0
 40
0
 40
1
 40
1
 40
1
 40
1
 10
417.813874
 20
459.575745
 30
0.0
 10
417.326117
 20
459.519052
 30
0.0
 10
416.922321
 20
459.461792
 30
0.0
 10
416.614195
 20
459.405383
 30
0.0
  0
SPLINE
  5
2c6
100
AcDbEntity
  8
Vector_Middle
 62
7
100
AcDbSpline
 70
8
 71
3
 72
8
 73
4
 74
0
 40
0
 40
0
 40
0
 40
0
 40
1
 40
1
 40
1
 40
1
 10
416.614195
 20
459.405383
 30
0.0
 10
416.306098
 20
459.348690
 30
0.0
 10
416.093641
 20
459.292847
 30
0.0
 10
415.988589
 20
459.238139
 30
0.0
  0
SPLINE
  5
2c7
100
AcDbEntity
  8
Vector_Middle
 62
7
100
AcDbSpline
 70
8
 71
3
 72
8
 73
4
 74
0
 40
0
 40
0
 40
0
 40
0
 40
1
 40
1
 40
1
 40
1
 10
415.988589
 20
459.238139
 30
0.0
 10
415.706258
 20
459.091020
 30
0.0
 10
415.348980
 20
458.605304
 30
0.0
 10
414.940082
 20
457.856391
 30
0.0
  0
SPLINE
  5
2c8
100
AcDbEntity
  8
Vector_Middle
 62
7
100
AcDbSpline
 70
8
 71
3
 72
8
 73
4
 74
0
 40
0
 40
0
 40
0
 40
0
 40
1
 40
1
 40
1
 40
1
 10
414.940082
 20
457.856391
 30
0.0
 10
414.531213
 20
457.107477
 30
0.0
 10
414.070696
 20
456.095424
 30
0.0
 10
413.581890
 20
454.895773
 30
0.0
  0
SPLINE
  5
2c9
100
AcDbEntity
  8
Vector_Middle
 62
7
100
AcDbSpline
 70
8
 71
3
 72
8
 73
4
 74
0
 40
0
 40
0
 40
0
 40
0
 40
1
 40
1
 40
1
 40
1
 10
413.581890
 20
454.895773
 30
0.0
 10
413.093083
 20
453.696094
 30
0.0
 10
412.575987
 20
452.308819
 30
0.0
 10
412.053902
 20
450.809461
 30
0.0
  0
SPLINE
  5
2ca
100
AcDbEntity
  8
Vector_Middle
 62
7
100
AcDbSpline
 70
8
 71
3
 72
8
 73
4
 74
0
 40
0
 40
0
 40
0
 40
0
 40
1
 40
1
 40
1
 40
1
 10
412.053902
 20
450.809461
 30
0.0
 10
411.531789
 20
449.310104
 30
0.0
 10
411.004715
 20
447.698665
 30
0.0
 10
410.495981
 20
446.050658
 30
0.0
  0
SPLINE
  5
2cb
100
AcDbEntity
  8
Vector_Middle
 62
7
100
AcDbSpline
 70
8
 71
3
 72
8
 73
4
 74
0
 40
0
 40
0
 40
0
 40
0
 40
1
 40
1
 40
1
 40
1
 10
410.495981
 20
446.050658
 30
0.0
 10
409.987247
 20
444.402652
 30
0.0
 10
409.496825
 20
442.718107
 30
0.0
 10
409.048072
 20
441.072510
 30
0.0
  0
SPLINE
  5
2cc
100
AcDbEntity
  8
Vector_Middle
 62
7
100
AcDbSpline
 70
8
 71
3
 72
8
 73
4
 74
0
 40
0
 40
0
 40
0
 40
0
 40
1
 40
1
 40
1
 40
1
 10
409.048072
 20
441.072510
 30
0.0
 10
408.599320
 20
439.426942
 30
0.0
 10
408.192208
 20
437.820321
 30
0.0
 10
407.850066
 20
436.328249
 30
0.0
  0
SPLINE
  5
2cd
100
AcDbEntity
  8
Vector_Middle
 62
7
100
AcDbSpline
 70
8
 71
3
 72
8
 73
4
 74
0
 40
0
 40
0
 40
0
 40
0
 40
1
 40
1
 40
1
 40
1
 10
407.850066
 20
436.328249
 30
0.0
 10
407.507896
 20
434.836148
 30
0.0
 10
407.230724
 20
433.458539
 30
0.0
 10
407.041824
 20
432.270992
 30
0.0
  0
SPLINE
  5
2ce
100
AcDbEntity
  8
Vector_Middle
 62
7
100
AcDbSpline
 70
8
 71
3
 72
8
 73
4
 74
0
 40
0
 40
0
 40
0
 40
0
 40
1
 40
1
 40
1
 40
1
 10
407.041824
 20
432.270992
 30
0.0
 10
406.853036
 20
431.083446
 30
0.0
 10
406.752321
 20
430.085934
 30
0.0
 10
406.763178
 20
429.353972
 30
0.0
  0
SPLINE
  5
2cf
100
AcDbEntity
  8
Vector_Middle
 62
7
100
AcDbSpline
 70
8
 71
3
 72
8
 73
4
 74
0
 40
0
 40
0
 40
0
 40
0
 40
1
 40
1
 40
1
 40
1
 10
406.763178
 20
429.353972
 30
0.0
 10
406.774517
 20
428.627537
 30
0.0
 10
406.823272
 20
427.950510
 30
0.0
 10
406.911997
 20
427.321871
 30
0.0
  0
SPLINE
  5
2d0
100
AcDbEntity
  8
Vector_Middle
 62
7
100
AcDbSpline
 70
8
 71
3
 72
8
 73
4
 74
0
 40
0
 40
0
 40
0
 40
0
 40
1
 40
1
 40
1
 40
1
 10
406.911997
 20
427.321871
 30
0.0
 10
407.000721
 20
426.693232
 30
0.0
 10
407.128847
 20
426.112980
 30
0.0
 10
407.297480
 20
425.580038
 30
0.0
  0
SPLINE
  5
2d1
100
AcDbEntity
  8
Vector_Middle
 62
7
100
AcDbSpline
 70
8
 71
3
 72
8
 73
4
 74
0
 40
0
 40
0
 40
0
 40
0
 40
1
 40
1
 40
1
 40
1
 10
407.297480
 20
425.580038
 30
0.0
 10
407.466142
 20
425.047096
 30
0.0
 10
407.675083
 20
424.561493
 30
0.0
 10
407.925581
 20
424.122151
 30
0.0
  0
SPLINE
  5
2d2
100
AcDbEntity
  8
Vector_Middle
 62
7
100
AcDbSpline
 70
8
 71
3
 72
8
 73
4
 74
0
 40
0
 40
0
 40
0
 40
0
 40
1
 40
1
 40
1
 40
1
 10
407.925581
 20
424.122151
 30
0.0
 10
408.176164
 20
423.682809
 30
0.0
 10
408.467991
 20
423.289757
 30
0.0
 10
408.802365
 20
422.941890
 30
0.0
  0
SPLINE
  5
2d3
100
AcDbEntity
  8
Vector_Middle
 62
7
100
AcDbSpline
 70
8
 71
3
 72
8
 73
4
 74
0
 40
0
 40
0
 40
0
 40
0
 40
1
 40
1
 40
1
 40
1
 10
408.802365
 20
422.941890
 30
0.0
 10
409.136769
 20
422.594050
 30
0.0
 10
409.513606
 20
422.291424
 30
0.0
 10
409.933928
 20
422.032989
 30
0.0
  0
SPLINE
  5
2d4
100
AcDbEntity
  8
Vector_Middle
 62
7
100
AcDbSpline
 70
8
 71
3
 72
8
 73
4
 74
0
 40
0
 40
0
 40
0
 40
0
 40
1
 40
1
 40
1
 40
1
 10
409.933928
 20
422.032989
 30
0.0
 10
410.354249
 20
421.774469
 30
0.0
 10
410.818025
 20
421.560227
 30
0.0
 10
411.326306
 20
421.389071
 30
0.0
  0
SPLINE
  5
2d5
100
AcDbEntity
  8
Vector_Middle
 62
7
100
AcDbSpline
 70
8
 71
3
 72
8
 73
4
 74
0
 40
0
 40
0
 40
0
 40
0
 40
1
 40
1
 40
1
 40
1
 10
411.326306
 20
421.389071
 30
0.0
 10
411.834557
 20
421.217858
 30
0.0
 10
412.387313
 20
421.089846
 30
0.0
 10
412.985537
 20
421.003871
 30
0.0
  0
SPLINE
  5
2d6
100
AcDbEntity
  8
Vector_Middle
 62
7
100
AcDbSpline
 70
8
 71
3
 72
8
 73
4
 74
0
 40
0
 40
0
 40
0
 40
0
 40
1
 40
1
 40
1
 40
1
 10
412.985537
 20
421.003871
 30
0.0
 10
413.583761
 20
420.917981
 30
0.0
 10
414.227480
 20
420.874044
 30
0.0
 10
414.917717
 20
420.870926
 30
0.0
  0
SPLINE
  5
2d7
100
AcDbEntity
  8
Vector_Middle
 62
7
100
AcDbSpline
 70
8
 71
3
 72
8
 73
4
 74
0
 40
0
 40
0
 40
0
 40
0
 40
1
 40
1
 40
1
 40
1
 10
414.917717
 20
420.870926
 30
0.0
 10
415.530340
 20
420.868432
 30
0.0
 10
416.096646
 20
420.845414
 30
0.0
 10
416.615272
 20
420.805729
 30
0.0
  0
SPLINE
  5
2d8
100
AcDbEntity
  8
Vector_Middle
 62
7
100
AcDbSpline
 70
8
 71
3
 72
8
 73
4
 74
0
 40
0
 40
0
 40
0
 40
0
 40
1
 40
1
 40
1
 40
1
 10
416.615272
 20
420.805729
 30
0.0
 10
417.133928
 20
420.765194
 30
0.0
 10
417.604904
 20
420.705666
 30
0.0
 10
418.026898
 20
420.628847
 30
0.0
  0
SPLINE
  5
2d9
100
AcDbEntity
  8
Vector_Middle
 62
7
100
AcDbSpline
 70
8
 71
3
 72
8
 73
4
 74
0
 40
0
 40
0
 40
0
 40
0
 40
1
 40
1
 40
1
 40
1
 10
418.026898
 20
420.628847
 30
0.0
 10
418.448863
 20
420.551745
 30
0.0
 10
418.821846
 20
420.457068
 30
0.0
 10
419.144485
 20
420.345298
 30
0.0
  0
SPLINE
  5
2da
100
AcDbEntity
  8
Vector_Middle
 62
7
100
AcDbSpline
 70
8
 71
3
 72
8
 73
4
 74
0
 40
0
 40
0
 40
0
 40
0
 40
1
 40
1
 40
1
 40
1
 10
419.144485
 20
420.345298
 30
0.0
 10
419.467124
 20
420.233613
 30
0.0
 10
419.739420
 20
420.104920
 30
0.0
 10
419.960041
 20
419.960466
 30
0.0
  0
SPLINE
  5
2db
100
AcDbEntity
  8
Vector_Middle
 62
7
100
AcDbSpline
 70
8
 71
3
 72
8
 73
4
 74
0
 40
0
 40
0
 40
0
 40
0
 40
1
 40
1
 40
1
 40
1
 10
419.960041
 20
419.960466
 30
0.0
 10
420.180576
 20
419.815899
 30
0.0
 10
420.349550
 20
419.655373
 30
0.0
 10
420.465430
 20
419.479710
 30
0.0
  0
SPLINE
  5
2dc
100
AcDbEntity
  8
Vector_Middle
 62
7
100
AcDbSpline
 70
8
 71
3
 72
8
 73
4
 74
0
 40
0
 40
0
 40
0
 40
0
 40
1
 40
1
 40
1
 40
1
 10
420.465430
 20
419.479710
 30
0.0
 10
420.581367
 20
419.303962
 30
0.0
 10
420.644296
 20
419.113304
 30
0.0
 10
420.652800
 20
418.908331
 30
0.0
  0
SPLINE
  5
2dd
100
AcDbEntity
  8
Vector_Middle
 62
7
100
AcDbSpline
 70
8
 71
3
 72
8
 73
4
 74
0
 40
0
 40
0
 40
0
 40
0
 40
1
 40
1
 40
1
 40
1
 10
420.652800
 20
418.908331
 30
0.0
 10
420.661304
 20
418.703386
 30
0.0
 10
420.615383
 20
418.484154
 30
0.0
 10
420.513902
 20
418.251600
 30
0.0
  0
SPLINE
  5
2de
100
AcDbEntity
  8
Vector_Middle
 62
7
100
AcDbSpline
 70
8
 71
3
 72
8
 73
4
 74
0
 40
0
 40
0
 40
0
 40
0
 40
1
 40
1
 40
1
 40
1
 10
420.513902
 20
418.251600
 30
0.0
 10
420.412422
 20
418.019159
 30
0.0
 10
420.254816
 20
417.773197
 30
0.0
 10
420.040573
 20
417.514876
 30
0.0
  0
SPLINE
  5
2df
100
AcDbEntity
  8
Vector_Middle
 62
7
100
AcDbSpline
 70
8
 71
3
 72
8
 73
4
 74
0
 40
0
 40
0
 40
0
 40
0
 40
1
 40
1
 40
1
 40
1
 10
420.040573
 20
417.514876
 30
0.0
 10
419.905361
 20
417.351883
 30
0.0
 10
419.740809
 20
417.205276
 30
0.0
 10
419.528409
 20
417.073663
 30
0.0
  0
SPLINE
  5
2e0
100
AcDbEntity
  8
Vector_Middle
 62
7
100
AcDbSpline
 70
8
 71
3
 72
8
 73
4
 74
0
 40
0
 40
0
 40
0
 40
0
 40
1
 40
1
 40
1
 40
1
 10
419.528409
 20
417.073663
 30
0.0
 10
419.316094
 20
416.942135
 30
0.0
 10
419.055704
 20
416.825348
 30
0.0
 10
418.728643
 20
416.722082
 30
0.0
  0
SPLINE
  5
2e1
100
AcDbEntity
  8
Vector_Middle
 62
7
100
AcDbSpline
 70
8
 71
3
 72
8
 73
4
 74
0
 40
0
 40
0
 40
0
 40
0
 40
1
 40
1
 40
1
 40
1
 10
418.728643
 20
416.722082
 30
0.0
 10
418.401581
 20
416.618617
 30
0.0
 10
418.007764
 20
416.528759
 30
0.0
 10
417.528397
 20
416.450523
 30
0.0
  0
SPLINE
  5
2e2
100
AcDbEntity
  8
Vector_Middle
 62
7
100
AcDbSpline
 70
8
 71
3
 72
8
 73
4
 74
0
 40
0
 40
0
 40
0
 40
0
 40
1
 40
1
 40
1
 40
1
 10
417.528397
 20
416.450523
 30
0.0
 10
417.049002
 20
416.372287
 30
0.0
 10
416.484085
 20
416.305956
 30
0.0
 10
415.814769
 20
416.249546
 30
0.0
  0
SPLINE
  5
2e3
100
AcDbEntity
  8
Vector_Middle
 62
7
100
AcDbSpline
 70
8
 71
3
 72
8
 73
4
 74
0
 40
0
 40
0
 40
0
 40
0
 40
1
 40
1
 40
1
 40
1
 10
415.814769
 20
416.249546
 30
0.0
 10
415.145480
 20
416.193420
 30
0.0
 10
414.371820
 20
416.147216
 30
0.0
 10
413.474967
 20
416.109798
 30
0.0
  0
SPLINE
  5
2e4
100
AcDbEntity
  8
Vector_Middle
 62
7
100
AcDbSpline
 70
8
 71
3
 72
8
 73
4
 74
0
 40
0
 40
0
 40
0
 40
0
 40
1
 40
1
 40
1
 40
1
 10
413.474967
 20
416.109798
 30
0.0
 10
412.578113
 20
416.072381
 30
0.0
 10
411.558094
 20
416.043468
 30
0.0
 10
410.396088
 20
416.021641
 30
0.0
  0
SPLINE
  5
2e5
100
AcDbEntity
  8
Vector_Middle
 62
7
100
AcDbSpline
 70
8
 71
3
 72
8
 73
4
 74
0
 40
0
 40
0
 40
0
 40
0
 40
1
 40
1
 40
1
 40
1
 10
410.396088
 20
416.021641
 30
0.0
 10
409.234054
 20
415.998964
 30
0.0
 10
407.930060
 20
415.985074
 30
0.0
 10
406.465257
 20
415.975720
 30
0.0
  0
SPLINE
  5
2e6
100
AcDbEntity
  8
Vector_Middle
 62
7
100
AcDbSpline
 70
8
 71
3
 72
8
 73
4
 74
0
 40
0
 40
0
 40
0
 40
0
 40
1
 40
1
 40
1
 40
1
 10
406.465257
 20
415.975720
 30
0.0
 10
405.000454
 20
415.967216
 30
0.0
 10
403.374841
 20
415.961546
 30
0.0
 10
401.569625
 20
415.961546
 30
0.0
  0
SPLINE
  5
2e7
100
AcDbEntity
  8
Vector_Middle
 62
7
100
AcDbSpline
 70
8
 71
3
 72
8
 73
4
 74
0
 40
0
 40
0
 40
0
 40
0
 40
1
 40
1
 40
1
 40
1
 10
401.569625
 20
415.961546
 30
0.0
 10
399.597477
 20
415.961546
 30
0.0
 10
397.850287
 20
415.963729
 30
0.0
 10
396.303250
 20
415.970050
 30
0.0
  0
SPLINE
  5
2e8
100
AcDbEntity
  8
Vector_Middle
 62
7
100
AcDbSpline
 70
8
 71
3
 72
8
 73
4
 74
0
 40
0
 40
0
 40
0
 40
0
 40
1
 40
1
 40
1
 40
1
 10
396.303250
 20
415.970050
 30
0.0
 10
394.756214
 20
415.975720
 30
0.0
 10
393.409304
 20
415.989893
 30
0.0
 10
392.237688
 20
416.007184
 30
0.0
  0
SPLINE
  5
2e9
100
AcDbEntity
  8
Vector_Middle
 62
7
100
AcDbSpline
 70
8
 71
3
 72
8
 73
4
 74
0
 40
0
 40
0
 40
0
 40
0
 40
1
 40
1
 40
1
 40
1
 10
392.237688
 20
416.007184
 30
0.0
 10
391.066101
 20
416.027027
 30
0.0
 10
390.069780
 20
416.051972
 30
0.0
 10
389.223950
 20
416.087688
 30
0.0
  0
SPLINE
  5
2ea
100
AcDbEntity
  8
Vector_Middle
 62
7
100
AcDbSpline
 70
8
 71
3
 72
8
 73
4
 74
0
 40
0
 40
0
 40
0
 40
0
 40
1
 40
1
 40
1
 40
1
 10
389.223950
 20
416.087688
 30
0.0
 10
388.378091
 20
416.123405
 30
0.0
 10
387.682696
 20
416.169043
 30
0.0
 10
387.112932
 20
416.226586
 30
0.0
  0
SPLINE
  5
2eb
100
AcDbEntity
  8
Vector_Middle
 62
7
100
AcDbSpline
 70
8
 71
3
 72
8
 73
4
 74
0
 40
0
 40
0
 40
0
 40
0
 40
1
 40
1
 40
1
 40
1
 10
387.112932
 20
416.226586
 30
0.0
 10
386.543169
 20
416.284413
 30
0.0
 10
386.099008
 20
416.354428
 30
0.0
 10
385.755619
 20
416.439184
 30
0.0
  0
SPLINE
  5
2ec
100
AcDbEntity
  8
Vector_Middle
 62
7
100
AcDbSpline
 70
8
 71
3
 72
8
 73
4
 74
0
 40
0
 40
0
 40
0
 40
0
 40
1
 40
1
 40
1
 40
1
 10
385.755619
 20
416.439184
 30
0.0
 10
385.412258
 20
416.523940
 30
0.0
 10
385.169669
 20
416.623436
 30
0.0
 10
385.003020
 20
416.740337
 30
0.0
  0
SPLINE
  5
2ed
100
AcDbEntity
  8
Vector_Middle
 62
7
100
AcDbSpline
 70
8
 71
3
 72
8
 73
4
 74
0
 40
0
 40
0
 40
0
 40
0
 40
1
 40
1
 40
1
 40
1
 10
385.003020
 20
416.740337
 30
0.0
 10
384.836343
 20
416.857124
 30
0.0
 10
384.745635
 20
416.991203
 30
0.0
 10
384.706063
 20
417.145209
 30
0.0
  0
SPLINE
  5
2ee
100
AcDbEntity
  8
Vector_Middle
 62
7
100
AcDbSpline
 70
8
 71
3
 72
8
 73
4
 74
0
 40
0
 40
0
 40
0
 40
0
 40
1
 40
1
 40
1
 40
1
 10
384.706063
 20
417.145209
 30
0.0
 10
384.666378
 20
417.299131
 30
0.0
 10
384.677717
 20
417.472866
 30
0.0
 10
384.714567
 20
417.668910
 30
0.0
  0
LWPOLYLINE
  5
2ef
100
AcDbEntity
  8
Vector_Middle
 62
7
100
AcDbPolyline
 90
17
 70
0
 10
450.514857
 20
455.840816
 30
0.0
 10
450.293187
 20
456.456217
 30
0.0
 10
450.071802
 20
457.071619
 30
0.0
 10
449.850416
 20
457.687020
 30
0.0
 10
449.629030
 20
458.302422
 30
0.0
 10
449.407361
 20
458.917824
 30
0.0
 10
449.185975
 20
459.533225
 30
0.0
 10
448.964589
 20
460.148627
 30
0.0
 10
448.743203
 20
460.764028
 30
0.0
 10
446.791550
 20
460.718391
 30
0.0
 10
444.839896
 20
460.672753
 30
0.0
 10
442.888214
 20
460.627115
 30
0.0
 10
440.936561
 20
460.581477
 30
0.0
 10
438.984907
 20
460.535839
 30
0.0
 10
437.033254
 20
460.490202
 30
0.0
 10
435.081572
 20
460.444564
 30
0.0
 10
433.129918
 20
460.398926
 30
0.0
  0
SPLINE
  5
2f0
100
AcDbEntity
  8
Vector_Middle
 62
7
100
AcDbSpline
 70
8
 71
3
 72
8
 73
4
 74
0
 40
0
 40
0
 40
0
 40
0
 40
1
 40
1
 40
1
 40
1
 10
441.793757
 20
468.767225
 30
0.0
 10
442.314198
 20
468.853398
 30
0.0
 10
442.773213
 20
468.901020
 30
0.0
 10
443.164847
 20
468.955446
 30
0.0
  0
SPLINE
  5
2f1
100
AcDbEntity
  8
Vector_Middle
 62
7
100
AcDbSpline
 70
8
 71
3
 72
8
 73
4
 74
0
 40
0
 40
0
 40
0
 40
0
 40
1
 40
1
 40
1
 40
1
 10
443.164847
 20
468.955446
 30
0.0
 10
443.556510
 20
469.009871
 30
0.0
 10
443.880822
 20
469.071099
 30
0.0
 10
444.131858
 20
469.183918
 30
0.0
  0
SPLINE
  5
2f2
100
AcDbEntity
  8
Vector_Middle
 62
7
100
AcDbSpline
 70
8
 71
3
 72
8
 73
4
 74
0
 40
0
 40
0
 40
0
 40
0
 40
1
 40
1
 40
1
 40
1
 10
444.131858
 20
469.183918
 30
0.0
 10
444.383008
 20
469.296737
 30
0.0
 10
444.560712
 20
469.461146
 30
0.0
 10
444.659329
 20
469.722246
 30
0.0
  0
SPLINE
  5
2f3
100
AcDbEntity
  8
Vector_Middle
 62
7
100
AcDbSpline
 70
8
 71
3
 72
8
 73
4
 74
0
 40
0
 40
0
 40
0
 40
0
 40
1
 40
1
 40
1
 40
1
 10
444.659329
 20
469.722246
 30
0.0
 10
444.757975
 20
469.983317
 30
0.0
 10
444.777250
 20
470.341106
 30
0.0
 10
444.711770
 20
470.840513
 30
0.0
  0
SPLINE
  5
2f4
100
AcDbEntity
  8
Vector_Middle
 62
7
100
AcDbSpline
 70
8
 71
3
 72
8
 73
4
 74
0
 40
0
 40
0
 40
0
 40
0
 40
1
 40
1
 40
1
 40
1
 10
444.711770
 20
470.840513
 30
0.0
 10
444.646006
 20
471.339893
 30
0.0
 10
444.495487
 20
471.980948
 30
0.0
 10
444.253606
 20
472.808608
 30
0.0
  0
SPLINE
  5
2f5
100
AcDbEntity
  8
Vector_Middle
 62
7
100
AcDbSpline
 70
8
 71
3
 72
8
 73
4
 74
0
 40
0
 40
0
 40
0
 40
0
 40
1
 40
1
 40
1
 40
1
 10
444.253606
 20
472.808608
 30
0.0
 10
444.011811
 20
473.636268
 30
0.0
 10
443.679109
 20
474.650561
 30
0.0
 10
443.249405
 20
475.896472
 30
0.0
  0
SPLINE
  5
2f6
100
AcDbEntity
  8
Vector_Middle
 62
7
100
AcDbSpline
 70
8
 71
3
 72
8
 73
4
 74
0
 40
0
 40
0
 40
0
 40
0
 40
1
 40
1
 40
1
 40
1
 10
443.249405
 20
475.896472
 30
0.0
 10
442.819729
 20
477.142384
 30
0.0
 10
442.293137
 20
478.619915
 30
0.0
 10
441.663704
 20
480.374050
 30
0.0
  0
SPLINE
  5
2f7
100
AcDbEntity
  8
Vector_Middle
 62
7
100
AcDbSpline
 70
8
 71
3
 72
8
 73
4
 74
0
 40
0
 40
0
 40
0
 40
0
 40
1
 40
1
 40
1
 40
1
 10
441.663704
 20
480.374050
 30
0.0
 10
441.034299
 20
482.128157
 30
0.0
 10
440.302025
 20
484.158898
 30
0.0
 10
439.461014
 20
486.511200
 30
0.0
  0
SPLINE
  5
2f8
100
AcDbEntity
  8
Vector_Middle
 62
7
100
AcDbSpline
 70
8
 71
3
 72
8
 73
4
 74
0
 40
0
 40
0
 40
0
 40
0
 40
1
 40
1
 40
1
 40
1
 10
439.461014
 20
486.511200
 30
0.0
 10
438.921099
 20
488.021386
 30
0.0
 10
438.401537
 20
489.432529
 30
0.0
 10
437.903150
 20
490.743184
 30
0.0
  0
SPLINE
  5
2f9
100
AcDbEntity
  8
Vector_Middle
 62
7
100
AcDbSpline
 70
8
 71
3
 72
8
 73
4
 74
0
 40
0
 40
0
 40
0
 40
0
 40
1
 40
1
 40
1
 40
1
 10
437.903150
 20
490.743184
 30
0.0
 10
437.404762
 20
492.053868
 30
0.0
 10
436.927521
 20
493.264006
 30
0.0
 10
436.472220
 20
494.372211
 30
0.0
  0
SPLINE
  5
2fa
100
AcDbEntity
  8
Vector_Middle
 62
7
100
AcDbSpline
 70
8
 71
3
 72
8
 73
4
 74
0
 40
0
 40
0
 40
0
 40
0
 40
1
 40
1
 40
1
 40
1
 10
436.472220
 20
494.372211
 30
0.0
 10
436.016920
 20
495.480416
 30
0.0
 10
435.583531
 20
496.486630
 30
0.0
 10
435.172819
 20
497.389436
 30
0.0
  0
SPLINE
  5
2fb
100
AcDbEntity
  8
Vector_Middle
 62
7
100
AcDbSpline
 70
8
 71
3
 72
8
 73
4
 74
0
 40
0
 40
0
 40
0
 40
0
 40
1
 40
1
 40
1
 40
1
 10
435.172819
 20
497.389436
 30
0.0
 10
434.762135
 20
498.292243
 30
0.0
 10
434.374129
 20
499.091584
 30
0.0
 10
434.009622
 20
499.786044
 30
0.0
  0
SPLINE
  5
2fc
100
AcDbEntity
  8
Vector_Middle
 62
7
100
AcDbSpline
 70
8
 71
3
 72
8
 73
4
 74
0
 40
0
 40
0
 40
0
 40
0
 40
1
 40
1
 40
1
 40
1
 10
434.009622
 20
499.786044
 30
0.0
 10
433.645087
 20
500.480504
 30
0.0
 10
433.304022
 20
501.070082
 30
0.0
 10
432.987194
 20
501.553247
 30
0.0
  0
SPLINE
  5
2fd
100
AcDbEntity
  8
Vector_Middle
 62
7
100
AcDbSpline
 70
8
 71
3
 72
8
 73
4
 74
0
 40
0
 40
0
 40
0
 40
0
 40
1
 40
1
 40
1
 40
1
 10
432.987194
 20
501.553247
 30
0.0
 10
432.670365
 20
502.036441
 30
0.0
 10
432.377802
 20
502.413250
 30
0.0
 10
432.110211
 20
502.682230
 30
0.0
  0
SPLINE
  5
2fe
100
AcDbEntity
  8
Vector_Middle
 62
7
100
AcDbSpline
 70
8
 71
3
 72
8
 73
4
 74
0
 40
0
 40
0
 40
0
 40
0
 40
1
 40
1
 40
1
 40
1
 10
432.110211
 20
502.682230
 30
0.0
 10
431.842620
 20
502.951238
 30
0.0
 10
431.600060
 20
503.112331
 30
0.0
 10
431.383294
 20
503.164148
 30
0.0
  0
SPLINE
  5
2ff
100
AcDbEntity
  8
Vector_Middle
 62
7
100
AcDbSpline
 70
8
 71
3
 72
8
 73
4
 74
0
 40
0
 40
0
 40
0
 40
0
 40
1
 40
1
 40
1
 40
1
 10
431.383294
 20
503.164148
 30
0.0
 10
431.166444
 20
503.216022
 30
0.0
 10
430.975502
 20
503.158479
 30
0.0
 10
430.811036
 20
502.990101
 30
0.0
  0
SPLINE
  5
300
100
AcDbEntity
  8
Vector_Middle
 62
7
100
AcDbSpline
 70
8
 71
3
 72
8
 73
4
 74
0
 40
0
 40
0
 40
0
 40
0
 40
1
 40
1
 40
1
 40
1
 10
430.811036
 20
502.990101
 30
0.0
 10
430.646910
 20
502.822290
 30
0.0
 10
430.460220
 20
502.551156
 30
0.0
 10
430.244532
 20
502.158813
 30
0.0
  0
SPLINE
  5
301
100
AcDbEntity
  8
Vector_Middle
 62
7
100
AcDbSpline
 70
8
 71
3
 72
8
 73
4
 74
0
 40
0
 40
0
 40
0
 40
0
 40
1
 40
1
 40
1
 40
1
 10
430.244532
 20
502.158813
 30
0.0
 10
430.028816
 20
501.766469
 30
0.0
 10
429.784243
 20
501.252832
 30
0.0
 10
429.504378
 20
500.599757
 30
0.0
  0
SPLINE
  5
302
100
AcDbEntity
  8
Vector_Middle
 62
7
100
AcDbSpline
 70
8
 71
3
 72
8
 73
4
 74
0
 40
0
 40
0
 40
0
 40
0
 40
1
 40
1
 40
1
 40
1
 10
429.504378
 20
500.599757
 30
0.0
 10
429.224598
 20
499.946712
 30
0.0
 10
428.909414
 20
499.154258
 30
0.0
 10
428.552787
 20
498.204255
 30
0.0
  0
SPLINE
  5
303
100
AcDbEntity
  8
Vector_Middle
 62
7
100
AcDbSpline
 70
8
 71
3
 72
8
 73
4
 74
0
 40
0
 40
0
 40
0
 40
0
 40
1
 40
1
 40
1
 40
1
 10
428.552787
 20
498.204255
 30
0.0
 10
428.196132
 20
497.254252
 30
0.0
 10
427.797950
 20
496.146699
 30
0.0
 10
427.351918
 20
494.863483
 30
0.0
  0
SPLINE
  5
304
100
AcDbEntity
  8
Vector_Middle
 62
7
100
AcDbSpline
 70
8
 71
3
 72
8
 73
4
 74
0
 40
0
 40
0
 40
0
 40
0
 40
1
 40
1
 40
1
 40
1
 10
427.351918
 20
494.863483
 30
0.0
 10
426.905887
 20
493.580268
 30
0.0
 10
426.412035
 20
492.121417
 30
0.0
 10
425.864013
 20
490.468734
 30
0.0
  0
SPLINE
  5
305
100
AcDbEntity
  8
Vector_Middle
 62
7
100
AcDbSpline
 70
8
 71
3
 72
8
 73
4
 74
0
 40
0
 40
0
 40
0
 40
0
 40
1
 40
1
 40
1
 40
1
 10
425.864013
 20
490.468734
 30
0.0
 10
425.315991
 20
488.816079
 30
0.0
 10
424.713827
 20
486.969619
 30
0.0
 10
424.051228
 20
484.911269
 30
0.0
  0
SPLINE
  5
306
100
AcDbEntity
  8
Vector_Middle
 62
7
100
AcDbSpline
 70
8
 71
3
 72
8
 73
4
 74
0
 40
0
 40
0
 40
0
 40
0
 40
1
 40
1
 40
1
 40
1
 10
424.051228
 20
484.911269
 30
0.0
 10
423.388630
 20
482.852891
 30
0.0
 10
422.665597
 20
480.582624
 30
0.0
 10
421.875808
 20
478.082296
 30
0.0
  0
SPLINE
  5
307
100
AcDbEntity
  8
Vector_Middle
 62
7
100
AcDbSpline
 70
8
 71
3
 72
8
 73
4
 74
0
 40
0
 40
0
 40
0
 40
0
 40
1
 40
1
 40
1
 40
1
 10
421.875808
 20
478.082296
 30
0.0
 10
421.086019
 20
475.581997
 30
0.0
 10
420.229502
 20
472.851638
 30
0.0
 10
419.299937
 20
469.873106
 30
0.0
  0
SPLINE
  5
308
100
AcDbEntity
  8
Vector_Middle
 62
7
100
AcDbSpline
 70
8
 71
3
 72
8
 73
4
 74
0
 40
0
 40
0
 40
0
 40
0
 40
1
 40
1
 40
1
 40
1
 10
419.299937
 20
469.873106
 30
0.0
 10
419.238992
 20
469.677798
 30
0.0
 10
419.199024
 20
469.504630
 30
0.0
 10
419.193354
 20
469.350822
 30
0.0
  0
SPLINE
  5
309
100
AcDbEntity
  8
Vector_Middle
 62
7
100
AcDbSpline
 70
8
 71
3
 72
8
 73
4
 74
0
 40
0
 40
0
 40
0
 40
0
 40
1
 40
1
 40
1
 40
1
 10
419.193354
 20
469.350822
 30
0.0
 10
419.187685
 20
469.196901
 30
0.0
 10
419.216032
 20
469.062680
 30
0.0
 10
419.290299
 20
468.945439
 30
0.0
  0
SPLINE
  5
30a
100
AcDbEntity
  8
Vector_Middle
 62
7
100
AcDbSpline
 70
8
 71
3
 72
8
 73
4
 74
0
 40
0
 40
0
 40
0
 40
0
 40
1
 40
1
 40
1
 40
1
 10
419.290299
 20
468.945439
 30
0.0
 10
419.365134
 20
468.828085
 30
0.0
 10
419.486740
 20
468.728022
 30
0.0
 10
419.668299
 20
468.642557
 30
0.0
  0
SPLINE
  5
30b
100
AcDbEntity
  8
Vector_Middle
 62
7
100
AcDbSpline
 70
8
 71
3
 72
8
 73
4
 74
0
 40
0
 40
0
 40
0
 40
0
 40
1
 40
1
 40
1
 40
1
 10
419.668299
 20
468.642557
 30
0.0
 10
419.849717
 20
468.556951
 30
0.0
 10
420.090832
 20
468.486369
 30
0.0
 10
420.404513
 20
468.427691
 30
0.0
  0
SPLINE
  5
30c
100
AcDbEntity
  8
Vector_Middle
 62
7
100
AcDbSpline
 70
8
 71
3
 72
8
 73
4
 74
0
 40
0
 40
0
 40
0
 40
0
 40
1
 40
1
 40
1
 40
1
 10
420.404513
 20
468.427691
 30
0.0
 10
420.718224
 20
468.369298
 30
0.0
 10
421.104501
 20
468.322809
 30
0.0
 10
421.576243
 20
468.286526
 30
0.0
  0
SPLINE
  5
30d
100
AcDbEntity
  8
Vector_Middle
 62
7
100
AcDbSpline
 70
8
 71
3
 72
8
 73
4
 74
0
 40
0
 40
0
 40
0
 40
0
 40
1
 40
1
 40
1
 40
1
 10
421.576243
 20
468.286526
 30
0.0
 10
422.048013
 20
468.250243
 30
0.0
 10
422.605219
 20
468.223597
 30
0.0
 10
423.260759
 20
468.204605
 30
0.0
  0
SPLINE
  5
30e
100
AcDbEntity
  8
Vector_Middle
 62
7
100
AcDbSpline
 70
8
 71
3
 72
8
 73
4
 74
0
 40
0
 40
0
 40
0
 40
0
 40
1
 40
1
 40
1
 40
1
 10
423.260759
 20
468.204605
 30
0.0
 10
423.916328
 20
468.184762
 30
0.0
 10
424.670230
 20
468.173991
 30
0.0
 10
425.535364
 20
468.167471
 30
0.0
  0
SPLINE
  5
30f
100
AcDbEntity
  8
Vector_Middle
 62
7
100
AcDbSpline
 70
8
 71
3
 72
8
 73
4
 74
0
 40
0
 40
0
 40
0
 40
0
 40
1
 40
1
 40
1
 40
1
 10
425.535364
 20
468.167471
 30
0.0
 10
426.400469
 20
468.161802
 30
0.0
 10
427.376835
 20
468.158967
 30
0.0
 10
428.477272
 20
468.161802
 30
0.0
  0
SPLINE
  5
310
100
AcDbEntity
  8
Vector_Middle
 62
7
100
AcDbSpline
 70
8
 71
3
 72
8
 73
4
 74
0
 40
0
 40
0
 40
0
 40
0
 40
1
 40
1
 40
1
 40
1
 10
428.477272
 20
468.161802
 30
0.0
 10
429.145200
 20
468.162510
 30
0.0
 10
429.823247
 20
468.167471
 30
0.0
 10
430.502343
 20
468.175975
 30
0.0
  0
SPLINE
  5
311
100
AcDbEntity
  8
Vector_Middle
 62
7
100
AcDbSpline
 70
8
 71
3
 72
8
 73
4
 74
0
 40
0
 40
0
 40
0
 40
0
 40
1
 40
1
 40
1
 40
1
 10
430.502343
 20
468.175975
 30
0.0
 10
431.181439
 20
468.184479
 30
0.0
 10
431.861584
 20
468.195817
 30
0.0
 10
432.533650
 20
468.212825
 30
0.0
  0
SPLINE
  5
312
100
AcDbEntity
  8
Vector_Middle
 62
7
100
AcDbSpline
 70
8
 71
3
 72
8
 73
4
 74
0
 40
0
 40
0
 40
0
 40
0
 40
1
 40
1
 40
1
 40
1
 10
432.533650
 20
468.212825
 30
0.0
 10
433.205717
 20
468.229833
 30
0.0
 10
433.869732
 20
468.247691
 30
0.0
 10
434.516570
 20
468.269802
 30
0.0
  0
SPLINE
  5
313
100
AcDbEntity
  8
Vector_Middle
 62
7
100
AcDbSpline
 70
8
 71
3
 72
8
 73
4
 74
0
 40
0
 40
0
 40
0
 40
0
 40
1
 40
1
 40
1
 40
1
 10
434.516570
 20
468.269802
 30
0.0
 10
435.163408
 20
468.292479
 30
0.0
 10
435.793096
 20
468.316857
 30
0.0
 10
436.396507
 20
468.344353
 30
0.0
  0
SPLINE
  5
314
100
AcDbEntity
  8
Vector_Middle
 62
7
100
AcDbSpline
 70
8
 71
3
 72
8
 73
4
 74
0
 40
0
 40
0
 40
0
 40
0
 40
1
 40
1
 40
1
 40
1
 10
436.396507
 20
468.344353
 30
0.0
 10
436.999890
 20
468.372699
 30
0.0
 10
437.577024
 20
468.401896
 30
0.0
 10
438.118809
 20
468.433928
 30
0.0
  0
SPLINE
  5
315
100
AcDbEntity
  8
Vector_Middle
 62
7
100
AcDbSpline
 70
8
 71
3
 72
8
 73
4
 74
0
 40
0
 40
0
 40
0
 40
0
 40
1
 40
1
 40
1
 40
1
 10
438.118809
 20
468.433928
 30
0.0
 10
438.660567
 20
468.465959
 30
0.0
 10
439.166948
 20
468.500258
 30
0.0
 10
439.628854
 20
468.536258
 30
0.0
  0
SPLINE
  5
316
100
AcDbEntity
  8
Vector_Middle
 62
7
100
AcDbSpline
 70
8
 71
3
 72
8
 73
4
 74
0
 40
0
 40
0
 40
0
 40
0
 40
1
 40
1
 40
1
 40
1
 10
439.628854
 20
468.536258
 30
0.0
 10
440.090787
 20
468.572258
 30
0.0
 10
440.508217
 20
468.609676
 30
0.0
 10
440.872072
 20
468.648510
 30
0.0
  0
SPLINE
  5
317
100
AcDbEntity
  8
Vector_Middle
 62
7
100
AcDbSpline
 70
8
 71
3
 72
8
 73
4
 74
0
 40
0
 40
0
 40
0
 40
0
 40
1
 40
1
 40
1
 40
1
 10
440.872072
 20
468.648510
 30
0.0
 10
441.235928
 20
468.687345
 30
0.0
 10
441.546208
 20
468.727313
 30
0.0
 10
441.793814
 20
468.768416
 30
0.0
  0
LWPOLYLINE
  5
318
100
AcDbEntity
  8
Vector_Middle
 62
7
100
AcDbPolyline
 90
2
 70
0
 10
384.714567
 20
417.668910
 30
0.0
 10
384.713858
 20
417.672085
 30
0.0
  0
LWPOLYLINE
  5
319
100
AcDbEntity
  8
Vector_Middle
 62
7
100
AcDbPolyline
 90
2
 70
0
 10
441.793814
 20
468.768416
 30
0.0
 10
441.793757
 20
468.767225
 30
0.0
  0
ENDSEC
  0
SECTION
  2
OBJECTS
  0
DICTIONARY
  5
C
330
0
100
AcDbDictionary
  3
ACAD_GROUP
350
D
  3
ACAD_MLINESTYLE
350
17
  0
DICTIONARY
  5
D
330
C
100
AcDbDictionary
  0
DICTIONARY
  5
1A
330
C
100
AcDbDictionary
  0
DICTIONARY
  5
17
330
C
100
AcDbDictionary
  3
STANDARD
350
18
  0
DICTIONARY
  5
19
330
C
100
AcDbDictionary
  0
ENDSEC
  0
EOF
