<?xml version="1.0" encoding="UTF-8" standalone="no"?>
<!-- Created with Inkscape (http://www.inkscape.org/) -->

<svg
   xmlns:dc="http://purl.org/dc/elements/1.1/"
   xmlns:cc="http://creativecommons.org/ns#"
   xmlns:rdf="http://www.w3.org/1999/02/22-rdf-syntax-ns#"
   xmlns:svg="http://www.w3.org/2000/svg"
   xmlns="http://www.w3.org/2000/svg"
   xmlns:xlink="http://www.w3.org/1999/xlink"
   xmlns:sodipodi="http://sodipodi.sourceforge.net/DTD/sodipodi-0.dtd"
   xmlns:inkscape="http://www.inkscape.org/namespaces/inkscape"
   width="210mm"
   height="297mm"
   viewBox="0 0 210 297"
   version="1.1"
   id="svg8"
   inkscape:version="0.92.4 (unknown)"
   sodipodi:docname="address_caslon.svg">
  <defs
     id="defs2" />
  <sodipodi:namedview
     id="base"
     pagecolor="#ffffff"
     bordercolor="#666666"
     borderopacity="1.0"
     inkscape:pageopacity="0.0"
     inkscape:pageshadow="2"
     inkscape:zoom="0.98994949"
     inkscape:cx="692.70927"
     inkscape:cy="540.03002"
     inkscape:document-units="mm"
     inkscape:current-layer="layer4"
     showgrid="false"
     inkscape:window-width="1280"
     inkscape:window-height="751"
     inkscape:window-x="0"
     inkscape:window-y="0"
     inkscape:window-maximized="1" />
  <metadata
     id="metadata5">
    <rdf:RDF>
      <cc:Work
         rdf:about="">
        <dc:format>image/svg+xml</dc:format>
        <dc:type
           rdf:resource="http://purl.org/dc/dcmitype/StillImage" />
        <dc:title></dc:title>
      </cc:Work>
    </rdf:RDF>
  </metadata>
  <g
     inkscape:label="Layer 1"
     inkscape:groupmode="layer"
     id="layer1"
     style="display:none">
    <image
       sodipodi:absref="/home/jasonrohrer2/checkout/jason-rohrer/housing/54A_Rutland/design/mailbox/caslon_471_54A.png"
       xlink:href="caslon_471_54A.png"
       width="138.94405"
       height="104.20804"
       preserveAspectRatio="none"
       style="image-rendering:optimizeQuality"
       id="image888"
       x="57.150002"
       y="83.21666" />
  </g>
  <g
     inkscape:groupmode="layer"
     id="layer4"
     inkscape:label="Vector Middle"
     style="display:inline">
    <path
       style="display:inline;fill:#000000;stroke-width:0.34736013"
       d="m 84.591452,163.1124 c -3.075053,-0.3665 -4.442173,-0.93734 -5.047276,-2.10748 -1.100163,-2.12748 -0.282355,-4.14791 1.678946,-4.14791 0.688367,0 1.061905,0.28328 1.488584,1.12892 1.296559,2.56965 3.393408,4.08148 5.660844,4.08148 4.298481,0 7.521677,-3.71133 7.921937,-9.12166 0.426391,-5.76361 -2.566265,-10.46623 -6.948327,-10.9185 -2.319227,-0.23936 -4.323475,0.69025 -5.501264,2.5516 -1.319484,2.08527 -1.308961,2.07555 -1.658427,1.53243 -0.176453,-0.27423 -0.253518,-2.22813 -0.171257,-4.342 0.08226,-2.11387 0.215526,-7.51673 0.296145,-12.00636 0.08062,-4.48963 0.157684,-8.20204 0.171257,-8.24981 0.01357,-0.0478 3.312502,-0.0868 7.330954,-0.0868 h 7.306278 l 0.730363,-1.23787 c 1.182632,-2.00441 1.438282,-0.98962 0.741881,2.94484 l -0.627273,3.54393 -6.773523,0.18072 c -3.725437,0.0994 -6.897682,0.30042 -7.049433,0.44671 -0.151751,0.1463 -0.330727,2.49496 -0.397726,5.21924 l -0.121815,4.95325 1.092446,-0.29246 c 0.600846,-0.16085 2.421099,-0.29161 4.045007,-0.29058 2.445911,0.002 3.280393,0.15566 4.863042,0.89798 2.682374,1.25813 4.701707,3.36931 6.160095,6.44025 1.20532,2.53805 1.22947,2.67215 1.03158,5.7266 -0.25955,4.00623 -1.451094,6.70021 -4.162934,9.41205 -3.314424,3.31442 -6.736253,4.37599 -12.060104,3.74147 z m 36.197768,-2.52127 c -0.19806,-0.23881 -0.47415,-2.83149 -0.61354,-5.76152 -0.1609,-3.38216 -0.39373,-5.37054 -0.63767,-5.44568 -0.21132,-0.0651 -3.9794,-0.24695 -8.37351,-0.40412 -7.69522,-0.27525 -7.98859,-0.31156 -7.97039,-0.9865 0.0194,-0.71863 4.28236,-6.626 11.65172,-16.14623 2.29222,-2.96125 4.96032,-6.44752 5.9291,-7.74727 1.66828,-2.23821 1.82813,-2.35761 3.0227,-2.25784 l 1.26128,0.10534 0.21948,4.68937 c 0.12072,2.57915 0.23795,7.61492 0.26052,11.19061 l 0.041,6.50125 3.73412,0.0986 3.73412,0.0986 v 2.43152 2.43153 l -3.57261,0.17368 -3.57261,0.17368 -0.13175,5.34518 c -0.0977,3.96553 -0.2515,5.4211 -0.59571,5.63928 -0.71995,0.45636 -3.98024,0.36013 -4.38629,-0.12946 z m -1.1144,-24.25732 c 0,-4.41002 -0.13413,-7.96612 -0.29807,-7.90244 -0.16394,0.0637 -1.76614,2.03893 -3.56044,4.38944 -7.45851,9.77054 -7.95173,10.43857 -7.95173,10.76997 0,0.17077 2.14632,0.34381 4.76961,0.38455 2.62328,0.0407 4.5446,0.2672 4.92094,0.28386 0.46811,0.0207 0.60255,0.0928 1.13551,0.0928 h 0.98418 z m 16.04368,13.32076 c 0.0737,-0.38261 0.55852,-0.67615 1.32807,-0.80408 1.86295,-0.30971 2.64304,-0.87998 3.43136,-2.50843 3.04417,-8.07491 6.01561,-16.94504 8.87953,-24.52665 1.88345,-4.72302 1.93267,-4.92862 1.41811,-5.92366 -0.80202,-1.55095 -0.68707,-2.1074 0.43535,-2.1074 0.80807,0 1.2142,-0.37384 2.45286,-2.25784 0.81644,-1.24181 1.69808,-2.25784 1.95919,-2.25784 0.51029,0 0.70745,0.47915 4.00202,9.72608 1.19119,3.34335 2.52077,6.93852 2.95461,7.98929 0.43384,1.05076 1.22147,3.16097 1.75029,4.68936 1.96842,5.6891 5.68029,14.51043 6.45092,15.33073 0.43834,0.4666 1.47013,1.01785 2.29286,1.22502 0.82272,0.20716 1.56964,0.49604 1.65981,0.64194 0.49069,0.79394 -1.21698,0.99735 -8.98688,1.07046 -6.70678,0.0631 -8.33035,-0.0126 -8.56948,-0.39949 -0.48615,-0.78661 0.33937,-1.36906 1.9404,-1.36906 1.20175,0 1.63674,-0.17971 2.21531,-0.91524 0.97782,-1.24309 0.91836,-1.90632 -0.52827,-5.89248 -0.68651,-1.89167 -1.52953,-4.22096 -1.87338,-5.1762 l -0.62518,-1.7368 -5.50802,0.12877 c -3.02941,0.0708 -5.7506,0.25514 -6.04708,0.40958 -0.79682,0.41511 -3.28547,8.47674 -3.25448,10.54247 0.0307,2.05018 0.92881,2.98439 2.87677,2.99258 1.72894,0.007 2.41219,0.45492 1.80714,1.18397 -0.38191,0.46017 -1.42142,0.54752 -6.51614,0.54752 -5.56586,0 -6.05225,-0.0493 -5.94569,-0.6026 z m 20.13652,-18.02523 c 1.46879,-0.24289 1.55056,0.3791 -0.82296,-6.25965 -1.52379,-4.26207 -2.58739,-6.28832 -3.05152,-5.81343 -0.4631,0.47383 -1.43741,3.27689 -4.06086,11.68294 -0.17191,0.55085 0.13185,0.60752 3.23756,0.60405 1.88501,-0.002 3.999,-0.0984 4.69778,-0.21391 z"
       id="path899"
       inkscape:connector-curvature="0"
       sodipodi:nodetypes="csscsscccsscscsccccscccsssscccscsccccccccccccccccccscsscsscscccccscsccscccscssssccccccsccccccc" />
  </g>
  <g
     inkscape:groupmode="layer"
     id="layer3"
     inkscape:label="Vector Thicker"
     style="display:none">
    <path
       style="display:inline;fill:#000000;stroke-width:0.34736013"
       d="m 83.515663,163.12432 c -1.941989,-0.35195 -3.659324,-1.20137 -4.075389,-2.01575 -1.100242,-2.15352 -0.529289,-3.95379 1.391933,-4.3889 0.909787,-0.20604 2.022444,0.45592 2.022444,1.20323 0,0.53511 2.487091,3.11333 3.517087,3.64596 2.455774,1.26993 6.041027,-0.12608 8.209909,-3.19672 1.274002,-1.8037 1.886367,-5.19815 1.468847,-8.14207 -0.65906,-4.64698 -2.95485,-7.52756 -6.368654,-7.9909 -2.531801,-0.34362 -4.328992,0.49288 -5.97183,2.77959 -0.697536,0.97092 -1.412624,1.67607 -1.589085,1.56702 -0.419268,-0.25913 0.01655,-24.51874 0.448864,-24.98583 0.193878,-0.20946 3.103185,-0.34736 7.328815,-0.34736 h 7.00731 l 0.70313,-1.11554 c 0.820912,-1.30239 1.576813,-1.47728 1.559212,-0.36074 -0.01646,1.04369 -0.903532,6.85116 -1.07122,7.013 -0.07272,0.0702 -3.102148,0.18358 -6.732062,0.252 -3.629913,0.0684 -6.795232,0.24906 -7.034042,0.40142 -0.313608,0.20009 -0.4342,1.63229 -0.4342,5.15673 0,4.5225 0.0445,4.8592 0.60788,4.59954 1.062899,-0.48988 5.401449,-0.57171 7.381403,-0.13922 2.101358,0.459 4.927497,2.34398 6.390887,4.26258 0.48181,0.63168 1.294539,2.06269 1.806068,3.18001 0.86701,1.89381 0.91719,2.26491 0.74028,5.47541 -0.23601,4.28299 -1.206406,6.45191 -4.244004,9.48566 -2.909648,2.90596 -4.797649,3.7636 -8.514193,3.86764 -1.623908,0.0455 -3.671134,-0.0476 -4.54939,-0.20676 z m 36.974497,-2.53221 c -0.14726,-0.23827 -0.3314,-2.8024 -0.4092,-5.69807 l -0.14145,-5.26485 -4.73487,-0.25611 c -2.60417,-0.14086 -6.14167,-0.24392 -7.8611,-0.22904 -1.71943,0.0149 -3.39979,-0.0517 -3.73412,-0.14803 -1.52709,-0.43988 -0.78521,-1.66561 7.88682,-13.03039 2.09294,-2.74282 3.9285,-5.14325 4.07902,-5.3343 1.13984,-1.44674 2.84898,-3.59068 3.31599,-4.15957 0.30972,-0.37727 0.88882,-1.16589 1.28689,-1.75248 1.59123,-2.34482 2.30592,-3.0403 3.23545,-3.14852 1.96502,-0.2288 1.92765,-0.43013 2.14213,11.5401 l 0.19791,11.04514 3.4736,0.12369 c 4.13985,0.14743 4.42093,0.35797 4.26991,3.19833 l -0.10159,1.91076 -3.73412,0.0986 -3.73412,0.0986 v 5.30286 c 0,3.66129 -0.12904,5.43189 -0.41684,5.71969 -0.56434,0.56434 -4.66968,0.55094 -5.02031,-0.0164 z m -0.91005,-24.17124 c 0.0434,-4.23502 -0.0397,-7.70003 -0.18471,-7.70003 -0.14502,0 -1.47059,1.63057 -2.94571,3.62348 -1.47511,1.99292 -2.95511,3.8954 -3.28889,4.22773 -0.33377,0.33233 -1.67247,2.02339 -2.97489,3.75791 l -2.36803,3.15368 0.97859,0.0994 c 1.8798,0.19091 10.01288,0.66235 10.35731,0.60037 0.21642,-0.0389 0.37713,-2.96517 0.42633,-7.76253 z m 16.01432,13.59157 c -0.511,-0.61571 -0.0336,-1.14453 1.0347,-1.14601 1.25871,-0.002 3.04603,-1.13874 3.6596,-2.32803 0.61309,-1.18836 4.19507,-11.49052 4.74573,-13.64924 0.2193,-0.85972 0.85558,-2.14012 1.41396,-2.84535 0.71342,-0.90106 1.01767,-1.67552 1.02346,-2.6052 0.005,-0.72764 0.40541,-2.26085 0.89083,-3.40713 0.48542,-1.14629 1.29955,-3.21209 1.80918,-4.59067 0.83448,-2.2573 0.88116,-2.61992 0.46944,-3.64728 -0.74804,-1.86664 -0.68315,-2.18286 0.44798,-2.18286 0.86939,0 1.22937,-0.32103 2.43152,-2.16853 2.38337,-3.66281 2.20083,-3.92815 7.46633,10.85253 4.12038,11.56624 8.26815,22.13286 9.41867,23.99444 0.66915,1.0827 1.60051,1.62865 3.56139,2.08763 0.64751,0.15156 0.9364,0.41681 0.86426,0.79352 -0.0948,0.49491 -1.13141,0.59811 -8.26719,0.82298 -4.48734,0.14142 -8.52066,0.17497 -8.96292,0.0746 -0.59199,-0.1344 -0.77525,-0.38549 -0.69472,-0.95184 0.0925,-0.65092 0.38274,-0.79681 1.88591,-0.94817 3.63576,-0.36608 3.84184,-1.43353 1.5099,-7.82056 -0.9745,-2.66908 -1.83415,-5.04827 -1.91034,-5.28708 -0.15362,-0.48155 -6.03017,-0.60877 -9.82054,-0.21259 l -2.1202,0.2216 -1.41853,4.36894 c -2.21761,6.83001 -1.91119,8.6049 1.55299,8.99536 1.64885,0.18585 2.34728,0.84052 1.64545,1.54235 -0.54649,0.54649 -12.18572,0.58022 -12.63686,0.0366 z M 156.8033,131.3072 c 0.44669,-0.44669 -3.88035,-11.44405 -4.50279,-11.44405 -0.52655,0 -1.40788,2.14686 -2.63806,6.42617 -0.46683,1.62391 -1.06425,3.44465 -1.32762,4.04608 -0.26336,0.60144 -0.37173,1.20519 -0.24082,1.34166 0.23693,0.24699 8.44084,-0.10141 8.70929,-0.36986 z"
       id="path895"
       inkscape:connector-curvature="0" />
  </g>
  <g
     inkscape:groupmode="layer"
     id="layer2"
     inkscape:label="Vector"
     style="display:none">
    <path
       style="fill:#000000;stroke-width:0.34736013"
       d="m 82.095077,162.56015 c -1.921216,-0.59117 -3.061387,-1.87594 -3.061387,-3.44961 0,-1.29333 0.492338,-1.81359 2.001994,-2.11552 0.952833,-0.19057 1.130456,-0.0883 1.655128,0.95317 0.930575,1.84716 2.965266,3.75115 4.430175,4.14561 3.376251,0.90913 7.597801,-2.0571 8.796611,-6.18086 1.397753,-4.8081 -0.291595,-10.87346 -3.615672,-12.98153 -3.033412,-1.92373 -6.45892,-1.22899 -8.594088,1.74301 -0.696144,0.96898 -1.351465,1.76178 -1.456271,1.76178 -0.104807,0 -0.09315,-4.49397 0.02589,-9.9866 0.119048,-5.49263 0.219461,-11.11987 0.22314,-12.50496 l 0.0067,-2.51837 h 7.269387 7.269385 l 0.889725,-1.12892 0.889725,-1.12892 0.0039,1.03919 c 0.0021,0.57155 -0.183666,2.23093 -0.412858,3.6875 l -0.416711,2.64832 -6.791011,0.24636 c -3.735061,0.13551 -6.947328,0.39869 -7.138376,0.58487 -0.199375,0.19428 -0.34736,2.43995 -0.34736,5.27117 0,4.21508 0.0758,4.91237 0.52104,4.79308 6.772624,-1.81454 12.40778,0.53712 15.219295,6.35133 2.558192,5.29034 1.296652,11.52929 -3.189005,15.77124 -2.982195,2.82017 -4.853077,3.54571 -9.077729,3.52041 -1.980371,-0.0118 -4.173434,-0.23615 -5.101576,-0.52175 z m 38.651793,-2.17517 c -0.1689,-0.31648 -0.4026,-2.90863 -0.51935,-5.76033 -0.11674,-2.85171 -0.24978,-5.21716 -0.29564,-5.25657 -0.0459,-0.0394 -3.83321,-0.20718 -8.41635,-0.37284 -6.99487,-0.25283 -8.34902,-0.38543 -8.4329,-0.82574 -0.0792,-0.41587 8.49234,-12.0768 14.95901,-20.35054 0.61168,-0.78261 1.80462,-2.34573 2.65098,-3.47361 0.84636,-1.12787 1.70608,-2.16552 1.91048,-2.30588 0.60692,-0.41676 2.29292,-0.30051 2.44184,0.16836 0.0759,0.23882 0.22418,5.26379 0.32964,11.16661 0.10546,5.90282 0.23701,10.77767 0.29234,10.833 0.0553,0.0553 1.58244,0.13879 3.39358,0.18546 1.81113,0.0467 3.48836,0.23202 3.72717,0.41189 0.26001,0.19584 0.4342,1.13668 0.4342,2.34526 0,2.41642 -0.12617,2.49023 -3.83436,2.24297 -3.99099,-0.26612 -3.73328,-0.65045 -3.7675,5.61852 -0.0163,2.98342 -0.071,5.4577 -0.12167,5.4984 -0.0506,0.0407 -1.07134,0.15871 -2.26823,0.26223 -1.79731,0.15545 -2.22962,0.088 -2.48324,-0.38719 z m -1.07205,-24.02222 c 0,-4.39411 -0.12069,-7.98928 -0.26821,-7.98928 -0.14752,0 -1.79236,1.99298 -3.6552,4.42884 -1.86285,2.43586 -4.46987,5.83558 -5.79338,7.55493 -1.32351,1.71935 -2.29435,3.23811 -2.15743,3.37504 0.13692,0.13692 2.12215,0.29876 4.41162,0.35965 2.28948,0.0609 4.90517,0.14433 5.81264,0.18541 l 1.64996,0.0747 z m 16.1181,13.4918 c -0.29045,-0.46997 0.49242,-0.97461 1.52265,-0.98152 2.27486,-0.0153 3.41096,-2.02796 6.49081,-11.49907 2.09175,-6.43255 2.37778,-7.11919 3.357,-8.05879 0.42734,-0.41005 0.65042,-1.11892 0.65586,-2.08416 0.005,-0.80451 0.40355,-2.40062 0.8867,-3.5469 0.48314,-1.14629 1.28385,-3.15206 1.77933,-4.45727 0.86725,-2.28449 0.87953,-2.41788 0.32907,-3.57223 -0.78449,-1.64508 -0.73022,-1.98534 0.27635,-1.7327 0.72876,0.1829 1.03444,-0.0512 2.171,-1.66268 0.72756,-1.03156 1.50295,-2.16551 1.72309,-2.5199 0.35497,-0.57143 0.45698,-0.58539 0.90138,-0.12331 0.43624,0.4536 5.49638,13.99915 5.47857,14.66567 -0.004,0.13763 0.36825,1.0755 0.82651,2.08416 0.45826,1.00867 1.32431,3.24075 1.92455,4.96018 2.46021,7.0474 5.7526,14.82078 6.66446,15.73491 0.51483,0.5161 1.52712,1.10622 2.24952,1.31136 1.54014,0.43735 1.88992,1.03053 0.76152,1.29143 -0.43818,0.10131 -4.35279,0.19704 -8.69913,0.21273 -7.48928,0.027 -7.90244,-0.005 -7.90244,-0.61903 0,-0.51548 0.3571,-0.69494 1.75059,-0.8798 2.11603,-0.2807 3.11245,-1.15631 3.11245,-2.73508 0,-1.04818 -3.21459,-10.52397 -3.76176,-11.0887 -0.13097,-0.13518 -2.87311,-0.13518 -6.09364,0 l -5.8555,0.24578 -1.55379,4.68936 c -2.21401,6.68192 -1.87232,8.68774 1.56764,9.20258 2.02242,0.30268 2.28741,0.46044 1.78674,1.06372 -0.5016,0.60439 -11.98032,0.69664 -12.34953,0.0993 z m 21.20635,-18.32771 c 0.19901,-0.322 -2.21763,-7.43419 -3.58942,-10.5637 -0.42905,-0.97882 -0.91696,-1.61885 -1.17007,-1.5349 -0.52023,0.17253 -2.04325,4.02999 -3.42461,8.67371 -0.55229,1.85667 -1.00418,3.45887 -1.00418,3.56044 0,0.32816 8.9836,0.19564 9.18828,-0.13555 z"
       id="path891"
       inkscape:connector-curvature="0" />
  </g>
</svg>
