<?xml version="1.0" encoding="UTF-8" standalone="no"?>
<!-- Created with Inkscape (http://www.inkscape.org/) -->

<svg
   xmlns:dc="http://purl.org/dc/elements/1.1/"
   xmlns:cc="http://creativecommons.org/ns#"
   xmlns:rdf="http://www.w3.org/1999/02/22-rdf-syntax-ns#"
   xmlns:svg="http://www.w3.org/2000/svg"
   xmlns="http://www.w3.org/2000/svg"
   xmlns:sodipodi="http://sodipodi.sourceforge.net/DTD/sodipodi-0.dtd"
   xmlns:inkscape="http://www.inkscape.org/namespaces/inkscape"
   width="210mm"
   height="297mm"
   viewBox="0 0 210 297"
   version="1.1"
   id="svg8"
   sodipodi:docname="address.svg"
   inkscape:version="0.92.4 (unknown)">
  <defs
     id="defs2" />
  <sodipodi:namedview
     id="base"
     pagecolor="#ffffff"
     bordercolor="#666666"
     borderopacity="1.0"
     inkscape:pageopacity="0.0"
     inkscape:pageshadow="2"
     inkscape:zoom="0.89684313"
     inkscape:cx="215.00466"
     inkscape:cy="945.42027"
     inkscape:document-units="mm"
     inkscape:current-layer="layer1"
     showgrid="false"
     inkscape:window-width="1280"
     inkscape:window-height="751"
     inkscape:window-x="0"
     inkscape:window-y="0"
     inkscape:window-maximized="1" />
  <metadata
     id="metadata5">
    <rdf:RDF>
      <cc:Work
         rdf:about="">
        <dc:format>image/svg+xml</dc:format>
        <dc:type
           rdf:resource="http://purl.org/dc/dcmitype/StillImage" />
        <dc:title></dc:title>
      </cc:Work>
    </rdf:RDF>
  </metadata>
  <g
     inkscape:label="Layer 1"
     inkscape:groupmode="layer"
     id="layer1">
    <g
       aria-label="5"
       style="font-style:normal;font-variant:normal;font-weight:bold;font-stretch:normal;font-size:10.58333302px;line-height:80.00000119%;font-family:Futura;-inkscape-font-specification:'Futura Bold';text-align:center;letter-spacing:0px;word-spacing:0px;text-anchor:middle;fill:#000000;fill-opacity:1;stroke:none;stroke-width:0.26458332px;stroke-linecap:butt;stroke-linejoin:miter;stroke-opacity:1"
       id="text817">
      <path
         d="m 60.779466,60.570751 v -4.2164 h -9.9568 l -1.6764,10.3886 q 1.6764,-0.7874 3.6576,-0.7874 0.762,0 1.4986,0.2032 0.762,0.1778 1.3716,0.5842 0.6096,0.4064 0.9652,1.0414 0.3556,0.6096 0.3556,1.4478 0,1.2192 -0.9144,2.032 -0.9144,0.7874 -2.1336,0.7874 -1.4224,0 -2.8194,-0.5842 -1.3716,-0.5842 -2.5146,-1.6256 l -0.7366,4.699 q 1.3462,0.8636 2.9464,1.2954 1.6256,0.4318 3.302,0.4318 1.6002,0 3.048,-0.381 1.4732,-0.3556 2.54,-1.2192 1.1938,-0.9652 1.8288,-2.3114 0.635,-1.3716 0.635,-2.8702 0,-1.397 -0.4572,-2.6416 -0.4572,-1.27 -1.3208,-2.2098 -0.8382,-0.9652 -2.0066,-1.4986 -1.143,-0.5334 -2.4892,-0.5334 -0.0762,0 -0.254,0.0254 -0.1524,0 -0.254,0 l -1.5748,0.127 0.3302,-2.1844 z"
         style="font-style:normal;font-variant:normal;font-weight:bold;font-stretch:normal;font-size:25.39999962px;font-family:Futura;-inkscape-font-specification:'Futura Bold';stroke-width:0.26458332px"
         id="path871"
         inkscape:connector-curvature="0" />
    </g>
    <g
       aria-label="4"
       style="font-style:normal;font-variant:normal;font-weight:bold;font-stretch:normal;font-size:25.39999962px;line-height:80.00000119%;font-family:Futura;-inkscape-font-specification:'Futura Bold';text-align:center;letter-spacing:0px;word-spacing:0px;text-anchor:middle;fill:#000000;fill-opacity:1;stroke:none;stroke-width:0.26458332px;stroke-linecap:butt;stroke-linejoin:miter;stroke-opacity:1"
       id="text821">
      <path
         d="m 78.783194,68.260399 v -11.3792 h -6.5278 l -7.3914,12.0142 v 3.175 h 9.2964 v 3.9624 h 4.6228 v -3.9624 h 2.3114 v -3.81 z m -4.6228,0 h -4.5212 l 4.4704,-7.366 h 0.0508 z"
         style="font-style:normal;font-variant:normal;font-weight:bold;font-stretch:normal;font-family:Futura;-inkscape-font-specification:'Futura Bold';stroke-width:0.26458332px"
         id="path868"
         inkscape:connector-curvature="0" />
    </g>
    <g
       aria-label="A"
       style="font-style:normal;font-variant:normal;font-weight:bold;font-stretch:normal;font-size:25.39999962px;line-height:80.00000119%;font-family:Futura;-inkscape-font-specification:'Futura Bold';text-align:center;letter-spacing:0px;word-spacing:0px;text-anchor:middle;fill:#000000;fill-opacity:1;stroke:none;stroke-width:0.26458332px;stroke-linecap:butt;stroke-linejoin:miter;stroke-opacity:1"
       id="text825">
      <path
         d="m 99.613833,71.820343 1.244597,3.3274 h 5.3086 L 98.953433,55.996144 h -5.4356 l -7.366,19.151599 h 5.2832 l 1.3208,-3.3274 z m -1.3462,-3.81 h -4.1402 l 2.0574,-6.096 h 0.0508 z"
         style="font-style:normal;font-variant:normal;font-weight:bold;font-stretch:normal;font-family:Futura;-inkscape-font-specification:'Futura Bold';stroke-width:0.26458332px"
         id="path865"
         inkscape:connector-curvature="0" />
    </g>
  </g>
</svg>
