  0
SECTION
  2
HEADER
  9
$ACADVER
  1
AC1015
  9
$ACADMAINTVER
 70
     6
  9
$DWGCODEPAGE
  3
ANSI_1252
  9
$INSBASE
 10
0.0
 20
0.0
 30
0.0
  9
$EXTMIN
 10
-29.95360753131807
 20
-11.84598193309665
 30
-0.0015258207003583
  9
$EXTMAX
 10
-10.87418378269799
 20
29.84691919533013
 30
0.0000000349246037
  9
$LIMMIN
 10
0.0
 20
0.0
  9
$LIMMAX
 10
12.0
 20
9.0
  9
$ORTHOMODE
 70
     0
  9
$REGENMODE
 70
     1
  9
$FILLMODE
 70
     1
  9
$QTEXTMODE
 70
     0
  9
$MIRRTEXT
 70
     1
  9
$LTSCALE
 40
10.0
  9
$ATTMODE
 70
     1
  9
$TEXTSIZE
 40
0.2
  9
$TRACEWID
 40
0.05
  9
$TEXTSTYLE
  7
STANDARD
  9
$CLAYER
  8
0
  9
$CELTYPE
  6
ByLayer
  9
$CECOLOR
 62
   256
  9
$CELTSCALE
 40
1.0
  9
$DISPSILH
 70
     0
  9
$DIMSCALE
 40
1.0
  9
$DIMASZ
 40
0.18
  9
$DIMEXO
 40
0.0625
  9
$DIMDLI
 40
0.38
  9
$DIMRND
 40
0.0
  9
$DIMDLE
 40
0.0
  9
$DIMEXE
 40
0.18
  9
$DIMTP
 40
0.0
  9
$DIMTM
 40
0.0
  9
$DIMTXT
 40
0.18
  9
$DIMCEN
 40
0.09
  9
$DIMTSZ
 40
0.0
  9
$DIMTOL
 70
     0
  9
$DIMLIM
 70
     0
  9
$DIMTIH
 70
     1
  9
$DIMTOH
 70
     1
  9
$DIMSE1
 70
     0
  9
$DIMSE2
 70
     0
  9
$DIMTAD
 70
     0
  9
$DIMZIN
 70
     0
  9
$DIMBLK
  1

  9
$DIMASO
 70
     1
  9
$DIMSHO
 70
     1
  9
$DIMPOST
  1

  9
$DIMAPOST
  1

  9
$DIMALT
 70
     0
  9
$DIMALTD
 70
     2
  9
$DIMALTF
 40
25.4
  9
$DIMLFAC
 40
1.0
  9
$DIMTOFL
 70
     0
  9
$DIMTVP
 40
0.0
  9
$DIMTIX
 70
     0
  9
$DIMSOXD
 70
     0
  9
$DIMSAH
 70
     0
  9
$DIMBLK1
  1

  9
$DIMBLK2
  1

  9
$DIMSTYLE
  2
Standard
  9
$DIMCLRD
 70
     0
  9
$DIMCLRE
 70
     0
  9
$DIMCLRT
 70
     0
  9
$DIMTFAC
 40
1.0
  9
$DIMGAP
 40
0.09
  9
$DIMJUST
 70
     0
  9
$DIMSD1
 70
     0
  9
$DIMSD2
 70
     0
  9
$DIMTOLJ
 70
     1
  9
$DIMTZIN
 70
     0
  9
$DIMALTZ
 70
     0
  9
$DIMALTTZ
 70
     0
  9
$DIMUPT
 70
     0
  9
$DIMDEC
 70
     4
  9
$DIMTDEC
 70
     4
  9
$DIMALTU
 70
     2
  9
$DIMALTTD
 70
     2
  9
$DIMTXSTY
  7
STANDARD
  9
$DIMAUNIT
 70
     0
  9
$DIMADEC
 70
     0
  9
$DIMALTRND
 40
0.0
  9
$DIMAZIN
 70
     0
  9
$DIMDSEP
 70
    46
  9
$DIMATFIT
 70
     3
  9
$DIMFRAC
 70
     0
  9
$DIMLDRBLK
  1

  9
$DIMLUNIT
 70
     2
  9
$DIMLWD
 70
    -2
  9
$DIMLWE
 70
    -2
  9
$DIMTMOVE
 70
     2
  9
$LUNITS
 70
     2
  9
$LUPREC
 70
     4
  9
$SKETCHINC
 40
0.1
  9
$FILLETRAD
 40
0.5
  9
$AUNITS
 70
     0
  9
$AUPREC
 70
     0
  9
$MENU
  1
acad
  9
$ELEVATION
 40
0.0
  9
$PELEVATION
 40
0.0
  9
$THICKNESS
 40
0.0
  9
$LIMCHECK
 70
     0
  9
$CHAMFERA
 40
0.5
  9
$CHAMFERB
 40
0.5
  9
$CHAMFERC
 40
0.0
  9
$CHAMFERD
 40
0.0
  9
$SKPOLY
 70
     0
  9
$TDCREATE
 40
2453559.703071065
  9
$TDUCREATE
 40
2453559.994737731
  9
$TDUPDATE
 40
2453916.392752268
  9
$TDUUPDATE
 40
2453916.684418935
  9
$TDINDWG
 40
0.0008917477
  9
$TDUSRTIMER
 40
0.0008917477
  9
$USRTIMER
 70
     1
  9
$ANGBASE
 50
0.0
  9
$ANGDIR
 70
     0
  9
$PDMODE
 70
     0
  9
$PDSIZE
 40
0.0
  9
$PLINEWID
 40
0.0
  9
$SPLFRAME
 70
     0
  9
$SPLINETYPE
 70
     6
  9
$SPLINESEGS
 70
     8
  9
$HANDSEED
  5
48F
  9
$SURFTAB1
 70
     6
  9
$SURFTAB2
 70
     6
  9
$SURFTYPE
 70
     6
  9
$SURFU
 70
     6
  9
$SURFV
 70
     6
  9
$UCSBASE
  2

  9
$UCSNAME
  2

  9
$UCSORG
 10
0.0
 20
0.0
 30
0.0
  9
$UCSXDIR
 10
1.0
 20
0.0
 30
0.0
  9
$UCSYDIR
 10
0.0
 20
1.0
 30
0.0
  9
$UCSORTHOREF
  2

  9
$UCSORTHOVIEW
 70
     0
  9
$UCSORGTOP
 10
0.0
 20
0.0
 30
0.0
  9
$UCSORGBOTTOM
 10
0.0
 20
0.0
 30
0.0
  9
$UCSORGLEFT
 10
0.0
 20
0.0
 30
0.0
  9
$UCSORGRIGHT
 10
0.0
 20
0.0
 30
0.0
  9
$UCSORGFRONT
 10
0.0
 20
0.0
 30
0.0
  9
$UCSORGBACK
 10
0.0
 20
0.0
 30
0.0
  9
$PUCSBASE
  2

  9
$PUCSNAME
  2

  9
$PUCSORG
 10
0.0
 20
0.0
 30
0.0
  9
$PUCSXDIR
 10
1.0
 20
0.0
 30
0.0
  9
$PUCSYDIR
 10
0.0
 20
1.0
 30
0.0
  9
$PUCSORTHOREF
  2

  9
$PUCSORTHOVIEW
 70
     0
  9
$PUCSORGTOP
 10
0.0
 20
0.0
 30
0.0
  9
$PUCSORGBOTTOM
 10
0.0
 20
0.0
 30
0.0
  9
$PUCSORGLEFT
 10
0.0
 20
0.0
 30
0.0
  9
$PUCSORGRIGHT
 10
0.0
 20
0.0
 30
0.0
  9
$PUCSORGFRONT
 10
0.0
 20
0.0
 30
0.0
  9
$PUCSORGBACK
 10
0.0
 20
0.0
 30
0.0
  9
$USERI1
 70
     0
  9
$USERI2
 70
     0
  9
$USERI3
 70
     0
  9
$USERI4
 70
     0
  9
$USERI5
 70
     0
  9
$USERR1
 40
0.0
  9
$USERR2
 40
0.0
  9
$USERR3
 40
0.0
  9
$USERR4
 40
0.0
  9
$USERR5
 40
0.0
  9
$WORLDVIEW
 70
     1
  9
$SHADEDGE
 70
     3
  9
$SHADEDIF
 70
    70
  9
$TILEMODE
 70
     1
  9
$MAXACTVP
 70
    48
  9
$PINSBASE
 10
0.0
 20
0.0
 30
0.0
  9
$PLIMCHECK
 70
     0
  9
$PEXTMIN
 10
1.000000000000000E+20
 20
1.000000000000000E+20
 30
1.000000000000000E+20
  9
$PEXTMAX
 10
-1.000000000000000E+20
 20
-1.000000000000000E+20
 30
-1.000000000000000E+20
  9
$PLIMMIN
 10
0.0
 20
0.0
  9
$PLIMMAX
 10
12.0
 20
9.0
  9
$UNITMODE
 70
     0
  9
$VISRETAIN
 70
     1
  9
$PLINEGEN
 70
     0
  9
$PSLTSCALE
 70
     1
  9
$TREEDEPTH
 70
  3020
  9
$CMLSTYLE
  2
Standard
  9
$CMLJUST
 70
     0
  9
$CMLSCALE
 40
1.0
  9
$PROXYGRAPHICS
 70
     1
  9
$MEASUREMENT
 70
     0
  9
$CELWEIGHT
370
    -1
  9
$ENDCAPS
280
     0
  9
$JOINSTYLE
280
     0
  9
$LWDISPLAY
290
     0
  9
$INSUNITS
 70
     0
  9
$HYPERLINKBASE
  1

  9
$STYLESHEET
  1

  9
$XEDIT
290
     1
  9
$CEPSNTYPE
380
     0
  9
$PSTYLEMODE
290
     1
  9
$FINGERPRINTGUID
  2
{8770255B-B883-4A09-9B21-785B64EDAF9A}
  9
$VERSIONGUID
  2
{A42EA7F9-788E-4882-A4C7-9DB6752B79EA}
  9
$EXTNAMES
290
     1
  9
$PSVPSCALE
 40
0.0
  9
$OLESTARTUP
290
     0
  0
ENDSEC
  0
SECTION
  2
CLASSES
  0
CLASS
  1
ACDBDICTIONARYWDFLT
  2
AcDbDictionaryWithDefault
  3
AutoCAD 2000
 90
        0
280
     0
281
     0
  0
CLASS
  1
ACDBPLACEHOLDER
  2
AcDbPlaceHolder
  3
AutoCAD 2000
 90
        0
280
     0
281
     0
  0
CLASS
  1
LAYOUT
  2
AcDbLayout
  3
AutoCAD 2000
 90
        0
280
     0
281
     0
  0
CLASS
  1
DICTIONARYVAR
  2
AcDbDictionaryVar
  3
AutoCAD 2000
 90
        0
280
     0
281
     0
  0
ENDSEC
  0
SECTION
  2
TABLES
  0
TABLE
  2
VPORT
  5
442
330
0
100
AcDbSymbolTable
 70
     3
  0
VPORT
  5
46D
330
442
100
AcDbSymbolTableRecord
100
AcDbViewportTableRecord
  2
*Active
 70
     0
 10
0.0
 20
0.0
 11
1.0
 21
1.0
 12
-20.41389565700803
 22
9.000468631116739
 13
0.0
 23
0.0
 14
0.5
 24
0.5
 15
0.5
 25
0.5
 16
0.0
 26
0.0
 36
1.0
 17
0.0
 27
0.0
 37
0.0
 40
42.01526892065689
 41
1.554838709677419
 42
50.0
 43
0.0
 44
0.0
 50
0.0
 51
0.0
 71
     0
 72
   100
 73
     1
 74
     3
 75
     0
 76
     0
 77
     0
 78
     0
281
     0
 65
     1
110
0.0
120
0.0
130
0.0
111
1.0
121
0.0
131
0.0
112
0.0
122
1.0
132
0.0
 79
     0
146
0.0
  0
ENDTAB
  0
TABLE
  2
LTYPE
  5
43F
330
0
100
AcDbSymbolTable
 70
     2
  0
LTYPE
  5
44D
330
43F
100
AcDbSymbolTableRecord
100
AcDbLinetypeTableRecord
  2
ByBlock
 70
     0
  3

 72
    65
 73
     0
 40
0.0
  0
LTYPE
  5
44E
330
43F
100
AcDbSymbolTableRecord
100
AcDbLinetypeTableRecord
  2
ByLayer
 70
     0
  3

 72
    65
 73
     0
 40
0.0
  0
LTYPE
  5
44F
330
43F
100
AcDbSymbolTableRecord
100
AcDbLinetypeTableRecord
  2
CONTINUOUS
 70
     0
  3
Solid line
 72
    65
 73
     0
 40
0.0
  0
LTYPE
  5
45C
330
43F
100
AcDbSymbolTableRecord
100
AcDbLinetypeTableRecord
  2
CENTER
 70
     0
  3
____ _ ____ _ ____ _ ____ _ ____ _ ____ _ ____
 72
    65
 73
     4
 40
2.0
 49
1.25
 74
     0
 49
-0.25
 74
     0
 49
0.25
 74
     0
 49
-0.25
 74
     0
  0
ENDTAB
  0
TABLE
  2
LAYER
  5
43C
330
0
100
AcDbSymbolTable
 70
     3
  0
LAYER
  5
44A
330
43C
100
AcDbSymbolTableRecord
100
AcDbLayerTableRecord
  2
0
 70
     0
 62
     7
  6
CONTINUOUS
370
    -3
390
449
  0
LAYER
  5
461
330
43C
100
AcDbSymbolTableRecord
100
AcDbLayerTableRecord
  2
250
 70
     0
 62
     2
  6
CONTINUOUS
370
    -3
390
449
  0
LAYER
  5
462
330
43C
100
AcDbSymbolTableRecord
100
AcDbLayerTableRecord
  2
255
 70
     0
 62
     1
  6
CENTER
370
    -3
390
449
  0
ENDTAB
  0
TABLE
  2
STYLE
  5
43D
330
0
100
AcDbSymbolTable
 70
     1
  0
STYLE
  5
44B
330
43D
100
AcDbSymbolTableRecord
100
AcDbTextStyleTableRecord
  2
STANDARD
 70
     0
 40
0.0
 41
1.0
 50
0.0
 71
     0
 42
0.2
  3
txt
  4

  0
ENDTAB
  0
TABLE
  2
VIEW
  5
440
330
0
100
AcDbSymbolTable
 70
     0
  0
ENDTAB
  0
TABLE
  2
UCS
  5
441
330
0
100
AcDbSymbolTable
 70
     0
  0
ENDTAB
  0
TABLE
  2
APPID
  5
443
330
0
100
AcDbSymbolTable
 70
     1
  0
APPID
  5
44C
330
443
100
AcDbSymbolTableRecord
100
AcDbRegAppTableRecord
  2
ACAD
 70
     0
  0
ENDTAB
  0
TABLE
  2
DIMSTYLE
  5
444
330
0
100
AcDbSymbolTable
 70
     1
100
AcDbDimStyleTable
 71
     0
  0
DIMSTYLE
105
467
330
444
100
AcDbSymbolTableRecord
100
AcDbDimStyleTableRecord
  2
Standard
 70
     0
340
44B
  0
ENDTAB
  0
TABLE
  2
BLOCK_RECORD
  5
43B
330
0
100
AcDbSymbolTable
 70
     0
  0
BLOCK_RECORD
  5
458
330
43B
100
AcDbSymbolTableRecord
100
AcDbBlockTableRecord
  2
*Model_Space
340
45B
  0
BLOCK_RECORD
  5
454
330
43B
100
AcDbSymbolTableRecord
100
AcDbBlockTableRecord
  2
*Paper_Space
340
457
  0
ENDTAB
  0
ENDSEC
  0
SECTION
  2
BLOCKS
  0
BLOCK
  5
465
330
458
100
AcDbEntity
  8
0
100
AcDbBlockBegin
  2
*Model_Space
 70
     0
 10
0.0
 20
0.0
 30
0.0
  3
*Model_Space
  1

  0
ENDBLK
  5
466
330
458
100
AcDbEntity
  8
0
100
AcDbBlockEnd
  0
BLOCK
  5
463
330
454
100
AcDbEntity
 67
     1
  8
0
100
AcDbBlockBegin
  2
*Paper_Space
 70
     0
 10
0.0
 20
0.0
 30
0.0
  3
*Paper_Space
  1

  0
ENDBLK
  5
464
330
454
100
AcDbEntity
 67
     1
  8
0
100
AcDbBlockEnd
  0
ENDSEC
  0
SECTION
  2
ENTITIES
  0
LINE
  5
3A0
330
458
100
AcDbEntity
  8
250
100
AcDbLine
 10
-15.94858134556713
 20
17.83341425855
 30
0.0
 11
-17.26108134556714
 21
17.73341425855
 31
0.0
  0
LINE
  5
3A1
330
458
100
AcDbEntity
  8
255
100
AcDbLine
 10
-16.62625334556716
 20
-11.84470974144999
 30
0.0
 11
-16.62625334556716
 21
29.84564680954761
 31
0.0
  0
LINE
  5
3A2
330
458
100
AcDbEntity
  8
250
100
AcDbLine
 10
-28.92628534556715
 20
14.83692925855
 30
0.0
 11
-28.92628534556715
 21
22.90192925855
 31
0.0
  0
LINE
  5
3A3
330
458
100
AcDbEntity
  8
250
100
AcDbLine
 10
-28.32628534556718
 20
14.83692925855
 30
0.0
 11
-28.32628534556718
 21
22.90192925855
 31
0.0
  0
LINE
  5
3A4
330
458
100
AcDbEntity
  8
250
100
AcDbLine
 10
-16.92628534556715
 20
17.00192925855
 30
0.0
 11
-16.92628534556715
 21
22.90192925855
 31
0.0
  0
LINE
  5
3A5
330
458
100
AcDbEntity
  8
250
100
AcDbLine
 10
-16.32628534556719
 20
17.00192925855
 30
0.0
 11
-16.32628534556719
 21
22.90192925855
 31
0.0
  0
LINE
  5
3A6
330
458
100
AcDbEntity
  8
250
100
AcDbLine
 10
-17.2461293479391
 20
-6.041222268054049
 30
0.0
 11
-17.2461293479391
 21
-6.541222268054049
 31
0.0
  0
LINE
  5
3A7
330
458
100
AcDbEntity
  8
250
100
AcDbLine
 10
-16.01996992526946
 20
-6.041222268054049
 30
0.0
 11
-16.01996992526946
 21
-6.541222268054049
 31
0.0
  0
LINE
  5
3A8
330
458
100
AcDbEntity
  8
250
100
AcDbLine
 10
-17.03891918239506
 20
-9.738303195091852
 30
0.0
 11
-17.03891918239506
 21
-8.750651472331547
 31
0.0
  0
LINE
  5
3A9
330
458
100
AcDbEntity
  8
250
100
AcDbLine
 10
-16.21391924839506
 20
-9.738303195091852
 30
0.0
 11
-16.21391924839506
 21
-8.750651472331547
 31
0.0
  0
LINE
  5
3AA
330
458
100
AcDbEntity
  8
250
100
AcDbLine
 10
-17.06277770866293
 20
-9.738303195091852
 30
0.0
 11
-16.19774190851265
 21
-9.738303195091852
 31
0.0
  0
LINE
  5
3AB
330
458
100
AcDbEntity
  8
250
100
AcDbLine
 10
-16.19774190851265
 20
-10.23832388882034
 30
0.0
 11
-17.06277770866293
 21
-10.23832388882033
 31
0.0
  0
LINE
  5
3AC
330
458
100
AcDbEntity
  8
250
100
AcDbLine
 10
-17.06277770866293
 20
-10.23832388882033
 30
0.0
 11
-17.06277770866293
 21
-9.738303195091852
 31
0.0
  0
LINE
  5
3AD
330
458
100
AcDbEntity
  8
250
100
AcDbLine
 10
-16.19774190851265
 20
-9.738303195091852
 30
0.0
 11
-16.19774190851265
 21
-10.23832388882033
 31
0.0
  0
LINE
  5
3AE
330
458
100
AcDbEntity
  8
250
100
AcDbLine
 10
-17.37622070076716
 20
-7.081008663760144
 30
0.0
 11
-17.50122070076716
 21
-8.14350866376013
 31
0.0
  0
LINE
  5
3AF
330
458
100
AcDbEntity
  8
250
100
AcDbLine
 10
-15.87628599036722
 20
-7.08100866376013
 30
0.0
 11
-15.75128599036716
 21
-8.143508663760115
 31
0.0
  0
LINE
  5
3B0
330
458
100
AcDbEntity
  8
250
100
AcDbLine
 10
-15.75128599036716
 20
-8.143508663760115
 30
0.0
 11
-17.50122070076716
 21
-8.14350866376013
 31
0.0
  0
LINE
  5
3B1
330
458
100
AcDbEntity
  8
250
100
AcDbLine
 10
-16.21391924839506
 20
-8.500651492331549
 30
0.0
 11
-17.03891918239506
 21
-8.500651492331549
 31
0.0
  0
LINE
  5
3B2
330
458
100
AcDbEntity
  8
250
100
AcDbLine
 10
-16.21391924839506
 20
-8.500651492331549
 30
0.0
 11
-17.03891918239506
 21
-8.500651492331549
 31
0.0
  0
LINE
  5
3B3
330
458
100
AcDbEntity
  8
250
100
AcDbLine
 10
-16.96496543519228
 20
-8.750651472331547
 30
0.0
 11
-16.28787299559778
 21
-8.750651472331547
 31
0.0
  0
LINE
  5
3B4
330
458
100
AcDbEntity
  8
250
100
AcDbLine
 10
-16.96496543519228
 20
-8.750651472331547
 30
0.0
 11
-16.28787299559778
 21
-8.750651472331547
 31
0.0
  0
LINE
  5
3B5
330
458
100
AcDbEntity
  8
250
100
AcDbLine
 10
-17.19141917019502
 20
-8.750651472331547
 30
0.0
 11
-16.06141926059504
 21
-8.750651472331547
 31
0.0
  0
LINE
  5
3B6
330
458
100
AcDbEntity
  8
250
100
AcDbLine
 10
-16.06141926059504
 20
-8.500651492331549
 30
0.0
 11
-17.19141917019502
 21
-8.500651492331549
 31
0.0
  0
LINE
  5
3B7
330
458
100
AcDbEntity
  8
250
100
AcDbLine
 10
-17.50141914539503
 20
-8.382794358902977
 30
0.0
 11
-15.75141928539503
 21
-8.382794358902977
 31
0.0
  0
ARC
  5
3B8
330
458
100
AcDbEntity
  8
250
100
AcDbCircle
 10
-17.19141917019502
 20
-8.745651472731545
 30
0.0
 40
0.0049999996000025
100
AcDbArc
 50
180.0
 51
270.0
  0
ARC
  5
3B9
330
458
100
AcDbEntity
  8
250
100
AcDbCircle
 10
-17.19141917019502
 20
-8.505651491931551
 30
0.0
 40
0.0049999996000025
100
AcDbArc
 50
90.0
 51
180.0
  0
LINE
  5
3BA
330
458
100
AcDbEntity
  8
250
100
AcDbLine
 10
-17.19641916979506
 20
-8.505651491931551
 30
0.0
 11
-17.19641916979506
 21
-8.745651472731545
 31
0.0
  0
LINE
  5
3BB
330
458
100
AcDbEntity
  8
250
100
AcDbLine
 10
-17.03891918239506
 20
-8.500651492331549
 30
0.0
 11
-17.03891918239506
 21
-8.143508663760115
 31
0.0
  0
ARC
  5
3BC
330
458
100
AcDbEntity
  8
250
100
AcDbCircle
 10
-16.06141926059504
 20
-8.745651472731552
 30
0.0
 40
0.0049999995999954
100
AcDbArc
 50
270.0
 51
0.0000000000814222
  0
LINE
  5
3BD
330
458
100
AcDbEntity
  8
250
100
AcDbLine
 10
-16.05641926099506
 20
-8.745651472731545
 30
0.0
 11
-16.05641926099506
 21
-8.505651491931551
 31
0.0
  0
ARC
  5
3BE
330
458
100
AcDbEntity
  8
250
100
AcDbCircle
 10
-16.06141926059504
 20
-8.505651491931544
 30
0.0
 40
0.0049999995999883
100
AcDbArc
 50
359.9999999999186
 51
90.0
  0
LINE
  5
3BF
330
458
100
AcDbEntity
  8
250
100
AcDbLine
 10
-16.21391924839506
 20
-8.500651492331549
 30
0.0
 11
-16.21391924839506
 21
-8.143508663760115
 31
0.0
  0
LINE
  5
3C0
330
458
100
AcDbEntity
  8
250
100
AcDbLine
 10
-17.37622070076716
 20
-7.081008663760144
 30
0.0
 11
-15.87628599036722
 21
-7.08100866376013
 31
0.0
  0
LINE
  5
3C1
330
458
100
AcDbEntity
  8
250
100
AcDbLine
 10
-17.2461293479391
 20
-6.541222268054049
 30
0.0
 11
-16.01996992526946
 21
-6.541222268054049
 31
0.0
  0
LINE
  5
3C2
330
458
100
AcDbEntity
  8
250
100
AcDbLine
 10
-17.15625330316718
 20
-6.541222268054049
 30
0.0
 11
-17.15625330316718
 21
-7.081008663760137
 31
0.0
  0
LINE
  5
3C3
330
458
100
AcDbEntity
  8
250
100
AcDbLine
 10
-16.09625338796721
 20
-7.081008663760123
 30
0.0
 11
-16.09625338796721
 21
-6.541222268054049
 31
0.0
  0
CIRCLE
  5
3C4
330
458
100
AcDbEntity
  8
250
100
AcDbCircle
 10
-29.11949734556717
 20
5.885749258550003
 30
0.0
 40
0.176777
  0
ARC
  5
3C5
330
458
100
AcDbEntity
  8
250
100
AcDbCircle
 10
-29.11949734556717
 20
5.885749258550003
 30
0.0
 40
0.395285
100
AcDbArc
 50
184.9993340000001
 51
90.0
  0
ARC
  5
3C6
330
458
100
AcDbEntity
  8
250
100
AcDbCircle
 10
-26.48639734556716
 20
5.406044258550004
 30
0.0
 40
1.645884999999999
100
AcDbArc
 50
136.7187790000004
 51
184.8921900000002
  0
ARC
  5
3C7
330
458
100
AcDbEntity
  8
250
100
AcDbCircle
 10
-28.81767434556715
 20
4.177967258550005
 30
0.0
 40
0.88658
100
AcDbArc
 50
110.3706239999987
 51
169.2183670000005
  0
LINE
  5
3C8
330
458
100
AcDbEntity
  8
250
100
AcDbLine
 10
-29.86949734556717
 20
4.343806258550003
 30
0.0
 11
-27.36949734556717
 21
4.343806258550003
 31
0.0
  0
LINE
  5
3C9
330
458
100
AcDbEntity
  8
250
100
AcDbLine
 10
-29.86949734556717
 20
3.562556258550003
 30
0.0
 11
-27.36949734556717
 21
3.562556258550003
 31
0.0
  0
LINE
  5
3CA
330
458
100
AcDbEntity
  8
250
100
AcDbLine
 10
-29.86949734556717
 20
3.562556258550003
 30
0.0
 11
-29.86949734556717
 21
4.343806258550003
 31
0.0
  0
LINE
  5
3CB
330
458
100
AcDbEntity
  8
250
100
AcDbLine
 10
-27.36949734556717
 20
3.562556258550003
 30
0.0
 11
-27.36949734556717
 21
4.343806258550003
 31
0.0
  0
LINE
  5
3CC
330
458
100
AcDbEntity
  8
250
100
AcDbLine
 10
-28.12628534556714
 20
5.009100258550006
 30
0.0
 11
-28.12628534556714
 21
5.265681258550003
 31
0.0
  0
ARC
  5
3CD
330
458
100
AcDbEntity
  8
250
100
AcDbCircle
 10
-28.43489634556718
 20
4.177967258550005
 30
0.0
 40
0.88658
100
AcDbArc
 50
10.78163299999941
 51
69.62937600000121
  0
LINE
  5
3CE
330
458
100
AcDbEntity
  8
250
100
AcDbLine
 10
-29.12628534556714
 20
5.009100258550006
 30
0.0
 11
-29.12628534556714
 21
5.490523258550005
 31
0.0
  0
LINE
  5
3CF
330
458
100
AcDbEntity
  8
250
100
AcDbLine
 10
-28.12628534556714
 20
5.265681258550003
 30
0.0
 11
-29.12628534556714
 21
5.265681258550003
 31
0.0
  0
LINE
  5
3D0
330
458
100
AcDbEntity
  8
250
100
AcDbLine
 10
-28.12628534556714
 20
5.515681258550003
 30
0.0
 11
-28.98057434556719
 21
5.515681258550003
 31
0.0
  0
LINE
  5
3D1
330
458
100
AcDbEntity
  8
250
100
AcDbLine
 10
-28.22003534556714
 20
13.50926425855
 30
0.0
 11
-28.22003534556714
 21
7.621929258550004
 31
0.0
  0
LINE
  5
3D2
330
458
100
AcDbEntity
  8
250
100
AcDbLine
 10
-29.03253534556714
 20
13.50926425855
 30
0.0
 11
-29.03253534556714
 21
7.621929258550004
 31
0.0
  0
LINE
  5
3D3
330
458
100
AcDbEntity
  8
250
100
AcDbLine
 10
-29.61949734556717
 20
10.38574925855
 30
0.0
 11
-29.74449734556717
 21
11.26074925855
 31
0.0
  0
LINE
  5
3D4
330
458
100
AcDbEntity
  8
250
100
AcDbLine
 10
-29.90788834556716
 20
10.36231125855
 30
0.0
 11
-29.51327834556716
 21
5.851302258550003
 31
0.0
  0
LINE
  5
3D5
330
458
100
AcDbEntity
  8
250
100
AcDbLine
 10
-29.84209934556716
 20
7.472713258550005
 30
0.0
 11
-28.69415934556716
 21
6.325334258550004
 31
0.0
  0
LINE
  5
3D6
330
458
100
AcDbEntity
  8
250
100
AcDbLine
 10
-29.74449734556717
 20
11.26074925855
 30
0.0
 11
-29.95232734556717
 21
11.20624925855
 31
0.0
  0
LINE
  5
3D7
330
458
100
AcDbEntity
  8
250
100
AcDbLine
 10
-29.95232734556717
 20
11.20624925855
 30
0.0
 11
-29.90788834556716
 21
10.36231125855
 31
0.0
  0
LINE
  5
3D8
330
458
100
AcDbEntity
  8
250
100
AcDbLine
 10
-29.36949734556717
 20
6.385749258550003
 30
0.0
 11
-29.61949734556717
 21
10.38574925855
 31
0.0
  0
LINE
  5
3D9
330
458
100
AcDbEntity
  8
250
100
AcDbLine
 10
-27.68459634556714
 20
6.432479258550003
 30
0.0
 11
-27.68459634556714
 21
7.448879258550004
 31
0.0
  0
LINE
  5
3DA
330
458
100
AcDbEntity
  8
250
100
AcDbLine
 10
-29.19225534556719
 20
6.311509258550003
 30
0.0
 11
-29.19225534556719
 21
7.346929258550005
 31
0.0
  0
LINE
  5
3DB
330
458
100
AcDbEntity
  8
250
100
AcDbLine
 10
-29.19225534556719
 20
7.163877258550002
 30
0.0
 11
-29.30300534556719
 21
7.163877258550002
 31
0.0
  0
LINE
  5
3DC
330
458
100
AcDbEntity
  8
250
100
AcDbLine
 10
-29.11949734556717
 20
6.28103425855
 30
0.0
 11
-29.36949734556717
 21
6.385749258550003
 31
0.0
  0
LINE
  5
3DD
330
458
100
AcDbEntity
  8
250
100
AcDbLine
 10
-29.19225534556719
 20
6.533877258550003
 30
0.0
 11
-29.30300534556719
 21
6.533877258550003
 31
0.0
  0
LINE
  5
3DE
330
458
100
AcDbEntity
  8
250
100
AcDbLine
 10
-29.30300534556719
 20
7.163877258550002
 30
0.0
 11
-29.30300534556719
 21
6.533877258550003
 31
0.0
  0
LINE
  5
3DF
330
458
100
AcDbEntity
  8
250
100
AcDbLine
 10
-28.28146034556718
 20
7.346929258550005
 30
0.0
 11
-28.29002134556717
 21
7.621929258550004
 31
0.0
  0
LINE
  5
3E0
330
458
100
AcDbEntity
  8
250
100
AcDbLine
 10
-28.97111034556715
 20
7.346929258550005
 30
0.0
 11
-28.96255034556716
 21
7.621929258550004
 31
0.0
  0
LINE
  5
3E1
330
458
100
AcDbEntity
  8
250
100
AcDbLine
 10
-29.45228634556716
 20
7.584388258550003
 30
0.0
 11
-29.66011634556716
 21
7.529888258550002
 31
0.0
  0
LINE
  5
3E2
330
458
100
AcDbEntity
  8
250
100
AcDbLine
 10
-29.13448534556719
 20
7.621929258550004
 30
0.0
 11
-28.11808534556715
 21
7.621929258550004
 31
0.0
  0
LINE
  5
3E3
330
458
100
AcDbEntity
  8
250
100
AcDbLine
 10
-29.19225534556719
 20
7.346929258550005
 30
0.0
 11
-27.68459634556714
 21
7.346929258550005
 31
0.0
  0
LINE
  5
3E4
330
458
100
AcDbEntity
  8
250
100
AcDbLine
 10
-28.28878534556716
 20
14.83692925855
 30
0.0
 11
-28.28878534556716
 21
13.50926425855
 31
0.0
  0
LINE
  5
3E5
330
458
100
AcDbEntity
  8
250
100
AcDbLine
 10
-28.96378534556717
 20
14.83692925855
 30
0.0
 11
-28.96378534556717
 21
13.50926425855
 31
0.0
  0
LINE
  5
3E6
330
458
100
AcDbEntity
  8
250
100
AcDbLine
 10
-29.13448534556719
 20
13.50926425855
 30
0.0
 11
-28.11808534556715
 21
13.50926425855
 31
0.0
  0
LINE
  5
3E7
330
458
100
AcDbEntity
  8
250
100
AcDbLine
 10
-28.28878534556716
 20
14.83692925855
 30
0.0
 11
-28.96378534556717
 21
14.83692925855
 31
0.0
  0
LINE
  5
3E8
330
458
100
AcDbEntity
  8
250
100
AcDbLine
 10
-16.96378534556717
 20
10.78457825855
 30
0.0
 11
-16.96378534556717
 21
-5.241658741449995
 31
0.0
  0
LINE
  5
3E9
330
458
100
AcDbEntity
  8
250
100
AcDbLine
 10
-16.28878534556716
 20
10.78457825855
 30
0.0
 11
-16.28878534556716
 21
-5.241658741449995
 31
0.0
  0
LINE
  5
3EA
330
458
100
AcDbEntity
  8
250
100
AcDbLine
 10
-17.2461293479391
 20
-6.041222268054049
 30
0.0
 11
-16.01996992526946
 21
-6.041222268054049
 31
0.0
  0
LINE
  5
3EB
330
458
100
AcDbEntity
  8
250
100
AcDbLine
 10
-17.05901755945533
 20
-5.853722268054049
 30
0.0
 11
-16.20708171375324
 21
-5.853722268054049
 31
0.0
  0
LINE
  5
3EC
330
458
100
AcDbEntity
  8
250
100
AcDbLine
 10
-16.88304963660428
 20
-5.64600877856013
 30
0.0
 11
-16.38304963660428
 21
-5.64600877856013
 31
0.0
  0
LINE
  5
3ED
330
458
100
AcDbEntity
  8
250
100
AcDbLine
 10
-16.75804963660428
 20
-4.819008844720116
 30
0.0
 11
-16.50804963660428
 21
-4.819008844720116
 31
0.0
  0
LINE
  5
3EE
330
458
100
AcDbEntity
  8
250
100
AcDbLine
 10
-17.1836293479391
 20
-6.041222268054049
 30
0.0
 11
-17.05901755945533
 21
-5.853722268054049
 31
0.0
  0
LINE
  5
3EF
330
458
100
AcDbEntity
  8
250
100
AcDbLine
 10
-17.00804963660428
 20
-5.02100877856013
 30
0.0
 11
-16.88304963660428
 21
-5.64600877856013
 31
0.0
  0
LINE
  5
3F0
330
458
100
AcDbEntity
  8
250
100
AcDbLine
 10
-16.75804963660428
 20
-4.819008844720116
 30
0.0
 11
-16.75804963660423
 21
-5.646008778560116
 31
0.0
  0
LINE
  5
3F1
330
458
100
AcDbEntity
  8
250
100
AcDbLine
 10
-16.82054963660428
 20
-5.853722268054049
 30
0.0
 11
-16.82054963660428
 21
-5.64600877856013
 31
0.0
  0
LINE
  5
3F2
330
458
100
AcDbEntity
  8
250
100
AcDbLine
 10
-16.75804963660428
 20
-5.02100877856013
 30
0.0
 11
-17.00804963660428
 21
-5.02100877856013
 31
0.0
  0
LINE
  5
3F3
330
458
100
AcDbEntity
  8
250
100
AcDbLine
 10
-16.38304963660428
 20
-5.64600877856013
 30
0.0
 11
-16.25804963660428
 21
-5.02100877856013
 31
0.0
  0
LINE
  5
3F4
330
458
100
AcDbEntity
  8
250
100
AcDbLine
 10
-16.50804963660428
 20
-4.819008844720116
 30
0.0
 11
-16.50804963660423
 21
-5.64600877856013
 31
0.0
  0
LINE
  5
3F5
330
458
100
AcDbEntity
  8
250
100
AcDbLine
 10
-16.08246992526946
 20
-6.041222268054049
 30
0.0
 11
-16.20708171375324
 21
-5.853722268054049
 31
0.0
  0
LINE
  5
3F6
330
458
100
AcDbEntity
  8
250
100
AcDbLine
 10
-16.44554963660428
 20
-5.853722268054049
 30
0.0
 11
-16.44554963660428
 21
-5.64600877856013
 31
0.0
  0
LINE
  5
3F7
330
458
100
AcDbEntity
  8
250
100
AcDbLine
 10
-16.25804963660428
 20
-5.02100877856013
 30
0.0
 11
-16.50804963660428
 21
-5.02100877856013
 31
0.0
  0
LINE
  5
3F8
330
458
100
AcDbEntity
  8
250
100
AcDbLine
 10
-11.06428534556718
 20
9.910987258550004
 30
0.0
 11
-11.06428534556718
 21
12.16098725855
 31
0.0
  0
LINE
  5
3F9
330
458
100
AcDbEntity
  8
250
100
AcDbLine
 10
-10.87628534556714
 20
9.723490258550004
 30
0.0
 11
-10.87628534556714
 21
12.34848725855
 31
0.0
  0
LINE
  5
3FA
330
458
100
AcDbEntity
  8
250
100
AcDbLine
 10
-16.28878534556716
 20
12.94692925855
 30
0.0
 11
-16.28878534556716
 21
11.28457825855
 31
0.0
  0
LINE
  5
3FB
330
458
100
AcDbEntity
  8
250
100
AcDbLine
 10
-16.96378534556717
 20
12.94692925855
 30
0.0
 11
-16.96378534556717
 21
11.28457825855
 31
0.0
  0
LINE
  5
3FC
330
458
100
AcDbEntity
  8
250
100
AcDbLine
 10
-16.12625334556716
 20
11.22595425855
 30
0.0
 11
-11.55628534556715
 21
11.22595425855
 31
0.0
  0
LINE
  5
3FD
330
458
100
AcDbEntity
  8
250
100
AcDbLine
 10
-16.12625334556716
 20
10.84595425855
 30
0.0
 11
-11.55628534556715
 21
10.84595425855
 31
0.0
  0
LINE
  5
3FE
330
458
100
AcDbEntity
  8
250
100
AcDbLine
 10
-16.12625334556716
 20
11.28457825855
 30
0.0
 11
-17.12625334556716
 21
11.28457825855
 31
0.0
  0
LINE
  5
3FF
330
458
100
AcDbEntity
  8
250
100
AcDbLine
 10
-17.12625334556716
 20
10.78457825855
 30
0.0
 11
-16.12625334556716
 21
10.78457825855
 31
0.0
  0
LINE
  5
400
330
458
100
AcDbEntity
  8
250
100
AcDbLine
 10
-17.12625334556716
 20
11.28457825855
 30
0.0
 11
-17.12625334556716
 21
10.78457825855
 31
0.0
  0
LINE
  5
401
330
458
100
AcDbEntity
  8
250
100
AcDbLine
 10
-16.12625334556716
 20
11.28457825855
 30
0.0
 11
-16.12625334556716
 21
10.78457825855
 31
0.0
  0
LINE
  5
402
330
458
100
AcDbEntity
  8
250
100
AcDbLine
 10
-11.06428534556718
 20
9.910987258550004
 30
0.0
 11
-10.87678534556719
 21
9.723487258550004
 31
0.0
  0
LINE
  5
403
330
458
100
AcDbEntity
  8
250
100
AcDbLine
 10
-10.87628534556714
 20
9.723487258550004
 30
0.0
 11
-10.87678534556719
 21
9.723487258550004
 31
0.0
  0
LINE
  5
404
330
458
100
AcDbEntity
  8
250
100
AcDbLine
 10
-11.17800534556719
 20
11.33702925855
 30
0.0
 11
-11.55628534556715
 21
11.31720425855
 31
0.0
  0
LINE
  5
405
330
458
100
AcDbEntity
  8
250
100
AcDbLine
 10
-11.17800534556719
 20
10.73488025855
 30
0.0
 11
-11.55628534556715
 21
10.75470425855
 31
0.0
  0
LINE
  5
406
330
458
100
AcDbEntity
  8
250
100
AcDbLine
 10
-11.55628534556715
 20
10.75470425855
 30
0.0
 11
-11.55628534556715
 21
11.31720425855
 31
0.0
  0
LINE
  5
407
330
458
100
AcDbEntity
  8
250
100
AcDbLine
 10
-11.06428534556718
 20
11.47305025855
 30
0.0
 11
-11.17800534556719
 21
11.33702925855
 31
0.0
  0
LINE
  5
408
330
458
100
AcDbEntity
  8
250
100
AcDbLine
 10
-11.17800534556719
 20
10.73488025855
 30
0.0
 11
-11.06428534556718
 21
10.59885925855
 31
0.0
  0
LINE
  5
409
330
458
100
AcDbEntity
  8
250
100
AcDbLine
 10
-10.87628534556714
 20
11.66055025855
 30
0.0
 11
-10.87678534556719
 21
11.66055025855
 31
0.0
  0
LINE
  5
40A
330
458
100
AcDbEntity
  8
250
100
AcDbLine
 10
-16.09628534556717
 20
13.32192925855
 30
0.0
 11
-16.09628534556717
 21
15.82192925854999
 31
0.0
  0
LINE
  5
40B
330
458
100
AcDbEntity
  8
250
100
AcDbLine
 10
-17.15628534556717
 20
13.32192925855
 30
0.0
 11
-17.15628534556717
 21
15.82192925854999
 31
0.0
  0
LINE
  5
40C
330
458
100
AcDbEntity
  8
250
100
AcDbLine
 10
-15.94887134556714
 20
14.83339225855
 30
0.0
 11
-17.26137134556714
 21
14.73339225855
 31
0.0
  0
ARC
  5
40D
330
458
100
AcDbEntity
  8
250
100
AcDbCircle
 10
-15.91428134556716
 20
13.13442925854999
 30
0.0
 40
0.1875
100
AcDbArc
 50
270.0
 51
90.0
  0
ARC
  5
40E
330
458
100
AcDbEntity
  8
250
100
AcDbCircle
 10
-19.00128534556714
 20
13.13442925854999
 30
0.0
 40
0.1875
100
AcDbArc
 50
90.0
 51
270.0
  0
LINE
  5
40F
330
458
100
AcDbEntity
  8
250
100
AcDbLine
 10
-15.86976034556719
 20
12.94692925855
 30
0.0
 11
-17.38281034556715
 21
12.94692925855
 31
0.0
  0
LINE
  5
410
330
458
100
AcDbEntity
  8
250
100
AcDbLine
 10
-17.15628534556717
 20
12.94692925855
 30
0.0
 11
-19.00128534556714
 21
12.94692925855
 31
0.0
  0
LINE
  5
411
330
458
100
AcDbEntity
  8
250
100
AcDbLine
 10
-17.16581034556717
 20
13.32192925855
 30
0.0
 11
-15.91428134556716
 21
13.32192925855
 31
0.0
  0
LINE
  5
412
330
458
100
AcDbEntity
  8
250
100
AcDbLine
 10
-17.26137134556714
 20
13.67237825855
 30
0.0
 11
-15.94887134556714
 21
13.67237825855
 31
0.0
  0
LINE
  5
413
330
458
100
AcDbEntity
  8
250
100
AcDbLine
 10
-15.94887134556714
 20
14.08339225855
 30
0.0
 11
-17.26137134556714
 21
13.98339225855
 31
0.0
  0
LINE
  5
414
330
458
100
AcDbEntity
  8
250
100
AcDbLine
 10
-17.15628534556717
 20
13.32192925855
 30
0.0
 11
-19.00128534556714
 21
13.32192925855
 31
0.0
  0
LINE
  5
415
330
458
100
AcDbEntity
  8
250
100
AcDbLine
 10
-10.87628534556714
 20
12.34848725855
 30
0.0
 11
-11.06428534556718
 21
12.16098725855
 31
0.0
  0
LINE
  5
416
330
458
100
AcDbEntity
  8
250
100
AcDbLine
 10
-16.27628534556717
 20
16.12692925855
 30
0.0
 11
-16.27628534556717
 21
16.35192925855
 31
0.0
  0
LINE
  5
417
330
458
100
AcDbEntity
  8
250
100
AcDbLine
 10
-16.97628534556716
 20
16.12692925855
 30
0.0
 11
-16.97628534556716
 21
16.35192925855
 31
0.0
  0
LINE
  5
418
330
458
100
AcDbEntity
  8
250
100
AcDbLine
 10
-15.94887134556714
 20
16.33339225855
 30
0.0
 11
-17.26137134556714
 21
16.23339225855
 31
0.0
  0
LINE
  5
419
330
458
100
AcDbEntity
  8
250
100
AcDbLine
 10
-16.09628534556717
 20
15.82192925854999
 30
0.0
 11
-17.15628534556717
 21
15.82192925854999
 31
0.0
  0
LINE
  5
41A
330
458
100
AcDbEntity
  8
250
100
AcDbLine
 10
-17.05928534556719
 20
16.12692925855
 30
0.0
 11
-16.19328534556715
 21
16.12692925855
 31
0.0
  0
LINE
  5
41B
330
458
100
AcDbEntity
  8
250
100
AcDbLine
 10
-15.94887134556714
 20
15.58339225855
 30
0.0
 11
-17.26137134556714
 21
15.48339225855
 31
0.0
  0
LINE
  5
41C
330
458
100
AcDbEntity
  8
250
100
AcDbLine
 10
-16.96378534556717
 20
16.12692925855
 30
0.0
 11
-16.96378534556717
 21
15.82192925854999
 31
0.0
  0
LINE
  5
41D
330
458
100
AcDbEntity
  8
250
100
AcDbLine
 10
-16.28878534556716
 20
16.12692925855
 30
0.0
 11
-16.28878534556716
 21
15.82192925854999
 31
0.0
  0
LINE
  5
41E
330
458
100
AcDbEntity
  8
250
100
AcDbLine
 10
-16.92628534556715
 20
17.25192925855
 30
0.0
 11
-16.32628534556719
 21
17.25192925855
 31
0.0
  0
LINE
  5
41F
330
458
100
AcDbEntity
  8
250
100
AcDbLine
 10
-16.31128534556714
 20
17.00192925855
 30
0.0
 11
-16.94128534556714
 21
17.00192925855
 31
0.0
  0
LINE
  5
420
330
458
100
AcDbEntity
  8
250
100
AcDbLine
 10
-16.97628534556716
 20
16.35192925855
 30
0.0
 11
-16.27628534556717
 21
16.35192925855
 31
0.0
  0
LINE
  5
421
330
458
100
AcDbEntity
  8
250
100
AcDbLine
 10
-15.94858134556713
 20
17.08341425855
 30
0.0
 11
-17.26108134556714
 21
16.98341425855
 31
0.0
  0
LINE
  5
422
330
458
100
AcDbEntity
  8
250
100
AcDbLine
 10
-16.94128534556714
 20
16.35192925855
 30
0.0
 11
-16.94128534556714
 21
17.00192925855
 31
0.0
  0
LINE
  5
423
330
458
100
AcDbEntity
  8
250
100
AcDbLine
 10
-16.31128534556714
 20
16.35192925855
 30
0.0
 11
-16.31128534556714
 21
17.00192925855
 31
0.0
  0
LINE
  5
424
330
458
100
AcDbEntity
  8
250
100
AcDbLine
 10
-19.22768834556714
 20
28.65194025855
 30
0.0
 11
-19.84130734556717
 21
27.48741225855001
 31
0.0
  0
LINE
  5
425
330
458
100
AcDbEntity
  8
250
100
AcDbLine
 10
-18.60526034556719
 20
28.23526325855
 30
0.0
 11
-19.34540834556717
 21
27.14676125855
 31
0.0
  0
ARC
  5
426
330
458
100
AcDbEntity
  8
250
100
AcDbCircle
 10
-22.62628534556714
 20
22.90192925855
 30
0.0
 40
5.7
100
AcDbArc
 50
0.0
 51
180.0
  0
ARC
  5
427
330
458
100
AcDbEntity
  8
250
100
AcDbCircle
 10
-22.62628534556714
 20
22.90192925855
 30
0.0
 40
6.299999999999999
100
AcDbArc
 50
0.0
 51
180.0
  0
LINE
  5
428
330
458
100
AcDbEntity
  8
250
100
AcDbLine
 10
-21.31751434556716
 20
29.45175425855
 30
0.0
 11
-21.51208034556717
 21
28.14991025855
 31
0.0
  0
LINE
  5
429
330
458
100
AcDbEntity
  8
250
100
AcDbLine
 10
-20.59239634556715
 20
29.26403525855
 30
0.0
 11
-20.93149934556718
 21
27.99216025855
 31
0.0
  0
LINE
  5
42A
330
458
100
AcDbEntity
  8
250
100
AcDbLine
 10
-19.89285434556714
 20
28.99630825855
 30
0.0
 11
-20.37223034556715
 21
27.77039825855
 31
0.0
  0
LINE
  5
42B
330
458
100
AcDbEntity
  8
250
100
AcDbLine
 10
-22.05909134556717
 20
29.55710625855001
 30
0.0
 11
-22.10667334556715
 21
28.24166325854999
 31
0.0
  0
LINE
  5
42C
330
458
100
AcDbEntity
  8
250
100
AcDbLine
 10
-22.80780134556719
 20
29.57876625855
 30
0.0
 11
-22.70780134556716
 21
28.26626625855
 31
0.0
  0
LINE
  5
42D
330
458
100
AcDbEntity
  8
250
100
AcDbLine
 10
-16.01175434556714
 20
23.82987225855
 30
0.0
 11
-17.30480534556719
 21
23.58354725855
 31
0.0
  0
LINE
  5
42E
330
458
100
AcDbEntity
  8
250
100
AcDbLine
 10
-15.94800034556718
 20
20.83345825855
 30
0.0
 11
-17.26050034556718
 21
20.73345825855
 31
0.0
  0
LINE
  5
42F
330
458
100
AcDbEntity
  8
250
100
AcDbLine
 10
-15.94829134556718
 20
19.33343625855
 30
0.0
 11
-17.26079134556719
 21
19.23343625855
 31
0.0
  0
LINE
  5
430
330
458
100
AcDbEntity
  8
250
100
AcDbLine
 10
-15.94829134556718
 20
18.58343625855001
 30
0.0
 11
-17.26079134556719
 21
18.48343625855
 31
0.0
  0
LINE
  5
431
330
458
100
AcDbEntity
  8
250
100
AcDbLine
 10
-15.94800034556718
 20
20.08345825855
 30
0.0
 11
-17.26050034556718
 21
19.98345825855
 31
0.0
  0
LINE
  5
432
330
458
100
AcDbEntity
  8
250
100
AcDbLine
 10
-15.94739234556718
 20
22.33350525855
 30
0.0
 11
-17.25989234556718
 21
22.23350525855001
 31
0.0
  0
LINE
  5
433
330
458
100
AcDbEntity
  8
250
100
AcDbLine
 10
-15.94800034556718
 20
21.58345825855
 30
0.0
 11
-17.26050034556718
 21
21.48345825855
 31
0.0
  0
LINE
  5
434
330
458
100
AcDbEntity
  8
250
100
AcDbLine
 10
-15.94944934556716
 20
23.08344525854999
 30
0.0
 11
-17.26194934556716
 21
22.98344525855
 31
0.0
  0
LINE
  5
435
330
458
100
AcDbEntity
  8
250
100
AcDbLine
 10
-17.51929734556714
 20
27.20678325855
 30
0.0
 11
-18.48310234556717
 21
26.31027025855
 31
0.0
  0
LINE
  5
436
330
458
100
AcDbEntity
  8
250
100
AcDbLine
 10
-18.03340034556717
 20
27.75151725855
 30
0.0
 11
-18.89076734556718
 21
26.75272825855
 31
0.0
  0
LINE
  5
437
330
458
100
AcDbEntity
  8
250
100
AcDbLine
 10
-16.38408134556718
 20
25.27847825855
 30
0.0
 11
-17.58990034556714
 21
24.75059925855
 31
0.0
  0
LINE
  5
438
330
458
100
AcDbEntity
  8
250
100
AcDbLine
 10
-16.15724234556714
 20
24.56463025855
 30
0.0
 11
-17.41458334556714
 21
24.17507825855
 31
0.0
  0
LINE
  5
439
330
458
100
AcDbEntity
  8
250
100
AcDbLine
 10
-16.68942034556718
 20
25.96244025855
 30
0.0
 11
-17.82855334556714
 21
25.30287125855
 31
0.0
  0
LINE
  5
43A
330
458
100
AcDbEntity
  8
250
100
AcDbLine
 10
-17.06941834556719
 20
26.60791425855
 30
0.0
 11
-18.12754134556715
 21
25.82495025855
 31
0.0
  0
VIEWPORT
  5
39F
330
454
100
AcDbEntity
 67
     1
  8
0
100
AcDbViewport
 10
6.530232558139535
 20
4.5
 30
0.0
 40
13.06046511627907
 41
9.0
 68
     1
 69
     1
 12
6.530232558139535
 22
4.5
 13
0.0
 23
0.0
 14
0.5
 24
0.5
 15
0.5
 25
0.5
 16
0.0
 26
0.0
 36
1.0
 17
0.0
 27
0.0
 37
0.0
 42
50.0
 43
0.0
 44
0.0
 45
9.0
 50
0.0
 51
0.0
 72
   100
 90
    32800
  1

281
     0
 71
     0
 74
     0
110
0.0
120
0.0
130
0.0
111
0.0
121
0.0
131
0.0
112
0.0
122
0.0
132
0.0
 79
     0
146
0.0
  0
ENDSEC
  0
SECTION
  2
OBJECTS
  0
DICTIONARY
  5
446
330
0
100
AcDbDictionary
281
     1
  3
ACAD_GROUP
350
447
  3
ACAD_LAYOUT
350
453
  3
ACAD_MLINESTYLE
350
450
  3
ACAD_PLOTSETTINGS
350
452
  3
ACAD_PLOTSTYLENAME
350
448
  3
ACDBHEADERROUNDTRIPXREC
350
46E
  3
AcDbVariableDictionary
350
46A
  0
DICTIONARY
  5
447
102
{ACAD_REACTORS
330
446
102
}
330
446
100
AcDbDictionary
281
     1
  0
DICTIONARY
  5
453
102
{ACAD_REACTORS
330
446
102
}
330
446
100
AcDbDictionary
281
     1
  3
Layout1
350
457
  3
Model
350
45B
  0
DICTIONARY
  5
450
102
{ACAD_REACTORS
330
446
102
}
330
446
100
AcDbDictionary
281
     1
  3
Standard
350
451
  0
DICTIONARY
  5
452
102
{ACAD_REACTORS
330
446
102
}
330
446
100
AcDbDictionary
281
     1
  0
ACDBDICTIONARYWDFLT
  5
448
102
{ACAD_REACTORS
330
446
102
}
330
446
100
AcDbDictionary
281
     1
  3
Normal
350
449
100
AcDbDictionaryWithDefault
340
449
  0
DICTIONARY
  5
46E
102
{ACAD_REACTORS
330
446
102
}
330
446
100
AcDbDictionary
281
     1
  3
CEPSNTYPE
350
478
  3
DIMSTYLEDATA
350
47C
  3
FINGERPRINTGUID
350
479
  3
HYPERLINKBASE
350
471
  3
INSUNITS
350
477
  3
LAYOUTDICT
350
473
  3
LWETCUNION
350
476
  3
PLOTSETDICT
350
474
  3
PLOTSTYLNAMDICT
350
475
  3
PSVPSCALE
350
47B
  3
PUCSBASE
350
47F
  3
PUCSORGBACK
350
485
  3
PUCSORGBOTTOM
350
481
  3
PUCSORGFRONT
350
484
  3
PUCSORGLEFT
350
482
  3
PUCSORGRIGHT
350
483
  3
PUCSORGTOP
350
480
  3
PUCSORTHOREF
350
47D
  3
PUCSORTHOVIEW
350
47E
  3
STYLESHEET
350
472
  3
TSTACKALIGN
350
46F
  3
TSTACKSIZE
350
470
  3
UCSBASE
350
488
  3
UCSORGBACK
350
48E
  3
UCSORGBOTTOM
350
48A
  3
UCSORGFRONT
350
48D
  3
UCSORGLEFT
350
48B
  3
UCSORGRIGHT
350
48C
  3
UCSORGTOP
350
489
  3
UCSORTHOREF
350
486
  3
UCSORTHOVIEW
350
487
  3
VERSIONGUID
350
47A
  0
DICTIONARY
  5
46A
102
{ACAD_REACTORS
330
446
102
}
330
446
100
AcDbDictionary
281
     1
  3
DIMASSOC
350
46C
  3
HIDETEXT
350
46B
  0
LAYOUT
  5
457
102
{ACAD_REACTORS
330
453
102
}
330
453
100
AcDbPlotSettings
  1

  2
Acrobat Distiller
  4

  6

 40
0.0
 41
0.0
 42
0.0
 43
0.0
 44
0.0
 45
0.0
 46
0.0
 47
0.0
 48
0.0
 49
0.0
140
0.0
141
0.0
142
1.0
143
1.0
 70
   688
 72
     0
 73
     0
 74
     5
  7

 75
    16
147
1.0
148
0.0
149
0.0
100
AcDbLayout
  1
Layout1
 70
     1
 71
     1
 10
0.0
 20
0.0
 11
12.0
 21
9.0
 12
0.0
 22
0.0
 32
0.0
 14
1.000000000000000E+20
 24
1.000000000000000E+20
 34
1.000000000000000E+20
 15
-1.000000000000000E+20
 25
-1.000000000000000E+20
 35
-1.000000000000000E+20
146
0.0
 13
0.0
 23
0.0
 33
0.0
 16
1.0
 26
0.0
 36
0.0
 17
0.0
 27
1.0
 37
0.0
 76
     0
330
454
331
39F
  0
LAYOUT
  5
45B
102
{ACAD_REACTORS
330
453
102
}
330
453
100
AcDbPlotSettings
  1

  2
Acrobat Distiller
  4

  6

 40
0.0
 41
0.0
 42
0.0
 43
0.0
 44
0.0
 45
0.0
 46
0.0
 47
0.0
 48
0.0
 49
0.0
140
0.0
141
0.0
142
1.0
143
1.0
 70
  1712
 72
     0
 73
     0
 74
     0
  7

 75
     0
147
1.0
148
0.0
149
0.0
100
AcDbLayout
  1
Model
 70
     1
 71
     0
 10
0.0
 20
0.0
 11
12.0
 21
9.0
 12
0.0
 22
0.0
 32
0.0
 14
0.0
 24
0.0
 34
0.0
 15
0.0
 25
0.0
 35
0.0
146
0.0
 13
0.0
 23
0.0
 33
0.0
 16
1.0
 26
0.0
 36
0.0
 17
0.0
 27
1.0
 37
0.0
 76
     0
330
458
  0
MLINESTYLE
  5
451
102
{ACAD_REACTORS
330
450
102
}
330
450
100
AcDbMlineStyle
  2
STANDARD
 70
     0
  3

 62
   256
 51
90.0
 52
90.0
 71
     2
 49
0.5
 62
   256
  6
BYLAYER
 49
-0.5
 62
   256
  6
BYLAYER
  0
ACDBPLACEHOLDER
  5
449
102
{ACAD_REACTORS
330
448
102
}
330
448
  0
XRECORD
  5
478
102
{ACAD_REACTORS
330
46E
102
}
330
46E
100
AcDbXrecord
280
     1
 90
        0
  0
XRECORD
  5
47C
102
{ACAD_REACTORS
330
46E
102
}
330
46E
100
AcDbXrecord
280
     1
1000
DSTYLE
1002
{
1070
   279
 70
     2
1002
}
  0
XRECORD
  5
479
102
{ACAD_REACTORS
330
46E
102
}
330
46E
100
AcDbXrecord
280
     1
  1
{8770255B-B883-4A09-9B21-785B64EDAF9A}
  0
XRECORD
  5
471
102
{ACAD_REACTORS
330
46E
102
}
330
46E
100
AcDbXrecord
280
     1
  1

  0
XRECORD
  5
477
102
{ACAD_REACTORS
330
46E
102
}
330
46E
100
AcDbXrecord
280
     1
 90
        0
  0
XRECORD
  5
473
102
{ACAD_REACTORS
330
46E
102
}
330
46E
100
AcDbXrecord
280
     1
340
453
  0
XRECORD
  5
476
102
{ACAD_REACTORS
330
46E
102
}
330
46E
100
AcDbXrecord
280
     1
 90
    14877
  0
XRECORD
  5
474
102
{ACAD_REACTORS
330
46E
102
}
330
46E
100
AcDbXrecord
280
     1
340
452
  0
XRECORD
  5
475
102
{ACAD_REACTORS
330
46E
102
}
330
46E
100
AcDbXrecord
280
     1
340
448
  0
XRECORD
  5
47B
102
{ACAD_REACTORS
330
46E
102
}
330
46E
100
AcDbXrecord
280
     1
 40
0.0
  0
XRECORD
  5
47F
102
{ACAD_REACTORS
330
46E
102
}
330
46E
100
AcDbXrecord
280
     1
340
0
  0
XRECORD
  5
485
102
{ACAD_REACTORS
330
46E
102
}
330
46E
100
AcDbXrecord
280
     1
 10
0.0
 20
0.0
 30
0.0
  0
XRECORD
  5
481
102
{ACAD_REACTORS
330
46E
102
}
330
46E
100
AcDbXrecord
280
     1
 10
0.0
 20
0.0
 30
0.0
  0
XRECORD
  5
484
102
{ACAD_REACTORS
330
46E
102
}
330
46E
100
AcDbXrecord
280
     1
 10
0.0
 20
0.0
 30
0.0
  0
XRECORD
  5
482
102
{ACAD_REACTORS
330
46E
102
}
330
46E
100
AcDbXrecord
280
     1
 10
0.0
 20
0.0
 30
0.0
  0
XRECORD
  5
483
102
{ACAD_REACTORS
330
46E
102
}
330
46E
100
AcDbXrecord
280
     1
 10
0.0
 20
0.0
 30
0.0
  0
XRECORD
  5
480
102
{ACAD_REACTORS
330
46E
102
}
330
46E
100
AcDbXrecord
280
     1
 10
0.0
 20
0.0
 30
0.0
  0
XRECORD
  5
47D
102
{ACAD_REACTORS
330
46E
102
}
330
46E
100
AcDbXrecord
280
     1
340
0
  0
XRECORD
  5
47E
102
{ACAD_REACTORS
330
46E
102
}
330
46E
100
AcDbXrecord
280
     1
 70
     0
  0
XRECORD
  5
472
102
{ACAD_REACTORS
330
46E
102
}
330
46E
100
AcDbXrecord
280
     1
  1

  0
XRECORD
  5
46F
102
{ACAD_REACTORS
330
46E
102
}
330
46E
100
AcDbXrecord
280
     1
 90
        1
  0
XRECORD
  5
470
102
{ACAD_REACTORS
330
46E
102
}
330
46E
100
AcDbXrecord
280
     1
 90
       70
  0
XRECORD
  5
488
102
{ACAD_REACTORS
330
46E
102
}
330
46E
100
AcDbXrecord
280
     1
340
0
  0
XRECORD
  5
48E
102
{ACAD_REACTORS
330
46E
102
}
330
46E
100
AcDbXrecord
280
     1
 10
0.0
 20
0.0
 30
0.0
  0
XRECORD
  5
48A
102
{ACAD_REACTORS
330
46E
102
}
330
46E
100
AcDbXrecord
280
     1
 10
0.0
 20
0.0
 30
0.0
  0
XRECORD
  5
48D
102
{ACAD_REACTORS
330
46E
102
}
330
46E
100
AcDbXrecord
280
     1
 10
0.0
 20
0.0
 30
0.0
  0
XRECORD
  5
48B
102
{ACAD_REACTORS
330
46E
102
}
330
46E
100
AcDbXrecord
280
     1
 10
0.0
 20
0.0
 30
0.0
  0
XRECORD
  5
48C
102
{ACAD_REACTORS
330
46E
102
}
330
46E
100
AcDbXrecord
280
     1
 10
0.0
 20
0.0
 30
0.0
  0
XRECORD
  5
489
102
{ACAD_REACTORS
330
46E
102
}
330
46E
100
AcDbXrecord
280
     1
 10
0.0
 20
0.0
 30
0.0
  0
XRECORD
  5
486
102
{ACAD_REACTORS
330
46E
102
}
330
46E
100
AcDbXrecord
280
     1
340
0
  0
XRECORD
  5
487
102
{ACAD_REACTORS
330
46E
102
}
330
46E
100
AcDbXrecord
280
     1
 70
     0
  0
XRECORD
  5
47A
102
{ACAD_REACTORS
330
46E
102
}
330
46E
100
AcDbXrecord
280
     1
  1
{A42EA7F9-788E-4882-A4C7-9DB6752B79EA}
  0
DICTIONARYVAR
  5
46C
102
{ACAD_REACTORS
330
46A
102
}
330
46A
100
DictionaryVariables
280
     0
  1
2
  0
DICTIONARYVAR
  5
46B
102
{ACAD_REACTORS
330
46A
102
}
330
46A
100
DictionaryVariables
280
     0
  1
1
  0
ENDSEC
  0
EOF
