  0
SECTION
  2
HEADER
  9
$ACADVER
  1
AC1015
  9
$ACADMAINTVER
 70
     6
  9
$DWGCODEPAGE
  3
ANSI_1252
  9
$INSBASE
 10
0.0
 20
0.0
 30
0.0
  9
$EXTMIN
 10
-16.73830794345507
 20
-11.28650657980921
 30
-0.0015258207003583
  9
$EXTMAX
 10
2.614818842858355
 20
30.40639454861757
 30
0.0000000349246037
  9
$LIMMIN
 10
0.0
 20
0.0
  9
$LIMMAX
 10
12.0
 20
9.0
  9
$ORTHOMODE
 70
     0
  9
$REGENMODE
 70
     1
  9
$FILLMODE
 70
     1
  9
$QTEXTMODE
 70
     0
  9
$MIRRTEXT
 70
     1
  9
$LTSCALE
 40
10.0
  9
$ATTMODE
 70
     1
  9
$TEXTSIZE
 40
0.2
  9
$TRACEWID
 40
0.05
  9
$TEXTSTYLE
  7
STANDARD
  9
$CLAYER
  8
0
  9
$CELTYPE
  6
ByLayer
  9
$CECOLOR
 62
   256
  9
$CELTSCALE
 40
1.0
  9
$DISPSILH
 70
     0
  9
$DIMSCALE
 40
1.0
  9
$DIMASZ
 40
0.18
  9
$DIMEXO
 40
0.0625
  9
$DIMDLI
 40
0.38
  9
$DIMRND
 40
0.0
  9
$DIMDLE
 40
0.0
  9
$DIMEXE
 40
0.18
  9
$DIMTP
 40
0.0
  9
$DIMTM
 40
0.0
  9
$DIMTXT
 40
0.18
  9
$DIMCEN
 40
0.09
  9
$DIMTSZ
 40
0.0
  9
$DIMTOL
 70
     0
  9
$DIMLIM
 70
     0
  9
$DIMTIH
 70
     1
  9
$DIMTOH
 70
     1
  9
$DIMSE1
 70
     0
  9
$DIMSE2
 70
     0
  9
$DIMTAD
 70
     0
  9
$DIMZIN
 70
     0
  9
$DIMBLK
  1

  9
$DIMASO
 70
     1
  9
$DIMSHO
 70
     1
  9
$DIMPOST
  1

  9
$DIMAPOST
  1

  9
$DIMALT
 70
     0
  9
$DIMALTD
 70
     2
  9
$DIMALTF
 40
25.4
  9
$DIMLFAC
 40
1.0
  9
$DIMTOFL
 70
     0
  9
$DIMTVP
 40
0.0
  9
$DIMTIX
 70
     0
  9
$DIMSOXD
 70
     0
  9
$DIMSAH
 70
     0
  9
$DIMBLK1
  1

  9
$DIMBLK2
  1

  9
$DIMSTYLE
  2
Standard
  9
$DIMCLRD
 70
     0
  9
$DIMCLRE
 70
     0
  9
$DIMCLRT
 70
     0
  9
$DIMTFAC
 40
1.0
  9
$DIMGAP
 40
0.09
  9
$DIMJUST
 70
     0
  9
$DIMSD1
 70
     0
  9
$DIMSD2
 70
     0
  9
$DIMTOLJ
 70
     1
  9
$DIMTZIN
 70
     0
  9
$DIMALTZ
 70
     0
  9
$DIMALTTZ
 70
     0
  9
$DIMUPT
 70
     0
  9
$DIMDEC
 70
     4
  9
$DIMTDEC
 70
     4
  9
$DIMALTU
 70
     2
  9
$DIMALTTD
 70
     2
  9
$DIMTXSTY
  7
STANDARD
  9
$DIMAUNIT
 70
     0
  9
$DIMADEC
 70
     0
  9
$DIMALTRND
 40
0.0
  9
$DIMAZIN
 70
     0
  9
$DIMDSEP
 70
    46
  9
$DIMATFIT
 70
     3
  9
$DIMFRAC
 70
     0
  9
$DIMLDRBLK
  1

  9
$DIMLUNIT
 70
     2
  9
$DIMLWD
 70
    -2
  9
$DIMLWE
 70
    -2
  9
$DIMTMOVE
 70
     2
  9
$LUNITS
 70
     2
  9
$LUPREC
 70
     4
  9
$SKETCHINC
 40
0.1
  9
$FILLETRAD
 40
0.5
  9
$AUNITS
 70
     0
  9
$AUPREC
 70
     0
  9
$MENU
  1
acad
  9
$ELEVATION
 40
0.0
  9
$PELEVATION
 40
0.0
  9
$THICKNESS
 40
0.0
  9
$LIMCHECK
 70
     0
  9
$CHAMFERA
 40
0.5
  9
$CHAMFERB
 40
0.5
  9
$CHAMFERC
 40
0.0
  9
$CHAMFERD
 40
0.0
  9
$SKPOLY
 70
     0
  9
$TDCREATE
 40
2453559.703066551
  9
$TDUCREATE
 40
2453559.994733217
  9
$TDUPDATE
 40
2453916.391980428
  9
$TDUUPDATE
 40
2453916.683647094
  9
$TDINDWG
 40
0.0001121296
  9
$TDUSRTIMER
 40
0.0001121296
  9
$USRTIMER
 70
     1
  9
$ANGBASE
 50
0.0
  9
$ANGDIR
 70
     0
  9
$PDMODE
 70
     0
  9
$PDSIZE
 40
0.0
  9
$PLINEWID
 40
0.0
  9
$SPLFRAME
 70
     0
  9
$SPLINETYPE
 70
     6
  9
$SPLINESEGS
 70
     8
  9
$HANDSEED
  5
4F5
  9
$SURFTAB1
 70
     6
  9
$SURFTAB2
 70
     6
  9
$SURFTYPE
 70
     6
  9
$SURFU
 70
     6
  9
$SURFV
 70
     6
  9
$UCSBASE
  2

  9
$UCSNAME
  2

  9
$UCSORG
 10
0.0
 20
0.0
 30
0.0
  9
$UCSXDIR
 10
1.0
 20
0.0
 30
0.0
  9
$UCSYDIR
 10
0.0
 20
1.0
 30
0.0
  9
$UCSORTHOREF
  2

  9
$UCSORTHOVIEW
 70
     0
  9
$UCSORGTOP
 10
0.0
 20
0.0
 30
0.0
  9
$UCSORGBOTTOM
 10
0.0
 20
0.0
 30
0.0
  9
$UCSORGLEFT
 10
0.0
 20
0.0
 30
0.0
  9
$UCSORGRIGHT
 10
0.0
 20
0.0
 30
0.0
  9
$UCSORGFRONT
 10
0.0
 20
0.0
 30
0.0
  9
$UCSORGBACK
 10
0.0
 20
0.0
 30
0.0
  9
$PUCSBASE
  2

  9
$PUCSNAME
  2

  9
$PUCSORG
 10
0.0
 20
0.0
 30
0.0
  9
$PUCSXDIR
 10
1.0
 20
0.0
 30
0.0
  9
$PUCSYDIR
 10
0.0
 20
1.0
 30
0.0
  9
$PUCSORTHOREF
  2

  9
$PUCSORTHOVIEW
 70
     0
  9
$PUCSORGTOP
 10
0.0
 20
0.0
 30
0.0
  9
$PUCSORGBOTTOM
 10
0.0
 20
0.0
 30
0.0
  9
$PUCSORGLEFT
 10
0.0
 20
0.0
 30
0.0
  9
$PUCSORGRIGHT
 10
0.0
 20
0.0
 30
0.0
  9
$PUCSORGFRONT
 10
0.0
 20
0.0
 30
0.0
  9
$PUCSORGBACK
 10
0.0
 20
0.0
 30
0.0
  9
$USERI1
 70
     0
  9
$USERI2
 70
     0
  9
$USERI3
 70
     0
  9
$USERI4
 70
     0
  9
$USERI5
 70
     0
  9
$USERR1
 40
0.0
  9
$USERR2
 40
0.0
  9
$USERR3
 40
0.0
  9
$USERR4
 40
0.0
  9
$USERR5
 40
0.0
  9
$WORLDVIEW
 70
     1
  9
$SHADEDGE
 70
     3
  9
$SHADEDIF
 70
    70
  9
$TILEMODE
 70
     1
  9
$MAXACTVP
 70
    48
  9
$PINSBASE
 10
0.0
 20
0.0
 30
0.0
  9
$PLIMCHECK
 70
     0
  9
$PEXTMIN
 10
1.000000000000000E+20
 20
1.000000000000000E+20
 30
1.000000000000000E+20
  9
$PEXTMAX
 10
-1.000000000000000E+20
 20
-1.000000000000000E+20
 30
-1.000000000000000E+20
  9
$PLIMMIN
 10
0.0
 20
0.0
  9
$PLIMMAX
 10
12.0
 20
9.0
  9
$UNITMODE
 70
     0
  9
$VISRETAIN
 70
     1
  9
$PLINEGEN
 70
     0
  9
$PSLTSCALE
 70
     1
  9
$TREEDEPTH
 70
  3020
  9
$CMLSTYLE
  2
Standard
  9
$CMLJUST
 70
     0
  9
$CMLSCALE
 40
1.0
  9
$PROXYGRAPHICS
 70
     1
  9
$MEASUREMENT
 70
     0
  9
$CELWEIGHT
370
    -1
  9
$ENDCAPS
280
     0
  9
$JOINSTYLE
280
     0
  9
$LWDISPLAY
290
     0
  9
$INSUNITS
 70
     0
  9
$HYPERLINKBASE
  1

  9
$STYLESHEET
  1

  9
$XEDIT
290
     1
  9
$CEPSNTYPE
380
     0
  9
$PSTYLEMODE
290
     1
  9
$FINGERPRINTGUID
  2
{1513F0A4-4792-4A55-B86E-2B854BA39F8C}
  9
$VERSIONGUID
  2
{7F9BDF58-6464-4DF0-A0E5-7200C4630225}
  9
$EXTNAMES
290
     1
  9
$PSVPSCALE
 40
0.0
  9
$OLESTARTUP
290
     0
  0
ENDSEC
  0
SECTION
  2
CLASSES
  0
CLASS
  1
ACDBDICTIONARYWDFLT
  2
AcDbDictionaryWithDefault
  3
AutoCAD 2000
 90
        0
280
     0
281
     0
  0
CLASS
  1
ACDBPLACEHOLDER
  2
AcDbPlaceHolder
  3
AutoCAD 2000
 90
        0
280
     0
281
     0
  0
CLASS
  1
LAYOUT
  2
AcDbLayout
  3
AutoCAD 2000
 90
        0
280
     0
281
     0
  0
CLASS
  1
DICTIONARYVAR
  2
AcDbDictionaryVar
  3
AutoCAD 2000
 90
        0
280
     0
281
     0
  0
ENDSEC
  0
SECTION
  2
TABLES
  0
TABLE
  2
VPORT
  5
4A8
330
0
100
AcDbSymbolTable
 70
     3
  0
VPORT
  5
4D3
330
4A8
100
AcDbSymbolTableRecord
100
AcDbViewportTableRecord
  2
*Active
 70
     0
 10
0.0
 20
0.0
 11
1.0
 21
1.0
 12
-7.06174455029836
 22
9.559943984404178
 13
0.0
 23
0.0
 14
0.5
 24
0.5
 15
0.5
 25
0.5
 16
0.0
 26
0.0
 36
1.0
 17
0.0
 27
0.0
 37
0.0
 40
42.01526892065689
 41
1.554838709677419
 42
50.0
 43
0.0
 44
0.0
 50
0.0
 51
0.0
 71
     0
 72
   100
 73
     1
 74
     3
 75
     0
 76
     0
 77
     0
 78
     0
281
     0
 65
     1
110
0.0
120
0.0
130
0.0
111
1.0
121
0.0
131
0.0
112
0.0
122
1.0
132
0.0
 79
     0
146
0.0
  0
ENDTAB
  0
TABLE
  2
LTYPE
  5
4A5
330
0
100
AcDbSymbolTable
 70
     2
  0
LTYPE
  5
4B3
330
4A5
100
AcDbSymbolTableRecord
100
AcDbLinetypeTableRecord
  2
ByBlock
 70
     0
  3

 72
    65
 73
     0
 40
0.0
  0
LTYPE
  5
4B4
330
4A5
100
AcDbSymbolTableRecord
100
AcDbLinetypeTableRecord
  2
ByLayer
 70
     0
  3

 72
    65
 73
     0
 40
0.0
  0
LTYPE
  5
4B5
330
4A5
100
AcDbSymbolTableRecord
100
AcDbLinetypeTableRecord
  2
CONTINUOUS
 70
     0
  3
Solid line
 72
    65
 73
     0
 40
0.0
  0
LTYPE
  5
4C2
330
4A5
100
AcDbSymbolTableRecord
100
AcDbLinetypeTableRecord
  2
CENTER
 70
     0
  3
____ _ ____ _ ____ _ ____ _ ____ _ ____ _ ____
 72
    65
 73
     4
 40
2.0
 49
1.25
 74
     0
 49
-0.25
 74
     0
 49
0.25
 74
     0
 49
-0.25
 74
     0
  0
ENDTAB
  0
TABLE
  2
LAYER
  5
4A2
330
0
100
AcDbSymbolTable
 70
     3
  0
LAYER
  5
4B0
330
4A2
100
AcDbSymbolTableRecord
100
AcDbLayerTableRecord
  2
0
 70
     0
 62
     7
  6
CONTINUOUS
370
    -3
390
4AF
  0
LAYER
  5
4C7
330
4A2
100
AcDbSymbolTableRecord
100
AcDbLayerTableRecord
  2
250
 70
     0
 62
     2
  6
CONTINUOUS
370
    -3
390
4AF
  0
LAYER
  5
4C8
330
4A2
100
AcDbSymbolTableRecord
100
AcDbLayerTableRecord
  2
255
 70
     0
 62
     1
  6
CENTER
370
    -3
390
4AF
  0
ENDTAB
  0
TABLE
  2
STYLE
  5
4A3
330
0
100
AcDbSymbolTable
 70
     1
  0
STYLE
  5
4B1
330
4A3
100
AcDbSymbolTableRecord
100
AcDbTextStyleTableRecord
  2
STANDARD
 70
     0
 40
0.0
 41
1.0
 50
0.0
 71
     0
 42
0.2
  3
txt
  4

  0
ENDTAB
  0
TABLE
  2
VIEW
  5
4A6
330
0
100
AcDbSymbolTable
 70
     0
  0
ENDTAB
  0
TABLE
  2
UCS
  5
4A7
330
0
100
AcDbSymbolTable
 70
     0
  0
ENDTAB
  0
TABLE
  2
APPID
  5
4A9
330
0
100
AcDbSymbolTable
 70
     1
  0
APPID
  5
4B2
330
4A9
100
AcDbSymbolTableRecord
100
AcDbRegAppTableRecord
  2
ACAD
 70
     0
  0
ENDTAB
  0
TABLE
  2
DIMSTYLE
  5
4AA
330
0
100
AcDbSymbolTable
 70
     1
100
AcDbDimStyleTable
 71
     0
  0
DIMSTYLE
105
4CD
330
4AA
100
AcDbSymbolTableRecord
100
AcDbDimStyleTableRecord
  2
Standard
 70
     0
340
4B1
  0
ENDTAB
  0
TABLE
  2
BLOCK_RECORD
  5
4A1
330
0
100
AcDbSymbolTable
 70
     0
  0
BLOCK_RECORD
  5
4BE
330
4A1
100
AcDbSymbolTableRecord
100
AcDbBlockTableRecord
  2
*Model_Space
340
4C1
  0
BLOCK_RECORD
  5
4BA
330
4A1
100
AcDbSymbolTableRecord
100
AcDbBlockTableRecord
  2
*Paper_Space
340
4BD
  0
ENDTAB
  0
ENDSEC
  0
SECTION
  2
BLOCKS
  0
BLOCK
  5
4CB
330
4BE
100
AcDbEntity
  8
0
100
AcDbBlockBegin
  2
*Model_Space
 70
     0
 10
0.0
 20
0.0
 30
0.0
  3
*Model_Space
  1

  0
ENDBLK
  5
4CC
330
4BE
100
AcDbEntity
  8
0
100
AcDbBlockEnd
  0
BLOCK
  5
4C9
330
4BA
100
AcDbEntity
 67
     1
  8
0
100
AcDbBlockBegin
  2
*Paper_Space
 70
     0
 10
0.0
 20
0.0
 30
0.0
  3
*Paper_Space
  1

  0
ENDBLK
  5
4CA
330
4BA
100
AcDbEntity
 67
     1
  8
0
100
AcDbBlockEnd
  0
ENDSEC
  0
SECTION
  2
ENTITIES
  0
LINE
  5
3E4
330
4BE
100
AcDbEntity
  8
250
100
AcDbLine
 10
-11.38907446874529
 20
18.39288961183746
 30
0.0
 11
-10.0765744687453
 21
18.29288961183745
 31
0.0
  0
LINE
  5
3E5
330
4BE
100
AcDbEntity
  8
250
100
AcDbLine
 10
0.9886295312546948
 20
15.39640461183745
 30
0.0
 11
0.9886295312546948
 21
23.46140461183745
 31
0.0
  0
LINE
  5
3E6
330
4BE
100
AcDbEntity
  8
250
100
AcDbLine
 10
1.588629531254717
 20
15.39640461183745
 30
0.0
 11
1.588629531254717
 21
23.46140461183745
 31
0.0
  0
LINE
  5
3E7
330
4BE
100
AcDbEntity
  8
255
100
AcDbLine
 10
-10.71137046874529
 20
-11.28523438816254
 30
0.0
 11
-10.71137046874529
 21
30.40512216283507
 31
0.0
  0
LINE
  5
3E8
330
4BE
100
AcDbEntity
  8
250
100
AcDbLine
 10
-11.0113704687453
 20
17.56140461183746
 30
0.0
 11
-11.0113704687453
 21
23.46140461183745
 31
0.0
  0
LINE
  5
3E9
330
4BE
100
AcDbEntity
  8
250
100
AcDbLine
 10
-10.41137046874528
 20
17.56140461183746
 30
0.0
 11
-10.41137046874528
 21
23.46140461183745
 31
0.0
  0
LINE
  5
3EA
330
4BE
100
AcDbEntity
  8
250
100
AcDbLine
 10
-6.092604543979582
 20
-5.52192270672551
 30
0.0
 11
-6.092604543979582
 21
-6.02192270672551
 31
0.0
  0
LINE
  5
3EB
330
4BE
100
AcDbEntity
  8
250
100
AcDbLine
 10
-7.318764543979575
 20
-5.52192270672551
 30
0.0
 11
-7.318764543979575
 21
-6.02192270672551
 31
0.0
  0
LINE
  5
3EC
330
4BE
100
AcDbEntity
  8
255
100
AcDbLine
 10
-10.71137046874526
 20
-4.143642673380766
 30
0.0
 11
-10.71137046874526
 21
-10.43634803525832
 31
0.0
  0
LINE
  5
3ED
330
4BE
100
AcDbEntity
  8
255
100
AcDbLine
 10
-6.709367237234978
 20
-4.143642673380766
 30
0.0
 11
-6.709367237234978
 21
-10.43634803525832
 31
0.0
  0
LINE
  5
3EE
330
4BE
100
AcDbEntity
  8
250
100
AcDbLine
 10
-14.10397639351095
 20
-5.52192270672551
 30
0.0
 11
-14.10397639351095
 21
-6.02192270672551
 31
0.0
  0
LINE
  5
3EF
330
4BE
100
AcDbEntity
  8
250
100
AcDbLine
 10
-15.33013639351094
 20
-5.52192270672551
 30
0.0
 11
-15.33013639351094
 21
-6.02192270672551
 31
0.0
  0
LINE
  5
3F0
330
4BE
100
AcDbEntity
  8
255
100
AcDbLine
 10
-14.71734794022121
 20
-4.143642673380766
 30
0.0
 11
-14.71734794022121
 21
-10.43634803525832
 31
0.0
  0
LINE
  5
3F1
330
4BE
100
AcDbEntity
  8
250
100
AcDbLine
 10
-11.04887046874529
 20
11.34405361183745
 30
0.0
 11
-11.04887046874529
 21
-5.994683388162541
 31
0.0
  0
LINE
  5
3F2
330
4BE
100
AcDbEntity
  8
250
100
AcDbLine
 10
-10.37387046874528
 20
11.34405361183745
 30
0.0
 11
-10.37387046874528
 21
-5.994683388162541
 31
0.0
  0
LINE
  5
3F3
330
4BE
100
AcDbEntity
  8
250
100
AcDbLine
 10
-15.42215838335875
 20
-6.522056487735809
 30
0.0
 11
-5.959533167062836
 21
-6.521533310472682
 31
0.0
  0
LINE
  5
3F4
330
4BE
100
AcDbEntity
  8
250
100
AcDbLine
 10
-5.809533179062846
 20
-7.601533224072681
 30
0.0
 11
-15.57208570785002
 21
-7.601533224072681
 31
0.0
  0
LINE
  5
3F5
330
4BE
100
AcDbEntity
  8
255
100
AcDbLine
 10
-16.73743101356752
 20
-9.686348035258319
 30
0.0
 11
-4.685309923923007
 21
-9.686348035258319
 31
0.0
  0
LINE
  5
3F6
330
4BE
100
AcDbEntity
  8
255
100
AcDbLine
 10
-16.73743101356752
 20
-7.601533224072681
 30
0.0
 11
-4.685309923923007
 21
-7.601533224072681
 31
0.0
  0
LINE
  5
3F7
330
4BE
100
AcDbEntity
  8
250
100
AcDbLine
 10
-14.29670140040708
 20
-9.196327755404411
 30
0.0
 11
-14.29670140040708
 21
-8.208676032644106
 31
0.0
  0
LINE
  5
3F8
330
4BE
100
AcDbEntity
  8
250
100
AcDbLine
 10
-15.12170133440708
 20
-9.196327755404411
 30
0.0
 11
-15.12170133440708
 21
-8.208676032644106
 31
0.0
  0
LINE
  5
3F9
330
4BE
100
AcDbEntity
  8
250
100
AcDbLine
 10
-14.27684933715983
 20
-9.696348449132898
 30
0.0
 11
-14.27684933715983
 21
-9.196327755404411
 31
0.0
  0
LINE
  5
3FA
330
4BE
100
AcDbEntity
  8
250
100
AcDbLine
 10
-15.14188513731012
 20
-9.196327755404411
 30
0.0
 11
-15.14188513731012
 21
-9.696348449132898
 31
0.0
  0
LINE
  5
3FB
330
4BE
100
AcDbEntity
  8
250
100
AcDbLine
 10
-14.27684933715983
 20
-9.196327755404411
 30
0.0
 11
-15.14188513731012
 21
-9.196327755404411
 31
0.0
  0
LINE
  5
3FC
330
4BE
100
AcDbEntity
  8
250
100
AcDbLine
 10
-15.14188513731012
 20
-9.696348449132905
 30
0.0
 11
-14.27684933715983
 21
-9.696348449132898
 31
0.0
  0
LINE
  5
3FD
330
4BE
100
AcDbEntity
  8
250
100
AcDbLine
 10
-15.57208570785002
 20
-7.601533224072681
 30
0.0
 11
-15.42208571984998
 21
-6.521533310472675
 31
0.0
  0
LINE
  5
3FE
330
4BE
100
AcDbEntity
  8
250
100
AcDbLine
 10
-14.29670140040708
 20
-7.958676052644107
 30
0.0
 11
-14.29670140040708
 21
-7.601533224072674
 31
0.0
  0
LINE
  5
3FF
330
4BE
100
AcDbEntity
  8
250
100
AcDbLine
 10
-14.13920141300708
 20
-7.963676052244109
 30
0.0
 11
-14.13920141300708
 21
-8.203676033044104
 31
0.0
  0
ARC
  5
400
330
4BE
100
AcDbEntity
  8
250
100
AcDbCircle
 10
-14.14420141260712
 20
-7.963676052244109
 30
0.0
 40
0.0049999996000025
100
AcDbArc
 50
0.0
 51
90.0
  0
ARC
  5
401
330
4BE
100
AcDbEntity
  8
250
100
AcDbCircle
 10
-14.14420141260712
 20
-8.203676033044104
 30
0.0
 40
0.0049999996000025
100
AcDbArc
 50
270.0
 51
0.0
  0
LINE
  5
402
330
4BE
100
AcDbEntity
  8
250
100
AcDbLine
 10
-15.12170133440708
 20
-7.958676052644107
 30
0.0
 11
-15.12170133440708
 21
-7.601533224072674
 31
0.0
  0
ARC
  5
403
330
4BE
100
AcDbEntity
  8
250
100
AcDbCircle
 10
-15.27420132220709
 20
-7.963676052244102
 30
0.0
 40
0.0049999995999883
100
AcDbArc
 50
90.0
 51
180.0000000000814
  0
LINE
  5
404
330
4BE
100
AcDbEntity
  8
250
100
AcDbLine
 10
-15.27920132180708
 20
-8.203676033044104
 30
0.0
 11
-15.27920132180708
 21
-7.963676052244109
 31
0.0
  0
ARC
  5
405
330
4BE
100
AcDbEntity
  8
250
100
AcDbCircle
 10
-15.27420132220709
 20
-8.203676033044111
 30
0.0
 40
0.0049999995999954
100
AcDbArc
 50
179.9999999999185
 51
270.0
  0
LINE
  5
406
330
4BE
100
AcDbEntity
  8
250
100
AcDbLine
 10
-15.27420132220709
 20
-7.958676052644107
 30
0.0
 11
-14.14420141260712
 21
-7.958676052644107
 31
0.0
  0
LINE
  5
407
330
4BE
100
AcDbEntity
  8
250
100
AcDbLine
 10
-14.14420141260712
 20
-8.208676032644106
 30
0.0
 11
-15.27420132220709
 21
-8.208676032644106
 31
0.0
  0
LINE
  5
408
330
4BE
100
AcDbEntity
  8
250
100
AcDbLine
 10
-14.37065514760986
 20
-8.208676032644106
 30
0.0
 11
-15.04774758720436
 21
-8.208676032644106
 31
0.0
  0
LINE
  5
409
330
4BE
100
AcDbEntity
  8
250
100
AcDbLine
 10
-14.37065514760986
 20
-8.208676032644106
 30
0.0
 11
-15.04774758720436
 21
-8.208676032644106
 31
0.0
  0
LINE
  5
40A
330
4BE
100
AcDbEntity
  8
250
100
AcDbLine
 10
-13.8342014374071
 20
-7.840818919215535
 30
0.0
 11
-15.58420129740711
 21
-7.840818919215535
 31
0.0
  0
LINE
  5
40B
330
4BE
100
AcDbEntity
  8
250
100
AcDbLine
 10
-15.12170133440708
 20
-7.958676052644107
 30
0.0
 11
-14.29670140040708
 21
-7.958676052644107
 31
0.0
  0
LINE
  5
40C
330
4BE
100
AcDbEntity
  8
250
100
AcDbLine
 10
-15.12170133440708
 20
-7.958676052644107
 30
0.0
 11
-14.29670140040708
 21
-7.958676052644107
 31
0.0
  0
LINE
  5
40D
330
4BE
100
AcDbEntity
  8
250
100
AcDbLine
 10
-14.21705639351098
 20
-6.02192270672551
 30
0.0
 11
-14.21705639351098
 21
-6.52192270672551
 31
0.0
  0
LINE
  5
40E
330
4BE
100
AcDbEntity
  8
250
100
AcDbLine
 10
-15.21705639351098
 20
-6.02192270672551
 30
0.0
 11
-15.21705639351098
 21
-6.52192270672551
 31
0.0
  0
LINE
  5
40F
330
4BE
100
AcDbEntity
  8
250
100
AcDbLine
 10
-15.33013639351094
 20
-6.02192270672551
 30
0.0
 11
-14.10397639351095
 21
-6.02192270672551
 31
0.0
  0
LINE
  5
410
330
4BE
100
AcDbEntity
  8
250
100
AcDbLine
 10
-11.23936719483499
 20
-5.994683388162541
 30
0.0
 11
-10.17936727963496
 21
-5.994683388162541
 31
0.0
  0
LINE
  5
411
330
4BE
100
AcDbEntity
  8
250
100
AcDbLine
 10
-11.23936719483499
 20
-6.521592146928326
 30
0.0
 11
-11.23936719483499
 21
-5.994683388162541
 31
0.0
  0
LINE
  5
412
330
4BE
100
AcDbEntity
  8
250
100
AcDbLine
 10
-10.17936727963496
 20
-5.994683388162541
 30
0.0
 11
-10.17936727963496
 21
-6.521533310472675
 31
0.0
  0
LINE
  5
413
330
4BE
100
AcDbEntity
  8
250
100
AcDbLine
 10
-6.297033140062872
 20
-9.196327755404411
 30
0.0
 11
-6.297033140062872
 21
-8.208676032644106
 31
0.0
  0
LINE
  5
414
330
4BE
100
AcDbEntity
  8
250
100
AcDbLine
 10
-7.122033074062819
 20
-9.196327755404411
 30
0.0
 11
-7.122033074062819
 21
-8.208676032644106
 31
0.0
  0
LINE
  5
415
330
4BE
100
AcDbEntity
  8
250
100
AcDbLine
 10
-6.280855800180411
 20
-9.196327755404411
 30
0.0
 11
-6.280855800180411
 21
-9.696348449132898
 31
0.0
  0
LINE
  5
416
330
4BE
100
AcDbEntity
  8
250
100
AcDbLine
 10
-7.145891600330749
 20
-9.696348449132898
 30
0.0
 11
-7.145891600330749
 21
-9.196327755404411
 31
0.0
  0
LINE
  5
417
330
4BE
100
AcDbEntity
  8
250
100
AcDbLine
 10
-6.280855800180468
 20
-9.696348449132905
 30
0.0
 11
-7.145891600330749
 21
-9.696348449132898
 31
0.0
  0
LINE
  5
418
330
4BE
100
AcDbEntity
  8
250
100
AcDbLine
 10
-7.145891600330749
 20
-9.196327755404411
 30
0.0
 11
-6.280855800180411
 21
-9.196327755404411
 31
0.0
  0
LINE
  5
419
330
4BE
100
AcDbEntity
  8
250
100
AcDbLine
 10
-5.809533179062846
 20
-7.601533224072681
 30
0.0
 11
-5.959533167062836
 21
-6.521533310472682
 31
0.0
  0
LINE
  5
41A
330
4BE
100
AcDbEntity
  8
250
100
AcDbLine
 10
-6.297033140062872
 20
-7.958676052644107
 30
0.0
 11
-6.297033140062872
 21
-7.601533224072674
 31
0.0
  0
ARC
  5
41B
330
4BE
100
AcDbEntity
  8
250
100
AcDbCircle
 10
-6.144533152262859
 20
-7.963676052244102
 30
0.0
 40
0.0049999995999883
100
AcDbArc
 50
359.9999999999186
 51
90.0
  0
LINE
  5
41C
330
4BE
100
AcDbEntity
  8
250
100
AcDbLine
 10
-6.13953315266287
 20
-8.203676033044104
 30
0.0
 11
-6.13953315266287
 21
-7.963676052244109
 31
0.0
  0
ARC
  5
41D
330
4BE
100
AcDbEntity
  8
250
100
AcDbCircle
 10
-6.144533152262859
 20
-8.203676033044111
 30
0.0
 40
0.0049999995999954
100
AcDbArc
 50
270.0
 51
0.0000000000814222
  0
LINE
  5
41E
330
4BE
100
AcDbEntity
  8
250
100
AcDbLine
 10
-7.122033074062819
 20
-7.958676052644107
 30
0.0
 11
-7.122033074062819
 21
-7.601533224072674
 31
0.0
  0
LINE
  5
41F
330
4BE
100
AcDbEntity
  8
250
100
AcDbLine
 10
-7.279533061462821
 20
-7.963676052244109
 30
0.0
 11
-7.279533061462821
 21
-8.203676033044104
 31
0.0
  0
ARC
  5
420
330
4BE
100
AcDbEntity
  8
250
100
AcDbCircle
 10
-7.274533061862832
 20
-7.963676052244109
 30
0.0
 40
0.0049999996000025
100
AcDbArc
 50
90.0
 51
180.0
  0
ARC
  5
421
330
4BE
100
AcDbEntity
  8
250
100
AcDbCircle
 10
-7.274533061862832
 20
-8.203676033044104
 30
0.0
 40
0.0049999996000025
100
AcDbArc
 50
180.0
 51
270.0
  0
LINE
  5
422
330
4BE
100
AcDbEntity
  8
250
100
AcDbLine
 10
-7.584533037062847
 20
-7.840818919215535
 30
0.0
 11
-5.834533177062844
 21
-7.840818919215535
 31
0.0
  0
LINE
  5
423
330
4BE
100
AcDbEntity
  8
250
100
AcDbLine
 10
-6.144533152262859
 20
-7.958676052644107
 30
0.0
 11
-7.274533061862832
 21
-7.958676052644107
 31
0.0
  0
LINE
  5
424
330
4BE
100
AcDbEntity
  8
250
100
AcDbLine
 10
-7.274533061862832
 20
-8.208676032644106
 30
0.0
 11
-6.144533152262859
 21
-8.208676032644106
 31
0.0
  0
LINE
  5
425
330
4BE
100
AcDbEntity
  8
250
100
AcDbLine
 10
-7.048079326860097
 20
-8.208676032644106
 30
0.0
 11
-6.370986887265594
 21
-8.208676032644106
 31
0.0
  0
LINE
  5
426
330
4BE
100
AcDbEntity
  8
250
100
AcDbLine
 10
-7.048079326860097
 20
-8.208676032644106
 30
0.0
 11
-6.370986887265594
 21
-8.208676032644106
 31
0.0
  0
LINE
  5
427
330
4BE
100
AcDbEntity
  8
250
100
AcDbLine
 10
-6.297033140062872
 20
-7.958676052644107
 30
0.0
 11
-7.122033074062819
 21
-7.958676052644107
 31
0.0
  0
LINE
  5
428
330
4BE
100
AcDbEntity
  8
250
100
AcDbLine
 10
-6.297033140062872
 20
-7.958676052644107
 30
0.0
 11
-7.122033074062819
 21
-7.958676052644107
 31
0.0
  0
LINE
  5
429
330
4BE
100
AcDbEntity
  8
250
100
AcDbLine
 10
-6.20568454397955
 20
-6.02192270672551
 30
0.0
 11
-6.20568454397955
 21
-6.52192270672551
 31
0.0
  0
LINE
  5
42A
330
4BE
100
AcDbEntity
  8
250
100
AcDbLine
 10
-7.20568454397955
 20
-6.02192270672551
 30
0.0
 11
-7.20568454397955
 21
-6.52192270672551
 31
0.0
  0
LINE
  5
42B
330
4BE
100
AcDbEntity
  8
250
100
AcDbLine
 10
-6.092604543979582
 20
-6.02192270672551
 30
0.0
 11
-7.318764543979575
 21
-6.02192270672551
 31
0.0
  0
ARC
  5
42C
330
4BE
100
AcDbEntity
  8
250
100
AcDbCircle
 10
1.781841531254706
 20
6.445224611837457
 30
0.0
 40
0.395285
100
AcDbArc
 50
90.0
 51
355.0006659999999
  0
CIRCLE
  5
42D
330
4BE
100
AcDbEntity
  8
250
100
AcDbCircle
 10
1.781841531254706
 20
6.445224611837457
 30
0.0
 40
0.176777
  0
ARC
  5
42E
330
4BE
100
AcDbEntity
  8
250
100
AcDbCircle
 10
-0.8512594687453045
 20
5.965519611837458
 30
0.0
 40
1.645884999999999
100
AcDbArc
 50
355.1078100000001
 51
43.28122099999951
  0
LINE
  5
42F
330
4BE
100
AcDbEntity
  8
250
100
AcDbLine
 10
-14.96705639351097
 20
-5.20942270672551
 30
0.0
 11
-16.46705639351098
 21
-5.20942270672551
 31
0.0
  0
LINE
  5
430
330
4BE
100
AcDbEntity
  8
250
100
AcDbLine
 10
-15.09205639351097
 20
-4.64692270672551
 30
0.0
 11
-16.71705639351098
 21
-4.52192270672551
 31
0.0
  0
LINE
  5
431
330
4BE
100
AcDbEntity
  8
250
100
AcDbLine
 10
-16.71705639351098
 20
-4.52192270672551
 30
0.0
 11
-16.46705639351098
 21
-5.20942270672551
 31
0.0
  0
LINE
  5
432
330
4BE
100
AcDbEntity
  8
250
100
AcDbLine
 10
-14.52955639351098
 20
-5.33442270672551
 30
0.0
 11
-14.52955639351098
 21
-5.20942270672551
 31
0.0
  0
LINE
  5
433
330
4BE
100
AcDbEntity
  8
250
100
AcDbLine
 10
-14.16647639351095
 20
-5.52192270672551
 30
0.0
 11
-14.29108839351096
 21
-5.33442270672551
 31
0.0
  0
LINE
  5
434
330
4BE
100
AcDbEntity
  8
250
100
AcDbLine
 10
-14.46705639351097
 20
-5.20942270672551
 30
0.0
 11
-14.34205639351097
 21
-4.58442270672551
 31
0.0
  0
LINE
  5
435
330
4BE
100
AcDbEntity
  8
250
100
AcDbLine
 10
-15.09205639351097
 20
-4.58442270672551
 30
0.0
 11
-14.96705639351097
 21
-5.20942270672551
 31
0.0
  0
LINE
  5
436
330
4BE
100
AcDbEntity
  8
250
100
AcDbLine
 10
-15.26763639351094
 20
-5.52192270672551
 30
0.0
 11
-15.14302439351099
 21
-5.33442270672551
 31
0.0
  0
LINE
  5
437
330
4BE
100
AcDbEntity
  8
250
100
AcDbLine
 10
-14.90455639351098
 20
-5.33442270672551
 30
0.0
 11
-14.90455639351098
 21
-5.20942270672551
 31
0.0
  0
LINE
  5
438
330
4BE
100
AcDbEntity
  8
250
100
AcDbLine
 10
-14.34205639351097
 20
-4.58442270672551
 30
0.0
 11
-15.09205639351097
 21
-4.58442270672551
 31
0.0
  0
LINE
  5
439
330
4BE
100
AcDbEntity
  8
250
100
AcDbLine
 10
-15.33013639351094
 20
-5.52192270672551
 30
0.0
 11
-14.10397639351095
 21
-5.52192270672551
 31
0.0
  0
LINE
  5
43A
330
4BE
100
AcDbEntity
  8
250
100
AcDbLine
 10
-15.14302439351099
 20
-5.33442270672551
 30
0.0
 11
-14.29108839351096
 21
-5.33442270672551
 31
0.0
  0
LINE
  5
43B
330
4BE
100
AcDbEntity
  8
250
100
AcDbLine
 10
-14.96705639351097
 20
-5.20942270672551
 30
0.0
 11
-14.46705639351097
 21
-5.20942270672551
 31
0.0
  0
LINE
  5
43C
330
4BE
100
AcDbEntity
  8
250
100
AcDbLine
 10
-6.45568454397955
 20
-5.20942270672551
 30
0.0
 11
-4.95568454397955
 21
-5.20942270672551
 31
0.0
  0
LINE
  5
43D
330
4BE
100
AcDbEntity
  8
250
100
AcDbLine
 10
-6.33068454397955
 20
-4.64692270672551
 30
0.0
 11
-4.70568454397955
 21
-4.52192270672551
 31
0.0
  0
LINE
  5
43E
330
4BE
100
AcDbEntity
  8
250
100
AcDbLine
 10
-6.33068454397955
 20
-4.58442270672551
 30
0.0
 11
-6.45568454397955
 21
-5.20942270672551
 31
0.0
  0
LINE
  5
43F
330
4BE
100
AcDbEntity
  8
250
100
AcDbLine
 10
-6.51818454397955
 20
-5.33442270672551
 30
0.0
 11
-6.51818454397955
 21
-5.20942270672551
 31
0.0
  0
LINE
  5
440
330
4BE
100
AcDbEntity
  8
250
100
AcDbLine
 10
-6.155104543979582
 20
-5.52192270672551
 30
0.0
 11
-6.279716543979539
 21
-5.33442270672551
 31
0.0
  0
LINE
  5
441
330
4BE
100
AcDbEntity
  8
250
100
AcDbLine
 10
-6.95568454397955
 20
-5.20942270672551
 30
0.0
 11
-7.08068454397955
 21
-4.58442270672551
 31
0.0
  0
LINE
  5
442
330
4BE
100
AcDbEntity
  8
250
100
AcDbLine
 10
-7.256264543979575
 20
-5.52192270672551
 30
0.0
 11
-7.131652543979562
 21
-5.33442270672551
 31
0.0
  0
LINE
  5
443
330
4BE
100
AcDbEntity
  8
250
100
AcDbLine
 10
-6.89318454397955
 20
-5.33442270672551
 30
0.0
 11
-6.89318454397955
 21
-5.20942270672551
 31
0.0
  0
LINE
  5
444
330
4BE
100
AcDbEntity
  8
250
100
AcDbLine
 10
-6.45568454397955
 20
-5.20942270672551
 30
0.0
 11
-6.95568454397955
 21
-5.20942270672551
 31
0.0
  0
LINE
  5
445
330
4BE
100
AcDbEntity
  8
250
100
AcDbLine
 10
-6.279716543979539
 20
-5.33442270672551
 30
0.0
 11
-7.131652543979562
 21
-5.33442270672551
 31
0.0
  0
LINE
  5
446
330
4BE
100
AcDbEntity
  8
250
100
AcDbLine
 10
-6.092604543979582
 20
-5.52192270672551
 30
0.0
 11
-7.318764543979575
 21
-5.52192270672551
 31
0.0
  0
LINE
  5
447
330
4BE
100
AcDbEntity
  8
250
100
AcDbLine
 10
-7.08068454397955
 20
-4.58442270672551
 30
0.0
 11
-6.33068454397955
 21
-4.58442270672551
 31
0.0
  0
LINE
  5
448
330
4BE
100
AcDbEntity
  8
250
100
AcDbLine
 10
-4.70568454397955
 20
-4.52192270672551
 30
0.0
 11
-4.95568454397955
 21
-5.20942270672551
 31
0.0
  0
LINE
  5
449
330
4BE
100
AcDbEntity
  8
250
100
AcDbLine
 10
2.531841531254706
 20
4.122031611837457
 30
0.0
 11
2.531841531254706
 21
4.903281611837457
 31
0.0
  0
LINE
  5
44A
330
4BE
100
AcDbEntity
  8
250
100
AcDbLine
 10
0.031841531254706
 20
4.122031611837457
 30
0.0
 11
0.031841531254706
 21
4.903281611837457
 31
0.0
  0
LINE
  5
44B
330
4BE
100
AcDbEntity
  8
250
100
AcDbLine
 10
2.531841531254706
 20
4.122031611837457
 30
0.0
 11
0.031841531254706
 21
4.122031611837457
 31
0.0
  0
LINE
  5
44C
330
4BE
100
AcDbEntity
  8
250
100
AcDbLine
 10
2.531841531254706
 20
4.903281611837457
 30
0.0
 11
0.031841531254706
 21
4.903281611837457
 31
0.0
  0
LINE
  5
44D
330
4BE
100
AcDbEntity
  8
250
100
AcDbLine
 10
0.7886295312547063
 20
5.825156611837457
 30
0.0
 11
1.788629531254706
 21
5.825156611837457
 31
0.0
  0
LINE
  5
44E
330
4BE
100
AcDbEntity
  8
250
100
AcDbLine
 10
1.788629531254706
 20
5.56857561183746
 30
0.0
 11
1.788629531254706
 21
6.04999861183746
 31
0.0
  0
LINE
  5
44F
330
4BE
100
AcDbEntity
  8
250
100
AcDbLine
 10
0.7886295312547063
 20
5.56857561183746
 30
0.0
 11
0.7886295312547063
 21
5.825156611837457
 31
0.0
  0
ARC
  5
450
330
4BE
100
AcDbEntity
  8
250
100
AcDbCircle
 10
1.480018531254692
 20
4.737442611837459
 30
0.0
 40
0.88658
100
AcDbArc
 50
10.78163300000002
 51
69.62937599999952
  0
ARC
  5
451
330
4BE
100
AcDbEntity
  8
250
100
AcDbCircle
 10
1.097240531254719
 20
4.737442611837459
 30
0.0
 40
0.88658
100
AcDbArc
 50
110.3706240000004
 51
169.2183669999999
  0
LINE
  5
452
330
4BE
100
AcDbEntity
  8
250
100
AcDbLine
 10
-11.04887046874529
 20
13.50640461183745
 30
0.0
 11
-11.04887046874529
 21
11.84405361183745
 31
0.0
  0
LINE
  5
453
330
4BE
100
AcDbEntity
  8
250
100
AcDbLine
 10
-10.37387046874528
 20
13.50640461183745
 30
0.0
 11
-10.37387046874528
 21
11.84405361183745
 31
0.0
  0
ARC
  5
454
330
4BE
100
AcDbEntity
  8
250
100
AcDbCircle
 10
-10.71137046874529
 20
11.59405361183745
 30
0.0
 40
1.3125
100
AcDbArc
 50
284.9005970000001
 51
75.09940299999986
  0
LINE
  5
455
330
4BE
100
AcDbEntity
  8
250
100
AcDbLine
 10
0.8823795312547062
 20
14.06873961183745
 30
0.0
 11
0.8823795312547062
 21
8.181404611837457
 31
0.0
  0
LINE
  5
456
330
4BE
100
AcDbEntity
  8
250
100
AcDbLine
 10
1.694879531254706
 20
14.06873961183745
 30
0.0
 11
1.694879531254706
 21
8.181404611837457
 31
0.0
  0
ARC
  5
457
330
4BE
100
AcDbEntity
  8
250
100
AcDbCircle
 10
-10.71137046874529
 20
11.59405361183745
 30
0.0
 40
1.3125
100
AcDbArc
 50
104.9005970000001
 51
255.0994029999998
  0
LINE
  5
458
330
4BE
100
AcDbEntity
  8
250
100
AcDbLine
 10
-11.33633746874529
 20
11.34405361183745
 30
0.0
 11
-10.08633746874529
 21
11.34405361183745
 31
0.0
  0
LINE
  5
459
330
4BE
100
AcDbEntity
  8
250
100
AcDbLine
 10
-10.08633746874529
 20
11.84405361183745
 30
0.0
 11
-11.33633746874529
 21
11.84405361183745
 31
0.0
  0
LINE
  5
45A
330
4BE
100
AcDbEntity
  8
250
100
AcDbLine
 10
-11.33633746874529
 20
11.84405361183745
 30
0.0
 11
-11.33633746874529
 21
11.34405361183745
 31
0.0
  0
LINE
  5
45B
330
4BE
100
AcDbEntity
  8
250
100
AcDbLine
 10
-10.08633746874529
 20
11.84405361183745
 30
0.0
 11
-10.08633746874529
 21
11.34405361183745
 31
0.0
  0
LINE
  5
45C
330
4BE
100
AcDbEntity
  8
250
100
AcDbLine
 10
2.031841531254706
 20
6.945224611837457
 30
0.0
 11
2.281841531254706
 21
10.94522461183745
 31
0.0
  0
LINE
  5
45D
330
4BE
100
AcDbEntity
  8
250
100
AcDbLine
 10
2.570231531254698
 20
10.92178661183745
 30
0.0
 11
2.175622531254695
 21
6.410777611837457
 31
0.0
  0
LINE
  5
45E
330
4BE
100
AcDbEntity
  8
250
100
AcDbLine
 10
1.854599531254699
 20
6.870984611837458
 30
0.0
 11
1.854599531254699
 21
7.90640461183746
 31
0.0
  0
LINE
  5
45F
330
4BE
100
AcDbEntity
  8
250
100
AcDbLine
 10
0.3469405312547096
 20
7.09390461183746
 30
0.0
 11
0.3469405312547096
 21
7.90640461183746
 31
0.0
  0
LINE
  5
460
330
4BE
100
AcDbEntity
  8
250
100
AcDbLine
 10
1.854599531254699
 20
7.723352611837456
 30
0.0
 11
1.965349531254695
 21
7.723352611837456
 31
0.0
  0
LINE
  5
461
330
4BE
100
AcDbEntity
  8
250
100
AcDbLine
 10
1.854599531254699
 20
7.093352611837457
 30
0.0
 11
1.965349531254695
 21
7.093352611837457
 31
0.0
  0
LINE
  5
462
330
4BE
100
AcDbEntity
  8
250
100
AcDbLine
 10
1.781841531254706
 20
6.840509611837455
 30
0.0
 11
2.031841531254706
 21
6.945224611837457
 31
0.0
  0
LINE
  5
463
330
4BE
100
AcDbEntity
  8
250
100
AcDbLine
 10
1.965349531254695
 20
7.723352611837456
 30
0.0
 11
1.965349531254695
 21
7.093352611837457
 31
0.0
  0
LINE
  5
464
330
4BE
100
AcDbEntity
  8
250
100
AcDbLine
 10
1.854599531254699
 20
7.90640461183746
 30
0.0
 11
0.3469405312547096
 21
7.90640461183746
 31
0.0
  0
LINE
  5
465
330
4BE
100
AcDbEntity
  8
250
100
AcDbLine
 10
1.63345453125472
 20
7.90640461183746
 30
0.0
 11
1.624893531254706
 21
8.181404611837457
 31
0.0
  0
LINE
  5
466
330
4BE
100
AcDbEntity
  8
250
100
AcDbLine
 10
0.9438045312546918
 20
7.90640461183746
 30
0.0
 11
0.9523655312547063
 21
8.181404611837457
 31
0.0
  0
LINE
  5
467
330
4BE
100
AcDbEntity
  8
250
100
AcDbLine
 10
1.694879531254706
 20
8.181404611837457
 30
0.0
 11
0.8823795312547062
 21
8.181404611837457
 31
0.0
  0
LINE
  5
468
330
4BE
100
AcDbEntity
  8
250
100
AcDbLine
 10
2.281841531254706
 20
10.94522461183745
 30
0.0
 11
2.406841531254706
 21
11.82022461183745
 31
0.0
  0
LINE
  5
469
330
4BE
100
AcDbEntity
  8
250
100
AcDbLine
 10
2.406841531254706
 20
11.82022461183745
 30
0.0
 11
2.614671531254707
 21
11.76572461183745
 31
0.0
  0
LINE
  5
46A
330
4BE
100
AcDbEntity
  8
250
100
AcDbLine
 10
2.614671531254707
 20
11.76572461183745
 30
0.0
 11
2.570231531254698
 21
10.92178661183745
 31
0.0
  0
LINE
  5
46B
330
4BE
100
AcDbEntity
  8
250
100
AcDbLine
 10
-10.18137046874529
 20
13.50640461183745
 30
0.0
 11
-5.841370468745289
 21
13.50640461183745
 31
0.0
  0
LINE
  5
46C
330
4BE
100
AcDbEntity
  8
250
100
AcDbLine
 10
-10.18137046874529
 20
13.88140461183745
 30
0.0
 11
-5.841370468745289
 21
13.88140461183745
 31
0.0
  0
LINE
  5
46D
330
4BE
100
AcDbEntity
  8
250
100
AcDbLine
 10
-11.24137046874529
 20
13.88140461183745
 30
0.0
 11
-11.24137046874529
 21
16.38140461183745
 31
0.0
  0
LINE
  5
46E
330
4BE
100
AcDbEntity
  8
250
100
AcDbLine
 10
-10.18137046874529
 20
13.88140461183745
 30
0.0
 11
-10.18137046874529
 21
16.38140461183745
 31
0.0
  0
LINE
  5
46F
330
4BE
100
AcDbEntity
  8
250
100
AcDbLine
 10
-11.38878446874529
 20
15.39286761183745
 30
0.0
 11
-10.07628446874529
 21
15.29286761183746
 31
0.0
  0
ARC
  5
470
330
4BE
100
AcDbEntity
  8
250
100
AcDbCircle
 10
-11.43289946874529
 20
13.69390461183745
 30
0.0
 40
0.1875
100
AcDbArc
 50
90.0
 51
270.0
  0
ARC
  5
471
330
4BE
100
AcDbEntity
  8
250
100
AcDbCircle
 10
-9.999366468745286
 20
13.69390461183745
 30
0.0
 40
0.1875
100
AcDbArc
 50
270.0
 51
90.0
  0
LINE
  5
472
330
4BE
100
AcDbEntity
  8
250
100
AcDbLine
 10
-9.954845468745283
 20
13.50640461183745
 30
0.0
 11
-11.43289946874529
 21
13.50640461183745
 31
0.0
  0
LINE
  5
473
330
4BE
100
AcDbEntity
  8
250
100
AcDbLine
 10
-10.07628446874529
 20
14.23185361183745
 30
0.0
 11
-11.38878446874529
 21
14.23185361183745
 31
0.0
  0
LINE
  5
474
330
4BE
100
AcDbEntity
  8
250
100
AcDbLine
 10
-11.43289946874529
 20
13.88140461183745
 30
0.0
 11
-10.18137046874529
 21
13.88140461183745
 31
0.0
  0
LINE
  5
475
330
4BE
100
AcDbEntity
  8
250
100
AcDbLine
 10
-11.38878446874529
 20
14.64286761183745
 30
0.0
 11
-10.07628446874529
 21
14.54286761183746
 31
0.0
  0
LINE
  5
476
330
4BE
100
AcDbEntity
  8
250
100
AcDbLine
 10
-11.38878446874529
 20
16.89286761183746
 30
0.0
 11
-10.07628446874529
 21
16.79286761183745
 31
0.0
  0
LINE
  5
477
330
4BE
100
AcDbEntity
  8
250
100
AcDbLine
 10
-11.06137046874528
 20
16.68640461183746
 30
0.0
 11
-11.06137046874528
 21
16.91140461183745
 31
0.0
  0
LINE
  5
478
330
4BE
100
AcDbEntity
  8
250
100
AcDbLine
 10
-10.36137046874529
 20
16.68640461183746
 30
0.0
 11
-10.36137046874529
 21
16.91140461183745
 31
0.0
  0
LINE
  5
479
330
4BE
100
AcDbEntity
  8
250
100
AcDbLine
 10
-10.18137046874529
 20
16.38140461183745
 30
0.0
 11
-11.24137046874529
 21
16.38140461183745
 31
0.0
  0
LINE
  5
47A
330
4BE
100
AcDbEntity
  8
250
100
AcDbLine
 10
-11.38878446874529
 20
16.14286761183746
 30
0.0
 11
-10.07628446874529
 21
16.04286761183745
 31
0.0
  0
LINE
  5
47B
330
4BE
100
AcDbEntity
  8
250
100
AcDbLine
 10
-11.14437046874528
 20
16.68640461183746
 30
0.0
 11
-10.2783704687453
 21
16.68640461183746
 31
0.0
  0
LINE
  5
47C
330
4BE
100
AcDbEntity
  8
250
100
AcDbLine
 10
-11.04887046874529
 20
16.68640461183746
 30
0.0
 11
-11.04887046874529
 21
16.38140461183745
 31
0.0
  0
LINE
  5
47D
330
4BE
100
AcDbEntity
  8
250
100
AcDbLine
 10
-10.37387046874528
 20
16.68640461183746
 30
0.0
 11
-10.37387046874528
 21
16.38140461183745
 31
0.0
  0
LINE
  5
47E
330
4BE
100
AcDbEntity
  8
250
100
AcDbLine
 10
-11.38907446874529
 20
17.64288961183746
 30
0.0
 11
-10.0765744687453
 21
17.54288961183745
 31
0.0
  0
LINE
  5
47F
330
4BE
100
AcDbEntity
  8
250
100
AcDbLine
 10
-11.0113704687453
 20
17.81140461183746
 30
0.0
 11
-10.41137046874528
 21
17.81140461183746
 31
0.0
  0
LINE
  5
480
330
4BE
100
AcDbEntity
  8
250
100
AcDbLine
 10
-10.39637046874529
 20
17.56140461183746
 30
0.0
 11
-11.02637046874529
 21
17.56140461183746
 31
0.0
  0
LINE
  5
481
330
4BE
100
AcDbEntity
  8
250
100
AcDbLine
 10
-11.06137046874528
 20
16.91140461183745
 30
0.0
 11
-10.36137046874529
 21
16.91140461183745
 31
0.0
  0
LINE
  5
482
330
4BE
100
AcDbEntity
  8
250
100
AcDbLine
 10
-11.02637046874529
 20
16.91140461183745
 30
0.0
 11
-11.02637046874529
 21
17.56140461183746
 31
0.0
  0
LINE
  5
483
330
4BE
100
AcDbEntity
  8
250
100
AcDbLine
 10
-10.39637046874529
 20
16.91140461183745
 30
0.0
 11
-10.39637046874529
 21
17.56140461183746
 31
0.0
  0
LINE
  5
484
330
4BE
100
AcDbEntity
  8
250
100
AcDbLine
 10
1.626129531254711
 20
15.39640461183745
 30
0.0
 11
1.626129531254711
 21
14.06873961183745
 31
0.0
  0
LINE
  5
485
330
4BE
100
AcDbEntity
  8
250
100
AcDbLine
 10
0.9511295312547005
 20
15.39640461183745
 30
0.0
 11
0.9511295312547005
 21
14.06873961183745
 31
0.0
  0
ARC
  5
486
330
4BE
100
AcDbEntity
  8
250
100
AcDbCircle
 10
-5.841370468745289
 20
13.69390461183745
 30
0.0
 40
0.1875
100
AcDbArc
 50
270.0
 51
90.0
  0
ARC
  5
487
330
4BE
100
AcDbEntity
  8
250
100
AcDbCircle
 10
-6.604547468745302
 20
13.69390461183745
 30
0.0
 40
0.1875
100
AcDbArc
 50
90.0
 51
270.0
  0
LINE
  5
488
330
4BE
100
AcDbEntity
  8
250
100
AcDbLine
 10
1.694879531254706
 20
14.06873961183745
 30
0.0
 11
0.8823795312547062
 21
14.06873961183745
 31
0.0
  0
LINE
  5
489
330
4BE
100
AcDbEntity
  8
250
100
AcDbLine
 10
0.9511295312547005
 20
15.39640461183745
 30
0.0
 11
1.626129531254711
 21
15.39640461183745
 31
0.0
  0
LINE
  5
48A
330
4BE
100
AcDbEntity
  8
250
100
AcDbLine
 10
-11.32590146874529
 20
24.38934761183745
 30
0.0
 11
-10.0328504687453
 21
24.14302261183745
 31
0.0
  0
ARC
  5
48B
330
4BE
100
AcDbEntity
  8
250
100
AcDbCircle
 10
-4.711370468745293
 20
23.46140461183745
 30
0.0
 40
6.299999999999999
100
AcDbArc
 50
0.0
 51
180.0
  0
ARC
  5
48C
330
4BE
100
AcDbEntity
  8
250
100
AcDbCircle
 10
-4.711370468745293
 20
23.46140461183745
 30
0.0
 40
5.7
100
AcDbArc
 50
0.0
 51
180.0
  0
LINE
  5
48D
330
4BE
100
AcDbEntity
  8
250
100
AcDbLine
 10
-11.38965546874528
 20
21.39293361183745
 30
0.0
 11
-10.07715546874528
 21
21.29293361183745
 31
0.0
  0
LINE
  5
48E
330
4BE
100
AcDbEntity
  8
250
100
AcDbLine
 10
-11.3893644687453
 20
19.89291161183746
 30
0.0
 11
-10.0768644687453
 21
19.79291161183745
 31
0.0
  0
LINE
  5
48F
330
4BE
100
AcDbEntity
  8
250
100
AcDbLine
 10
-11.3893644687453
 20
19.14291161183746
 30
0.0
 11
-10.0768644687453
 21
19.04291161183745
 31
0.0
  0
LINE
  5
490
330
4BE
100
AcDbEntity
  8
250
100
AcDbLine
 10
-11.38965546874528
 20
20.64293361183745
 30
0.0
 11
-10.07715546874528
 21
20.54293361183745
 31
0.0
  0
LINE
  5
491
330
4BE
100
AcDbEntity
  8
250
100
AcDbLine
 10
-11.39026346874528
 20
22.89298061183746
 30
0.0
 11
-10.07776346874528
 21
22.79298061183746
 31
0.0
  0
LINE
  5
492
330
4BE
100
AcDbEntity
  8
250
100
AcDbLine
 10
-11.38965546874528
 20
22.14293361183745
 30
0.0
 11
-10.07715546874528
 21
22.04293361183745
 31
0.0
  0
LINE
  5
493
330
4BE
100
AcDbEntity
  8
250
100
AcDbLine
 10
-11.38820746874529
 20
23.64292061183745
 30
0.0
 11
-10.0757074687453
 21
23.54292061183746
 31
0.0
  0
LINE
  5
494
330
4BE
100
AcDbEntity
  8
250
100
AcDbLine
 10
-8.109967468745288
 20
29.21141561183746
 30
0.0
 11
-7.496348468745289
 21
28.04688761183746
 31
0.0
  0
LINE
  5
495
330
4BE
100
AcDbEntity
  8
250
100
AcDbLine
 10
-9.304255468745289
 20
28.31099261183745
 30
0.0
 11
-8.446888468745306
 21
27.31220361183745
 31
0.0
  0
LINE
  5
496
330
4BE
100
AcDbEntity
  8
250
100
AcDbLine
 10
-9.818358468745294
 20
27.76625861183745
 30
0.0
 11
-8.854553468745287
 21
26.86974561183745
 31
0.0
  0
LINE
  5
497
330
4BE
100
AcDbEntity
  8
250
100
AcDbLine
 10
-10.95357446874528
 20
25.83795361183745
 30
0.0
 11
-9.747755468745289
 21
25.31007461183746
 31
0.0
  0
LINE
  5
498
330
4BE
100
AcDbEntity
  8
250
100
AcDbLine
 10
-11.18041346874529
 20
25.12410561183745
 30
0.0
 11
-9.923073468745293
 21
24.73455361183745
 31
0.0
  0
LINE
  5
499
330
4BE
100
AcDbEntity
  8
250
100
AcDbLine
 10
-10.6482354687453
 20
26.52191561183745
 30
0.0
 11
-9.50910246874529
 21
25.86234661183746
 31
0.0
  0
LINE
  5
49A
330
4BE
100
AcDbEntity
  8
250
100
AcDbLine
 10
-10.2682374687453
 20
27.16738961183745
 30
0.0
 11
-9.210115468745279
 21
26.38442561183746
 31
0.0
  0
LINE
  5
49B
330
4BE
100
AcDbEntity
  8
250
100
AcDbLine
 10
-8.732395468745302
 20
28.79473861183745
 30
0.0
 11
-7.992248468745295
 21
27.70623661183746
 31
0.0
  0
LINE
  5
49C
330
4BE
100
AcDbEntity
  8
250
100
AcDbLine
 10
-6.745260468745279
 20
29.82351061183745
 30
0.0
 11
-6.406157468745284
 21
28.55163561183745
 31
0.0
  0
LINE
  5
49D
330
4BE
100
AcDbEntity
  8
250
100
AcDbLine
 10
-7.444801468745289
 20
29.55578361183745
 30
0.0
 11
-6.965425468745287
 21
28.32987361183745
 31
0.0
  0
LINE
  5
49E
330
4BE
100
AcDbEntity
  8
250
100
AcDbLine
 10
-6.0201414687453
 20
30.01122961183745
 30
0.0
 11
-5.825575468745292
 21
28.70938561183745
 31
0.0
  0
LINE
  5
49F
330
4BE
100
AcDbEntity
  8
250
100
AcDbLine
 10
-5.278564468745294
 20
30.11658161183746
 30
0.0
 11
-5.230982468745288
 21
28.80113861183745
 31
0.0
  0
LINE
  5
4A0
330
4BE
100
AcDbEntity
  8
250
100
AcDbLine
 10
-4.529854468745305
 20
30.13824161183745
 30
0.0
 11
-4.6298544687453
 21
28.82574161183745
 31
0.0
  0
VIEWPORT
  5
3E3
330
4BA
100
AcDbEntity
 67
     1
  8
0
100
AcDbViewport
 10
6.530232558139535
 20
4.5
 30
0.0
 40
13.06046511627907
 41
9.0
 68
     1
 69
     1
 12
6.530232558139535
 22
4.5
 13
0.0
 23
0.0
 14
0.5
 24
0.5
 15
0.5
 25
0.5
 16
0.0
 26
0.0
 36
1.0
 17
0.0
 27
0.0
 37
0.0
 42
50.0
 43
0.0
 44
0.0
 45
9.0
 50
0.0
 51
0.0
 72
   100
 90
    32800
  1

281
     0
 71
     0
 74
     0
110
0.0
120
0.0
130
0.0
111
0.0
121
0.0
131
0.0
112
0.0
122
0.0
132
0.0
 79
     0
146
0.0
  0
ENDSEC
  0
SECTION
  2
OBJECTS
  0
DICTIONARY
  5
4AC
330
0
100
AcDbDictionary
281
     1
  3
ACAD_GROUP
350
4AD
  3
ACAD_LAYOUT
350
4B9
  3
ACAD_MLINESTYLE
350
4B6
  3
ACAD_PLOTSETTINGS
350
4B8
  3
ACAD_PLOTSTYLENAME
350
4AE
  3
ACDBHEADERROUNDTRIPXREC
350
4D4
  3
AcDbVariableDictionary
350
4D0
  0
DICTIONARY
  5
4AD
102
{ACAD_REACTORS
330
4AC
102
}
330
4AC
100
AcDbDictionary
281
     1
  0
DICTIONARY
  5
4B9
102
{ACAD_REACTORS
330
4AC
102
}
330
4AC
100
AcDbDictionary
281
     1
  3
Layout1
350
4BD
  3
Model
350
4C1
  0
DICTIONARY
  5
4B6
102
{ACAD_REACTORS
330
4AC
102
}
330
4AC
100
AcDbDictionary
281
     1
  3
Standard
350
4B7
  0
DICTIONARY
  5
4B8
102
{ACAD_REACTORS
330
4AC
102
}
330
4AC
100
AcDbDictionary
281
     1
  0
ACDBDICTIONARYWDFLT
  5
4AE
102
{ACAD_REACTORS
330
4AC
102
}
330
4AC
100
AcDbDictionary
281
     1
  3
Normal
350
4AF
100
AcDbDictionaryWithDefault
340
4AF
  0
DICTIONARY
  5
4D4
102
{ACAD_REACTORS
330
4AC
102
}
330
4AC
100
AcDbDictionary
281
     1
  3
CEPSNTYPE
350
4DE
  3
DIMSTYLEDATA
350
4E2
  3
FINGERPRINTGUID
350
4DF
  3
HYPERLINKBASE
350
4D7
  3
INSUNITS
350
4DD
  3
LAYOUTDICT
350
4D9
  3
LWETCUNION
350
4DC
  3
PLOTSETDICT
350
4DA
  3
PLOTSTYLNAMDICT
350
4DB
  3
PSVPSCALE
350
4E1
  3
PUCSBASE
350
4E5
  3
PUCSORGBACK
350
4EB
  3
PUCSORGBOTTOM
350
4E7
  3
PUCSORGFRONT
350
4EA
  3
PUCSORGLEFT
350
4E8
  3
PUCSORGRIGHT
350
4E9
  3
PUCSORGTOP
350
4E6
  3
PUCSORTHOREF
350
4E3
  3
PUCSORTHOVIEW
350
4E4
  3
STYLESHEET
350
4D8
  3
TSTACKALIGN
350
4D5
  3
TSTACKSIZE
350
4D6
  3
UCSBASE
350
4EE
  3
UCSORGBACK
350
4F4
  3
UCSORGBOTTOM
350
4F0
  3
UCSORGFRONT
350
4F3
  3
UCSORGLEFT
350
4F1
  3
UCSORGRIGHT
350
4F2
  3
UCSORGTOP
350
4EF
  3
UCSORTHOREF
350
4EC
  3
UCSORTHOVIEW
350
4ED
  3
VERSIONGUID
350
4E0
  0
DICTIONARY
  5
4D0
102
{ACAD_REACTORS
330
4AC
102
}
330
4AC
100
AcDbDictionary
281
     1
  3
DIMASSOC
350
4D2
  3
HIDETEXT
350
4D1
  0
LAYOUT
  5
4BD
102
{ACAD_REACTORS
330
4B9
102
}
330
4B9
100
AcDbPlotSettings
  1

  2
Acrobat Distiller
  4

  6

 40
0.0
 41
0.0
 42
0.0
 43
0.0
 44
0.0
 45
0.0
 46
0.0
 47
0.0
 48
0.0
 49
0.0
140
0.0
141
0.0
142
1.0
143
1.0
 70
   688
 72
     0
 73
     0
 74
     5
  7

 75
    16
147
1.0
148
0.0
149
0.0
100
AcDbLayout
  1
Layout1
 70
     1
 71
     1
 10
0.0
 20
0.0
 11
12.0
 21
9.0
 12
0.0
 22
0.0
 32
0.0
 14
1.000000000000000E+20
 24
1.000000000000000E+20
 34
1.000000000000000E+20
 15
-1.000000000000000E+20
 25
-1.000000000000000E+20
 35
-1.000000000000000E+20
146
0.0
 13
0.0
 23
0.0
 33
0.0
 16
1.0
 26
0.0
 36
0.0
 17
0.0
 27
1.0
 37
0.0
 76
     0
330
4BA
331
3E3
  0
LAYOUT
  5
4C1
102
{ACAD_REACTORS
330
4B9
102
}
330
4B9
100
AcDbPlotSettings
  1

  2
Acrobat Distiller
  4

  6

 40
0.0
 41
0.0
 42
0.0
 43
0.0
 44
0.0
 45
0.0
 46
0.0
 47
0.0
 48
0.0
 49
0.0
140
0.0
141
0.0
142
1.0
143
1.0
 70
  1712
 72
     0
 73
     0
 74
     0
  7

 75
     0
147
1.0
148
0.0
149
0.0
100
AcDbLayout
  1
Model
 70
     1
 71
     0
 10
0.0
 20
0.0
 11
12.0
 21
9.0
 12
0.0
 22
0.0
 32
0.0
 14
0.0
 24
0.0
 34
0.0
 15
0.0
 25
0.0
 35
0.0
146
0.0
 13
0.0
 23
0.0
 33
0.0
 16
1.0
 26
0.0
 36
0.0
 17
0.0
 27
1.0
 37
0.0
 76
     0
330
4BE
  0
MLINESTYLE
  5
4B7
102
{ACAD_REACTORS
330
4B6
102
}
330
4B6
100
AcDbMlineStyle
  2
STANDARD
 70
     0
  3

 62
   256
 51
90.0
 52
90.0
 71
     2
 49
0.5
 62
   256
  6
BYLAYER
 49
-0.5
 62
   256
  6
BYLAYER
  0
ACDBPLACEHOLDER
  5
4AF
102
{ACAD_REACTORS
330
4AE
102
}
330
4AE
  0
XRECORD
  5
4DE
102
{ACAD_REACTORS
330
4D4
102
}
330
4D4
100
AcDbXrecord
280
     1
 90
        0
  0
XRECORD
  5
4E2
102
{ACAD_REACTORS
330
4D4
102
}
330
4D4
100
AcDbXrecord
280
     1
1000
DSTYLE
1002
{
1070
   279
 70
     2
1002
}
  0
XRECORD
  5
4DF
102
{ACAD_REACTORS
330
4D4
102
}
330
4D4
100
AcDbXrecord
280
     1
  1
{1513F0A4-4792-4A55-B86E-2B854BA39F8C}
  0
XRECORD
  5
4D7
102
{ACAD_REACTORS
330
4D4
102
}
330
4D4
100
AcDbXrecord
280
     1
  1

  0
XRECORD
  5
4DD
102
{ACAD_REACTORS
330
4D4
102
}
330
4D4
100
AcDbXrecord
280
     1
 90
        0
  0
XRECORD
  5
4D9
102
{ACAD_REACTORS
330
4D4
102
}
330
4D4
100
AcDbXrecord
280
     1
340
4B9
  0
XRECORD
  5
4DC
102
{ACAD_REACTORS
330
4D4
102
}
330
4D4
100
AcDbXrecord
280
     1
 90
    14877
  0
XRECORD
  5
4DA
102
{ACAD_REACTORS
330
4D4
102
}
330
4D4
100
AcDbXrecord
280
     1
340
4B8
  0
XRECORD
  5
4DB
102
{ACAD_REACTORS
330
4D4
102
}
330
4D4
100
AcDbXrecord
280
     1
340
4AE
  0
XRECORD
  5
4E1
102
{ACAD_REACTORS
330
4D4
102
}
330
4D4
100
AcDbXrecord
280
     1
 40
0.0
  0
XRECORD
  5
4E5
102
{ACAD_REACTORS
330
4D4
102
}
330
4D4
100
AcDbXrecord
280
     1
340
0
  0
XRECORD
  5
4EB
102
{ACAD_REACTORS
330
4D4
102
}
330
4D4
100
AcDbXrecord
280
     1
 10
0.0
 20
0.0
 30
0.0
  0
XRECORD
  5
4E7
102
{ACAD_REACTORS
330
4D4
102
}
330
4D4
100
AcDbXrecord
280
     1
 10
0.0
 20
0.0
 30
0.0
  0
XRECORD
  5
4EA
102
{ACAD_REACTORS
330
4D4
102
}
330
4D4
100
AcDbXrecord
280
     1
 10
0.0
 20
0.0
 30
0.0
  0
XRECORD
  5
4E8
102
{ACAD_REACTORS
330
4D4
102
}
330
4D4
100
AcDbXrecord
280
     1
 10
0.0
 20
0.0
 30
0.0
  0
XRECORD
  5
4E9
102
{ACAD_REACTORS
330
4D4
102
}
330
4D4
100
AcDbXrecord
280
     1
 10
0.0
 20
0.0
 30
0.0
  0
XRECORD
  5
4E6
102
{ACAD_REACTORS
330
4D4
102
}
330
4D4
100
AcDbXrecord
280
     1
 10
0.0
 20
0.0
 30
0.0
  0
XRECORD
  5
4E3
102
{ACAD_REACTORS
330
4D4
102
}
330
4D4
100
AcDbXrecord
280
     1
340
0
  0
XRECORD
  5
4E4
102
{ACAD_REACTORS
330
4D4
102
}
330
4D4
100
AcDbXrecord
280
     1
 70
     0
  0
XRECORD
  5
4D8
102
{ACAD_REACTORS
330
4D4
102
}
330
4D4
100
AcDbXrecord
280
     1
  1

  0
XRECORD
  5
4D5
102
{ACAD_REACTORS
330
4D4
102
}
330
4D4
100
AcDbXrecord
280
     1
 90
        1
  0
XRECORD
  5
4D6
102
{ACAD_REACTORS
330
4D4
102
}
330
4D4
100
AcDbXrecord
280
     1
 90
       70
  0
XRECORD
  5
4EE
102
{ACAD_REACTORS
330
4D4
102
}
330
4D4
100
AcDbXrecord
280
     1
340
0
  0
XRECORD
  5
4F4
102
{ACAD_REACTORS
330
4D4
102
}
330
4D4
100
AcDbXrecord
280
     1
 10
0.0
 20
0.0
 30
0.0
  0
XRECORD
  5
4F0
102
{ACAD_REACTORS
330
4D4
102
}
330
4D4
100
AcDbXrecord
280
     1
 10
0.0
 20
0.0
 30
0.0
  0
XRECORD
  5
4F3
102
{ACAD_REACTORS
330
4D4
102
}
330
4D4
100
AcDbXrecord
280
     1
 10
0.0
 20
0.0
 30
0.0
  0
XRECORD
  5
4F1
102
{ACAD_REACTORS
330
4D4
102
}
330
4D4
100
AcDbXrecord
280
     1
 10
0.0
 20
0.0
 30
0.0
  0
XRECORD
  5
4F2
102
{ACAD_REACTORS
330
4D4
102
}
330
4D4
100
AcDbXrecord
280
     1
 10
0.0
 20
0.0
 30
0.0
  0
XRECORD
  5
4EF
102
{ACAD_REACTORS
330
4D4
102
}
330
4D4
100
AcDbXrecord
280
     1
 10
0.0
 20
0.0
 30
0.0
  0
XRECORD
  5
4EC
102
{ACAD_REACTORS
330
4D4
102
}
330
4D4
100
AcDbXrecord
280
     1
340
0
  0
XRECORD
  5
4ED
102
{ACAD_REACTORS
330
4D4
102
}
330
4D4
100
AcDbXrecord
280
     1
 70
     0
  0
XRECORD
  5
4E0
102
{ACAD_REACTORS
330
4D4
102
}
330
4D4
100
AcDbXrecord
280
     1
  1
{7F9BDF58-6464-4DF0-A0E5-7200C4630225}
  0
DICTIONARYVAR
  5
4D2
102
{ACAD_REACTORS
330
4D0
102
}
330
4D0
100
DictionaryVariables
280
     0
  1
2
  0
DICTIONARYVAR
  5
4D1
102
{ACAD_REACTORS
330
4D0
102
}
330
4D0
100
DictionaryVariables
280
     0
  1
1
  0
ENDSEC
  0
EOF
