  0
SECTION
  2
HEADER
  9
$ACADVER
  1
AC1015
  9
$ACADMAINTVER
 70
     6
  9
$DWGCODEPAGE
  3
ANSI_1252
  9
$INSBASE
 10
0.0
 20
0.0
 30
0.0
  9
$EXTMIN
 10
-18.14126192413293
 20
-3.415551
 30
0.0
  9
$EXTMAX
 10
13.326042
 20
38.61125554890462
 30
0.0
  9
$LIMMIN
 10
0.0
 20
0.0
  9
$LIMMAX
 10
12.0
 20
9.0
  9
$ORTHOMODE
 70
     0
  9
$REGENMODE
 70
     1
  9
$FILLMODE
 70
     1
  9
$QTEXTMODE
 70
     0
  9
$MIRRTEXT
 70
     1
  9
$LTSCALE
 40
10.0
  9
$ATTMODE
 70
     1
  9
$TEXTSIZE
 40
0.2
  9
$TRACEWID
 40
0.05
  9
$TEXTSTYLE
  7
STANDARD
  9
$CLAYER
  8
0
  9
$CELTYPE
  6
ByLayer
  9
$CECOLOR
 62
   256
  9
$CELTSCALE
 40
1.0
  9
$DISPSILH
 70
     0
  9
$DIMSCALE
 40
1.0
  9
$DIMASZ
 40
0.18
  9
$DIMEXO
 40
0.0625
  9
$DIMDLI
 40
0.38
  9
$DIMRND
 40
0.0
  9
$DIMDLE
 40
0.0
  9
$DIMEXE
 40
0.18
  9
$DIMTP
 40
0.0
  9
$DIMTM
 40
0.0
  9
$DIMTXT
 40
0.18
  9
$DIMCEN
 40
0.09
  9
$DIMTSZ
 40
0.0
  9
$DIMTOL
 70
     0
  9
$DIMLIM
 70
     0
  9
$DIMTIH
 70
     1
  9
$DIMTOH
 70
     1
  9
$DIMSE1
 70
     0
  9
$DIMSE2
 70
     0
  9
$DIMTAD
 70
     0
  9
$DIMZIN
 70
     0
  9
$DIMBLK
  1

  9
$DIMASO
 70
     1
  9
$DIMSHO
 70
     1
  9
$DIMPOST
  1

  9
$DIMAPOST
  1

  9
$DIMALT
 70
     0
  9
$DIMALTD
 70
     2
  9
$DIMALTF
 40
25.4
  9
$DIMLFAC
 40
1.0
  9
$DIMTOFL
 70
     0
  9
$DIMTVP
 40
0.0
  9
$DIMTIX
 70
     0
  9
$DIMSOXD
 70
     0
  9
$DIMSAH
 70
     0
  9
$DIMBLK1
  1

  9
$DIMBLK2
  1

  9
$DIMSTYLE
  2
Standard
  9
$DIMCLRD
 70
     0
  9
$DIMCLRE
 70
     0
  9
$DIMCLRT
 70
     0
  9
$DIMTFAC
 40
1.0
  9
$DIMGAP
 40
0.09
  9
$DIMJUST
 70
     0
  9
$DIMSD1
 70
     0
  9
$DIMSD2
 70
     0
  9
$DIMTOLJ
 70
     1
  9
$DIMTZIN
 70
     0
  9
$DIMALTZ
 70
     0
  9
$DIMALTTZ
 70
     0
  9
$DIMUPT
 70
     0
  9
$DIMDEC
 70
     4
  9
$DIMTDEC
 70
     4
  9
$DIMALTU
 70
     2
  9
$DIMALTTD
 70
     2
  9
$DIMTXSTY
  7
STANDARD
  9
$DIMAUNIT
 70
     0
  9
$DIMADEC
 70
     0
  9
$DIMALTRND
 40
0.0
  9
$DIMAZIN
 70
     0
  9
$DIMDSEP
 70
    46
  9
$DIMATFIT
 70
     3
  9
$DIMFRAC
 70
     0
  9
$DIMLDRBLK
  1

  9
$DIMLUNIT
 70
     2
  9
$DIMLWD
 70
    -2
  9
$DIMLWE
 70
    -2
  9
$DIMTMOVE
 70
     2
  9
$LUNITS
 70
     2
  9
$LUPREC
 70
     4
  9
$SKETCHINC
 40
0.1
  9
$FILLETRAD
 40
0.5
  9
$AUNITS
 70
     0
  9
$AUPREC
 70
     0
  9
$MENU
  1
acad
  9
$ELEVATION
 40
0.0
  9
$PELEVATION
 40
0.0
  9
$THICKNESS
 40
0.0
  9
$LIMCHECK
 70
     0
  9
$CHAMFERA
 40
0.5
  9
$CHAMFERB
 40
0.5
  9
$CHAMFERC
 40
0.0
  9
$CHAMFERD
 40
0.0
  9
$SKPOLY
 70
     0
  9
$TDCREATE
 40
2452858.372001967
  9
$TDUCREATE
 40
2452858.663668634
  9
$TDUPDATE
 40
2453917.376258714
  9
$TDUUPDATE
 40
2453917.667925382
  9
$TDINDWG
 40
0.0039451505
  9
$TDUSRTIMER
 40
0.0039451505
  9
$USRTIMER
 70
     1
  9
$ANGBASE
 50
0.0
  9
$ANGDIR
 70
     0
  9
$PDMODE
 70
     0
  9
$PDSIZE
 40
0.0
  9
$PLINEWID
 40
0.0
  9
$SPLFRAME
 70
     0
  9
$SPLINETYPE
 70
     6
  9
$SPLINESEGS
 70
     8
  9
$HANDSEED
  5
55E
  9
$SURFTAB1
 70
     6
  9
$SURFTAB2
 70
     6
  9
$SURFTYPE
 70
     6
  9
$SURFU
 70
     6
  9
$SURFV
 70
     6
  9
$UCSBASE
  2

  9
$UCSNAME
  2

  9
$UCSORG
 10
0.0
 20
0.0
 30
0.0
  9
$UCSXDIR
 10
1.0
 20
0.0
 30
0.0
  9
$UCSYDIR
 10
0.0
 20
1.0
 30
0.0
  9
$UCSORTHOREF
  2

  9
$UCSORTHOVIEW
 70
     0
  9
$UCSORGTOP
 10
0.0
 20
0.0
 30
0.0
  9
$UCSORGBOTTOM
 10
0.0
 20
0.0
 30
0.0
  9
$UCSORGLEFT
 10
0.0
 20
0.0
 30
0.0
  9
$UCSORGRIGHT
 10
0.0
 20
0.0
 30
0.0
  9
$UCSORGFRONT
 10
0.0
 20
0.0
 30
0.0
  9
$UCSORGBACK
 10
0.0
 20
0.0
 30
0.0
  9
$PUCSBASE
  2

  9
$PUCSNAME
  2

  9
$PUCSORG
 10
0.0
 20
0.0
 30
0.0
  9
$PUCSXDIR
 10
1.0
 20
0.0
 30
0.0
  9
$PUCSYDIR
 10
0.0
 20
1.0
 30
0.0
  9
$PUCSORTHOREF
  2

  9
$PUCSORTHOVIEW
 70
     0
  9
$PUCSORGTOP
 10
0.0
 20
0.0
 30
0.0
  9
$PUCSORGBOTTOM
 10
0.0
 20
0.0
 30
0.0
  9
$PUCSORGLEFT
 10
0.0
 20
0.0
 30
0.0
  9
$PUCSORGRIGHT
 10
0.0
 20
0.0
 30
0.0
  9
$PUCSORGFRONT
 10
0.0
 20
0.0
 30
0.0
  9
$PUCSORGBACK
 10
0.0
 20
0.0
 30
0.0
  9
$USERI1
 70
     0
  9
$USERI2
 70
     0
  9
$USERI3
 70
     0
  9
$USERI4
 70
     0
  9
$USERI5
 70
     0
  9
$USERR1
 40
0.0
  9
$USERR2
 40
0.0
  9
$USERR3
 40
0.0
  9
$USERR4
 40
0.0
  9
$USERR5
 40
0.0
  9
$WORLDVIEW
 70
     1
  9
$SHADEDGE
 70
     3
  9
$SHADEDIF
 70
    70
  9
$TILEMODE
 70
     1
  9
$MAXACTVP
 70
    48
  9
$PINSBASE
 10
0.0
 20
0.0
 30
0.0
  9
$PLIMCHECK
 70
     0
  9
$PEXTMIN
 10
1.000000000000000E+20
 20
1.000000000000000E+20
 30
1.000000000000000E+20
  9
$PEXTMAX
 10
-1.000000000000000E+20
 20
-1.000000000000000E+20
 30
-1.000000000000000E+20
  9
$PLIMMIN
 10
0.0
 20
0.0
  9
$PLIMMAX
 10
12.0
 20
9.0
  9
$UNITMODE
 70
     0
  9
$VISRETAIN
 70
     1
  9
$PLINEGEN
 70
     0
  9
$PSLTSCALE
 70
     1
  9
$TREEDEPTH
 70
  3020
  9
$CMLSTYLE
  2
Standard
  9
$CMLJUST
 70
     0
  9
$CMLSCALE
 40
1.0
  9
$PROXYGRAPHICS
 70
     1
  9
$MEASUREMENT
 70
     0
  9
$CELWEIGHT
370
    -1
  9
$ENDCAPS
280
     0
  9
$JOINSTYLE
280
     0
  9
$LWDISPLAY
290
     0
  9
$INSUNITS
 70
     0
  9
$HYPERLINKBASE
  1

  9
$STYLESHEET
  1

  9
$XEDIT
290
     1
  9
$CEPSNTYPE
380
     0
  9
$PSTYLEMODE
290
     1
  9
$FINGERPRINTGUID
  2
{5EC60FCB-F02C-457A-95A4-EFA3E60A441A}
  9
$VERSIONGUID
  2
{9A2B39F4-F299-4405-B4CE-52415A27FE37}
  9
$EXTNAMES
290
     1
  9
$PSVPSCALE
 40
0.0
  9
$OLESTARTUP
290
     0
  0
ENDSEC
  0
SECTION
  2
CLASSES
  0
CLASS
  1
ACDBDICTIONARYWDFLT
  2
AcDbDictionaryWithDefault
  3
AutoCAD 2000
 90
        0
280
     0
281
     0
  0
CLASS
  1
ACDBPLACEHOLDER
  2
AcDbPlaceHolder
  3
AutoCAD 2000
 90
        0
280
     0
281
     0
  0
CLASS
  1
LAYOUT
  2
AcDbLayout
  3
AutoCAD 2000
 90
        0
280
     0
281
     0
  0
CLASS
  1
DICTIONARYVAR
  2
AcDbDictionaryVar
  3
AutoCAD 2000
 90
        0
280
     0
281
     0
  0
ENDSEC
  0
SECTION
  2
TABLES
  0
TABLE
  2
VPORT
  5
512
330
0
100
AcDbSymbolTable
 70
     3
  0
VPORT
  5
53C
330
512
100
AcDbSymbolTableRecord
100
AcDbViewportTableRecord
  2
*Active
 70
     0
 10
0.0
 20
0.0
 11
1.0
 21
1.0
 12
14.53119090904776
 22
17.59785227445231
 13
0.0
 23
0.0
 14
0.5
 24
0.5
 15
0.5
 25
0.5
 16
0.0
 26
0.0
 36
1.0
 17
0.0
 27
0.0
 37
0.0
 40
42.02889912475738
 41
1.554838709677419
 42
50.0
 43
0.0
 44
0.0
 50
0.0
 51
0.0
 71
     0
 72
   100
 73
     1
 74
     3
 75
     0
 76
     0
 77
     0
 78
     0
281
     0
 65
     1
110
0.0
120
0.0
130
0.0
111
1.0
121
0.0
131
0.0
112
0.0
122
1.0
132
0.0
 79
     0
146
0.0
  0
ENDTAB
  0
TABLE
  2
LTYPE
  5
50F
330
0
100
AcDbSymbolTable
 70
     2
  0
LTYPE
  5
51D
330
50F
100
AcDbSymbolTableRecord
100
AcDbLinetypeTableRecord
  2
ByBlock
 70
     0
  3

 72
    65
 73
     0
 40
0.0
  0
LTYPE
  5
51E
330
50F
100
AcDbSymbolTableRecord
100
AcDbLinetypeTableRecord
  2
ByLayer
 70
     0
  3

 72
    65
 73
     0
 40
0.0
  0
LTYPE
  5
51F
330
50F
100
AcDbSymbolTableRecord
100
AcDbLinetypeTableRecord
  2
CONTINUOUS
 70
     0
  3
Solid line
 72
    65
 73
     0
 40
0.0
  0
LTYPE
  5
52C
330
50F
100
AcDbSymbolTableRecord
100
AcDbLinetypeTableRecord
  2
CENTER
 70
     0
  3
____ _ ____ _ ____ _ ____ _ ____ _ ____ _ ____
 72
    65
 73
     4
 40
2.0
 49
1.25
 74
     0
 49
-0.25
 74
     0
 49
0.25
 74
     0
 49
-0.25
 74
     0
  0
ENDTAB
  0
TABLE
  2
LAYER
  5
50C
330
0
100
AcDbSymbolTable
 70
     4
  0
LAYER
  5
51A
330
50C
100
AcDbSymbolTableRecord
100
AcDbLayerTableRecord
  2
0
 70
     0
 62
     7
  6
CONTINUOUS
370
    -3
390
519
  0
LAYER
  5
530
330
50C
100
AcDbSymbolTableRecord
100
AcDbLayerTableRecord
  2
250
 70
     0
 62
     2
  6
CONTINUOUS
370
    -3
390
519
  0
LAYER
  5
531
330
50C
100
AcDbSymbolTableRecord
100
AcDbLayerTableRecord
  2
255
 70
     0
 62
     1
  6
CENTER
370
    -3
390
519
  0
ENDTAB
  0
TABLE
  2
STYLE
  5
50D
330
0
100
AcDbSymbolTable
 70
     1
  0
STYLE
  5
51B
330
50D
100
AcDbSymbolTableRecord
100
AcDbTextStyleTableRecord
  2
STANDARD
 70
     0
 40
0.0
 41
1.0
 50
0.0
 71
     0
 42
0.2
  3
txt
  4

  0
ENDTAB
  0
TABLE
  2
VIEW
  5
510
330
0
100
AcDbSymbolTable
 70
     0
  0
ENDTAB
  0
TABLE
  2
UCS
  5
511
330
0
100
AcDbSymbolTable
 70
     0
  0
ENDTAB
  0
TABLE
  2
APPID
  5
513
330
0
100
AcDbSymbolTable
 70
     1
  0
APPID
  5
51C
330
513
100
AcDbSymbolTableRecord
100
AcDbRegAppTableRecord
  2
ACAD
 70
     0
  0
ENDTAB
  0
TABLE
  2
DIMSTYLE
  5
514
330
0
100
AcDbSymbolTable
 70
     1
100
AcDbDimStyleTable
 71
     0
  0
DIMSTYLE
105
536
330
514
100
AcDbSymbolTableRecord
100
AcDbDimStyleTableRecord
  2
Standard
 70
     0
340
51B
  0
ENDTAB
  0
TABLE
  2
BLOCK_RECORD
  5
50B
330
0
100
AcDbSymbolTable
 70
     0
  0
BLOCK_RECORD
  5
528
330
50B
100
AcDbSymbolTableRecord
100
AcDbBlockTableRecord
  2
*Model_Space
340
52B
  0
BLOCK_RECORD
  5
524
330
50B
100
AcDbSymbolTableRecord
100
AcDbBlockTableRecord
  2
*Paper_Space
340
527
  0
ENDTAB
  0
ENDSEC
  0
SECTION
  2
BLOCKS
  0
BLOCK
  5
534
330
528
100
AcDbEntity
  8
0
100
AcDbBlockBegin
  2
*Model_Space
 70
     0
 10
0.0
 20
0.0
 30
0.0
  3
*Model_Space
  1

  0
ENDBLK
  5
535
330
528
100
AcDbEntity
  8
0
100
AcDbBlockEnd
  0
BLOCK
  5
532
330
524
100
AcDbEntity
 67
     1
  8
0
100
AcDbBlockBegin
  2
*Paper_Space
 70
     0
 10
0.0
 20
0.0
 30
0.0
  3
*Paper_Space
  1

  0
ENDBLK
  5
533
330
524
100
AcDbEntity
 67
     1
  8
0
100
AcDbBlockEnd
  0
ENDSEC
  0
SECTION
  2
ENTITIES
  0
LINE
  5
28E
330
528
100
AcDbEntity
  8
255
100
AcDbLine
 10
0.0
 20
-3.415551
 30
0.0
 11
0.0
 21
38.61125554890462
 31
0.0
  0
LINE
  5
293
330
528
100
AcDbEntity
  8
250
100
AcDbLine
 10
11.69999999999998
 20
23.266088
 30
0.0
 11
11.69999999999998
 21
31.331088
 31
0.0
  0
LINE
  5
294
330
528
100
AcDbEntity
  8
250
100
AcDbLine
 10
12.30000000000001
 20
23.266088
 30
0.0
 11
12.30000000000001
 21
31.331088
 31
0.0
  0
LINE
  5
295
330
528
100
AcDbEntity
  8
250
100
AcDbLine
 10
-0.3000000000000114
 20
25.431088
 30
0.0
 11
-0.3000000000000114
 21
31.331088
 31
0.0
  0
LINE
  5
296
330
528
100
AcDbEntity
  8
250
100
AcDbLine
 10
0.3000000000000114
 20
25.431088
 30
0.0
 11
0.3000000000000114
 21
31.331088
 31
0.0
  0
LINE
  5
297
330
528
100
AcDbEntity
  8
250
100
AcDbLine
 10
-14.85722520508662
 20
15.44280356038745
 30
0.0
 11
-2.49596363058464
 21
10.70440894254786
 31
0.0
  0
LINE
  5
298
330
528
100
AcDbEntity
  8
250
100
AcDbLine
 10
-14.584684657573
 20
16.02726865064989
 30
0.0
 11
-2.228809571055904
 21
11.29138579340823
 31
0.0
  0
LINE
  5
299
330
528
100
AcDbEntity
  8
250
100
AcDbLine
 10
-4.375
 20
3.125
 30
0.0
 11
-6.0
 21
3.25
 31
0.0
  0
LINE
  5
29A
330
528
100
AcDbEntity
  8
250
100
AcDbLine
 10
-4.25
 20
2.5625
 30
0.0
 11
-5.75
 21
2.5625
 31
0.0
  0
LINE
  5
29B
330
528
100
AcDbEntity
  8
255
100
AcDbLine
 10
-6.133142999999989
 20
0.0
 30
0.0
 11
5.918978000000009
 21
0.0
 31
0.0
  0
LINE
  5
29C
330
528
100
AcDbEntity
  8
255
100
AcDbLine
 10
8.160091999999991
 20
0.0
 30
0.0
 11
-8.160091999999991
 21
0.0
 31
0.0
  0
LINE
  5
29D
330
528
100
AcDbEntity
  8
250
100
AcDbLine
 10
-6.0
 20
3.25
 30
0.0
 11
-5.75
 21
2.5625
 31
0.0
  0
ARC
  5
29E
330
528
100
AcDbEntity
  8
250
100
AcDbCircle
 10
-15.48406846436796
 20
14.09853385278379
 30
0.0
 40
1.483237512500034
100
AcDbArc
 50
65.00000000000028
 51
179.9999999999983
  0
ARC
  5
29F
330
528
100
AcDbEntity
  8
250
100
AcDbCircle
 10
-15.48406846436796
 20
14.09853385278379
 30
0.0
 40
2.128123387500028
100
AcDbArc
 50
65.00000000000028
 51
179.9999999999983
  0
LINE
  5
2A0
330
528
100
AcDbEntity
  8
250
100
AcDbLine
 10
-16.967305976868
 20
13.51813656528385
 30
0.0
 11
-17.612191851868
 21
13.51813656528385
 31
0.0
  0
LINE
  5
2A1
330
528
100
AcDbEntity
  8
250
100
AcDbLine
 10
-16.96762871325438
 20
13.51813656528385
 30
0.0
 11
-17.61186911548165
 21
13.51813656528385
 31
0.0
  0
LINE
  5
2A2
330
528
100
AcDbEntity
  8
250
100
AcDbLine
 10
-16.83134708970629
 20
13.31990874921392
 30
0.0
 11
-16.96762871325438
 21
13.51813656528385
 31
0.0
  0
LINE
  5
2A3
330
528
100
AcDbEntity
  8
250
100
AcDbLine
 10
-16.967305976868
 20
13.51813656528385
 30
0.0
 11
-16.967305976868
 21
14.09853385278382
 31
0.0
  0
LINE
  5
2A4
330
528
100
AcDbEntity
  8
250
100
AcDbLine
 10
-16.82998380247579
 20
12.7083759366382
 30
0.0
 11
-16.82998380247579
 21
13.31990874921392
 31
0.0
  0
LINE
  5
2A5
330
528
100
AcDbEntity
  8
250
100
AcDbLine
 10
-17.74955969752423
 20
12.7083759366382
 30
0.0
 11
-16.82998380247579
 21
12.7083759366382
 31
0.0
  0
LINE
  5
2A6
330
528
100
AcDbEntity
  8
250
100
AcDbLine
 10
-17.612191851868
 20
13.51813656528385
 30
0.0
 11
-17.612191851868
 21
14.09853385278385
 31
0.0
  0
LINE
  5
2A7
330
528
100
AcDbEntity
  8
250
100
AcDbLine
 10
-17.74815073902971
 20
13.31990874921392
 30
0.0
 11
-17.74955969752423
 21
12.7083759366382
 31
0.0
  0
LINE
  5
2A8
330
528
100
AcDbEntity
  8
250
100
AcDbLine
 10
-17.61186911548165
 20
13.51813656528385
 30
0.0
 11
-17.74815073902971
 21
13.31990874921392
 31
0.0
  0
LINE
  5
2AE
330
528
100
AcDbEntity
  8
250
100
AcDbLine
 10
3.3125
 20
-0.625
 30
0.0
 11
3.3125
 21
-0.125
 31
0.0
  0
LINE
  5
2AF
330
528
100
AcDbEntity
  8
250
100
AcDbLine
 10
-3.3125
 20
-0.625
 30
0.0
 11
-3.3125
 21
-0.125
 31
0.0
  0
LINE
  5
2B0
330
528
100
AcDbEntity
  8
250
100
AcDbLine
 10
4.6875
 20
-0.625
 30
0.0
 11
4.6875
 21
0.3679660000000027
 31
0.0
  0
ARC
  5
2B1
330
528
100
AcDbEntity
  8
250
100
AcDbCircle
 10
4.0
 20
0.0
 30
0.0
 40
1.0
100
AcDbArc
 50
184.604241
 51
41.40962200000068
  0
LINE
  5
2B2
330
528
100
AcDbEntity
  8
250
100
AcDbLine
 10
-4.6875
 20
-0.625
 30
0.0
 11
-4.6875
 21
0.3679660000000027
 31
0.0
  0
ARC
  5
2B3
330
528
100
AcDbEntity
  8
250
100
AcDbCircle
 10
-4.0
 20
0.0
 30
0.0
 40
1.0
100
AcDbArc
 50
138.5903779999993
 51
355.3957589999999
  0
LINE
  5
2B4
330
528
100
AcDbEntity
  8
255
100
AcDbLine
 10
-4.0
 20
4.972120000000003
 30
0.0
 11
-4.0
 21
-3.395808000000002
 31
0.0
  0
LINE
  5
2B5
330
528
100
AcDbEntity
  8
255
100
AcDbLine
 10
4.0
 20
4.972120000000003
 30
0.0
 11
4.0
 21
-3.395808000000002
 31
0.0
  0
LINE
  5
2B6
330
528
100
AcDbEntity
  8
250
100
AcDbLine
 10
-4.6875
 20
-0.625
 30
0.0
 11
-3.3125
 21
-0.625
 31
0.0
  0
LINE
  5
2B7
330
528
100
AcDbEntity
  8
250
100
AcDbLine
 10
4.6875
 20
-0.625
 30
0.0
 11
3.3125
 21
-0.625
 31
0.0
  0
LINE
  5
2DE
330
528
100
AcDbEntity
  8
250
100
AcDbLine
 10
13.24321199999999
 20
11.991715
 30
0.0
 11
13.24321199999999
 21
12.772965
 31
0.0
  0
LINE
  5
2DF
330
528
100
AcDbEntity
  8
250
100
AcDbLine
 10
10.74321199999999
 20
11.991715
 30
0.0
 11
10.74321199999999
 21
12.772965
 31
0.0
  0
LINE
  5
2E0
330
528
100
AcDbEntity
  8
250
100
AcDbLine
 10
-0.3374999999999773
 20
19.213737
 30
0.0
 11
-0.3375000000000057
 21
8.188465022562184
 31
0.0
  0
LINE
  5
2E1
330
528
100
AcDbEntity
  8
250
100
AcDbLine
 10
0.3375000000000057
 20
19.213737
 30
0.0
 11
0.3375000000000057
 21
8.188465022562184
 31
0.0
  0
LINE
  5
2E3
330
528
100
AcDbEntity
  8
250
100
AcDbLine
 10
2.786656210443624
 20
4.792620267267153
 30
0.0
 11
2.552257662088891
 21
6.12090477304018
 31
0.0
  0
LINE
  5
2E4
330
528
100
AcDbEntity
  8
250
100
AcDbLine
 10
1.904276334888891
 20
7.204712439399997
 30
0.0
 11
1.904276334888891
 21
5.029052220610893
 31
0.0
  0
ARC
  5
2E5
330
528
100
AcDbEntity
  8
250
100
AcDbCircle
 10
0.9416309802935529
 20
5.866886693062724
 30
0.0
 40
0.4260253860250351
100
AcDbArc
 50
87.50680256138856
 51
177.8385623225322
  0
ARC
  5
2E6
330
528
100
AcDbEntity
  8
250
100
AcDbCircle
 10
-2.643516178800012
 20
5.367045649999994
 30
0.0
 40
2.143187819704474
100
AcDbArc
 50
6.912886759829805
 51
61.04812024746705
  0
LINE
  5
2E7
330
528
100
AcDbEntity
  8
250
100
AcDbLine
 10
4.25
 20
2.5625
 30
0.0
 11
5.75
 21
2.5625
 31
0.0
  0
LINE
  5
2E8
330
528
100
AcDbEntity
  8
250
100
AcDbLine
 10
4.375
 20
3.125
 30
0.0
 11
6.0
 21
3.25
 31
0.0
  0
LINE
  5
2E9
330
528
100
AcDbEntity
  8
250
100
AcDbLine
 10
3.625
 20
3.1875
 30
0.0
 11
3.75
 21
2.5625
 31
0.0
  0
LINE
  5
2EA
330
528
100
AcDbEntity
  8
250
100
AcDbLine
 10
4.25
 20
2.5625
 30
0.0
 11
4.375
 21
3.1875
 31
0.0
  0
LINE
  5
2EB
330
528
100
AcDbEntity
  8
250
100
AcDbLine
 10
-4.375
 20
3.1875
 30
0.0
 11
-4.25
 21
2.5625
 31
0.0
  0
LINE
  5
2EC
330
528
100
AcDbEntity
  8
250
100
AcDbLine
 10
-3.75
 20
2.5625
 30
0.0
 11
-3.625
 21
3.1875
 31
0.0
  0
LINE
  5
2ED
330
528
100
AcDbEntity
  8
250
100
AcDbLine
 10
0.3441111029000012
 20
1.875
 30
0.0
 11
0.3441111029000012
 21
5.625
 31
0.0
  0
LINE
  5
2EE
330
528
100
AcDbEntity
  8
250
100
AcDbLine
 10
-0.3441111029000012
 20
5.625
 30
0.0
 11
-0.3441111029000012
 21
1.875
 31
0.0
  0
LINE
  5
2EF
330
528
100
AcDbEntity
  8
250
100
AcDbLine
 10
-0.6130799999999966
 20
1.25
 30
0.0
 11
0.6130799999999966
 21
1.25
 31
0.0
  0
LINE
  5
2F0
330
528
100
AcDbEntity
  8
250
100
AcDbLine
 10
-0.5
 20
1.875
 30
0.0
 11
0.5
 21
1.875
 31
0.0
  0
LINE
  5
2F1
330
528
100
AcDbEntity
  8
250
100
AcDbLine
 10
-3.157992000000007
 20
-0.0802729999999983
 30
0.0
 11
3.157992000000007
 21
-0.0802729999999983
 31
0.0
  0
LINE
  5
2F2
330
528
100
AcDbEntity
  8
250
100
AcDbLine
 10
-0.6130799999999966
 20
1.25
 30
0.0
 11
-0.75
 21
1.0625
 31
0.0
  0
LINE
  5
2F3
330
528
100
AcDbEntity
  8
250
100
AcDbLine
 10
-3.386920000000003
 20
1.25
 30
0.0
 11
-3.25
 21
1.0625
 31
0.0
  0
LINE
  5
2F4
330
528
100
AcDbEntity
  8
250
100
AcDbLine
 10
-4.613079999999996
 20
1.25
 30
0.0
 11
-4.75
 21
1.0625
 31
0.0
  0
LINE
  5
2F5
330
528
100
AcDbEntity
  8
250
100
AcDbLine
 10
-0.75
 20
1.0625
 30
0.0
 11
-3.25
 21
1.0625
 31
0.0
  0
LINE
  5
2F6
330
528
100
AcDbEntity
  8
250
100
AcDbLine
 10
-4.75
 20
1.0625
 30
0.0
 11
-4.75
 21
0.6423789999999983
 31
0.0
  0
ARC
  5
2F7
330
528
100
AcDbEntity
  8
250
100
AcDbCircle
 10
-3.157992000000007
 20
-0.3302729999999983
 30
0.0
 40
0.25
100
AcDbArc
 50
90.0
 51
153.4349489999997
  0
LINE
  5
2F8
330
528
100
AcDbEntity
  8
250
100
AcDbLine
 10
-4.5
 20
-0.4552729999999983
 30
0.0
 11
-3.5
 21
-0.4552729999999983
 31
0.0
  0
LINE
  5
2F9
330
528
100
AcDbEntity
  8
250
100
AcDbLine
 10
-3.5
 20
-0.4552729999999983
 30
0.0
 11
-3.381597999999996
 21
-0.2184689999999989
 31
0.0
  0
LINE
  5
2FA
330
528
100
AcDbEntity
  8
250
100
AcDbLine
 10
-4.75
 20
0.6423789999999983
 30
0.0
 11
-4.5
 21
-0.4552729999999983
 31
0.0
  0
LINE
  5
2FB
330
528
100
AcDbEntity
  8
250
100
AcDbLine
 10
-4.25
 20
2.5625
 30
0.0
 11
-3.75
 21
2.5625
 31
0.0
  0
LINE
  5
2FC
330
528
100
AcDbEntity
  8
250
100
AcDbLine
 10
-4.1875
 20
2.4375
 30
0.0
 11
-4.1875
 21
2.5625
 31
0.0
  0
LINE
  5
2FD
330
528
100
AcDbEntity
  8
250
100
AcDbLine
 10
-3.8125
 20
2.4375
 30
0.0
 11
-3.8125
 21
2.5625
 31
0.0
  0
LINE
  5
2FE
330
528
100
AcDbEntity
  8
250
100
AcDbLine
 10
-3.449420000000003
 20
2.25
 30
0.0
 11
-3.574031999999988
 21
2.4375
 31
0.0
  0
LINE
  5
2FF
330
528
100
AcDbEntity
  8
250
100
AcDbLine
 10
-3.386920000000003
 20
2.25
 30
0.0
 11
-3.386920000000003
 21
1.75
 31
0.0
  0
LINE
  5
300
330
528
100
AcDbEntity
  8
250
100
AcDbLine
 10
-4.550579999999996
 20
2.25
 30
0.0
 11
-4.425968000000011
 21
2.4375
 31
0.0
  0
LINE
  5
301
330
528
100
AcDbEntity
  8
250
100
AcDbLine
 10
-4.613079999999996
 20
2.25
 30
0.0
 11
-4.613079999999996
 21
1.75
 31
0.0
  0
LINE
  5
302
330
528
100
AcDbEntity
  8
250
100
AcDbLine
 10
-4.425968000000011
 20
2.4375
 30
0.0
 11
-3.574031999999988
 21
2.4375
 31
0.0
  0
LINE
  5
303
330
528
100
AcDbEntity
  8
250
100
AcDbLine
 10
-4.613079999999996
 20
1.75
 30
0.0
 11
-3.386920000000003
 21
1.75
 31
0.0
  0
LINE
  5
304
330
528
100
AcDbEntity
  8
250
100
AcDbLine
 10
-4.613079999999996
 20
2.25
 30
0.0
 11
-3.386920000000003
 21
2.25
 31
0.0
  0
LINE
  5
305
330
528
100
AcDbEntity
  8
250
100
AcDbLine
 10
-4.613079999999996
 20
1.25
 30
0.0
 11
-3.386920000000003
 21
1.25
 31
0.0
  0
LINE
  5
306
330
528
100
AcDbEntity
  8
250
100
AcDbLine
 10
-3.5
 20
1.75
 30
0.0
 11
-3.5
 21
1.25
 31
0.0
  0
LINE
  5
307
330
528
100
AcDbEntity
  8
250
100
AcDbLine
 10
-4.5
 20
1.75
 30
0.0
 11
-4.5
 21
1.25
 31
0.0
  0
LINE
  5
308
330
528
100
AcDbEntity
  8
250
100
AcDbLine
 10
-0.5
 20
1.875
 30
0.0
 11
-0.5
 21
1.25
 31
0.0
  0
LINE
  5
309
330
528
100
AcDbEntity
  8
250
100
AcDbLine
 10
4.613079999999996
 20
1.25
 30
0.0
 11
4.75
 21
1.0625
 31
0.0
  0
LINE
  5
30A
330
528
100
AcDbEntity
  8
250
100
AcDbLine
 10
3.386920000000003
 20
1.25
 30
0.0
 11
3.25
 21
1.0625
 31
0.0
  0
LINE
  5
30B
330
528
100
AcDbEntity
  8
250
100
AcDbLine
 10
0.6130799999999966
 20
1.25
 30
0.0
 11
0.75
 21
1.0625
 31
0.0
  0
LINE
  5
30C
330
528
100
AcDbEntity
  8
250
100
AcDbLine
 10
3.25
 20
1.0625
 30
0.0
 11
0.75
 21
1.0625
 31
0.0
  0
LINE
  5
30D
330
528
100
AcDbEntity
  8
250
100
AcDbLine
 10
4.75
 20
1.0625
 30
0.0
 11
4.75
 21
0.6423789999999983
 31
0.0
  0
ARC
  5
30E
330
528
100
AcDbEntity
  8
250
100
AcDbCircle
 10
3.157992000000007
 20
-0.3302729999999983
 30
0.0
 40
0.25
100
AcDbArc
 50
26.56505100000019
 51
90.0
  0
LINE
  5
30F
330
528
100
AcDbEntity
  8
250
100
AcDbLine
 10
4.5
 20
-0.4552729999999983
 30
0.0
 11
3.5
 21
-0.4552729999999983
 31
0.0
  0
LINE
  5
310
330
528
100
AcDbEntity
  8
250
100
AcDbLine
 10
3.5
 20
-0.4552729999999983
 30
0.0
 11
3.381597999999996
 21
-0.2184689999999989
 31
0.0
  0
LINE
  5
311
330
528
100
AcDbEntity
  8
250
100
AcDbLine
 10
4.75
 20
0.6423789999999983
 30
0.0
 11
4.5
 21
-0.4552729999999983
 31
0.0
  0
LINE
  5
312
330
528
100
AcDbEntity
  8
250
100
AcDbLine
 10
0.5
 20
1.875
 30
0.0
 11
0.5
 21
1.25
 31
0.0
  0
LINE
  5
313
330
528
100
AcDbEntity
  8
250
100
AcDbLine
 10
3.75
 20
2.5625
 30
0.0
 11
4.25
 21
2.5625
 31
0.0
  0
LINE
  5
314
330
528
100
AcDbEntity
  8
250
100
AcDbLine
 10
4.1875
 20
2.4375
 30
0.0
 11
4.1875
 21
2.5625
 31
0.0
  0
LINE
  5
315
330
528
100
AcDbEntity
  8
250
100
AcDbLine
 10
3.8125
 20
2.4375
 30
0.0
 11
3.8125
 21
2.5625
 31
0.0
  0
LINE
  5
316
330
528
100
AcDbEntity
  8
250
100
AcDbLine
 10
3.449420000000003
 20
2.25
 30
0.0
 11
3.574031999999988
 21
2.4375
 31
0.0
  0
LINE
  5
317
330
528
100
AcDbEntity
  8
250
100
AcDbLine
 10
4.550579999999996
 20
2.25
 30
0.0
 11
4.425968000000011
 21
2.4375
 31
0.0
  0
LINE
  5
318
330
528
100
AcDbEntity
  8
250
100
AcDbLine
 10
3.574031999999988
 20
2.4375
 30
0.0
 11
4.425968000000011
 21
2.4375
 31
0.0
  0
LINE
  5
319
330
528
100
AcDbEntity
  8
250
100
AcDbLine
 10
4.613079999999996
 20
2.25
 30
0.0
 11
4.613079999999996
 21
1.75
 31
0.0
  0
LINE
  5
31A
330
528
100
AcDbEntity
  8
250
100
AcDbLine
 10
3.386920000000003
 20
2.25
 30
0.0
 11
3.386920000000003
 21
1.75
 31
0.0
  0
LINE
  5
31B
330
528
100
AcDbEntity
  8
250
100
AcDbLine
 10
3.386920000000003
 20
1.75
 30
0.0
 11
4.613079999999996
 21
1.75
 31
0.0
  0
LINE
  5
31C
330
528
100
AcDbEntity
  8
250
100
AcDbLine
 10
3.386920000000003
 20
2.25
 30
0.0
 11
4.613079999999996
 21
2.25
 31
0.0
  0
LINE
  5
31D
330
528
100
AcDbEntity
  8
250
100
AcDbLine
 10
3.386920000000003
 20
1.25
 30
0.0
 11
4.613079999999996
 21
1.25
 31
0.0
  0
LINE
  5
31E
330
528
100
AcDbEntity
  8
250
100
AcDbLine
 10
3.5
 20
1.75
 30
0.0
 11
3.5
 21
1.25
 31
0.0
  0
LINE
  5
31F
330
528
100
AcDbEntity
  8
250
100
AcDbLine
 10
4.5
 20
1.75
 30
0.0
 11
4.5
 21
1.25
 31
0.0
  0
LINE
  5
320
330
528
100
AcDbEntity
  8
250
100
AcDbLine
 10
-0.5159087000000114
 20
5.625
 30
0.0
 11
0.5159087000000114
 21
5.625
 31
0.0
  0
LINE
  5
321
330
528
100
AcDbEntity
  8
250
100
AcDbLine
 10
-3.625
 20
3.1875
 30
0.0
 11
-4.375
 21
3.1875
 31
0.0
  0
LINE
  5
322
330
528
100
AcDbEntity
  8
250
100
AcDbLine
 10
4.375
 20
3.1875
 30
0.0
 11
3.625
 21
3.1875
 31
0.0
  0
LINE
  5
323
330
528
100
AcDbEntity
  8
250
100
AcDbLine
 10
1.904276334888891
 20
5.029052220610893
 30
0.0
 11
2.786656210443624
 21
4.792620267267139
 31
0.0
  0
LINE
  5
324
330
528
100
AcDbEntity
  8
250
100
AcDbLine
 10
0.5159087000000114
 20
5.625
 30
0.0
 11
0.5159087000000114
 21
5.882954349999991
 31
0.0
  0
LINE
  5
325
330
528
100
AcDbEntity
  8
250
100
AcDbLine
 10
6.0
 20
3.25
 30
0.0
 11
5.75
 21
2.5625
 31
0.0
  0
ARC
  5
326
330
528
100
AcDbEntity
  8
250
100
AcDbCircle
 10
-3.095452199999954
 20
9.347719230923473
 30
0.0
 40
1.483237512499989
100
AcDbArc
 50
0.0000000000004071
 51
66.16051702532296
  0
ARC
  5
327
330
528
100
AcDbEntity
  8
250
100
AcDbCircle
 10
-3.095452199999954
 20
9.347719230923459
 30
0.0
 40
2.128123387499993
100
AcDbArc
 50
0.0000000000004071
 51
65.96884926579157
  0
LINE
  5
328
330
528
100
AcDbEntity
  8
250
100
AcDbLine
 10
0.5159087000000114
 20
8.188465022562184
 30
0.0
 11
-0.6749340221841749
 21
8.188465022562184
 31
0.0
  0
LINE
  5
329
330
528
100
AcDbEntity
  8
250
100
AcDbLine
 10
-1.805680450000011
 20
8.188465022562184
 30
0.0
 11
-1.805680450000011
 21
7.580967300028959
 31
0.0
  0
ARC
  5
32A
330
528
100
AcDbEntity
  8
250
100
AcDbCircle
 10
-1.418748925000016
 20
7.580967300028959
 30
0.0
 40
0.3869315249999889
100
AcDbArc
 50
180.0
 51
241.0481202474652
  0
LINE
  5
32B
330
528
100
AcDbEntity
  8
250
100
AcDbLine
 10
-1.904609477815853
 20
8.188465022562184
 30
0.0
 11
-0.6749340221841749
 21
8.188465022562184
 31
0.0
  0
LINE
  5
32C
330
528
100
AcDbEntity
  8
250
100
AcDbLine
 10
-0.6749340221841749
 20
8.188465022562184
 30
0.0
 11
-0.6749340221841749
 21
8.575317619761747
 31
0.0
  0
LINE
  5
32D
330
528
100
AcDbEntity
  8
250
100
AcDbLine
 10
-1.904609477815824
 20
8.575317619761747
 30
0.0
 11
-1.904609477815824
 21
8.188465022562184
 31
0.0
  0
LINE
  5
32E
330
528
100
AcDbEntity
  8
250
100
AcDbLine
 10
-0.6749340221841749
 20
8.188465022562184
 30
0.0
 11
-1.904609477815824
 21
8.188465022562184
 31
0.0
  0
LINE
  5
32F
330
528
100
AcDbEntity
  8
250
100
AcDbLine
 10
-0.6749340221841749
 20
8.575317619761747
 30
0.0
 11
-1.904609477815824
 21
8.575317619761747
 31
0.0
  0
LINE
  5
330
330
528
100
AcDbEntity
  8
250
100
AcDbLine
 10
-0.9673288124999714
 20
9.347719230923473
 30
0.0
 11
-0.9673288124999714
 21
8.575317619761747
 31
0.0
  0
LINE
  5
331
330
528
100
AcDbEntity
  8
250
100
AcDbLine
 10
-1.612214687499971
 20
9.347719230923473
 30
0.0
 11
-1.612214687499971
 21
8.575317619761747
 31
0.0
  0
ARC
  5
332
330
528
100
AcDbEntity
  8
250
100
AcDbCircle
 10
0.9750931629994568
 20
7.943499140040657
 30
0.0
 40
0.4601587389514786
100
AcDbArc
 50
183.7290777695958
 51
268.1407247353152
  0
LINE
  5
333
330
528
100
AcDbEntity
  8
250
100
AcDbLine
 10
2.552257662088891
 20
7.349682784099996
 30
0.0
 11
1.904276334888891
 21
7.204712439399997
 31
0.0
  0
LINE
  5
334
330
528
100
AcDbEntity
  8
250
100
AcDbLine
 10
1.605049288888892
 20
7.128357951799983
 30
0.0
 11
1.904276334888891
 21
7.128357951799983
 31
0.0
  0
LINE
  5
335
330
528
100
AcDbEntity
  8
250
100
AcDbLine
 10
1.605049288888892
 20
6.66816739139999
 30
0.0
 11
1.904276334888891
 21
6.66816739139999
 31
0.0
  0
LINE
  5
336
330
528
100
AcDbEntity
  8
250
100
AcDbLine
 10
1.605049288888892
 20
7.446415665350002
 30
0.0
 11
1.605049288888892
 21
6.350109677849999
 31
0.0
  0
LINE
  5
337
330
528
100
AcDbEntity
  8
250
100
AcDbLine
 10
1.352254025888896
 20
7.550887177100008
 30
0.0
 11
1.352254025888896
 21
6.245638166100007
 31
0.0
  0
LINE
  5
338
330
528
100
AcDbEntity
  8
250
100
AcDbLine
 10
1.605049288888892
 20
6.350109677849999
 30
0.0
 11
1.352254025888896
 21
6.350109677849999
 31
0.0
  0
LINE
  5
339
330
528
100
AcDbEntity
  8
250
100
AcDbLine
 10
1.352254025888896
 20
7.446415665350002
 30
0.0
 11
1.605049288888892
 21
7.446415665350002
 31
0.0
  0
LINE
  5
33A
330
528
100
AcDbEntity
  8
250
100
AcDbLine
 10
0.9601634138888925
 20
6.245638166099993
 30
0.0
 11
0.9601634138888925
 21
7.550887177100008
 31
0.0
  0
LINE
  5
33B
330
528
100
AcDbEntity
  8
250
100
AcDbLine
 10
0.9601634138888925
 20
6.245638166099993
 30
0.0
 11
0.9601634138888925
 21
7.550887177100008
 31
0.0
  0
LINE
  5
33C
330
528
100
AcDbEntity
  8
250
100
AcDbLine
 10
0.9601634138888925
 20
6.350367632200004
 30
0.0
 11
0.9601634138888925
 21
7.446157710999997
 31
0.0
  0
LINE
  5
33D
330
528
100
AcDbEntity
  8
250
100
AcDbLine
 10
1.352254025888896
 20
6.245638166100022
 30
0.0
 11
0.9601634138888925
 21
6.245638166099993
 31
0.0
  0
LINE
  5
33E
330
528
100
AcDbEntity
  8
250
100
AcDbLine
 10
0.9601634138888925
 20
7.550887177100008
 30
0.0
 11
1.352254025888896
 21
7.550887177100008
 31
0.0
  0
LINE
  5
33F
330
528
100
AcDbEntity
  8
250
100
AcDbLine
 10
2.552257662088891
 20
6.12090477304018
 30
0.0
 11
2.552257662088891
 21
7.349682784099996
 31
0.0
  0
LINE
  5
340
330
528
100
AcDbEntity
  8
250
100
AcDbLine
 10
0.5159087000000114
 20
7.913570993199982
 30
0.0
 11
0.5159087000000114
 21
8.188465022562184
 31
0.0
  0
LINE
  5
341
330
528
100
AcDbEntity
  8
250
100
AcDbLine
 10
13.24321199999999
 20
11.991715
 30
0.0
 11
10.74321199999999
 21
11.991715
 31
0.0
  0
LINE
  5
34F
330
528
100
AcDbEntity
  8
250
100
AcDbLine
 10
12.993212
 20
18.81490799999999
 30
0.0
 11
13.118212
 21
19.689908
 31
0.0
  0
LINE
  5
350
330
528
100
AcDbEntity
  8
250
100
AcDbLine
 10
13.326042
 20
19.63540799999999
 30
0.0
 11
13.28160199999999
 21
18.79147
 31
0.0
  0
LINE
  5
351
330
528
100
AcDbEntity
  8
250
100
AcDbLine
 10
0.625033000000002
 20
19.713737
 30
0.0
 11
0.625033000000002
 21
19.213737
 31
0.0
  0
LINE
  5
352
330
528
100
AcDbEntity
  8
250
100
AcDbLine
 10
-0.6249669999999981
 20
19.713737
 30
0.0
 11
-0.6249669999999981
 21
19.213737
 31
0.0
  0
ARC
  5
353
330
528
100
AcDbEntity
  8
250
100
AcDbCircle
 10
0.0
 20
19.46373699999999
 30
0.0
 40
1.3125
100
AcDbArc
 50
284.9005970000001
 51
75.09940299999984
  0
LINE
  5
354
330
528
100
AcDbEntity
  8
250
100
AcDbLine
 10
11.59375
 20
21.938423
 30
0.0
 11
11.59375
 21
16.051088
 31
0.0
  0
LINE
  5
355
330
528
100
AcDbEntity
  8
250
100
AcDbLine
 10
12.40625
 20
21.938423
 30
0.0
 11
12.40625
 21
16.051088
 31
0.0
  0
ARC
  5
356
330
528
100
AcDbEntity
  8
250
100
AcDbCircle
 10
0.0
 20
19.46373699999999
 30
0.0
 40
1.3125
100
AcDbArc
 50
104.9005970000001
 51
255.0994029999998
  0
LINE
  5
357
330
528
100
AcDbEntity
  8
250
100
AcDbLine
 10
-0.6249669999999981
 20
19.213737
 30
0.0
 11
0.625033000000002
 21
19.213737
 31
0.0
  0
LINE
  5
358
330
528
100
AcDbEntity
  8
250
100
AcDbLine
 10
12.34482500000001
 20
15.776088
 30
0.0
 11
12.336264
 21
16.051088
 31
0.0
  0
LINE
  5
359
330
528
100
AcDbEntity
  8
250
100
AcDbLine
 10
11.65517499999998
 20
15.776088
 30
0.0
 11
11.663736
 21
16.051088
 31
0.0
  0
LINE
  5
35A
330
528
100
AcDbEntity
  8
250
100
AcDbLine
 10
12.743212
 20
14.81490799999999
 30
0.0
 11
12.993212
 21
18.81490799999999
 31
0.0
  0
LINE
  5
35B
330
528
100
AcDbEntity
  8
250
100
AcDbLine
 10
13.28160199999999
 20
18.79147
 30
0.0
 11
12.88699299999999
 21
14.28046099999999
 31
0.0
  0
ARC
  5
35C
330
528
100
AcDbEntity
  8
250
100
AcDbCircle
 10
12.493212
 20
14.31490799999999
 30
0.0
 40
0.395285
100
AcDbArc
 50
90.0
 51
355.0006659999999
  0
CIRCLE
  5
35D
330
528
100
AcDbEntity
  8
250
100
AcDbCircle
 10
12.493212
 20
14.31490799999999
 30
0.0
 40
0.176777
  0
ARC
  5
35E
330
528
100
AcDbEntity
  8
250
100
AcDbCircle
 10
9.860110999999989
 20
13.835203
 30
0.0
 40
1.645884999999999
100
AcDbArc
 50
355.1078099999999
 51
43.28122099999954
  0
LINE
  5
35F
330
528
100
AcDbEntity
  8
250
100
AcDbLine
 10
13.24321199999999
 20
12.772965
 30
0.0
 11
10.74321199999999
 21
12.772965
 31
0.0
  0
ARC
  5
360
330
528
100
AcDbEntity
  8
250
100
AcDbCircle
 10
12.19138899999998
 20
12.607126
 30
0.0
 40
0.88658
100
AcDbArc
 50
10.78163300000002
 51
69.6293759999995
  0
LINE
  5
361
330
528
100
AcDbEntity
  8
250
100
AcDbLine
 10
11.5
 20
13.69483999999999
 30
0.0
 11
12.5
 21
13.69483999999999
 31
0.0
  0
LINE
  5
362
330
528
100
AcDbEntity
  8
250
100
AcDbLine
 10
11.5
 20
13.438259
 30
0.0
 11
11.5
 21
13.69483999999999
 31
0.0
  0
ARC
  5
363
330
528
100
AcDbEntity
  8
250
100
AcDbCircle
 10
11.80861100000001
 20
12.607126
 30
0.0
 40
0.88658
100
AcDbArc
 50
110.3706240000005
 51
169.2183669999999
  0
LINE
  5
364
330
528
100
AcDbEntity
  8
250
100
AcDbLine
 10
12.5
 20
13.438259
 30
0.0
 11
12.5
 21
13.919682
 31
0.0
  0
LINE
  5
365
330
528
100
AcDbEntity
  8
250
100
AcDbLine
 10
12.56596999999999
 20
15.59303599999999
 30
0.0
 11
12.67671999999999
 21
15.59303599999999
 31
0.0
  0
LINE
  5
366
330
528
100
AcDbEntity
  8
250
100
AcDbLine
 10
12.56596999999999
 20
15.776088
 30
0.0
 11
11.058311
 21
15.776088
 31
0.0
  0
LINE
  5
367
330
528
100
AcDbEntity
  8
250
100
AcDbLine
 10
12.56596999999999
 20
14.963036
 30
0.0
 11
12.67671999999999
 21
14.963036
 31
0.0
  0
LINE
  5
368
330
528
100
AcDbEntity
  8
250
100
AcDbLine
 10
12.493212
 20
14.71019299999999
 30
0.0
 11
12.743212
 21
14.81490799999999
 31
0.0
  0
LINE
  5
369
330
528
100
AcDbEntity
  8
250
100
AcDbLine
 10
12.67671999999999
 20
15.59303599999999
 30
0.0
 11
12.67671999999999
 21
14.963036
 31
0.0
  0
LINE
  5
36A
330
528
100
AcDbEntity
  8
250
100
AcDbLine
 10
12.56596999999999
 20
14.740668
 30
0.0
 11
12.56596999999999
 21
15.776088
 31
0.0
  0
LINE
  5
36B
330
528
100
AcDbEntity
  8
250
100
AcDbLine
 10
11.058311
 20
14.963588
 30
0.0
 11
11.058311
 21
15.776088
 31
0.0
  0
LINE
  5
36C
330
528
100
AcDbEntity
  8
250
100
AcDbLine
 10
12.40625
 20
16.051088
 30
0.0
 11
11.59375
 21
16.051088
 31
0.0
  0
ARC
  5
36D
330
528
100
AcDbEntity
  8
250
100
AcDbCircle
 10
4.870000000000004
 20
21.563588
 30
0.0
 40
0.1875
100
AcDbArc
 50
270.0
 51
90.0
  0
LINE
  5
36E
330
528
100
AcDbEntity
  8
250
100
AcDbLine
 10
-0.5300000000000012
 20
21.75108799999999
 30
0.0
 11
-0.5300000000000012
 21
24.25108799999999
 31
0.0
  0
LINE
  5
36F
330
528
100
AcDbEntity
  8
250
100
AcDbLine
 10
0.5300000000000012
 20
21.75108799999999
 30
0.0
 11
0.5300000000000012
 21
24.25108799999999
 31
0.0
  0
LINE
  5
370
330
528
100
AcDbEntity
  8
250
100
AcDbLine
 10
0.7565250000000106
 20
21.376088
 30
0.0
 11
-0.7215290000000039
 21
21.376088
 31
0.0
  0
LINE
  5
371
330
528
100
AcDbEntity
  8
250
100
AcDbLine
 10
0.6350860000000012
 20
22.101537
 30
0.0
 11
-0.6774139999999989
 21
22.101537
 31
0.0
  0
LINE
  5
372
330
528
100
AcDbEntity
  8
250
100
AcDbLine
 10
-0.7215290000000039
 20
21.75108799999999
 30
0.0
 11
0.5300000000000012
 21
21.75108799999999
 31
0.0
  0
LINE
  5
373
330
528
100
AcDbEntity
  8
250
100
AcDbLine
 10
-0.6774139999999989
 20
22.512551
 30
0.0
 11
0.6350860000000012
 21
22.412551
 31
0.0
  0
LINE
  5
374
330
528
100
AcDbEntity
  8
250
100
AcDbLine
 10
0.625033000000002
 20
19.713737
 30
0.0
 11
-0.6249669999999981
 21
19.713737
 31
0.0
  0
LINE
  5
375
330
528
100
AcDbEntity
  8
250
100
AcDbLine
 10
-0.3375000000000057
 20
21.376088
 30
0.0
 11
-0.3374999999999773
 21
19.713737
 31
0.0
  0
ARC
  5
376
330
528
100
AcDbEntity
  8
250
100
AcDbCircle
 10
-0.7215290000000039
 20
21.563588
 30
0.0
 40
0.1875
100
AcDbArc
 50
90.0
 51
270.0
  0
LINE
  5
377
330
528
100
AcDbEntity
  8
250
100
AcDbLine
 10
0.3375000000000057
 20
21.376088
 30
0.0
 11
0.3375000000000057
 21
19.713737
 31
0.0
  0
LINE
  5
378
330
528
100
AcDbEntity
  8
250
100
AcDbLine
 10
0.5300000000000012
 20
21.376088
 30
0.0
 11
4.870000000000004
 21
21.376088
 31
0.0
  0
LINE
  5
379
330
528
100
AcDbEntity
  8
250
100
AcDbLine
 10
0.5300000000000012
 20
21.75108799999999
 30
0.0
 11
4.870000000000004
 21
21.75108799999999
 31
0.0
  0
ARC
  5
37A
330
528
100
AcDbEntity
  8
250
100
AcDbCircle
 10
0.7120040000000074
 20
21.563588
 30
0.0
 40
0.1875
100
AcDbArc
 50
270.0
 51
90.0
  0
ARC
  5
37B
330
528
100
AcDbEntity
  8
250
100
AcDbCircle
 10
4.106822999999991
 20
21.563588
 30
0.0
 40
0.1875
100
AcDbArc
 50
90.0
 51
270.0
  0
LINE
  5
37C
330
528
100
AcDbEntity
  8
250
100
AcDbLine
 10
-0.3000000000000114
 20
25.681088
 30
0.0
 11
0.3000000000000114
 21
25.681088
 31
0.0
  0
LINE
  5
37D
330
528
100
AcDbEntity
  8
250
100
AcDbLine
 10
0.3149999999999977
 20
25.431088
 30
0.0
 11
-0.3149999999999977
 21
25.431088
 31
0.0
  0
LINE
  5
37E
330
528
100
AcDbEntity
  8
250
100
AcDbLine
 10
0.5300000000000012
 20
24.25108799999999
 30
0.0
 11
-0.5300000000000012
 21
24.25108799999999
 31
0.0
  0
LINE
  5
37F
330
528
100
AcDbEntity
  8
250
100
AcDbLine
 10
-0.4329999999999928
 20
24.556088
 30
0.0
 11
0.4329999999999928
 21
24.556088
 31
0.0
  0
LINE
  5
380
330
528
100
AcDbEntity
  8
250
100
AcDbLine
 10
-0.6774139999999989
 20
24.762551
 30
0.0
 11
0.6350860000000012
 21
24.662551
 31
0.0
  0
LINE
  5
381
330
528
100
AcDbEntity
  8
250
100
AcDbLine
 10
-0.3499999999999943
 20
24.78108799999999
 30
0.0
 11
0.3499999999999943
 21
24.78108799999999
 31
0.0
  0
LINE
  5
382
330
528
100
AcDbEntity
  8
250
100
AcDbLine
 10
-0.6777040000000057
 20
25.512573
 30
0.0
 11
0.6347959999999944
 21
25.412573
 31
0.0
  0
LINE
  5
383
330
528
100
AcDbEntity
  8
250
100
AcDbLine
 10
-0.6774139999999989
 20
23.262551
 30
0.0
 11
0.6350860000000012
 21
23.162551
 31
0.0
  0
LINE
  5
384
330
528
100
AcDbEntity
  8
250
100
AcDbLine
 10
-0.6774139999999989
 20
24.012551
 30
0.0
 11
0.6350860000000012
 21
23.91255099999999
 31
0.0
  0
LINE
  5
385
330
528
100
AcDbEntity
  8
250
100
AcDbLine
 10
-0.3375000000000057
 20
24.556088
 30
0.0
 11
-0.3375000000000057
 21
24.25108799999999
 31
0.0
  0
LINE
  5
386
330
528
100
AcDbEntity
  8
250
100
AcDbLine
 10
-0.3149999999999977
 20
24.78108799999999
 30
0.0
 11
-0.3149999999999977
 21
25.431088
 31
0.0
  0
LINE
  5
387
330
528
100
AcDbEntity
  8
250
100
AcDbLine
 10
-0.3499999999999943
 20
24.556088
 30
0.0
 11
-0.3499999999999943
 21
24.78108799999999
 31
0.0
  0
LINE
  5
388
330
528
100
AcDbEntity
  8
250
100
AcDbLine
 10
0.3375000000000057
 20
24.556088
 30
0.0
 11
0.3375000000000057
 21
24.25108799999999
 31
0.0
  0
LINE
  5
389
330
528
100
AcDbEntity
  8
250
100
AcDbLine
 10
0.3149999999999977
 20
24.78108799999999
 30
0.0
 11
0.3149999999999977
 21
25.431088
 31
0.0
  0
LINE
  5
38A
330
528
100
AcDbEntity
  8
250
100
AcDbLine
 10
0.3499999999999943
 20
24.556088
 30
0.0
 11
0.3499999999999943
 21
24.78108799999999
 31
0.0
  0
LINE
  5
38B
330
528
100
AcDbEntity
  8
250
100
AcDbLine
 10
12.3375
 20
23.266088
 30
0.0
 11
12.3375
 21
21.938423
 31
0.0
  0
LINE
  5
38C
330
528
100
AcDbEntity
  8
250
100
AcDbLine
 10
11.66249999999999
 20
23.266088
 30
0.0
 11
11.66249999999999
 21
21.938423
 31
0.0
  0
LINE
  5
38D
330
528
100
AcDbEntity
  8
250
100
AcDbLine
 10
13.118212
 20
19.689908
 30
0.0
 11
13.326042
 21
19.63540799999999
 31
0.0
  0
LINE
  5
38E
330
528
100
AcDbEntity
  8
250
100
AcDbLine
 10
12.40625
 20
21.938423
 30
0.0
 11
11.59375
 21
21.938423
 31
0.0
  0
LINE
  5
38F
330
528
100
AcDbEntity
  8
250
100
AcDbLine
 10
11.66249999999999
 20
23.266088
 30
0.0
 11
12.3375
 21
23.266088
 31
0.0
  0
LINE
  5
41A
330
528
100
AcDbEntity
  8
250
100
AcDbLine
 10
-0.4690429999999992
 20
32.993789
 30
0.0
 11
0.7882970000000001
 21
32.604237
 31
0.0
  0
ARC
  5
41B
330
528
100
AcDbEntity
  8
250
100
AcDbCircle
 10
6.0
 20
31.331088
 30
0.0
 40
6.299999999999999
100
AcDbArc
 50
0.0
 51
180.0
  0
ARC
  5
41C
330
528
100
AcDbEntity
  8
250
100
AcDbCircle
 10
6.0
 20
31.331088
 30
0.0
 40
5.7
100
AcDbArc
 50
0.0
 51
180.0
  0
LINE
  5
41D
330
528
100
AcDbEntity
  8
250
100
AcDbLine
 10
-0.6782849999999883
 20
29.26261699999999
 30
0.0
 11
0.6342150000000118
 21
29.16261699999999
 31
0.0
  0
LINE
  5
41E
330
528
100
AcDbEntity
  8
250
100
AcDbLine
 10
-0.6779940000000125
 20
27.762595
 30
0.0
 11
0.6345059999999876
 21
27.66259499999999
 31
0.0
  0
LINE
  5
41F
330
528
100
AcDbEntity
  8
250
100
AcDbLine
 10
-0.6782849999999883
 20
28.512617
 30
0.0
 11
0.6342150000000118
 21
28.412617
 31
0.0
  0
LINE
  5
420
330
528
100
AcDbEntity
  8
250
100
AcDbLine
 10
-0.6777040000000057
 20
26.262573
 30
0.0
 11
0.6347959999999944
 21
26.162573
 31
0.0
  0
LINE
  5
421
330
528
100
AcDbEntity
  8
250
100
AcDbLine
 10
-0.6779940000000125
 20
27.012595
 30
0.0
 11
0.6345059999999876
 21
26.91259499999999
 31
0.0
  0
LINE
  5
422
330
528
100
AcDbEntity
  8
250
100
AcDbLine
 10
-0.678892999999988
 20
30.762664
 30
0.0
 11
0.6336070000000121
 21
30.662664
 31
0.0
  0
LINE
  5
423
330
528
100
AcDbEntity
  8
250
100
AcDbLine
 10
-0.6768370000000062
 20
31.51260399999999
 30
0.0
 11
0.6356629999999939
 21
31.412604
 31
0.0
  0
LINE
  5
424
330
528
100
AcDbEntity
  8
250
100
AcDbLine
 10
-0.6145309999999995
 20
32.259031
 30
0.0
 11
0.6785199999999918
 21
32.012706
 31
0.0
  0
LINE
  5
425
330
528
100
AcDbEntity
  8
250
100
AcDbLine
 10
-0.6782849999999883
 20
30.012617
 30
0.0
 11
0.6342150000000118
 21
29.91261699999999
 31
0.0
  0
LINE
  5
426
330
528
100
AcDbEntity
  8
250
100
AcDbLine
 10
2.601403000000004
 20
37.081099
 30
0.0
 11
3.215022000000004
 21
35.916571
 31
0.0
  0
LINE
  5
427
330
528
100
AcDbEntity
  8
250
100
AcDbLine
 10
1.407115000000004
 20
36.18067599999999
 30
0.0
 11
2.264481999999986
 21
35.18188699999999
 31
0.0
  0
LINE
  5
428
330
528
100
AcDbEntity
  8
250
100
AcDbLine
 10
1.978974999999991
 20
36.66442199999999
 30
0.0
 11
2.719121999999998
 21
35.57592
 31
0.0
  0
LINE
  5
429
330
528
100
AcDbEntity
  8
250
100
AcDbLine
 10
0.0631349999999884
 20
34.39159899999999
 30
0.0
 11
1.202268000000003
 21
33.73203
 31
0.0
  0
LINE
  5
42A
330
528
100
AcDbEntity
  8
250
100
AcDbLine
 10
0.4431329999999889
 20
35.037073
 30
0.0
 11
1.501255000000014
 21
34.254109
 31
0.0
  0
LINE
  5
42B
330
528
100
AcDbEntity
  8
250
100
AcDbLine
 10
-0.2422039999999868
 20
33.70763699999999
 30
0.0
 11
0.9636150000000043
 21
33.179758
 31
0.0
  0
LINE
  5
42C
330
528
100
AcDbEntity
  8
250
100
AcDbLine
 10
0.8930119999999988
 20
35.635942
 30
0.0
 11
1.856817000000006
 21
34.739429
 31
0.0
  0
LINE
  5
42D
330
528
100
AcDbEntity
  8
250
100
AcDbLine
 10
3.966110000000014
 20
37.693194
 30
0.0
 11
4.305213000000009
 21
36.42131899999999
 31
0.0
  0
LINE
  5
42E
330
528
100
AcDbEntity
  8
250
100
AcDbLine
 10
4.691228999999992
 20
37.880913
 30
0.0
 11
4.885795000000001
 21
36.57906899999999
 31
0.0
  0
LINE
  5
42F
330
528
100
AcDbEntity
  8
250
100
AcDbLine
 10
3.266569000000004
 20
37.425467
 30
0.0
 11
3.745945000000006
 21
36.199557
 31
0.0
  0
LINE
  5
430
330
528
100
AcDbEntity
  8
250
100
AcDbLine
 10
5.432805999999999
 20
37.986265
 30
0.0
 11
5.480388000000004
 21
36.67082199999999
 31
0.0
  0
LINE
  5
431
330
528
100
AcDbEntity
  8
250
100
AcDbLine
 10
6.181515999999987
 20
38.007925
 30
0.0
 11
6.081515999999993
 21
36.695425
 31
0.0
  0
ENDSEC
  0
SECTION
  2
OBJECTS
  0
DICTIONARY
  5
516
330
0
100
AcDbDictionary
281
     1
  3
ACAD_GROUP
350
517
  3
ACAD_LAYOUT
350
523
  3
ACAD_MLINESTYLE
350
520
  3
ACAD_PLOTSETTINGS
350
522
  3
ACAD_PLOTSTYLENAME
350
518
  3
ACDBHEADERROUNDTRIPXREC
350
53D
  3
AcDbVariableDictionary
350
539
  0
DICTIONARY
  5
517
102
{ACAD_REACTORS
330
516
102
}
330
516
100
AcDbDictionary
281
     1
  0
DICTIONARY
  5
523
102
{ACAD_REACTORS
330
516
102
}
330
516
100
AcDbDictionary
281
     1
  3
Layout1
350
527
  3
Model
350
52B
  0
DICTIONARY
  5
520
102
{ACAD_REACTORS
330
516
102
}
330
516
100
AcDbDictionary
281
     1
  3
Standard
350
521
  0
DICTIONARY
  5
522
102
{ACAD_REACTORS
330
516
102
}
330
516
100
AcDbDictionary
281
     1
  0
ACDBDICTIONARYWDFLT
  5
518
102
{ACAD_REACTORS
330
516
102
}
330
516
100
AcDbDictionary
281
     1
  3
Normal
350
519
100
AcDbDictionaryWithDefault
340
519
  0
DICTIONARY
  5
53D
102
{ACAD_REACTORS
330
516
102
}
330
516
100
AcDbDictionary
281
     1
  3
CEPSNTYPE
350
547
  3
DIMSTYLEDATA
350
54B
  3
FINGERPRINTGUID
350
548
  3
HYPERLINKBASE
350
540
  3
INSUNITS
350
546
  3
LAYOUTDICT
350
542
  3
LWETCUNION
350
545
  3
PLOTSETDICT
350
543
  3
PLOTSTYLNAMDICT
350
544
  3
PSVPSCALE
350
54A
  3
PUCSBASE
350
54E
  3
PUCSORGBACK
350
554
  3
PUCSORGBOTTOM
350
550
  3
PUCSORGFRONT
350
553
  3
PUCSORGLEFT
350
551
  3
PUCSORGRIGHT
350
552
  3
PUCSORGTOP
350
54F
  3
PUCSORTHOREF
350
54C
  3
PUCSORTHOVIEW
350
54D
  3
STYLESHEET
350
541
  3
TSTACKALIGN
350
53E
  3
TSTACKSIZE
350
53F
  3
UCSBASE
350
557
  3
UCSORGBACK
350
55D
  3
UCSORGBOTTOM
350
559
  3
UCSORGFRONT
350
55C
  3
UCSORGLEFT
350
55A
  3
UCSORGRIGHT
350
55B
  3
UCSORGTOP
350
558
  3
UCSORTHOREF
350
555
  3
UCSORTHOVIEW
350
556
  3
VERSIONGUID
350
549
  0
DICTIONARY
  5
539
102
{ACAD_REACTORS
330
516
102
}
330
516
100
AcDbDictionary
281
     1
  3
DIMASSOC
350
53B
  3
HIDETEXT
350
53A
  0
LAYOUT
  5
527
102
{ACAD_REACTORS
330
523
102
}
330
523
100
AcDbPlotSettings
  1

  2
Acrobat Distiller
  4

  6

 40
0.0
 41
0.0
 42
0.0
 43
0.0
 44
0.0
 45
0.0
 46
0.0
 47
0.0
 48
0.0
 49
0.0
140
0.0
141
0.0
142
1.0
143
1.0
 70
   688
 72
     0
 73
     0
 74
     5
  7

 75
    16
147
1.0
148
0.0
149
0.0
100
AcDbLayout
  1
Layout1
 70
     1
 71
     1
 10
0.0
 20
0.0
 11
12.0
 21
9.0
 12
0.0
 22
0.0
 32
0.0
 14
1.000000000000000E+20
 24
1.000000000000000E+20
 34
1.000000000000000E+20
 15
-1.000000000000000E+20
 25
-1.000000000000000E+20
 35
-1.000000000000000E+20
146
0.0
 13
0.0
 23
0.0
 33
0.0
 16
1.0
 26
0.0
 36
0.0
 17
0.0
 27
1.0
 37
0.0
 76
     0
330
524
  0
LAYOUT
  5
52B
102
{ACAD_REACTORS
330
523
102
}
330
523
100
AcDbPlotSettings
  1

  2
Acrobat Distiller
  4

  6

 40
0.0
 41
0.0
 42
0.0
 43
0.0
 44
0.0
 45
0.0
 46
0.0
 47
0.0
 48
0.0
 49
0.0
140
0.0
141
0.0
142
1.0
143
1.0
 70
  1712
 72
     0
 73
     0
 74
     0
  7

 75
     0
147
1.0
148
0.0
149
0.0
100
AcDbLayout
  1
Model
 70
     1
 71
     0
 10
0.0
 20
0.0
 11
12.0
 21
9.0
 12
0.0
 22
0.0
 32
0.0
 14
0.0
 24
0.0
 34
0.0
 15
0.0
 25
0.0
 35
0.0
146
0.0
 13
0.0
 23
0.0
 33
0.0
 16
1.0
 26
0.0
 36
0.0
 17
0.0
 27
1.0
 37
0.0
 76
     0
330
528
  0
MLINESTYLE
  5
521
102
{ACAD_REACTORS
330
520
102
}
330
520
100
AcDbMlineStyle
  2
STANDARD
 70
     0
  3

 62
   256
 51
90.0
 52
90.0
 71
     2
 49
0.5
 62
   256
  6
BYLAYER
 49
-0.5
 62
   256
  6
BYLAYER
  0
ACDBPLACEHOLDER
  5
519
102
{ACAD_REACTORS
330
518
102
}
330
518
  0
XRECORD
  5
547
102
{ACAD_REACTORS
330
53D
102
}
330
53D
100
AcDbXrecord
280
     1
 90
        0
  0
XRECORD
  5
54B
102
{ACAD_REACTORS
330
53D
102
}
330
53D
100
AcDbXrecord
280
     1
1000
DSTYLE
1002
{
1070
   279
 70
     2
1002
}
  0
XRECORD
  5
548
102
{ACAD_REACTORS
330
53D
102
}
330
53D
100
AcDbXrecord
280
     1
  1
{5EC60FCB-F02C-457A-95A4-EFA3E60A441A}
  0
XRECORD
  5
540
102
{ACAD_REACTORS
330
53D
102
}
330
53D
100
AcDbXrecord
280
     1
  1

  0
XRECORD
  5
546
102
{ACAD_REACTORS
330
53D
102
}
330
53D
100
AcDbXrecord
280
     1
 90
        0
  0
XRECORD
  5
542
102
{ACAD_REACTORS
330
53D
102
}
330
53D
100
AcDbXrecord
280
     1
340
523
  0
XRECORD
  5
545
102
{ACAD_REACTORS
330
53D
102
}
330
53D
100
AcDbXrecord
280
     1
 90
    14877
  0
XRECORD
  5
543
102
{ACAD_REACTORS
330
53D
102
}
330
53D
100
AcDbXrecord
280
     1
340
522
  0
XRECORD
  5
544
102
{ACAD_REACTORS
330
53D
102
}
330
53D
100
AcDbXrecord
280
     1
340
518
  0
XRECORD
  5
54A
102
{ACAD_REACTORS
330
53D
102
}
330
53D
100
AcDbXrecord
280
     1
 40
0.0
  0
XRECORD
  5
54E
102
{ACAD_REACTORS
330
53D
102
}
330
53D
100
AcDbXrecord
280
     1
340
0
  0
XRECORD
  5
554
102
{ACAD_REACTORS
330
53D
102
}
330
53D
100
AcDbXrecord
280
     1
 10
0.0
 20
0.0
 30
0.0
  0
XRECORD
  5
550
102
{ACAD_REACTORS
330
53D
102
}
330
53D
100
AcDbXrecord
280
     1
 10
0.0
 20
0.0
 30
0.0
  0
XRECORD
  5
553
102
{ACAD_REACTORS
330
53D
102
}
330
53D
100
AcDbXrecord
280
     1
 10
0.0
 20
0.0
 30
0.0
  0
XRECORD
  5
551
102
{ACAD_REACTORS
330
53D
102
}
330
53D
100
AcDbXrecord
280
     1
 10
0.0
 20
0.0
 30
0.0
  0
XRECORD
  5
552
102
{ACAD_REACTORS
330
53D
102
}
330
53D
100
AcDbXrecord
280
     1
 10
0.0
 20
0.0
 30
0.0
  0
XRECORD
  5
54F
102
{ACAD_REACTORS
330
53D
102
}
330
53D
100
AcDbXrecord
280
     1
 10
0.0
 20
0.0
 30
0.0
  0
XRECORD
  5
54C
102
{ACAD_REACTORS
330
53D
102
}
330
53D
100
AcDbXrecord
280
     1
340
0
  0
XRECORD
  5
54D
102
{ACAD_REACTORS
330
53D
102
}
330
53D
100
AcDbXrecord
280
     1
 70
     0
  0
XRECORD
  5
541
102
{ACAD_REACTORS
330
53D
102
}
330
53D
100
AcDbXrecord
280
     1
  1

  0
XRECORD
  5
53E
102
{ACAD_REACTORS
330
53D
102
}
330
53D
100
AcDbXrecord
280
     1
 90
        1
  0
XRECORD
  5
53F
102
{ACAD_REACTORS
330
53D
102
}
330
53D
100
AcDbXrecord
280
     1
 90
       70
  0
XRECORD
  5
557
102
{ACAD_REACTORS
330
53D
102
}
330
53D
100
AcDbXrecord
280
     1
340
0
  0
XRECORD
  5
55D
102
{ACAD_REACTORS
330
53D
102
}
330
53D
100
AcDbXrecord
280
     1
 10
0.0
 20
0.0
 30
0.0
  0
XRECORD
  5
559
102
{ACAD_REACTORS
330
53D
102
}
330
53D
100
AcDbXrecord
280
     1
 10
0.0
 20
0.0
 30
0.0
  0
XRECORD
  5
55C
102
{ACAD_REACTORS
330
53D
102
}
330
53D
100
AcDbXrecord
280
     1
 10
0.0
 20
0.0
 30
0.0
  0
XRECORD
  5
55A
102
{ACAD_REACTORS
330
53D
102
}
330
53D
100
AcDbXrecord
280
     1
 10
0.0
 20
0.0
 30
0.0
  0
XRECORD
  5
55B
102
{ACAD_REACTORS
330
53D
102
}
330
53D
100
AcDbXrecord
280
     1
 10
0.0
 20
0.0
 30
0.0
  0
XRECORD
  5
558
102
{ACAD_REACTORS
330
53D
102
}
330
53D
100
AcDbXrecord
280
     1
 10
0.0
 20
0.0
 30
0.0
  0
XRECORD
  5
555
102
{ACAD_REACTORS
330
53D
102
}
330
53D
100
AcDbXrecord
280
     1
340
0
  0
XRECORD
  5
556
102
{ACAD_REACTORS
330
53D
102
}
330
53D
100
AcDbXrecord
280
     1
 70
     0
  0
XRECORD
  5
549
102
{ACAD_REACTORS
330
53D
102
}
330
53D
100
AcDbXrecord
280
     1
  1
{9A2B39F4-F299-4405-B4CE-52415A27FE37}
  0
DICTIONARYVAR
  5
53B
102
{ACAD_REACTORS
330
539
102
}
330
539
100
DictionaryVariables
280
     0
  1
2
  0
DICTIONARYVAR
  5
53A
102
{ACAD_REACTORS
330
539
102
}
330
539
100
DictionaryVariables
280
     0
  1
1
  0
ENDSEC
  0
EOF
