  0
SECTION
  2
HEADER
  9
$ACADVER
  1
AC1015
  9
$ACADMAINTVER
 70
     6
  9
$DWGCODEPAGE
  3
ANSI_1252
  9
$INSBASE
 10
0.0
 20
0.0
 30
0.0
  9
$EXTMIN
 10
-19.21941817413282
 20
-3.570945435863741
 30
0.0
  9
$EXTMAX
 10
5.792164000000013
 20
38.1554508564546
 30
0.0
  9
$LIMMIN
 10
0.0
 20
0.0
  9
$LIMMAX
 10
12.0
 20
9.0
  9
$ORTHOMODE
 70
     0
  9
$REGENMODE
 70
     1
  9
$FILLMODE
 70
     1
  9
$QTEXTMODE
 70
     0
  9
$MIRRTEXT
 70
     1
  9
$LTSCALE
 40
10.0
  9
$ATTMODE
 70
     1
  9
$TEXTSIZE
 40
0.2
  9
$TRACEWID
 40
0.05
  9
$TEXTSTYLE
  7
STANDARD
  9
$CLAYER
  8
0
  9
$CELTYPE
  6
ByLayer
  9
$CECOLOR
 62
   256
  9
$CELTSCALE
 40
1.0
  9
$DISPSILH
 70
     0
  9
$DIMSCALE
 40
1.0
  9
$DIMASZ
 40
0.18
  9
$DIMEXO
 40
0.0625
  9
$DIMDLI
 40
0.38
  9
$DIMRND
 40
0.0
  9
$DIMDLE
 40
0.0
  9
$DIMEXE
 40
0.18
  9
$DIMTP
 40
0.0
  9
$DIMTM
 40
0.0
  9
$DIMTXT
 40
0.18
  9
$DIMCEN
 40
0.09
  9
$DIMTSZ
 40
0.0
  9
$DIMTOL
 70
     0
  9
$DIMLIM
 70
     0
  9
$DIMTIH
 70
     1
  9
$DIMTOH
 70
     1
  9
$DIMSE1
 70
     0
  9
$DIMSE2
 70
     0
  9
$DIMTAD
 70
     0
  9
$DIMZIN
 70
     0
  9
$DIMBLK
  1

  9
$DIMASO
 70
     1
  9
$DIMSHO
 70
     1
  9
$DIMPOST
  1

  9
$DIMAPOST
  1

  9
$DIMALT
 70
     0
  9
$DIMALTD
 70
     2
  9
$DIMALTF
 40
25.4
  9
$DIMLFAC
 40
1.0
  9
$DIMTOFL
 70
     0
  9
$DIMTVP
 40
0.0
  9
$DIMTIX
 70
     0
  9
$DIMSOXD
 70
     0
  9
$DIMSAH
 70
     0
  9
$DIMBLK1
  1

  9
$DIMBLK2
  1

  9
$DIMSTYLE
  2
Standard
  9
$DIMCLRD
 70
     0
  9
$DIMCLRE
 70
     0
  9
$DIMCLRT
 70
     0
  9
$DIMTFAC
 40
1.0
  9
$DIMGAP
 40
0.09
  9
$DIMJUST
 70
     0
  9
$DIMSD1
 70
     0
  9
$DIMSD2
 70
     0
  9
$DIMTOLJ
 70
     1
  9
$DIMTZIN
 70
     0
  9
$DIMALTZ
 70
     0
  9
$DIMALTTZ
 70
     0
  9
$DIMUPT
 70
     0
  9
$DIMDEC
 70
     4
  9
$DIMTDEC
 70
     4
  9
$DIMALTU
 70
     2
  9
$DIMALTTD
 70
     2
  9
$DIMTXSTY
  7
STANDARD
  9
$DIMAUNIT
 70
     0
  9
$DIMADEC
 70
     0
  9
$DIMALTRND
 40
0.0
  9
$DIMAZIN
 70
     0
  9
$DIMDSEP
 70
    46
  9
$DIMATFIT
 70
     3
  9
$DIMFRAC
 70
     0
  9
$DIMLDRBLK
  1

  9
$DIMLUNIT
 70
     2
  9
$DIMLWD
 70
    -2
  9
$DIMLWE
 70
    -2
  9
$DIMTMOVE
 70
     2
  9
$LUNITS
 70
     2
  9
$LUPREC
 70
     4
  9
$SKETCHINC
 40
0.1
  9
$FILLETRAD
 40
0.5
  9
$AUNITS
 70
     0
  9
$AUPREC
 70
     0
  9
$MENU
  1
acad
  9
$ELEVATION
 40
0.0
  9
$PELEVATION
 40
0.0
  9
$THICKNESS
 40
0.0
  9
$LIMCHECK
 70
     0
  9
$CHAMFERA
 40
0.5
  9
$CHAMFERB
 40
0.5
  9
$CHAMFERC
 40
0.0
  9
$CHAMFERD
 40
0.0
  9
$SKPOLY
 70
     0
  9
$TDCREATE
 40
2452858.372005787
  9
$TDUCREATE
 40
2452858.663672453
  9
$TDUPDATE
 40
2453917.375674757
  9
$TDUUPDATE
 40
2453917.667341424
  9
$TDINDWG
 40
0.0033532523
  9
$TDUSRTIMER
 40
0.0033532523
  9
$USRTIMER
 70
     1
  9
$ANGBASE
 50
0.0
  9
$ANGDIR
 70
     0
  9
$PDMODE
 70
     0
  9
$PDSIZE
 40
0.0
  9
$PLINEWID
 40
0.0
  9
$SPLFRAME
 70
     0
  9
$SPLINETYPE
 70
     6
  9
$SPLINESEGS
 70
     8
  9
$HANDSEED
  5
55D
  9
$SURFTAB1
 70
     6
  9
$SURFTAB2
 70
     6
  9
$SURFTYPE
 70
     6
  9
$SURFU
 70
     6
  9
$SURFV
 70
     6
  9
$UCSBASE
  2

  9
$UCSNAME
  2

  9
$UCSORG
 10
0.0
 20
0.0
 30
0.0
  9
$UCSXDIR
 10
1.0
 20
0.0
 30
0.0
  9
$UCSYDIR
 10
0.0
 20
1.0
 30
0.0
  9
$UCSORTHOREF
  2

  9
$UCSORTHOVIEW
 70
     0
  9
$UCSORGTOP
 10
0.0
 20
0.0
 30
0.0
  9
$UCSORGBOTTOM
 10
0.0
 20
0.0
 30
0.0
  9
$UCSORGLEFT
 10
0.0
 20
0.0
 30
0.0
  9
$UCSORGRIGHT
 10
0.0
 20
0.0
 30
0.0
  9
$UCSORGFRONT
 10
0.0
 20
0.0
 30
0.0
  9
$UCSORGBACK
 10
0.0
 20
0.0
 30
0.0
  9
$PUCSBASE
  2

  9
$PUCSNAME
  2

  9
$PUCSORG
 10
0.0
 20
0.0
 30
0.0
  9
$PUCSXDIR
 10
1.0
 20
0.0
 30
0.0
  9
$PUCSYDIR
 10
0.0
 20
1.0
 30
0.0
  9
$PUCSORTHOREF
  2

  9
$PUCSORTHOVIEW
 70
     0
  9
$PUCSORGTOP
 10
0.0
 20
0.0
 30
0.0
  9
$PUCSORGBOTTOM
 10
0.0
 20
0.0
 30
0.0
  9
$PUCSORGLEFT
 10
0.0
 20
0.0
 30
0.0
  9
$PUCSORGRIGHT
 10
0.0
 20
0.0
 30
0.0
  9
$PUCSORGFRONT
 10
0.0
 20
0.0
 30
0.0
  9
$PUCSORGBACK
 10
0.0
 20
0.0
 30
0.0
  9
$USERI1
 70
     0
  9
$USERI2
 70
     0
  9
$USERI3
 70
     0
  9
$USERI4
 70
     0
  9
$USERI5
 70
     0
  9
$USERR1
 40
0.0
  9
$USERR2
 40
0.0
  9
$USERR3
 40
0.0
  9
$USERR4
 40
0.0
  9
$USERR5
 40
0.0
  9
$WORLDVIEW
 70
     1
  9
$SHADEDGE
 70
     3
  9
$SHADEDIF
 70
    70
  9
$TILEMODE
 70
     1
  9
$MAXACTVP
 70
    48
  9
$PINSBASE
 10
0.0
 20
0.0
 30
0.0
  9
$PLIMCHECK
 70
     0
  9
$PEXTMIN
 10
1.000000000000000E+20
 20
1.000000000000000E+20
 30
1.000000000000000E+20
  9
$PEXTMAX
 10
-1.000000000000000E+20
 20
-1.000000000000000E+20
 30
-1.000000000000000E+20
  9
$PLIMMIN
 10
0.0
 20
0.0
  9
$PLIMMAX
 10
12.0
 20
9.0
  9
$UNITMODE
 70
     0
  9
$VISRETAIN
 70
     1
  9
$PLINEGEN
 70
     0
  9
$PSLTSCALE
 70
     1
  9
$TREEDEPTH
 70
  3020
  9
$CMLSTYLE
  2
Standard
  9
$CMLJUST
 70
     0
  9
$CMLSCALE
 40
1.0
  9
$PROXYGRAPHICS
 70
     1
  9
$MEASUREMENT
 70
     0
  9
$CELWEIGHT
370
    -1
  9
$ENDCAPS
280
     0
  9
$JOINSTYLE
280
     0
  9
$LWDISPLAY
290
     0
  9
$INSUNITS
 70
     0
  9
$HYPERLINKBASE
  1

  9
$STYLESHEET
  1

  9
$XEDIT
290
     1
  9
$CEPSNTYPE
380
     0
  9
$PSTYLEMODE
290
     1
  9
$FINGERPRINTGUID
  2
{DBF96E4A-2807-40CA-9DD9-EA48103E6D03}
  9
$VERSIONGUID
  2
{30598E92-F5F7-4EDF-B92E-529A9E122112}
  9
$EXTNAMES
290
     1
  9
$PSVPSCALE
 40
0.0
  9
$OLESTARTUP
290
     0
  0
ENDSEC
  0
SECTION
  2
CLASSES
  0
CLASS
  1
ACDBDICTIONARYWDFLT
  2
AcDbDictionaryWithDefault
  3
AutoCAD 2000
 90
        0
280
     0
281
     0
  0
CLASS
  1
ACDBPLACEHOLDER
  2
AcDbPlaceHolder
  3
AutoCAD 2000
 90
        0
280
     0
281
     0
  0
CLASS
  1
LAYOUT
  2
AcDbLayout
  3
AutoCAD 2000
 90
        0
280
     0
281
     0
  0
CLASS
  1
DICTIONARYVAR
  2
AcDbDictionaryVar
  3
AutoCAD 2000
 90
        0
280
     0
281
     0
  0
ENDSEC
  0
SECTION
  2
TABLES
  0
TABLE
  2
VPORT
  5
512
330
0
100
AcDbSymbolTable
 70
     3
  0
VPORT
  5
53B
330
512
100
AcDbSymbolTableRecord
100
AcDbViewportTableRecord
  2
*Active
 70
     0
 10
0.0
 20
0.0
 11
1.0
 21
1.0
 12
13.21948991118563
 22
17.29225271029543
 13
0.0
 23
0.0
 14
0.5
 24
0.5
 15
0.5
 25
0.5
 16
0.0
 26
0.0
 36
1.0
 17
0.0
 27
0.0
 37
0.0
 40
41.72639629231834
 41
1.554838709677419
 42
50.0
 43
0.0
 44
0.0
 50
0.0
 51
0.0
 71
     0
 72
   100
 73
     1
 74
     3
 75
     0
 76
     0
 77
     0
 78
     0
281
     0
 65
     1
110
0.0
120
0.0
130
0.0
111
1.0
121
0.0
131
0.0
112
0.0
122
1.0
132
0.0
 79
     0
146
0.0
  0
ENDTAB
  0
TABLE
  2
LTYPE
  5
50F
330
0
100
AcDbSymbolTable
 70
     2
  0
LTYPE
  5
51D
330
50F
100
AcDbSymbolTableRecord
100
AcDbLinetypeTableRecord
  2
ByBlock
 70
     0
  3

 72
    65
 73
     0
 40
0.0
  0
LTYPE
  5
51E
330
50F
100
AcDbSymbolTableRecord
100
AcDbLinetypeTableRecord
  2
ByLayer
 70
     0
  3

 72
    65
 73
     0
 40
0.0
  0
LTYPE
  5
51F
330
50F
100
AcDbSymbolTableRecord
100
AcDbLinetypeTableRecord
  2
CONTINUOUS
 70
     0
  3
Solid line
 72
    65
 73
     0
 40
0.0
  0
LTYPE
  5
52C
330
50F
100
AcDbSymbolTableRecord
100
AcDbLinetypeTableRecord
  2
CENTER
 70
     0
  3
____ _ ____ _ ____ _ ____ _ ____ _ ____ _ ____
 72
    65
 73
     4
 40
2.0
 49
1.25
 74
     0
 49
-0.25
 74
     0
 49
0.25
 74
     0
 49
-0.25
 74
     0
  0
ENDTAB
  0
TABLE
  2
LAYER
  5
50C
330
0
100
AcDbSymbolTable
 70
     3
  0
LAYER
  5
51A
330
50C
100
AcDbSymbolTableRecord
100
AcDbLayerTableRecord
  2
0
 70
     0
 62
     7
  6
CONTINUOUS
370
    -3
390
519
  0
LAYER
  5
52F
330
50C
100
AcDbSymbolTableRecord
100
AcDbLayerTableRecord
  2
250
 70
     0
 62
     2
  6
CONTINUOUS
370
    -3
390
519
  0
LAYER
  5
530
330
50C
100
AcDbSymbolTableRecord
100
AcDbLayerTableRecord
  2
255
 70
     0
 62
     1
  6
CENTER
370
    -3
390
519
  0
ENDTAB
  0
TABLE
  2
STYLE
  5
50D
330
0
100
AcDbSymbolTable
 70
     1
  0
STYLE
  5
51B
330
50D
100
AcDbSymbolTableRecord
100
AcDbTextStyleTableRecord
  2
STANDARD
 70
     0
 40
0.0
 41
1.0
 50
0.0
 71
     0
 42
0.2
  3
txt
  4

  0
ENDTAB
  0
TABLE
  2
VIEW
  5
510
330
0
100
AcDbSymbolTable
 70
     0
  0
ENDTAB
  0
TABLE
  2
UCS
  5
511
330
0
100
AcDbSymbolTable
 70
     0
  0
ENDTAB
  0
TABLE
  2
APPID
  5
513
330
0
100
AcDbSymbolTable
 70
     1
  0
APPID
  5
51C
330
513
100
AcDbSymbolTableRecord
100
AcDbRegAppTableRecord
  2
ACAD
 70
     0
  0
ENDTAB
  0
TABLE
  2
DIMSTYLE
  5
514
330
0
100
AcDbSymbolTable
 70
     1
100
AcDbDimStyleTable
 71
     0
  0
DIMSTYLE
105
535
330
514
100
AcDbSymbolTableRecord
100
AcDbDimStyleTableRecord
  2
Standard
 70
     0
340
51B
  0
ENDTAB
  0
TABLE
  2
BLOCK_RECORD
  5
50B
330
0
100
AcDbSymbolTable
 70
     0
  0
BLOCK_RECORD
  5
528
330
50B
100
AcDbSymbolTableRecord
100
AcDbBlockTableRecord
  2
*Model_Space
340
52B
  0
BLOCK_RECORD
  5
524
330
50B
100
AcDbSymbolTableRecord
100
AcDbBlockTableRecord
  2
*Paper_Space
340
527
  0
ENDTAB
  0
ENDSEC
  0
SECTION
  2
BLOCKS
  0
BLOCK
  5
533
330
528
100
AcDbEntity
  8
0
100
AcDbBlockBegin
  2
*Model_Space
 70
     0
 10
0.0
 20
0.0
 30
0.0
  3
*Model_Space
  1

  0
ENDBLK
  5
534
330
528
100
AcDbEntity
  8
0
100
AcDbBlockEnd
  0
BLOCK
  5
531
330
524
100
AcDbEntity
 67
     1
  8
0
100
AcDbBlockBegin
  2
*Paper_Space
 70
     0
 10
0.0
 20
0.0
 30
0.0
  3
*Paper_Space
  1

  0
ENDBLK
  5
532
330
524
100
AcDbEntity
 67
     1
  8
0
100
AcDbBlockEnd
  0
ENDSEC
  0
SECTION
  2
ENTITIES
  0
LINE
  5
28D
330
528
100
AcDbEntity
  8
255
100
AcDbLine
 10
-2.367927999999949
 20
-3.570945435863741
 30
0.0
 11
-2.367927999999949
 21
38.1554508564546
 31
0.0
  0
LINE
  5
28F
330
528
100
AcDbEntity
  8
250
100
AcDbLine
 10
-14.66792799999996
 20
23.25223
 30
0.0
 11
-14.66792799999996
 21
31.31723
 31
0.0
  0
LINE
  5
290
330
528
100
AcDbEntity
  8
250
100
AcDbLine
 10
-14.06792799999999
 20
23.25223
 30
0.0
 11
-14.06792799999999
 21
31.31723
 31
0.0
  0
LINE
  5
291
330
528
100
AcDbEntity
  8
250
100
AcDbLine
 10
-2.66792799999996
 20
25.41723
 30
0.0
 11
-2.66792799999996
 21
31.31723
 31
0.0
  0
LINE
  5
292
330
528
100
AcDbEntity
  8
250
100
AcDbLine
 10
-2.067927999999994
 20
25.41723
 30
0.0
 11
-2.067927999999994
 21
31.31723
 31
0.0
  0
LINE
  5
2A9
330
528
100
AcDbEntity
  8
250
100
AcDbLine
 10
-0.7792299999999841
 20
0.9926260000000013
 30
0.0
 11
-0.7792299999999841
 21
-0.6388579999999991
 31
0.0
  0
LINE
  5
2AA
330
528
100
AcDbEntity
  8
250
100
AcDbLine
 10
-0.1479959999999778
 20
0.7000220000000042
 30
0.0
 11
-0.1479959999999778
 21
-0.7000219999999971
 31
0.0
  0
LINE
  5
2AB
330
528
100
AcDbEntity
  8
250
100
AcDbLine
 10
-0.5236819999999512
 20
0.7000220000000042
 30
0.0
 11
-0.5236819999999512
 21
-0.7000219999999971
 31
0.0
  0
LINE
  5
2AC
330
528
100
AcDbEntity
  8
250
100
AcDbLine
 10
0.0
 20
-1.013857999999999
 30
0.0
 11
0.0
 21
1.013857999999999
 31
0.0
  0
LINE
  5
2AD
330
528
100
AcDbEntity
  8
250
100
AcDbLine
 10
-1.304359999999974
 20
-0.6388579999999991
 30
0.0
 11
-1.304359999999974
 21
0.9926260000000013
 31
0.0
  0
LINE
  5
2B8
330
528
100
AcDbEntity
  8
250
100
AcDbLine
 10
0.0
 20
-1.013857999999999
 30
0.0
 11
-0.1479959999999778
 21
-0.6793580000000006
 31
0.0
  0
LINE
  5
2B9
330
528
100
AcDbEntity
  8
250
100
AcDbLine
 10
-0.5236819999999512
 20
-0.7000219999999971
 30
0.0
 11
-0.1479959999999778
 21
-0.7000219999999971
 31
0.0
  0
LINE
  5
2BA
330
528
100
AcDbEntity
  8
250
100
AcDbLine
 10
-0.7792299999999841
 20
-0.6388579999999991
 30
0.0
 11
-1.304359999999974
 21
-0.6388579999999991
 31
0.0
  0
ARC
  5
2BB
330
528
100
AcDbEntity
  8
250
100
AcDbCircle
 10
-4.173608449999903
 20
9.333861230923474
 30
0.0
 40
1.483237512499989
100
AcDbArc
 50
8.170911123354876
 51
66.1605170253212
  0
LINE
  5
2BC
330
528
100
AcDbEntity
  8
250
100
AcDbLine
 10
-1.753090272184067
 20
8.174607022562184
 30
0.0
 11
-2.982765727815774
 21
8.174607022562184
 31
0.0
  0
LINE
  5
2BD
330
528
100
AcDbEntity
  8
250
100
AcDbLine
 10
-1.753090272184067
 20
8.561459619761748
 30
0.0
 11
-2.982765727815774
 21
8.561459619761748
 31
0.0
  0
LINE
  5
2BE
330
528
100
AcDbEntity
  8
250
100
AcDbLine
 10
-2.88383669999996
 20
8.174607022562184
 30
0.0
 11
-1.852019299999994
 21
8.174607022562184
 31
0.0
  0
LINE
  5
2BF
330
528
100
AcDbEntity
  8
250
100
AcDbLine
 10
-2.001134712241707
 20
7.507298829459344
 30
0.0
 11
-2.722822548728743
 21
7.507298829459344
 31
0.0
  0
ARC
  5
2C0
330
528
100
AcDbEntity
  8
250
100
AcDbCircle
 10
-2.365822157859327
 20
6.884404671599995
 30
0.0
 40
0.3125
100
AcDbArc
 50
293.5781784782057
 51
246.4218215218031
  0
LINE
  5
2C1
330
528
100
AcDbEntity
  8
250
100
AcDbLine
 10
-2.722822548728743
 20
6.257298829459344
 30
0.0
 11
-2.490822157859327
 21
6.257298829459344
 31
0.0
  0
LINE
  5
2C2
330
528
100
AcDbEntity
  8
250
100
AcDbLine
 10
-2.66792799999996
 20
25.66723
 30
0.0
 11
-2.067927999999994
 21
25.66723
 31
0.0
  0
LINE
  5
2C3
330
528
100
AcDbEntity
  8
250
100
AcDbLine
 10
-2.907452999999975
 20
21.73723
 30
0.0
 11
-1.65592399999997
 21
21.73723
 31
0.0
  0
LINE
  5
2C4
330
528
100
AcDbEntity
  8
250
100
AcDbLine
 10
-1.611402999999995
 20
21.36223
 30
0.0
 11
-3.124452999999959
 21
21.36223
 31
0.0
  0
LINE
  5
2C5
330
528
100
AcDbEntity
  8
250
100
AcDbLine
 10
-3.00301399999995
 20
22.087679
 30
0.0
 11
-1.69051399999995
 21
22.087679
 31
0.0
  0
LINE
  5
2C6
330
528
100
AcDbEntity
  8
250
100
AcDbLine
 10
-1.69051399999995
 20
23.248693
 30
0.0
 11
-3.00301399999995
 21
23.148693
 31
0.0
  0
LINE
  5
2C7
330
528
100
AcDbEntity
  8
250
100
AcDbLine
 10
-2.052927999999951
 20
25.41723
 30
0.0
 11
-2.682927999999947
 21
25.41723
 31
0.0
  0
LINE
  5
2C8
330
528
100
AcDbEntity
  8
250
100
AcDbLine
 10
-1.837927999999976
 20
24.23722999999999
 30
0.0
 11
-2.897927999999978
 21
24.23722999999999
 31
0.0
  0
LINE
  5
2C9
330
528
100
AcDbEntity
  8
250
100
AcDbLine
 10
-2.800927999999998
 20
24.54223
 30
0.0
 11
-1.934927999999956
 21
24.54223
 31
0.0
  0
LINE
  5
2CA
330
528
100
AcDbEntity
  8
250
100
AcDbLine
 10
-2.717927999999972
 20
24.76722999999999
 30
0.0
 11
-2.017927999999983
 21
24.76722999999999
 31
0.0
  0
LINE
  5
2CB
330
528
100
AcDbEntity
  8
250
100
AcDbLine
 10
-1.69051399999995
 20
23.998693
 30
0.0
 11
-3.00301399999995
 21
23.898693
 31
0.0
  0
LINE
  5
2CC
330
528
100
AcDbEntity
  8
250
100
AcDbLine
 10
-1.69051399999995
 20
24.748693
 30
0.0
 11
-3.00301399999995
 21
24.648693
 31
0.0
  0
LINE
  5
2CD
330
528
100
AcDbEntity
  8
250
100
AcDbLine
 10
-1.69051399999995
 20
22.498693
 30
0.0
 11
-3.00301399999995
 21
22.398693
 31
0.0
  0
LINE
  5
2CE
330
528
100
AcDbEntity
  8
250
100
AcDbLine
 10
-1.867895999999973
 20
19.69987899999999
 30
0.0
 11
-2.867895999999973
 21
19.69987899999999
 31
0.0
  0
LINE
  5
2CF
330
528
100
AcDbEntity
  8
250
100
AcDbLine
 10
-2.867895999999973
 20
19.19987899999999
 30
0.0
 11
-1.867895999999973
 21
19.19987899999999
 31
0.0
  0
LINE
  5
2D0
330
528
100
AcDbEntity
  8
250
100
AcDbLine
 10
-1.690223999999943
 20
25.498715
 30
0.0
 11
-3.002723999999943
 21
25.398715
 31
0.0
  0
LINE
  5
2D1
330
528
100
AcDbEntity
  8
250
100
AcDbLine
 10
-2.88383669999996
 20
5.611142
 30
0.0
 11
-1.852019299999994
 21
5.611142
 31
0.0
  0
LINE
  5
2D2
330
528
100
AcDbEntity
  8
250
100
AcDbLine
 10
-2.978881999999998
 20
1.236142
 30
0.0
 11
-1.756974999999954
 21
1.236142
 31
0.0
  0
LINE
  5
2D3
330
528
100
AcDbEntity
  8
250
100
AcDbLine
 10
-2.492927999999949
 20
3.173642
 30
0.0
 11
-2.742927999999949
 21
3.173642
 31
0.0
  0
LINE
  5
2D4
330
528
100
AcDbEntity
  8
250
100
AcDbLine
 10
-2.981007999999974
 20
1.736142
 30
0.0
 11
-1.754847999999981
 21
1.736142
 31
0.0
  0
LINE
  5
2D5
330
528
100
AcDbEntity
  8
250
100
AcDbLine
 10
-2.793895999999961
 20
2.423642
 30
0.0
 11
-1.941959999999994
 21
2.423642
 31
0.0
  0
LINE
  5
2D6
330
528
100
AcDbEntity
  8
250
100
AcDbLine
 10
-2.981007999999974
 20
2.236142
 30
0.0
 11
-1.754847999999981
 21
2.236142
 31
0.0
  0
LINE
  5
2D7
330
528
100
AcDbEntity
  8
250
100
AcDbLine
 10
-2.742927999999949
 20
3.173642
 30
0.0
 11
-2.617927999999949
 21
2.548642
 31
0.0
  0
LINE
  5
2D8
330
528
100
AcDbEntity
  8
250
100
AcDbLine
 10
-2.978881999999998
 20
-0.4691309999999973
 30
0.0
 11
-1.756974999999954
 21
-0.4691309999999973
 31
0.0
  0
LINE
  5
2D9
330
528
100
AcDbEntity
  8
255
100
AcDbLine
 10
5.792164000000013
 20
-0.0138579999999991
 30
0.0
 11
-10.52801999999996
 21
-0.0138579999999991
 31
0.0
  0
LINE
  5
2DA
330
528
100
AcDbEntity
  8
250
100
AcDbLine
 10
-13.693933110311
 20
14.56973983053237
 30
0.0
 11
-3.574119880584532
 21
10.69055094254786
 31
0.0
  0
LINE
  5
2DB
330
528
100
AcDbEntity
  8
250
100
AcDbLine
 10
-13.42623899999992
 20
15.1561435968491
 30
0.0
 11
-3.306965821055825
 21
11.27752779340823
 31
0.0
  0
LINE
  5
2DC
330
528
100
AcDbEntity
  8
250
100
AcDbLine
 10
-13.11113999999997
 20
11.977857
 30
0.0
 11
-13.11113999999997
 21
12.759107
 31
0.0
  0
LINE
  5
2DD
330
528
100
AcDbEntity
  8
250
100
AcDbLine
 10
-15.61113999999997
 20
11.977857
 30
0.0
 11
-15.61113999999997
 21
12.759107
 31
0.0
  0
LINE
  5
2E2
330
528
100
AcDbEntity
  8
250
100
AcDbLine
 10
-2.705427999999983
 20
19.19987899999999
 30
0.0
 11
-2.705427999999983
 21
8.174607022562184
 31
0.0
  0
LINE
  5
342
330
528
100
AcDbEntity
  8
250
100
AcDbLine
 10
-2.88383669999996
 20
5.611142
 30
0.0
 11
-2.88383669999996
 21
6.536183520198747
 31
0.0
  0
LINE
  5
343
330
528
100
AcDbEntity
  8
250
100
AcDbLine
 10
-2.705427999999983
 20
2.986142
 30
0.0
 11
-2.705427999999983
 21
2.423642
 31
0.0
  0
LINE
  5
344
330
528
100
AcDbEntity
  8
250
100
AcDbLine
 10
-2.978881999999998
 20
1.236142
 30
0.0
 11
-2.978881999999998
 21
-0.4691309999999973
 31
0.0
  0
LINE
  5
345
330
528
100
AcDbEntity
  8
250
100
AcDbLine
 10
-2.918507999999974
 20
2.236142
 30
0.0
 11
-2.793895999999961
 21
2.423642
 31
0.0
  0
LINE
  5
346
330
528
100
AcDbEntity
  8
250
100
AcDbLine
 10
-2.981007999999974
 20
2.236142
 30
0.0
 11
-2.981007999999974
 21
1.736142
 31
0.0
  0
LINE
  5
347
330
528
100
AcDbEntity
  8
250
100
AcDbLine
 10
-2.867927999999949
 20
1.736142
 30
0.0
 11
-2.867927999999949
 21
1.236142
 31
0.0
  0
LINE
  5
348
330
528
100
AcDbEntity
  8
250
100
AcDbLine
 10
-2.71203910289995
 20
5.611142
 30
0.0
 11
-2.71203910289995
 21
3.173642
 31
0.0
  0
LINE
  5
349
330
528
100
AcDbEntity
  8
250
100
AcDbLine
 10
-15.61113999999997
 20
11.977857
 30
0.0
 11
-13.11113999999997
 21
11.977857
 31
0.0
  0
LINE
  5
34A
330
528
100
AcDbEntity
  8
250
100
AcDbLine
 10
-2.88383669999996
 20
7.228414138719969
 30
0.0
 11
-2.88383669999996
 21
8.174607022562184
 31
0.0
  0
LINE
  5
34B
330
528
100
AcDbEntity
  8
250
100
AcDbLine
 10
-2.722822548728743
 20
7.507298829459344
 30
0.0
 11
-3.08366646697226
 21
6.882298829459358
 31
0.0
  0
LINE
  5
34C
330
528
100
AcDbEntity
  8
250
100
AcDbLine
 10
-3.08366646697226
 20
6.882298829459358
 30
0.0
 11
-2.722822548728743
 21
6.257298829459344
 31
0.0
  0
LINE
  5
34D
330
528
100
AcDbEntity
  8
250
100
AcDbLine
 10
-2.982765727815774
 20
8.561459619761748
 30
0.0
 11
-2.982765727815774
 21
8.174607022562184
 31
0.0
  0
ARC
  5
34E
330
528
100
AcDbEntity
  8
250
100
AcDbCircle
 10
-4.173608449999903
 20
9.33386123092346
 30
0.0
 40
2.128123387499993
100
AcDbArc
 50
46.37824812650129
 51
65.96884926579157
  0
LINE
  5
390
330
528
100
AcDbEntity
  8
250
100
AcDbLine
 10
-2.867895999999973
 20
19.69987899999999
 30
0.0
 11
-2.867895999999973
 21
19.19987899999999
 31
0.0
  0
LINE
  5
391
330
528
100
AcDbEntity
  8
250
100
AcDbLine
 10
-15.36113999999997
 20
18.80105
 30
0.0
 11
-15.48613999999997
 21
19.67605
 31
0.0
  0
LINE
  5
392
330
528
100
AcDbEntity
  8
250
100
AcDbLine
 10
-15.69396999999997
 20
19.62155
 30
0.0
 11
-15.64953099999996
 21
18.777612
 31
0.0
  0
LINE
  5
393
330
528
100
AcDbEntity
  8
250
100
AcDbLine
 10
-13.96167799999995
 20
21.924565
 30
0.0
 11
-13.96167799999995
 21
16.03723
 31
0.0
  0
LINE
  5
394
330
528
100
AcDbEntity
  8
250
100
AcDbLine
 10
-14.77417799999995
 20
21.924565
 30
0.0
 11
-14.77417799999995
 21
16.03723
 31
0.0
  0
LINE
  5
395
330
528
100
AcDbEntity
  8
250
100
AcDbLine
 10
-15.61113999999997
 20
12.759107
 30
0.0
 11
-13.11113999999997
 21
12.759107
 31
0.0
  0
LINE
  5
396
330
528
100
AcDbEntity
  8
250
100
AcDbLine
 10
-15.6628409075729
 20
16.01341065064989
 30
0.0
 11
-15.3988761744942
 21
15.91223561888966
 31
0.0
  0
ARC
  5
397
330
528
100
AcDbEntity
  8
250
100
AcDbCircle
 10
-16.56222471436785
 20
14.0846758527838
 30
0.0
 40
2.128123387500028
100
AcDbArc
 50
65.00000000000028
 51
179.9999999999983
  0
ARC
  5
398
330
528
100
AcDbEntity
  8
250
100
AcDbCircle
 10
-16.56222471436785
 20
14.0846758527838
 30
0.0
 40
1.483237512500034
100
AcDbArc
 50
65.00000000000028
 51
179.9999999999983
  0
LINE
  5
399
330
528
100
AcDbEntity
  8
250
100
AcDbLine
 10
-14.02310299999999
 20
15.76223
 30
0.0
 11
-14.03166399999997
 21
16.03723
 31
0.0
  0
LINE
  5
39A
330
528
100
AcDbEntity
  8
250
100
AcDbLine
 10
-14.71275299999996
 20
15.76223
 30
0.0
 11
-14.70419299999997
 21
16.03723
 31
0.0
  0
LINE
  5
39B
330
528
100
AcDbEntity
  8
250
100
AcDbLine
 10
-15.11113999999997
 20
14.80105
 30
0.0
 11
-15.36113999999997
 21
18.80105
 31
0.0
  0
LINE
  5
39C
330
528
100
AcDbEntity
  8
250
100
AcDbLine
 10
-15.64953099999996
 20
18.777612
 30
0.0
 11
-15.25492099999996
 21
14.26660299999999
 31
0.0
  0
LINE
  5
39D
330
528
100
AcDbEntity
  8
250
100
AcDbLine
 10
-18.82771594752412
 20
12.6945179366382
 30
0.0
 11
-17.90814005247568
 21
12.6945179366382
 31
0.0
  0
LINE
  5
39E
330
528
100
AcDbEntity
  8
250
100
AcDbLine
 10
-18.04578496325427
 20
13.50427856528385
 30
0.0
 11
-18.69002536548154
 21
13.50427856528385
 31
0.0
  0
LINE
  5
39F
330
528
100
AcDbEntity
  8
250
100
AcDbLine
 10
-18.04546222686789
 20
13.50427856528385
 30
0.0
 11
-18.69034810186789
 21
13.50427856528385
 31
0.0
  0
LINE
  5
3A0
330
528
100
AcDbEntity
  8
250
100
AcDbLine
 10
-18.69002536548154
 20
13.50427856528385
 30
0.0
 11
-18.8263069890296
 21
13.30605074921392
 31
0.0
  0
LINE
  5
3A1
330
528
100
AcDbEntity
  8
250
100
AcDbLine
 10
-18.8263069890296
 20
13.30605074921392
 30
0.0
 11
-18.82771594752412
 21
12.6945179366382
 31
0.0
  0
LINE
  5
3A2
330
528
100
AcDbEntity
  8
250
100
AcDbLine
 10
-18.69034810186789
 20
13.50427856528385
 30
0.0
 11
-18.69034810186789
 21
14.08467585278385
 31
0.0
  0
CIRCLE
  5
3A3
330
528
100
AcDbEntity
  8
250
100
AcDbCircle
 10
-14.86113999999997
 20
14.30105
 30
0.0
 40
0.176777
  0
ARC
  5
3A4
330
528
100
AcDbEntity
  8
250
100
AcDbCircle
 10
-14.86113999999997
 20
14.30105
 30
0.0
 40
0.395285
100
AcDbArc
 50
184.9993340000001
 51
90.0
  0
ARC
  5
3A5
330
528
100
AcDbEntity
  8
250
100
AcDbCircle
 10
-12.22803999999996
 20
13.821345
 30
0.0
 40
1.645884999999999
100
AcDbArc
 50
136.7187790000004
 51
184.89219
  0
LINE
  5
3A6
330
528
100
AcDbEntity
  8
250
100
AcDbLine
 10
-17.90814005247568
 20
12.6945179366382
 30
0.0
 11
-17.90814005247568
 21
13.30605074921392
 31
0.0
  0
LINE
  5
3A7
330
528
100
AcDbEntity
  8
250
100
AcDbLine
 10
-18.04546222686789
 20
13.50427856528385
 30
0.0
 11
-18.04546222686789
 21
14.08467585278383
 31
0.0
  0
LINE
  5
3A8
330
528
100
AcDbEntity
  8
250
100
AcDbLine
 10
-17.90950333970619
 20
13.30605074921392
 30
0.0
 11
-18.04578496325427
 21
13.50427856528385
 31
0.0
  0
LINE
  5
3A9
330
528
100
AcDbEntity
  8
250
100
AcDbLine
 10
-13.86792799999994
 20
13.930982
 30
0.0
 11
-14.722217
 21
13.930982
 31
0.0
  0
LINE
  5
3AA
330
528
100
AcDbEntity
  8
250
100
AcDbLine
 10
-13.86792799999994
 20
13.424401
 30
0.0
 11
-13.86792799999994
 21
13.680982
 31
0.0
  0
ARC
  5
3AB
330
528
100
AcDbEntity
  8
250
100
AcDbCircle
 10
-14.17653899999999
 20
12.593268
 30
0.0
 40
0.88658
100
AcDbArc
 50
10.7816329999997
 51
69.62937600000124
  0
ARC
  5
3AC
330
528
100
AcDbEntity
  8
250
100
AcDbCircle
 10
-14.55931699999996
 20
12.593268
 30
0.0
 40
0.88658
100
AcDbArc
 50
110.3706239999987
 51
169.2183670000002
  0
LINE
  5
3AD
330
528
100
AcDbEntity
  8
250
100
AcDbLine
 10
-13.86792799999994
 20
13.680982
 30
0.0
 11
-14.86792799999995
 21
13.680982
 31
0.0
  0
LINE
  5
3AE
330
528
100
AcDbEntity
  8
250
100
AcDbLine
 10
-14.86792799999995
 20
13.424401
 30
0.0
 11
-14.86792799999995
 21
13.905824
 31
0.0
  0
LINE
  5
3AF
330
528
100
AcDbEntity
  8
250
100
AcDbLine
 10
-15.93538145508651
 20
15.42894556038745
 30
0.0
 11
-15.33651811915896
 21
15.19938559268693
 31
0.0
  0
LINE
  5
3B0
330
528
100
AcDbEntity
  8
250
100
AcDbLine
 10
-15.13111494934835
 20
15.12064918957371
 30
0.0
 11
-15.04464799999999
 21
15.0875041481114
 31
0.0
  0
LINE
  5
3B1
330
528
100
AcDbEntity
  8
250
100
AcDbLine
 10
-15.17523155511642
 20
15.826514881863
 30
0.0
 11
-14.93389799999997
 21
15.73401415337954
 31
0.0
  0
LINE
  5
3B2
330
528
100
AcDbEntity
  8
250
100
AcDbLine
 10
-15.19392899999997
 20
15.999689
 30
0.0
 11
-15.40175899999997
 21
15.94518899999999
 31
0.0
  0
LINE
  5
3B3
330
528
100
AcDbEntity
  8
250
100
AcDbLine
 10
-14.933898
 20
15.579178
 30
0.0
 11
-15.04464799999999
 21
15.579178
 31
0.0
  0
LINE
  5
3B4
330
528
100
AcDbEntity
  8
250
100
AcDbLine
 10
-14.933898
 20
15.76223
 30
0.0
 11
-13.42623899999995
 21
15.76223
 31
0.0
  0
LINE
  5
3B5
330
528
100
AcDbEntity
  8
250
100
AcDbLine
 10
-14.86113999999997
 20
14.69633499999999
 30
0.0
 11
-15.11113999999997
 21
14.80105
 31
0.0
  0
LINE
  5
3B6
330
528
100
AcDbEntity
  8
250
100
AcDbLine
 10
-14.933898
 20
14.949178
 30
0.0
 11
-15.04464799999999
 21
14.949178
 31
0.0
  0
LINE
  5
3B7
330
528
100
AcDbEntity
  8
250
100
AcDbLine
 10
-13.42623899999995
 20
14.84778
 30
0.0
 11
-13.42623899999995
 21
15.86418
 31
0.0
  0
LINE
  5
3B8
330
528
100
AcDbEntity
  8
250
100
AcDbLine
 10
-14.933898
 20
14.72681
 30
0.0
 11
-14.933898
 21
15.76223
 31
0.0
  0
LINE
  5
3B9
330
528
100
AcDbEntity
  8
250
100
AcDbLine
 10
-15.04464799999999
 20
15.579178
 30
0.0
 11
-15.04464799999999
 21
14.949178
 31
0.0
  0
LINE
  5
3BA
330
528
100
AcDbEntity
  8
250
100
AcDbLine
 10
-14.87612799999999
 20
16.03723
 30
0.0
 11
-13.85972799999996
 21
16.03723
 31
0.0
  0
LINE
  5
3BB
330
528
100
AcDbEntity
  8
250
100
AcDbLine
 10
-14.03042799999997
 20
23.25223
 30
0.0
 11
-14.03042799999997
 21
21.924565
 31
0.0
  0
LINE
  5
3BC
330
528
100
AcDbEntity
  8
250
100
AcDbLine
 10
-14.70542799999998
 20
23.25223
 30
0.0
 11
-14.70542799999998
 21
21.924565
 31
0.0
  0
LINE
  5
3BD
330
528
100
AcDbEntity
  8
250
100
AcDbLine
 10
-15.48613999999997
 20
19.67605
 30
0.0
 11
-15.69396999999997
 21
19.62155
 31
0.0
  0
LINE
  5
3BE
330
528
100
AcDbEntity
  8
250
100
AcDbLine
 10
-14.87612799999999
 20
21.924565
 30
0.0
 11
-13.85972799999996
 21
21.924565
 31
0.0
  0
LINE
  5
3BF
330
528
100
AcDbEntity
  8
250
100
AcDbLine
 10
-14.03042799999997
 20
23.25223
 30
0.0
 11
-14.70542799999998
 21
23.25223
 31
0.0
  0
LINE
  5
3C0
330
528
100
AcDbEntity
  8
250
100
AcDbLine
 10
-2.897927999999978
 20
21.73723
 30
0.0
 11
-2.897927999999978
 21
24.23722999999999
 31
0.0
  0
LINE
  5
3C1
330
528
100
AcDbEntity
  8
250
100
AcDbLine
 10
-2.705427999999983
 20
21.36223
 30
0.0
 11
-2.705427999999983
 21
19.69987899999999
 31
0.0
  0
ARC
  5
3C2
330
528
100
AcDbEntity
  8
250
100
AcDbCircle
 10
-4.742927999999949
 20
21.54973
 30
0.0
 40
0.1875
100
AcDbArc
 50
90.0
 51
270.0
  0
LINE
  5
3C3
330
528
100
AcDbEntity
  8
250
100
AcDbLine
 10
-2.897927999999978
 20
21.73723
 30
0.0
 11
-4.742927999999949
 21
21.73723
 31
0.0
  0
LINE
  5
3C4
330
528
100
AcDbEntity
  8
250
100
AcDbLine
 10
-2.897927999999978
 20
21.36223
 30
0.0
 11
-4.742927999999949
 21
21.36223
 31
0.0
  0
LINE
  5
3C5
330
528
100
AcDbEntity
  8
250
100
AcDbLine
 10
-2.705427999999983
 20
24.54223
 30
0.0
 11
-2.705427999999983
 21
24.23722999999999
 31
0.0
  0
LINE
  5
3C6
330
528
100
AcDbEntity
  8
250
100
AcDbLine
 10
-2.682927999999947
 20
24.76722999999999
 30
0.0
 11
-2.682927999999947
 21
25.41723
 31
0.0
  0
LINE
  5
3C7
330
528
100
AcDbEntity
  8
250
100
AcDbLine
 10
-2.717927999999972
 20
24.54223
 30
0.0
 11
-2.717927999999972
 21
24.76722999999999
 31
0.0
  0
LINE
  5
3C8
330
528
100
AcDbEntity
  8
250
100
AcDbLine
 10
-2.030427999999972
 20
19.19987899999999
 30
0.0
 11
-2.030427999999972
 21
8.174607022562184
 31
0.0
  0
LINE
  5
3C9
330
528
100
AcDbEntity
  8
250
100
AcDbLine
 10
-2.240822157859327
 20
4.884404671599995
 30
0.0
 11
-2.240822157859327
 21
6.597993690665262
 31
0.0
  0
LINE
  5
3CA
330
528
100
AcDbEntity
  8
250
100
AcDbLine
 10
-2.490822157859327
 20
4.884404671599995
 30
0.0
 11
-2.490822157859327
 21
6.597993690665234
 31
0.0
  0
LINE
  5
3CB
330
528
100
AcDbEntity
  8
250
100
AcDbLine
 10
-1.852019299999994
 20
5.611142
 30
0.0
 11
-1.852019299999994
 21
6.515574299653749
 31
0.0
  0
LINE
  5
3CC
330
528
100
AcDbEntity
  8
250
100
AcDbLine
 10
-2.030427999999972
 20
2.986142
 30
0.0
 11
-2.030427999999972
 21
2.423642
 31
0.0
  0
LINE
  5
3CD
330
528
100
AcDbEntity
  8
250
100
AcDbLine
 10
-2.117927999999949
 20
2.548642
 30
0.0
 11
-1.992927999999949
 21
3.173642
 31
0.0
  0
LINE
  5
3CE
330
528
100
AcDbEntity
  8
250
100
AcDbLine
 10
-2.242927999999949
 20
3.236142
 30
0.0
 11
-2.242927999999949
 21
2.548642
 31
0.0
  0
LINE
  5
3CF
330
528
100
AcDbEntity
  8
250
100
AcDbLine
 10
-2.492927999999949
 20
3.236142
 30
0.0
 11
-2.492927999999949
 21
2.548642
 31
0.0
  0
LINE
  5
3D0
330
528
100
AcDbEntity
  8
250
100
AcDbLine
 10
-1.756974999999954
 20
1.236142
 30
0.0
 11
-1.756974999999954
 21
-0.4691309999999973
 31
0.0
  0
LINE
  5
3D1
330
528
100
AcDbEntity
  8
250
100
AcDbLine
 10
0.0
 20
1.013857999999999
 30
0.0
 11
-0.1479959999999778
 21
0.6793589999999981
 31
0.0
  0
LINE
  5
3D2
330
528
100
AcDbEntity
  8
250
100
AcDbLine
 10
-0.7792299999999841
 20
0.5513729999999982
 30
0.0
 11
-0.5236819999999512
 21
0.5513729999999982
 31
0.0
  0
LINE
  5
3D3
330
528
100
AcDbEntity
  8
250
100
AcDbLine
 10
-0.5236819999999512
 20
0.3733660000000043
 30
0.0
 11
-0.1479959999999778
 21
0.3733660000000043
 31
0.0
  0
LINE
  5
3D4
330
528
100
AcDbEntity
  8
250
100
AcDbLine
 10
-0.5236819999999512
 20
0.7000220000000042
 30
0.0
 11
-0.1479959999999778
 21
0.7000220000000042
 31
0.0
  0
LINE
  5
3D5
330
528
100
AcDbEntity
  8
250
100
AcDbLine
 10
-1.304359999999974
 20
0.7019850000000006
 30
0.0
 11
-1.756974999999954
 21
0.7019850000000006
 31
0.0
  0
LINE
  5
3D6
330
528
100
AcDbEntity
  8
250
100
AcDbLine
 10
-0.7792299999999841
 20
0.9926260000000013
 30
0.0
 11
-1.304359999999974
 21
0.9926260000000013
 31
0.0
  0
LINE
  5
3D7
330
528
100
AcDbEntity
  8
250
100
AcDbLine
 10
-0.7792299999999841
 20
-0.5513729999999982
 30
0.0
 11
-0.5236489999999776
 21
-0.5513729999999982
 31
0.0
  0
LINE
  5
3D8
330
528
100
AcDbEntity
  8
250
100
AcDbLine
 10
-0.5236819999999512
 20
-0.3733659999999972
 30
0.0
 11
-0.1479959999999778
 21
-0.3733659999999972
 31
0.0
  0
LINE
  5
3D9
330
528
100
AcDbEntity
  8
250
100
AcDbLine
 10
-1.304359999999974
 20
-0.3642859999999999
 30
0.0
 11
-1.756974999999954
 21
-0.3642859999999999
 31
0.0
  0
LINE
  5
3DA
330
528
100
AcDbEntity
  8
250
100
AcDbLine
 10
-1.817347999999981
 20
2.236142
 30
0.0
 11
-1.941959999999994
 21
2.423642
 31
0.0
  0
LINE
  5
3DB
330
528
100
AcDbEntity
  8
250
100
AcDbLine
 10
-1.754847999999981
 20
2.236142
 30
0.0
 11
-1.754847999999981
 21
1.736142
 31
0.0
  0
LINE
  5
3DC
330
528
100
AcDbEntity
  8
250
100
AcDbLine
 10
-2.617927999999949
 20
2.548642
 30
0.0
 11
-2.117927999999949
 21
2.548642
 31
0.0
  0
LINE
  5
3DD
330
528
100
AcDbEntity
  8
250
100
AcDbLine
 10
-2.180427999999949
 20
2.423642
 30
0.0
 11
-2.180427999999949
 21
2.548642
 31
0.0
  0
LINE
  5
3DE
330
528
100
AcDbEntity
  8
250
100
AcDbLine
 10
-2.555427999999949
 20
2.423642
 30
0.0
 11
-2.555427999999949
 21
2.548642
 31
0.0
  0
LINE
  5
3DF
330
528
100
AcDbEntity
  8
250
100
AcDbLine
 10
-1.867927999999949
 20
1.736142
 30
0.0
 11
-1.867927999999949
 21
1.236142
 31
0.0
  0
LINE
  5
3E0
330
528
100
AcDbEntity
  8
250
100
AcDbLine
 10
-2.023816897099948
 20
3.173642
 30
0.0
 11
-2.023816897099948
 21
5.611142
 31
0.0
  0
LINE
  5
3E1
330
528
100
AcDbEntity
  8
250
100
AcDbLine
 10
-2.492927999999949
 20
3.236142
 30
0.0
 11
-2.242927999999949
 21
3.236142
 31
0.0
  0
LINE
  5
3E2
330
528
100
AcDbEntity
  8
250
100
AcDbLine
 10
-1.992927999999949
 20
3.173642
 30
0.0
 11
-2.242927999999949
 21
3.173642
 31
0.0
  0
LINE
  5
3E3
330
528
100
AcDbEntity
  8
250
100
AcDbLine
 10
-2.240822157859327
 20
4.884404671599995
 30
0.0
 11
-2.490822157859327
 21
4.884404671599995
 31
0.0
  0
LINE
  5
3E4
330
528
100
AcDbEntity
  8
250
100
AcDbLine
 10
-1.852019299999994
 20
7.249023359265109
 30
0.0
 11
-1.852019299999994
 21
8.174607022562184
 31
0.0
  0
LINE
  5
3E5
330
528
100
AcDbEntity
  8
250
100
AcDbLine
 10
-1.64029079399819
 20
6.882298829459344
 30
0.0
 11
-2.001134712241707
 21
7.507298829459344
 31
0.0
  0
LINE
  5
3E6
330
528
100
AcDbEntity
  8
250
100
AcDbLine
 10
-2.240822157859327
 20
6.257298829459344
 30
0.0
 11
-2.001134712241821
 21
6.257298829459344
 31
0.0
  0
LINE
  5
3E7
330
528
100
AcDbEntity
  8
250
100
AcDbLine
 10
-2.001134712241821
 20
6.257298829459344
 30
0.0
 11
-1.64029079399819
 21
6.882298829459344
 31
0.0
  0
LINE
  5
3E8
330
528
100
AcDbEntity
  8
250
100
AcDbLine
 10
-1.753090272184067
 20
8.174607022562184
 30
0.0
 11
-1.753090272184067
 21
8.561459619761748
 31
0.0
  0
LINE
  5
3E9
330
528
100
AcDbEntity
  8
250
100
AcDbLine
 10
2.702072000000043
 20
19.170005
 30
0.0
 11
2.702072000000043
 21
19.73250499999999
 31
0.0
  0
LINE
  5
3EA
330
528
100
AcDbEntity
  8
250
100
AcDbLine
 10
3.194072000000005
 20
18.326288
 30
0.0
 11
3.194072000000005
 21
20.576288
 31
0.0
  0
LINE
  5
3EB
330
528
100
AcDbEntity
  8
250
100
AcDbLine
 10
-1.867895999999973
 20
19.69987899999999
 30
0.0
 11
-1.867895999999973
 21
19.19987899999999
 31
0.0
  0
LINE
  5
3EC
330
528
100
AcDbEntity
  8
250
100
AcDbLine
 10
3.38207200000005
 20
18.138791
 30
0.0
 11
3.38207200000005
 21
20.763788
 31
0.0
  0
LINE
  5
3ED
330
528
100
AcDbEntity
  8
250
100
AcDbLine
 10
-1.867895999999973
 20
19.261255
 30
0.0
 11
2.702072000000043
 21
19.261255
 31
0.0
  0
LINE
  5
3EE
330
528
100
AcDbEntity
  8
250
100
AcDbLine
 10
3.080352000000004
 20
19.150181
 30
0.0
 11
2.702072000000043
 21
19.170005
 31
0.0
  0
LINE
  5
3EF
330
528
100
AcDbEntity
  8
250
100
AcDbLine
 10
3.080352000000004
 20
19.150181
 30
0.0
 11
3.194072000000005
 21
19.01416
 31
0.0
  0
LINE
  5
3F0
330
528
100
AcDbEntity
  8
250
100
AcDbLine
 10
3.38207200000005
 20
18.138788
 30
0.0
 11
3.381572000000005
 21
18.138788
 31
0.0
  0
LINE
  5
3F1
330
528
100
AcDbEntity
  8
250
100
AcDbLine
 10
3.194072000000005
 20
18.326288
 30
0.0
 11
3.381572000000005
 21
18.138788
 31
0.0
  0
LINE
  5
3F2
330
528
100
AcDbEntity
  8
250
100
AcDbLine
 10
-1.837927999999976
 20
21.73723
 30
0.0
 11
-1.837927999999976
 21
24.23722999999999
 31
0.0
  0
LINE
  5
3F3
330
528
100
AcDbEntity
  8
250
100
AcDbLine
 10
-1.867895999999973
 20
19.641255
 30
0.0
 11
2.702072000000043
 21
19.641255
 31
0.0
  0
LINE
  5
3F4
330
528
100
AcDbEntity
  8
250
100
AcDbLine
 10
-2.030427999999972
 20
21.36223
 30
0.0
 11
-2.030427999999972
 21
19.69987899999999
 31
0.0
  0
ARC
  5
3F5
330
528
100
AcDbEntity
  8
250
100
AcDbCircle
 10
-1.65592399999997
 20
21.54973
 30
0.0
 40
0.1875
100
AcDbArc
 50
270.0
 51
90.0
  0
LINE
  5
3F6
330
528
100
AcDbEntity
  8
250
100
AcDbLine
 10
3.38207200000005
 20
20.763788
 30
0.0
 11
3.194072000000005
 21
20.576288
 31
0.0
  0
LINE
  5
3F7
330
528
100
AcDbEntity
  8
250
100
AcDbLine
 10
3.194072000000005
 20
19.888351
 30
0.0
 11
3.080352000000004
 21
19.75233
 31
0.0
  0
LINE
  5
3F8
330
528
100
AcDbEntity
  8
250
100
AcDbLine
 10
3.080352000000004
 20
19.75233
 30
0.0
 11
2.702072000000043
 21
19.73250499999999
 31
0.0
  0
LINE
  5
3F9
330
528
100
AcDbEntity
  8
250
100
AcDbLine
 10
3.38207200000005
 20
20.075851
 30
0.0
 11
3.381572000000005
 21
20.075851
 31
0.0
  0
LINE
  5
3FA
330
528
100
AcDbEntity
  8
250
100
AcDbLine
 10
-2.030427999999972
 20
24.54223
 30
0.0
 11
-2.030427999999972
 21
24.23722999999999
 31
0.0
  0
LINE
  5
3FB
330
528
100
AcDbEntity
  8
250
100
AcDbLine
 10
-2.052927999999951
 20
24.76722999999999
 30
0.0
 11
-2.052927999999951
 21
25.41723
 31
0.0
  0
LINE
  5
3FC
330
528
100
AcDbEntity
  8
250
100
AcDbLine
 10
-2.017927999999983
 20
24.54223
 30
0.0
 11
-2.017927999999983
 21
24.76722999999999
 31
0.0
  0
LINE
  5
40D
330
528
100
AcDbEntity
  8
250
100
AcDbLine
 10
-1.689034999999989
 20
30.748806
 30
0.0
 11
-3.001534999999989
 21
30.648806
 31
0.0
  0
LINE
  5
40E
330
528
100
AcDbEntity
  8
250
100
AcDbLine
 10
-1.691091999999969
 20
31.49874599999999
 30
0.0
 11
-3.003591999999969
 21
31.398746
 31
0.0
  0
LINE
  5
40F
330
528
100
AcDbEntity
  8
250
100
AcDbLine
 10
-1.753396999999949
 20
32.245173
 30
0.0
 11
-3.046447999999998
 21
31.998848
 31
0.0
  0
LINE
  5
410
330
528
100
AcDbEntity
  8
250
100
AcDbLine
 10
-2.431062999999994
 20
34.377741
 30
0.0
 11
-3.570195999999953
 21
33.718172
 31
0.0
  0
LINE
  5
411
330
528
100
AcDbEntity
  8
250
100
AcDbLine
 10
-2.125723999999991
 20
33.69377899999999
 30
0.0
 11
-3.331542999999953
 21
33.1659
 31
0.0
  0
LINE
  5
412
330
528
100
AcDbEntity
  8
250
100
AcDbLine
 10
-1.89888499999995
 20
32.979931
 30
0.0
 11
-3.156225999999946
 21
32.590379
 31
0.0
  0
ARC
  5
413
330
528
100
AcDbEntity
  8
250
100
AcDbCircle
 10
-8.367927999999949
 20
31.31723
 30
0.0
 40
6.299999999999999
100
AcDbArc
 50
0.0
 51
180.0
  0
LINE
  5
414
330
528
100
AcDbEntity
  8
250
100
AcDbLine
 10
-1.690223999999943
 20
26.248715
 30
0.0
 11
-3.002723999999943
 21
26.148715
 31
0.0
  0
LINE
  5
415
330
528
100
AcDbEntity
  8
250
100
AcDbLine
 10
-1.689933999999993
 20
26.998737
 30
0.0
 11
-3.002433999999993
 21
26.89873699999999
 31
0.0
  0
LINE
  5
416
330
528
100
AcDbEntity
  8
250
100
AcDbLine
 10
-1.689642999999989
 20
29.24875899999999
 30
0.0
 11
-3.002142999999989
 21
29.148759
 31
0.0
  0
LINE
  5
417
330
528
100
AcDbEntity
  8
250
100
AcDbLine
 10
-1.689642999999989
 20
29.998759
 30
0.0
 11
-3.002142999999989
 21
29.89875899999999
 31
0.0
  0
LINE
  5
418
330
528
100
AcDbEntity
  8
250
100
AcDbLine
 10
-1.689933999999993
 20
27.748737
 30
0.0
 11
-3.002433999999993
 21
27.64873699999999
 31
0.0
  0
LINE
  5
419
330
528
100
AcDbEntity
  8
250
100
AcDbLine
 10
-1.689642999999989
 20
28.498759
 30
0.0
 11
-3.002142999999989
 21
28.398759
 31
0.0
  0
ARC
  5
432
330
528
100
AcDbEntity
  8
250
100
AcDbCircle
 10
-8.367927999999949
 20
31.31723
 30
0.0
 40
5.7
100
AcDbArc
 50
0.0
 51
180.0
  0
LINE
  5
433
330
528
100
AcDbEntity
  8
250
100
AcDbLine
 10
-4.969330999999954
 20
37.067241
 30
0.0
 11
-5.582949999999982
 21
35.902713
 31
0.0
  0
LINE
  5
434
330
528
100
AcDbEntity
  8
250
100
AcDbLine
 10
-3.775042999999982
 20
36.166818
 30
0.0
 11
-4.632409999999993
 21
35.168029
 31
0.0
  0
LINE
  5
435
330
528
100
AcDbEntity
  8
250
100
AcDbLine
 10
-4.346902999999997
 20
36.65056399999999
 30
0.0
 11
-5.087050999999974
 21
35.562062
 31
0.0
  0
LINE
  5
436
330
528
100
AcDbEntity
  8
250
100
AcDbLine
 10
-2.811060999999995
 20
35.023215
 30
0.0
 11
-3.869183999999961
 21
34.240251
 31
0.0
  0
LINE
  5
437
330
528
100
AcDbEntity
  8
250
100
AcDbLine
 10
-3.260939999999948
 20
35.622084
 30
0.0
 11
-4.224744999999984
 21
34.725571
 31
0.0
  0
LINE
  5
438
330
528
100
AcDbEntity
  8
250
100
AcDbLine
 10
-8.549443999999994
 20
37.994067
 30
0.0
 11
-8.449443999999971
 21
36.681567
 31
0.0
  0
LINE
  5
439
330
528
100
AcDbEntity
  8
250
100
AcDbLine
 10
-7.05915699999997
 20
37.867055
 30
0.0
 11
-7.253722999999979
 21
36.56521099999999
 31
0.0
  0
LINE
  5
43A
330
528
100
AcDbEntity
  8
250
100
AcDbLine
 10
-6.334038999999961
 20
37.679336
 30
0.0
 11
-6.673141999999984
 21
36.40746099999999
 31
0.0
  0
LINE
  5
43B
330
528
100
AcDbEntity
  8
250
100
AcDbLine
 10
-7.800733999999977
 20
37.972407
 30
0.0
 11
-7.848315999999954
 21
36.65696399999999
 31
0.0
  0
LINE
  5
43C
330
528
100
AcDbEntity
  8
250
100
AcDbLine
 10
-5.634496999999953
 20
37.411609
 30
0.0
 11
-6.113872999999955
 21
36.185699
 31
0.0
  0
ENDSEC
  0
SECTION
  2
OBJECTS
  0
DICTIONARY
  5
516
330
0
100
AcDbDictionary
281
     1
  3
ACAD_GROUP
350
517
  3
ACAD_LAYOUT
350
523
  3
ACAD_MLINESTYLE
350
520
  3
ACAD_PLOTSETTINGS
350
522
  3
ACAD_PLOTSTYLENAME
350
518
  3
ACDBHEADERROUNDTRIPXREC
350
53C
  3
AcDbVariableDictionary
350
538
  0
DICTIONARY
  5
517
102
{ACAD_REACTORS
330
516
102
}
330
516
100
AcDbDictionary
281
     1
  0
DICTIONARY
  5
523
102
{ACAD_REACTORS
330
516
102
}
330
516
100
AcDbDictionary
281
     1
  3
Layout1
350
527
  3
Model
350
52B
  0
DICTIONARY
  5
520
102
{ACAD_REACTORS
330
516
102
}
330
516
100
AcDbDictionary
281
     1
  3
Standard
350
521
  0
DICTIONARY
  5
522
102
{ACAD_REACTORS
330
516
102
}
330
516
100
AcDbDictionary
281
     1
  0
ACDBDICTIONARYWDFLT
  5
518
102
{ACAD_REACTORS
330
516
102
}
330
516
100
AcDbDictionary
281
     1
  3
Normal
350
519
100
AcDbDictionaryWithDefault
340
519
  0
DICTIONARY
  5
53C
102
{ACAD_REACTORS
330
516
102
}
330
516
100
AcDbDictionary
281
     1
  3
CEPSNTYPE
350
546
  3
DIMSTYLEDATA
350
54A
  3
FINGERPRINTGUID
350
547
  3
HYPERLINKBASE
350
53F
  3
INSUNITS
350
545
  3
LAYOUTDICT
350
541
  3
LWETCUNION
350
544
  3
PLOTSETDICT
350
542
  3
PLOTSTYLNAMDICT
350
543
  3
PSVPSCALE
350
549
  3
PUCSBASE
350
54D
  3
PUCSORGBACK
350
553
  3
PUCSORGBOTTOM
350
54F
  3
PUCSORGFRONT
350
552
  3
PUCSORGLEFT
350
550
  3
PUCSORGRIGHT
350
551
  3
PUCSORGTOP
350
54E
  3
PUCSORTHOREF
350
54B
  3
PUCSORTHOVIEW
350
54C
  3
STYLESHEET
350
540
  3
TSTACKALIGN
350
53D
  3
TSTACKSIZE
350
53E
  3
UCSBASE
350
556
  3
UCSORGBACK
350
55C
  3
UCSORGBOTTOM
350
558
  3
UCSORGFRONT
350
55B
  3
UCSORGLEFT
350
559
  3
UCSORGRIGHT
350
55A
  3
UCSORGTOP
350
557
  3
UCSORTHOREF
350
554
  3
UCSORTHOVIEW
350
555
  3
VERSIONGUID
350
548
  0
DICTIONARY
  5
538
102
{ACAD_REACTORS
330
516
102
}
330
516
100
AcDbDictionary
281
     1
  3
DIMASSOC
350
53A
  3
HIDETEXT
350
539
  0
LAYOUT
  5
527
102
{ACAD_REACTORS
330
523
102
}
330
523
100
AcDbPlotSettings
  1

  2
Acrobat Distiller
  4

  6

 40
0.0
 41
0.0
 42
0.0
 43
0.0
 44
0.0
 45
0.0
 46
0.0
 47
0.0
 48
0.0
 49
0.0
140
0.0
141
0.0
142
1.0
143
1.0
 70
   688
 72
     0
 73
     0
 74
     5
  7

 75
    16
147
1.0
148
0.0
149
0.0
100
AcDbLayout
  1
Layout1
 70
     1
 71
     1
 10
0.0
 20
0.0
 11
12.0
 21
9.0
 12
0.0
 22
0.0
 32
0.0
 14
1.000000000000000E+20
 24
1.000000000000000E+20
 34
1.000000000000000E+20
 15
-1.000000000000000E+20
 25
-1.000000000000000E+20
 35
-1.000000000000000E+20
146
0.0
 13
0.0
 23
0.0
 33
0.0
 16
1.0
 26
0.0
 36
0.0
 17
0.0
 27
1.0
 37
0.0
 76
     0
330
524
  0
LAYOUT
  5
52B
102
{ACAD_REACTORS
330
523
102
}
330
523
100
AcDbPlotSettings
  1

  2
Acrobat Distiller
  4

  6

 40
0.0
 41
0.0
 42
0.0
 43
0.0
 44
0.0
 45
0.0
 46
0.0
 47
0.0
 48
0.0
 49
0.0
140
0.0
141
0.0
142
1.0
143
1.0
 70
  1712
 72
     0
 73
     0
 74
     0
  7

 75
     0
147
1.0
148
0.0
149
0.0
100
AcDbLayout
  1
Model
 70
     1
 71
     0
 10
0.0
 20
0.0
 11
12.0
 21
9.0
 12
0.0
 22
0.0
 32
0.0
 14
0.0
 24
0.0
 34
0.0
 15
0.0
 25
0.0
 35
0.0
146
0.0
 13
0.0
 23
0.0
 33
0.0
 16
1.0
 26
0.0
 36
0.0
 17
0.0
 27
1.0
 37
0.0
 76
     0
330
528
  0
MLINESTYLE
  5
521
102
{ACAD_REACTORS
330
520
102
}
330
520
100
AcDbMlineStyle
  2
STANDARD
 70
     0
  3

 62
   256
 51
90.0
 52
90.0
 71
     2
 49
0.5
 62
   256
  6
BYLAYER
 49
-0.5
 62
   256
  6
BYLAYER
  0
ACDBPLACEHOLDER
  5
519
102
{ACAD_REACTORS
330
518
102
}
330
518
  0
XRECORD
  5
546
102
{ACAD_REACTORS
330
53C
102
}
330
53C
100
AcDbXrecord
280
     1
 90
        0
  0
XRECORD
  5
54A
102
{ACAD_REACTORS
330
53C
102
}
330
53C
100
AcDbXrecord
280
     1
1000
DSTYLE
1002
{
1070
   279
 70
     2
1002
}
  0
XRECORD
  5
547
102
{ACAD_REACTORS
330
53C
102
}
330
53C
100
AcDbXrecord
280
     1
  1
{DBF96E4A-2807-40CA-9DD9-EA48103E6D03}
  0
XRECORD
  5
53F
102
{ACAD_REACTORS
330
53C
102
}
330
53C
100
AcDbXrecord
280
     1
  1

  0
XRECORD
  5
545
102
{ACAD_REACTORS
330
53C
102
}
330
53C
100
AcDbXrecord
280
     1
 90
        0
  0
XRECORD
  5
541
102
{ACAD_REACTORS
330
53C
102
}
330
53C
100
AcDbXrecord
280
     1
340
523
  0
XRECORD
  5
544
102
{ACAD_REACTORS
330
53C
102
}
330
53C
100
AcDbXrecord
280
     1
 90
    14877
  0
XRECORD
  5
542
102
{ACAD_REACTORS
330
53C
102
}
330
53C
100
AcDbXrecord
280
     1
340
522
  0
XRECORD
  5
543
102
{ACAD_REACTORS
330
53C
102
}
330
53C
100
AcDbXrecord
280
     1
340
518
  0
XRECORD
  5
549
102
{ACAD_REACTORS
330
53C
102
}
330
53C
100
AcDbXrecord
280
     1
 40
0.0
  0
XRECORD
  5
54D
102
{ACAD_REACTORS
330
53C
102
}
330
53C
100
AcDbXrecord
280
     1
340
0
  0
XRECORD
  5
553
102
{ACAD_REACTORS
330
53C
102
}
330
53C
100
AcDbXrecord
280
     1
 10
0.0
 20
0.0
 30
0.0
  0
XRECORD
  5
54F
102
{ACAD_REACTORS
330
53C
102
}
330
53C
100
AcDbXrecord
280
     1
 10
0.0
 20
0.0
 30
0.0
  0
XRECORD
  5
552
102
{ACAD_REACTORS
330
53C
102
}
330
53C
100
AcDbXrecord
280
     1
 10
0.0
 20
0.0
 30
0.0
  0
XRECORD
  5
550
102
{ACAD_REACTORS
330
53C
102
}
330
53C
100
AcDbXrecord
280
     1
 10
0.0
 20
0.0
 30
0.0
  0
XRECORD
  5
551
102
{ACAD_REACTORS
330
53C
102
}
330
53C
100
AcDbXrecord
280
     1
 10
0.0
 20
0.0
 30
0.0
  0
XRECORD
  5
54E
102
{ACAD_REACTORS
330
53C
102
}
330
53C
100
AcDbXrecord
280
     1
 10
0.0
 20
0.0
 30
0.0
  0
XRECORD
  5
54B
102
{ACAD_REACTORS
330
53C
102
}
330
53C
100
AcDbXrecord
280
     1
340
0
  0
XRECORD
  5
54C
102
{ACAD_REACTORS
330
53C
102
}
330
53C
100
AcDbXrecord
280
     1
 70
     0
  0
XRECORD
  5
540
102
{ACAD_REACTORS
330
53C
102
}
330
53C
100
AcDbXrecord
280
     1
  1

  0
XRECORD
  5
53D
102
{ACAD_REACTORS
330
53C
102
}
330
53C
100
AcDbXrecord
280
     1
 90
        1
  0
XRECORD
  5
53E
102
{ACAD_REACTORS
330
53C
102
}
330
53C
100
AcDbXrecord
280
     1
 90
       70
  0
XRECORD
  5
556
102
{ACAD_REACTORS
330
53C
102
}
330
53C
100
AcDbXrecord
280
     1
340
0
  0
XRECORD
  5
55C
102
{ACAD_REACTORS
330
53C
102
}
330
53C
100
AcDbXrecord
280
     1
 10
0.0
 20
0.0
 30
0.0
  0
XRECORD
  5
558
102
{ACAD_REACTORS
330
53C
102
}
330
53C
100
AcDbXrecord
280
     1
 10
0.0
 20
0.0
 30
0.0
  0
XRECORD
  5
55B
102
{ACAD_REACTORS
330
53C
102
}
330
53C
100
AcDbXrecord
280
     1
 10
0.0
 20
0.0
 30
0.0
  0
XRECORD
  5
559
102
{ACAD_REACTORS
330
53C
102
}
330
53C
100
AcDbXrecord
280
     1
 10
0.0
 20
0.0
 30
0.0
  0
XRECORD
  5
55A
102
{ACAD_REACTORS
330
53C
102
}
330
53C
100
AcDbXrecord
280
     1
 10
0.0
 20
0.0
 30
0.0
  0
XRECORD
  5
557
102
{ACAD_REACTORS
330
53C
102
}
330
53C
100
AcDbXrecord
280
     1
 10
0.0
 20
0.0
 30
0.0
  0
XRECORD
  5
554
102
{ACAD_REACTORS
330
53C
102
}
330
53C
100
AcDbXrecord
280
     1
340
0
  0
XRECORD
  5
555
102
{ACAD_REACTORS
330
53C
102
}
330
53C
100
AcDbXrecord
280
     1
 70
     0
  0
XRECORD
  5
548
102
{ACAD_REACTORS
330
53C
102
}
330
53C
100
AcDbXrecord
280
     1
  1
{30598E92-F5F7-4EDF-B92E-529A9E122112}
  0
DICTIONARYVAR
  5
53A
102
{ACAD_REACTORS
330
538
102
}
330
538
100
DictionaryVariables
280
     0
  1
2
  0
DICTIONARYVAR
  5
539
102
{ACAD_REACTORS
330
538
102
}
330
538
100
DictionaryVariables
280
     0
  1
1
  0
ENDSEC
  0
EOF
