  0
SECTION
  2
HEADER
  9
$ACADVER
  1
AC1027
  9
$ACADMAINTVER
 70
   105
  9
$DWGCODEPAGE
  3
ANSI_1252
  9
$LASTSAVEDBY
  1
jasonrohrer
  9
$REQUIREDVERSIONS
160
                 0
  9
$INSBASE
 10
0.0
 20
0.0
 30
0.0
  9
$EXTMIN
 10
-47.0
 20
-41.5
 30
0.0
  9
$EXTMAX
 10
239.5
 20
153.0
 30
0.0
  9
$LIMMIN
 10
0.0
 20
0.0
  9
$LIMMAX
 10
12.0
 20
9.0
  9
$ORTHOMODE
 70
     0
  9
$REGENMODE
 70
     1
  9
$FILLMODE
 70
     1
  9
$QTEXTMODE
 70
     0
  9
$MIRRTEXT
 70
     0
  9
$LTSCALE
 40
1.0
  9
$ATTMODE
 70
     1
  9
$TEXTSIZE
 40
0.2
  9
$TRACEWID
 40
0.05
  9
$TEXTSTYLE
  7
Standard
  9
$CLAYER
  8
Walls
  9
$CELTYPE
  6
ByLayer
  9
$CECOLOR
 62
   256
  9
$CELTSCALE
 40
1.0
  9
$DISPSILH
 70
     0
  9
$DIMSCALE
 40
1.0
  9
$DIMASZ
 40
3.0
  9
$DIMEXO
 40
0.75
  9
$DIMDLI
 40
6.0
  9
$DIMRND
 40
0.0
  9
$DIMDLE
 40
0.0
  9
$DIMEXE
 40
1.5
  9
$DIMTP
 40
0.0
  9
$DIMTM
 40
0.0
  9
$DIMTXT
 40
3.0
  9
$DIMCEN
 40
0.09
  9
$DIMTSZ
 40
0.0
  9
$DIMTOL
 70
     0
  9
$DIMLIM
 70
     0
  9
$DIMTIH
 70
     1
  9
$DIMTOH
 70
     1
  9
$DIMSE1
 70
     0
  9
$DIMSE2
 70
     0
  9
$DIMTAD
 70
     0
  9
$DIMZIN
 70
     8
  9
$DIMBLK
  1

  9
$DIMASO
 70
     1
  9
$DIMSHO
 70
     1
  9
$DIMPOST
  1

  9
$DIMAPOST
  1

  9
$DIMALT
 70
     0
  9
$DIMALTD
 70
     2
  9
$DIMALTF
 40
25.4
  9
$DIMLFAC
 40
1.0
  9
$DIMTOFL
 70
     0
  9
$DIMTVP
 40
0.0
  9
$DIMTIX
 70
     0
  9
$DIMSOXD
 70
     0
  9
$DIMSAH
 70
     0
  9
$DIMBLK1
  1

  9
$DIMBLK2
  1

  9
$DIMSTYLE
  2
Standard
  9
$DIMCLRD
 70
     0
  9
$DIMCLRE
 70
     0
  9
$DIMCLRT
 70
   256
  9
$DIMTFAC
 40
1.0
  9
$DIMGAP
 40
0.75
  9
$DIMJUST
 70
     0
  9
$DIMSD1
 70
     0
  9
$DIMSD2
 70
     0
  9
$DIMTOLJ
 70
     1
  9
$DIMTZIN
 70
     0
  9
$DIMALTZ
 70
     0
  9
$DIMALTTZ
 70
     0
  9
$DIMUPT
 70
     0
  9
$DIMDEC
 70
     4
  9
$DIMTDEC
 70
     4
  9
$DIMALTU
 70
     2
  9
$DIMALTTD
 70
     2
  9
$DIMTXSTY
  7
Standard
  9
$DIMAUNIT
 70
     0
  9
$DIMADEC
 70
     0
  9
$DIMALTRND
 40
0.0
  9
$DIMAZIN
 70
     2
  9
$DIMDSEP
 70
    46
  9
$DIMATFIT
 70
     3
  9
$DIMFRAC
 70
     0
  9
$DIMLDRBLK
  1

  9
$DIMLUNIT
 70
     2
  9
$DIMLWD
 70
    -2
  9
$DIMLWE
 70
    -2
  9
$DIMTMOVE
 70
     0
  9
$DIMFXL
 40
1.0
  9
$DIMFXLON
 70
     0
  9
$DIMJOGANG
 40
0.7853981633974483
  9
$DIMTFILL
 70
     0
  9
$DIMTFILLCLR
 70
     0
  9
$DIMARCSYM
 70
     0
  9
$DIMLTYPE
  6

  9
$DIMLTEX1
  6

  9
$DIMLTEX2
  6

  9
$DIMTXTDIRECTION
 70
     0
  9
$LUNITS
 70
     2
  9
$LUPREC
 70
     4
  9
$SKETCHINC
 40
0.1
  9
$FILLETRAD
 40
0.5
  9
$AUNITS
 70
     0
  9
$AUPREC
 70
     0
  9
$MENU
  1
.
  9
$ELEVATION
 40
0.0
  9
$PELEVATION
 40
0.0
  9
$THICKNESS
 40
0.0
  9
$LIMCHECK
 70
     0
  9
$CHAMFERA
 40
0.0
  9
$CHAMFERB
 40
0.0
  9
$CHAMFERC
 40
0.0
  9
$CHAMFERD
 40
0.0
  9
$SKPOLY
 70
     0
  9
$TDCREATE
 40
2459297.944769178
  9
$TDUCREATE
 40
2459298.153102512
  9
$TDUPDATE
 40
2459297.944769514
  9
$TDUUPDATE
 40
2459298.153102847
  9
$TDINDWG
 40
0.0000000116
  9
$TDUSRTIMER
 40
0.0000000116
  9
$USRTIMER
 70
     1
  9
$ANGBASE
 50
0.0
  9
$ANGDIR
 70
     0
  9
$PDMODE
 70
     0
  9
$PDSIZE
 40
0.0
  9
$PLINEWID
 40
0.0
  9
$SPLFRAME
 70
     0
  9
$SPLINETYPE
 70
     6
  9
$SPLINESEGS
 70
     8
  9
$HANDSEED
  5
8A5
  9
$SURFTAB1
 70
     6
  9
$SURFTAB2
 70
     6
  9
$SURFTYPE
 70
     6
  9
$SURFU
 70
     6
  9
$SURFV
 70
     6
  9
$UCSBASE
  2

  9
$UCSNAME
  2

  9
$UCSORG
 10
0.0
 20
0.0
 30
0.0
  9
$UCSXDIR
 10
1.0
 20
0.0
 30
0.0
  9
$UCSYDIR
 10
0.0
 20
1.0
 30
0.0
  9
$UCSORTHOREF
  2

  9
$UCSORTHOVIEW
 70
     0
  9
$UCSORGTOP
 10
0.0
 20
0.0
 30
0.0
  9
$UCSORGBOTTOM
 10
0.0
 20
0.0
 30
0.0
  9
$UCSORGLEFT
 10
0.0
 20
0.0
 30
0.0
  9
$UCSORGRIGHT
 10
0.0
 20
0.0
 30
0.0
  9
$UCSORGFRONT
 10
0.0
 20
0.0
 30
0.0
  9
$UCSORGBACK
 10
0.0
 20
0.0
 30
0.0
  9
$PUCSBASE
  2

  9
$PUCSNAME
  2

  9
$PUCSORG
 10
0.0
 20
0.0
 30
0.0
  9
$PUCSXDIR
 10
1.0
 20
0.0
 30
0.0
  9
$PUCSYDIR
 10
0.0
 20
1.0
 30
0.0
  9
$PUCSORTHOREF
  2

  9
$PUCSORTHOVIEW
 70
     0
  9
$PUCSORGTOP
 10
0.0
 20
0.0
 30
0.0
  9
$PUCSORGBOTTOM
 10
0.0
 20
0.0
 30
0.0
  9
$PUCSORGLEFT
 10
0.0
 20
0.0
 30
0.0
  9
$PUCSORGRIGHT
 10
0.0
 20
0.0
 30
0.0
  9
$PUCSORGFRONT
 10
0.0
 20
0.0
 30
0.0
  9
$PUCSORGBACK
 10
0.0
 20
0.0
 30
0.0
  9
$USERI1
 70
     0
  9
$USERI2
 70
     0
  9
$USERI3
 70
     0
  9
$USERI4
 70
     0
  9
$USERI5
 70
     0
  9
$USERR1
 40
0.0
  9
$USERR2
 40
0.0
  9
$USERR3
 40
0.0
  9
$USERR4
 40
0.0
  9
$USERR5
 40
0.0
  9
$WORLDVIEW
 70
     1
  9
$SHADEDGE
 70
     3
  9
$SHADEDIF
 70
    70
  9
$TILEMODE
 70
     1
  9
$MAXACTVP
 70
    64
  9
$PINSBASE
 10
0.0
 20
0.0
 30
0.0
  9
$PLIMCHECK
 70
     0
  9
$PEXTMIN
 10
0.0
 20
0.0
 30
0.0
  9
$PEXTMAX
 10
0.0
 20
0.0
 30
0.0
  9
$PLIMMIN
 10
-0.25
 20
-0.25
  9
$PLIMMAX
 10
10.75
 20
8.25
  9
$UNITMODE
 70
     0
  9
$VISRETAIN
 70
     1
  9
$PLINEGEN
 70
     0
  9
$PSLTSCALE
 70
     1
  9
$TREEDEPTH
 70
  3020
  9
$CMLSTYLE
  2
Standard
  9
$CMLJUST
 70
     0
  9
$CMLSCALE
 40
1.0
  9
$PROXYGRAPHICS
 70
     1
  9
$MEASUREMENT
 70
     0
  9
$CELWEIGHT
370
    -1
  9
$ENDCAPS
280
     0
  9
$JOINSTYLE
280
     0
  9
$LWDISPLAY
290
     0
  9
$INSUNITS
 70
     1
  9
$HYPERLINKBASE
  1

  9
$STYLESHEET
  1

  9
$XEDIT
290
     1
  9
$CEPSNTYPE
380
     0
  9
$PSTYLEMODE
290
     1
  9
$FINGERPRINTGUID
  2
{71b57172-7834-7372-e174-727572347374}
  9
$VERSIONGUID
  2
{FAEB1C32-E019-11D5-929B-00C0DF256EC4}
  9
$EXTNAMES
290
     1
  9
$PSVPSCALE
 40
0.0
  9
$OLESTARTUP
290
     0
  9
$SORTENTS
280
   127
  9
$INDEXCTL
280
     0
  9
$HIDETEXT
280
     1
  9
$XCLIPFRAME
280
     2
  9
$HALOGAP
280
     0
  9
$OBSCOLOR
 70
   257
  9
$OBSLTYPE
280
     0
  9
$INTERSECTIONDISPLAY
280
     0
  9
$INTERSECTIONCOLOR
 70
   257
  9
$DIMASSOC
280
     2
  9
$PROJECTNAME
  1

  9
$CAMERADISPLAY
290
     0
  9
$LENSLENGTH
 40
50.0
  9
$CAMERAHEIGHT
 40
0.0
  9
$STEPSPERSEC
 40
2.0
  9
$STEPSIZE
 40
6.0
  9
$3DDWFPREC
 40
2.0
  9
$PSOLWIDTH
 40
0.25
  9
$PSOLHEIGHT
 40
4.0
  9
$LOFTANG1
 40
1.570796326794897
  9
$LOFTANG2
 40
1.570796326794897
  9
$LOFTMAG1
 40
0.0
  9
$LOFTMAG2
 40
0.0
  9
$LOFTPARAM
 70
     7
  9
$LOFTNORMALS
280
     1
  9
$LATITUDE
 40
37.795
  9
$LONGITUDE
 40
-122.394
  9
$NORTHDIRECTION
 40
0.0
  9
$TIMEZONE
 70
 -8000
  9
$LIGHTGLYPHDISPLAY
280
     1
  9
$TILEMODELIGHTSYNCH
280
     1
  9
$CMATERIAL
347
7DA
  9
$SOLIDHIST
280
     0
  9
$SHOWHIST
280
     1
  9
$DWFFRAME
280
     2
  9
$DGNFRAME
280
     2
  9
$REALWORLDSCALE
290
     1
  9
$INTERFERECOLOR
 62
   256
  9
$CSHADOW
280
     0
  9
$SHADOWPLANELOCATION
 40
0.0
  0
ENDSEC
  0
SECTION
  2
CLASSES
  0
CLASS
  1
ACDBDICTIONARYWDFLT
  2
AcDbDictionaryWithDefault
  3
ObjectDBX Classes
 90
        0
 91
        3
280
     0
281
     0
  0
CLASS
  1
VISUALSTYLE
  2
AcDbVisualStyle
  3
ObjectDBX Classes
 90
     4095
 91
        3
280
     0
281
     0
  0
CLASS
  1
MATERIAL
  2
AcDbMaterial
  3
ObjectDBX Classes
 90
     1153
 91
        3
280
     0
281
     0
  0
CLASS
  1
SCALE
  2
AcDbScale
  3
ObjectDBX Classes
 90
     1153
 91
        3
280
     0
281
     0
  0
CLASS
  1
TABLESTYLE
  2
AcDbTableStyle
  3
ObjectDBX Classes
 90
     4095
 91
        3
280
     0
281
     0
  0
CLASS
  1
MLEADERSTYLE
  2
AcDbMLeaderStyle
  3
ACDB_MLEADERSTYLE_CLASS
 90
     4095
 91
        3
280
     0
281
     0
  0
CLASS
  1
SUN
  2
AcDbSun
  3
SCENEOE
 90
     1153
 91
        3
280
     0
281
     0
  0
CLASS
  1
DICTIONARYVAR
  2
AcDbDictionaryVar
  3
ObjectDBX Classes
 90
        0
 91
        3
280
     0
281
     0
  0
CLASS
  1
CELLSTYLEMAP
  2
AcDbCellStyleMap
  3
ObjectDBX Classes
 90
     1152
 91
        3
280
     0
281
     0
  0
ENDSEC
  0
SECTION
  2
TABLES
  0
TABLE
  2
VPORT
  5
79F
330
0
100
AcDbSymbolTable
 70
     1
  0
VPORT
  5
7BF
330
79F
100
AcDbSymbolTableRecord
100
AcDbViewportTableRecord
  2
*Active
 70
     0
 10
0.0
 20
0.0
 11
1.0
 21
1.0
 12
87.85988860141471
 22
77.72688302043716
 13
0.0
 23
0.0
 14
0.5
 24
0.5
 15
0.5
 25
0.5
 16
0.0
 26
0.0
 36
1.0
 17
0.0
 27
0.0
 37
0.0
 40
242.1251342617006
 41
1.719931271477663
 42
50.0
 43
0.0
 44
0.0
 50
0.0
 51
0.0
 71
     0
 72
   100
 73
     1
 74
     3
 75
     0
 76
     0
 77
     0
 78
     0
281
     0
 65
     1
110
0.0
120
0.0
130
0.0
111
1.0
121
0.0
131
0.0
112
0.0
122
1.0
132
0.0
 79
     0
146
0.0
348
7C5
 60
     3
 61
     5
292
     1
282
     1
141
0.0
142
0.0
 63
   250
361
803
  0
ENDTAB
  0
TABLE
  2
LTYPE
  5
79C
330
0
100
AcDbSymbolTable
 70
    49
  0
LTYPE
  5
7AA
330
79C
100
AcDbSymbolTableRecord
100
AcDbLinetypeTableRecord
  2
ByBlock
 70
     0
  3

 72
    65
 73
     0
 40
0.0
  0
LTYPE
  5
7AB
330
79C
100
AcDbSymbolTableRecord
100
AcDbLinetypeTableRecord
  2
ByLayer
 70
     0
  3

 72
    65
 73
     0
 40
0.0
  0
LTYPE
  5
7AC
330
79C
100
AcDbSymbolTableRecord
100
AcDbLinetypeTableRecord
  2
Continuous
 70
     0
  3
Solid line
 72
    65
 73
     0
 40
0.0
  0
LTYPE
  5
847
330
79C
100
AcDbSymbolTableRecord
100
AcDbLinetypeTableRecord
  2
FENCELINE2
 70
     0
  3
Fenceline square ----[]-----[]----[]-----[]----[]---
 72
    65
 73
     4
 40
36.83
 49
6.35
 74
     0
 49
-2.54
 74
     2
 75
     0
340
846
 46
2.54
 50
0.0
 44
-2.54
 45
0.0
  9
BOX
 49
-2.54
 74
     0
 49
25.4
 74
     0
  0
LTYPE
  5
849
330
79C
100
AcDbSymbolTableRecord
100
AcDbLinetypeTableRecord
  2
GAS_LINE
 70
     0
  3
Gas line ----GAS----GAS----GAS----GAS----GAS----GAS--
 72
    65
 73
     3
 40
24.13
 49
12.7
 74
     0
 49
-5.08
 74
     2
 75
     0
340
848
 46
2.54
 50
0.0
 44
-2.54
 45
-1.27
  9
GAS
 49
-6.35
 74
     0
  0
LTYPE
  5
84A
330
79C
100
AcDbSymbolTableRecord
100
AcDbLinetypeTableRecord
  2
HIDDEN
 70
     0
  3
Hidden __ __ __ __ __ __ __ __ __ __ __ __ __ __
 72
    65
 73
     2
 40
9.524999999999999
 49
6.35
 74
     0
 49
-3.175
 74
     0
  0
LTYPE
  5
84B
330
79C
100
AcDbSymbolTableRecord
100
AcDbLinetypeTableRecord
  2
HIDDEN2
 70
     0
  3
Hidden (.5x) _ _ _ _ _ _ _ _ _ _ _ _ _ _ _ _ _ 
 72
    65
 73
     2
 40
4.762499999999999
 49
3.175
 74
     0
 49
-1.5875
 74
     0
  0
LTYPE
  5
84C
330
79C
100
AcDbSymbolTableRecord
100
AcDbLinetypeTableRecord
  2
DOTX2
 70
     0
  3
Dot (2x) .  .  .  .  .  .  .  .  .  .  .  .  .  .
 72
    65
 73
     2
 40
12.7
 49
0.0
 74
     0
 49
-12.7
 74
     0
  0
LTYPE
  5
84E
330
79C
100
AcDbSymbolTableRecord
100
AcDbLinetypeTableRecord
  2
DRAINAGE
 70
     0
  3
Drainage ---->---->---->----
 72
    65
 73
     2
 40
10.16
 49
5.08
 74
     2
 75
     0
340
84D
 46
2.54
 50
180.0
 44
0.0
 45
0.0
  9
RIGHT_ARROW
 49
5.08
 74
     0
  0
LTYPE
  5
850
330
79C
100
AcDbSymbolTableRecord
100
AcDbLinetypeTableRecord
  2
DRAINAGE2
 70
     0
  3
Drainage reversed----<----<----<----
 72
    65
 73
     2
 40
10.16
 49
5.08
 74
     2
 75
     0
340
84F
 46
2.54
 50
0.0
 44
0.0
 45
0.0
  9
RIGHT_ARROW
 49
5.08
 74
     0
  0
LTYPE
  5
852
330
79C
100
AcDbSymbolTableRecord
100
AcDbLinetypeTableRecord
  2
FENCELINE1
 70
     0
  3
Fenceline circle ----0-----0----0-----0----0-----0--
 72
    65
 73
     4
 40
36.83
 49
6.35
 74
     0
 49
-2.54
 74
     2
 75
     0
340
851
 46
2.54
 50
0.0
 44
-2.54
 45
0.0
  9
CIRC1
 49
-2.54
 74
     0
 49
25.4
 74
     0
  0
LTYPE
  5
853
330
79C
100
AcDbSymbolTableRecord
100
AcDbLinetypeTableRecord
  2
DIVIDE2
 70
     0
  3
Divide (.5x) __..__..__..__..__..__..__..__.._
 72
    65
 73
     6
 40
15.875
 49
6.35
 74
     0
 49
-3.175
 74
     0
 49
0.0
 74
     0
 49
-3.175
 74
     0
 49
0.0
 74
     0
 49
-3.175
 74
     0
  0
LTYPE
  5
854
330
79C
100
AcDbSymbolTableRecord
100
AcDbLinetypeTableRecord
  2
DIVIDEX2
 70
     0
  3
Divide (2x) ________  .  .  ________  .  .  _
 72
    65
 73
     6
 40
63.5
 49
25.4
 74
     0
 49
-12.7
 74
     0
 49
0.0
 74
     0
 49
-12.7
 74
     0
 49
0.0
 74
     0
 49
-12.7
 74
     0
  0
LTYPE
  5
855
330
79C
100
AcDbSymbolTableRecord
100
AcDbLinetypeTableRecord
  2
DOT
 70
     0
  3
Dot . . . . . . . . . . . . . . . . . . . . . . . .
 72
    65
 73
     2
 40
6.35
 49
0.0
 74
     0
 49
-6.35
 74
     0
  0
LTYPE
  5
856
330
79C
100
AcDbSymbolTableRecord
100
AcDbLinetypeTableRecord
  2
DOT2
 70
     0
  3
Dot (.5x) ........................................
 72
    65
 73
     2
 40
3.175
 49
0.0
 74
     0
 49
-3.175
 74
     0
  0
LTYPE
  5
857
330
79C
100
AcDbSymbolTableRecord
100
AcDbLinetypeTableRecord
  2
DASHED
 70
     0
  3
Dashed __ __ __ __ __ __ __ __ __ __ __ __ __ _
 72
    65
 73
     2
 40
19.05
 49
12.7
 74
     0
 49
-6.35
 74
     0
  0
LTYPE
  5
858
330
79C
100
AcDbSymbolTableRecord
100
AcDbLinetypeTableRecord
  2
DASHED2
 70
     0
  3
Dashed (.5x) _ _ _ _ _ _ _ _ _ _ _ _ _ _ _ _ _ 
 72
    65
 73
     2
 40
9.524999999999999
 49
6.35
 74
     0
 49
-3.175
 74
     0
  0
LTYPE
  5
859
330
79C
100
AcDbSymbolTableRecord
100
AcDbLinetypeTableRecord
  2
DASHEDX2
 70
     0
  3
Dashed (2x) ____  ____  ____  ____  ____  ___
 72
    65
 73
     2
 40
38.09999999999999
 49
25.4
 74
     0
 49
-12.7
 74
     0
  0
LTYPE
  5
85A
330
79C
100
AcDbSymbolTableRecord
100
AcDbLinetypeTableRecord
  2
DIVIDE
 70
     0
  3
Divide ____ . . ____ . . ____ . . ____ . . ____
 72
    65
 73
     6
 40
31.75
 49
12.7
 74
     0
 49
-6.35
 74
     0
 49
0.0
 74
     0
 49
-6.35
 74
     0
 49
0.0
 74
     0
 49
-6.35
 74
     0
  0
LTYPE
  5
85B
330
79C
100
AcDbSymbolTableRecord
100
AcDbLinetypeTableRecord
  2
Dash
 70
     0
  3

 72
    65
 73
     2
 40
0.2499999999999999
 49
0.125
 74
     0
 49
-0.125
 74
     0
  0
LTYPE
  5
85C
330
79C
100
AcDbSymbolTableRecord
100
AcDbLinetypeTableRecord
  2
PHANTOMX2
 70
     0
  3
Phantom (2x) ____________    ____    ____   _
 72
    65
 73
     6
 40
127.0
 49
63.5
 74
     0
 49
-12.7
 74
     0
 49
12.7
 74
     0
 49
-12.7
 74
     0
 49
12.7
 74
     0
 49
-12.7
 74
     0
  0
LTYPE
  5
85E
330
79C
100
AcDbSymbolTableRecord
100
AcDbLinetypeTableRecord
  2
TRACKS
 70
     0
  3
Tracks -|-|-|-|-|-|-|-|-|-|-|-|-|-|-|-|-|-|-|-|-|-|-|-|-
 72
    65
 73
     2
 40
7.62
 49
3.81
 74
     2
 75
     0
340
85D
 46
6.35
 50
0.0
 44
0.0
 45
0.0
  9
TRACK1
 49
3.81
 74
     0
  0
LTYPE
  5
861
330
79C
100
AcDbSymbolTableRecord
100
AcDbLinetypeTableRecord
  2
ZIGZAG
 70
     0
  3
Zig zag /\/\/\/\/\/\/\/\/\/\/\/\/\/\/\/\/\/\/\/\/\/\/\/
 72
    65
 73
     4
 40
20.32254
 49
0.00254
 74
     0
 49
-5.08
 74
     2
 75
     0
340
85F
 46
5.08
 50
0.0
 44
-5.08
 45
0.0
  9
ZIG
 49
-10.16
 74
     2
 75
     0
340
860
 46
5.08
 50
180.0
 44
5.08
 45
0.0
  9
ZIG
 49
-5.08
 74
     0
  0
LTYPE
  5
862
330
79C
100
AcDbSymbolTableRecord
100
AcDbLinetypeTableRecord
  2
HIDDENX2
 70
     0
  3
Hidden (2x) ____ ____ ____ ____ ____ ____ ____ 
 72
    65
 73
     2
 40
19.05
 49
12.7
 74
     0
 49
-6.35
 74
     0
  0
LTYPE
  5
864
330
79C
100
AcDbSymbolTableRecord
100
AcDbLinetypeTableRecord
  2
HOT_WATER_SUPPLY
 70
     0
  3
Hot water supply ---- HW ---- HW ---- HW ----
 72
    65
 73
     3
 40
22.86
 49
12.7
 74
     0
 49
-5.08
 74
     2
 75
     0
340
863
 46
2.54
 50
0.0
 44
-2.54
 45
-1.27
  9
HW
 49
-5.08
 74
     0
  0
LTYPE
  5
865
330
79C
100
AcDbSymbolTableRecord
100
AcDbLinetypeTableRecord
  2
PHANTOM
 70
     0
  3
Phantom ______  __  __  ______  __  __  ______ 
 72
    65
 73
     6
 40
63.5
 49
31.75
 74
     0
 49
-6.35
 74
     0
 49
6.35
 74
     0
 49
-6.35
 74
     0
 49
6.35
 74
     0
 49
-6.35
 74
     0
  0
LTYPE
  5
866
330
79C
100
AcDbSymbolTableRecord
100
AcDbLinetypeTableRecord
  2
PHANTOM2
 70
     0
  3
Phantom (.5x) ___ _ _ ___ _ _ ___ _ _ ___ _ _
 72
    65
 73
     6
 40
31.75
 49
15.875
 74
     0
 49
-3.175
 74
     0
 49
3.175
 74
     0
 49
-3.175
 74
     0
 49
3.175
 74
     0
 49
-3.175
 74
     0
  0
LTYPE
  5
867
330
79C
100
AcDbSymbolTableRecord
100
AcDbLinetypeTableRecord
  2
ACAD_ISO06W100
 70
     0
  3
ISO long-dash triple-dot ____ ... ____ ... ____
 72
    65
 73
     8
 40
36.0
 49
24.0
 74
     0
 49
-3.0
 74
     0
 49
0.0
 74
     0
 49
-3.0
 74
     0
 49
0.0
 74
     0
 49
-3.0
 74
     0
 49
0.0
 74
     0
 49
-3.0
 74
     0
  0
LTYPE
  5
868
330
79C
100
AcDbSymbolTableRecord
100
AcDbLinetypeTableRecord
  2
ACAD_ISO07W100
 70
     0
  3
ISO dot . . . . . . . . . . . . . . . . . . . . 
 72
    65
 73
     2
 40
3.0
 49
0.0
 74
     0
 49
-3.0
 74
     0
  0
LTYPE
  5
869
330
79C
100
AcDbSymbolTableRecord
100
AcDbLinetypeTableRecord
  2
ACAD_ISO08W100
 70
     0
  3
ISO long-dash short-dash ____ __ ____ __ ____ _
 72
    65
 73
     4
 40
36.0
 49
24.0
 74
     0
 49
-3.0
 74
     0
 49
6.0
 74
     0
 49
-3.0
 74
     0
  0
LTYPE
  5
86A
330
79C
100
AcDbSymbolTableRecord
100
AcDbLinetypeTableRecord
  2
ACAD_ISO09W100
 70
     0
  3
ISO long-dash double-short-dash ____ __ __ ____
 72
    65
 73
     6
 40
45.0
 49
24.0
 74
     0
 49
-3.0
 74
     0
 49
6.0
 74
     0
 49
-3.0
 74
     0
 49
6.0
 74
     0
 49
-3.0
 74
     0
  0
LTYPE
  5
86B
330
79C
100
AcDbSymbolTableRecord
100
AcDbLinetypeTableRecord
  2
ACAD_ISO02W100
 70
     0
  3
ISO dash __ __ __ __ __ __ __ __ __ __ __ __ __
 72
    65
 73
     2
 40
15.0
 49
12.0
 74
     0
 49
-3.0
 74
     0
  0
LTYPE
  5
86C
330
79C
100
AcDbSymbolTableRecord
100
AcDbLinetypeTableRecord
  2
ACAD_ISO03W100
 70
     0
  3
ISO dash space __    __    __    __    __    __
 72
    65
 73
     2
 40
30.0
 49
12.0
 74
     0
 49
-18.0
 74
     0
  0
LTYPE
  5
86D
330
79C
100
AcDbSymbolTableRecord
100
AcDbLinetypeTableRecord
  2
ACAD_ISO04W100
 70
     0
  3
ISO long-dash dot ____ . ____ . ____ . ____ . _
 72
    65
 73
     4
 40
30.0
 49
24.0
 74
     0
 49
-3.0
 74
     0
 49
0.0
 74
     0
 49
-3.0
 74
     0
  0
LTYPE
  5
86E
330
79C
100
AcDbSymbolTableRecord
100
AcDbLinetypeTableRecord
  2
ACAD_ISO05W100
 70
     0
  3
ISO long-dash double-dot ____ .. ____ .. ____ . 
 72
    65
 73
     6
 40
33.0
 49
24.0
 74
     0
 49
-3.0
 74
     0
 49
0.0
 74
     0
 49
-3.0
 74
     0
 49
0.0
 74
     0
 49
-3.0
 74
     0
  0
LTYPE
  5
86F
330
79C
100
AcDbSymbolTableRecord
100
AcDbLinetypeTableRecord
  2
CENTERX2
 70
     0
  3
Center (2x) ________  __  ________  __  _____
 72
    65
 73
     4
 40
101.6
 49
63.5
 74
     0
 49
-12.7
 74
     0
 49
12.7
 74
     0
 49
-12.7
 74
     0
  0
LTYPE
  5
870
330
79C
100
AcDbSymbolTableRecord
100
AcDbLinetypeTableRecord
  2
DASHDOT
 70
     0
  3
Dash dot __ . __ . __ . __ . __ . __ . __ . __
 72
    65
 73
     4
 40
25.4
 49
12.7
 74
     0
 49
-6.35
 74
     0
 49
0.0
 74
     0
 49
-6.35
 74
     0
  0
LTYPE
  5
871
330
79C
100
AcDbSymbolTableRecord
100
AcDbLinetypeTableRecord
  2
DASHDOT2
 70
     0
  3
Dash dot (.5x) _._._._._._._._._._._._._._._.
 72
    65
 73
     4
 40
12.7
 49
6.35
 74
     0
 49
-3.175
 74
     0
 49
0.0
 74
     0
 49
-3.175
 74
     0
  0
LTYPE
  5
872
330
79C
100
AcDbSymbolTableRecord
100
AcDbLinetypeTableRecord
  2
DASHDOTX2
 70
     0
  3
Dash dot (2x) ____  .  ____  .  ____  .  ___
 72
    65
 73
     4
 40
50.8
 49
25.4
 74
     0
 49
-12.7
 74
     0
 49
0.0
 74
     0
 49
-12.7
 74
     0
  0
LTYPE
  5
873
330
79C
100
AcDbSymbolTableRecord
100
AcDbLinetypeTableRecord
  2
BORDER2
 70
     0
  3
Border (.5x) __.__.__.__.__.__.__.__.__.__.__.
 72
    65
 73
     6
 40
22.225
 49
6.35
 74
     0
 49
-3.175
 74
     0
 49
6.35
 74
     0
 49
-3.175
 74
     0
 49
0.0
 74
     0
 49
-3.175
 74
     0
  0
LTYPE
  5
874
330
79C
100
AcDbSymbolTableRecord
100
AcDbLinetypeTableRecord
  2
BORDERX2
 70
     0
  3
Border (2x) ____  ____  .  ____  ____  .  ___
 72
    65
 73
     6
 40
88.89999999999999
 49
25.4
 74
     0
 49
-12.7
 74
     0
 49
25.4
 74
     0
 49
-12.7
 74
     0
 49
0.0
 74
     0
 49
-12.7
 74
     0
  0
LTYPE
  5
875
330
79C
100
AcDbSymbolTableRecord
100
AcDbLinetypeTableRecord
  2
CENTER
 70
     0
  3
Center ____ _ ____ _ ____ _ ____ _ ____ _ ____
 72
    65
 73
     4
 40
50.8
 49
31.75
 74
     0
 49
-6.35
 74
     0
 49
6.35
 74
     0
 49
-6.35
 74
     0
  0
LTYPE
  5
876
330
79C
100
AcDbSymbolTableRecord
100
AcDbLinetypeTableRecord
  2
CENTER2
 70
     0
  3
Center (.5x) ___ _ ___ _ ___ _ ___ _ ___ _ ___
 72
    65
 73
     4
 40
28.575
 49
19.05
 74
     0
 49
-3.175
 74
     0
 49
3.175
 74
     0
 49
-3.175
 74
     0
  0
LTYPE
  5
877
330
79C
100
AcDbSymbolTableRecord
100
AcDbLinetypeTableRecord
  2
ACAD_ISO14W100
 70
     0
  3
ISO dash triple-dot __ . . . __ . . . __ . . . _
 72
    65
 73
     8
 40
24.0
 49
12.0
 74
     0
 49
-3.0
 74
     0
 49
0.0
 74
     0
 49
-3.0
 74
     0
 49
0.0
 74
     0
 49
-3.0
 74
     0
 49
0.0
 74
     0
 49
-3.0
 74
     0
  0
LTYPE
  5
878
330
79C
100
AcDbSymbolTableRecord
100
AcDbLinetypeTableRecord
  2
ACAD_ISO15W100
 70
     0
  3
ISO double-dash triple-dot __ __ . . . __ __ . .
 72
    65
 73
    10
 40
39.0
 49
12.0
 74
     0
 49
-3.0
 74
     0
 49
12.0
 74
     0
 49
-3.0
 74
     0
 49
0.0
 74
     0
 49
-3.0
 74
     0
 49
0.0
 74
     0
 49
-3.0
 74
     0
 49
0.0
 74
     0
 49
-3.0
 74
     0
  0
LTYPE
  5
87B
330
79C
100
AcDbSymbolTableRecord
100
AcDbLinetypeTableRecord
  2
BATTING
 70
     0
  3
Batting SSSSSSSSSSSSSSSSSSSSSSSSSSSSSSSSSSSSSSSSSSSSSSS
 72
    65
 73
     4
 40
10.16254
 49
0.00254
 74
     0
 49
-2.54
 74
     2
 75
     0
340
879
 46
2.54
 50
0.0
 44
-2.54
 45
0.0
  9
BAT
 49
-5.08
 74
     2
 75
     0
340
87A
 46
2.54
 50
180.0
 44
2.54
 45
0.0
  9
BAT
 49
-2.54
 74
     0
  0
LTYPE
  5
87C
330
79C
100
AcDbSymbolTableRecord
100
AcDbLinetypeTableRecord
  2
BORDER
 70
     0
  3
Border __ __ . __ __ . __ __ . __ __ . __ __ .
 72
    65
 73
     6
 40
44.45
 49
12.7
 74
     0
 49
-6.35
 74
     0
 49
12.7
 74
     0
 49
-6.35
 74
     0
 49
0.0
 74
     0
 49
-6.35
 74
     0
  0
LTYPE
  5
87D
330
79C
100
AcDbSymbolTableRecord
100
AcDbLinetypeTableRecord
  2
ACAD_ISO10W100
 70
     0
  3
ISO dash dot __ . __ . __ . __ . __ . __ . __ . 
 72
    65
 73
     4
 40
18.0
 49
12.0
 74
     0
 49
-3.0
 74
     0
 49
0.0
 74
     0
 49
-3.0
 74
     0
  0
LTYPE
  5
87E
330
79C
100
AcDbSymbolTableRecord
100
AcDbLinetypeTableRecord
  2
ACAD_ISO11W100
 70
     0
  3
ISO double-dash dot __ __ . __ __ . __ __ . __ _
 72
    65
 73
     6
 40
33.0
 49
12.0
 74
     0
 49
-3.0
 74
     0
 49
12.0
 74
     0
 49
-3.0
 74
     0
 49
0.0
 74
     0
 49
-3.0
 74
     0
  0
LTYPE
  5
87F
330
79C
100
AcDbSymbolTableRecord
100
AcDbLinetypeTableRecord
  2
ACAD_ISO12W100
 70
     0
  3
ISO dash double-dot __ . . __ . . __ . . __ . . 
 72
    65
 73
     6
 40
21.0
 49
12.0
 74
     0
 49
-3.0
 74
     0
 49
0.0
 74
     0
 49
-3.0
 74
     0
 49
0.0
 74
     0
 49
-3.0
 74
     0
  0
LTYPE
  5
880
330
79C
100
AcDbSymbolTableRecord
100
AcDbLinetypeTableRecord
  2
ACAD_ISO13W100
 70
     0
  3
ISO double-dash double-dot __ __ . . __ __ . . _
 72
    65
 73
     8
 40
36.0
 49
12.0
 74
     0
 49
-3.0
 74
     0
 49
12.0
 74
     0
 49
-3.0
 74
     0
 49
0.0
 74
     0
 49
-3.0
 74
     0
 49
0.0
 74
     0
 49
-3.0
 74
     0
  0
ENDTAB
  0
TABLE
  2
LAYER
  5
79A
330
0
100
AcDbSymbolTable
 70
    16
  0
LAYER
  5
7A7
330
79A
100
AcDbSymbolTableRecord
100
AcDbLayerTableRecord
  2
0
 70
     0
 62
     7
  6
Continuous
370
    25
390
7A6
347
7DC
348
0
  0
LAYER
  5
881
330
79A
100
AcDbSymbolTableRecord
100
AcDbLayerTableRecord
  2
Equipment
 70
     0
 62
     1
420
 16711680
  6
Continuous
370
    25
390
7A6
347
7DC
348
0
  0
LAYER
  5
882
330
79A
100
AcDbSymbolTableRecord
100
AcDbLayerTableRecord
  2
Clearances
 70
     0
 62
     2
420
 16776960
  6
Continuous
370
    25
390
7A6
347
7DC
348
0
  0
LAYER
  5
883
330
79A
100
AcDbSymbolTableRecord
100
AcDbLayerTableRecord
  2
Walls
 70
     0
 62
     4
420
    65535
  6
Continuous
370
    25
390
7A6
347
7DC
348
0
  0
LAYER
  5
884
330
79A
100
AcDbSymbolTableRecord
100
AcDbLayerTableRecord
  2
Working
 70
     1
 62
  -178
420
        0
  6
Continuous
370
    25
390
7A6
347
7DC
348
0
  0
LAYER
  5
885
330
79A
100
AcDbSymbolTableRecord
100
AcDbLayerTableRecord
  2
Measure ... Feet
 70
     1
 62
    -2
420
 16776960
  6
Continuous
370
    25
390
7A6
347
7DC
348
0
  0
LAYER
  5
886
330
79A
100
AcDbSymbolTableRecord
100
AcDbLayerTableRecord
  2
hood
 70
     0
 62
     3
420
    65280
  6
Continuous
370
    25
390
7A6
347
7DC
348
0
  0
LAYER
  5
887
330
79A
100
AcDbSymbolTableRecord
100
AcDbLayerTableRecord
  2
Equipment ... Fridge
 70
     0
 62
     1
420
 16711680
  6
Continuous
370
    25
390
7A6
347
7DC
348
0
  0
LAYER
  5
888
330
79A
100
AcDbSymbolTableRecord
100
AcDbLayerTableRecord
  2
cabinets
 70
     0
 62
     6
420
 16711935
  6
Continuous
370
    25
390
7A6
347
7DC
348
0
  0
LAYER
  5
889
330
79A
100
AcDbSymbolTableRecord
100
AcDbLayerTableRecord
  2
Countertops
 70
     0
 62
     9
420
 12632256
  6
Continuous
370
    25
390
7A6
347
7DC
348
0
  0
LAYER
  5
88A
330
79A
100
AcDbSymbolTableRecord
100
AcDbLayerTableRecord
  2
Measure
 70
     1
 62
    -2
420
 16776960
  6
Continuous
370
    25
390
7A6
347
7DC
348
0
  0
LAYER
  5
88B
330
79A
100
AcDbSymbolTableRecord
100
AcDbLayerTableRecord
  2
Feet
 70
     1
 62
   -30
420
 16744192
  6
Continuous
370
    25
390
7A6
347
7DC
348
0
  0
LAYER
  5
88C
330
79A
100
AcDbSymbolTableRecord
100
AcDbLayerTableRecord
  2
Equipment ... Freezer
 70
     0
 62
     1
420
 16711680
  6
Continuous
370
    25
390
7A6
347
7DC
348
0
  0
LAYER
  5
88D
330
79A
100
AcDbSymbolTableRecord
100
AcDbLayerTableRecord
  2
Equipment ... Dshwsh
 70
     0
 62
     1
420
 16711680
  6
Continuous
370
    25
390
7A6
347
7DC
348
0
  0
LAYER
  5
88E
330
79A
100
AcDbSymbolTableRecord
100
AcDbLayerTableRecord
  2
Equipment ... Range
 70
     0
 62
     1
420
 16711680
  6
Continuous
370
    25
390
7A6
347
7DC
348
0
  0
LAYER
  5
88F
330
79A
100
AcDbSymbolTableRecord
100
AcDbLayerTableRecord
  2
Doors And Windows
 70
     0
 62
    30
420
 16744192
  6
Continuous
370
    25
390
7A6
347
7DC
348
0
  0
ENDTAB
  0
TABLE
  2
STYLE
  5
79B
330
0
100
AcDbSymbolTable
 70
    22
  0
STYLE
  5
7A8
330
79B
100
AcDbSymbolTableRecord
100
AcDbTextStyleTableRecord
  2
Standard
 70
     0
 40
0.0
 41
1.0
 50
0.0
 71
     0
 42
0.2
  3
txt
  4

  0
STYLE
  5
844
330
79B
100
AcDbSymbolTableRecord
100
AcDbTextStyleTableRecord
  2
QCADDimTextStyle
 70
     0
 40
0.0
 41
1.0
 50
0.0
 71
     0
 42
0.2
  3
txt
  4

  0
STYLE
  5
846
330
79B
100
AcDbSymbolTableRecord
100
AcDbTextStyleTableRecord
  2
textstyle0
 70
     0
 40
0.0
 41
1.0
 50
0.0
 71
     0
 42
0.2
  3
ltypeshp.shx
  4

  0
STYLE
  5
848
330
79B
100
AcDbSymbolTableRecord
100
AcDbTextStyleTableRecord
  2
textstyle1
 70
     0
 40
0.0
 41
1.0
 50
0.0
 71
     0
 42
0.2
  3
STANDARD
  4

  0
STYLE
  5
84D
330
79B
100
AcDbSymbolTableRecord
100
AcDbTextStyleTableRecord
  2
textstyle2
 70
     0
 40
0.0
 41
1.0
 50
0.0
 71
     0
 42
0.2
  3
qcadshp.shx
  4

  0
STYLE
  5
84F
330
79B
100
AcDbSymbolTableRecord
100
AcDbTextStyleTableRecord
  2
textstyle3
 70
     0
 40
0.0
 41
1.0
 50
0.0
 71
     0
 42
0.2
  3
qcadshp.shx
  4

  0
STYLE
  5
851
330
79B
100
AcDbSymbolTableRecord
100
AcDbTextStyleTableRecord
  2
textstyle4
 70
     0
 40
0.0
 41
1.0
 50
0.0
 71
     0
 42
0.2
  3
ltypeshp.shx
  4

  0
STYLE
  5
85D
330
79B
100
AcDbSymbolTableRecord
100
AcDbTextStyleTableRecord
  2
textstyle5
 70
     0
 40
0.0
 41
1.0
 50
0.0
 71
     0
 42
0.2
  3
ltypeshp.shx
  4

  0
STYLE
  5
85F
330
79B
100
AcDbSymbolTableRecord
100
AcDbTextStyleTableRecord
  2
textstyle6
 70
     0
 40
0.0
 41
1.0
 50
0.0
 71
     0
 42
0.2
  3
ltypeshp.shx
  4

  0
STYLE
  5
860
330
79B
100
AcDbSymbolTableRecord
100
AcDbTextStyleTableRecord
  2
textstyle7
 70
     0
 40
0.0
 41
1.0
 50
0.0
 71
     0
 42
0.2
  3
ltypeshp.shx
  4

  0
STYLE
  5
863
330
79B
100
AcDbSymbolTableRecord
100
AcDbTextStyleTableRecord
  2
textstyle8
 70
     0
 40
0.0
 41
1.0
 50
0.0
 71
     0
 42
0.2
  3
STANDARD
  4

  0
STYLE
  5
879
330
79B
100
AcDbSymbolTableRecord
100
AcDbTextStyleTableRecord
  2
textstyle9
 70
     0
 40
0.0
 41
1.0
 50
0.0
 71
     0
 42
0.2
  3
ltypeshp.shx
  4

  0
STYLE
  5
87A
330
79B
100
AcDbSymbolTableRecord
100
AcDbTextStyleTableRecord
  2
textstyle10
 70
     0
 40
0.0
 41
1.0
 50
0.0
 71
     0
 42
0.2
  3
ltypeshp.shx
  4

  0
STYLE
  5
893
330
79B
100
AcDbSymbolTableRecord
100
AcDbTextStyleTableRecord
  2
textstyle11
 70
     0
 40
0.0
 41
1.0
 50
0.0
 71
     0
 42
0.2
  3

  4

1001
ACAD
1000
Liberation Sans
1071
        0
  0
STYLE
  5
894
330
79B
100
AcDbSymbolTableRecord
100
AcDbTextStyleTableRecord
  2
textstyle12
 70
     0
 40
0.0
 41
1.0
 50
0.0
 71
     0
 42
0.2
  3

  4

1001
ACAD
1000
Liberation Sans
1071
        0
  0
STYLE
  5
895
330
79B
100
AcDbSymbolTableRecord
100
AcDbTextStyleTableRecord
  2
textstyle13
 70
     0
 40
0.0
 41
1.0
 50
0.0
 71
     0
 42
0.2
  3

  4

1001
ACAD
1000
Liberation Sans
1071
        0
  0
STYLE
  5
896
330
79B
100
AcDbSymbolTableRecord
100
AcDbTextStyleTableRecord
  2
textstyle14
 70
     0
 40
0.0
 41
1.0
 50
0.0
 71
     0
 42
0.2
  3

  4

1001
ACAD
1000
Liberation Sans
1071
        0
  0
STYLE
  5
897
330
79B
100
AcDbSymbolTableRecord
100
AcDbTextStyleTableRecord
  2
textstyle15
 70
     0
 40
0.0
 41
1.0
 50
0.0
 71
     0
 42
0.2
  3

  4

1001
ACAD
1000
Liberation Sans
1071
        0
  0
STYLE
  5
898
330
79B
100
AcDbSymbolTableRecord
100
AcDbTextStyleTableRecord
  2
textstyle16
 70
     0
 40
0.0
 41
1.0
 50
0.0
 71
     0
 42
0.2
  3

  4

1001
ACAD
1000
Liberation Sans
1071
        0
  0
STYLE
  5
899
330
79B
100
AcDbSymbolTableRecord
100
AcDbTextStyleTableRecord
  2
textstyle17
 70
     0
 40
0.0
 41
1.0
 50
0.0
 71
     0
 42
0.2
  3

  4

1001
ACAD
1000
Liberation Sans
1071
        0
  0
STYLE
  5
89A
330
79B
100
AcDbSymbolTableRecord
100
AcDbTextStyleTableRecord
  2
textstyle18
 70
     0
 40
0.0
 41
1.0
 50
0.0
 71
     0
 42
0.2
  3

  4

1001
ACAD
1000
Liberation Sans
1071
        0
  0
STYLE
  5
89B
330
79B
100
AcDbSymbolTableRecord
100
AcDbTextStyleTableRecord
  2
textstyle19
 70
     0
 40
0.0
 41
1.0
 50
0.0
 71
     0
 42
0.2
  3

  4

1001
ACAD
1000
Liberation Sans
1071
        0
  0
ENDTAB
  0
TABLE
  2
VIEW
  5
79D
330
0
100
AcDbSymbolTable
 70
     0
  0
ENDTAB
  0
TABLE
  2
UCS
  5
79E
330
0
100
AcDbSymbolTable
 70
     0
  0
ENDTAB
  0
TABLE
  2
APPID
  5
7A0
330
0
100
AcDbSymbolTable
 70
     3
  0
APPID
  5
7A9
330
7A0
100
AcDbSymbolTableRecord
100
AcDbRegAppTableRecord
  2
ACAD
 70
     0
  0
APPID
  5
804
330
7A0
100
AcDbSymbolTableRecord
100
AcDbRegAppTableRecord
  2
QCAD
 70
     0
  0
APPID
  5
892
330
7A0
100
AcDbSymbolTableRecord
100
AcDbRegAppTableRecord
  2
REVIT
 70
     0
  0
ENDTAB
  0
TABLE
  2
DIMSTYLE
  5
7A1
330
0
100
AcDbSymbolTable
 70
     2
100
AcDbDimStyleTable
  0
DIMSTYLE
105
7BD
330
7A1
100
AcDbSymbolTableRecord
100
AcDbDimStyleTableRecord
  2
Standard
 70
     0
178
     0
340
7A8
  0
DIMSTYLE
105
845
102
{ACAD_REACTORS
330
43A
330
43B
330
43C
330
43D
330
57C
330
57D
330
57E
330
57F
330
580
330
582
102
}
330
7A1
100
AcDbSymbolTableRecord
100
AcDbDimStyleTableRecord
  2
QCADDimStyle
 70
     0
 41
3.0
 42
0.75
 44
1.5
 73
     0
 77
     1
140
3.0
147
0.75
178
   256
340
844
  0
ENDTAB
  0
TABLE
  2
BLOCK_RECORD
  5
799
330
0
100
AcDbSymbolTable
 70
     0
  0
BLOCK_RECORD
  5
7B5
330
799
100
AcDbSymbolTableRecord
100
AcDbBlockTableRecord
  2
*Model_Space
340
7B8
 70
     0
280
     1
281
     0
  0
BLOCK_RECORD
  5
7B1
330
799
100
AcDbSymbolTableRecord
100
AcDbBlockTableRecord
  2
*Paper_Space
340
7B4
 70
     0
280
     1
281
     0
  0
ENDTAB
  0
ENDSEC
  0
SECTION
  2
BLOCKS
  0
BLOCK
  5
7B6
330
7B5
100
AcDbEntity
  8
0
100
AcDbBlockBegin
  2
*Model_Space
 70
     0
 10
0.0
 20
0.0
 30
0.0
  3
*Model_Space
  1

  0
ENDBLK
  5
7B7
330
7B5
100
AcDbEntity
  8
0
100
AcDbBlockEnd
  0
BLOCK
  5
7B2
330
7B1
100
AcDbEntity
 67
     1
  8
0
100
AcDbBlockBegin
  2
*Paper_Space
 70
     0
 10
0.0
 20
0.0
 30
0.0
  3
*Paper_Space
  1

  0
ENDBLK
  5
7B3
330
7B1
100
AcDbEntity
 67
     1
  8
0
100
AcDbBlockEnd
  0
ENDSEC
  0
SECTION
  2
ENTITIES
  0
LINE
  5
55
330
7B5
100
AcDbEntity
  8
Doors And Windows
100
AcDbLine
 10
28.00000000000001
 20
153.0
 30
0.0
 11
103.0
 21
153.0
 31
0.0
  0
LINE
  5
56
330
7B5
100
AcDbEntity
  8
Doors And Windows
100
AcDbLine
 10
145.5
 20
153.0
 30
0.0
 11
220.5
 21
153.0
 31
0.0
  0
LINE
  5
57
330
7B5
100
AcDbEntity
  8
Doors And Windows
100
AcDbLine
 10
28.00000000000001
 20
152.25
 30
0.0
 11
103.0
 21
152.25
 31
0.0
  0
LINE
  5
757
330
7B5
100
AcDbEntity
  8
Equipment ... Freezer
100
AcDbLine
 10
21.0
 20
1.000000000000028
 30
0.0
 11
51.0
 21
1.000000000000028
 31
0.0
  0
LINE
  5
771
330
7B5
100
AcDbEntity
  8
Equipment ... Fridge
100
AcDbLine
 10
51.99999999999991
 20
26.78125000000011
 30
0.0
 11
51.99999999999994
 21
28.90624999999989
 31
0.0
  0
LINE
  5
758
330
7B5
100
AcDbEntity
  8
Equipment ... Freezer
100
AcDbLine
 10
21.0
 20
28.90624999999982
 30
0.0
 11
51.0
 21
28.9062499999999
 31
0.0
  0
LINE
  5
772
330
7B5
100
AcDbEntity
  8
Equipment ... Fridge
100
AcDbLine
 10
54.28981341927597
 20
26.78125000000012
 30
0.0
 11
54.28981341927595
 21
28.90624999999987
 31
0.0
  0
LINE
  5
759
330
7B5
100
AcDbEntity
  8
Equipment ... Freezer
100
AcDbLine
 10
47.71018658072406
 20
26.78125000000011
 30
0.0
 11
47.71018658072405
 21
28.90624999999989
 31
0.0
  0
LINE
  5
773
330
7B5
100
AcDbEntity
  8
Equipment ... Fridge
100
AcDbLine
 10
77.71018658072404
 20
26.78125000000011
 30
0.0
 11
77.71018658072403
 21
28.9062499999998
 31
0.0
  0
LINE
  5
58
330
7B5
100
AcDbEntity
  8
Doors And Windows
100
AcDbLine
 10
145.5
 20
152.25
 30
0.0
 11
220.5
 21
152.25
 31
0.0
  0
LINE
  5
75A
330
7B5
100
AcDbEntity
  8
Equipment ... Freezer
100
AcDbLine
 10
24.28981341927599
 20
26.78125000000013
 30
0.0
 11
24.28981341927597
 21
28.90624999999982
 31
0.0
  0
LINE
  5
774
330
7B5
100
AcDbEntity
  8
Equipment ... Fridge
100
AcDbLine
 10
80.00000000000011
 20
26.78125000000011
 30
0.0
 11
80.00000000000011
 21
28.90624999999979
 31
0.0
  0
LINE
  5
75B
330
7B5
100
AcDbEntity
  8
Equipment ... Freezer
100
AcDbLine
 10
21.99999999999991
 20
26.78125000000013
 30
0.0
 11
21.99999999999991
 21
28.90624999999982
 31
0.0
  0
LINE
  5
776
330
7B5
100
AcDbEntity
  8
Equipment ... Fridge
100
AcDbLine
 10
81.00000000000021
 20
16.23437500000005
 30
0.0
 11
81.00000000000023
 21
24.7812500000001
 31
0.0
  0
LINE
  5
75C
330
7B5
100
AcDbEntity
  8
Equipment ... Freezer
100
AcDbLine
 10
20.99999999999979
 20
24.78125000000011
 30
0.0
 11
50.9999999999998
 21
24.78125000000011
 31
0.0
  0
LINE
  5
777
330
7B5
100
AcDbEntity
  8
Equipment ... Fridge
100
AcDbLine
 10
51.0
 20
1.000000000000028
 30
0.0
 11
81.0
 21
1.000000000000028
 31
0.0
  0
LINE
  5
59
330
7B5
100
AcDbEntity
  8
Doors And Windows
100
AcDbLine
 10
28.00000000000001
 20
153.0
 30
0.0
 11
28.00000000000001
 21
152.25
 31
0.0
  0
LINE
  5
75D
330
7B5
100
AcDbEntity
  8
Equipment ... Freezer
100
AcDbLine
 10
21.0
 20
28.90624999999982
 30
0.0
 11
21.00000000000004
 21
1.000000000000028
 31
0.0
  0
LINE
  5
778
330
7B5
100
AcDbEntity
  8
Equipment ... Fridge
100
AcDbLine
 10
81.00000000000001
 20
28.90624999999977
 30
0.0
 11
80.99999999999996
 21
1.000000000000014
 31
0.0
  0
LINE
  5
5A
330
7B5
100
AcDbEntity
  8
Doors And Windows
100
AcDbLine
 10
103.0
 20
152.25
 30
0.0
 11
103.0
 21
153.0
 31
0.0
  0
LINE
  5
75E
330
7B5
100
AcDbEntity
  8
Equipment ... Freezer
100
AcDbLine
 10
20.99999999999999
 20
26.78125000000006
 30
0.0
 11
51.00000000000001
 21
26.78125000000005
 31
0.0
  0
LINE
  5
779
330
7B5
100
AcDbEntity
  8
Equipment ... Fridge
100
AcDbLine
 10
51.00000000000001
 20
28.9062499999999
 30
0.0
 11
81.00000000000001
 21
28.90624999999977
 31
0.0
  0
LINE
  5
5B
330
7B5
100
AcDbEntity
  8
Doors And Windows
100
AcDbLine
 10
145.5
 20
152.25
 30
0.0
 11
145.5
 21
153.0
 31
0.0
  0
LINE
  5
75F
330
7B5
100
AcDbEntity
  8
Equipment ... Freezer
100
AcDbLine
 10
51.0
 20
28.9062499999999
 30
0.0
 11
51.00000000000001
 21
26.78125000000011
 31
0.0
  0
LINE
  5
77A
330
7B5
100
AcDbEntity
  8
Equipment ... Fridge
100
AcDbLine
 10
81.0
 20
26.78125000000004
 30
0.0
 11
51.00000000000001
 21
26.78125000000007
 31
0.0
  0
LINE
  5
760
330
7B5
100
AcDbEntity
  8
Equipment ... Freezer
100
AcDbLine
 10
51.0
 20
1.000000000000028
 30
0.0
 11
51.00000000000001
 21
26.7812500000001
 31
0.0
  0
LINE
  5
77B
330
7B5
100
AcDbEntity
  8
Equipment ... Fridge
100
AcDbLine
 10
51.00000000000001
 20
24.78125000000005
 30
0.0
 11
81.0
 21
24.78125000000004
 31
0.0
  0
ARC
  5
762
330
7B5
100
AcDbEntity
  8
Clearances
  6
Dash
 48
12.0
100
AcDbCircle
 10
50.00000000000007
 20
28.90624999999999
 30
0.0
 40
28.00000000000025
100
AcDbArc
 50
150.0000000000003
 51
180.0
1001
REVIT
1002
{
1070
     3
1000
488550
1002
}
  0
LINE
  5
77C
330
7B5
100
AcDbEntity
  8
Equipment ... Fridge
100
AcDbLine
 10
80.99986378373549
 20
1.000000000000028
 30
0.0
 11
80.99986378373549
 21
16.23437500000005
 31
0.0
  0
LINE
  5
175
330
7B5
100
AcDbEntity
  8
Doors And Windows
100
AcDbLine
 10
220.5
 20
152.25
 30
0.0
 11
220.5
 21
153.0
 31
0.0
  0
LINE
  5
763
330
7B5
100
AcDbEntity
  8
Clearances
  6
Dash
 48
12.0
100
AcDbLine
 10
25.75128869403561
 20
42.90625000000009
 30
0.0
 11
50.00000000000008
 21
28.90624999999999
 31
0.0
1001
REVIT
1002
{
1070
     3
1000
488550
1002
}
  0
LINE
  5
77D
330
7B5
100
AcDbEntity
  8
Equipment ... Fridge
100
AcDbLine
 10
51.00000000000001
 20
28.9062499999999
 30
0.0
 11
51.00000000000001
 21
26.78125000000013
 31
0.0
  0
LINE
  5
764
330
7B5
100
AcDbEntity
  8
Equipment ... Freezer
100
AcDbLine
 10
51.00000000000004
 20
26.90624999999999
 30
0.0
 11
50.00000000000005
 21
26.90624999999998
 31
0.0
  0
LINE
  5
77E
330
7B5
100
AcDbEntity
  8
Equipment ... Fridge
100
AcDbLine
 10
51.0
 20
1.000000000000028
 30
0.0
 11
51.00000000000001
 21
26.78125000000013
 31
0.0
  0
LINE
  5
765
330
7B5
100
AcDbEntity
  8
Equipment ... Freezer
100
AcDbLine
 10
51.00000000000005
 20
28.40625
 30
0.0
 11
50.00000000000005
 21
28.40624999999999
 31
0.0
  0
ARC
  5
780
330
7B5
100
AcDbEntity
  8
Clearances
  6
Dash
 48
12.0
100
AcDbCircle
 10
51.99999999999992
 20
28.90624999999998
 30
0.0
 40
28.00000000000025
100
AcDbArc
 50
0.0000000000004071
 51
30.00000000000012
1001
REVIT
1002
{
1070
     3
1000
488550
1002
}
  0
LINE
  5
766
330
7B5
100
AcDbEntity
  8
Equipment ... Freezer
100
AcDbLine
 10
22.25000000000006
 20
28.90625
 30
0.0
 11
22.44689923494279
 21
30.02292105142743
 31
0.0
  0
LINE
  5
781
330
7B5
100
AcDbEntity
  8
Clearances
  6
Dash
 48
12.0
100
AcDbLine
 10
76.2487113059644
 20
42.90625000000009
 30
0.0
 11
51.99999999999996
 21
28.90625
 31
0.0
1001
REVIT
1002
{
1070
     3
1000
488550
1002
}
  0
LINE
  5
767
330
7B5
100
AcDbEntity
  8
Equipment ... Freezer
100
AcDbLine
 10
23.30310076505729
 20
30.02292105142742
 30
0.0
 11
23.50000000000004
 21
28.90624999999999
 31
0.0
  0
LINE
  5
782
330
7B5
100
AcDbEntity
  8
Equipment ... Fridge
100
AcDbLine
 10
50.99999999999996
 20
26.90624999999999
 30
0.0
 11
51.99999999999996
 21
26.90624999999997
 31
0.0
  0
ARC
  5
768
330
7B5
100
AcDbEntity
  8
Equipment ... Freezer
100
AcDbCircle
 10
22.87500000000006
 20
30.75
 30
0.0
 40
0.843749999999991
100
AcDbArc
 50
0.0000000000012213
 51
180.0000000000004
  0
LINE
  5
783
330
7B5
100
AcDbEntity
  8
Equipment ... Fridge
100
AcDbLine
 10
50.99999999999997
 20
28.40625
 30
0.0
 11
51.99999999999997
 21
28.40624999999999
 31
0.0
  0
ARC
  5
769
330
7B5
100
AcDbEntity
  8
Equipment ... Freezer
100
AcDbCircle
 10
22.87500000000006
 20
30.75
 30
0.0
 40
0.8437499999999899
100
AcDbArc
 50
180.0
 51
0.0000000000004071
  0
LINE
  5
784
330
7B5
100
AcDbEntity
  8
Equipment ... Fridge
100
AcDbLine
 10
79.74999999999997
 20
28.90624999999998
 30
0.0
 11
79.55310076505722
 21
30.02292105142742
 31
0.0
  0
LINE
  5
76A
330
7B5
100
AcDbEntity
  8
Equipment ... Freezer
100
AcDbLine
 10
50.00000000000007
 20
26.78125000000011
 30
0.0
 11
50.00000000000005
 21
28.90624999999998
 31
0.0
  0
LINE
  5
785
330
7B5
100
AcDbEntity
  8
Equipment ... Fridge
100
AcDbLine
 10
78.69689923494272
 20
30.02292105142741
 30
0.0
 11
78.49999999999996
 21
28.90624999999999
 31
0.0
  0
LINE
  5
76B
330
7B5
100
AcDbEntity
  8
Equipment ... Freezer
100
AcDbLine
 10
22.00000000000004
 20
26.90624999999999
 30
0.0
 11
50.00000000000004
 21
26.90625
 31
0.0
  0
ARC
  5
786
330
7B5
100
AcDbEntity
  8
Equipment ... Fridge
100
AcDbCircle
 10
79.12499999999996
 20
30.74999999999997
 30
0.0
 40
0.843749999999991
100
AcDbArc
 50
0.0
 51
180.0
  0
ARC
  5
787
330
7B5
100
AcDbEntity
  8
Equipment ... Fridge
100
AcDbCircle
 10
79.12499999999996
 20
30.74999999999997
 30
0.0
 40
0.8437499999999899
100
AcDbArc
 50
180.0
 51
0.0
  0
LINE
  5
788
330
7B5
100
AcDbEntity
  8
Equipment ... Fridge
100
AcDbLine
 10
79.99999999999997
 20
26.90624999999997
 30
0.0
 11
51.99999999999997
 21
26.90625
 31
0.0
  0
LINE
  5
187
330
7B5
100
AcDbEntity
  8
hood
100
AcDbLine
 10
139.0
 20
-30.49999999999999
 30
0.0
 11
139.0
 21
17.5
 31
0.0
  0
LINE
  5
188
330
7B5
100
AcDbEntity
  8
hood
100
AcDbLine
 10
211.0
 20
-30.5
 30
0.0
 11
211.0
 21
17.5
 31
0.0
  0
LINE
  5
189
330
7B5
100
AcDbEntity
  8
hood
100
AcDbLine
 10
139.0
 20
17.5
 30
0.0
 11
211.0
 21
17.5
 31
0.0
  0
LWPOLYLINE
  5
18C
330
7B5
100
AcDbEntity
  8
Equipment ... Range
100
AcDbPolyline
 90
        2
 70
     0
 43
0.0
 10
205.0
 20
7.640379999999885
 10
145.00001
 20
7.640379999999885
  0
LWPOLYLINE
  5
18D
330
7B5
100
AcDbEntity
  8
Equipment ... Range
100
AcDbPolyline
 90
        2
 70
     0
 43
0.0
 10
145.00001
 20
-19.37020000000018
 10
205.0
 20
-19.37020000000013
  0
LWPOLYLINE
  5
18E
330
7B5
100
AcDbEntity
  8
Equipment ... Range
100
AcDbPolyline
 90
        4
 70
     1
 43
0.0
 10
205.0
 20
11.62999999999986
 10
145.00001
 20
11.62999999999999
 10
145.00001
 20
-22.12020000000016
 10
205.0
 20
-22.12020000000013
  0
LWPOLYLINE
  5
190
330
7B5
100
AcDbEntity
  8
Equipment ... Range
100
AcDbPolyline
 90
        2
 70
     0
 43
0.0
 10
193.32685
 20
-31.67743000000014
 10
193.32685
 20
-22.12020000000012
  0
LWPOLYLINE
  5
191
330
7B5
100
AcDbEntity
  8
Equipment ... Range
100
AcDbPolyline
 90
        2
 70
     0
 43
0.0
 10
186.68521
 20
-31.67743000000013
 10
186.68521
 20
-22.12020000000013
  0
LWPOLYLINE
  5
192
330
7B5
100
AcDbEntity
  8
Equipment ... Range
100
AcDbPolyline
 90
        4
 70
     0
 43
0.0
 10
191.54656
 20
-31.67743000000014
 10
191.54656
 20
-32.12020000000012
 10
188.45344
 20
-32.12020000000012
 10
188.45344
 20
-31.67743000000014
  0
LWPOLYLINE
  5
193
330
7B5
100
AcDbEntity
  8
Equipment ... Range
100
AcDbPolyline
 90
        4
 70
     0
 43
0.0
 10
185.00603
 20
-22.12020000000013
 10
185.00603
 20
-31.67743000000013
 10
195.00603
 20
-31.67743000000012
 10
195.00603
 20
-22.12020000000013
  0
LWPOLYLINE
  5
195
330
7B5
100
AcDbEntity
  8
Equipment ... Range
100
AcDbPolyline
 90
        2
 70
     0
 43
0.0
 10
198.8431
 20
-23.23844000000013
 10
198.44519
 20
-23.27989000000013
  0
LWPOLYLINE
  5
196
330
7B5
100
AcDbEntity
  8
Equipment ... Range
100
AcDbPolyline
 90
        2
 70
     0
 43
0.0
 10
198.77608
 20
-22.59498000000013
 10
198.37817
 20
-22.63642000000014
  0
LWPOLYLINE
  5
197
330
7B5
100
AcDbEntity
  8
Equipment ... Range
100
AcDbPolyline
 90
        2
 70
     0
 43
0.0
 10
198.80959
 20
-22.91671000000013
 10
198.09754
 20
-22.99087000000012
  0
LWPOLYLINE
  5
198
330
7B5
100
AcDbEntity
  8
Equipment ... Range
100
AcDbPolyline
 90
       90
 70
     0
 43
0.0
 10
200.95187
 20
-22.11702000000014
 10
200.88809
 20
-22.19716000000014
 10
200.82016
 20
-22.27303000000013
 10
200.74832
 20
-22.34452000000012
 10
200.67277
 20
-22.41152000000013
 10
200.59376
 20
-22.47391000000013
 10
200.5115
 20
-22.53156000000014
 10
200.42621
 20
-22.58438000000013
 10
200.33814
 20
-22.63223000000014
 10
200.24749
 20
-22.67500000000013
 10
200.1545
 20
-22.71259000000013
 10
200.05939
 20
-22.74486000000012
 10
199.96238
 20
-22.77171000000014
 10
199.8637
 20
-22.79302000000013
 10
199.76358
 20
-22.80867000000013
 10
199.66224
 20
-22.81854000000013
 10
199.5599
 20
-22.82253000000012
 10
199.56084
 20
-22.83364000000013
 10
199.56136
 20
-22.84477000000013
 10
199.56145
 20
-22.85592000000014
 10
199.56112
 20
-22.86706000000014
 10
199.56038
 20
-22.87818000000013
 10
199.55923
 20
-22.88927000000012
 10
199.55768
 20
-22.90032000000012
 10
199.55573
 20
-22.91130000000013
 10
199.55338
 20
-22.92220000000013
 10
199.55064
 20
-22.93302000000011
 10
199.54751
 20
-22.94373000000011
 10
199.544
 20
-22.95433000000012
 10
199.54012
 20
-22.96479000000013
 10
199.53586
 20
-22.97510000000012
 10
199.53123
 20
-22.98525000000013
 10
199.52624
 20
-22.99522000000012
 10
199.51159
 20
-23.02148000000013
 10
199.49559
 20
-23.04686000000013
 10
199.47829
 20
-23.07131000000013
 10
199.45973
 20
-23.09479000000011
 10
199.43994
 20
-23.11726000000013
 10
199.41896
 20
-23.13864000000013
 10
199.39685
 20
-23.15891000000013
 10
199.37363
 20
-23.17801000000012
 10
199.34822
 20
-23.19704000000012
 10
199.32213
 20
-23.21506000000013
 10
199.2954
 20
-23.23206000000013
 10
199.26804
 20
-23.24802000000012
 10
199.2401
 20
-23.26293000000013
 10
199.2116
 20
-23.27677000000012
 10
199.18257
 20
-23.28953000000014
 10
199.15305
 20
-23.30117000000013
 10
199.08076
 20
-23.32554000000012
 10
199.00715
 20
-23.34527000000012
 10
198.93244
 20
-23.36031000000011
 10
198.85686
 20
-23.37060000000013
 10
198.75923
 20
-22.43321000000013
 10
198.83532
 20
-22.42771000000013
 10
198.91152
 20
-22.42703000000013
 10
198.98761
 20
-22.43117000000013
 10
199.06337
 20
-22.44012000000013
 10
199.09466
 20
-22.44543000000013
 10
199.12569
 20
-22.45193000000012
 10
199.15643
 20
-22.45960000000013
 10
199.18685
 20
-22.46844000000014
 10
199.21691
 20
-22.47842000000012
 10
199.24657
 20
-22.48954000000012
 10
199.27581
 20
-22.50180000000013
 10
199.3046
 20
-22.51518000000014
 10
199.33125
 20
-22.52908000000012
 10
199.35707
 20
-22.54436000000013
 10
199.382
 20
-22.56097000000013
 10
199.40599
 20
-22.57887000000013
 10
199.429
 20
-22.59803000000013
 10
199.45097
 20
-22.61839000000011
 10
199.47185
 20
-22.63993000000012
 10
199.4916
 20
-22.66260000000012
 10
199.49853
 20
-22.67132000000013
 10
199.50511
 20
-22.68027000000013
 10
199.51135
 20
-22.68944000000013
 10
199.51724
 20
-22.69881000000012
 10
199.52278
 20
-22.70838000000013
 10
199.52796
 20
-22.71814000000013
 10
199.53278
 20
-22.72807000000013
 10
199.53723
 20
-22.73816000000014
 10
199.5413
 20
-22.74842000000013
 10
199.54501
 20
-22.75882000000014
 10
199.54833
 20
-22.76935000000011
 10
199.55127
 20
-22.78001000000013
 10
199.55382
 20
-22.79078000000013
 10
199.55597
 20
-22.80166000000012
 10
199.55773
 20
-22.81263000000014
 10
199.55909
 20
-22.82369000000012
  0
LWPOLYLINE
  5
19C
330
7B5
100
AcDbEntity
  8
Equipment ... Range
100
AcDbPolyline
 90
        4
 70
     0
 43
0.0
 10
146.37387
 20
-22.12020000000013
 10
146.37387
 20
-24.18692000000012
 10
147.12387
 20
-24.18692000000012
 10
147.12387
 20
-22.12020000000011
  0
LWPOLYLINE
  5
19E
330
7B5
100
AcDbEntity
  8
Equipment ... Range
100
AcDbPolyline
 90
      132
 70
     1
 43
0.0
 10
203.29671
 20
6.47121999999988
 10
203.27886
 20
6.471219999999894
 10
203.25361
 20
6.470589999999865
 10
203.22869
 20
6.468689999999873
 10
203.20413
 20
6.465559999999888
 10
203.17996
 20
6.461239999999881
 10
203.15621
 20
6.455749999999886
 10
203.13292
 20
6.449129999999874
 10
203.11011
 20
6.441399999999879
 10
203.08781
 20
6.432599999999871
 10
203.06606
 20
6.422759999999889
 10
203.04489
 20
6.411909999999898
 10
203.02433
 20
6.400069999999848
 10
203.0044
 20
6.38728999999987
 10
202.98515
 20
6.373589999999885
 10
202.96659
 20
6.359009999999874
 10
202.94877
 20
6.343569999999891
 10
202.93171
 20
6.327299999999886
 10
202.91544
 20
6.310239999999885
 10
202.9
 20
6.292419999999884
 10
202.88541
 20
6.273859999999877
 10
202.87172
 20
6.254599999999901
 10
202.85893
 20
6.234679999999889
 10
202.8471
 20
6.214119999999872
 10
202.83625
 20
6.192939999999885
 10
202.82641
 20
6.171189999999873
 10
202.81761
 20
6.148899999999875
 10
202.80988
 20
6.126089999999897
 10
202.80326
 20
6.102789999999862
 10
202.79777
 20
6.079049999999901
 10
202.79345
 20
6.054879999999875
 10
202.79032
 20
6.030319999999866
 10
202.78842
 20
6.005399999999886
 10
202.78778
 20
5.980149999999858
 10
202.78778
 20
5.970229999999892
 10
202.78842
 20
5.944979999999863
 10
202.79032
 20
5.920059999999856
 10
202.79345
 20
5.895499999999862
 10
202.79777
 20
5.871329999999892
 10
202.80326
 20
5.847579999999885
 10
202.80988
 20
5.824289999999883
 10
202.81761
 20
5.80147999999989
 10
202.82641
 20
5.779179999999889
 10
202.83625
 20
5.757429999999877
 10
202.8471
 20
5.736259999999879
 10
202.85894
 20
5.715689999999887
 10
202.87172
 20
5.695769999999873
 10
202.88541
 20
5.676509999999885
 10
202.9
 20
5.65795999999988
 10
202.91544
 20
5.64013999999988
 10
202.93171
 20
5.623079999999865
 10
202.94877
 20
5.606809999999874
 10
202.96659
 20
5.591369999999875
 10
202.98515
 20
5.576779999999891
 10
203.0044
 20
5.563079999999863
 10
203.02433
 20
5.550299999999871
 10
203.04489
 20
5.538469999999881
 10
203.06606
 20
5.527619999999891
 10
203.08781
 20
5.51777999999988
 10
203.11011
 20
5.5089799999999
 10
203.13292
 20
5.501249999999877
 10
203.15621
 20
5.494629999999892
 10
203.17996
 20
5.489139999999855
 10
203.20413
 20
5.484819999999905
 10
203.22869
 20
5.481689999999864
 10
203.25361
 20
5.4797899999999
 10
203.27886
 20
5.479149999999882
 10
203.29671
 20
5.479149999999867
 10
203.32196
 20
5.479789999999857
 10
203.34688
 20
5.481689999999864
 10
203.37144
 20
5.484819999999862
 10
203.39561
 20
5.489139999999869
 10
203.41936
 20
5.494629999999878
 10
203.44265
 20
5.501249999999862
 10
203.46546
 20
5.508979999999871
 10
203.48775
 20
5.517779999999865
 10
203.5095
 20
5.527619999999891
 10
203.53067
 20
5.538469999999881
 10
203.55124
 20
5.550299999999871
 10
203.57117
 20
5.563079999999877
 10
203.59042
 20
5.576779999999877
 10
203.60897
 20
5.591369999999889
 10
203.6268
 20
5.606809999999874
 10
203.64386
 20
5.623079999999865
 10
203.66012
 20
5.64013999999988
 10
203.67557
 20
5.65795999999988
 10
203.69015
 20
5.676509999999871
 10
203.70385
 20
5.695769999999873
 10
203.71663
 20
5.71569999999989
 10
203.72846
 20
5.736259999999879
 10
203.73932
 20
5.757429999999848
 10
203.74916
 20
5.779179999999889
 10
203.75796
 20
5.801479999999861
 10
203.76568
 20
5.824289999999868
 10
203.77231
 20
5.847579999999885
 10
203.7778
 20
5.871329999999849
 10
203.78212
 20
5.895499999999876
 10
203.78524
 20
5.92005999999987
 10
203.78714
 20
5.944979999999878
 10
203.78778
 20
5.970229999999864
 10
203.78778
 20
5.980149999999872
 10
203.78714
 20
6.005399999999872
 10
203.78524
 20
6.030319999999866
 10
203.78212
 20
6.054879999999889
 10
203.7778
 20
6.079049999999901
 10
203.7723
 20
6.10278999999989
 10
203.76568
 20
6.126089999999854
 10
203.75796
 20
6.148899999999875
 10
203.74916
 20
6.171189999999887
 10
203.73932
 20
6.192939999999885
 10
203.72846
 20
6.214109999999868
 10
203.71663
 20
6.234679999999889
 10
203.70385
 20
6.254609999999877
 10
203.69015
 20
6.273859999999877
 10
203.67557
 20
6.292419999999869
 10
203.66012
 20
6.310239999999856
 10
203.64386
 20
6.327299999999871
 10
203.6268
 20
6.343569999999877
 10
203.60897
 20
6.359009999999889
 10
203.59042
 20
6.37358999999987
 10
203.57116
 20
6.387289999999885
 10
203.55124
 20
6.400069999999863
 10
203.53067
 20
6.411909999999883
 10
203.5095
 20
6.422759999999874
 10
203.48775
 20
6.432599999999857
 10
203.46546
 20
6.441399999999865
 10
203.44265
 20
6.449129999999874
 10
203.41935
 20
6.455749999999872
 10
203.3956
 20
6.461239999999881
 10
203.37144
 20
6.465559999999888
 10
203.34687
 20
6.468689999999873
 10
203.32195
 20
6.470589999999906
  0
LWPOLYLINE
  5
19F
330
7B5
100
AcDbEntity
  8
Equipment ... Range
100
AcDbPolyline
 90
        4
 70
     1
 43
0.0
 10
181.0
 20
-19.36785000000011
 10
205.0
 20
-19.36786000000012
 10
205.0
 20
7.641819999999886
 10
181.000015
 20
7.640099999999896
  0
LWPOLYLINE
  5
1A0
330
7B5
100
AcDbEntity
  8
Equipment ... Range
100
AcDbPolyline
 90
        2
 70
   128
 43
0.0
 10
181.000029
 20
-5.86244946100012
 10
169.000545
 20
-5.862449461000134
  0
LWPOLYLINE
  5
1A1
330
7B5
100
AcDbEntity
  8
Equipment ... Range
100
AcDbPolyline
 90
      128
 70
   129
 43
0.0
 10
171.500008
 20
-12.68782800000013
 10
171.504567
 20
-12.86778400000012
 10
171.518097
 20
-13.04539500000013
 10
171.540377
 20
-13.22044000000014
 10
171.571187
 20
-13.39269800000013
 10
171.610305
 20
-13.56195000000015
 10
171.657511
 20
-13.72797300000011
 10
171.712583
 20
-13.89054700000014
 10
171.775301
 20
-14.04945000000011
 10
171.845444
 20
-14.20446200000012
 10
171.922792
 20
-14.35536400000013
 10
172.007122
 20
-14.50193000000012
 10
172.098215
 20
-14.64394500000013
 10
172.195849
 20
-14.78118300000012
 10
172.299804
 20
-14.91342900000012
 10
172.409858
 20
-15.04045700000015
 10
172.525791
 20
-15.1620460000001
 10
172.647382
 20
-15.27798100000013
 10
172.77441
 20
-15.38803500000012
 10
172.906655
 20
-15.49198900000012
 10
173.043895
 20
-15.5896240000001
 10
173.185909
 20
-15.68071500000012
 10
173.332476
 20
-15.76504500000014
 10
173.483377
 20
-15.84239400000014
 10
173.638389
 20
-15.91254000000014
 10
173.797292
 20
-15.97525000000013
 10
173.959866
 20
-16.03033000000013
 10
174.125888
 20
-16.07753000000012
 10
174.2951388
 20
-16.11665000000013
 10
174.467397
 20
-16.14746000000013
 10
174.6424418
 20
-16.16974000000011
 10
174.8200523
 20
-16.18327000000013
 10
175.000007629395
 20
-16.18783000000011
 10
175.179963
 20
-16.18327000000014
 10
175.3575734
 20
-16.16974000000011
 10
175.5326183
 20
-16.14746000000011
 10
175.7048765
 20
-16.11665000000013
 10
175.8741273
 20
-16.07753000000013
 10
176.04015
 20
-16.03032000000011
 10
176.202723
 20
-15.97525000000013
 10
176.361626
 20
-15.91253000000013
 10
176.516638
 20
-15.84239400000012
 10
176.667539
 20
-15.76504700000013
 10
176.814107
 20
-15.68071500000012
 10
176.956121
 20
-15.58962200000014
 10
177.09336
 20
-15.49198900000013
 10
177.225605
 20
-15.38803500000011
 10
177.352633
 20
-15.27798100000013
 10
177.474224
 20
-15.16204600000011
 10
177.590157
 20
-15.04045700000013
 10
177.700212
 20
-14.91342700000011
 10
177.804166
 20
-14.78118300000012
 10
177.9018
 20
-14.64394500000011
 10
177.992893
 20
-14.50193000000015
 10
178.077224
 20
-14.35536200000014
 10
178.154571
 20
-14.20446200000013
 10
178.224714
 20
-14.04945000000012
 10
178.287432
 20
-13.89054700000012
 10
178.342505
 20
-13.72797200000013
 10
178.38971
 20
-13.56195000000011
 10
178.428828
 20
-13.39269900000012
 10
178.459638
 20
-13.22044000000011
 10
178.481918
 20
-13.04539500000013
 10
178.495449
 20
-12.86778400000011
 10
178.500008
 20
-12.68782800000013
 10
178.495448
 20
-12.50787200000012
 10
178.481918
 20
-12.33026100000012
 10
178.459638
 20
-12.15521600000014
 10
178.428828
 20
-11.98295800000015
 10
178.38971
 20
-11.81370600000011
 10
178.342504
 20
-11.64768400000013
 10
178.287432
 20
-11.48511100000011
 10
178.224714
 20
-11.32620700000012
 10
178.154571
 20
-11.17119500000013
 10
178.077223
 20
-11.02029400000013
 10
177.992893
 20
-10.87372700000011
 10
177.9018
 20
-10.73171400000014
 10
177.804166
 20
-10.59447300000012
 10
177.700212
 20
-10.46222900000011
 10
177.590158
 20
-10.33520100000014
 10
177.474224
 20
-10.21361000000013
 10
177.352633
 20
-10.09767700000009
 10
177.225605
 20
-9.98762300000014
 10
177.09336
 20
-9.883668000000108
 10
176.956121
 20
-9.78603500000012
 10
176.814106
 20
-9.69494200000012
 10
176.667539
 20
-9.610612000000133
 10
176.516638
 20
-9.533265000000123
 10
176.361626
 20
-9.463122000000121
 10
176.202723
 20
-9.400404000000146
 10
176.04015
 20
-9.34533200000015
 10
175.8741273
 20
-9.298126000000126
 10
175.7048765
 20
-9.259008000000117
 10
175.5326183
 20
-9.228199000000112
 10
175.3575734
 20
-9.205919000000153
 10
175.179963
 20
-9.192388000000117
 10
175.000007629395
 20
-9.187829000000123
 10
174.8200523
 20
-9.192389000000135
 10
174.6424418
 20
-9.205919000000131
 10
174.467397
 20
-9.228199000000112
 10
174.2951388
 20
-9.25900800000011
 10
174.125888
 20
-9.298127000000116
 10
173.959866
 20
-9.345332000000115
 10
173.797292
 20
-9.400404000000124
 10
173.638389
 20
-9.463122000000121
 10
173.483377
 20
-9.533265000000123
 10
173.332476
 20
-9.610612000000119
 10
173.185909
 20
-9.694942000000099
 10
173.043895
 20
-9.786035000000142
 10
172.906655
 20
-9.88366900000011
 10
172.77441
 20
-9.98762300000009
 10
172.647382
 20
-10.09767700000011
 10
172.525791
 20
-10.21361000000011
 10
172.409858
 20
-10.33520100000013
 10
172.299803
 20
-10.46222900000012
 10
172.195849
 20
-10.59447300000012
 10
172.098215
 20
-10.73171300000012
 10
172.007122
 20
-10.8737270000001
 10
171.922792
 20
-11.02029400000012
 10
171.845444
 20
-11.17119500000015
 10
171.775301
 20
-11.32620700000012
 10
171.712583
 20
-11.48511100000013
 10
171.657511
 20
-11.64768400000014
 10
171.610305
 20
-11.81370700000012
 10
171.571187
 20
-11.98295800000013
 10
171.540377
 20
-12.15521600000014
 10
171.518097
 20
-12.33026100000014
 10
171.504567
 20
-12.50787200000012
  0
LWPOLYLINE
  5
1A2
330
7B5
100
AcDbEntity
  8
Equipment ... Range
100
AcDbPolyline
 90
        2
 70
   128
 43
0.0
 10
169.913551
 20
-4.910033500000106
 10
174.3292313
 20
0.057650000000498
  0
LWPOLYLINE
  5
1A3
330
7B5
100
AcDbEntity
  8
Equipment ... Range
100
AcDbPolyline
 90
        2
 70
   128
 43
0.0
 10
175.6707687
 20
1.566892999999985
 10
180.086464
 20
6.534569999999921
  0
LWPOLYLINE
  5
1A4
330
7B5
100
AcDbEntity
  8
Equipment ... Range
100
AcDbPolyline
 90
        2
 70
   128
 43
0.0
 10
169.913551
 20
6.534569999999894
 10
174.3292313
 20
1.566892999999828
  0
LWPOLYLINE
  5
1A5
330
7B5
100
AcDbEntity
  8
Equipment ... Range
100
AcDbPolyline
 90
        2
 70
   128
 43
0.0
 10
175.6707687
 20
0.0576500000001428
 10
180.086464
 20
-4.910033500000106
  0
LWPOLYLINE
  5
1A6
330
7B5
100
AcDbEntity
  8
Equipment ... Range
100
AcDbPolyline
 90
        2
 70
   128
 43
0.0
 10
169.913551
 20
0.8122720000000552
 10
173.990364
 20
0.8122719999999557
  0
LWPOLYLINE
  5
1A7
330
7B5
100
AcDbEntity
  8
Equipment ... Range
100
AcDbPolyline
 90
        2
 70
   128
 43
0.0
 10
176.009651
 20
0.8122719999996288
 10
180.086464
 20
0.8122719999998562
  0
LWPOLYLINE
  5
1A8
330
7B5
100
AcDbEntity
  8
Equipment ... Range
100
AcDbPolyline
 90
        2
 70
   128
 43
0.0
 10
175.000007629395
 20
-4.91003350000012
 10
175.000007629395
 20
-0.1973760000005402
  0
LWPOLYLINE
  5
1A9
330
7B5
100
AcDbEntity
  8
Equipment ... Range
100
AcDbPolyline
 90
        2
 70
   129
 43
0.0
 10
175.000007629395
 20
6.534569999999837
 10
175.000007629395
 20
1.821916999999905
  0
LWPOLYLINE
  5
1AA
330
7B5
100
AcDbEntity
  8
Equipment ... Range
100
AcDbPolyline
 90
        5
 70
   129
 43
0.0
 10
177.057259
 20
3.643829999999815
 10
171.671303
 20
-0.2692880000047868
 10
178.328697
 20
-0.26928800000716
 10
172.942757
 20
3.643829999999872
 10
175.000007629395
 20
-2.687728000000115
  0
LWPOLYLINE
  5
1AB
330
7B5
100
AcDbEntity
  8
Equipment ... Range
100
AcDbPolyline
 90
        4
 70
   129
 43
0.0
 10
180.999995
 20
7.562439999999929
 10
180.999993
 20
-19.43774000000013
 10
169.0
 20
-19.43774000000013
 10
168.999999
 20
7.562439999999844
  0
LWPOLYLINE
  5
1AC
330
7B5
100
AcDbEntity
  8
Equipment ... Range
100
AcDbPolyline
 90
        2
 70
   128
 43
0.0
 10
180.086464
 20
-6.965524000000133
 10
175.6707687
 20
-11.93320800000015
  0
LWPOLYLINE
  5
1AD
330
7B5
100
AcDbEntity
  8
Equipment ... Range
100
AcDbPolyline
 90
        2
 70
   128
 43
0.0
 10
174.3292313
 20
-13.44245000000013
 10
169.913551
 20
-18.41013000000012
  0
LWPOLYLINE
  5
1AE
330
7B5
100
AcDbEntity
  8
Equipment ... Range
100
AcDbPolyline
 90
        2
 70
   128
 43
0.0
 10
180.086464
 20
-18.41013000000013
 10
175.6707687
 20
-13.44245000000012
  0
LWPOLYLINE
  5
1AF
330
7B5
100
AcDbEntity
  8
Equipment ... Range
100
AcDbPolyline
 90
        2
 70
   128
 43
0.0
 10
174.3292313
 20
-11.93320800000011
 10
169.913551
 20
-6.965524000000167
  0
LWPOLYLINE
  5
1B0
330
7B5
100
AcDbEntity
  8
Equipment ... Range
100
AcDbPolyline
 90
        2
 70
   128
 43
0.0
 10
180.086464
 20
-12.68782800000013
 10
176.009651
 20
-12.6878280000001
  0
LWPOLYLINE
  5
1B1
330
7B5
100
AcDbEntity
  8
Equipment ... Range
100
AcDbPolyline
 90
        2
 70
   128
 43
0.0
 10
173.990364
 20
-12.68782800000013
 10
169.913551
 20
-12.68782800000015
  0
LWPOLYLINE
  5
1B2
330
7B5
100
AcDbEntity
  8
Equipment ... Range
100
AcDbPolyline
 90
        2
 70
   128
 43
0.0
 10
175.000007629395
 20
-6.965524000000125
 10
175.000007629395
 20
-11.67818300000011
  0
LWPOLYLINE
  5
1B3
330
7B5
100
AcDbEntity
  8
Equipment ... Range
100
AcDbPolyline
 90
        2
 70
   128
 43
0.0
 10
175.000007629395
 20
-13.69747500000012
 10
175.000007629395
 20
-18.41013000000013
  0
LWPOLYLINE
  5
1B4
330
7B5
100
AcDbEntity
  8
Equipment ... Range
100
AcDbPolyline
 90
        2
 70
   128
 43
0.0
 10
169.000029
 20
-5.862449461000148
 10
157.00055
 20
-5.862449461000148
  0
LWPOLYLINE
  5
1B5
330
7B5
100
AcDbEntity
  8
Equipment ... Range
100
AcDbPolyline
 90
      128
 70
   129
 43
0.0
 10
159.50001
 20
-12.68782800000009
 10
159.50457
 20
-12.86778400000009
 10
159.5181
 20
-13.04539500000015
 10
159.54038
 20
-13.22044000000015
 10
159.57119
 20
-13.39269800000017
 10
159.61031
 20
-13.56195000000018
 10
159.65751
 20
-13.72797300000016
 10
159.71258
 20
-13.89054700000015
 10
159.7753
 20
-14.04945000000015
 10
159.84544
 20
-14.20446200000016
 10
159.92279
 20
-14.35536400000013
 10
160.00712
 20
-14.50193000000015
 10
160.09822
 20
-14.6439450000001
 10
160.19585
 20
-14.78118300000012
 10
160.2998
 20
-14.91342900000012
 10
160.40986
 20
-15.04045700000008
 10
160.52579
 20
-15.16204600000011
 10
160.64738
 20
-15.27798100000014
 10
160.77441
 20
-15.38803500000008
 10
160.90665
 20
-15.49198900000014
 10
161.04389
 20
-15.58962400000011
 10
161.18591
 20
-15.68071500000013
 10
161.33248
 20
-15.76504500000015
 10
161.48338
 20
-15.84239400000011
 10
161.63839
 20
-15.91254000000013
 10
161.79729
 20
-15.97525000000013
 10
161.95987
 20
-16.03033000000012
 10
162.12589
 20
-16.07753000000014
 10
162.29514
 20
-16.11665000000011
 10
162.4674
 20
-16.14746000000014
 10
162.64244
 20
-16.16974000000009
 10
162.82005
 20
-16.18327000000014
 10
163.00001
 20
-16.18783000000009
 10
163.17996
 20
-16.18327000000013
 10
163.35757
 20
-16.16974000000015
 10
163.53262
 20
-16.14746000000013
 10
163.70488
 20
-16.11665000000013
 10
163.87413
 20
-16.07753000000011
 10
164.04015
 20
-16.03032000000011
 10
164.20272
 20
-15.97525000000009
 10
164.36163
 20
-15.91253000000012
 10
164.51664
 20
-15.84239400000012
 10
164.66754
 20
-15.76504700000013
 10
164.81411
 20
-15.68071500000012
 10
164.95612
 20
-15.58962200000011
 10
165.093361
 20
-15.49198900000011
 10
165.225605
 20
-15.38803500000014
 10
165.352633
 20
-15.27798100000011
 10
165.474224
 20
-15.16204600000014
 10
165.590158
 20
-15.0404570000001
 10
165.700212
 20
-14.91342700000012
 10
165.804167
 20
-14.78118300000014
 10
165.9018
 20
-14.6439450000001
 10
165.992893
 20
-14.50193000000014
 10
166.077224
 20
-14.35536200000011
 10
166.154571
 20
-14.20446200000013
 10
166.224714
 20
-14.04945000000014
 10
166.287432
 20
-13.89054700000014
 10
166.342505
 20
-13.72797200000012
 10
166.38971
 20
-13.56195000000011
 10
166.428828
 20
-13.39269900000012
 10
166.459638
 20
-13.22044000000015
 10
166.481918
 20
-13.04539500000016
 10
166.495449
 20
-12.86778400000008
 10
166.500008
 20
-12.68782800000015
 10
166.495448
 20
-12.5078720000001
 10
166.481918
 20
-12.33026100000013
 10
166.459638
 20
-12.15521600000014
 10
166.428828
 20
-11.98295800000016
 10
166.389709
 20
-11.81370600000011
 10
166.342505
 20
-11.64768400000014
 10
166.287432
 20
-11.48511100000012
 10
166.224714
 20
-11.32620700000013
 10
166.154571
 20
-11.17119500000015
 10
166.077223
 20
-11.02029400000009
 10
165.992893
 20
-10.87372700000011
 10
165.9018
 20
-10.73171400000013
 10
165.804167
 20
-10.59447300000013
 10
165.700212
 20
-10.46222900000013
 10
165.590158
 20
-10.3352010000001
 10
165.474224
 20
-10.21361000000011
 10
165.352633
 20
-10.09767700000013
 10
165.225605
 20
-9.98762300000014
 10
165.093361
 20
-9.883668000000108
 10
164.95612
 20
-9.786035000000135
 10
164.81411
 20
-9.694942000000106
 10
164.66754
 20
-9.610612000000161
 10
164.51664
 20
-9.533265000000137
 10
164.36163
 20
-9.463122000000107
 10
164.20272
 20
-9.400404000000117
 10
164.04015
 20
-9.345332000000143
 10
163.87413
 20
-9.298126000000126
 10
163.70488
 20
-9.259008000000124
 10
163.53262
 20
-9.228199000000147
 10
163.35757
 20
-9.205919000000131
 10
163.17996
 20
-9.192388000000152
 10
163.00001
 20
-9.187829000000123
 10
162.82005
 20
-9.192389000000114
 10
162.64244
 20
-9.205919000000103
 10
162.4674
 20
-9.228199000000098
 10
162.29514
 20
-9.259008000000089
 10
162.12589
 20
-9.298127000000138
 10
161.95987
 20
-9.345332000000122
 10
161.79729
 20
-9.400404000000153
 10
161.63839
 20
-9.46312200000015
 10
161.48338
 20
-9.53326500000013
 10
161.33248
 20
-9.610612000000097
 10
161.18591
 20
-9.69494200000012
 10
161.04389
 20
-9.78603500000015
 10
160.90665
 20
-9.883669000000129
 10
160.77441
 20
-9.987623000000069
 10
160.64738
 20
-10.09767700000009
 10
160.52579
 20
-10.21361000000007
 10
160.40986
 20
-10.33520100000014
 10
160.2998
 20
-10.4622290000001
 10
160.19585
 20
-10.59447300000009
 10
160.09822
 20
-10.73171300000013
 10
160.00712
 20
-10.87372700000008
 10
159.92279
 20
-11.02029400000009
 10
159.84544
 20
-11.17119500000016
 10
159.7753
 20
-11.32620700000017
 10
159.71258
 20
-11.48511100000013
 10
159.65751
 20
-11.64768400000016
 10
159.6103
 20
-11.81370700000013
 10
159.57119
 20
-11.98295800000013
 10
159.54038
 20
-12.15521600000012
 10
159.5181
 20
-12.33026100000012
 10
159.50457
 20
-12.50787200000012
  0
LWPOLYLINE
  5
1B6
330
7B5
100
AcDbEntity
  8
Equipment ... Range
100
AcDbPolyline
 90
        2
 70
   128
 43
0.0
 10
157.91355
 20
-4.910033500000063
 10
162.32923
 20
0.0576499999996738
  0
LWPOLYLINE
  5
1B7
330
7B5
100
AcDbEntity
  8
Equipment ... Range
100
AcDbPolyline
 90
        2
 70
   128
 43
0.0
 10
163.67077
 20
1.566892999999913
 10
168.086464
 20
6.534569999999908
  0
LWPOLYLINE
  5
1B8
330
7B5
100
AcDbEntity
  8
Equipment ... Range
100
AcDbPolyline
 90
        2
 70
   128
 43
0.0
 10
157.91355
 20
6.53456999999988
 10
162.32923
 20
1.566893000000084
  0
LWPOLYLINE
  5
1B9
330
7B5
100
AcDbEntity
  8
Equipment ... Range
100
AcDbPolyline
 90
        2
 70
   128
 43
0.0
 10
163.67077
 20
0.0576499999991622
 10
168.086464
 20
-4.910033500000091
  0
LWPOLYLINE
  5
1BA
330
7B5
100
AcDbEntity
  8
Equipment ... Range
100
AcDbPolyline
 90
        2
 70
   128
 43
0.0
 10
157.91355
 20
0.8122719999995294
 10
161.99036
 20
0.8122719999996999
  0
LWPOLYLINE
  5
1BB
330
7B5
100
AcDbEntity
  8
Equipment ... Range
100
AcDbPolyline
 90
        2
 70
   128
 43
0.0
 10
164.00965
 20
0.812271999999572
 10
168.086464
 20
0.8122719999998136
  0
LWPOLYLINE
  5
1BC
330
7B5
100
AcDbEntity
  8
Equipment ... Range
100
AcDbPolyline
 90
        2
 70
   128
 43
0.0
 10
163.00001
 20
-4.910033500000148
 10
163.00001
 20
-0.1973760000023734
  0
LWPOLYLINE
  5
1BD
330
7B5
100
AcDbEntity
  8
Equipment ... Range
100
AcDbPolyline
 90
        2
 70
   129
 43
0.0
 10
163.00001
 20
6.534569999999908
 10
163.00001
 20
1.821916999999863
  0
LWPOLYLINE
  5
1BE
330
7B5
100
AcDbEntity
  8
Equipment ... Range
100
AcDbPolyline
 90
        5
 70
   129
 43
0.0
 10
165.057259
 20
3.643829999999957
 10
159.6713
 20
-0.269288000004062
 10
166.328697
 20
-0.2692880000051421
 10
160.94276
 20
3.643830000000014
 10
163.00001
 20
-2.687728000000073
  0
LWPOLYLINE
  5
1BF
330
7B5
100
AcDbEntity
  8
Equipment ... Range
100
AcDbPolyline
 90
        4
 70
   129
 43
0.0
 10
168.999995
 20
7.562439999999858
 10
168.999993
 20
-19.43774000000011
 10
157.0
 20
-19.43774000000012
 10
157.0
 20
7.562439999999887
  0
LWPOLYLINE
  5
1C0
330
7B5
100
AcDbEntity
  8
Equipment ... Range
100
AcDbPolyline
 90
        2
 70
   128
 43
0.0
 10
168.086464
 20
-6.965524000000118
 10
163.67077
 20
-11.93320800000012
  0
LWPOLYLINE
  5
1C1
330
7B5
100
AcDbEntity
  8
Equipment ... Range
100
AcDbPolyline
 90
        2
 70
   128
 43
0.0
 10
162.32923
 20
-13.44245000000013
 10
157.91355
 20
-18.41013000000014
  0
LWPOLYLINE
  5
1C2
330
7B5
100
AcDbEntity
  8
Equipment ... Range
100
AcDbPolyline
 90
        2
 70
   128
 43
0.0
 10
168.086464
 20
-18.41013000000012
 10
163.67077
 20
-13.44245000000011
  0
LWPOLYLINE
  5
1C3
330
7B5
100
AcDbEntity
  8
Equipment ... Range
100
AcDbPolyline
 90
        2
 70
   128
 43
0.0
 10
162.32923
 20
-11.93320800000014
 10
157.91355
 20
-6.965524000000018
  0
LWPOLYLINE
  5
1C4
330
7B5
100
AcDbEntity
  8
Equipment ... Range
100
AcDbPolyline
 90
        2
 70
   128
 43
0.0
 10
168.086464
 20
-12.68782800000013
 10
164.00965
 20
-12.68782800000011
  0
LWPOLYLINE
  5
1C5
330
7B5
100
AcDbEntity
  8
Equipment ... Range
100
AcDbPolyline
 90
        2
 70
   128
 43
0.0
 10
161.99036
 20
-12.68782800000015
 10
157.91355
 20
-12.68782800000015
  0
LWPOLYLINE
  5
1C6
330
7B5
100
AcDbEntity
  8
Equipment ... Range
100
AcDbPolyline
 90
        2
 70
   128
 43
0.0
 10
163.00001
 20
-6.965524000000082
 10
163.00001
 20
-11.6781830000001
  0
LWPOLYLINE
  5
1C7
330
7B5
100
AcDbEntity
  8
Equipment ... Range
100
AcDbPolyline
 90
        2
 70
   128
 43
0.0
 10
163.00001
 20
-13.69747500000016
 10
163.00001
 20
-18.41013000000011
  0
LWPOLYLINE
  5
1C8
330
7B5
100
AcDbEntity
  8
Equipment ... Range
100
AcDbPolyline
 90
        2
 70
   128
 43
0.0
 10
157.00003
 20
-5.862449461000006
 10
145.00055
 20
-5.862449461000176
  0
LWPOLYLINE
  5
1C9
330
7B5
100
AcDbEntity
  8
Equipment ... Range
100
AcDbPolyline
 90
      128
 70
   129
 43
0.0
 10
147.50001
 20
-12.68782800000011
 10
147.50457
 20
-12.86778400000007
 10
147.5181
 20
-13.04539500000014
 10
147.54038
 20
-13.22044000000015
 10
147.57119
 20
-13.39269800000013
 10
147.61031
 20
-13.56195000000015
 10
147.65751
 20
-13.72797300000015
 10
147.71258
 20
-13.8905470000001
 10
147.7753
 20
-14.04945000000013
 10
147.84544
 20
-14.20446200000012
 10
147.92279
 20
-14.35536400000014
 10
148.00712
 20
-14.50193000000008
 10
148.09822
 20
-14.64394500000015
 10
148.19585
 20
-14.78118300000008
 10
148.2998
 20
-14.91342900000008
 10
148.40986
 20
-15.04045700000016
 10
148.52579
 20
-15.1620460000001
 10
148.64738
 20
-15.27798100000013
 10
148.77441
 20
-15.38803500000016
 10
148.90665
 20
-15.49198900000012
 10
149.04389
 20
-15.5896240000001
 10
149.18591
 20
-15.68071500000012
 10
149.33248
 20
-15.76504500000013
 10
149.48338
 20
-15.84239400000016
 10
149.63839
 20
-15.91254000000014
 10
149.79729
 20
-15.97525000000015
 10
149.95987
 20
-16.03033000000014
 10
150.12589
 20
-16.07753000000018
 10
150.29514
 20
-16.11665000000014
 10
150.4674
 20
-16.14746000000016
 10
150.64244
 20
-16.16974000000013
 10
150.82005
 20
-16.18327000000013
 10
151.00001
 20
-16.18783000000007
 10
151.17996
 20
-16.18327000000012
 10
151.35757
 20
-16.16974000000009
 10
151.53262
 20
-16.14746000000012
 10
151.70488
 20
-16.11665000000011
 10
151.87413
 20
-16.07753000000013
 10
152.04015
 20
-16.03032000000012
 10
152.20272
 20
-15.97525000000011
 10
152.36163
 20
-15.9125300000001
 10
152.51664
 20
-15.84239400000011
 10
152.66754
 20
-15.76504700000013
 10
152.81411
 20
-15.68071500000013
 10
152.95612
 20
-15.58962200000009
 10
153.09336
 20
-15.4919890000001
 10
153.22561
 20
-15.38803500000013
 10
153.35263
 20
-15.27798100000011
 10
153.47422
 20
-15.16204600000013
 10
153.59016
 20
-15.04045700000012
 10
153.70021
 20
-14.91342700000012
 10
153.80417
 20
-14.78118300000012
 10
153.9018
 20
-14.64394500000013
 10
153.99289
 20
-14.50193000000012
 10
154.07722
 20
-14.35536200000017
 10
154.15457
 20
-14.20446200000009
 10
154.22471
 20
-14.0494500000001
 10
154.28743
 20
-13.89054700000016
 10
154.3425
 20
-13.72797200000016
 10
154.38971
 20
-13.56195000000018
 10
154.42883
 20
-13.39269900000017
 10
154.45964
 20
-13.22044000000011
 10
154.48192
 20
-13.04539500000009
 10
154.49545
 20
-12.86778400000014
 10
154.50001
 20
-12.68782800000015
 10
154.49545
 20
-12.50787200000014
 10
154.48192
 20
-12.33026100000012
 10
154.45964
 20
-12.15521600000015
 10
154.42883
 20
-11.98295800000013
 10
154.38971
 20
-11.81370600000013
 10
154.3425
 20
-11.64768400000011
 10
154.28743
 20
-11.48511100000018
 10
154.22471
 20
-11.32620700000013
 10
154.15457
 20
-11.17119500000008
 10
154.07722
 20
-11.02029400000014
 10
153.99289
 20
-10.87372700000012
 10
153.9018
 20
-10.73171400000011
 10
153.80417
 20
-10.59447300000017
 10
153.70021
 20
-10.46222900000015
 10
153.59016
 20
-10.33520100000018
 10
153.47422
 20
-10.21361000000009
 10
153.35263
 20
-10.09767700000018
 10
153.22561
 20
-9.987623000000129
 10
153.09336
 20
-9.883668000000169
 10
152.95612
 20
-9.78603500000012
 10
152.81411
 20
-9.694942000000099
 10
152.66754
 20
-9.610612000000126
 10
152.51664
 20
-9.533265000000101
 10
152.36163
 20
-9.463122000000128
 10
152.20272
 20
-9.400404000000146
 10
152.04015
 20
-9.345332000000164
 10
151.87413
 20
-9.29812600000014
 10
151.70488
 20
-9.259008000000039
 10
151.53262
 20
-9.228199000000147
 10
151.35757
 20
-9.205919000000145
 10
151.17996
 20
-9.192388000000095
 10
151.00001
 20
-9.187829000000137
 10
150.82005
 20
-9.192389000000107
 10
150.64244
 20
-9.20591900000016
 10
150.4674
 20
-9.228199000000084
 10
150.29514
 20
-9.259008000000131
 10
150.12589
 20
-9.298127000000159
 10
149.95987
 20
-9.345332000000171
 10
149.79729
 20
-9.400404000000075
 10
149.63839
 20
-9.463122000000078
 10
149.48338
 20
-9.533265000000137
 10
149.33248
 20
-9.610612000000097
 10
149.18591
 20
-9.694942000000148
 10
149.04389
 20
-9.786035000000156
 10
148.90665
 20
-9.88366900000008
 10
148.77441
 20
-9.98762300000019
 10
148.64738
 20
-10.09767700000007
 10
148.52579
 20
-10.21361000000014
 10
148.40986
 20
-10.33520100000014
 10
148.2998
 20
-10.46222900000011
 10
148.19585
 20
-10.5944730000001
 10
148.09822
 20
-10.73171300000014
 10
148.00712
 20
-10.87372700000014
 10
147.92279
 20
-11.02029400000009
 10
147.84544
 20
-11.1711950000001
 10
147.7753
 20
-11.32620700000011
 10
147.71258
 20
-11.48511100000013
 10
147.65751
 20
-11.64768400000013
 10
147.61031
 20
-11.81370700000017
 10
147.57119
 20
-11.98295800000016
 10
147.54038
 20
-12.15521600000017
 10
147.5181
 20
-12.3302610000001
 10
147.50457
 20
-12.50787200000007
  0
LWPOLYLINE
  5
1CA
330
7B5
100
AcDbEntity
  8
Equipment ... Range
100
AcDbPolyline
 90
        2
 70
   128
 43
0.0
 10
145.91355
 20
-4.910033500000106
 10
150.32923
 20
0.0576499999985085
  0
LWPOLYLINE
  5
1CB
330
7B5
100
AcDbEntity
  8
Equipment ... Range
100
AcDbPolyline
 90
        2
 70
   128
 43
0.0
 10
151.67077
 20
1.566893000000255
 10
156.08646
 20
6.534569999999894
  0
LWPOLYLINE
  5
1CC
330
7B5
100
AcDbEntity
  8
Equipment ... Range
100
AcDbPolyline
 90
        2
 70
   128
 43
0.0
 10
145.91355
 20
6.534569999999936
 10
150.32923
 20
1.566892999999558
  0
LWPOLYLINE
  5
1CD
330
7B5
100
AcDbEntity
  8
Equipment ... Range
100
AcDbPolyline
 90
        2
 70
   128
 43
0.0
 10
151.67077
 20
0.0576500000006117
 10
156.08646
 20
-4.910033500000063
  0
LWPOLYLINE
  5
1CE
330
7B5
100
AcDbEntity
  8
Equipment ... Range
100
AcDbPolyline
 90
        2
 70
   128
 43
0.0
 10
145.91355
 20
0.8122720000004957
 10
149.99036
 20
0.8122720000005383
  0
LWPOLYLINE
  5
1CF
330
7B5
100
AcDbEntity
  8
Equipment ... Range
100
AcDbPolyline
 90
        2
 70
   128
 43
0.0
 10
152.00965
 20
0.8122719999997283
 10
156.08646
 20
0.8122719999997567
  0
LWPOLYLINE
  5
1D0
330
7B5
100
AcDbEntity
  8
Equipment ... Range
100
AcDbPolyline
 90
        2
 70
   128
 43
0.0
 10
151.00001
 20
-4.910033500000219
 10
151.00001
 20
-0.1973760000079441
  0
LWPOLYLINE
  5
1D1
330
7B5
100
AcDbEntity
  8
Equipment ... Range
100
AcDbPolyline
 90
        2
 70
   129
 43
0.0
 10
151.00001
 20
6.534569999999794
 10
151.00001
 20
1.821916999999962
  0
LWPOLYLINE
  5
1D2
330
7B5
100
AcDbEntity
  8
Equipment ... Range
100
AcDbPolyline
 90
        5
 70
   129
 43
0.0
 10
153.05726
 20
3.643829999999772
 10
147.6713
 20
-0.269287999984579
 10
154.3287
 20
-0.2692880000022715
 10
148.94276
 20
3.643829999999772
 10
151.00001
 20
-2.687727999999859
  0
LWPOLYLINE
  5
1D3
330
7B5
100
AcDbEntity
  8
Equipment ... Range
100
AcDbPolyline
 90
        4
 70
   129
 43
0.0
 10
157.0
 20
7.562439999999887
 10
156.99999
 20
-19.43774000000014
 10
145.0
 20
-19.43774000000014
 10
145.0
 20
7.562439999999901
  0
LWPOLYLINE
  5
1D4
330
7B5
100
AcDbEntity
  8
Equipment ... Range
100
AcDbPolyline
 90
        2
 70
   128
 43
0.0
 10
156.08646
 20
-6.965524000000096
 10
151.67077
 20
-11.93320800000013
  0
LWPOLYLINE
  5
1D5
330
7B5
100
AcDbEntity
  8
Equipment ... Range
100
AcDbPolyline
 90
        2
 70
   128
 43
0.0
 10
150.32923
 20
-13.44245000000012
 10
145.91355
 20
-18.4101300000001
  0
LWPOLYLINE
  5
1D6
330
7B5
100
AcDbEntity
  8
Equipment ... Range
100
AcDbPolyline
 90
        2
 70
   128
 43
0.0
 10
156.08646
 20
-18.41013000000011
 10
151.67077
 20
-13.44245000000015
  0
LWPOLYLINE
  5
1D7
330
7B5
100
AcDbEntity
  8
Equipment ... Range
100
AcDbPolyline
 90
        2
 70
   128
 43
0.0
 10
150.32923
 20
-11.93320800000017
 10
145.91355
 20
-6.965524000000046
  0
LWPOLYLINE
  5
1D8
330
7B5
100
AcDbEntity
  8
Equipment ... Range
100
AcDbPolyline
 90
        2
 70
   128
 43
0.0
 10
156.08646
 20
-12.68782800000014
 10
152.00965
 20
-12.68782800000017
  0
LWPOLYLINE
  5
1D9
330
7B5
100
AcDbEntity
  8
Equipment ... Range
100
AcDbPolyline
 90
        2
 70
   128
 43
0.0
 10
149.99036
 20
-12.68782800000014
 10
145.91355
 20
-12.68782800000014
  0
LWPOLYLINE
  5
1DA
330
7B5
100
AcDbEntity
  8
Equipment ... Range
100
AcDbPolyline
 90
        2
 70
   128
 43
0.0
 10
151.00001
 20
-6.965524000000167
 10
151.00001
 20
-11.67818300000011
  0
LWPOLYLINE
  5
1DB
330
7B5
100
AcDbEntity
  8
Equipment ... Range
100
AcDbPolyline
 90
        2
 70
   128
 43
0.0
 10
151.00001
 20
-13.69747500000014
 10
151.00001
 20
-18.41013000000011
  0
LINE
  5
1E1
330
7B5
100
AcDbEntity
  8
Countertops
100
AcDbLine
 10
195.0
 20
52.99999999999988
 30
0.0
 11
155.0
 21
52.99999999999996
 31
0.0
  0
LINE
  5
1E7
330
7B5
100
AcDbEntity
  8
Countertops
100
AcDbLine
 10
155.0
 20
52.99999999999996
 30
0.0
 11
155.0
 21
124.0
 31
0.0
  0
LINE
  5
1E8
330
7B5
100
AcDbEntity
  8
Countertops
100
AcDbLine
 10
195.0
 20
52.99999999999988
 30
0.0
 11
195.0
 21
124.0
 31
0.0
  0
LINE
  5
2ED
330
7B5
100
AcDbEntity
  8
cabinets
100
AcDbLine
 10
192.0
 20
53.99999999999989
 30
0.0
 11
156.0
 21
53.99999999999996
 31
0.0
  0
LINE
  5
2EB
330
7B5
100
AcDbEntity
  8
cabinets
100
AcDbLine
 10
192.0
 20
77.99999999999989
 30
0.0
 11
156.0
 21
77.99999999999997
 31
0.0
  0
LINE
  5
1F7
330
7B5
100
AcDbEntity
  8
cabinets
100
AcDbLine
 10
156.0
 20
53.99999999999996
 30
0.0
 11
156.0
 21
123.0
 31
0.0
  0
LINE
  5
2E9
330
7B5
100
AcDbEntity
  8
cabinets
100
AcDbLine
 10
156.0
 20
93.0
 30
0.0
 11
180.0
 21
93.0
 31
0.0
  0
LINE
  5
2F4
330
7B5
100
AcDbEntity
  8
cabinets
100
AcDbLine
 10
180.0
 20
77.99999999999991
 30
0.0
 11
180.0
 21
123.0
 31
0.0
  0
LINE
  5
2EE
330
7B5
100
AcDbEntity
  8
cabinets
100
AcDbLine
 10
192.0
 20
53.99999999999989
 30
0.0
 11
192.0
 21
77.99999999999989
 31
0.0
  0
LINE
  5
2F1
330
7B5
100
AcDbEntity
  8
Countertops
100
AcDbLine
 10
155.0
 20
124.0
 30
0.0
 11
195.0
 21
124.0
 31
0.0
  0
LINE
  5
2F3
330
7B5
100
AcDbEntity
  8
cabinets
100
AcDbLine
 10
156.0
 20
123.0
 30
0.0
 11
180.0
 21
123.0
 31
0.0
  0
LINE
  5
2F5
330
7B5
100
AcDbEntity
  8
cabinets
100
AcDbLine
 10
36.00000000000001
 20
129.0
 30
0.0
 11
36.00000000000001
 21
153.0
 31
0.0
  0
LINE
  5
466
330
7B5
100
AcDbEntity
  8
cabinets
100
AcDbLine
 10
103.0
 20
129.0
 30
0.0
 11
127.0
 21
129.0
 31
0.0
  0
LINE
  5
467
330
7B5
100
AcDbEntity
  8
cabinets
100
AcDbLine
 10
0.0000000000000108
 20
129.0
 30
0.0
 11
36.00000000000001
 21
129.0
 31
0.0
  0
LINE
  5
468
330
7B5
100
AcDbEntity
  8
cabinets
100
AcDbLine
 10
61.0
 20
129.0
 30
0.0
 11
103.0
 21
129.0
 31
0.0
  0
LINE
  5
2FC
330
7B5
100
AcDbEntity
  8
cabinets
100
AcDbLine
 10
24.00000000000001
 20
108.0
 30
0.0
 11
24.00000000000001
 21
129.0
 31
0.0
  0
LINE
  5
2FA
330
7B5
100
AcDbEntity
  8
cabinets
100
AcDbLine
 10
0.0000000000000121
 20
108.0
 30
0.0
 11
24.0
 21
108.0
 31
0.0
  0
LINE
  5
432
330
7B5
100
AcDbEntity
  8
Clearances
100
AcDbLine
 10
192.0
 20
29.99999999999989
 30
0.0
 11
156.0
 21
29.99999999999996
 31
0.0
  0
LINE
  5
433
330
7B5
100
AcDbEntity
  8
cabinets
100
AcDbLine
 10
55.0
 20
89.0
 30
0.0
 11
119.0
 21
89.0
 31
0.0
  0
LINE
  5
434
330
7B5
100
AcDbEntity
  8
cabinets
100
AcDbLine
 10
55.0
 20
65.0
 30
0.0
 11
119.0
 21
65.0
 31
0.0
  0
MTEXT
  5
436
330
7B5
100
AcDbEntity
  8
cabinets
100
AcDbMText
 10
174.0
 20
66.0
 30
0.0
 40
4.0
 41
0.0
 46
0.0
 71
     5
 72
     1
  1
B36
  7
textstyle11
 73
     1
 44
1.0
  0
MTEXT
  5
437
330
7B5
100
AcDbEntity
  8
cabinets
100
AcDbMText
 10
168.0
 20
86.00000000000003
 30
0.0
 40
4.0
 41
0.0
 46
0.0
 71
     5
 72
     1
  1
B15
  7
textstyle12
 73
     1
 44
1.0
  0
MTEXT
  5
438
330
7B5
100
AcDbEntity
  8
cabinets
100
AcDbMText
 10
168.0
 20
106.0
 30
0.0
 40
4.0
 41
0.0
 46
0.0
 71
     5
 72
     1
  1
B30
  7
textstyle13
 73
     1
 44
1.0
  0
MTEXT
  5
453
330
7B5
100
AcDbEntity
  8
cabinets
100
AcDbMText
 10
115.0
 20
141.0
 30
0.0
 40
4.0
 41
0.0
 46
0.0
 71
     5
 72
     1
  1
T249624
  7
textstyle14
 73
     1
 44
1.0
  0
MTEXT
  5
45D
330
7B5
100
AcDbEntity
  8
cabinets
100
AcDbMText
 10
234.0
 20
135.0
 30
0.0
 40
4.0
 41
0.0
 46
0.0
 71
     5
 72
     1
  1
W3942
  7
textstyle15
 11
6.123233995736766E-17
 21
1.0
 31
0.0
 73
     1
 44
1.0
  0
MTEXT
  5
45E
330
7B5
100
AcDbEntity
  8
cabinets
100
AcDbMText
 10
234.0
 20
94.99999999999994
 30
0.0
 40
4.0
 41
0.0
 46
0.0
 71
     5
 72
     1
  1
W3942
  7
textstyle16
 11
6.123233995736766E-17
 21
1.0
 31
0.0
 73
     1
 44
1.0
  0
MTEXT
  5
462
330
7B5
100
AcDbEntity
  8
cabinets
100
AcDbMText
 10
79.62500000000001
 20
140.9999999999999
 30
0.0
 40
4.0
 41
0.0
 46
0.0
 71
     5
 72
     1
  1
FHSB42
  7
textstyle17
 73
     1
 44
1.0
  0
MTEXT
  5
469
330
7B5
100
AcDbEntity
  8
cabinets
100
AcDbMText
 10
19.00000000000002
 20
140.9999999999999
 30
0.0
 40
4.0
 41
0.0
 46
0.0
 71
     5
 72
     1
  1
BBC36
  7
textstyle18
 73
     1
 44
1.0
  0
MTEXT
  5
46A
330
7B5
100
AcDbEntity
  8
cabinets
100
AcDbMText
 10
12.00000000000003
 20
117.9999999999999
 30
0.0
 40
4.0
 41
0.0
 46
0.0
 71
     5
 72
     1
  1
4DB21
  7
textstyle19
 73
     1
 44
1.0
  0
DIMENSION
  5
43A
330
7B5
100
AcDbEntity
  8
Measure
100
AcDbDimension
280
     0
 10
155.0
 20
130.0
 30
0.0
 11
175.0
 21
132.25
 31
0.0
 70
    33
 71
     5
 42
-1.0
 73
     0
 74
     0
 75
     0
  3
QCADDimStyle
100
AcDbAlignedDimension
 13
155.0
 23
124.0
 33
0.0
 14
195.0
 24
124.0
 34
0.0
1001
ACAD
1000
DSTYLE
1002
{
1070
    49
1040
0.0
1070
   290
1070
     0
1070
   177
1070
     0
1070
   176
1070
     0
1070
   279
1070
     2
1070
    41
1040
3.0
1070
    79
1070
     2
1070
   178
1070
   256
1070
    43
1040
6.0
1070
    44
1040
1.5
1070
    42
1040
0.75
1070
   147
1040
0.75
1070
   140
1040
3.0
1070
    78
1070
     8
1002
}
  0
DIMENSION
  5
43B
330
7B5
100
AcDbEntity
  8
Measure
100
AcDbDimension
280
     0
 10
204.7334637665178
 20
124.0
 30
0.0
 11
202.4834637665178
 21
88.49999999999994
 31
0.0
 70
    33
 71
     5
 42
-1.0
 73
     0
 74
     0
 75
     0
  3
QCADDimStyle
100
AcDbAlignedDimension
 13
195.0
 23
124.0
 33
0.0
 14
195.0
 24
52.99999999999988
 34
0.0
1001
ACAD
1000
DSTYLE
1002
{
1070
    49
1040
0.0
1070
   290
1070
     0
1070
   177
1070
     0
1070
   176
1070
     0
1070
   279
1070
     2
1070
    41
1040
3.0
1070
    79
1070
     2
1070
   178
1070
   256
1070
    43
1040
6.0
1070
    44
1040
1.5
1070
    42
1040
0.75
1070
   147
1040
0.75
1070
   140
1040
3.0
1070
    78
1070
     8
1002
}
  0
DIMENSION
  5
43C
330
7B5
100
AcDbEntity
  8
Measure
100
AcDbDimension
280
     0
 10
180.0
 20
133.9295302232701
 30
0.0
 11
187.5
 21
136.1795302232701
 31
0.0
 70
    32
 71
     5
 42
-1.0
 73
     0
 74
     0
 75
     0
  3
QCADDimStyle
100
AcDbAlignedDimension
 13
180.0
 23
123.0
 33
0.0
 14
195.0
 24
124.0
 34
0.0
100
AcDbRotatedDimension
1001
ACAD
1000
DSTYLE
1002
{
1070
    49
1040
0.0
1070
   290
1070
     0
1070
   177
1070
     0
1070
   176
1070
     0
1070
   279
1070
     2
1070
    41
1040
3.0
1070
    79
1070
     2
1070
   178
1070
   256
1070
    43
1040
6.0
1070
    44
1040
1.5
1070
    42
1040
0.75
1070
   147
1040
0.75
1070
   140
1040
3.0
1070
    78
1070
     8
1002
}
  0
DIMENSION
  5
43D
330
7B5
100
AcDbEntity
  8
Measure
100
AcDbDimension
280
     0
 10
214.2637483351965
 20
77.99999999999989
 30
0.0
 11
212.0137483351965
 21
100.9999999999999
 31
0.0
 70
    32
 71
     5
 42
-1.0
 73
     0
 74
     0
 75
     0
  3
QCADDimStyle
100
AcDbAlignedDimension
 13
192.0
 23
77.99999999999989
 33
0.0
 14
195.0
 24
124.0
 34
0.0
 50
90.0
100
AcDbRotatedDimension
1001
ACAD
1000
DSTYLE
1002
{
1070
    49
1040
0.0
1070
   290
1070
     0
1070
   177
1070
     0
1070
   176
1070
     0
1070
   279
1070
     2
1070
    41
1040
3.0
1070
    79
1070
     2
1070
   178
1070
   256
1070
    43
1040
6.0
1070
    44
1040
1.5
1070
    42
1040
0.75
1070
   147
1040
0.75
1070
   140
1040
3.0
1070
    78
1070
     8
1002
}
  0
LINE
  5
43E
330
7B5
100
AcDbEntity
  8
cabinets
100
AcDbLine
 10
119.0
 20
65.0
 30
0.0
 11
119.0
 21
89.0
 31
0.0
  0
LINE
  5
43F
330
7B5
100
AcDbEntity
  8
cabinets
100
AcDbLine
 10
55.0
 20
65.0
 30
0.0
 11
55.0
 21
89.00000000000001
 31
0.0
  0
LINE
  5
447
330
7B5
100
AcDbEntity
  8
Equipment ... Dshwsh
100
AcDbLine
 10
36.5625
 20
128.5
 30
0.0
 11
36.5625
 21
153.0
 31
0.0
  0
LINE
  5
449
330
7B5
100
AcDbEntity
  8
Equipment ... Dshwsh
100
AcDbLine
 10
36.5625
 20
153.0
 30
0.0
 11
60.4375
 21
153.0
 31
0.0
  0
LINE
  5
450
330
7B5
100
AcDbEntity
  8
cabinets
100
AcDbLine
 10
127.0
 20
129.0
 30
0.0
 11
127.0
 21
153.0
 31
0.0
  0
LINE
  5
451
330
7B5
100
AcDbEntity
  8
cabinets
100
AcDbLine
 10
103.0
 20
129.0
 30
0.0
 11
103.0
 21
153.0
 31
0.0
  0
LINE
  5
452
330
7B5
100
AcDbEntity
  8
cabinets
100
AcDbLine
 10
127.0
 20
153.0
 30
0.0
 11
103.0
 21
153.0
 31
0.0
  0
LINE
  5
457
330
7B5
100
AcDbEntity
  8
cabinets
100
AcDbLine
 10
227.5
 20
75.0
 30
0.0
 11
227.5
 21
153.0
 31
0.0
  0
LINE
  5
459
330
7B5
100
AcDbEntity
  8
cabinets
100
AcDbLine
 10
227.5
 20
114.0
 30
0.0
 11
239.5
 21
114.0
 31
0.0
  0
LINE
  5
45A
330
7B5
100
AcDbEntity
  8
cabinets
100
AcDbLine
 10
227.5
 20
75.0
 30
0.0
 11
239.5
 21
75.0
 31
0.0
  0
LINE
  5
45B
330
7B5
100
AcDbEntity
  8
cabinets
100
AcDbLine
 10
239.5
 20
75.0
 30
0.0
 11
239.5
 21
153.0
 31
0.0
  0
LINE
  5
45C
330
7B5
100
AcDbEntity
  8
cabinets
100
AcDbLine
 10
227.5
 20
153.0
 30
0.0
 11
239.5
 21
153.0
 31
0.0
  0
LINE
  5
45F
330
7B5
100
AcDbEntity
  8
cabinets
100
AcDbLine
 10
61.0
 20
129.0
 30
0.0
 11
61.0
 21
153.0
 31
0.0
  0
LINE
  5
460
330
7B5
100
AcDbEntity
  8
cabinets
100
AcDbLine
 10
103.0
 20
129.0
 30
0.0
 11
103.0
 21
153.0
 31
0.0
  0
LINE
  5
461
330
7B5
100
AcDbEntity
  8
cabinets
100
AcDbLine
 10
61.0
 20
153.0
 30
0.0
 11
103.0
 21
153.0
 31
0.0
  0
LINE
  5
463
330
7B5
100
AcDbEntity
  8
cabinets
100
AcDbLine
 10
0.0000000000000071
 20
129.0
 30
0.0
 11
0.0000000000000071
 21
153.0
 31
0.0
  0
LINE
  5
464
330
7B5
100
AcDbEntity
  8
cabinets
100
AcDbLine
 10
0.0000000000000071
 20
153.0
 30
0.0
 11
36.00000000000001
 21
153.0
 31
0.0
  0
LINE
  5
56F
330
7B5
100
AcDbEntity
  8
Clearances
100
AcDbLine
 10
205.0
 20
23.62999999999986
 30
0.0
 11
145.00001
 21
23.62999999999999
 31
0.0
  0
LINE
  5
571
330
7B5
100
AcDbEntity
  8
Working
100
AcDbLine
 10
175.0
 20
-22.12020000000013
 30
0.0
 11
175.0
 21
11.62999999999986
 31
0.0
  0
LINE
  5
572
330
7B5
100
AcDbEntity
  8
Working
100
AcDbLine
 10
201.32255
 20
-22.12020000000013
 30
0.0
 11
201.32255
 21
11.62999999999987
 31
0.0
  0
LINE
  5
573
330
7B5
100
AcDbEntity
  8
Working
100
AcDbLine
 10
148.67745
 20
-22.12020000000012
 30
0.0
 11
148.67745
 21
11.62999999999987
 31
0.0
  0
LINE
  5
574
330
7B5
100
AcDbEntity
  8
Working
100
AcDbLine
 10
205.0
 20
4.40069999999986
 30
0.0
 11
145.00001
 21
4.40069999999999
 31
0.0
  0
LINE
  5
575
330
7B5
100
AcDbEntity
  8
Working
100
AcDbLine
 10
145.00001
 20
-18.81190000000016
 30
0.0
 11
205.0
 21
-18.81190000000013
 31
0.0
  0
LWPOLYLINE
  5
577
330
7B5
100
AcDbEntity
  8
Feet
100
AcDbPolyline
 90
        4
 70
     1
 43
0.0
 10
148.16831
 20
1.849954999999983
 10
148.16831
 20
6.951444999999981
 10
149.18659
 20
6.951444999999981
 10
149.18659
 20
1.849954999999983
  0
LWPOLYLINE
  5
578
330
7B5
100
AcDbEntity
  8
Feet
100
AcDbPolyline
 90
        4
 70
     1
 43
0.0
 10
200.81341
 20
1.849954999999869
 10
200.81341
 20
6.951444999999867
 10
201.83169
 20
6.951444999999867
 10
201.83169
 20
1.849954999999869
  0
LWPOLYLINE
  5
579
330
7B5
100
AcDbEntity
  8
Feet
100
AcDbPolyline
 90
        4
 70
     1
 43
0.0
 10
200.81341
 20
-21.36264500000013
 10
200.81341
 20
-16.26115500000013
 10
201.83169
 20
-16.26115500000013
 10
201.83169
 20
-21.36264500000013
  0
LWPOLYLINE
  5
57A
330
7B5
100
AcDbEntity
  8
Feet
100
AcDbPolyline
 90
        4
 70
     1
 43
0.0
 10
148.16831
 20
-21.36264500000016
 10
148.16831
 20
-16.26115500000016
 10
149.18659
 20
-16.26115500000016
 10
149.18659
 20
-21.36264500000016
  0
DIMENSION
  5
57C
330
7B5
100
AcDbEntity
  8
Measure ... Feet
100
AcDbDimension
280
     0
 10
148.67745
 20
20.0
 30
0.0
 11
175.0
 21
22.25
 31
0.0
 70
    32
 71
     5
 42
-1.0
 73
     0
 74
     0
 75
     0
  3
QCADDimStyle
100
AcDbAlignedDimension
 13
148.67745
 23
6.951444999999981
 33
0.0
 14
201.32255
 24
6.951444999999867
 34
0.0
100
AcDbRotatedDimension
1001
ACAD
1000
DSTYLE
1002
{
1070
    49
1040
0.0
1070
   290
1070
     0
1070
   177
1070
     0
1070
   176
1070
     0
1070
   279
1070
     2
1070
    41
1040
3.0
1070
    79
1070
     2
1070
   178
1070
   256
1070
    43
1040
6.0
1070
    44
1040
1.5
1070
    42
1040
0.75
1070
   147
1040
0.75
1070
   140
1040
3.0
1070
    78
1070
     8
1002
}
  0
DIMENSION
  5
57D
330
7B5
100
AcDbEntity
  8
Measure ... Feet
100
AcDbDimension
280
     0
 10
148.67745
 20
-40.0
 30
0.0
 11
141.838725
 21
-37.75
 31
0.0
 70
    32
 71
     5
 42
-1.0
 73
     0
 74
     0
 75
     0
  3
QCADDimStyle
100
AcDbAlignedDimension
 13
148.67745
 23
-21.36264500000016
 33
0.0
 14
135.0
 24
-30.5
 34
0.0
100
AcDbRotatedDimension
1001
ACAD
1000
DSTYLE
1002
{
1070
    49
1040
0.0
1070
   290
1070
     0
1070
   177
1070
     0
1070
   176
1070
     0
1070
   279
1070
     2
1070
    41
1040
3.0
1070
    79
1070
     2
1070
   178
1070
   256
1070
    43
1040
6.0
1070
    44
1040
1.5
1070
    42
1040
0.75
1070
   147
1040
0.75
1070
   140
1040
3.0
1070
    78
1070
     8
1002
}
  0
DIMENSION
  5
57E
330
7B5
100
AcDbEntity
  8
Measure ... Feet
100
AcDbDimension
280
     0
 10
201.32255
 20
-40.0
 30
0.0
 11
208.161275
 21
-37.75
 31
0.0
 70
    32
 71
     5
 42
-1.0
 73
     0
 74
     0
 75
     0
  3
QCADDimStyle
100
AcDbAlignedDimension
 13
201.32255
 23
-21.36264500000013
 33
0.0
 14
215.0
 24
-30.5
 34
0.0
100
AcDbRotatedDimension
1001
ACAD
1000
DSTYLE
1002
{
1070
    49
1040
0.0
1070
   290
1070
     0
1070
   177
1070
     0
1070
   176
1070
     0
1070
   279
1070
     2
1070
    41
1040
3.0
1070
    79
1070
     2
1070
   178
1070
   256
1070
    43
1040
6.0
1070
    44
1040
1.5
1070
    42
1040
0.75
1070
   147
1040
0.75
1070
   140
1040
3.0
1070
    78
1070
     8
1002
}
  0
DIMENSION
  5
57F
330
7B5
100
AcDbEntity
  8
Measure ... Feet
100
AcDbDimension
280
     0
 10
124.4651925272886
 20
-18.81190000000016
 30
0.0
 11
122.2151925272886
 21
-12.06190000000016
 31
0.0
 70
    32
 71
     5
 42
-1.0
 73
     0
 74
     0
 75
     0
  3
QCADDimStyle
100
AcDbAlignedDimension
 13
148.16831
 23
-18.81190000000016
 33
0.0
 14
135.0
 24
-30.5
 34
0.0
 50
90.0
100
AcDbRotatedDimension
1001
ACAD
1000
DSTYLE
1002
{
1070
    49
1040
0.0
1070
   290
1070
     0
1070
   177
1070
     0
1070
   176
1070
     0
1070
   279
1070
     2
1070
    41
1040
3.0
1070
    79
1070
     2
1070
   178
1070
   256
1070
    43
1040
6.0
1070
    44
1040
1.5
1070
    42
1040
0.75
1070
   147
1040
0.75
1070
   140
1040
3.0
1070
    78
1070
     8
1002
}
  0
DIMENSION
  5
580
330
7B5
100
AcDbEntity
  8
Measure ... Feet
100
AcDbDimension
280
     0
 10
159.269921995337
 20
-18.81190000000016
 30
0.0
 11
157.019921995337
 21
-7.205600000000089
 31
0.0
 70
    32
 71
     5
 42
-1.0
 73
     0
 74
     0
 75
     0
  3
QCADDimStyle
100
AcDbAlignedDimension
 13
149.18659
 23
-18.81190000000016
 33
0.0
 14
149.18659
 24
4.400699999999982
 34
0.0
 50
90.0
100
AcDbRotatedDimension
1001
ACAD
1000
DSTYLE
1002
{
1070
    49
1040
0.0
1070
   290
1070
     0
1070
   177
1070
     0
1070
   176
1070
     0
1070
   279
1070
     2
1070
    41
1040
3.0
1070
    79
1070
     2
1070
   178
1070
   256
1070
    43
1040
6.0
1070
    44
1040
1.5
1070
    42
1040
0.75
1070
   147
1040
0.75
1070
   140
1040
3.0
1070
    78
1070
     8
1002
}
  0
DIMENSION
  5
582
330
7B5
100
AcDbEntity
  8
Measure ... Feet
100
AcDbDimension
280
     0
 10
110.0
 20
0.0000000000000107
 30
0.0
 11
107.75
 21
-15.24999999999999
 31
0.0
 70
    32
 71
     5
 42
-1.0
 73
     0
 74
     0
 75
     0
  3
QCADDimStyle
100
AcDbAlignedDimension
 13
128.0
 23
0.0000000000000099
 33
0.0
 14
135.0
 24
-30.5
 34
0.0
 50
90.0
100
AcDbRotatedDimension
1001
ACAD
1000
DSTYLE
1002
{
1070
    49
1040
0.0
1070
   290
1070
     0
1070
   177
1070
     0
1070
   176
1070
     0
1070
   279
1070
     2
1070
    41
1040
3.0
1070
    79
1070
     2
1070
   178
1070
   256
1070
    43
1040
6.0
1070
    44
1040
1.5
1070
    42
1040
0.75
1070
   147
1040
0.75
1070
   140
1040
3.0
1070
    78
1070
     8
1002
}
  0
LINE
  5
76E
330
7B5
100
AcDbEntity
  8
Clearances
100
AcDbLine
 10
50.00000000000005
 20
28.9062499999999
 30
0.0
 11
50.00000000000006
 21
56.90630000000003
 31
0.0
  0
ARC
  5
76F
330
7B5
100
AcDbEntity
  8
Clearances
100
AcDbCircle
 10
50.00002500000004
 20
28.9062749999999
 30
0.0
 40
28.00002500001129
100
AcDbArc
 50
90.0000511569003
 51
180.0000511552215
  0
LINE
  5
78B
330
7B5
100
AcDbEntity
  8
Clearances
100
AcDbLine
 10
51.99999999999977
 20
28.90624999999989
 30
0.0
 11
51.99999999999977
 21
56.90630000000003
 31
0.0
  0
ARC
  5
78C
330
7B5
100
AcDbEntity
  8
Clearances
100
AcDbCircle
 10
51.99997499999989
 20
28.90627499999987
 30
0.0
 40
28.00002500001132
100
AcDbArc
 50
359.9999488447785
 51
89.9999488430999
1001
QCAD
1000
reversed:1
  0
LINE
  5
78D
330
7B5
100
AcDbEntity
  8
Working
100
AcDbLine
 10
51.0
 20
-6.99999999999998
 30
0.0
 11
51.0
 21
0.0000000000000236
 31
0.0
  0
LINE
  5
78E
330
7B5
100
AcDbEntity
  8
Equipment ... Dshwsh
100
AcDbLine
 10
36.5625
 20
128.5
 30
0.0
 11
60.4375
 21
128.5
 31
0.0
  0
LINE
  5
78F
330
7B5
100
AcDbEntity
  8
Equipment ... Dshwsh
100
AcDbLine
 10
60.4375
 20
128.5
 30
0.0
 11
60.4375
 21
153.0
 31
0.0
  0
LINE
  5
790
330
7B5
100
AcDbEntity
  8
Clearances
100
AcDbLine
 10
36.5625
 20
102.0
 30
0.0
 11
60.4375
 21
102.0
 31
0.0
  0
LINE
  5
791
330
7B5
100
AcDbEntity
  8
Clearances
100
AcDbLine
 10
36.5625
 20
102.0
 30
0.0
 11
36.5625
 21
128.5
 31
0.0
  0
LINE
  5
792
330
7B5
100
AcDbEntity
  8
Clearances
100
AcDbLine
 10
60.4375
 20
102.0
 30
0.0
 11
60.4375
 21
128.5
 31
0.0
  0
LINE
  5
795
330
7B5
100
AcDbEntity
  8
Working
100
AcDbLine
 10
48.5
 20
129.0
 30
0.0
 11
48.5
 21
153.0
 31
0.0
  0
LINE
  5
797
330
7B5
100
AcDbEntity
  8
cabinets
100
AcDbLine
 10
0.0000000000000071
 20
129.0
 30
0.0
 11
0.0000000000000121
 21
108.0
 31
0.0
  0
LINE
  5
4F
330
7B5
100
AcDbEntity
  8
Walls
100
AcDbLine
 10
0.0000000000000093
 20
153.0
 30
0.0
 11
28.00000000000001
 21
153.0
 31
0.0
  0
LINE
  5
52
330
7B5
100
AcDbEntity
  8
Walls
100
AcDbLine
 10
103.0
 20
153.0
 30
0.0
 11
145.5
 21
153.0
 31
0.0
  0
LINE
  5
53
330
7B5
100
AcDbEntity
  8
Walls
100
AcDbLine
 10
220.5
 20
153.0
 30
0.0
 11
239.5
 21
153.0
 31
0.0
  0
LINE
  5
3F
330
7B5
100
AcDbEntity
  8
Walls
100
AcDbLine
 10
0.0000000000000064
 20
105.0
 30
0.0
 11
0.0000000000000093
 21
153.0
 31
0.0
  0
LINE
  5
177
330
7B5
100
AcDbEntity
  8
Walls
100
AcDbLine
 10
239.5
 20
72.0
 30
0.0
 11
239.5
 21
153.0
 31
0.0
  0
LINE
  5
179
330
7B5
100
AcDbEntity
  8
Walls
100
AcDbLine
 10
239.5
 20
0.0000000000000001
 30
0.0
 11
239.5
 21
24.5
 31
0.0
  0
LINE
  5
17A
330
7B5
100
AcDbEntity
  8
Walls
100
AcDbLine
 10
215.0
 20
0.0000000000000001
 30
0.0
 11
239.5
 21
0.0000000000000001
 31
0.0
  0
LINE
  5
17B
330
7B5
100
AcDbEntity
  8
Walls
100
AcDbLine
 10
239.5
 20
24.5
 30
0.0
 11
215.0
 21
0.0000000000000001
 31
0.0
  0
LINE
  5
17C
330
7B5
100
AcDbEntity
  8
Walls
100
AcDbLine
 10
215.0
 20
-30.5
 30
0.0
 11
215.0
 21
0.0000000000000001
 31
0.0
  0
LINE
  5
17D
330
7B5
100
AcDbEntity
  8
Walls
100
AcDbLine
 10
135.0
 20
-30.5
 30
0.0
 11
215.0
 21
-30.5
 31
0.0
  0
LINE
  5
17E
330
7B5
100
AcDbEntity
  8
Walls
100
AcDbLine
 10
135.0
 20
-30.49999999999999
 30
0.0
 11
135.0
 21
0.0000000000000099
 31
0.0
  0
LINE
  5
17F
330
7B5
100
AcDbEntity
  8
Walls
100
AcDbLine
 10
128.0
 20
0.0000000000000099
 30
0.0
 11
135.0
 21
0.0000000000000099
 31
0.0
  0
LINE
  5
180
330
7B5
100
AcDbEntity
  8
Walls
100
AcDbLine
 10
128.0
 20
-6.99999999999999
 30
0.0
 11
128.0
 21
0.0000000000000099
 31
0.0
  0
LINE
  5
186
330
7B5
100
AcDbEntity
  8
Walls
100
AcDbLine
 10
-47.0
 20
66.00000000000003
 30
0.0
 11
18.0
 21
66.00000000000003
 31
0.0
  0
LINE
  5
68E
330
7B5
100
AcDbEntity
  8
Walls
100
AcDbLine
 10
84.0
 20
-6.999999999999985
 30
0.0
 11
84.0
 21
0.0000000000000196
 31
0.0
  0
LINE
  5
68F
330
7B5
100
AcDbEntity
  8
Walls
100
AcDbLine
 10
18.0
 20
0.0000000000000269
 30
0.0
 11
18.0
 21
66.00000000000003
 31
0.0
  0
LINE
  5
690
330
7B5
100
AcDbEntity
  8
Walls
100
AcDbLine
 10
18.0
 20
0.0000000000000269
 30
0.0
 11
84.0
 21
0.0000000000000196
 31
0.0
  0
VIEWPORT
  5
890
330
7B1
100
AcDbEntity
 67
     1
  8
0
100
AcDbViewport
 10
5.25
 20
4.0
 30
0.0
 40
11.638
 41
8.993
 68
     1
 69
     1
 12
5.25
 22
4.0
 13
0.0
 23
0.0
 14
0.5
 24
0.5
 15
0.5
 25
0.5
 16
0.0
 26
0.0
 36
1.0
 17
0.0
 27
0.0
 37
0.0
 42
50.0
 43
0.0
 44
0.0
 45
8.993
 50
0.0
 51
0.0
 72
   100
 90
   557152
  1

281
     0
 71
     1
 74
     0
110
0.0
120
0.0
130
0.0
111
1.0
121
0.0
131
0.0
112
0.0
122
1.0
132
0.0
 79
     0
146
0.0
170
     0
 61
     5
348
7C5
292
     1
282
     1
141
0.0
142
0.0
 63
   256
361
891
  0
ENDSEC
  0
SECTION
  2
OBJECTS
  0
DICTIONARY
  5
7A3
330
0
100
AcDbDictionary
281
     1
  3
ACAD_DETAILVIEWSTYLE
350
8A3
  3
ACAD_GROUP
350
7A4
  3
ACAD_LAYOUT
350
7B0
  3
ACAD_MATERIAL
350
7D9
  3
ACAD_MLEADERSTYLE
350
801
  3
ACAD_MLINESTYLE
350
7AD
  3
ACAD_PLOTSETTINGS
350
7AF
  3
ACAD_PLOTSTYLENAME
350
7A5
  3
ACAD_SCALELIST
350
7DD
  3
ACAD_SECTIONVIEWSTYLE
350
8A4
  3
ACAD_TABLESTYLE
350
7FF
  3
ACAD_VISUALSTYLE
350
7C0
  3
ACDB_RECOMPOSE_DATA
350
8A0
  3
AcDbVariableDictionary
350
89C
  3
QCAD_OBJECTS
350
805
  0
SUN
  5
803
330
7BF
100
AcDbSun
 90
        1
290
     0
 63
     7
421
 16777215
 40
1.0
291
     1
 91
  2455826
 92
 54000000
292
     0
 70
     2
 71
   256
280
     1
  0
SUN
  5
891
330
890
100
AcDbSun
 90
        1
290
     0
 63
     7
421
 16777215
 40
1.0
291
     1
 91
  2455826
 92
 54000000
292
     0
 70
     2
 71
   256
280
     1
  0
DICTIONARY
  5
8A3
102
{ACAD_REACTORS
330
7A3
102
}
330
7A3
100
AcDbDictionary
281
     1
  0
DICTIONARY
  5
7A4
102
{ACAD_REACTORS
330
7A3
102
}
330
7A3
100
AcDbDictionary
281
     1
  0
DICTIONARY
  5
7B0
102
{ACAD_REACTORS
330
7A3
102
}
330
7A3
100
AcDbDictionary
281
     1
  3
Layout1
350
7B4
  3
Model
350
7B8
  0
DICTIONARY
  5
7D9
102
{ACAD_REACTORS
330
7A3
102
}
330
7A3
100
AcDbDictionary
281
     1
  3
ByBlock
350
7DB
  3
ByLayer
350
7DA
  3
Global
350
7DC
  0
DICTIONARY
  5
801
102
{ACAD_REACTORS
330
7A3
102
}
330
7A3
100
AcDbDictionary
281
     1
  3
Standard
350
802
  0
DICTIONARY
  5
7AD
102
{ACAD_REACTORS
330
7A3
102
}
330
7A3
100
AcDbDictionary
281
     1
  3
Standard
350
7AE
  0
DICTIONARY
  5
7AF
102
{ACAD_REACTORS
330
7A3
102
}
330
7A3
100
AcDbDictionary
281
     1
  0
ACDBDICTIONARYWDFLT
  5
7A5
102
{ACAD_REACTORS
330
7A3
102
}
330
7A3
100
AcDbDictionary
281
     1
  3
Normal
350
7A6
100
AcDbDictionaryWithDefault
340
7A6
  0
DICTIONARY
  5
7DD
102
{ACAD_REACTORS
330
7A3
102
}
330
7A3
100
AcDbDictionary
281
     1
  3
A0
350
7DE
  3
A1
350
7DF
  3
A2
350
7E0
  3
A3
350
7E1
  3
A4
350
7E2
  3
A5
350
7E3
  3
A6
350
7E4
  3
A7
350
7E5
  3
A8
350
7E6
  3
A9
350
7E7
  3
B0
350
7E8
  3
B1
350
7E9
  3
B2
350
7EA
  3
B3
350
7EB
  3
B4
350
7EC
  3
B5
350
7ED
  3
B6
350
7EE
  3
B7
350
7EF
  3
B8
350
7F0
  3
B9
350
7F1
  3
C0
350
7F2
  3
C1
350
7F3
  3
C2
350
7F4
  3
C3
350
7F5
  3
C4
350
7F6
  3
C5
350
7F7
  3
C6
350
7F8
  3
C7
350
7F9
  3
C8
350
7FA
  3
C9
350
7FB
  3
D0
350
7FC
  3
D1
350
7FD
  3
D2
350
7FE
  0
DICTIONARY
  5
8A4
102
{ACAD_REACTORS
330
7A3
102
}
330
7A3
100
AcDbDictionary
281
     1
  0
DICTIONARY
  5
7FF
102
{ACAD_REACTORS
330
7A3
102
}
330
7A3
100
AcDbDictionary
281
     1
  3
Standard
350
800
  0
DICTIONARY
  5
7C0
102
{ACAD_REACTORS
330
7A3
102
}
330
7A3
100
AcDbDictionary
281
     1
  3
2dWireframe
350
7C5
  3
Basic
350
7C8
  3
Brighten
350
7CC
  3
ColorChange
350
7D0
  3
Conceptual
350
7CA
  3
Dim
350
7CB
  3
EdgeColorOff
350
7D3
  3
Facepattern
350
7CF
  3
Flat
350
7C1
  3
FlatWithEdges
350
7C2
  3
Gouraud
350
7C3
  3
GouraudWithEdges
350
7C4
  3
Hidden
350
7C7
  3
JitterOff
350
7D1
  3
Linepattern
350
7CE
  3
OverhangOff
350
7D2
  3
Realistic
350
7C9
  3
Shaded
350
7D8
  3
Shaded with edges
350
7D7
  3
Shades of Gray
350
7D4
  3
Sketchy
350
7D5
  3
Thicken
350
7CD
  3
Wireframe
350
7C6
  3
X-Ray
350
7D6
  0
XRECORD
  5
8A0
102
{ACAD_REACTORS
330
7A3
102
}
330
7A3
100
AcDbXrecord
280
     1
 90
        1
330
800
  0
DICTIONARY
  5
89C
102
{ACAD_REACTORS
330
7A3
102
}
330
7A3
100
AcDbDictionary
281
     1
  3
CANNOSCALE
350
89D
  3
CMLEADERSTYLE
350
8A2
  3
CTABLESTYLE
350
8A1
  0
DICTIONARY
  5
805
102
{ACAD_REACTORS
330
7A3
102
}
330
7A3
100
AcDbDictionary
281
     1
  3
ColorSettings/BackgroundColor
350
807
  3
ColorSettings/ColorMode
350
808
  3
DimensionSettings/AngularFormat
350
809
  3
DimensionSettings/AngularPrecision
350
80A
  3
DimensionSettings/DecimalPoint
350
80B
  3
DimensionSettings/DimensionFont
350
80C
  3
DimensionSettings/DimensionTextColor
350
80D
  3
DimensionSettings/KeepProportions
350
80E
  3
DimensionSettings/LinearFormat
350
80F
  3
DimensionSettings/LinearPrecision
350
810
  3
Grid/DisplayGrid00
350
811
  3
Grid/DisplayGrid01
350
812
  3
Grid/DisplayGrid02
350
813
  3
Grid/DisplayGrid03
350
814
  3
Grid/GridSpacingX00
350
815
  3
Grid/GridSpacingX01
350
816
  3
Grid/GridSpacingX02
350
817
  3
Grid/GridSpacingX03
350
818
  3
Grid/GridSpacingY00
350
819
  3
Grid/GridSpacingY01
350
81A
  3
Grid/GridSpacingY02
350
81B
  3
Grid/GridSpacingY03
350
81C
  3
Grid/IsometricGrid00
350
81D
  3
Grid/IsometricGrid01
350
81E
  3
Grid/IsometricGrid02
350
81F
  3
Grid/IsometricGrid03
350
820
  3
Grid/IsometricProjection00
350
821
  3
Grid/IsometricProjection01
350
822
  3
Grid/IsometricProjection02
350
823
  3
Grid/IsometricProjection03
350
824
  3
Grid/MetaGridSpacingX00
350
825
  3
Grid/MetaGridSpacingX01
350
826
  3
Grid/MetaGridSpacingX02
350
827
  3
Grid/MetaGridSpacingX03
350
828
  3
Grid/MetaGridSpacingY00
350
829
  3
Grid/MetaGridSpacingY01
350
82A
  3
Grid/MetaGridSpacingY02
350
82B
  3
Grid/MetaGridSpacingY03
350
82C
  3
MultiPageSettings/Columns
350
82D
  3
MultiPageSettings/GlueMarginsBottom
350
82E
  3
MultiPageSettings/GlueMarginsLeft
350
82F
  3
MultiPageSettings/GlueMarginsRight
350
830
  3
MultiPageSettings/GlueMarginsTop
350
831
  3
MultiPageSettings/PrintCropMarks
350
832
  3
MultiPageSettings/Rows
350
833
  3
PageSettings/OffsetX
350
834
  3
PageSettings/OffsetY
350
835
  3
PageSettings/PageOrientation
350
836
  3
PageSettings/PaperHeight
350
837
  3
PageSettings/PaperWidth
350
838
  3
PageSettings/Scale
350
839
  3
PageSettings/ShowPaperBorders
350
83A
  3
PageTagSettings/EnablePageTags
350
83B
  3
PageTagSettings/TagAlignment
350
83C
  3
PageTagSettings/TagFont
350
83D
  3
PageTagSettings/TagPosition
350
83E
  3
QCADVersion
350
83F
  3
UnitSettings/PaperUnit
350
840
  3
ViewportCenter
350
841
  3
ViewportHeight
350
842
  3
ViewportWidth
350
843
  0
LAYOUT
  5
7B4
102
{ACAD_REACTORS
330
7B0
102
}
330
7B0
100
AcDbPlotSettings
  1

  2
none_device
  4
Letter_(8.50_x_11.00_Inches)
  6

 40
6.35
 41
6.35
 42
6.35001
 43
6.35001
 44
215.9
 45
279.4
 46
0.0
 47
0.0
 48
0.0
 49
0.0
140
0.0
141
0.0
142
1.0
143
1.0
 70
   688
 72
     0
 73
     1
 74
     5
  7

 75
     0
 76
     0
 77
     2
 78
   300
147
1.0
148
0.0
149
0.0
100
AcDbLayout
  1
Layout1
 70
     1
 71
     0
 10
-0.25
 20
-0.25
 11
10.75
 21
8.25
 12
0.0
 22
0.0
 32
0.0
 14
0.0
 24
0.0
 34
0.0
 15
0.0
 25
0.0
 35
0.0
146
0.0
 13
0.0
 23
0.0
 33
0.0
 16
1.0
 26
0.0
 36
0.0
 17
0.0
 27
1.0
 37
0.0
 76
     0
330
7B1
331
890
  0
LAYOUT
  5
7B8
102
{ACAD_REACTORS
330
7B0
102
}
330
7B0
100
AcDbPlotSettings
  1

  2
none_device
  4
Letter_(8.50_x_11.00_Inches)
  6

 40
6.35
 41
6.35
 42
6.35000508
 43
6.35000508
 44
215.9
 45
279.4
 46
0.0
 47
0.0
 48
0.0
 49
0.0
140
0.0
141
0.0
142
1.0
143
1.0
 70
  1712
 72
     0
 73
     0
 74
     0
  7

 75
     0
 76
     0
 77
     2
 78
   300
147
1.0
148
0.0
149
0.0
100
AcDbLayout
  1
Model
 70
     1
 71
     0
 10
0.0
 20
0.0
 11
12.0
 21
9.0
 12
0.0
 22
0.0
 32
0.0
 14
-47.0
 24
-41.5
 34
0.0
 15
239.5
 25
153.0
 35
0.0
146
0.0
 13
0.0
 23
0.0
 33
0.0
 16
1.0
 26
0.0
 36
0.0
 17
0.0
 27
1.0
 37
0.0
 76
     0
330
7B5
331
7BF
  0
MATERIAL
  5
7DB
102
{ACAD_REACTORS
330
7D9
102
}
330
7D9
100
AcDbMaterial
  1
ByBlock
 72
     1
 94
      127
  0
MATERIAL
  5
7DA
102
{ACAD_REACTORS
330
7D9
102
}
330
7D9
100
AcDbMaterial
  1
ByLayer
 72
     1
 94
      127
  0
MATERIAL
  5
7DC
102
{ACAD_REACTORS
330
7D9
102
}
330
7D9
100
AcDbMaterial
  1
Global
 72
     1
 94
      127
  0
MLEADERSTYLE
  5
802
102
{ACAD_REACTORS
330
801
102
}
330
801
100
AcDbMLeaderStyle
179
     2
170
     2
171
     1
172
     0
 90
        2
 40
0.0
 41
0.0
173
     1
 91
-1056964608
340
7AA
 92
       -2
290
     1
 42
0.09
291
     1
 43
0.36
  3
Standard
341
0
 44
0.18
300

342
7A8
174
     1
178
     6
175
     1
176
     0
 93
-1056964608
 45
0.18
292
     0
297
     0
 46
0.18
343
0
 94
-1056964608
 47
1.0
 49
1.0
140
1.0
293
     1
141
0.0
294
     1
177
     0
142
1.0
295
     0
296
     0
143
0.125
271
     0
272
     9
273
     9
298
     0
  0
MLINESTYLE
  5
7AE
102
{ACAD_REACTORS
330
7AD
102
}
330
7AD
100
AcDbMlineStyle
  2
Standard
 70
     0
  3

 62
   256
 51
90.0
 52
90.0
 71
     2
 49
0.5
 62
   256
  6
BYLAYER
 49
-0.5
 62
   256
  6
BYLAYER
  0
ACDBPLACEHOLDER
  5
7A6
102
{ACAD_REACTORS
330
7A5
102
}
330
7A5
  0
SCALE
  5
7DE
102
{ACAD_REACTORS
330
7DD
102
}
330
7DD
100
AcDbScale
 70
     0
300
1:1
140
1.0
141
1.0
290
     1
  0
SCALE
  5
7DF
102
{ACAD_REACTORS
330
7DD
102
}
330
7DD
100
AcDbScale
 70
     0
300
1:2
140
1.0
141
2.0
290
     0
  0
SCALE
  5
7E0
102
{ACAD_REACTORS
330
7DD
102
}
330
7DD
100
AcDbScale
 70
     0
300
1:4
140
1.0
141
4.0
290
     0
  0
SCALE
  5
7E1
102
{ACAD_REACTORS
330
7DD
102
}
330
7DD
100
AcDbScale
 70
     0
300
1:5
140
1.0
141
5.0
290
     0
  0
SCALE
  5
7E2
102
{ACAD_REACTORS
330
7DD
102
}
330
7DD
100
AcDbScale
 70
     0
300
1:8
140
1.0
141
8.0
290
     0
  0
SCALE
  5
7E3
102
{ACAD_REACTORS
330
7DD
102
}
330
7DD
100
AcDbScale
 70
     0
300
1:10
140
1.0
141
10.0
290
     0
  0
SCALE
  5
7E4
102
{ACAD_REACTORS
330
7DD
102
}
330
7DD
100
AcDbScale
 70
     0
300
1:16
140
1.0
141
16.0
290
     0
  0
SCALE
  5
7E5
102
{ACAD_REACTORS
330
7DD
102
}
330
7DD
100
AcDbScale
 70
     0
300
1:20
140
1.0
141
20.0
290
     0
  0
SCALE
  5
7E6
102
{ACAD_REACTORS
330
7DD
102
}
330
7DD
100
AcDbScale
 70
     0
300
1:30
140
1.0
141
30.0
290
     0
  0
SCALE
  5
7E7
102
{ACAD_REACTORS
330
7DD
102
}
330
7DD
100
AcDbScale
 70
     0
300
1:40
140
1.0
141
40.0
290
     0
  0
SCALE
  5
7E8
102
{ACAD_REACTORS
330
7DD
102
}
330
7DD
100
AcDbScale
 70
     0
300
1:50
140
1.0
141
50.0
290
     0
  0
SCALE
  5
7E9
102
{ACAD_REACTORS
330
7DD
102
}
330
7DD
100
AcDbScale
 70
     0
300
1:100
140
1.0
141
100.0
290
     0
  0
SCALE
  5
7EA
102
{ACAD_REACTORS
330
7DD
102
}
330
7DD
100
AcDbScale
 70
     0
300
2:1
140
2.0
141
1.0
290
     0
  0
SCALE
  5
7EB
102
{ACAD_REACTORS
330
7DD
102
}
330
7DD
100
AcDbScale
 70
     0
300
4:1
140
4.0
141
1.0
290
     0
  0
SCALE
  5
7EC
102
{ACAD_REACTORS
330
7DD
102
}
330
7DD
100
AcDbScale
 70
     0
300
8:1
140
8.0
141
1.0
290
     0
  0
SCALE
  5
7ED
102
{ACAD_REACTORS
330
7DD
102
}
330
7DD
100
AcDbScale
 70
     0
300
10:1
140
10.0
141
1.0
290
     0
  0
SCALE
  5
7EE
102
{ACAD_REACTORS
330
7DD
102
}
330
7DD
100
AcDbScale
 70
     0
300
100:1
140
100.0
141
1.0
290
     0
  0
SCALE
  5
7EF
102
{ACAD_REACTORS
330
7DD
102
}
330
7DD
100
AcDbScale
 70
     0
300
1/128" = 1'-0"
140
0.0078125
141
12.0
290
     0
  0
SCALE
  5
7F0
102
{ACAD_REACTORS
330
7DD
102
}
330
7DD
100
AcDbScale
 70
     0
300
1/64" = 1'-0"
140
0.015625
141
12.0
290
     0
  0
SCALE
  5
7F1
102
{ACAD_REACTORS
330
7DD
102
}
330
7DD
100
AcDbScale
 70
     0
300
1/32" = 1'-0"
140
0.03125
141
12.0
290
     0
  0
SCALE
  5
7F2
102
{ACAD_REACTORS
330
7DD
102
}
330
7DD
100
AcDbScale
 70
     0
300
1/16" = 1'-0"
140
0.0625
141
12.0
290
     0
  0
SCALE
  5
7F3
102
{ACAD_REACTORS
330
7DD
102
}
330
7DD
100
AcDbScale
 70
     0
300
3/32" = 1'-0"
140
0.09375
141
12.0
290
     0
  0
SCALE
  5
7F4
102
{ACAD_REACTORS
330
7DD
102
}
330
7DD
100
AcDbScale
 70
     0
300
1/8" = 1'-0"
140
0.125
141
12.0
290
     0
  0
SCALE
  5
7F5
102
{ACAD_REACTORS
330
7DD
102
}
330
7DD
100
AcDbScale
 70
     0
300
3/16" = 1'-0"
140
0.1875
141
12.0
290
     0
  0
SCALE
  5
7F6
102
{ACAD_REACTORS
330
7DD
102
}
330
7DD
100
AcDbScale
 70
     0
300
1/4" = 1'-0"
140
0.25
141
12.0
290
     0
  0
SCALE
  5
7F7
102
{ACAD_REACTORS
330
7DD
102
}
330
7DD
100
AcDbScale
 70
     0
300
3/8" = 1'-0"
140
0.375
141
12.0
290
     0
  0
SCALE
  5
7F8
102
{ACAD_REACTORS
330
7DD
102
}
330
7DD
100
AcDbScale
 70
     0
300
1/2" = 1'-0"
140
0.5
141
12.0
290
     0
  0
SCALE
  5
7F9
102
{ACAD_REACTORS
330
7DD
102
}
330
7DD
100
AcDbScale
 70
     0
300
3/4" = 1'-0"
140
0.75
141
12.0
290
     0
  0
SCALE
  5
7FA
102
{ACAD_REACTORS
330
7DD
102
}
330
7DD
100
AcDbScale
 70
     0
300
1" = 1'-0"
140
1.0
141
12.0
290
     0
  0
SCALE
  5
7FB
102
{ACAD_REACTORS
330
7DD
102
}
330
7DD
100
AcDbScale
 70
     0
300
1-1/2" = 1'-0"
140
1.5
141
12.0
290
     0
  0
SCALE
  5
7FC
102
{ACAD_REACTORS
330
7DD
102
}
330
7DD
100
AcDbScale
 70
     0
300
3" = 1'-0"
140
3.0
141
12.0
290
     0
  0
SCALE
  5
7FD
102
{ACAD_REACTORS
330
7DD
102
}
330
7DD
100
AcDbScale
 70
     0
300
6" = 1'-0"
140
6.0
141
12.0
290
     0
  0
SCALE
  5
7FE
102
{ACAD_REACTORS
330
7DD
102
}
330
7DD
100
AcDbScale
 70
     0
300
1'-0" = 1'-0"
140
12.0
141
12.0
290
     0
  0
TABLESTYLE
  5
800
102
{ACAD_REACTORS
330
7FF
102
}
102
{ACAD_XDICTIONARY
360
89E
102
}
330
7FF
100
AcDbTableStyle
  3
Standard
 70
     0
 71
     0
 40
0.06
 41
0.06
280
     0
281
     0
  7
Standard
140
0.18
170
     2
 62
     0
 63
   257
283
     0
 90
        4
 91
        0
  1

274
    -2
284
     1
 64
     0
275
    -2
285
     1
 65
     0
276
    -2
286
     1
 66
     0
277
    -2
287
     1
 67
     0
278
    -2
288
     1
 68
     0
279
    -2
289
     1
 69
     0
  7
Standard
140
0.25
170
     5
 62
     0
 63
   257
283
     0
 90
        4
 91
        0
  1

274
    -2
284
     1
 64
     0
275
    -2
285
     1
 65
     0
276
    -2
286
     1
 66
     0
277
    -2
287
     1
 67
     0
278
    -2
288
     1
 68
     0
279
    -2
289
     1
 69
     0
  7
Standard
140
0.18
170
     5
 62
     0
 63
   257
283
     0
 90
        4
 91
        0
  1

274
    -2
284
     1
 64
     0
275
    -2
285
     1
 65
     0
276
    -2
286
     1
 66
     0
277
    -2
287
     1
 67
     0
278
    -2
288
     1
 68
     0
279
    -2
289
     1
 69
     0
  0
VISUALSTYLE
  5
7C5
102
{ACAD_REACTORS
330
7C0
102
}
330
7C0
100
AcDbVisualStyle
  2
2dWireframe
 70
     4
177
     3
291
     0
 70
    58
 90
        0
176
     1
 90
        2
176
     1
 90
        0
176
     1
 90
        0
176
     1
 40
0.6
176
     1
 40
30.0
176
     1
 62
     7
420
 16777215
176
     1
 90
        1
176
     1
 90
        4
176
     1
 62
     7
176
     1
 62
   257
176
     1
 90
        1
176
     1
 90
        1
176
     1
 40
1.0
176
     1
 90
        0
176
     1
 62
   257
176
     1
 40
1.0
176
     1
 90
        1
176
     1
 90
        6
176
     1
 90
        2
176
     1
 62
     7
176
     1
 90
        5
176
     1
 90
        0
176
     1
 90
        0
176
     1
290
     0
176
     1
 90
        1
176
     1
 40
0.0
176
     1
 90
        0
176
     1
290
     1
176
     1
290
     1
176
     1
290
     0
176
     1
290
     0
176
     1
290
     0
176
     1
290
     0
176
     1
290
     0
176
     1
290
     0
176
     1
290
     0
176
     1
 90
       50
176
     1
 40
0.0
176
     1
 40
1.0
176
     1
 90
        0
176
     1
 62
   178
420
        0
176
     1
 90
       50
176
     1
 90
        3
176
     1
 62
     5
420
      255
176
     1
290
     0
176
     1
 90
       50
176
     1
 90
       50
176
     1
 90
       50
176
     1
290
     0
176
     1
 90
       50
176
     1
 62
   256
176
     0
 40
1.0
176
     0
 90
        2
176
     1
  1
strokes_ogs.tif
176
     1
290
     0
176
     1
 40
1.0
176
     1
 40
1.0
176
     1
  0
VISUALSTYLE
  5
7C8
102
{ACAD_REACTORS
330
7C0
102
}
330
7C0
100
AcDbVisualStyle
  2
Basic
 70
     7
177
     3
291
     1
 70
    58
 90
        1
176
     1
 90
        0
176
     1
 90
        1
176
     1
 90
        0
176
     1
 40
0.6
176
     1
 40
30.0
176
     1
 62
     7
420
 16777215
176
     1
 90
        0
176
     1
 90
        4
176
     1
 62
     7
176
     1
 62
   257
176
     1
 90
        1
176
     1
 90
        1
176
     1
 40
1.0
176
     1
 90
        8
176
     1
 62
     7
176
     1
 40
1.0
176
     1
 90
        1
176
     1
 90
        6
176
     1
 90
        2
176
     1
 62
     7
176
     1
 90
        5
176
     1
 90
        0
176
     1
 90
        0
176
     1
290
     0
176
     1
 90
        1
176
     1
 40
0.0
176
     1
 90
        0
176
     1
290
     0
176
     1
290
     1
176
     1
290
     1
176
     1
290
     0
176
     1
290
     0
176
     1
290
     0
176
     1
290
     0
176
     1
290
     0
176
     1
290
     0
176
     1
 90
       50
176
     1
 40
0.0
176
     1
 40
1.0
176
     1
 90
        0
176
     1
 62
   178
420
        0
176
     1
 90
       50
176
     1
 90
        3
176
     1
 62
     5
420
      255
176
     1
290
     0
176
     1
 90
       50
176
     1
 90
       50
176
     1
 90
       50
176
     1
290
     0
176
     1
 90
       50
176
     1
 62
   256
176
     0
 40
1.0
176
     0
 90
        2
176
     1
  1
strokes_ogs.tif
176
     1
290
     0
176
     1
 40
1.0
176
     1
 40
1.0
176
     1
  0
VISUALSTYLE
  5
7CC
102
{ACAD_REACTORS
330
7C0
102
}
330
7C0
100
AcDbVisualStyle
  2
Brighten
 70
    12
177
     3
291
     1
 70
    58
 90
        2
176
     1
 90
        2
176
     1
 90
        0
176
     1
 90
        0
176
     1
 40
0.6
176
     1
 40
30.0
176
     1
 62
     7
420
 16777215
176
     1
 90
        1
176
     1
 90
        4
176
     1
 62
     7
176
     1
 62
   257
176
     1
 90
        1
176
     1
 90
        1
176
     1
 40
1.0
176
     1
 90
        8
176
     1
 62
     7
176
     1
 40
1.0
176
     1
 90
        1
176
     1
 90
        6
176
     1
 90
        2
176
     1
 62
     7
176
     1
 90
        5
176
     1
 90
        0
176
     1
 90
        0
176
     1
290
     0
176
     1
 90
        1
176
     1
 40
50.0
176
     1
 90
        0
176
     1
290
     0
176
     1
290
     1
176
     1
290
     1
176
     1
290
     0
176
     1
290
     0
176
     1
290
     0
176
     1
290
     0
176
     1
290
     0
176
     1
290
     0
176
     1
 90
       50
176
     1
 40
0.0
176
     1
 40
1.0
176
     1
 90
        0
176
     1
 62
   178
420
        0
176
     1
 90
       50
176
     1
 90
        3
176
     1
 62
     5
420
      255
176
     1
290
     0
176
     1
 90
       50
176
     1
 90
       50
176
     1
 90
       50
176
     1
290
     0
176
     1
 90
       50
176
     1
 62
   256
176
     0
 40
1.0
176
     0
 90
        2
176
     1
  1
strokes_ogs.tif
176
     1
290
     0
176
     1
 40
1.0
176
     1
 40
1.0
176
     1
  0
VISUALSTYLE
  5
7D0
102
{ACAD_REACTORS
330
7C0
102
}
330
7C0
100
AcDbVisualStyle
  2
ColorChange
 70
    16
177
     3
291
     1
 70
    58
 90
        2
176
     1
 90
        2
176
     1
 90
        3
176
     1
 90
        0
176
     1
 40
0.6
176
     1
 40
30.0
176
     1
 62
     8
420
  8421504
176
     1
 90
        1
176
     1
 90
        4
176
     1
 62
     7
176
     1
 62
   257
176
     1
 90
        1
176
     1
 90
        1
176
     1
 40
1.0
176
     1
 90
        8
176
     1
 62
     8
420
  8421504
176
     1
 40
1.0
176
     1
 90
        1
176
     1
 90
        6
176
     1
 90
        2
176
     1
 62
     7
176
     1
 90
        5
176
     1
 90
        0
176
     1
 90
        0
176
     1
290
     0
176
     1
 90
        1
176
     1
 40
0.0
176
     1
 90
        0
176
     1
290
     0
176
     1
290
     1
176
     1
290
     1
176
     1
290
     0
176
     1
290
     0
176
     1
290
     0
176
     1
290
     0
176
     1
290
     0
176
     1
290
     0
176
     1
 90
       50
176
     1
 40
0.0
176
     1
 40
1.0
176
     1
 90
        0
176
     1
 62
   178
420
        0
176
     1
 90
       50
176
     1
 90
        3
176
     1
 62
     5
420
      255
176
     1
290
     0
176
     1
 90
       50
176
     1
 90
       50
176
     1
 90
       50
176
     1
290
     0
176
     1
 90
       50
176
     1
 62
   256
176
     0
 40
1.0
176
     0
 90
        2
176
     1
  1
strokes_ogs.tif
176
     1
290
     0
176
     1
 40
1.0
176
     1
 40
1.0
176
     1
  0
VISUALSTYLE
  5
7CA
102
{ACAD_REACTORS
330
7C0
102
}
330
7C0
100
AcDbVisualStyle
  2
Conceptual
 70
     9
177
     3
291
     0
 70
    58
 90
        3
176
     1
 90
        2
176
     1
 90
        0
176
     1
 90
        0
176
     1
 40
0.6
176
     1
 40
30.0
176
     1
 62
     7
420
 16777215
176
     1
 90
        2
176
     1
 90
        2
176
     1
 62
     7
176
     1
 62
   257
176
     1
 90
        1
176
     1
 90
        1
176
     1
 40
179.0
176
     1
 90
        8
176
     1
 62
     7
176
     1
 40
1.0
176
     1
 90
        1
176
     1
 90
        6
176
     1
 90
        2
176
     1
 62
     7
176
     1
 90
        3
176
     1
 90
        0
176
     1
 90
        0
176
     1
290
     0
176
     1
 90
        1
176
     1
 40
0.0
176
     1
 90
        0
176
     1
290
     0
176
     1
290
     1
176
     1
290
     1
176
     1
290
     0
176
     1
290
     0
176
     1
290
     0
176
     1
290
     0
176
     1
290
     0
176
     1
290
     0
176
     1
 90
       50
176
     1
 40
0.0
176
     1
 40
1.0
176
     1
 90
        0
176
     1
 62
   178
420
        0
176
     1
 90
       50
176
     1
 90
        3
176
     1
 62
     5
420
      255
176
     1
290
     0
176
     1
 90
       50
176
     1
 90
       50
176
     1
 90
       50
176
     1
290
     0
176
     1
 90
       50
176
     1
 62
   256
176
     0
 40
1.0
176
     0
 90
        2
176
     1
  1
strokes_ogs.tif
176
     1
290
     0
176
     1
 40
1.0
176
     1
 40
1.0
176
     1
  0
VISUALSTYLE
  5
7CB
102
{ACAD_REACTORS
330
7C0
102
}
330
7C0
100
AcDbVisualStyle
  2
Dim
 70
    11
177
     3
291
     1
 70
    58
 90
        2
176
     1
 90
        2
176
     1
 90
        0
176
     1
 90
        0
176
     1
 40
0.6
176
     1
 40
30.0
176
     1
 62
     7
420
 16777215
176
     1
 90
        1
176
     1
 90
        4
176
     1
 62
     7
176
     1
 62
   257
176
     1
 90
        1
176
     1
 90
        1
176
     1
 40
1.0
176
     1
 90
        8
176
     1
 62
     7
176
     1
 40
1.0
176
     1
 90
        1
176
     1
 90
        6
176
     1
 90
        2
176
     1
 62
     7
176
     1
 90
        5
176
     1
 90
        0
176
     1
 90
        0
176
     1
290
     0
176
     1
 90
        1
176
     1
 40
-50.0
176
     1
 90
        0
176
     1
290
     0
176
     1
290
     1
176
     1
290
     1
176
     1
290
     0
176
     1
290
     0
176
     1
290
     0
176
     1
290
     0
176
     1
290
     0
176
     1
290
     0
176
     1
 90
       50
176
     1
 40
0.0
176
     1
 40
1.0
176
     1
 90
        0
176
     1
 62
   178
420
        0
176
     1
 90
       50
176
     1
 90
        3
176
     1
 62
     5
420
      255
176
     1
290
     0
176
     1
 90
       50
176
     1
 90
       50
176
     1
 90
       50
176
     1
290
     0
176
     1
 90
       50
176
     1
 62
   256
176
     0
 40
1.0
176
     0
 90
        2
176
     1
  1
strokes_ogs.tif
176
     1
290
     0
176
     1
 40
1.0
176
     1
 40
1.0
176
     1
  0
VISUALSTYLE
  5
7D3
102
{ACAD_REACTORS
330
7C0
102
}
330
7C0
100
AcDbVisualStyle
  2
EdgeColorOff
 70
    22
177
     3
291
     1
 70
    58
 90
        2
176
     0
 90
        2
176
     0
 90
        0
176
     0
 90
        0
176
     0
 40
0.6
176
     0
 40
30.0
176
     0
 62
     7
420
 16777215
176
     0
 90
        1
176
     0
 90
        4
176
     0
 62
     7
176
     0
 62
   257
176
     0
 90
        1
176
     0
 90
        1
176
     0
 40
1.0
176
     0
 90
        8
176
     2
 62
     7
176
     0
 40
1.0
176
     0
 90
        1
176
     0
 90
        6
176
     0
 90
        2
176
     0
 62
     7
176
     0
 90
        5
176
     0
 90
        0
176
     0
 90
        0
176
     0
290
     0
176
     0
 90
        1
176
     0
 40
0.0
176
     0
 90
        0
176
     0
290
     0
176
     0
290
     1
176
     0
290
     1
176
     0
290
     0
176
     0
290
     0
176
     0
290
     0
176
     0
290
     0
176
     0
290
     0
176
     0
290
     0
176
     0
 90
       50
176
     0
 40
0.0
176
     0
 40
1.0
176
     0
 90
        0
176
     0
 62
   178
420
        0
176
     0
 90
       50
176
     0
 90
        3
176
     0
 62
     5
420
      255
176
     0
290
     0
176
     0
 90
       50
176
     0
 90
       50
176
     0
 90
       50
176
     0
290
     0
176
     0
 90
       50
176
     0
 62
   256
176
     0
 40
1.0
176
     0
 90
        2
176
     0
  1
strokes_ogs.tif
176
     0
290
     0
176
     0
 40
1.0
176
     0
 40
1.0
176
     0
  0
VISUALSTYLE
  5
7CF
102
{ACAD_REACTORS
330
7C0
102
}
330
7C0
100
AcDbVisualStyle
  2
Facepattern
 70
    15
177
     3
291
     1
 70
    58
 90
        2
176
     1
 90
        2
176
     1
 90
        0
176
     1
 90
        0
176
     1
 40
0.6
176
     1
 40
30.0
176
     1
 62
     7
420
 16777215
176
     1
 90
        1
176
     1
 90
        4
176
     1
 62
     7
176
     1
 62
   257
176
     1
 90
        1
176
     1
 90
        1
176
     1
 40
1.0
176
     1
 90
        8
176
     1
 62
     7
176
     1
 40
1.0
176
     1
 90
        1
176
     1
 90
        6
176
     1
 90
        2
176
     1
 62
     7
176
     1
 90
        5
176
     1
 90
        0
176
     1
 90
        0
176
     1
290
     0
176
     1
 90
        1
176
     1
 40
0.0
176
     1
 90
        0
176
     1
290
     0
176
     1
290
     1
176
     1
290
     1
176
     1
290
     0
176
     1
290
     0
176
     1
290
     0
176
     1
290
     0
176
     1
290
     0
176
     1
290
     0
176
     1
 90
       50
176
     1
 40
0.0
176
     1
 40
1.0
176
     1
 90
        0
176
     1
 62
   178
420
        0
176
     1
 90
       50
176
     1
 90
        3
176
     1
 62
     5
420
      255
176
     1
290
     0
176
     1
 90
       50
176
     1
 90
       50
176
     1
 90
       50
176
     1
290
     0
176
     1
 90
       50
176
     1
 62
   256
176
     0
 40
1.0
176
     0
 90
        2
176
     1
  1
strokes_ogs.tif
176
     1
290
     0
176
     1
 40
1.0
176
     1
 40
1.0
176
     1
  0
VISUALSTYLE
  5
7C1
102
{ACAD_REACTORS
330
7C0
102
}
330
7C0
100
AcDbVisualStyle
  2
Flat
 70
     0
177
     3
291
     1
 70
    58
 90
        2
176
     1
 90
        1
176
     1
 90
        1
176
     1
 90
        2
176
     1
 40
0.6
176
     1
 40
30.0
176
     1
 62
     7
420
 16777215
176
     1
 90
        0
176
     1
 90
        0
176
     1
 62
     7
176
     1
 62
   257
176
     1
 90
        1
176
     1
 90
        1
176
     1
 40
1.0
176
     1
 90
        8
176
     1
 62
     7
176
     1
 40
1.0
176
     1
 90
        1
176
     1
 90
        6
176
     1
 90
        2
176
     1
 62
     7
176
     1
 90
        5
176
     1
 90
        0
176
     1
 90
        0
176
     1
290
     0
176
     1
 90
       13
176
     1
 40
0.0
176
     1
 90
        0
176
     1
290
     0
176
     1
290
     1
176
     1
290
     1
176
     1
290
     0
176
     1
290
     0
176
     1
290
     0
176
     1
290
     0
176
     1
290
     0
176
     1
290
     0
176
     1
 90
       50
176
     1
 40
0.0
176
     1
 40
1.0
176
     1
 90
        0
176
     1
 62
   178
420
        0
176
     1
 90
       50
176
     1
 90
        3
176
     1
 62
     5
420
      255
176
     1
290
     0
176
     1
 90
       50
176
     1
 90
       50
176
     1
 90
       50
176
     1
290
     0
176
     1
 90
       50
176
     1
 62
   256
176
     0
 40
1.0
176
     0
 90
        2
176
     1
  1
strokes_ogs.tif
176
     1
290
     0
176
     1
 40
1.0
176
     1
 40
1.0
176
     1
  0
VISUALSTYLE
  5
7C2
102
{ACAD_REACTORS
330
7C0
102
}
330
7C0
100
AcDbVisualStyle
  2
FlatWithEdges
 70
     1
177
     3
291
     1
 70
    58
 90
        2
176
     1
 90
        1
176
     1
 90
        1
176
     1
 90
        2
176
     1
 40
0.6
176
     1
 40
30.0
176
     1
 62
     7
420
 16777215
176
     1
 90
        1
176
     1
 90
        0
176
     1
 62
     7
176
     1
 62
   257
176
     1
 90
        1
176
     1
 90
        1
176
     1
 40
1.0
176
     1
 90
        0
176
     1
 62
   257
176
     1
 40
1.0
176
     1
 90
        1
176
     1
 90
        6
176
     1
 90
        2
176
     1
 62
     7
176
     1
 90
        5
176
     1
 90
        0
176
     1
 90
        0
176
     1
290
     0
176
     1
 90
       13
176
     1
 40
0.0
176
     1
 90
        0
176
     1
290
     0
176
     1
290
     1
176
     1
290
     1
176
     1
290
     0
176
     1
290
     0
176
     1
290
     0
176
     1
290
     0
176
     1
290
     0
176
     1
290
     0
176
     1
 90
       50
176
     1
 40
0.0
176
     1
 40
1.0
176
     1
 90
        0
176
     1
 62
   178
420
        0
176
     1
 90
       50
176
     1
 90
        3
176
     1
 62
     5
420
      255
176
     1
290
     0
176
     1
 90
       50
176
     1
 90
       50
176
     1
 90
       50
176
     1
290
     0
176
     1
 90
       50
176
     1
 62
   256
176
     0
 40
1.0
176
     0
 90
        2
176
     1
  1
strokes_ogs.tif
176
     1
290
     0
176
     1
 40
1.0
176
     1
 40
1.0
176
     1
  0
VISUALSTYLE
  5
7C3
102
{ACAD_REACTORS
330
7C0
102
}
330
7C0
100
AcDbVisualStyle
  2
Gouraud
 70
     2
177
     3
291
     1
 70
    58
 90
        2
176
     1
 90
        2
176
     1
 90
        1
176
     1
 90
        2
176
     1
 40
0.6
176
     1
 40
30.0
176
     1
 62
     7
420
 16777215
176
     1
 90
        0
176
     1
 90
        0
176
     1
 62
     7
176
     1
 62
   257
176
     1
 90
        1
176
     1
 90
        1
176
     1
 40
1.0
176
     1
 90
        0
176
     1
 62
     7
176
     1
 40
1.0
176
     1
 90
        1
176
     1
 90
        6
176
     1
 90
        2
176
     1
 62
     7
176
     1
 90
        5
176
     1
 90
        0
176
     1
 90
        0
176
     1
290
     0
176
     1
 90
       13
176
     1
 40
0.0
176
     1
 90
        0
176
     1
290
     0
176
     1
290
     1
176
     1
290
     1
176
     1
290
     0
176
     1
290
     0
176
     1
290
     0
176
     1
290
     0
176
     1
290
     0
176
     1
290
     0
176
     1
 90
       50
176
     1
 40
0.0
176
     1
 40
1.0
176
     1
 90
        0
176
     1
 62
   178
420
        0
176
     1
 90
       50
176
     1
 90
        3
176
     1
 62
     5
420
      255
176
     1
290
     0
176
     1
 90
       50
176
     1
 90
       50
176
     1
 90
       50
176
     1
290
     0
176
     1
 90
       50
176
     1
 62
   256
176
     0
 40
1.0
176
     0
 90
        2
176
     1
  1
strokes_ogs.tif
176
     1
290
     0
176
     1
 40
1.0
176
     1
 40
1.0
176
     1
  0
VISUALSTYLE
  5
7C4
102
{ACAD_REACTORS
330
7C0
102
}
330
7C0
100
AcDbVisualStyle
  2
GouraudWithEdges
 70
     3
177
     3
291
     1
 70
    58
 90
        2
176
     1
 90
        2
176
     1
 90
        1
176
     1
 90
        2
176
     1
 40
0.6
176
     1
 40
30.0
176
     1
 62
     7
420
 16777215
176
     1
 90
        1
176
     1
 90
        0
176
     1
 62
     7
176
     1
 62
   257
176
     1
 90
        1
176
     1
 90
        1
176
     1
 40
1.0
176
     1
 90
        0
176
     1
 62
   257
176
     1
 40
1.0
176
     1
 90
        1
176
     1
 90
        6
176
     1
 90
        2
176
     1
 62
     7
176
     1
 90
        5
176
     1
 90
        0
176
     1
 90
        0
176
     1
290
     0
176
     1
 90
       13
176
     1
 40
0.0
176
     1
 90
        0
176
     1
290
     0
176
     1
290
     1
176
     1
290
     1
176
     1
290
     0
176
     1
290
     0
176
     1
290
     0
176
     1
290
     0
176
     1
290
     0
176
     1
290
     0
176
     1
 90
       50
176
     1
 40
0.0
176
     1
 40
1.0
176
     1
 90
        0
176
     1
 62
   178
420
        0
176
     1
 90
       50
176
     1
 90
        3
176
     1
 62
     5
420
      255
176
     1
290
     0
176
     1
 90
       50
176
     1
 90
       50
176
     1
 90
       50
176
     1
290
     0
176
     1
 90
       50
176
     1
 62
   256
176
     0
 40
1.0
176
     0
 90
        2
176
     1
  1
strokes_ogs.tif
176
     1
290
     0
176
     1
 40
1.0
176
     1
 40
1.0
176
     1
  0
VISUALSTYLE
  5
7C7
102
{ACAD_REACTORS
330
7C0
102
}
330
7C0
100
AcDbVisualStyle
  2
Hidden
 70
     6
177
     3
291
     0
 70
    58
 90
        1
176
     1
 90
        2
176
     1
 90
        2
176
     1
 90
        0
176
     1
 40
0.6
176
     1
 40
30.0
176
     1
 62
     7
420
 16777215
176
     1
 90
        2
176
     1
 90
        2
176
     1
 62
     7
176
     1
 62
   257
176
     1
 90
        2
176
     1
 90
        1
176
     1
 40
40.0
176
     1
 90
        0
176
     1
 62
   257
176
     1
 40
1.0
176
     1
 90
        1
176
     1
 90
        6
176
     1
 90
        2
176
     1
 62
     7
176
     1
 90
        3
176
     1
 90
        0
176
     1
 90
        0
176
     1
290
     0
176
     1
 90
        1
176
     1
 40
0.0
176
     1
 90
        0
176
     1
290
     0
176
     1
290
     1
176
     1
290
     1
176
     1
290
     0
176
     1
290
     0
176
     1
290
     0
176
     1
290
     0
176
     1
290
     0
176
     1
290
     0
176
     1
 90
       50
176
     1
 40
0.0
176
     1
 40
1.0
176
     1
 90
        0
176
     1
 62
   178
420
        0
176
     1
 90
       50
176
     1
 90
        3
176
     1
 62
     5
420
      255
176
     1
290
     0
176
     1
 90
       50
176
     1
 90
       50
176
     1
 90
       50
176
     1
290
     0
176
     1
 90
       50
176
     1
 62
   256
176
     0
 40
1.0
176
     0
 90
        2
176
     1
  1
strokes_ogs.tif
176
     1
290
     0
176
     1
 40
1.0
176
     1
 40
1.0
176
     1
  0
VISUALSTYLE
  5
7D1
102
{ACAD_REACTORS
330
7C0
102
}
330
7C0
100
AcDbVisualStyle
  2
JitterOff
 70
    20
177
     3
291
     1
 70
    58
 90
        2
176
     0
 90
        2
176
     0
 90
        0
176
     0
 90
        0
176
     0
 40
0.6
176
     0
 40
30.0
176
     0
 62
     7
420
 16777215
176
     0
 90
        1
176
     0
 90
        4
176
     0
 62
     7
176
     0
 62
   257
176
     0
 90
        1
176
     0
 90
        1
176
     0
 40
1.0
176
     0
 90
       10
176
     2
 62
     7
176
     0
 40
1.0
176
     0
 90
        1
176
     0
 90
        6
176
     0
 90
        2
176
     0
 62
     7
176
     0
 90
        5
176
     0
 90
        0
176
     0
 90
        0
176
     0
290
     0
176
     0
 90
        1
176
     0
 40
0.0
176
     0
 90
        0
176
     0
290
     0
176
     0
290
     1
176
     0
290
     1
176
     0
290
     0
176
     0
290
     0
176
     0
290
     0
176
     0
290
     0
176
     0
290
     0
176
     0
290
     0
176
     0
 90
       50
176
     0
 40
0.0
176
     0
 40
1.0
176
     0
 90
        0
176
     0
 62
   178
420
        0
176
     0
 90
       50
176
     0
 90
        3
176
     0
 62
     5
420
      255
176
     0
290
     0
176
     0
 90
       50
176
     0
 90
       50
176
     0
 90
       50
176
     0
290
     0
176
     0
 90
       50
176
     0
 62
   256
176
     0
 40
1.0
176
     0
 90
        2
176
     0
  1
strokes_ogs.tif
176
     0
290
     0
176
     0
 40
1.0
176
     0
 40
1.0
176
     0
  0
VISUALSTYLE
  5
7CE
102
{ACAD_REACTORS
330
7C0
102
}
330
7C0
100
AcDbVisualStyle
  2
Linepattern
 70
    14
177
     3
291
     1
 70
    58
 90
        2
176
     1
 90
        2
176
     1
 90
        0
176
     1
 90
        0
176
     1
 40
0.6
176
     1
 40
30.0
176
     1
 62
     7
420
 16777215
176
     1
 90
        1
176
     1
 90
        4
176
     1
 62
     7
176
     1
 62
   257
176
     1
 90
        7
176
     1
 90
        7
176
     1
 40
1.0
176
     1
 90
        8
176
     1
 62
     7
176
     1
 40
1.0
176
     1
 90
        1
176
     1
 90
        6
176
     1
 90
        2
176
     1
 62
     7
176
     1
 90
        5
176
     1
 90
        0
176
     1
 90
        0
176
     1
290
     0
176
     1
 90
        1
176
     1
 40
0.0
176
     1
 90
        0
176
     1
290
     0
176
     1
290
     1
176
     1
290
     1
176
     1
290
     0
176
     1
290
     0
176
     1
290
     0
176
     1
290
     0
176
     1
290
     0
176
     1
290
     0
176
     1
 90
       50
176
     1
 40
0.0
176
     1
 40
1.0
176
     1
 90
        0
176
     1
 62
   178
420
        0
176
     1
 90
       50
176
     1
 90
        3
176
     1
 62
     5
420
      255
176
     1
290
     0
176
     1
 90
       50
176
     1
 90
       50
176
     1
 90
       50
176
     1
290
     0
176
     1
 90
       50
176
     1
 62
   256
176
     0
 40
1.0
176
     0
 90
        2
176
     1
  1
strokes_ogs.tif
176
     1
290
     0
176
     1
 40
1.0
176
     1
 40
1.0
176
     1
  0
VISUALSTYLE
  5
7D2
102
{ACAD_REACTORS
330
7C0
102
}
330
7C0
100
AcDbVisualStyle
  2
OverhangOff
 70
    21
177
     3
291
     1
 70
    58
 90
        2
176
     0
 90
        2
176
     0
 90
        0
176
     0
 90
        0
176
     0
 40
0.6
176
     0
 40
30.0
176
     0
 62
     7
420
 16777215
176
     0
 90
        1
176
     0
 90
        4
176
     0
 62
     7
176
     0
 62
   257
176
     0
 90
        1
176
     0
 90
        1
176
     0
 40
1.0
176
     0
 90
        9
176
     2
 62
     7
176
     0
 40
1.0
176
     0
 90
        1
176
     0
 90
        6
176
     0
 90
        2
176
     0
 62
     7
176
     0
 90
        5
176
     0
 90
        0
176
     0
 90
        0
176
     0
290
     0
176
     0
 90
        1
176
     0
 40
0.0
176
     0
 90
        0
176
     0
290
     0
176
     0
290
     1
176
     0
290
     1
176
     0
290
     0
176
     0
290
     0
176
     0
290
     0
176
     0
290
     0
176
     0
290
     0
176
     0
290
     0
176
     0
 90
       50
176
     0
 40
0.0
176
     0
 40
1.0
176
     0
 90
        0
176
     0
 62
   178
420
        0
176
     0
 90
       50
176
     0
 90
        3
176
     0
 62
     5
420
      255
176
     0
290
     0
176
     0
 90
       50
176
     0
 90
       50
176
     0
 90
       50
176
     0
290
     0
176
     0
 90
       50
176
     0
 62
   256
176
     0
 40
1.0
176
     0
 90
        2
176
     0
  1
strokes_ogs.tif
176
     0
290
     0
176
     0
 40
1.0
176
     0
 40
1.0
176
     0
  0
VISUALSTYLE
  5
7C9
102
{ACAD_REACTORS
330
7C0
102
}
330
7C0
100
AcDbVisualStyle
  2
Realistic
 70
     8
177
     3
291
     0
 70
    58
 90
        2
176
     1
 90
        3
176
     1
 90
        0
176
     1
 90
        2
176
     1
 40
0.6
176
     1
 40
30.0
176
     1
 62
     7
420
 16777215
176
     1
 90
        0
176
     1
 90
        0
176
     1
 62
     7
176
     1
 62
   257
176
     1
 90
        1
176
     1
 90
        1
176
     1
 40
1.0
176
     1
 90
        8
176
     1
 62
   257
176
     1
 40
1.0
176
     1
 90
        1
176
     1
 90
        6
176
     1
 90
        2
176
     1
 62
     7
176
     1
 90
        3
176
     1
 90
        0
176
     1
 90
        0
176
     1
290
     0
176
     1
 90
       13
176
     1
 40
0.0
176
     1
 90
        0
176
     1
290
     0
176
     1
290
     1
176
     1
290
     1
176
     1
290
     0
176
     1
290
     0
176
     1
290
     0
176
     1
290
     0
176
     1
290
     0
176
     1
290
     0
176
     1
 90
       50
176
     1
 40
0.0
176
     1
 40
1.0
176
     1
 90
        0
176
     1
 62
   178
420
        0
176
     1
 90
       50
176
     1
 90
        3
176
     1
 62
     5
420
      255
176
     1
290
     0
176
     1
 90
       50
176
     1
 90
       50
176
     1
 90
       50
176
     1
290
     0
176
     1
 90
       50
176
     1
 62
   256
176
     0
 40
1.0
176
     0
 90
        2
176
     1
  1
strokes_ogs.tif
176
     1
290
     0
176
     1
 40
1.0
176
     1
 40
1.0
176
     1
  0
VISUALSTYLE
  5
7D8
102
{ACAD_REACTORS
330
7C0
102
}
330
7C0
100
AcDbVisualStyle
  2
Shaded
 70
    27
177
     3
291
     0
 70
    58
 90
        2
176
     1
 90
        2
176
     1
 90
        1
176
     1
 90
        2
176
     1
 40
0.6
176
     1
 40
30.0
176
     1
 62
     7
420
 16777215
176
     1
 90
        0
176
     1
 90
        4
176
     1
 62
     7
176
     1
 62
   257
176
     1
 90
        1
176
     1
 90
        1
176
     1
 40
1.0
176
     1
 90
        8
176
     1
 62
   257
176
     1
 40
1.0
176
     1
 90
        1
176
     1
 90
        6
176
     1
 90
        2
176
     1
 62
     8
420
  7895160
176
     1
 90
        3
176
     1
 90
        0
176
     1
 90
        0
176
     1
290
     0
176
     1
 90
        5
176
     1
 40
0.0
176
     1
 90
        0
176
     1
290
     0
176
     1
290
     1
176
     1
290
     1
176
     1
290
     0
176
     1
290
     0
176
     1
290
     0
176
     1
290
     0
176
     1
290
     0
176
     1
290
     0
176
     1
 90
       50
176
     1
 40
0.0
176
     1
 40
1.0
176
     1
 90
        0
176
     1
 62
   178
420
        0
176
     1
 90
       50
176
     1
 90
        3
176
     1
 62
     5
420
      255
176
     1
290
     0
176
     1
 90
       50
176
     1
 90
       50
176
     1
 90
       50
176
     1
290
     0
176
     1
 90
       50
176
     1
 62
   256
176
     0
 40
1.0
176
     0
 90
        2
176
     1
  1
strokes_ogs.tif
176
     1
290
     0
176
     1
 40
1.0
176
     1
 40
1.0
176
     1
  0
VISUALSTYLE
  5
7D7
102
{ACAD_REACTORS
330
7C0
102
}
330
7C0
100
AcDbVisualStyle
  2
Shaded with edges
 70
    26
177
     3
291
     0
 70
    58
 90
        2
176
     1
 90
        2
176
     1
 90
        1
176
     1
 90
        2
176
     1
 40
0.6
176
     1
 40
30.0
176
     1
 62
     7
420
 16777215
176
     1
 90
        1
176
     1
 90
       10
176
     1
 62
     7
176
     1
 62
   257
176
     1
 90
        2
176
     1
 90
        1
176
     1
 40
1.0
176
     1
 90
        8
176
     1
 62
   257
176
     1
 40
1.0
176
     1
 90
        1
176
     1
 90
        6
176
     1
 90
        2
176
     1
 62
     7
176
     1
 90
        3
176
     1
 90
        0
176
     1
 90
        0
176
     1
290
     0
176
     1
 90
        5
176
     1
 40
0.0
176
     1
 90
        0
176
     1
290
     0
176
     1
290
     1
176
     1
290
     1
176
     1
290
     0
176
     1
290
     0
176
     1
290
     0
176
     1
290
     0
176
     1
290
     0
176
     1
290
     0
176
     1
 90
       50
176
     1
 40
0.0
176
     1
 40
1.0
176
     1
 90
        0
176
     1
 62
   178
420
        0
176
     1
 90
       50
176
     1
 90
        3
176
     1
 62
     5
420
      255
176
     1
290
     0
176
     1
 90
       50
176
     1
 90
       50
176
     1
 90
       50
176
     1
290
     0
176
     1
 90
       50
176
     1
 62
   256
176
     0
 40
1.0
176
     0
 90
        2
176
     1
  1
strokes_ogs.tif
176
     1
290
     0
176
     1
 40
1.0
176
     1
 40
1.0
176
     1
  0
VISUALSTYLE
  5
7D4
102
{ACAD_REACTORS
330
7C0
102
}
330
7C0
100
AcDbVisualStyle
  2
Shades of Gray
 70
    23
177
     3
291
     0
 70
    58
 90
        2
176
     1
 90
        2
176
     1
 90
        3
176
     1
 90
        0
176
     1
 40
0.6
176
     1
 40
30.0
176
     1
 62
     7
420
 16777215
176
     1
 90
        2
176
     1
 90
        2
176
     1
 62
     7
176
     1
 62
     7
176
     1
 90
        1
176
     1
 90
        1
176
     1
 40
40.0
176
     1
 90
        8
176
     1
 62
     7
176
     1
 40
1.0
176
     1
 90
        1
176
     1
 90
        6
176
     1
 90
        2
176
     1
 62
     7
176
     1
 90
        3
176
     1
 90
        0
176
     1
 90
        0
176
     1
290
     0
176
     1
 90
        1
176
     1
 40
0.0
176
     1
 90
        0
176
     1
290
     0
176
     1
290
     1
176
     1
290
     1
176
     1
290
     0
176
     1
290
     0
176
     1
290
     0
176
     1
290
     0
176
     1
290
     0
176
     1
290
     0
176
     1
 90
       50
176
     1
 40
0.0
176
     1
 40
1.0
176
     1
 90
        0
176
     1
 62
   178
420
        0
176
     1
 90
       50
176
     1
 90
        3
176
     1
 62
     5
420
      255
176
     1
290
     0
176
     1
 90
       50
176
     1
 90
       50
176
     1
 90
       50
176
     1
290
     0
176
     1
 90
       50
176
     1
 62
   256
176
     0
 40
1.0
176
     0
 90
        2
176
     1
  1
strokes_ogs.tif
176
     1
290
     0
176
     1
 40
1.0
176
     1
 40
1.0
176
     1
  0
VISUALSTYLE
  5
7D5
102
{ACAD_REACTORS
330
7C0
102
}
330
7C0
100
AcDbVisualStyle
  2
Sketchy
 70
    24
177
     3
291
     0
 70
    58
 90
        1
176
     1
 90
        2
176
     1
 90
        2
176
     1
 90
        0
176
     1
 40
0.6
176
     1
 40
30.0
176
     1
 62
     7
420
 16777215
176
     1
 90
        2
176
     1
 90
        2
176
     1
 62
     7
176
     1
 62
     7
176
     1
 90
        1
176
     1
 90
        1
176
     1
 40
40.0
176
     1
 90
       11
176
     1
 62
     7
176
     1
 40
1.0
176
     1
 90
        1
176
     1
 90
        6
176
     1
 90
        2
176
     1
 62
     7
176
     1
 90
        6
176
     1
 90
        0
176
     1
 90
        0
176
     1
290
     0
176
     1
 90
        1
176
     1
 40
0.0
176
     1
 90
        0
176
     1
290
     0
176
     1
290
     1
176
     1
290
     1
176
     1
290
     0
176
     1
290
     0
176
     1
290
     0
176
     1
290
     0
176
     1
290
     0
176
     1
290
     0
176
     1
 90
       50
176
     1
 40
0.0
176
     1
 40
1.0
176
     1
 90
        0
176
     1
 62
   178
420
        0
176
     1
 90
       50
176
     1
 90
        3
176
     1
 62
     5
420
      255
176
     1
290
     0
176
     1
 90
       50
176
     1
 90
       50
176
     1
 90
       50
176
     1
290
     0
176
     1
 90
       50
176
     1
 62
   256
176
     0
 40
1.0
176
     0
 90
        2
176
     1
  1
strokes_ogs.tif
176
     1
290
     0
176
     1
 40
1.0
176
     1
 40
1.0
176
     1
  0
VISUALSTYLE
  5
7CD
102
{ACAD_REACTORS
330
7C0
102
}
330
7C0
100
AcDbVisualStyle
  2
Thicken
 70
    13
177
     3
291
     1
 70
    58
 90
        2
176
     1
 90
        2
176
     1
 90
        0
176
     1
 90
        0
176
     1
 40
0.6
176
     1
 40
30.0
176
     1
 62
     7
420
 16777215
176
     1
 90
        1
176
     1
 90
        4
176
     1
 62
     7
176
     1
 62
   257
176
     1
 90
        1
176
     1
 90
        1
176
     1
 40
1.0
176
     1
 90
       12
176
     1
 62
     7
176
     1
 40
1.0
176
     1
 90
        1
176
     1
 90
        6
176
     1
 90
        2
176
     1
 62
     7
176
     1
 90
        5
176
     1
 90
        0
176
     1
 90
        0
176
     1
290
     0
176
     1
 90
        1
176
     1
 40
0.0
176
     1
 90
        0
176
     1
290
     0
176
     1
290
     1
176
     1
290
     1
176
     1
290
     0
176
     1
290
     0
176
     1
290
     0
176
     1
290
     0
176
     1
290
     0
176
     1
290
     0
176
     1
 90
       50
176
     1
 40
0.0
176
     1
 40
1.0
176
     1
 90
        0
176
     1
 62
   178
420
        0
176
     1
 90
       50
176
     1
 90
        3
176
     1
 62
     5
420
      255
176
     1
290
     0
176
     1
 90
       50
176
     1
 90
       50
176
     1
 90
       50
176
     1
290
     0
176
     1
 90
       50
176
     1
 62
   256
176
     0
 40
1.0
176
     0
 90
        2
176
     1
  1
strokes_ogs.tif
176
     1
290
     0
176
     1
 40
1.0
176
     1
 40
1.0
176
     1
  0
VISUALSTYLE
  5
7C6
102
{ACAD_REACTORS
330
7C0
102
}
330
7C0
100
AcDbVisualStyle
  2
Wireframe
 70
     5
177
     3
291
     0
 70
    58
 90
        0
176
     1
 90
        2
176
     1
 90
        0
176
     1
 90
        0
176
     1
 40
0.6
176
     1
 40
30.0
176
     1
 62
     7
420
 16777215
176
     1
 90
        1
176
     1
 90
        4
176
     1
 62
     7
176
     1
 62
   257
176
     1
 90
        1
176
     1
 90
        1
176
     1
 40
1.0
176
     1
 90
        0
176
     1
 62
   257
176
     1
 40
1.0
176
     1
 90
        1
176
     1
 90
        6
176
     1
 90
        2
176
     1
 62
     7
176
     1
 90
        3
176
     1
 90
        0
176
     1
 90
        0
176
     1
290
     0
176
     1
 90
        1
176
     1
 40
0.0
176
     1
 90
        0
176
     1
290
     0
176
     1
290
     1
176
     1
290
     1
176
     1
290
     0
176
     1
290
     0
176
     1
290
     0
176
     1
290
     0
176
     1
290
     0
176
     1
290
     0
176
     1
 90
       50
176
     1
 40
0.0
176
     1
 40
1.0
176
     1
 90
        0
176
     1
 62
   178
420
        0
176
     1
 90
       50
176
     1
 90
        3
176
     1
 62
     5
420
      255
176
     1
290
     0
176
     1
 90
       50
176
     1
 90
       50
176
     1
 90
       50
176
     1
290
     0
176
     1
 90
       50
176
     1
 62
   256
176
     0
 40
1.0
176
     0
 90
        2
176
     1
  1
strokes_ogs.tif
176
     1
290
     0
176
     1
 40
1.0
176
     1
 40
1.0
176
     1
  0
VISUALSTYLE
  5
7D6
102
{ACAD_REACTORS
330
7C0
102
}
330
7C0
100
AcDbVisualStyle
  2
X-Ray
 70
    25
177
     3
291
     0
 70
    58
 90
        2
176
     1
 90
        2
176
     1
 90
        1
176
     1
 90
        1
176
     1
 40
0.5
176
     1
 40
30.0
176
     1
 62
     7
420
 16777215
176
     1
 90
        1
176
     1
 90
        0
176
     1
 62
     7
176
     1
 62
   257
176
     1
 90
        1
176
     1
 90
        1
176
     1
 40
1.0
176
     1
 90
        8
176
     1
 62
     7
176
     1
 40
1.0
176
     1
 90
        1
176
     1
 90
        6
176
     1
 90
        2
176
     1
 62
     7
176
     1
 90
        3
176
     1
 90
        0
176
     1
 90
        0
176
     1
290
     0
176
     1
 90
       13
176
     1
 40
0.0
176
     1
 90
        0
176
     1
290
     0
176
     1
290
     1
176
     1
290
     1
176
     1
290
     0
176
     1
290
     0
176
     1
290
     0
176
     1
290
     0
176
     1
290
     0
176
     1
290
     0
176
     1
 90
       50
176
     1
 40
0.0
176
     1
 40
1.0
176
     1
 90
        0
176
     1
 62
   178
420
        0
176
     1
 90
       50
176
     1
 90
        3
176
     1
 62
     5
420
      255
176
     1
290
     0
176
     1
 90
       50
176
     1
 90
       50
176
     1
 90
       50
176
     1
290
     0
176
     1
 90
       50
176
     1
 62
   256
176
     0
 40
1.0
176
     0
 90
        2
176
     1
  1
strokes_ogs.tif
176
     1
290
     0
176
     1
 40
1.0
176
     1
 40
1.0
176
     1
  0
DICTIONARYVAR
  5
89D
102
{ACAD_REACTORS
330
89C
102
}
330
89C
100
DictionaryVariables
280
     0
  1
1:1
  0
DICTIONARYVAR
  5
8A2
102
{ACAD_REACTORS
330
89C
102
}
330
89C
100
DictionaryVariables
280
     0
  1
Standard
  0
DICTIONARYVAR
  5
8A1
102
{ACAD_REACTORS
330
89C
102
}
330
89C
100
DictionaryVariables
280
     0
  1
Standard
  0
XRECORD
  5
807
102
{ACAD_REACTORS
330
805
102
}
330
805
100
AcDbXrecord
280
     1
1000
#ffffff
  0
XRECORD
  5
808
102
{ACAD_REACTORS
330
805
102
}
330
805
100
AcDbXrecord
280
     1
1000
FullColor
  0
XRECORD
  5
809
102
{ACAD_REACTORS
330
805
102
}
330
805
100
AcDbXrecord
280
     1
 90
        0
  0
XRECORD
  5
80A
102
{ACAD_REACTORS
330
805
102
}
330
805
100
AcDbXrecord
280
     1
 90
        0
  0
XRECORD
  5
80B
102
{ACAD_REACTORS
330
805
102
}
330
805
100
AcDbXrecord
280
     1
 90
       46
  0
XRECORD
  5
80C
102
{ACAD_REACTORS
330
805
102
}
330
805
100
AcDbXrecord
280
     1
1000
Standard
  0
XRECORD
  5
80D
102
{ACAD_REACTORS
330
805
102
}
330
805
100
AcDbXrecord
280
     1
1000
#000000
  0
XRECORD
  5
80E
102
{ACAD_REACTORS
330
805
102
}
330
805
100
AcDbXrecord
280
     1
290
     1
  0
XRECORD
  5
80F
102
{ACAD_REACTORS
330
805
102
}
330
805
100
AcDbXrecord
280
     1
 90
        2
  0
XRECORD
  5
810
102
{ACAD_REACTORS
330
805
102
}
330
805
100
AcDbXrecord
280
     1
 90
        4
  0
XRECORD
  5
811
102
{ACAD_REACTORS
330
805
102
}
330
805
100
AcDbXrecord
280
     1
290
     1
  0
XRECORD
  5
812
102
{ACAD_REACTORS
330
805
102
}
330
805
100
AcDbXrecord
280
     1
290
     1
  0
XRECORD
  5
813
102
{ACAD_REACTORS
330
805
102
}
330
805
100
AcDbXrecord
280
     1
290
     1
  0
XRECORD
  5
814
102
{ACAD_REACTORS
330
805
102
}
330
805
100
AcDbXrecord
280
     1
290
     1
  0
XRECORD
  5
815
102
{ACAD_REACTORS
330
805
102
}
330
805
100
AcDbXrecord
280
     1
1000
auto
  0
XRECORD
  5
816
102
{ACAD_REACTORS
330
805
102
}
330
805
100
AcDbXrecord
280
     1
1000
auto
  0
XRECORD
  5
817
102
{ACAD_REACTORS
330
805
102
}
330
805
100
AcDbXrecord
280
     1
1000
auto
  0
XRECORD
  5
818
102
{ACAD_REACTORS
330
805
102
}
330
805
100
AcDbXrecord
280
     1
1000
auto
  0
XRECORD
  5
819
102
{ACAD_REACTORS
330
805
102
}
330
805
100
AcDbXrecord
280
     1
1000
auto
  0
XRECORD
  5
81A
102
{ACAD_REACTORS
330
805
102
}
330
805
100
AcDbXrecord
280
     1
1000
auto
  0
XRECORD
  5
81B
102
{ACAD_REACTORS
330
805
102
}
330
805
100
AcDbXrecord
280
     1
1000
auto
  0
XRECORD
  5
81C
102
{ACAD_REACTORS
330
805
102
}
330
805
100
AcDbXrecord
280
     1
1000
auto
  0
XRECORD
  5
81D
102
{ACAD_REACTORS
330
805
102
}
330
805
100
AcDbXrecord
280
     1
290
     0
  0
XRECORD
  5
81E
102
{ACAD_REACTORS
330
805
102
}
330
805
100
AcDbXrecord
280
     1
290
     0
  0
XRECORD
  5
81F
102
{ACAD_REACTORS
330
805
102
}
330
805
100
AcDbXrecord
280
     1
290
     0
  0
XRECORD
  5
820
102
{ACAD_REACTORS
330
805
102
}
330
805
100
AcDbXrecord
280
     1
290
     0
  0
XRECORD
  5
821
102
{ACAD_REACTORS
330
805
102
}
330
805
100
AcDbXrecord
280
     1
 90
    65537
  0
XRECORD
  5
822
102
{ACAD_REACTORS
330
805
102
}
330
805
100
AcDbXrecord
280
     1
 90
    65537
  0
XRECORD
  5
823
102
{ACAD_REACTORS
330
805
102
}
330
805
100
AcDbXrecord
280
     1
 90
    65537
  0
XRECORD
  5
824
102
{ACAD_REACTORS
330
805
102
}
330
805
100
AcDbXrecord
280
     1
 90
    65537
  0
XRECORD
  5
825
102
{ACAD_REACTORS
330
805
102
}
330
805
100
AcDbXrecord
280
     1
1000
auto
  0
XRECORD
  5
826
102
{ACAD_REACTORS
330
805
102
}
330
805
100
AcDbXrecord
280
     1
1000
auto
  0
XRECORD
  5
827
102
{ACAD_REACTORS
330
805
102
}
330
805
100
AcDbXrecord
280
     1
1000
auto
  0
XRECORD
  5
828
102
{ACAD_REACTORS
330
805
102
}
330
805
100
AcDbXrecord
280
     1
1000
auto
  0
XRECORD
  5
829
102
{ACAD_REACTORS
330
805
102
}
330
805
100
AcDbXrecord
280
     1
1000
auto
  0
XRECORD
  5
82A
102
{ACAD_REACTORS
330
805
102
}
330
805
100
AcDbXrecord
280
     1
1000
auto
  0
XRECORD
  5
82B
102
{ACAD_REACTORS
330
805
102
}
330
805
100
AcDbXrecord
280
     1
1000
auto
  0
XRECORD
  5
82C
102
{ACAD_REACTORS
330
805
102
}
330
805
100
AcDbXrecord
280
     1
1000
auto
  0
XRECORD
  5
82D
102
{ACAD_REACTORS
330
805
102
}
330
805
100
AcDbXrecord
280
     1
 90
        1
  0
XRECORD
  5
82E
102
{ACAD_REACTORS
330
805
102
}
330
805
100
AcDbXrecord
280
     1
 40
0.5
  0
XRECORD
  5
82F
102
{ACAD_REACTORS
330
805
102
}
330
805
100
AcDbXrecord
280
     1
 40
0.5
  0
XRECORD
  5
830
102
{ACAD_REACTORS
330
805
102
}
330
805
100
AcDbXrecord
280
     1
 40
0.5
  0
XRECORD
  5
831
102
{ACAD_REACTORS
330
805
102
}
330
805
100
AcDbXrecord
280
     1
 40
0.5
  0
XRECORD
  5
832
102
{ACAD_REACTORS
330
805
102
}
330
805
100
AcDbXrecord
280
     1
290
     0
  0
XRECORD
  5
833
102
{ACAD_REACTORS
330
805
102
}
330
805
100
AcDbXrecord
280
     1
 90
        1
  0
XRECORD
  5
834
102
{ACAD_REACTORS
330
805
102
}
330
805
100
AcDbXrecord
280
     1
 40
0.0
  0
XRECORD
  5
835
102
{ACAD_REACTORS
330
805
102
}
330
805
100
AcDbXrecord
280
     1
 40
0.0
  0
XRECORD
  5
836
102
{ACAD_REACTORS
330
805
102
}
330
805
100
AcDbXrecord
280
     1
1000
Portrait
  0
XRECORD
  5
837
102
{ACAD_REACTORS
330
805
102
}
330
805
100
AcDbXrecord
280
     1
 40
11.0
  0
XRECORD
  5
838
102
{ACAD_REACTORS
330
805
102
}
330
805
100
AcDbXrecord
280
     1
 40
8.5
  0
XRECORD
  5
839
102
{ACAD_REACTORS
330
805
102
}
330
805
100
AcDbXrecord
280
     1
1000
1:1
  0
XRECORD
  5
83A
102
{ACAD_REACTORS
330
805
102
}
330
805
100
AcDbXrecord
280
     1
290
     1
  0
XRECORD
  5
83B
102
{ACAD_REACTORS
330
805
102
}
330
805
100
AcDbXrecord
280
     1
290
     0
  0
XRECORD
  5
83C
102
{ACAD_REACTORS
330
805
102
}
330
805
100
AcDbXrecord
280
     1
1000
Inside
  0
XRECORD
  5
83D
102
{ACAD_REACTORS
330
805
102
}
330
805
100
AcDbXrecord
280
     1
1000
Arial,10,-1,5,50,0,0,0,0,0
  0
XRECORD
  5
83E
102
{ACAD_REACTORS
330
805
102
}
330
805
100
AcDbXrecord
280
     1
1000
TopLeft
  0
XRECORD
  5
83F
102
{ACAD_REACTORS
330
805
102
}
330
805
100
AcDbXrecord
280
     1
1000
3.25.2
  0
XRECORD
  5
840
102
{ACAD_REACTORS
330
805
102
}
330
805
100
AcDbXrecord
280
     1
 90
        1
  0
XRECORD
  5
841
102
{ACAD_REACTORS
330
805
102
}
330
805
100
AcDbXrecord
280
     1
  0
XRECORD
  5
842
102
{ACAD_REACTORS
330
805
102
}
330
805
100
AcDbXrecord
280
     1
 40
242.1251342617006
  0
XRECORD
  5
843
102
{ACAD_REACTORS
330
805
102
}
330
805
100
AcDbXrecord
280
     1
 40
416.4385900274267
  0
DICTIONARY
  5
89E
330
800
100
AcDbDictionary
280
     1
281
     1
  3
ACAD_ROUNDTRIP_2008_TABLESTYLE_CELLSTYLEMAP
360
89F
  0
CELLSTYLEMAP
  5
89F
102
{ACAD_REACTORS
330
89E
102
}
330
89E
100
AcDbCellStyleMap
 90
        3
300
CELLSTYLE
  1
TABLEFORMAT_BEGIN
 90
        5
170
     1
 91
        0
 92
    32768
 62
   257
 93
        1
300
CONTENTFORMAT
  1
CONTENTFORMAT_BEGIN
 90
        0
 91
        0
 92
        4
 93
        0
300

 40
0.0
140
1.0
 94
        5
 62
     0
340
7A8
144
0.25
309
CONTENTFORMAT_END
171
     1
301
MARGIN
  1
CELLMARGIN_BEGIN
 40
0.06
 40
0.06
 40
0.06
 40
0.06
 40
0.06
 40
0.06
309
CELLMARGIN_END
 94
        6
 95
        1
302
GRIDFORMAT
  1
GRIDFORMAT_BEGIN
 90
        0
 91
        1
 62
     0
 92
       -2
340
7AA
 93
        0
 40
0.045
309
GRIDFORMAT_END
 95
        2
302
GRIDFORMAT
  1
GRIDFORMAT_BEGIN
 90
        0
 91
        1
 62
     0
 92
       -2
340
7AA
 93
        0
 40
0.045
309
GRIDFORMAT_END
 95
        4
302
GRIDFORMAT
  1
GRIDFORMAT_BEGIN
 90
        0
 91
        1
 62
     0
 92
       -2
340
7AA
 93
        0
 40
0.045
309
GRIDFORMAT_END
 95
        8
302
GRIDFORMAT
  1
GRIDFORMAT_BEGIN
 90
        0
 91
        1
 62
     0
 92
       -2
340
7AA
 93
        0
 40
0.045
309
GRIDFORMAT_END
 95
       16
302
GRIDFORMAT
  1
GRIDFORMAT_BEGIN
 90
        0
 91
        1
 62
     0
 92
       -2
340
7AA
 93
        0
 40
0.045
309
GRIDFORMAT_END
 95
       32
302
GRIDFORMAT
  1
GRIDFORMAT_BEGIN
 90
        0
 91
        1
 62
     0
 92
       -2
340
7AA
 93
        0
 40
0.045
309
GRIDFORMAT_END
309
TABLEFORMAT_END
  1
CELLSTYLE_BEGIN
 90
        1
 91
        1
300
_TITLE
309
CELLSTYLE_END
300
CELLSTYLE
  1
TABLEFORMAT_BEGIN
 90
        5
170
     1
 91
        0
 92
        0
 62
   257
 93
        1
300
CONTENTFORMAT
  1
CONTENTFORMAT_BEGIN
 90
        0
 91
        0
 92
        4
 93
        0
300

 40
0.0
140
1.0
 94
        5
 62
     0
340
7A8
144
0.18
309
CONTENTFORMAT_END
171
     1
301
MARGIN
  1
CELLMARGIN_BEGIN
 40
0.06
 40
0.06
 40
0.06
 40
0.06
 40
0.06
 40
0.06
309
CELLMARGIN_END
 94
        6
 95
        1
302
GRIDFORMAT
  1
GRIDFORMAT_BEGIN
 90
        0
 91
        1
 62
     0
 92
       -2
340
7AA
 93
        0
 40
0.045
309
GRIDFORMAT_END
 95
        2
302
GRIDFORMAT
  1
GRIDFORMAT_BEGIN
 90
        0
 91
        1
 62
     0
 92
       -2
340
7AA
 93
        0
 40
0.045
309
GRIDFORMAT_END
 95
        4
302
GRIDFORMAT
  1
GRIDFORMAT_BEGIN
 90
        0
 91
        1
 62
     0
 92
       -2
340
7AA
 93
        0
 40
0.045
309
GRIDFORMAT_END
 95
        8
302
GRIDFORMAT
  1
GRIDFORMAT_BEGIN
 90
        0
 91
        1
 62
     0
 92
       -2
340
7AA
 93
        0
 40
0.045
309
GRIDFORMAT_END
 95
       16
302
GRIDFORMAT
  1
GRIDFORMAT_BEGIN
 90
        0
 91
        1
 62
     0
 92
       -2
340
7AA
 93
        0
 40
0.045
309
GRIDFORMAT_END
 95
       32
302
GRIDFORMAT
  1
GRIDFORMAT_BEGIN
 90
        0
 91
        1
 62
     0
 92
       -2
340
7AA
 93
        0
 40
0.045
309
GRIDFORMAT_END
309
TABLEFORMAT_END
  1
CELLSTYLE_BEGIN
 90
        2
 91
        1
300
_HEADER
309
CELLSTYLE_END
300
CELLSTYLE
  1
TABLEFORMAT_BEGIN
 90
        5
170
     1
 91
        0
 92
        0
 62
   257
 93
        1
300
CONTENTFORMAT
  1
CONTENTFORMAT_BEGIN
 90
        0
 91
        0
 92
        4
 93
        0
300

 40
0.0
140
1.0
 94
        2
 62
     0
340
7A8
144
0.18
309
CONTENTFORMAT_END
171
     1
301
MARGIN
  1
CELLMARGIN_BEGIN
 40
0.06
 40
0.06
 40
0.06
 40
0.06
 40
0.06
 40
0.06
309
CELLMARGIN_END
 94
        6
 95
        1
302
GRIDFORMAT
  1
GRIDFORMAT_BEGIN
 90
        0
 91
        1
 62
     0
 92
       -2
340
7AA
 93
        0
 40
0.045
309
GRIDFORMAT_END
 95
        2
302
GRIDFORMAT
  1
GRIDFORMAT_BEGIN
 90
        0
 91
        1
 62
     0
 92
       -2
340
7AA
 93
        0
 40
0.045
309
GRIDFORMAT_END
 95
        4
302
GRIDFORMAT
  1
GRIDFORMAT_BEGIN
 90
        0
 91
        1
 62
     0
 92
       -2
340
7AA
 93
        0
 40
0.045
309
GRIDFORMAT_END
 95
        8
302
GRIDFORMAT
  1
GRIDFORMAT_BEGIN
 90
        0
 91
        1
 62
     0
 92
       -2
340
7AA
 93
        0
 40
0.045
309
GRIDFORMAT_END
 95
       16
302
GRIDFORMAT
  1
GRIDFORMAT_BEGIN
 90
        0
 91
        1
 62
     0
 92
       -2
340
7AA
 93
        0
 40
0.045
309
GRIDFORMAT_END
 95
       32
302
GRIDFORMAT
  1
GRIDFORMAT_BEGIN
 90
        0
 91
        1
 62
     0
 92
       -2
340
7AA
 93
        0
 40
0.045
309
GRIDFORMAT_END
309
TABLEFORMAT_END
  1
CELLSTYLE_BEGIN
 90
        3
 91
        2
300
_DATA
309
CELLSTYLE_END
  0
ENDSEC
  0
EOF
