<?xml version="1.0" encoding="UTF-8" standalone="no"?>
<svg
   xmlns:dc="http://purl.org/dc/elements/1.1/"
   xmlns:cc="http://creativecommons.org/ns#"
   xmlns:rdf="http://www.w3.org/1999/02/22-rdf-syntax-ns#"
   xmlns:svg="http://www.w3.org/2000/svg"
   xmlns="http://www.w3.org/2000/svg"
   id="svg8"
   version="1.1"
   viewBox="0 0 210 297"
   height="297mm"
   width="210mm">
  <defs
     id="defs2">
    <pattern
       id="pattern6098"
       patternTransform="matrix(0.26458333,0,0,0.26458333,66.807291,57.47901)"
       height="52.346457"
       width="135.71429"
       patternUnits="userSpaceOnUse">
      <path
         style="fill:none;fill-rule:evenodd;stroke:#000000;stroke-width:0.37795275;stroke-linecap:butt;stroke-linejoin:miter;stroke-miterlimit:4;stroke-dasharray:none;stroke-opacity:1"
         d="M 0,34.204724 H 135.71429"
         id="path6040" />
      <path
         id="path6042"
         d="M 0,26.645669 H 135.71429"
         style="fill:none;fill-rule:evenodd;stroke:#000000;stroke-width:0.37795275;stroke-linecap:butt;stroke-linejoin:miter;stroke-miterlimit:4;stroke-dasharray:none;stroke-opacity:1" />
      <path
         style="fill:none;fill-rule:evenodd;stroke:#000000;stroke-width:0.37795275;stroke-linecap:butt;stroke-linejoin:miter;stroke-miterlimit:4;stroke-dasharray:none;stroke-opacity:1"
         d="M 0,20.031496 H 135.71429"
         id="path6080" />
      <path
         id="path6082"
         d="M 0,14.362205 H 135.71429"
         style="fill:none;fill-rule:evenodd;stroke:#000000;stroke-width:0.37795275;stroke-linecap:butt;stroke-linejoin:miter;stroke-miterlimit:4;stroke-dasharray:none;stroke-opacity:1" />
      <path
         style="fill:none;fill-rule:evenodd;stroke:#000000;stroke-width:0.37795275;stroke-linecap:butt;stroke-linejoin:miter;stroke-miterlimit:4;stroke-dasharray:none;stroke-opacity:1"
         d="M 0,9.6377953 H 135.71429"
         id="path6084" />
      <path
         id="path6086"
         d="M 0,5.8582677 H 135.71429"
         style="fill:none;fill-rule:evenodd;stroke:#000000;stroke-width:0.37795275;stroke-linecap:butt;stroke-linejoin:miter;stroke-miterlimit:4;stroke-dasharray:none;stroke-opacity:1" />
      <path
         style="fill:none;fill-rule:evenodd;stroke:#000000;stroke-width:0.37795275;stroke-linecap:butt;stroke-linejoin:miter;stroke-miterlimit:4;stroke-dasharray:none;stroke-opacity:1"
         d="M 0,3.0236221 H 135.71429"
         id="path6088" />
      <path
         id="path6090"
         d="M 0,1.1338583 H 135.71429"
         style="fill:none;fill-rule:evenodd;stroke:#000000;stroke-width:0.37795275;stroke-linecap:butt;stroke-linejoin:miter;stroke-miterlimit:4;stroke-dasharray:none;stroke-opacity:1" />
      <path
         style="fill:none;fill-rule:evenodd;stroke:#000000;stroke-width:0.37795275;stroke-linecap:butt;stroke-linejoin:miter;stroke-miterlimit:4;stroke-dasharray:none;stroke-opacity:1"
         d="M 0,0.18897638 H 135.71429"
         id="path6092" />
      <path
         id="path6094"
         d="M 0,42.708661 H 135.71429"
         style="fill:none;fill-rule:evenodd;stroke:#000000;stroke-width:0.37795275;stroke-linecap:butt;stroke-linejoin:miter;stroke-miterlimit:4;stroke-dasharray:none;stroke-opacity:1" />
      <path
         style="fill:none;fill-rule:evenodd;stroke:#000000;stroke-width:0.37795275;stroke-linecap:butt;stroke-linejoin:miter;stroke-miterlimit:4;stroke-dasharray:none;stroke-opacity:1"
         d="M 0,52.15748 H 135.71429"
         id="path6096" />
    </pattern>
  </defs>
  <metadata
     id="metadata5">
    <rdf:RDF>
      <cc:Work
         rdf:about="">
        <dc:format>image/svg+xml</dc:format>
        <dc:type
           rdf:resource="http://purl.org/dc/dcmitype/StillImage" />
        <dc:title></dc:title>
      </cc:Work>
    </rdf:RDF>
  </metadata>
  <g
     id="layer1">
    <circle
       r="19.049999"
       cy="87.601196"
       cx="63.5"
       id="path815"
       style="display:inline;opacity:0.98000004;fill:none;fill-opacity:1;stroke:#f50000;stroke-width:0.1;stroke-linecap:round;stroke-linejoin:round;stroke-miterlimit:4;stroke-dasharray:none;stroke-opacity:1" />
    <g
       id="text821"
       style="font-style:normal;font-variant:normal;font-weight:bold;font-stretch:normal;font-size:4.04759836px;line-height:80.00000119%;font-family:Futura;-inkscape-font-specification:'Futura Bold';text-align:center;letter-spacing:0px;word-spacing:0px;text-anchor:middle;display:inline;fill:#000000;fill-opacity:1;stroke:none;stroke-width:0.10118996px;stroke-linecap:butt;stroke-linejoin:miter;stroke-opacity:1"
       aria-label="MONDAY MOUNTAIN CLUB">
      <path
         id="path966"
         style="text-align:center;text-anchor:middle;stroke-width:0.10118996px"
         d="m 50.389719,93.60394 -0.230302,-0.754935 -1.754619,0.268668 -0.0024,-0.0077 1.475894,-1.182332 -0.09212,-0.301974 -1.893981,-0.188165 -0.0024,-0.0077 1.615257,-0.7255 -0.231484,-0.758806 -2.784443,1.331848 0.230303,0.754935 1.751526,0.151219 -1.3795,1.068291 0.22794,0.747192 z" />
      <path
         id="path968"
         style="text-align:center;text-anchor:middle;stroke-width:0.10118996px"
         d="m 46.068062,88.154536 q 0.01029,0.327694 0.137259,0.631478 0.122801,0.299865 0.344711,0.531825 0.217863,0.232087 0.513465,0.360495 0.291428,0.124489 0.627214,0.113949 0.364104,-0.01143 0.671679,-0.146621 0.30353,-0.135065 0.522972,-0.36873 0.219443,-0.233665 0.335079,-0.549113 0.11159,-0.315322 0.100288,-0.675381 -0.0113,-0.360059 -0.142448,-0.667761 -0.135192,-0.307575 -0.364812,-0.527144 -0.233665,-0.219443 -0.549113,-0.335079 -0.315448,-0.115635 -0.679553,-0.104206 -0.335785,0.01054 -0.618706,0.157106 -0.287093,0.142648 -0.489972,0.387942 -0.206925,0.245421 -0.310551,0.556443 -0.107798,0.307103 -0.09751,0.634797 z m 0.768665,-0.02413 q -0.0055,-0.173961 0.05432,-0.333772 0.05978,-0.15981 0.169371,-0.280688 0.109467,-0.124924 0.257123,-0.194353 0.143483,-0.07335 0.297216,-0.07817 0.194189,-0.0061 0.362218,0.05747 0.167901,0.05952 0.297125,0.176954 0.129096,0.113386 0.202824,0.269006 0.06968,0.155747 0.07514,0.329708 0.0055,0.173961 -0.05432,0.333771 -0.06382,0.159938 -0.185427,0.285243 -0.121731,0.121259 -0.285442,0.195241 -0.163838,0.06994 -0.358027,0.07603 -0.153733,0.0048 -0.301407,-0.05533 -0.1478,-0.0642 -0.264887,-0.182017 -0.121132,-0.117685 -0.190687,-0.269386 -0.06968,-0.155747 -0.07514,-0.329708 z" />
      <path
         id="path970"
         style="text-align:center;text-anchor:middle;stroke-width:0.10118996px"
         d="m 49.220458,85.988676 0.171463,-0.774578 -1.825792,-0.404163 0.0018,-0.0079 2.139849,-1.01458 0.171463,-0.774578 -2.979756,-0.659608 -0.171463,0.774578 1.82184,0.403288 -0.0017,0.0079 -2.135898,1.015455 -0.171463,0.774579 z" />
      <path
         id="path972"
         style="text-align:center;text-anchor:middle;stroke-width:0.10118996px"
         d="m 50.081404,82.523259 0.489991,-1.012945 q 0.135716,-0.280564 0.153428,-0.586736 0.01771,-0.306173 -0.0747,-0.589178 -0.09606,-0.284769 -0.294594,-0.515695 -0.198538,-0.230927 -0.482746,-0.368407 -0.284207,-0.137479 -0.588498,-0.149785 -0.302529,-0.01595 -0.585416,0.08551 -0.282887,0.101462 -0.508289,0.307169 -0.229046,0.203944 -0.366525,0.488151 l -0.48999,1.012945 z m -1.797027,-1.750545 0.08108,-0.16761 q 0.170968,-0.353438 0.479005,-0.469712 0.308037,-0.116274 0.668762,0.05822 0.193115,0.09342 0.312543,0.227623 0.115784,0.132445 0.157643,0.287582 0.04186,0.155137 0.02049,0.320154 -0.02502,0.163255 -0.10433,0.327221 l -0.07755,0.160322 z" />
      <path
         id="path974"
         style="text-align:center;text-anchor:middle;stroke-width:0.10118996px"
         d="m 52.190778,78.003348 0.540583,0.168094 0.518267,-0.668601 -3.11633,-0.961199 -0.530666,0.684596 1.692956,2.797453 0.515787,-0.665402 -0.290128,-0.491197 z m -0.611284,-0.202412 -0.404198,0.521445 -0.566912,-0.854262 0.005,-0.0064 z" />
      <path
         id="path976"
         style="text-align:center;text-anchor:middle;stroke-width:0.10118996px"
         d="m 52.758542,76.066827 0.962971,1.10435 0.597935,-0.521388 -0.962971,-1.104349 -0.194684,-1.93539 -0.716912,0.625134 0.115182,1.000471 -0.975476,-0.250312 -0.716912,0.625134 z" />
      <path
         id="path978"
         style="text-align:center;text-anchor:middle;stroke-width:0.10118996px"
         d="m 56.333122,75.090612 0.73075,-0.298279 -0.427774,-1.722754 0.0075,-0.0031 1.312168,1.36176 0.2923,-0.119312 0.01442,-1.903251 0.0075,-0.0031 0.869971,1.542257 0.734497,-0.299808 -1.580552,-2.651188 -0.73075,0.298279 0.0094,1.758017 -1.1898,-1.276182 -0.723255,0.295219 z" />
      <path
         id="path980"
         style="text-align:center;text-anchor:middle;stroke-width:0.10118996px"
         d="m 61.369109,70.289812 q -0.325435,0.03977 -0.616542,0.193599 -0.28758,0.14932 -0.498603,0.391227 -0.211513,0.237889 -0.312764,0.543858 -0.09772,0.30146 -0.05697,0.63493 0.04419,0.361593 0.206544,0.655736 0.161864,0.290126 0.414351,0.487622 0.252487,0.197496 0.577071,0.284239 0.324094,0.08273 0.68167,0.03903 0.357576,-0.0437 0.65221,-0.202035 0.294143,-0.162355 0.49213,-0.410825 0.197496,-0.252487 0.284239,-0.577071 0.08674,-0.324584 0.04255,-0.686178 -0.04075,-0.33347 -0.212215,-0.602034 -0.167935,-0.273072 -0.430511,-0.453025 -0.263068,-0.18397 -0.582161,-0.25915 -0.315567,-0.07969 -0.641001,-0.03992 z m 0.09329,0.763365 q 0.172762,-0.02111 0.337308,0.02402 0.164547,0.04514 0.294808,0.143392 0.134279,0.09777 0.216729,0.238566 0.08598,0.13629 0.104634,0.288963 0.02357,0.19285 -0.0246,0.365923 -0.04415,0.172582 -0.149463,0.311861 -0.101293,0.138787 -0.249637,0.226237 -0.148835,0.08343 -0.321596,0.104544 -0.172762,0.02111 -0.337308,-0.02402 -0.165038,-0.04915 -0.300789,-0.158972 -0.131735,-0.11031 -0.220166,-0.266689 -0.08441,-0.15687 -0.107982,-0.34972 -0.01866,-0.152673 0.02795,-0.305167 0.05063,-0.152984 0.157409,-0.280209 0.106292,-0.131244 0.251109,-0.214185 0.148835,-0.08343 0.321596,-0.104544 z" />
      <path
         id="path982"
         style="text-align:center;text-anchor:middle;stroke-width:0.10118996px"
         d="m 65.99143,70.43149 -0.179863,1.596799 q -0.02084,0.185019 -0.05233,0.319961 -0.02702,0.131372 -0.09244,0.242125 -0.06497,0.106731 -0.18575,0.166444 -0.1163,0.05615 -0.297297,0.03576 -0.180998,-0.02039 -0.285916,-0.10145 -0.100444,-0.08463 -0.139593,-0.207163 -0.03915,-0.122533 -0.04029,-0.257076 0.0029,-0.134091 0.02372,-0.31911 l 0.179863,-1.596799 -0.788344,-0.0888 -0.192095,1.705397 q -0.04168,0.370039 -0.01391,0.629778 0.03224,0.25617 0.211151,0.475909 0.157041,0.19691 0.417465,0.307707 0.260424,0.110798 0.55002,0.143418 0.289595,0.03262 0.568141,-0.01747 0.278546,-0.05009 0.475456,-0.207129 0.223308,-0.174433 0.307707,-0.417465 0.08888,-0.2466 0.130556,-0.616639 l 0.192095,-1.705397 z" />
      <path
         id="path984"
         style="text-align:center;text-anchor:middle;stroke-width:0.10118996px"
         d="m 66.941243,73.646831 0.745769,0.270555 0.637736,-1.757884 0.0076,0.0028 0.728239,2.253441 0.745769,0.270555 1.040807,-2.868928 -0.745769,-0.270555 -0.636355,1.75408 -0.0076,-0.0028 -0.72962,-2.249636 -0.745769,-0.270555 z" />
      <path
         id="path986"
         style="text-align:center;text-anchor:middle;stroke-width:0.10118996px"
         d="m 72.518671,73.575052 0.560712,0.33994 0.348333,-0.574556 -1.799815,-1.091165 -0.348334,0.574556 0.560712,0.33994 -1.233856,2.035176 0.678392,0.411285 z" />
      <path
         id="path988"
         style="text-align:center;text-anchor:middle;stroke-width:0.10118996px"
         d="m 73.65657,76.800984 -0.201759,0.528941 0.634683,0.559291 1.155289,-3.04971 -0.649867,-0.572671 -2.898388,1.513667 0.631646,0.556615 0.508471,-0.258662 z m 0.240457,-0.597344 -0.494992,-0.436193 0.888225,-0.512063 0.0061,0.0054 z" />
      <path
         id="path990"
         style="text-align:center;text-anchor:middle;stroke-width:0.10118996px"
         d="m 77.05587,76.781414 -0.509189,-0.608357 -2.340312,1.958818 0.509189,0.608357 z" />
      <path
         id="path992"
         style="text-align:center;text-anchor:middle;stroke-width:0.10118996px"
         d="m 75.094749,79.11313 0.398664,0.685885 1.616729,-0.939709 0.0041,0.007 -0.886522,2.195998 0.398665,0.685885 2.638556,-1.533639 -0.398664,-0.685884 -1.613229,0.937675 -0.0041,-0.007 0.883022,-2.193964 -0.398665,-0.685885 z" />
      <path
         id="path994"
         style="text-align:center;text-anchor:middle;stroke-width:0.10118996px"
         d="m 80.619679,85.082826 q 0.07313,-0.396201 8e-6,-0.740667 -0.0664,-0.31279 -0.260936,-0.585966 -0.190577,-0.274017 -0.463329,-0.447833 -0.263152,-0.167579 -0.572601,-0.221886 -0.308608,-0.05035 -0.61348,0.01437 -0.340506,0.07228 -0.600366,0.251579 -0.25986,0.179297 -0.426355,0.467046 -0.160258,0.278149 -0.213724,0.591557 -0.05347,0.313408 0.01209,0.622239 0.03362,0.158375 0.09387,0.28627 0.05713,0.132695 0.177991,0.351169 l 0.01212,0.01812 0.930452,-0.197516 q -0.172552,-0.09164 -0.29748,-0.251323 -0.120969,-0.160522 -0.161313,-0.350572 -0.07649,-0.360302 0.101292,-0.633895 0.182576,-0.270473 0.538919,-0.346117 0.174212,-0.03698 0.336435,-0.01349 0.163064,0.02745 0.29662,0.110822 0.137515,0.08253 0.231963,0.215577 0.09445,0.133049 0.13143,0.307261 0.04287,0.201928 -0.0056,0.40255 -0.04448,0.199782 -0.178485,0.348223 z" />
      <path
         id="path996"
         style="text-align:center;text-anchor:middle;stroke-width:0.10118996px"
         d="m 80.823335,86.847528 -0.03645,-0.792492 -3.048666,0.14023 0.08016,1.742672 0.671192,-0.03087 -0.04371,-0.950181 z" />
      <path
         id="path998"
         style="text-align:center;text-anchor:middle;stroke-width:0.10118996px"
         d="m 80.615872,90.441322 -1.592819,-0.212234 q -0.184559,-0.02459 -0.318833,-0.05882 -0.130797,-0.02968 -0.240199,-0.09734 -0.10539,-0.06713 -0.16264,-0.189089 -0.05377,-0.117416 -0.02972,-0.297962 0.02406,-0.180547 0.107232,-0.283798 0.08665,-0.09871 0.209954,-0.13536 0.123302,-0.03665 0.257841,-0.03506 0.134004,0.0056 0.318563,0.0302 l 1.592819,0.212234 0.104781,-0.786379 -1.701147,-0.226668 q -0.369117,-0.04918 -0.629366,-0.02669 -0.256772,0.02704 -0.480096,0.201449 -0.200057,0.153012 -0.316117,0.411134 -0.116061,0.258121 -0.154552,0.546995 -0.03849,0.288874 0.0059,0.56838 0.04442,0.279505 0.197437,0.479561 0.169865,0.226802 0.411134,0.316117 0.244746,0.09386 0.613862,0.143044 l 1.701147,0.226668 z" />
      <path
         id="path1000"
         style="text-align:center;text-anchor:middle;stroke-width:0.10118996px"
         d="m 78.272351,92.481152 -0.02696,0.07633 q -0.05393,0.152659 -0.103123,0.255476 -0.04538,0.104166 -0.104224,0.173527 -0.05884,0.06936 -0.138553,0.08842 -0.07724,0.02423 -0.184103,-0.01352 -0.106862,-0.03775 -0.152868,-0.114097 -0.04354,-0.07119 -0.04306,-0.169749 0.0029,-0.0934 0.02901,-0.191508 0.02472,-0.09429 0.07191,-0.227869 l 0.0337,-0.09541 z m -1.333647,-0.01607 q -0.07415,0.209906 -0.09688,0.407927 -0.02408,0.201838 0.0201,0.380568 0.04418,0.17873 0.167183,0.316618 0.125469,0.143053 0.343009,0.219897 0.312951,0.110548 0.555005,0.03293 0.242054,-0.07762 0.385374,-0.361824 l 0.0076,0.0027 q 0.02464,0.197585 0.147873,0.322676 0.12188,0.128907 0.32797,0.201707 0.393098,0.138859 0.648197,-0.0243 0.257567,-0.157994 0.401818,-0.566358 l 0.37748,-1.068616 -2.87763,-1.0165 z m 2.44806,0.409731 -0.01887,0.05343 q -0.0337,0.09541 -0.0656,0.161412 -0.03325,0.06982 -0.08153,0.121444 -0.04963,0.05544 -0.119015,0.06957 -0.07073,0.01794 -0.16614,-0.01576 -0.08778,-0.03101 -0.132894,-0.08558 -0.04265,-0.04941 -0.05161,-0.121255 -0.01031,-0.06803 0.0025,-0.140774 0.01663,-0.07139 0.04629,-0.155355 l 0.02966,-0.08396 z" />
    </g>
    <circle
       r="14.2875"
       cy="-63.5"
       cx="87.601196"
       transform="rotate(90)"
       style="display:none;opacity:0.98000004;fill:none;fill-opacity:1;stroke:#f50000;stroke-width:0.1;stroke-linecap:round;stroke-linejoin:round;stroke-miterlimit:4;stroke-dasharray:none;stroke-opacity:1"
       id="circle826" />
    <circle
       cx="-87.601288"
       cy="63.5"
       r="14.2875"
       transform="rotate(-90)"
       id="circle4558"
       style="display:none;opacity:0.98000004;fill:none;fill-opacity:1;stroke:#f50000;stroke-width:0.1;stroke-linecap:round;stroke-linejoin:round;stroke-miterlimit:4;stroke-dasharray:none;stroke-opacity:1" />
    <g
       id="text4563"
       style="font-style:normal;font-variant:normal;font-weight:bold;font-stretch:normal;font-size:4.04759836px;line-height:80.00000119%;font-family:Futura;-inkscape-font-specification:'Futura Bold';text-align:center;letter-spacing:0px;word-spacing:0px;text-anchor:middle;display:inline;fill:#000000;fill-opacity:1;stroke:none;stroke-width:0.10118996px;stroke-linecap:butt;stroke-linejoin:miter;stroke-opacity:1"
       aria-label="PRAX 2023">
      <path
         id="path1003"
         d="m 74.0824,97.26054 -0.577265,0.544185 0.694113,0.736307 -0.326921,0.308186 q -0.385825,0.363715 -0.413961,0.735118 -0.02536,0.374348 0.338356,0.760174 0.347056,0.36815 0.734367,0.34235 0.387141,-0.0201 0.761186,-0.37268 l 0.883568,-0.832936 z m 1.077499,2.299542 -0.09719,0.09162 q -0.106028,0.09995 -0.179322,0.15792 -0.07329,0.05797 -0.151295,0.08144 -0.08095,0.02625 -0.168874,-0.0021 -0.08793,-0.02836 -0.182326,-0.128501 -0.09162,-0.09719 -0.109032,-0.18647 -0.02035,-0.0865 0.01356,-0.168536 0.03375,-0.07631 0.09299,-0.143287 0.0563,-0.0642 0.162325,-0.164148 l 0.09719,-0.09162 z" />
      <path
         id="path1005"
         d="m 71.444038,100.96577 q -0.235909,0.21733 -0.254504,0.51225 -0.02201,0.29709 0.154037,0.57367 0.252116,0.39609 0.624024,0.43765 0.371907,0.0416 0.774827,-0.21491 l 1.00047,-0.63681 -1.638757,-2.574586 -0.669256,0.425989 0.630291,0.990227 -0.0068,0.004 -1.261987,-0.588148 -0.833156,0.530318 z m 1.303585,0.58566 -0.06488,0.0413 q -0.09219,0.0587 -0.179422,0.095 -0.08847,0.0419 -0.175081,0.0491 -0.09003,0.009 -0.168881,-0.0316 -0.08227,-0.0388 -0.145299,-0.13781 -0.06303,-0.099 -0.06335,-0.18999 -0.0037,-0.0888 0.04282,-0.16639 0.04314,-0.0754 0.116399,-0.14126 0.07202,-0.0602 0.164209,-0.11892 l 0.06488,-0.0413 z" />
      <path
         id="path1007"
         d="m 68.195308,101.67027 -0.372053,-0.42669 -0.791967,0.29735 2.148897,2.45309 0.810914,-0.30446 0.02617,-3.26974 -0.788178,0.29593 -0.01067,0.57038 z m 0.414242,0.49299 0.617658,-0.2319 0.03452,1.02467 -0.0076,0.003 z" />
      <path
         id="path1009"
         d="m 66.098748,103.31459 0.962524,-1.77765 -0.950472,0.12971 -0.559174,1.08124 -0.768278,-0.90009 -0.946461,0.12915 1.339462,1.46352 -0.774419,1.53955 0.966513,-0.13189 0.354481,-0.84497 0.567918,0.71909 0.966513,-0.13189 z" />
      <path
         id="path1011"
         d="m 60.778993,102.31504 -0.54086,0.3555 q -0.290083,0.18468 -0.44246,0.38046 -0.156368,0.19511 -0.207964,0.49837 -0.04073,0.23942 0.01778,0.45055 0.05384,0.21445 0.193002,0.38594 0.13517,0.1708 0.334434,0.27861 0.198585,0.11179 0.43401,0.15185 0.526714,0.0896 0.896256,-0.17598 0.364872,-0.26227 0.473758,-0.7816 L 61.07505,103.7121 q 4.3e-4,0.0699 -0.0098,0.12972 -0.02716,0.15961 -0.132593,0.24842 -0.105437,0.0888 -0.257067,0.063 -0.147639,-0.0251 -0.223039,-0.16112 -0.07939,-0.13668 -0.05359,-0.28831 0.03259,-0.19154 0.16493,-0.3661 0.128353,-0.17524 0.303827,-0.31372 l 1.456428,-1.12764 -2.418096,-0.4114 -0.112696,0.66238 z" />
      <path
         id="path1013"
         d="m 57.284866,103.92266 q 0.306384,0.1167 0.587542,0.0722 0.279717,-0.0407 0.516019,-0.20626 0.231078,-0.1632 0.408117,-0.41195 0.175598,-0.24497 0.285091,-0.53244 0.109493,-0.28747 0.142795,-0.59097 0.03186,-0.29972 -0.03065,-0.57907 -0.06774,-0.27701 -0.248049,-0.49729 -0.18175,-0.21648 -0.488134,-0.33318 -0.306384,-0.1167 -0.586102,-0.076 -0.281158,0.0445 -0.512236,0.2077 -0.236302,0.16554 -0.4119,0.41051 -0.177039,0.24875 -0.286531,0.53622 -0.109493,0.28747 -0.141355,0.58719 -0.0333,0.3035 0.03444,0.58051 0.06252,0.27936 0.244267,0.49584 0.18031,0.22027 0.486694,0.33697 z m 0.24924,-0.65438 q -0.136171,-0.0519 -0.192375,-0.17722 -0.05999,-0.1268 -0.0582,-0.2907 3.51e-4,-0.16012 0.03384,-0.31629 0.03349,-0.15616 0.07959,-0.2772 0.0461,-0.12104 0.124985,-0.25991 0.07888,-0.13888 0.186584,-0.26244 0.107701,-0.12357 0.238282,-0.18212 0.125357,-0.0562 0.261527,-0.004 0.132389,0.0504 0.192375,0.17722 0.05855,0.13058 0.05675,0.29448 -0.0018,0.16391 -0.03528,0.32007 -0.03349,0.15616 -0.07959,0.2772 -0.0461,0.12105 -0.124985,0.25992 -0.07888,0.13887 -0.185143,0.25866 -0.107702,0.12356 -0.236841,0.17833 -0.12914,0.0548 -0.261528,0.004 z" />
      <path
         id="path1015"
         d="m 55.409505,100.18777 -0.635442,0.123 q -0.33853,0.0604 -0.553937,0.18351 -0.218839,0.12094 -0.381932,0.38177 -0.128759,0.20591 -0.154978,0.42343 -0.0318,0.2188 0.03166,0.43034 0.06002,0.20938 0.203284,0.38489 0.141116,0.17895 0.343598,0.30556 0.453009,0.28327 0.895806,0.17825 0.437219,-0.10374 0.7355,-0.54258 l -0.741288,-0.46353 q -0.02619,0.0648 -0.05837,0.11626 -0.08584,0.13727 -0.217136,0.17929 -0.131296,0.042 -0.261708,-0.0395 -0.12698,-0.0794 -0.144966,-0.23386 -0.02142,-0.15661 0.06013,-0.28702 0.103007,-0.16473 0.291811,-0.27581 0.185371,-0.11323 0.400336,-0.17454 l 1.775922,-0.48872 -2.079725,-1.300457 -0.356231,0.569693 z" />
      <path
         id="path1017"
         d="m 52.512813,99.864158 q -0.105104,0.112296 -0.236499,0.122369 -0.134161,0.01303 -0.240546,-0.08654 -0.09752,-0.09128 -0.104448,-0.214183 -0.0069,-0.122908 0.08711,-0.223382 0.105104,-0.112296 0.239643,-0.113882 0.131773,0.0014 0.244069,0.106472 l 0.0591,0.05532 0.362333,-0.387123 q -0.08161,-0.04312 -0.11707,-0.07631 -0.124116,-0.116168 -0.132748,-0.290565 -0.0114,-0.171442 0.104769,-0.295558 0.124465,-0.132981 0.290565,-0.132748 0.163144,-0.0025 0.299081,0.124698 0.135936,0.127232 0.141613,0.298863 -4.3e-5,0.17182 -0.127275,0.307757 l 0.591028,0.55318 q 0.135529,-0.144802 0.205478,-0.367617 0.06995,-0.222815 0.0659,-0.431727 -0.0056,-0.254681 -0.115731,-0.468675 -0.113125,-0.216759 -0.314074,-0.40484 -0.168443,-0.157656 -0.366365,-0.2542 -0.200877,-0.09931 -0.410547,-0.118148 -0.212624,-0.0216 -0.413545,0.05091 -0.20092,0.07251 -0.366874,0.249818 -0.171486,0.183219 -0.228857,0.439982 -0.06014,0.259717 0.06682,0.461701 -0.1761,-0.04286 -0.351371,0.02594 -0.178036,0.07175 -0.310799,0.2136 -0.284888,0.304379 -0.24436,0.663858 0.04053,0.359482 0.350817,0.649902 0.351662,0.32914 0.747171,0.33897 0.412671,0.009 0.763446,-0.29444 z" />
    </g>
    <g
       id="text6705"
       style="font-style:normal;font-variant:normal;font-weight:bold;font-stretch:normal;font-size:3.21470141px;line-height:100%;font-family:Futura;-inkscape-font-specification:'Futura Bold';text-align:center;letter-spacing:0.26458332px;word-spacing:0px;text-anchor:middle;display:inline;fill:#000000;fill-opacity:1;stroke:none;stroke-width:0.08036753px;stroke-linecap:butt;stroke-linejoin:miter;stroke-opacity:1"
       aria-label="BAYLE
MOUNTAIN">
      <path
         id="path939"
         style="font-style:normal;font-variant:normal;font-weight:bold;font-stretch:normal;font-size:2.57176113px;line-height:100%;font-family:Avenir;-inkscape-font-specification:'Avenir Bold';letter-spacing:0.26458332px;stroke-width:0.08036753px"
         d="m 59.947689,82.855621 c 0.439771,0 0.650655,-0.254604 0.650655,-0.506637 0,-0.257176 -0.151734,-0.429484 -0.411481,-0.45263 v -0.0051 c 0.203169,-0.04886 0.32147,-0.203169 0.32147,-0.398623 0,-0.298324 -0.226315,-0.457774 -0.573503,-0.457774 h -0.5555 v 1.820807 z m -0.383193,-0.169736 v -0.699519 h 0.390908 c 0.275179,0 0.442343,0.110586 0.442343,0.354903 0,0.2186 -0.187739,0.344616 -0.465489,0.344616 z m 0,-0.853825 v -0.627509 h 0.36519 c 0.239174,0 0.378049,0.133731 0.378049,0.311183 0,0.198025 -0.156877,0.316326 -0.362618,0.316326 z" />
      <path
         id="path941"
         style="font-style:normal;font-variant:normal;font-weight:bold;font-stretch:normal;font-size:2.57176113px;line-height:100%;font-family:Avenir;-inkscape-font-specification:'Avenir Bold';letter-spacing:0.26458332px;stroke-width:0.08036753px"
         d="m 61.235471,82.855621 0.200598,-0.478347 h 0.930977 l 0.200598,0.478347 h 0.216028 l -0.792103,-1.820807 h -0.180023 l -0.792103,1.820807 z m 0.666087,-1.604779 0.393479,0.956696 h -0.789531 z" />
      <path
         id="path943"
         style="font-style:normal;font-variant:normal;font-weight:bold;font-stretch:normal;font-size:2.57176113px;line-height:100%;font-family:Avenir;-inkscape-font-specification:'Avenir Bold';letter-spacing:0.26458332px;stroke-width:0.08036753px"
         d="m 63.011085,81.034814 0.681517,1.03642 v 0.784387 h 0.185166 v -0.784387 l 0.681517,-1.03642 h -0.231458 l -0.542642,0.858969 -0.542642,-0.858969 z" />
      <path
         id="path945"
         style="font-style:normal;font-variant:normal;font-weight:bold;font-stretch:normal;font-size:2.57176113px;line-height:100%;font-family:Avenir;-inkscape-font-specification:'Avenir Bold';letter-spacing:0.26458332px;stroke-width:0.08036753px"
         d="m 65.220482,81.034814 h -0.185167 v 1.820807 h 1.033848 v -0.169736 h -0.848681 z" />
      <path
         id="path947"
         style="font-style:normal;font-variant:normal;font-weight:bold;font-stretch:normal;font-size:2.57176113px;line-height:100%;font-family:Avenir;-inkscape-font-specification:'Avenir Bold';letter-spacing:0.26458332px;stroke-width:0.08036753px"
         d="m 66.585779,82.855621 h 1.159864 v -0.169736 h -0.974697 v -0.691804 h 0.882114 v -0.169736 h -0.882114 v -0.619794 h 0.943836 v -0.169737 h -1.129003 z" />
      <path
         id="path949"
         style="font-style:normal;font-variant:normal;font-weight:bold;font-stretch:normal;font-size:2.57176113px;line-height:100%;font-family:Avenir;-inkscape-font-specification:'Avenir Bold';letter-spacing:0.26458332px;stroke-width:0.08036753px"
         d="m 55.850632,86.077558 h 0.185167 V 84.50364 h 0.0051 l 0.65837,1.573918 h 0.09773 L 57.45537,84.50364 h 0.0051 v 1.573918 h 0.185166 v -1.820807 h -0.282893 l -0.614651,1.481334 -0.614651,-1.481334 h -0.282894 z" />
      <path
         id="path951"
         style="font-style:normal;font-variant:normal;font-weight:bold;font-stretch:normal;font-size:2.57176113px;line-height:100%;font-family:Avenir;-inkscape-font-specification:'Avenir Bold';letter-spacing:0.26458332px;stroke-width:0.08036753px"
         d="m 59.231226,84.210459 c -0.545214,0 -0.94898,0.414053 -0.94898,0.956695 0,0.542642 0.406338,0.956695 0.94898,0.956695 0.542641,0 0.948979,-0.411482 0.948979,-0.956695 0,-0.542642 -0.401194,-0.956695 -0.948979,-0.956695 z m -0.748383,0.956695 c 0,-0.444915 0.311183,-0.786959 0.745811,-0.786959 0.444914,0 0.750954,0.34976 0.750954,0.786959 0,0.437199 -0.298324,0.786959 -0.748382,0.786959 -0.439772,0 -0.748383,-0.342044 -0.748383,-0.786959 z" />
      <path
         id="path953"
         style="font-style:normal;font-variant:normal;font-weight:bold;font-stretch:normal;font-size:2.57176113px;line-height:100%;font-family:Avenir;-inkscape-font-specification:'Avenir Bold';letter-spacing:0.26458332px;stroke-width:0.08036753px"
         d="m 60.784221,85.4089 c 0,0.42434 0.226315,0.714949 0.666086,0.714949 0.442343,0 0.666086,-0.295752 0.666086,-0.714949 v -1.152149 h -0.185167 v 1.134146 c 0,0.357475 -0.182595,0.563216 -0.480919,0.563216 -0.298324,0 -0.480919,-0.205741 -0.480919,-0.563216 v -1.134146 h -0.185167 z" />
      <path
         id="path955"
         style="font-style:normal;font-variant:normal;font-weight:bold;font-stretch:normal;font-size:2.57176113px;line-height:100%;font-family:Avenir;-inkscape-font-specification:'Avenir Bold';letter-spacing:0.26458332px;stroke-width:0.08036753px"
         d="M 63.027895,86.077558 V 84.51907 h 0.0051 l 1.085284,1.558488 h 0.231458 V 84.256751 H 64.16457 v 1.543056 h -0.0051 l -1.085283,-1.543056 h -0.231459 v 1.820807 z" />
      <path
         id="path957"
         style="font-style:normal;font-variant:normal;font-weight:bold;font-stretch:normal;font-size:2.57176113px;line-height:100%;font-family:Avenir;-inkscape-font-specification:'Avenir Bold';letter-spacing:0.26458332px;stroke-width:0.08036753px"
         d="m 64.895569,84.426487 h 0.609507 v 1.651071 h 0.185167 v -1.651071 h 0.609508 v -0.169736 h -1.404182 z" />
      <path
         id="path959"
         style="font-style:normal;font-variant:normal;font-weight:bold;font-stretch:normal;font-size:2.57176113px;line-height:100%;font-family:Avenir;-inkscape-font-specification:'Avenir Bold';letter-spacing:0.26458332px;stroke-width:0.08036753px"
         d="m 66.641126,86.077558 0.200597,-0.478348 h 0.930978 l 0.200597,0.478348 h 0.216028 L 67.397224,84.256751 H 67.2172 l -0.792102,1.820807 z m 0.666086,-1.604779 0.39348,0.956695 h -0.789531 z" />
      <path
         id="path961"
         style="font-style:normal;font-variant:normal;font-weight:bold;font-stretch:normal;font-size:2.57176113px;line-height:100%;font-family:Avenir;-inkscape-font-specification:'Avenir Bold';letter-spacing:0.26458332px;stroke-width:0.08036753px"
         d="m 68.8848,84.256751 h -0.185167 v 1.820807 H 68.8848 Z" />
      <path
         id="path963"
         style="font-style:normal;font-variant:normal;font-weight:bold;font-stretch:normal;font-size:2.57176113px;line-height:100%;font-family:Avenir;-inkscape-font-specification:'Avenir Bold';letter-spacing:0.26458332px;stroke-width:0.08036753px"
         d="M 69.827484,86.077558 V 84.51907 h 0.0051 l 1.085283,1.558488 h 0.231458 v -1.820807 h -0.185166 v 1.543056 h -0.0051 l -1.085283,-1.543056 h -0.231459 v 1.820807 z" />
    </g>
    <circle
       r="1.5"
       cy="75.072075"
       cx="63.5"
       id="path6835"
       style="display:inline;opacity:0.98000004;fill:none;fill-opacity:1;stroke:#f20000;stroke-width:0.1;stroke-linecap:round;stroke-linejoin:miter;stroke-miterlimit:4;stroke-dasharray:none;stroke-opacity:1" />
    <path
       transform="scale(0.26458333)"
       id="path922"
       d="m 274.11328,364.35938 -0.23633,-0.0137 -1.53906,-0.22656 -1.54101,-0.45117 -1.53907,-0.38477 -1.53906,-0.40625 -1.54102,-0.16211 -1.53906,-0.37695 -1.54101,-0.3418 -1.53907,-0.11718 -1.54101,-0.0449 -1.53906,-0.0234 -1.53907,-0.17774 -1.54101,-0.17383 -1.53906,-0.38476 -1.54102,-0.43164 -1.53906,-0.30274 -1.53907,-0.4707 -1.54101,-0.52539 -1.53906,-0.13281 -1.54102,-0.26172 -1.53906,-0.33984 -1.54102,-0.76563 -1.53906,-0.19336 -1.53906,0.19141 -1.54102,0.15039 -1.53906,0.45117 -1.54102,0.43945 -1.53906,0.43164 -1.54101,0.49024 -1.53907,0.55078 -1.53906,0.39648 -1.54102,0.36719 -1.53906,0.19141 -1.54101,0.31054 -1.53907,0.40039 -1.54101,0.29297 -1.53906,0.79102 -1.53907,0.375 -1.54101,0.17187 -1.53906,0.0176 -1.54102,0.16016 -1.53906,0.26172 -1.53907,0.23632 -1.54101,0.0469 -1.39258,0.40039 A 47.697637,47.697637 0 0 0 240,378.78906 47.697637,47.697637 0 0 0 274.11328,364.35938 Z"
       style="display:inline;opacity:0.98000004;fill:none;fill-opacity:1;stroke:#f50000;stroke-width:0.37795275;stroke-linecap:round;stroke-linejoin:round;stroke-miterlimit:4;stroke-dasharray:none;stroke-opacity:1" />
    <path
       transform="scale(0.26458333)"
       id="circle139"
       d="m 240,283.39258 a 47.697637,47.697637 0 0 0 -47.69727,47.69922 47.697637,47.697637 0 0 0 13.9668,33.68359 l 1.39258,-0.40039 1.54101,-0.0469 1.53907,-0.23632 1.53906,-0.26172 1.54102,-0.16016 1.53906,-0.0176 1.54101,-0.17187 1.53907,-0.375 1.53906,-0.79102 1.54101,-0.29297 1.53907,-0.40039 1.54101,-0.31054 1.53906,-0.19141 1.54102,-0.36719 1.53906,-0.39648 1.53907,-0.55078 1.54101,-0.49024 1.53906,-0.43164 1.54102,-0.43945 1.53906,-0.45117 1.54102,-0.15039 1.53906,-0.19141 1.53906,0.19336 1.54102,0.76563 1.53906,0.33984 1.54102,0.26172 1.53906,0.13281 1.54101,0.52539 1.53907,0.4707 1.53906,0.30274 1.54102,0.43164 1.53906,0.38476 1.54101,0.17383 1.53907,0.17774 1.53906,0.0234 1.54101,0.0449 1.53907,0.11718 1.54101,0.3418 1.53906,0.37695 1.54102,0.16211 1.53906,0.40625 1.53907,0.38477 1.54101,0.45117 1.53906,0.22656 0.23633,0.0137 A 47.697637,47.697637 0 0 0 287.69727,331.0918 47.697637,47.697637 0 0 0 240,283.39258 Z"
       style="display:inline;opacity:0.98000004;fill:none;fill-opacity:1;stroke:#0cff00;stroke-width:0.37795275;stroke-linecap:round;stroke-linejoin:round;stroke-miterlimit:4;stroke-dasharray:none;stroke-opacity:1" />
    <g
       id="text730"
       style="font-style:normal;font-variant:normal;font-weight:bold;font-stretch:normal;font-size:3.21470141px;line-height:80.00000119%;font-family:Futura;-inkscape-font-specification:'Futura Bold';text-align:center;letter-spacing:0.26458332px;word-spacing:0px;text-anchor:middle;display:inline;fill:#000000;fill-opacity:1;stroke:none;stroke-width:0.08036753px;stroke-linecap:butt;stroke-linejoin:miter;stroke-opacity:1"
       aria-label="1844 FT">
      <path
         id="path926"
         style="font-style:normal;font-variant:normal;font-weight:bold;font-stretch:normal;font-size:2.57176113px;line-height:0%;font-family:Avenir;-inkscape-font-specification:'Avenir Bold';letter-spacing:0.26458332px;stroke-width:0.08036753px"
         d="m 58.8119,91.618158 h -0.164592 l -0.462917,0.380621 0.113157,0.138875 0.329186,-0.288038 v 1.589349 H 58.8119 Z" />
      <path
         id="path928"
         style="font-style:normal;font-variant:normal;font-weight:bold;font-stretch:normal;font-size:2.57176113px;line-height:0%;font-family:Avenir;-inkscape-font-specification:'Avenir Bold';letter-spacing:0.26458332px;stroke-width:0.08036753px"
         d="m 60.328007,91.587297 c -0.282894,0 -0.509209,0.203169 -0.509209,0.475776 0,0.185166 0.11573,0.352331 0.272607,0.406338 v 0.0051 c -0.205741,0.05401 -0.339472,0.244318 -0.339472,0.478348 0,0.300896 0.264891,0.516924 0.576074,0.516924 0.318899,0 0.576075,-0.2186 0.576075,-0.516924 0,-0.23403 -0.133732,-0.419197 -0.339473,-0.478348 v -0.0051 c 0.156878,-0.05401 0.272607,-0.221172 0.272607,-0.406338 0,-0.275179 -0.223743,-0.475776 -0.509209,-0.475776 z m -0.324042,0.491206 c 0,-0.180023 0.141447,-0.32147 0.32147,-0.32147 0.190311,0 0.326614,0.141447 0.326614,0.32147 0,0.180023 -0.138875,0.32147 -0.324042,0.32147 -0.185167,0 -0.324042,-0.141447 -0.324042,-0.32147 z m -0.06686,0.848681 c 0,-0.218599 0.16202,-0.372905 0.388335,-0.372905 0.236602,0 0.39348,0.156877 0.39348,0.372905 0,0.2186 -0.164593,0.372906 -0.390908,0.372906 -0.228887,0 -0.390907,-0.154306 -0.390907,-0.372906 z" />
      <path
         id="path930"
         style="font-style:normal;font-variant:normal;font-weight:bold;font-stretch:normal;font-size:2.57176113px;line-height:0%;font-family:Avenir;-inkscape-font-specification:'Avenir Bold';letter-spacing:0.26458332px;stroke-width:0.08036753px"
         d="m 61.406915,93.006909 h 0.786958 v 0.432056 h 0.185167 v -0.432056 h 0.26232 v -0.169736 h -0.26232 v -1.219015 h -0.236602 l -0.735523,1.177867 z m 0.781815,-1.203584 h 0.0051 v 1.033848 h -0.63261 z" />
      <path
         id="path932"
         style="font-style:normal;font-variant:normal;font-weight:bold;font-stretch:normal;font-size:2.57176113px;line-height:0%;font-family:Avenir;-inkscape-font-specification:'Avenir Bold';letter-spacing:0.26458332px;stroke-width:0.08036753px"
         d="m 63.103044,93.006909 h 0.786959 v 0.432056 h 0.185167 v -0.432056 h 0.26232 v -0.169736 h -0.26232 v -1.219015 h -0.236602 l -0.735524,1.177867 z m 0.781816,-1.203584 h 0.0051 v 1.033848 h -0.63261 z" />
      <path
         id="path934"
         style="font-style:normal;font-variant:normal;font-weight:bold;font-stretch:normal;font-size:2.57176113px;line-height:0%;font-family:Avenir;-inkscape-font-specification:'Avenir Bold';letter-spacing:0.26458332px;stroke-width:0.08036753px"
         d="m 65.926182,93.438965 h 0.185167 v -0.86154 h 0.848681 v -0.169736 h -0.848681 v -0.619795 h 0.912975 v -0.169736 h -1.098142 z" />
      <path
         id="path936"
         style="font-style:normal;font-variant:normal;font-weight:bold;font-stretch:normal;font-size:2.57176113px;line-height:0%;font-family:Avenir;-inkscape-font-specification:'Avenir Bold';letter-spacing:0.26458332px;stroke-width:0.08036753px"
         d="m 67.411427,91.787894 h 0.609508 v 1.651071 h 0.185167 v -1.651071 h 0.609507 v -0.169736 h -1.404182 z" />
    </g>
  </g>
</svg>
