<?xml version="1.0" encoding="UTF-8"?>
<svg xmlns="http://www.w3.org/2000/svg" xmlns:xlink="http://www.w3.org/1999/xlink" width="52.18688" height="20">
<rect x="0" width="52.18688" height="20" fill="#FFEEEE"/>
<path d="M 10 16.79417755127 L 10.407428860759 16.805510864258 L 10.814857721519 16.794260864258 L 11.222286582278 16.677882385254 L 11.629715443038 16.540591125488 L 12.037144303797 16.497718811035 L 12.444573164557 16.501535644531 L 12.852002025316 16.516116638184 L 13.259430886076 16.429364624023 L 13.666859746835 16.30888458252 L 14.074288607595 16.191586303711 L 14.481717468354 16.178897094727 L 14.889146329114 16.116570129395 L 15.296575189873 16.047198791504 L 15.704004050633 16.004777526855 L 16.111432911392 16.000160522461 L 16.518861772152 15.954901428223 L 16.926290632911 15.855341186523 L 17.333719493671 15.646012878418 L 17.74114835443 15.568584594727 L 18.14857721519 15.462635192871 L 18.556006075949 15.380438537598 L 18.963434936709 15.329938964844 L 19.370863797468 15.232844848633 L 19.778292658228 15.127840576172 L 20.185721518987 14.981952819824 L 20.593150379747 14.852329101562 L 21.000579240506 14.738507080078 L 21.408008101266 14.622049560547 L 21.815436962025 14.502717895508 L 22.222865822785 14.463063354492 L 22.630294683544 14.412392578125 L 23.037723544304 14.463170776367 L 23.445152405063 14.66571105957 L 23.852581265823 14.755856323242 L 24.260010126582 14.825280151367 L 24.667438987342 14.860298461914 L 25.074867848101 14.99934387207 L 25.482296708861 15.123816833496 L 25.88972556962 15.203878173828 L 26.29715443038 15.31817565918 L 26.704583291139 15.419795227051 L 27.112012151899 15.465641479492 L 27.519441012658 15.513110046387 L 27.926869873418 15.519298706055 L 28.334298734177 15.531176147461 L 28.741727594937 15.561768493652 L 29.149156455696 15.652230224609 L 29.556585316456 15.752128601074 L 29.964014177215 15.794920654297 L 30.371443037975 15.902615356445 L 30.778871898734 16.004198608398 L 31.186300759494 16.123655700684 L 31.593729620253 16.183720703125 L 32.001158481013 16.20571685791 L 32.408587341772 16.227344665527 L 32.816016202532 16.285426635742 L 33.223445063291 16.362167358398 L 33.630873924051 16.427580566406 L 34.03830278481 16.447551269531 L 34.44573164557 16.516504821777 L 34.853160506329 16.535077209473 L 35.260589367089 16.553280639648 L 35.668018227848 16.633779296875 L 36.075447088608 16.762672119141 L 36.482875949367 16.656092529297 L 36.890304810127 16.625930786133 L 37.297733670886 16.614373168945 L 37.705162531646 16.768709411621 L 38.112591392405 16.818553466797 L 38.520020253165 16.820545654297 L 38.927449113924 16.941822814941 L 39.334877974684 17.012842712402 L 39.742306835443 17.065368041992 L 40.149735696203 17.204384155273 L 40.557164556962 17.260452880859 L 40.964593417722 17.305520935059 L 41.372022278481 17.351780700684 L 41.779451139241 17.436587524414 L 42.18688 17.446271057129" stroke="black" fill="transparent"/>
</svg>