<?xml version="1.0" encoding="UTF-8"?>
<svg xmlns="http://www.w3.org/2000/svg" xmlns:xlink="http://www.w3.org/1999/xlink" width="52.18688" height="20">
<rect x="0" width="52.18688" height="20" fill="#FFEEEE"/>
<path d="M 10 16.905915527344 L 10.407428860759 16.858231811523 L 10.814857721519 16.802755432129 L 11.222286582278 16.730016479492 L 11.629715443038 16.638271484375 L 12.037144303797 16.568882141113 L 12.444573164557 16.562661437988 L 12.852002025316 16.521175231934 L 13.259430886076 16.444332885742 L 13.666859746835 16.407767028809 L 14.074288607595 16.365336608887 L 14.481717468354 16.273807373047 L 14.889146329114 16.060294799805 L 15.296575189873 15.864873962402 L 15.704004050633 15.692706298828 L 16.111432911392 15.509408569336 L 16.518861772152 15.330782165527 L 16.926290632911 15.174167175293 L 17.333719493671 15.043428649902 L 17.74114835443 14.915493774414 L 18.14857721519 14.830184936523 L 18.556006075949 14.780538330078 L 18.963434936709 14.801055297852 L 19.370863797468 14.764606323242 L 19.778292658228 14.68545715332 L 20.185721518987 14.571783447266 L 20.593150379747 14.467503662109 L 21.000579240506 14.28348449707 L 21.408008101266 14.156585083008 L 21.815436962025 14.06497253418 L 22.222865822785 13.95754699707 L 22.630294683544 13.803897094727 L 23.037723544304 13.647874145508 L 23.445152405063 13.500300292969 L 23.852581265823 13.42014831543 L 24.260010126582 13.315478515625 L 24.667438987342 13.225812988281 L 25.074867848101 13.115378417969 L 25.482296708861 13.021575317383 L 25.88972556962 12.918353881836 L 26.29715443038 12.810590209961 L 26.704583291139 12.77220703125 L 27.112012151899 12.81051940918 L 27.519441012658 12.935758666992 L 27.926869873418 13.064984741211 L 28.334298734177 13.222315063477 L 28.741727594937 13.451217651367 L 29.149156455696 13.624138793945 L 29.556585316456 13.774778442383 L 29.964014177215 13.929165649414 L 30.371443037975 14.027313232422 L 30.778871898734 14.120737304688 L 31.186300759494 14.215074462891 L 31.593729620253 14.316094970703 L 32.001158481013 14.442276000977 L 32.408587341772 14.543526000977 L 32.816016202532 14.661228637695 L 33.223445063291 14.782374267578 L 33.630873924051 14.9069140625 L 34.03830278481 15.018568115234 L 34.44573164557 15.118099975586 L 34.853160506329 15.21631652832 L 35.260589367089 15.302619018555 L 35.668018227848 15.438143005371 L 36.075447088608 15.581703186035 L 36.482875949367 15.613759765625 L 36.890304810127 15.62237487793 L 37.297733670886 15.643789978027 L 37.705162531646 15.71009552002 L 38.112591392405 15.813854064941 L 38.520020253165 15.9475390625 L 38.927449113924 16.027286376953 L 39.334877974684 16.031420593262 L 39.742306835443 16.053287963867 L 40.149735696203 16.085276489258 L 40.557164556962 16.146837768555 L 40.964593417722 16.100473632813 L 41.372022278481 16.070626525879 L 41.779451139241 15.968684692383 L 42.18688 15.93758392334" stroke="black" fill="transparent"/>
</svg>