<?xml version="1.0" encoding="UTF-8"?>
<svg xmlns="http://www.w3.org/2000/svg" xmlns:xlink="http://www.w3.org/1999/xlink" width="50.577536" height="20">
<rect x="0" width="50.577536" height="20" fill="#FFEEEE"/>
<path d="M 10 17.804524841309 L 10.387057417722 17.778839874268 L 10.774114835443 17.743964996338 L 11.161172253165 17.717446594238 L 11.548229670886 17.699766845703 L 11.935287088608 17.690136871338 L 12.322344506329 17.617631530762 L 12.709401924051 17.576432647705 L 13.096459341772 17.4869972229 L 13.483516759494 17.402130126953 L 13.870574177215 17.32663269043 L 14.257631594937 17.216891479492 L 14.644689012658 17.073090209961 L 15.03174643038 16.961755371094 L 15.418803848101 16.877339477539 L 15.805861265823 16.895531921387 L 16.192918683544 16.922254943848 L 16.579976101266 16.861285705566 L 16.967033518987 16.792487182617 L 17.354090936709 16.68402923584 L 17.74114835443 16.576892700195 L 18.128205772152 16.472167663574 L 18.515263189873 16.392719726563 L 18.902320607595 16.271621398926 L 19.289378025316 16.193402404785 L 19.676435443038 16.053935852051 L 20.063492860759 15.985107116699 L 20.450550278481 15.887312011719 L 20.837607696203 15.78399017334 L 21.224665113924 15.680043334961 L 21.611722531646 15.629081115723 L 21.998779949367 15.55380645752 L 22.385837367089 15.447747192383 L 22.77289478481 15.364690551758 L 23.159952202532 15.20309753418 L 23.547009620253 15.100110168457 L 23.934067037975 14.977514038086 L 24.321124455696 14.88113067627 L 24.708181873418 14.794657592773 L 25.095239291139 14.642163085938 L 25.482296708861 14.511683349609 L 25.869354126582 14.459874267578 L 26.256411544304 14.391434936523 L 26.643468962025 14.30944152832 L 27.030526379747 14.222213745117 L 27.417583797468 14.133337402344 L 27.80464121519 14.057139892578 L 28.191698632911 13.960214233398 L 28.578756050633 13.874238891602 L 28.965813468354 13.839379882812 L 29.352870886076 13.770578613281 L 29.739928303797 13.844362792969 L 30.126985721519 13.994293212891 L 30.514043139241 14.151810913086 L 30.901100556962 14.364515991211 L 31.288157974684 14.600123901367 L 31.675215392405 14.760078125 L 32.062272810127 14.863083496094 L 32.449330227848 14.987058410645 L 32.83638764557 15.110651245117 L 33.223445063291 15.240601806641 L 33.610502481013 15.386933898926 L 33.997559898734 15.532290649414 L 34.384617316456 15.71225402832 L 34.771674734177 15.839336242676 L 35.158732151899 15.982275085449 L 35.54578956962 16.024508972168 L 35.932846987342 16.070902709961 L 36.319904405063 16.048595581055 L 36.706961822785 15.958294677734 L 37.094019240506 16.004320678711 L 37.481076658228 15.925255432129 L 37.868134075949 15.876262207031 L 38.255191493671 15.802616882324 L 38.642248911392 15.760006713867 L 39.029306329114 15.659752502441 L 39.416363746835 15.564021606445 L 39.803421164557 15.540803222656 L 40.190478582278 15.473476867676 L 40.577536 15.39179901123" stroke="black" fill="transparent"/>
</svg>