<?xml version="1.0" encoding="UTF-8"?>
<svg xmlns="http://www.w3.org/2000/svg" xmlns:xlink="http://www.w3.org/1999/xlink" width="52.18688" height="20">
<rect x="0" width="52.18688" height="20" fill="#FFEEEE"/>
<path d="M 10 17.643194122314 L 10.407428860759 17.652612609863 L 10.814857721519 17.588082122803 L 11.222286582278 17.608348999023 L 11.629715443038 17.562107391357 L 12.037144303797 17.577488708496 L 12.444573164557 17.538840179443 L 12.852002025316 17.532530975342 L 13.259430886076 17.496965942383 L 13.666859746835 17.476263122559 L 14.074288607595 17.457338562012 L 14.481717468354 17.440019683838 L 14.889146329114 17.378893737793 L 15.296575189873 17.309548034668 L 15.704004050633 17.215776977539 L 16.111432911392 17.128033752441 L 16.518861772152 17.093227539063 L 16.926290632911 17.043833312988 L 17.333719493671 16.957201538086 L 17.74114835443 16.891353149414 L 18.14857721519 16.799519958496 L 18.556006075949 16.734068603516 L 18.963434936709 16.692124328613 L 19.370863797468 16.629881896973 L 19.778292658228 16.505401611328 L 20.185721518987 16.39491973877 L 20.593150379747 16.292194824219 L 21.000579240506 16.225002746582 L 21.408008101266 16.233280029297 L 21.815436962025 16.298320922852 L 22.222865822785 16.393437194824 L 22.630294683544 16.420145874023 L 23.037723544304 16.457341003418 L 23.445152405063 16.434190063477 L 23.852581265823 16.370173034668 L 24.260010126582 16.346038818359 L 24.667438987342 16.323408203125 L 25.074867848101 16.315363769531 L 25.482296708861 16.334806518555 L 25.88972556962 16.201956787109 L 26.29715443038 16.097597045898 L 26.704583291139 16.021375427246 L 27.112012151899 15.96713684082 L 27.519441012658 15.921665344238 L 27.926869873418 15.925603637695 L 28.334298734177 15.981636962891 L 28.741727594937 16.049457702637 L 29.149156455696 16.153976745605 L 29.556585316456 16.257760620117 L 29.964014177215 16.49048828125 L 30.371443037975 16.624269714355 L 30.778871898734 16.684580688477 L 31.186300759494 16.700451049805 L 31.593729620253 16.691651306152 L 32.001158481013 16.655279846191 L 32.408587341772 16.658634338379 L 32.816016202532 16.690754089355 L 33.223445063291 16.741822509766 L 33.630873924051 16.763525390625 L 34.03830278481 16.805880432129 L 34.44573164557 16.924614868164 L 34.853160506329 16.983041992188 L 35.260589367089 17.04470123291 L 35.668018227848 17.151539916992 L 36.075447088608 17.263284912109 L 36.482875949367 17.321505432129 L 36.890304810127 17.392423095703 L 37.297733670886 17.46307434082 L 37.705162531646 17.597707366943 L 38.112591392405 17.529785766602 L 38.520020253165 17.498567657471 L 38.927449113924 17.483677825928 L 39.334877974684 17.507300872803 L 39.742306835443 17.582794952393 L 40.149735696203 17.623774871826 L 40.557164556962 17.694992980957 L 40.964593417722 17.732498474121 L 41.372022278481 17.837149047852 L 41.779451139241 17.851664581299 L 42.18688 17.793082427979" stroke="black" fill="transparent"/>
</svg>