<?xml version="1.0" encoding="UTF-8"?>
<svg xmlns="http://www.w3.org/2000/svg" xmlns:xlink="http://www.w3.org/1999/xlink" width="52.18688" height="20">
<rect x="0" width="52.18688" height="20" fill="#FFEEEE"/>
<path d="M 10 15.861953125 L 10.407428860759 15.819473876953 L 10.814857721519 15.808996582031 L 11.222286582278 15.796100463867 L 11.629715443038 15.747231750488 L 12.037144303797 15.735467529297 L 12.444573164557 15.681431884766 L 12.852002025316 15.661056213379 L 13.259430886076 15.603695373535 L 13.666859746835 15.54110748291 L 14.074288607595 15.47617401123 L 14.481717468354 15.392092285156 L 14.889146329114 15.328528137207 L 15.296575189873 15.256681213379 L 15.704004050633 15.191190795898 L 16.111432911392 15.127299194336 L 16.518861772152 15.06750579834 L 16.926290632911 15.005920410156 L 17.333719493671 14.937251281738 L 17.74114835443 14.860532226562 L 18.14857721519 14.856773681641 L 18.556006075949 14.864423217773 L 18.963434936709 14.787769775391 L 19.370863797468 14.699591674805 L 19.778292658228 14.644840087891 L 20.185721518987 14.554688110352 L 20.593150379747 14.420877685547 L 21.000579240506 14.285060424805 L 21.408008101266 14.162456665039 L 21.815436962025 14.067918701172 L 22.222865822785 13.984729614258 L 22.630294683544 13.886704101563 L 23.037723544304 13.827012329102 L 23.445152405063 13.781293945313 L 23.852581265823 13.743409423828 L 24.260010126582 13.730762329102 L 24.667438987342 13.804378051758 L 25.074867848101 13.964787597656 L 25.482296708861 14.221512451172 L 25.88972556962 14.593958129883 L 26.29715443038 14.879251708984 L 26.704583291139 15.014352416992 L 27.112012151899 15.11067779541 L 27.519441012658 15.158282470703 L 27.926869873418 15.136282958984 L 28.334298734177 15.064848937988 L 28.741727594937 15.022788696289 L 29.149156455696 15.102523498535 L 29.556585316456 15.127309265137 L 29.964014177215 15.241978759766 L 30.371443037975 15.308742675781 L 30.778871898734 15.332345581055 L 31.186300759494 15.299099731445 L 31.593729620253 15.417128601074 L 32.001158481013 15.568125 L 32.408587341772 15.752162780762 L 32.816016202532 15.918660583496 L 33.223445063291 16.008109741211 L 33.630873924051 16.147827148438 L 34.03830278481 16.31116027832 L 34.44573164557 16.388856506348 L 34.853160506329 16.418992614746 L 35.260589367089 16.498486633301 L 35.668018227848 16.584854736328 L 36.075447088608 16.69100189209 L 36.482875949367 16.752314758301 L 36.890304810127 16.777021179199 L 37.297733670886 16.784431152344 L 37.705162531646 16.796252746582 L 38.112591392405 16.831960449219 L 38.520020253165 16.877426757813 L 38.927449113924 16.911853637695 L 39.334877974684 16.949366455078 L 39.742306835443 16.98952545166 L 40.149735696203 17.033201904297 L 40.557164556962 17.073798828125 L 40.964593417722 17.113482666016 L 41.372022278481 17.140048522949 L 41.779451139241 17.172585754395 L 42.18688 17.211120910645" stroke="black" fill="transparent"/>
</svg>