<?xml version="1.0" encoding="UTF-8"?>
<svg xmlns="http://www.w3.org/2000/svg" xmlns:xlink="http://www.w3.org/1999/xlink" width="127.3432448" height="20">
<rect x="0" width="127.3432448" height="20" fill="#FFEEEE"/>
<path d="M 10 14.281943969727 L 11.358775250633 14.004007568359 L 12.717550501266 13.661094970703 L 14.076325751899 13.033557128906 L 15.435101002532 12.405806884766 L 16.793876253165 12.11982421875 L 18.152651503797 11.971582641602 L 19.51142675443 11.822326049805 L 20.870202005063 11.843255004883 L 22.228977255696 12.030637817383 L 23.587752506329 11.930778198242 L 24.946527756962 11.547774658203 L 26.305303007595 10.865933227539 L 27.664078258228 10.458486938477 L 29.022853508861 10.626138305664 L 30.381628759494 10.326568603516 L 31.740404010127 10.007348022461 L 33.099179260759 9.4834265136719 L 34.457954511392 9.1812927246094 L 35.816729762025 9.1908483886719 L 37.175505012658 8.9489025878906 L 38.534280263291 8.4885852050781 L 39.893055513924 8.1527136230469 L 41.251830764557 7.8770373535156 L 42.61060601519 7.8535046386719 L 43.969381265823 7.9946411132812 L 45.328156516456 8.0810302734375 L 46.686931767089 7.5011938476562 L 48.045707017722 6.6042565917969 L 49.404482268354 5.7293493652344 L 50.763257518987 4.7525646972656 L 52.12203276962 4.0617541503906 L 53.480808020253 3.8074291992187 L 54.839583270886 3.6730920410156 L 56.198358521519 3.4498510742188 L 57.557133772152 2.8855749511719 L 58.915909022785 2.2065319824219 L 60.274684273418 1.4090795898438 L 61.633459524051 1.1916687011719 L 62.992234774684 1.0905102539063 L 64.351010025316 1.3435021972656 L 65.709785275949 1.5956958007813 L 67.068560526582 2.1225891113281 L 68.427335777215 2.8776989746094 L 69.786111027848 3.6403198242188 L 71.144886278481 4.4080810546875 L 72.503661529114 5.1013415527344 L 73.862436779747 5.8508959960938 L 75.22121203038 6.5976538085938 L 76.579987281013 7.3676318359375 L 77.938762531646 7.6137634277344 L 79.297537782278 7.6332434082031 L 80.656313032911 7.5306066894531 L 82.015088283544 7.8855895996094 L 83.373863534177 8.4145434570313 L 84.73263878481 8.8447595214844 L 86.091414035443 9.1415124511719 L 87.450189286076 9.3754479980469 L 88.808964536709 9.5451379394531 L 90.167739787342 9.7710968017578 L 91.526515037975 10.100666503906 L 92.885290288608 10.430685424805 L 94.244065539241 10.75157409668 L 95.602840789873 11.017630004883 L 96.961616040506 11.222840576172 L 98.320391291139 11.395621337891 L 99.679166541772 11.551639404297 L 101.03794179241 11.771457519531 L 102.39671704304 11.938932495117 L 103.75549229367 12.108643188477 L 105.1142675443 12.263151245117 L 106.47304279494 12.391329345703 L 107.83181804557 12.504842529297 L 109.1905932962 12.654810180664 L 110.54936854684 12.795761108398 L 111.90814379747 12.933376464844 L 113.2669190481 12.988044433594 L 114.62569429873 13.08274597168 L 115.98446954937 13.193668212891 L 117.3432448 13.285900878906" stroke="black" fill="transparent"/>
</svg>