<?xml version="1.0" encoding="UTF-8"?>
<svg xmlns="http://www.w3.org/2000/svg" xmlns:xlink="http://www.w3.org/1999/xlink" width="52.18688" height="20">
<rect x="0" width="52.18688" height="20" fill="#FFEEEE"/>
<path d="M 10 17.922075805664 L 10.407428860759 17.862551574707 L 10.814857721519 17.830743865967 L 11.222286582278 17.776889343262 L 11.629715443038 17.726370697021 L 12.037144303797 17.686943206787 L 12.444573164557 17.665533294678 L 12.852002025316 17.665403289795 L 13.259430886076 17.657552947998 L 13.666859746835 17.676729278564 L 14.074288607595 17.62369644165 L 14.481717468354 17.558868408203 L 14.889146329114 17.535150604248 L 15.296575189873 17.511295928955 L 15.704004050633 17.525420532227 L 16.111432911392 17.510886688232 L 16.518861772152 17.459331970215 L 16.926290632911 17.417287597656 L 17.333719493671 17.330182189941 L 17.74114835443 17.293077697754 L 18.14857721519 17.261270446777 L 18.556006075949 17.124272460938 L 18.963434936709 17.069053344727 L 19.370863797468 17.030197753906 L 19.778292658228 16.994875183105 L 20.185721518987 16.972076416016 L 20.593150379747 16.95507019043 L 21.000579240506 16.842615356445 L 21.408008101266 16.797730407715 L 21.815436962025 16.797816772461 L 22.222865822785 16.734717407227 L 22.630294683544 16.616149291992 L 23.037723544304 16.497680664062 L 23.445152405063 16.424515686035 L 23.852581265823 16.374966125488 L 24.260010126582 16.435912780762 L 24.667438987342 16.489141235352 L 25.074867848101 16.540923461914 L 25.482296708861 16.62097869873 L 25.88972556962 16.661535949707 L 26.29715443038 16.700215759277 L 26.704583291139 16.691332702637 L 27.112012151899 16.658011474609 L 27.519441012658 16.622796936035 L 27.926869873418 16.615636901855 L 28.334298734177 16.601735839844 L 28.741727594937 16.582916564941 L 29.149156455696 16.55110534668 L 29.556585316456 16.508740844727 L 29.964014177215 16.480471191406 L 30.371443037975 16.451707763672 L 30.778871898734 16.430959472656 L 31.186300759494 16.424691467285 L 31.593729620253 16.43233001709 L 32.001158481013 16.400314331055 L 32.408587341772 16.404206542969 L 32.816016202532 16.484012145996 L 33.223445063291 16.641582336426 L 33.630873924051 16.722006835937 L 34.03830278481 16.707969055176 L 34.44573164557 16.613834838867 L 34.853160506329 16.536104431152 L 35.260589367089 16.513677062988 L 35.668018227848 16.53618927002 L 36.075447088608 16.532510375977 L 36.482875949367 16.490878295898 L 36.890304810127 16.468821105957 L 37.297733670886 16.483907470703 L 37.705162531646 16.546788024902 L 38.112591392405 16.645361328125 L 38.520020253165 16.699356994629 L 38.927449113924 16.749682617187 L 39.334877974684 16.874080505371 L 39.742306835443 17.004671325684 L 40.149735696203 17.072877502441 L 40.557164556962 17.13727355957 L 40.964593417722 17.168240966797 L 41.372022278481 17.190908813477 L 41.779451139241 17.201555786133 L 42.18688 17.187767944336" stroke="black" fill="transparent"/>
</svg>