<?xml version="1.0" encoding="UTF-8"?>
<svg xmlns="http://www.w3.org/2000/svg" xmlns:xlink="http://www.w3.org/1999/xlink" width="55.405568" height="20">
<rect x="0" width="55.405568" height="20" fill="#FFEEEE"/>
<path d="M 10 18.100679931641 L 10.448171746835 18.090333251953 L 10.896343493671 18.059669189453 L 11.344515240506 17.994797515869 L 11.792686987342 17.970872039795 L 12.240858734177 17.9524659729 L 12.689030481013 17.88010055542 L 13.137202227848 17.881934051514 L 13.585373974684 17.913118896484 L 14.033545721519 17.94514755249 L 14.481717468354 17.978068084717 L 14.92988921519 17.955915374756 L 15.378060962025 17.899772186279 L 15.826232708861 17.840541534424 L 16.274404455696 17.776488189697 L 16.722576202532 17.76188583374 L 17.170747949367 17.685637817383 L 17.618919696203 17.62373336792 L 18.067091443038 17.522995452881 L 18.515263189873 17.448539733887 L 18.963434936709 17.400496826172 L 19.411606683544 17.358188476562 L 19.85977843038 17.267015380859 L 20.307950177215 17.176047973633 L 20.756121924051 17.170996704102 L 21.204293670886 17.124114379883 L 21.652465417722 17.070340576172 L 22.100637164557 16.999120178223 L 22.548808911392 16.933222351074 L 22.996980658228 16.90186340332 L 23.445152405063 16.841592712402 L 23.893324151899 16.795198669434 L 24.341495898734 16.665536499023 L 24.78966764557 16.558402099609 L 25.237839392405 16.457716369629 L 25.686011139241 16.40332244873 L 26.134182886076 16.274654846191 L 26.582354632911 16.100140991211 L 27.030526379747 15.98389251709 L 27.478698126582 15.885504455566 L 27.926869873418 15.830982055664 L 28.375041620253 15.826397705078 L 28.823213367089 15.82592376709 L 29.271385113924 15.910086975098 L 29.719556860759 16.033928833008 L 30.167728607595 16.146850891113 L 30.61590035443 16.226260375977 L 31.064072101266 16.304098205566 L 31.512243848101 16.396260070801 L 31.960415594937 16.459676513672 L 32.408587341772 16.531166687012 L 32.856759088608 16.59973236084 L 33.304930835443 16.649012145996 L 33.753102582278 16.709266662598 L 34.201274329114 16.737938232422 L 34.649446075949 16.766010742188 L 35.097617822785 16.800954284668 L 35.54578956962 16.831688537598 L 35.993961316456 16.881016845703 L 36.442133063291 16.929600830078 L 36.890304810127 17.033205566406 L 37.338476556962 17.114675292969 L 37.786648303797 17.191272888184 L 38.234820050633 17.227348327637 L 38.682991797468 17.265294799805 L 39.131163544304 17.340186462402 L 39.579335291139 17.416625976562 L 40.027507037975 17.500859985352 L 40.47567878481 17.517419891357 L 40.923850531646 17.517419891357 L 41.372022278481 17.517419891357 L 41.820194025316 17.517419891357 L 42.268365772152 17.517419891357 L 42.716537518987 17.517419891357 L 43.164709265823 17.517419891357 L 43.612881012658 17.517419891357 L 44.061052759494 17.517419891357 L 44.509224506329 17.517419891357 L 44.957396253165 17.517419891357 L 45.405568 17.517419891357" stroke="black" fill="transparent"/>
</svg>